<svg width="132" height="15" viewBox="0 0 132 15" fill="none" xmlns="http://www.w3.org/2000/svg">
<g clip-path="url(#clip0_178_67)">
<path d="M24.9907 0H15.4515L15.6123 0.634375V13.3621L15.4515 13.9965H19.6326V3.11937H24.0983C24.9881 3.18412 25.4387 3.56562 25.4387 4.45638V5.50113C25.4387 5.52913 25.4387 5.55713 25.4387 5.5825C25.4106 6.41375 24.9626 6.77688 24.1018 6.83813H23.0969H20.0753L25.3324 13.9965H29.6883L26.5657 9.80612C26.8977 9.73612 27.2297 9.65212 27.5257 9.5235C28.1002 9.27063 28.5394 8.88825 28.838 8.37725C29.2157 7.75688 29.4213 6.91075 29.4573 5.838C29.4573 5.81612 29.4573 5.79338 29.4573 5.77062C29.4573 5.74525 29.4573 5.71725 29.4573 5.69187C29.4573 5.62975 29.4573 5.5685 29.4573 5.50375V4.45988C29.4573 2.90063 29.0998 1.77188 28.3848 1.07275C27.6882 0.357 26.5569 0 24.9907 0Z" fill="#5766FF"/>
<path d="M0 0L0.160743 0.634375V13.3621L0 13.9965H4.18108V8.56013H9.76405V13.3621L9.60331 13.9965H13.7844V13.3621V0.634375V0H9.60331L9.76405 0.63175V5.43988H4.18108V0H0Z" fill="#5766FF"/>
<path d="M45.2602 0H49.4501L47.3253 9.6075C46.9845 11.1431 46.3881 12.2605 45.5281 12.9605C44.6866 13.6456 43.4982 13.9913 41.961 13.9913H36.9033C35.3662 13.9913 34.3227 13.6474 33.771 12.9605C33.2387 12.2579 33.1395 11.1405 33.4803 9.6075L35.4663 0.637L35.3706 0H39.5604L37.4347 9.6075C37.2397 10.4825 37.5832 10.9218 38.4624 10.9218H41.759C42.6383 10.9218 43.1749 10.4825 43.3699 9.6075L45.3542 0.637L45.2602 0Z" fill="white"/>
<path d="M9.76407 5.43701H4.41211V8.55639H9.76407V5.43701Z" fill="url(#paint0_linear_178_67)"/>
<path d="M27.5143 9.5235C28.0888 9.27063 28.5279 8.88825 28.8266 8.37725C29.2043 7.75688 29.4098 6.91075 29.4459 5.838C29.4459 5.81612 29.4459 5.79338 29.4459 5.77062C29.4459 5.74525 29.4459 5.71725 29.4459 5.69187C29.4459 5.62975 29.4459 5.5685 29.4459 5.50375V4.45988C29.4459 2.90063 29.0884 1.77188 28.3734 1.07275C27.6803 0.357 26.549 0 24.9854 0L24.093 3.11937C24.9828 3.18412 25.4334 3.56562 25.4334 4.45638V5.50113C25.4334 5.52913 25.4334 5.55713 25.4334 5.5825C25.4079 6.33238 25.0417 6.69725 24.3354 6.81012L26.5621 9.80437C26.8915 9.73612 27.2209 9.64862 27.5169 9.52087L27.5143 9.5235Z" fill="url(#paint1_linear_178_67)"/>
<path d="M55.2983 3.11937H62.7338L60.3973 0H55.2711C53.7085 0 52.4884 0.357 51.6153 1.07013C50.8783 1.67125 50.332 2.59437 49.9718 3.84125C49.9156 4.04075 49.8032 4.56575 49.7742 4.71712C49.5801 5.96137 49.7206 6.88538 50.1914 7.48913C50.7492 8.20225 51.8077 8.55925 53.3729 8.55925H57.3063C57.951 8.55925 58.3542 9.0755 58.2137 9.71863C58.0722 10.3618 57.4389 10.878 56.7933 10.878H48.7166L48.5787 11.5071L48.1703 13.3577L48.0289 14H56.8276C58.3911 14 59.6103 13.643 60.4825 12.929C61.0956 12.4259 61.5805 11.7031 61.9292 10.759C62.1664 10.1159 62.3236 9.41675 62.3798 8.77888C62.4677 7.78487 62.3069 7.02887 61.9011 6.51262C61.3442 5.7995 60.2849 5.4425 58.7231 5.4425H54.7889C54.1441 5.4425 53.7418 4.92537 53.8833 4.28225C54.022 3.63913 54.6571 3.12287 55.301 3.12287L55.2983 3.11937Z" fill="white"/>
<path d="M63.9029 3.11937L64.5951 0H61.5664L63.9029 3.11937Z" fill="#5766FF"/>
</g>
<path d="M80.6992 0C81.8493 0 82.9428 0.195921 83.9746 0.59082C84.9996 0.983115 85.8841 1.51976 86.6201 2.2041L86.9668 2.52637L85.7637 3.96973L85.4258 4.37598L85.0391 4.0166C84.3962 3.41882 83.7319 3.0017 83.0479 2.75195L83.0391 2.74805C82.3541 2.4829 81.6354 2.34964 80.8799 2.34961C80.2885 2.34961 79.7431 2.44804 79.2402 2.64062L79.2314 2.64453C78.7404 2.8222 78.3205 3.09714 77.9668 3.47168C77.6161 3.84315 77.3245 4.32944 77.1035 4.94629C76.8985 5.53989 76.79 6.27484 76.79 7.16016C76.7901 8.04319 76.8983 8.78308 77.1035 9.38965C77.3222 9.98864 77.6157 10.4672 77.9756 10.8389L78.1211 10.9766C78.4678 11.2887 78.8624 11.5271 79.3076 11.6943C79.8345 11.8758 80.4169 11.9697 81.0596 11.9697C81.8179 11.9697 82.5388 11.8417 83.2256 11.5869C83.9114 11.325 84.576 10.9013 85.2188 10.3037L85.6055 9.94434L86.8438 11.4297L87.1465 11.7939L86.7998 12.1162C86.0638 12.8005 85.1792 13.3363 84.1543 13.7285C83.1225 14.1234 82.0298 14.3203 80.8799 14.3203C79.7097 14.3203 78.6375 14.1711 77.6689 13.8652L77.667 13.8643C76.7088 13.5576 75.8731 13.1002 75.1689 12.4873L75.166 12.4844C74.4708 11.8679 73.9359 11.1088 73.5605 10.2158C73.1821 9.31545 73 8.29343 73 7.16016C73 6.029 73.1754 5.00902 73.54 4.11035L73.543 4.10449C73.9174 3.21365 74.444 2.45528 75.126 1.83887L75.1299 1.83594C75.8223 1.22192 76.6467 0.763204 77.5938 0.456055C78.5385 0.149721 79.5752 3.47445e-05 80.6992 0ZM95.0957 0C96.2186 2.7693e-05 97.2493 0.149604 98.1826 0.456055C99.1303 0.763395 99.951 1.22265 100.633 1.83887C101.327 2.45488 101.86 3.21274 102.234 4.10449C102.613 5.00485 102.795 6.0269 102.795 7.16016C102.795 8.29343 102.613 9.31545 102.234 10.2158C101.859 11.1088 101.324 11.8679 100.629 12.4844L100.628 12.4834C99.9472 13.0976 99.1299 13.5555 98.1846 13.8623L98.1855 13.8633C97.2515 14.1704 96.2197 14.3203 95.0957 14.3203C93.9714 14.3203 92.9342 14.1697 91.9893 13.8633C91.0422 13.5561 90.2178 13.0984 89.5254 12.4844L89.5225 12.4805C88.8405 11.8641 88.3129 11.1067 87.9385 10.2158L87.9365 10.21C87.5718 9.31124 87.3955 8.29142 87.3955 7.16016C87.3955 6.0289 87.5719 5.00908 87.9365 4.11035L87.9385 4.10449C88.3129 3.2136 88.8405 2.4553 89.5225 1.83887L89.5254 1.83594C90.2178 1.22192 91.0422 0.763204 91.9893 0.456055C92.9341 0.149631 93.9714 0 95.0957 0ZM111.662 0.360352C112.595 0.360352 113.443 0.465233 114.202 0.682617C114.972 0.887834 115.64 1.20091 116.193 1.63086C116.747 2.04978 117.177 2.57332 117.476 3.19629C117.778 3.81458 117.923 4.50959 117.923 5.26953C117.923 6.31599 117.659 7.23435 117.106 7.99414C116.673 8.59046 116.094 9.06163 115.387 9.41992L118.562 13.96H114.372L114.223 13.7471L111.727 10.1797H108.292V13.96H104.683V0.360352H111.662ZM131.779 2.70996H123.409V5.84961H129.979V8.2002H123.409V11.6104H131.779V13.96H119.799V0.360352H131.779V2.70996ZM95.0957 2.25977C94.5451 2.25977 94.0327 2.35554 93.5557 2.5459L93.5566 2.54688C93.1021 2.73285 92.7021 3.01749 92.3545 3.40723C92.0114 3.79194 91.7226 4.29301 91.5 4.92578C91.2939 5.5331 91.1855 6.27521 91.1855 7.16016C91.1856 8.04342 91.2946 8.79072 91.501 9.41113C91.7232 10.0308 92.0104 10.5273 92.3545 10.9131C92.7009 11.3015 93.0992 11.5855 93.5518 11.7715C94.0296 11.9626 94.5439 12.0596 95.0957 12.0596C95.6474 12.0595 96.1527 11.9631 96.6162 11.7734L96.6201 11.7715C97.0864 11.5849 97.4903 11.3006 97.8359 10.9131C98.1795 10.5278 98.4614 10.0316 98.6719 9.41113L98.6738 9.40625C98.8908 8.78787 99.0058 8.04234 99.0059 7.16016C99.0059 6.27768 98.8907 5.53924 98.6748 4.93457L98.6709 4.92383C98.46 4.29116 98.1781 3.79087 97.8359 3.40723C97.4903 3.01964 97.0865 2.73446 96.6201 2.54785L96.6162 2.54688C96.1527 2.35724 95.6474 2.2598 95.0957 2.25977ZM108.292 7.83008H111.662C112.521 7.83008 113.112 7.60874 113.508 7.23438C113.891 6.85971 114.133 6.23947 114.133 5.26953C114.133 4.29896 113.892 3.68928 113.514 3.32812L113.509 3.32324C113.113 2.93658 112.522 2.70996 111.662 2.70996H108.292V7.83008Z" fill="white"/>
<defs>
<linearGradient id="paint0_linear_178_67" x1="9.57812" y1="6.99591" x2="4.50487" y2="6.99591" gradientUnits="userSpaceOnUse">
<stop stop-opacity="0.3"/>
<stop offset="0.04" stop-color="#141414" stop-opacity="0.28"/>
<stop offset="1" stop-color="white" stop-opacity="0"/>
</linearGradient>
<linearGradient id="paint1_linear_178_67" x1="24.4127" y1="7.27851" x2="28.8225" y2="1.81598" gradientUnits="userSpaceOnUse">
<stop stop-opacity="0.3"/>
<stop offset="0.04" stop-color="#141414" stop-opacity="0.28"/>
<stop offset="1" stop-color="white" stop-opacity="0"/>
</linearGradient>
<clipPath id="clip0_178_67">
<rect width="65" height="14" fill="white"/>
</clipPath>
</defs>
</svg>
