<svg width="120" height="30" viewBox="0 0 120 30" fill="none" xmlns="http://www.w3.org/2000/svg">
<mask id="mask0_70_418" style="mask-type:luminance" maskUnits="userSpaceOnUse" x="3" y="6" width="18" height="19">
<path d="M5.5813 7.69915C4.2983 8.71015 3.6123 10.3022 3.6123 11.9362V20.9162V20.9182L6.1013 23.2132V20.8382V20.8232V11.7902C6.1013 10.6632 6.7733 9.65615 7.8633 9.22915C8.6073 8.93715 9.4463 9.02315 10.1573 9.38915L16.6173 12.6952C18.1143 13.4602 18.8563 15.2262 18.2053 16.9482C17.9173 17.7142 17.3103 18.3182 16.5783 18.6802L16.5593 18.6892L10.5423 21.7252C10.5343 21.7272 10.5243 21.7232 10.5243 21.7112V14.5642C10.5243 14.5532 10.5343 14.5472 10.5423 14.5532L12.6903 15.6392L12.2653 15.8792L11.5493 16.2522V18.9792L13.5523 18.0122L15.9463 16.6702C16.4863 16.3662 16.7423 15.6982 16.4783 15.0762C16.3603 14.7992 16.1233 14.5862 15.8533 14.4492L9.84331 11.4092C9.45531 11.2152 8.9963 11.2332 8.6273 11.4592C8.2603 11.6862 8.0353 12.0882 8.0353 12.5212V23.7352C8.0353 23.9482 8.07431 24.1632 8.18031 24.3482C8.42931 24.7802 8.8533 24.9982 9.2803 24.9982C9.4723 24.9982 9.6633 24.9522 9.8413 24.8632L17.6743 20.9142C19.8063 19.8612 21.0813 17.6682 20.9173 15.2602C20.7743 13.1762 19.4593 11.3512 17.5983 10.3992L11.2203 7.13615C10.4643 6.75015 9.6493 6.55615 8.8373 6.55615C7.6893 6.55715 6.5463 6.94015 5.5813 7.69915Z" fill="white"/>
</mask>
<g mask="url(#mask0_70_418)">
<path d="M7.29687 -0.568848L28.6039 10.4462L17.3979 32.1262L-3.91113 21.1102L7.29687 -0.568848Z" fill="url(#paint0_linear_70_418)"/>
</g>
<path d="M77.04 13.0791H77.866H85.101C85.956 13.0791 86.662 13.7811 86.662 14.6401C86.662 15.4961 85.959 16.1991 85.101 16.1991H83.345L87.208 18.4931H85.591L81.728 16.1991V15.3751H85.103C85.503 15.3751 85.835 15.0431 85.835 14.6411C85.835 14.2401 85.503 13.9081 85.103 13.9081H77.867V14.6411V15.3751V16.1991V18.4931H77.041L77.04 13.0791Z" fill="white"/>
<path d="M47.7999 13.9051H51.0169V18.4921H51.8429V13.9051H55.8879V13.0791H51.8429H51.0169H47.7999H46.9739V13.9051H47.7999Z" fill="white"/>
<path d="M57.8309 13.9051H61.0479V18.4921H61.8739V13.9051H65.9189V13.0791H61.8739H61.0479H57.8309H57.0049V13.9051H57.8309Z" fill="white"/>
<path d="M34.6608 15.7851C36.2968 15.7851 36.2308 13.0791 34.4928 13.0791H27.0438H26.2178V13.9051V15.3721V15.7631V18.4921H27.0438H34.4928C36.2298 18.4921 36.2968 15.7851 34.6608 15.7851ZM27.0438 13.9051H27.5448H34.2868C34.6898 13.9051 35.0198 14.2351 35.0198 14.6371C35.0198 15.0411 34.6888 15.3711 34.2868 15.3711H27.5448H27.0438V13.9051ZM35.0198 16.9331C35.0198 17.3351 34.6888 17.6671 34.2868 17.6671H27.0438V16.1981H34.2868C34.6888 16.1981 35.0198 16.5281 35.0198 16.9331Z" fill="white"/>
<path d="M45.8583 13.9051V13.0791H37.7703H36.9453V13.9051V15.3741V15.7631V16.1981V17.6671V18.4921H37.7703H45.8583V17.6671H37.7703V16.1981H45.8583V15.3741H37.7703V13.9051H45.8583Z" fill="white"/>
<path d="M75.9384 13.9051V13.0791H67.0234V13.7181V13.9051V15.3741V16.1981V16.4011V17.6671V18.4921H67.8504H75.9384V17.6671H67.8504V16.4011V16.1981H75.9384V15.3741H67.8504V13.9051H75.9384Z" fill="white"/>
<path d="M102.935 15.7849C102.935 16.1939 102.867 16.6049 102.734 17.0189C102.603 17.4299 102.408 17.807 102.156 18.148C101.9 18.4859 101.592 18.7599 101.232 18.9759C100.871 19.1919 100.461 19.2989 100.005 19.2989H92.7427C92.3047 19.2779 91.9207 19.1549 91.5807 18.9369C91.2407 18.7169 90.9517 18.439 90.7137 18.106C90.4757 17.774 90.2917 17.403 90.1627 16.995C90.0377 16.587 89.9717 16.1819 89.9717 15.7849C89.9717 15.3779 90.0397 14.9679 90.1707 14.5519C90.3057 14.1399 90.4987 13.7629 90.7547 13.4249C91.0067 13.0869 91.3157 12.8099 91.6747 12.5949C92.0377 12.3799 92.4457 12.2729 92.9037 12.2729H100.164C100.6 12.2939 100.986 12.4159 101.326 12.6339C101.666 12.8559 101.955 13.1319 102.195 13.4639C102.431 13.7979 102.615 14.1689 102.744 14.5769C102.87 14.9849 102.935 15.3879 102.935 15.7849ZM99.6687 17.7529C100.03 17.7529 100.327 17.6879 100.56 17.5499C100.794 17.4169 100.98 17.253 101.111 17.061C101.244 16.868 101.334 16.6559 101.381 16.4229C101.43 16.1939 101.453 15.9819 101.453 15.7849C101.453 15.5929 101.43 15.3819 101.381 15.1489C101.334 14.9189 101.244 14.7059 101.111 14.5119C100.98 14.3189 100.795 14.1559 100.56 14.0209C100.328 13.8849 100.031 13.8199 99.6687 13.8199H93.2387C92.8657 13.8199 92.5627 13.8849 92.3347 14.0209C92.1057 14.1559 91.9287 14.3189 91.7957 14.5119C91.6627 14.7039 91.5727 14.9159 91.5247 15.1489C91.4767 15.3819 91.4567 15.5919 91.4567 15.7849C91.4567 15.9799 91.4767 16.1919 91.5247 16.4229C91.5737 16.6539 91.6637 16.866 91.7957 17.061C91.9287 17.253 92.1087 17.4169 92.3347 17.5499C92.5637 17.6879 92.8657 17.7529 93.2387 17.7529H99.6687Z" fill="white"/>
<path d="M116.39 12.27H114.861V17.2L105.248 12.383V12.387C105.135 12.315 105.002 12.271 104.861 12.271H104.035V19.303H105.564V14.355L115.253 19.232V19.227C115.347 19.276 115.452 19.303 115.566 19.303H116.39V12.27Z" fill="white"/>
<defs>
<linearGradient id="paint0_linear_70_418" x1="3.17203" y1="11.0331" x2="19.2097" y2="19.3238" gradientUnits="userSpaceOnUse">
<stop stop-color="#DC821E"/>
<stop offset="1" stop-color="#C31E67"/>
</linearGradient>
</defs>
</svg>
