<svg width="64" height="24" viewBox="0 0 64 24" fill="none" xmlns="http://www.w3.org/2000/svg">
<path d="M14.509 0.00390625H4.69598C2.11398 0.00390625 0.000976562 2.11691 0.000976562 4.69791V4.94391C0.000976562 7.52591 2.11398 9.63791 4.69598 9.63791H14.509C17.091 9.63791 19.204 7.52591 19.204 4.94391V4.69891C19.204 2.11691 17.091 0.00390625 14.509 0.00390625ZM14.433 7.20191H4.77198C3.46198 7.20191 2.38998 6.12991 2.38998 4.81891C2.38998 3.50891 3.46198 2.43691 4.77198 2.43691H14.433C15.744 2.43691 16.815 3.50891 16.815 4.81891C16.815 6.12991 15.744 7.20191 14.433 7.20191Z" fill="white"/>
<path d="M40.8767 0.000976562H38.4717V19.246H40.8767V0.000976562Z" fill="white"/>
<path d="M31.0039 8.40991L29.6589 11.2879L33.3709 19.2479H36.0579L31.0039 8.40991Z" fill="white"/>
<path d="M30.1907 6.66598L33.2987 0.000976562H30.6117L28.8467 3.78498L27.5027 6.66598L21.6357 19.248H24.3227L28.8467 9.54698H28.8487L30.1907 6.66698V6.66598Z" fill="white"/>
<path d="M63.6691 16.844H44.4231V19.248H63.6691V16.844Z" fill="white"/>
<path d="M52.6101 0L44.4231 14.435H47.2241L51.4441 6.991L55.4081 0H52.6101Z" fill="white"/>
<path d="M56.2896 1.4248L54.8916 3.8928L60.8696 14.4348H63.6696L56.2896 1.4248Z" fill="white"/>
<path d="M54.2953 23.7931C54.0463 23.7931 53.8693 23.7251 53.7493 23.5841C53.6373 23.4481 53.5993 23.2971 53.6373 23.1221L53.8083 22.3121C53.8473 22.1301 53.9493 21.9781 54.1193 21.8451C54.2943 21.7081 54.5023 21.6401 54.7543 21.6401H56.2903C56.5453 21.6401 56.7253 21.7081 56.8393 21.8451C56.9513 21.9761 56.9863 22.1281 56.9503 22.3061L56.7753 23.1251C56.7353 23.2991 56.6353 23.4491 56.4643 23.5831C56.2893 23.7251 56.0823 23.7921 55.8313 23.7921L54.2953 23.7931ZM54.8743 21.9021C54.7183 21.9021 54.5773 21.9461 54.4563 22.0361C54.3333 22.1251 54.2513 22.2491 54.2153 22.3971L54.0813 23.0231C54.0513 23.1691 54.0823 23.2941 54.1733 23.3841C54.2603 23.4701 54.3803 23.5131 54.5303 23.5131H55.7153C55.8753 23.5131 56.0173 23.4681 56.1343 23.3821C56.2593 23.2941 56.3443 23.1671 56.3763 23.0171L56.5073 22.4011C56.5363 22.2471 56.5063 22.1201 56.4193 22.0331C56.3373 21.9461 56.2153 21.9021 56.0583 21.9021H54.8743Z" fill="white"/>
<path d="M39.2783 23.7931L38.4893 21.6431H38.9713L39.5183 23.2231C39.5403 23.2931 39.6063 23.3381 39.6883 23.3381C39.7703 23.3381 39.8543 23.2931 39.9093 23.2231L41.1273 21.6431H41.5913L39.8903 23.7931H39.2783Z" fill="white"/>
<path d="M57.8058 23.7931C57.5598 23.7931 57.3808 23.7251 57.2618 23.5841C57.1478 23.4481 57.1128 23.2991 57.1478 23.1221L57.4628 21.6431H57.8878L57.5938 23.0251C57.5638 23.1721 57.5938 23.2971 57.6848 23.3851C57.7708 23.4731 57.8918 23.5141 58.0438 23.5141H58.8738C59.0298 23.5141 59.1718 23.4691 59.2928 23.3831C59.4168 23.2971 59.5018 23.1721 59.5318 23.0251L59.8268 21.6431H60.2468L59.9348 23.1221C59.8958 23.2991 59.7938 23.4481 59.6218 23.5881C59.4478 23.7251 59.2388 23.7931 58.9888 23.7931H57.8058Z" fill="white"/>
<path d="M52.4395 23.793L51.6875 22.829C51.6565 22.786 51.6035 22.764 51.5415 22.764H51.1365C51.0115 22.764 50.8905 22.866 50.8655 22.99L50.6975 23.796H50.2715L50.7305 21.646H52.8595C53.1135 21.646 53.3015 21.709 53.4025 21.833C53.5065 21.957 53.5395 22.102 53.5055 22.274C53.4815 22.396 53.4245 22.492 53.3335 22.567C53.1135 22.753 52.7425 22.765 52.6355 22.765H52.1345L52.9905 23.796H52.4395V23.793ZM50.9515 22.595H52.6085C52.6925 22.595 52.8625 22.593 52.9855 22.474C53.0385 22.423 53.0985 22.339 53.1045 22.205C53.1125 22.011 52.9975 21.909 52.7645 21.909H51.0935L50.9515 22.595Z" fill="white"/>
<path d="M60.5107 23.793L60.9667 21.645H63.0127C63.2537 21.645 63.4267 21.713 63.5407 21.848C63.6547 21.988 63.6917 22.147 63.6527 22.331C63.6327 22.422 63.5017 22.861 62.7537 22.861H61.3547C61.2297 22.861 61.1067 22.963 61.0827 23.088L60.9337 23.793H60.5107ZM61.1917 22.594H62.7247C62.8847 22.594 63.0047 22.557 63.0947 22.481C63.1427 22.438 63.2027 22.363 63.2197 22.249C63.2497 22.035 63.1327 21.913 62.9007 21.913H61.3337L61.1917 22.594Z" fill="white"/>
<path d="M37.2686 23.7911L37.7236 21.6401H38.1436L37.6846 23.7911H37.2686Z" fill="white"/>
<path d="M47.4345 23.793C47.1865 23.793 47.0085 23.725 46.8895 23.584C46.7785 23.448 46.7415 23.299 46.7785 23.122L46.9265 22.426C47.0015 22.07 47.2445 21.645 47.9705 21.645H50.2275L50.1685 21.913H48.0225C47.5655 21.916 47.3815 22.284 47.3485 22.427L47.2215 23.021C47.1905 23.169 47.2205 23.296 47.3095 23.388C47.3955 23.472 47.5145 23.517 47.6675 23.519H48.9845C49.1385 23.517 49.2475 23.484 49.3245 23.421C49.4085 23.355 49.4625 23.259 49.4915 23.124L49.5545 22.819H48.6465L48.6935 22.598H50.0215L49.8865 23.231C49.8555 23.383 49.7655 23.508 49.6155 23.616C49.4565 23.734 49.2855 23.79 49.0895 23.796H47.4345V23.793Z" fill="white"/>
<path d="M35.076 23.7929L35.428 22.1349C35.454 22.0139 35.375 21.9109 35.252 21.9109H34.425L34.484 21.6399H37.25L37.1931 21.9109H36.122C35.999 21.9109 35.877 22.0139 35.851 22.1349L35.497 23.7929H35.076Z" fill="white"/>
<path d="M26.8831 23.791L26.1321 22.826C26.0991 22.786 26.0481 22.762 25.9861 22.762H25.5791C25.4561 22.762 25.3341 22.863 25.3081 22.988L25.1411 23.793H24.7161L25.1741 21.644H27.3041C27.5571 21.644 27.7451 21.709 27.8461 21.831C27.9501 21.955 27.9821 22.1 27.9481 22.271C27.9241 22.396 27.8671 22.492 27.7771 22.567C27.5581 22.75 27.1861 22.763 27.0781 22.763H26.5771L27.4351 23.793L26.8831 23.791ZM25.3971 22.595H27.0531C27.1381 22.595 27.3061 22.591 27.4321 22.47C27.4821 22.423 27.5451 22.339 27.5511 22.205C27.5581 22.009 27.4431 21.909 27.2111 21.909H25.5411L25.3971 22.595Z" fill="white"/>
<path d="M23.3471 21.6399H24.7101L24.6521 21.9109H22.8911C22.4331 21.9159 22.2511 22.2819 22.2191 22.4239L22.0921 23.0199C22.0601 23.1669 22.0911 23.2909 22.1801 23.3849C22.2681 23.4689 22.3881 23.5139 22.5391 23.5139H24.3121L24.2541 23.7929H22.3041C22.0551 23.7929 21.8771 23.7249 21.7591 23.5839C21.6471 23.4479 21.6091 23.2989 21.6471 23.1219L21.7941 22.4259C21.8711 22.0679 22.1131 21.6429 22.8381 21.6429H23.1631" fill="white"/>
<path d="M28 23.7909L28.401 21.9109H28.4L28.458 21.6399H31.01L30.952 21.9109H28.82L28.672 22.5949H30.808L30.759 22.8189H28.625L28.475 23.5189H30.611L30.554 23.7909H28Z" fill="white"/>
<path d="M41.45 23.7909L41.853 21.9109H41.8509L41.9069 21.6399H44.459L44.403 21.9109H42.271L42.1229 22.5949H44.257L44.2099 22.8189H42.0739L41.9259 23.5189H44.062L44.0029 23.7909H41.45Z" fill="white"/>
<path d="M33.8405 23.7911L33.1945 22.1881C33.1675 22.1221 33.1025 22.0831 33.0245 22.0831C32.9465 22.0831 32.8685 22.1221 32.8115 22.1901L31.4855 23.7911H31.0225L32.8205 21.6431H33.4355L34.3205 23.7911H33.8405Z" fill="white"/>
<path d="M19.246 12.0291H0V14.4351H2.406V19.2461H4.812V14.4351H14.436V19.2461H16.84V14.4351H19.246V12.0291Z" fill="white"/>
</svg>
