<svg width="32" height="32" viewBox="0 0 32 32" fill="none" xmlns="http://www.w3.org/2000/svg">
<path d="M10.72 9.20784C10.72 9.38563 10.72 9.56342 10.7206 9.74121C10.7212 10.1887 10.7137 10.6362 10.73 11.0837C10.7375 11.1823 10.7427 11.282 10.7675 11.3782C10.795 11.4889 10.8488 11.5947 10.9295 11.6763C11.0055 11.756 11.1052 11.8091 11.2138 11.8275C11.2966 11.8804 11.3677 11.9494 11.4369 12.0189L11.5201 12.1036V17.4403H14.2525L14.199 11.364C14.144 11.2567 14.0901 11.1487 14.0381 11.0399C13.939 10.8343 13.8401 10.628 13.7197 10.4339C13.4476 10.0018 13.0543 9.65945 12.5889 9.44943C12.5148 9.41617 12.4408 9.38442 12.3646 9.35661C12.0815 9.25259 11.7852 9.19152 11.4883 9.14344C11.3885 9.12711 11.2888 9.1126 11.189 9.09597L10.72 9.01978V9.20784ZM4.6383 9.52079L4.65039 12.1931C4.65523 13.1386 4.66037 14.0837 4.66672 15.0292C4.67065 15.6128 4.67519 16.1963 4.67882 16.7802L4.68335 17.388L5.1121 17.3985L5.13992 17.3991L5.24877 17.4022L5.26268 17.4025L5.38513 17.4061C5.77276 17.4176 6.16039 17.4309 6.54832 17.4333H6.56223C6.60698 17.4333 6.65203 17.4312 6.69708 17.4294C6.80079 17.4242 6.90541 17.4085 7.00156 17.368C7.04147 17.3514 7.07957 17.3308 7.11495 17.3063C7.24043 17.3789 7.37196 17.4421 7.51044 17.4856C7.60568 17.5168 7.70274 17.5425 7.80071 17.5615C8.10004 17.6199 8.40845 17.6214 8.7093 17.5763C8.98991 17.5335 9.26361 17.4537 9.52326 17.339C9.65509 17.2824 9.78269 17.215 9.90364 17.1376C10.2458 16.9162 10.5391 16.6272 10.7654 16.2883C10.8092 16.2236 10.8512 16.1579 10.8878 16.0887C10.9852 15.9064 11.0517 15.7077 11.0874 15.5042C11.1708 15.0576 11.1829 14.6002 11.1448 14.1481C11.1333 13.9983 11.1141 13.8491 11.0874 13.7012C11.0393 13.4436 10.9604 13.1897 10.8364 12.9574C10.7955 12.8826 10.7517 12.8094 10.7052 12.7379C10.5093 12.4344 10.2701 12.1565 9.98558 11.9327C9.9382 11.8946 9.88874 11.8592 9.83742 11.8266C9.61306 11.6842 9.36271 11.5862 9.10631 11.5191C8.69778 11.4096 8.27025 11.3906 7.85362 11.4635C7.6849 11.494 7.5189 11.5412 7.35986 11.6056V9.35993H4.6377L4.6383 9.52079ZM23.7854 11.4127C23.6012 11.4157 23.4177 11.4356 23.2369 11.4701C22.8884 11.5364 22.5533 11.6598 22.2452 11.8354C21.8597 12.0603 21.5389 12.3809 21.3139 12.7663C21.2443 12.8849 21.1848 13.0088 21.1343 13.1367C21.0306 13.3962 20.9625 13.6689 20.9235 13.9453C20.8419 13.5857 20.6931 13.2447 20.4851 12.9402C20.2932 12.658 20.0574 12.4084 19.7866 12.2006C19.203 11.7569 18.4976 11.5023 17.7651 11.471C17.636 11.4668 17.5068 11.4698 17.378 11.4801C16.758 11.5322 16.1634 11.7505 15.657 12.112C15.3782 12.3109 15.1335 12.5538 14.9325 12.8311C14.7401 13.0946 14.5967 13.3906 14.5092 13.7049C14.4741 13.8346 14.4503 13.9676 14.4382 14.1016C14.417 14.3486 14.3973 14.5965 14.4079 14.8445C14.4103 14.9119 14.4158 14.9793 14.4264 15.0462C14.4542 15.2255 14.5119 15.3987 14.583 15.5653C14.6247 15.6642 14.671 15.7609 14.7188 15.8571C14.9765 16.3278 15.3332 16.7371 15.7643 17.0569C16.0188 17.2412 16.3027 17.381 16.604 17.4702C16.9085 17.5627 17.2259 17.6093 17.5437 17.6196C17.6671 17.6229 17.7908 17.6196 17.9138 17.6114C18.2917 17.588 18.6635 17.5047 19.0153 17.3647C19.0676 17.3441 19.1188 17.3211 19.1689 17.2957C19.3896 17.1826 19.5968 17.0442 19.7891 16.8875C19.9641 16.7454 20.1268 16.5882 20.2783 16.421C20.3753 16.3131 20.4636 16.1969 20.5422 16.0745C20.7126 15.8091 20.8375 15.5173 20.912 15.2109C20.9462 15.5203 21.0179 15.8275 21.1458 16.112C21.2259 16.2904 21.3287 16.4594 21.4542 16.6097C21.6235 16.8108 21.8233 16.9841 22.0465 17.1231C22.2769 17.2703 22.5257 17.3867 22.7797 17.4877C22.8898 17.5307 23.0041 17.5621 23.1199 17.5839V20.1162L23.5471 20.098L23.5901 20.0962L23.633 20.0944L23.6469 20.0938L23.7391 20.0905C24.137 20.0753 24.5349 20.0642 24.9322 20.0388C25.2041 20.0188 25.4747 19.9568 25.7208 19.838C25.7885 19.8047 25.8563 19.7706 25.9219 19.7331C26.1771 19.5855 26.4106 19.403 26.6155 19.1909C26.6424 19.1643 26.6672 19.1362 26.6911 19.1069C26.8574 18.9097 27.0037 18.6932 27.1053 18.4553C27.1507 18.3495 27.1861 18.2391 27.2121 18.1269C27.2816 17.8351 27.31 17.5358 27.3251 17.2371C27.333 17.085 27.3381 16.9329 27.3436 16.7808C27.3654 15.8132 27.3593 14.8454 27.3596 13.8775C27.3596 13.6405 27.3602 13.4034 27.3599 13.1664V11.52H24.7203V11.5896C24.4237 11.4683 24.1057 11.4081 23.7854 11.4127ZM17.8083 14C17.8394 14.0012 17.8718 14.0027 17.9008 14.0151C17.9111 14.0218 17.9193 14.0311 17.9289 14.0387C18.0348 14.1318 18.1351 14.2322 18.2228 14.3426C18.2346 14.3637 18.2367 14.3885 18.2389 14.4121C18.2431 14.4735 18.2373 14.5346 18.2325 14.5953C18.2105 14.7524 18.1297 14.8953 18.0063 14.9951C17.9456 15.044 17.8745 15.0803 17.7986 15.0982C17.7013 15.1254 17.596 15.1163 17.5014 15.0818C17.3805 15.0386 17.2774 14.9565 17.2081 14.8484C17.1825 14.8064 17.1624 14.7611 17.1485 14.7139C17.113 14.5849 17.1254 14.4474 17.1833 14.3268C17.2045 14.2827 17.2314 14.2416 17.2625 14.2041C17.3163 14.1267 17.3919 14.0626 17.4814 14.0311C17.5105 14.0208 17.541 14.016 17.5712 14.0121C17.6389 14.0029 17.7071 13.9989 17.7753 14C17.7862 13.9994 17.7971 13.9997 17.8083 14ZM24.2253 14.006C24.2755 14.006 24.3254 14.013 24.3729 14.0287C24.5108 14.0735 24.6287 14.1781 24.6879 14.3105C24.707 14.3498 24.7227 14.39 24.733 14.4324C24.7581 14.533 24.7575 14.6416 24.7227 14.7399C24.7088 14.7786 24.6891 14.8155 24.6644 14.8487L24.6565 14.859C24.5919 14.9401 24.5081 15.0039 24.4128 15.0446C24.3462 15.0744 24.2763 15.0957 24.2045 15.1081C24.157 15.1068 24.1102 15.0966 24.0666 15.0779C24.0167 15.0582 23.9679 15.036 23.9202 15.0114C23.8382 14.9568 23.7751 14.8783 23.7394 14.7864C23.6911 14.6685 23.6812 14.5384 23.711 14.4145C23.7255 14.3562 23.7503 14.3005 23.7848 14.2512C23.8646 14.1243 24.0004 14.0335 24.1488 14.0112C24.1742 14.0072 24.1999 14.0054 24.2253 14.006ZM7.95733 14.0937C8.01236 14.094 8.06739 14.1043 8.11788 14.1258C8.23369 14.1741 8.32954 14.2703 8.37489 14.3876C8.39878 14.4508 8.40664 14.5191 8.40241 14.586C8.39626 14.6846 8.36265 14.7796 8.30535 14.8602C8.2419 14.926 8.16317 14.9752 8.07616 15.0032C7.97729 15.0368 7.87116 15.0489 7.76714 15.0389C7.68604 15.0269 7.61276 14.9838 7.56275 14.9189C7.49847 14.8418 7.45952 14.7468 7.45118 14.6467C7.43895 14.5335 7.46197 14.4192 7.51709 14.3196C7.55186 14.2591 7.60145 14.2062 7.66253 14.1714C7.75112 14.1191 7.85453 14.0925 7.95733 14.0937Z" fill="white"/>
<path d="M15.7279 30.2241C15.5919 30.0959 15.1202 29.0721 14.2318 26.984L12.9359 23.9199H9.07989C6.84785 23.9199 5.04002 23.8881 4.79209 23.84C4.15199 23.72 3.28784 23.264 2.82371 22.7999C2.35202 22.3282 1.89606 21.504 1.76786 20.8959C1.70406 20.6081 1.68018 18.3839 1.68018 13.8161C1.68018 8.08788 1.6959 7.08797 1.79991 6.68009C2.18391 5.20788 3.40787 4.07977 4.88007 3.84786C5.5997 3.72812 26.408 3.72812 27.12 3.84786C28.552 4.07191 29.7361 5.09601 30.16 6.45603C30.3121 6.96007 30.3202 7.19198 30.3202 13.7919C30.3202 18.0879 30.2879 20.7281 30.2319 20.9519C30.016 21.904 29.2 22.9599 28.3361 23.424C27.4481 23.896 27.2319 23.9199 22.9919 23.9199H19.144L17.8481 26.984C17.1279 28.6639 16.4881 30.0959 16.4158 30.1679C16.176 30.408 15.952 30.424 15.7279 30.2241ZM25.6799 19.32C25.9199 19.184 26.232 18.9279 26.3759 18.7359C26.8479 18.1121 26.8799 17.8802 26.8799 14.784V11.9998H25.2V12.5039L25.024 12.3439C24.5838 11.9439 23.9921 11.8078 23.3121 11.9439C22.0319 12.2079 21.36 13.1201 21.36 14.592C21.36 15.8241 21.6959 16.44 22.6079 16.8881C23.0161 17.088 23.2241 17.1439 23.5839 17.1439C24.1599 17.1361 24.64 17.0079 24.92 16.7841L25.1438 16.6078L25.0878 16.9601C24.976 17.6561 24.608 18.0002 23.9679 18.0002H23.5999V19.616L24.4239 19.584C25.1441 19.5598 25.288 19.5281 25.6799 19.32ZM9.40795 16.8639C9.86391 16.6559 10.3038 16.2078 10.5119 15.7679C10.7359 15.2638 10.7441 14.0719 10.5279 13.4479C10.3679 12.9762 9.87994 12.3838 9.48777 12.1761C8.672 11.7519 7.63187 11.8239 7.06404 12.3439L6.8799 12.5042V9.84007H5.12015L5.13587 13.3838L5.16006 16.9199L6.02391 16.9441C6.83999 16.9683 6.8799 16.9601 6.8799 16.7998C6.8799 16.6 6.90409 16.6 7.27206 16.8401C7.83204 17.2159 8.64781 17.2241 9.40795 16.8642V16.8639ZM18.776 16.9441C19.264 16.7681 19.928 16.2003 20.192 15.728C21.064 14.208 20.072 12.3681 18.184 11.9998C17 11.7679 15.7198 12.3439 15.1601 13.368C14.9838 13.704 14.92 13.928 14.8958 14.4082C14.8641 14.9439 14.888 15.0718 15.08 15.5039C15.3119 16.024 15.8398 16.5921 16.3199 16.8401C17.016 17.1999 17.976 17.2401 18.776 16.9441ZM13.7438 14.2159L13.7199 11.4801L13.456 10.944C13.088 10.2002 12.5038 9.79986 11.5438 9.63991L11.2 9.58397V10.472C11.2 11.2318 11.2161 11.36 11.3279 11.36C11.3999 11.36 11.5759 11.4801 11.728 11.6322L12.0001 11.904V16.9601H13.7677L13.7438 14.2159Z" fill="#42D31A"/>
<path d="M23.7837 15.4799C23.2557 15.2559 23.0477 14.536 23.3598 14.0238C23.7921 13.312 24.7999 13.3758 25.1358 14.1356C25.3838 14.7041 25.1358 15.2876 24.5359 15.512C24.2396 15.6239 24.0954 15.616 23.7837 15.4799ZM7.37598 15.3919C6.78396 14.9838 6.84776 14.0238 7.48786 13.7199C8.36773 13.3038 9.208 14.1758 8.7599 15.04C8.53585 15.4799 7.77571 15.6719 7.37598 15.3919ZM17.1438 15.44C17.0247 15.3687 16.9213 15.2738 16.8402 15.1611C16.759 15.0484 16.7017 14.9204 16.6717 14.7848C16.6418 14.6492 16.6398 14.5089 16.666 14.3726C16.6922 14.2362 16.7459 14.1066 16.8239 13.9917C17.0558 13.6479 17.3037 13.52 17.7518 13.52C18.0479 13.52 18.1437 13.5599 18.408 13.8318C18.6719 14.096 18.7197 14.1919 18.7197 14.4879C18.7197 15.3439 17.848 15.8718 17.1438 15.44Z" fill="#42D31A"/>
</svg>
