<svg width="18" height="18" viewBox="0 0 18 18" fill="none" xmlns="http://www.w3.org/2000/svg">
<path fill-rule="evenodd" clip-rule="evenodd" d="M9.00565 0.000290313C9.44928 -0.00719123 9.88342 0.130107 10.2434 0.391716C10.7267 0.701903 11.2687 1.31194 11.9439 1.70041C12.896 2.24693 14.639 1.49509 15.5325 2.83776C16.0555 3.62209 16.0789 4.23507 16.1184 4.84215C16.1609 5.4965 16.2752 6.09915 16.9387 6.98539C18.0387 8.45213 18.2672 9.42848 17.7004 10.4462C17.3151 11.1389 16.5007 11.5245 16.3132 11.9646C15.9119 12.8996 16.3557 13.6042 15.8064 14.6928C15.6324 15.0528 15.3865 15.3726 15.084 15.6322C14.7815 15.8917 14.429 16.0853 14.0488 16.2009C13.3896 16.4165 12.7305 16.1064 12.1988 16.3294C11.2701 16.7238 10.5876 17.6381 9.84641 17.8685C9.29139 18.0438 8.69648 18.0438 8.14145 17.8685C7.40908 17.6381 6.71773 16.7238 5.78908 16.3294C5.26031 16.1064 4.59824 16.4165 3.93911 16.2009C3.56286 16.0827 3.21468 15.8878 2.91612 15.6284C2.61756 15.369 2.37498 15.0506 2.20339 14.6928C1.65118 13.6042 2.095 12.8996 1.69366 11.9646C1.50617 11.5215 0.691777 11.1389 0.299227 10.4462C-0.267628 9.42848 -0.037664 8.45213 1.06236 6.98539C1.72589 6.09915 1.84014 5.4965 1.88261 4.84215C1.9207 4.23507 1.9456 3.62209 2.46851 2.83776C3.3664 1.49509 5.11676 2.24693 6.06152 1.70188C6.74409 1.31341 7.28458 0.70338 7.76941 0.393193C8.12877 0.131363 8.56236 -0.00644261 9.00565 0.000290313Z" fill="#5766FF"/>
<path d="M10.8689 6.69371C11.2655 6.26404 11.9354 6.23716 12.3651 6.63374C12.7947 7.03036 12.8216 7.70025 12.425 8.12995L9.4926 11.3064C9.29221 11.5235 9.01043 11.6471 8.71503 11.6471C8.41953 11.6471 8.13738 11.5235 7.93694 11.3064L6.10416 9.32112L6.03488 9.23789C5.71257 8.80878 5.76129 8.19677 6.16413 7.82492C6.56695 7.45315 7.18082 7.45342 7.58279 7.80889L7.66034 7.88489L8.71451 9.02695L10.8689 6.69371Z" fill="white"/>
</svg>
