<svg width="20" height="20" viewBox="0 0 20 20" fill="none" xmlns="http://www.w3.org/2000/svg">
<g opacity="0.22">
<path d="M5.43475 9.23606C5.56649 9.26792 5.66723 9.12886 5.61283 9.00472C5.35508 8.41653 5.21205 7.76663 5.21205 7.08333C5.21205 5.45821 6.02108 4.02204 7.25835 3.15561C7.3693 3.07792 7.35569 2.90691 7.2267 2.86558C6.90799 2.76346 6.56825 2.70833 6.21564 2.70833C4.38747 2.70833 2.90545 4.19035 2.90545 6.01851C2.90545 7.57768 3.98343 8.88508 5.43475 9.23606Z" fill="#13193A"/>
<path d="M2.90599 15.7461C2.99299 15.7636 3.07087 15.6903 3.0641 15.6018C2.99288 14.6706 3.26344 13.7495 3.70988 12.9907L4.07725 12.3663C4.59004 11.4947 5.39254 10.8536 6.32174 10.5361C6.44287 10.4947 6.48524 10.3386 6.40081 10.2424L6.37672 10.2147C6.31088 10.1385 6.21611 10.0926 6.11541 10.0926H4.26684C3.1732 10.0926 2.16122 10.6713 1.60666 11.6139L1.54773 11.7141C1.10702 12.4632 0.923281 13.3342 1.12081 14.1082C1.32831 14.9212 1.94211 15.5519 2.90599 15.7461Z" fill="#13193A"/>
<path d="M14.391 9.00472C14.3366 9.12886 14.4374 9.26792 14.5691 9.23606C16.0204 8.88508 17.0984 7.57768 17.0984 6.01851C17.0984 4.19035 15.6164 2.70833 13.7882 2.70833C13.4356 2.70833 13.0959 2.76346 12.7772 2.86558C12.6482 2.90691 12.6346 3.07792 12.7455 3.15561C13.9828 4.02204 14.7918 5.45821 14.7918 7.08333C14.7918 7.76663 14.6488 8.41653 14.391 9.00472Z" fill="#13193A"/>
<path d="M16.9398 15.6018C16.933 15.6903 17.0109 15.7636 17.0979 15.7461C18.0618 15.5519 18.6756 14.9212 18.8831 14.1082C19.0806 13.3342 18.8969 12.4632 18.4561 11.7141L18.3972 11.6139C17.8426 10.6713 16.8307 10.0926 15.737 10.0926H13.8885C13.7878 10.0926 13.693 10.1385 13.6272 10.2147L13.6031 10.2424C13.5186 10.3386 13.561 10.4947 13.6821 10.5361C14.6113 10.8536 15.4138 11.4947 15.9266 12.3663L16.294 12.9907C16.7404 13.7495 17.011 14.6706 16.9398 15.6018Z" fill="#13193A"/>
<path d="M10 3.54166C8.04402 3.54166 6.45836 5.12732 6.45836 7.08333C6.45836 9.03934 8.04402 10.625 10 10.625C11.956 10.625 13.5417 9.03934 13.5417 7.08333C13.5417 5.12732 11.956 3.54166 10 3.54166Z" fill="#13193A"/>
<path d="M7.66479 11.5625C6.63131 11.5625 5.67499 12.1094 5.15093 13.0002L4.78356 13.6246C4.36906 14.3291 4.19101 15.1532 4.36685 15.8939C4.55118 16.6703 5.11494 17.2932 6.02248 17.5103C8.28707 18.0521 11.713 18.0521 13.9776 17.5103C14.8851 17.2932 15.4489 16.6703 15.6332 15.8939C15.8091 15.1532 15.631 14.3291 15.2165 13.6246L14.8491 13.0002C14.3251 12.1094 13.3688 11.5625 12.3353 11.5625H7.66479Z" fill="#13193A"/>
</g>
</svg>
