<svg width="24" height="24" viewBox="0 0 24 24" fill="none" xmlns="http://www.w3.org/2000/svg">
<g clip-path="url(#clip0_212_272)">
<path opacity="0.40206" d="M5.28711 18.1853H18.7467V22.0305H5.28711V18.1853Z" fill="url(#paint0_linear_212_272)"/>
<path opacity="0.40206" d="M18.7476 18.1855V22.0305C20.183 22.0378 22.218 21.1691 22.218 20.1078C22.218 19.0465 20.616 18.1855 18.7476 18.1855Z" fill="url(#paint1_radial_212_272)"/>
<path opacity="0.40206" d="M5.28706 18.1858V22.0308C3.85157 22.038 1.81665 21.1693 1.81665 20.108C1.81665 19.0467 3.41862 18.1858 5.28706 18.1858Z" fill="url(#paint2_radial_212_272)"/>
<path d="M6.70247 7.45337C6.44206 7.45337 6.27281 7.57428 6.16864 7.80493L3.47331 14.9316C3.47331 14.9316 3.36914 15.2114 3.36914 15.6738V19.6946C3.36914 20.1457 3.64322 20.3717 4.05922 20.3717H20.1267C20.5371 20.3717 20.7908 20.0724 20.7908 19.6034V15.5826C20.7908 15.5826 20.835 15.2616 20.7517 15.0357L17.9522 7.87031C17.8754 7.65701 17.6869 7.4586 17.4835 7.45364L6.70247 7.45337Z" stroke="#535353" stroke-width="0.833333" stroke-linecap="round" stroke-linejoin="round"/>
<path fill-rule="evenodd" clip-rule="evenodd" d="M3.36401 15.3841L3.6826 15.0957L19.3534 15.1217L20.7961 15.254V19.6035C20.7961 20.0725 20.5432 20.3716 20.1328 20.3716H4.05656C3.64053 20.3716 3.36414 20.1457 3.36414 19.6946L3.36401 15.3841Z" fill="url(#paint3_linear_212_272)"/>
<path fill-rule="evenodd" clip-rule="evenodd" d="M3.47881 14.933C3.18119 15.5431 3.47856 15.93 3.91036 15.93H20.1604C20.6266 15.9201 20.9292 15.5084 20.7556 15.0371L17.958 7.86589C17.8811 7.65259 17.6852 7.45418 17.4818 7.44922H6.70802C6.44761 7.44922 6.27648 7.57571 6.17231 7.80636L3.47881 14.933Z" fill="url(#paint4_radial_212_272)"/>
<path fill-rule="evenodd" clip-rule="evenodd" d="M5.27417 17.1245H12.6179V19.4422H5.27417V17.1245Z" fill="url(#paint5_linear_212_272)"/>
<path opacity="0.81143" fill-rule="evenodd" clip-rule="evenodd" d="M5.27417 19.4425V17.771C6.03896 19.0957 8.73104 19.4425 10.665 19.4425H5.27417Z" fill="url(#paint6_linear_212_272)"/>
<path fill-rule="evenodd" clip-rule="evenodd" d="M20.6649 14.8142C20.6914 15.335 20.4924 15.7791 20.114 15.7908H4.23113C3.69396 15.7908 3.45292 15.6554 3.36279 15.4291C3.40103 15.8226 3.70688 16.1163 4.23113 16.1163H20.114C20.5624 16.1025 20.8444 15.523 20.6775 14.8685L20.6649 14.8142Z" fill="white"/>
<path opacity="0.69143" fill-rule="evenodd" clip-rule="evenodd" d="M6.57023 8.36719C6.55103 8.45065 6.49211 8.52835 6.49211 8.61458C6.49211 9.00984 6.73835 9.3602 7.052 9.69531C7.15211 9.63112 7.20414 9.54764 7.31242 9.48698C6.92062 9.14698 6.66517 8.77174 6.57023 8.36719ZM17.677 8.36719C17.5817 8.7712 17.3262 9.14737 16.9348 9.48698C17.049 9.55097 17.1031 9.64041 17.2083 9.70833C17.5238 9.37223 17.7551 9.01123 17.7551 8.61458C17.7551 8.52835 17.6961 8.45065 17.677 8.36719ZM18.5885 11.8828C18.3327 13.5662 15.5474 14.9036 12.1171 14.9036C8.69534 14.9036 5.92538 13.5733 5.65877 11.8958C5.64529 11.978 5.60669 12.0591 5.60669 12.1432C5.60669 13.9424 8.51881 15.4115 12.1171 15.4115C15.7154 15.4115 18.6405 13.9424 18.6405 12.1432C18.6405 12.0545 18.6034 11.9693 18.5885 11.8828Z" fill="url(#paint7_linear_212_272)"/>
<path fill-rule="evenodd" clip-rule="evenodd" d="M5.6092 14.8732C5.6092 14.9856 5.54905 15.0933 5.442 15.1727C5.33495 15.2522 5.18976 15.2968 5.03836 15.2968C4.88697 15.2968 4.74177 15.2522 4.63472 15.1727C4.52767 15.0933 4.46753 14.9856 4.46753 14.8732C4.46753 14.7609 4.52767 14.6532 4.63472 14.5738C4.74177 14.4943 4.88697 14.4497 5.03836 14.4497C5.18976 14.4497 5.33495 14.4943 5.442 14.5738C5.54905 14.6532 5.6092 14.7609 5.6092 14.8732Z" fill="white" fill-opacity="0.45763"/>
<path fill-rule="evenodd" clip-rule="evenodd" d="M19.7254 14.8364C19.7254 14.9487 19.6653 15.0564 19.5582 15.1359C19.4512 15.2153 19.306 15.2599 19.1546 15.2599C19.0032 15.2599 18.858 15.2153 18.7509 15.1359C18.6439 15.0564 18.5837 14.9487 18.5837 14.8364C18.5837 14.7241 18.6439 14.6163 18.7509 14.5369C18.858 14.4575 19.0032 14.4128 19.1546 14.4128C19.306 14.4128 19.4512 14.4575 19.5582 14.5369C19.6653 14.6163 19.7254 14.7241 19.7254 14.8364Z" fill="white" fill-opacity="0.45763"/>
<path d="M6.85137 7.64209C6.60066 7.64209 6.4377 7.75849 6.33741 7.98054L3.66449 14.8935C3.66449 14.8935 3.56421 15.1628 3.56421 15.608V19.4788C3.56421 20.0433 3.74923 20.1567 4.22858 20.1567H19.9315C20.4828 20.1567 20.5708 20.0249 20.5708 19.3911V15.5202C20.5708 15.5202 20.6133 15.2112 20.5332 14.9937L17.786 7.99121C17.712 7.78587 17.5566 7.64694 17.3608 7.64216L6.85137 7.64209Z" stroke="url(#paint8_linear_212_272)" stroke-width="0.416667" stroke-linecap="round" stroke-linejoin="round"/>
<path d="M18.875 17.2307V19.3228" stroke="white" stroke-opacity="0.42373" stroke-width="0.416667" stroke-linecap="square"/>
<path d="M18.0417 17.2559V19.3479" stroke="white" stroke-opacity="0.42373" stroke-width="0.416667" stroke-linecap="square"/>
<path d="M17.2083 17.2559V19.3479" stroke="white" stroke-opacity="0.42373" stroke-width="0.416667" stroke-linecap="square"/>
<path d="M16.375 17.2559V19.3479" stroke="white" stroke-opacity="0.42373" stroke-width="0.416667" stroke-linecap="square"/>
<path d="M15.5417 17.2559V19.3479" stroke="white" stroke-opacity="0.42373" stroke-width="0.416667" stroke-linecap="square"/>
<path d="M14.7083 17.2559V19.3479" stroke="white" stroke-opacity="0.42373" stroke-width="0.416667" stroke-linecap="square"/>
<path opacity="0.09714" d="M18.4583 17.2517V19.3438" stroke="black" stroke-width="0.416667" stroke-linecap="square"/>
<path opacity="0.09714" d="M17.625 17.2766V19.3687" stroke="black" stroke-width="0.416667" stroke-linecap="square"/>
<path opacity="0.09714" d="M16.7917 17.2766V19.3687" stroke="black" stroke-width="0.416667" stroke-linecap="square"/>
<path opacity="0.09714" d="M15.9583 17.2766V19.3687" stroke="black" stroke-width="0.416667" stroke-linecap="square"/>
<path opacity="0.09714" d="M15.125 17.2766V19.3687" stroke="black" stroke-width="0.416667" stroke-linecap="square"/>
<path opacity="0.44" fill-rule="evenodd" clip-rule="evenodd" d="M5.28132 17.1299V19.4346H10.5155L5.42424 19.2913L5.28132 17.1299Z" fill="white"/>
<path opacity="0.20571" fill-rule="evenodd" clip-rule="evenodd" d="M18.5622 11.909C18.5622 12.2972 18.3958 12.6815 18.0725 13.0402C17.7493 13.3988 17.2755 13.7246 16.6782 13.9991C16.0809 14.2736 15.3718 14.4913 14.5914 14.6399C13.8111 14.7884 12.9746 14.8649 12.13 14.8649C11.2853 14.8649 10.4488 14.7884 9.66846 14.6399C8.88807 14.4913 8.17899 14.2736 7.5817 13.9991C6.98442 13.7246 6.51062 13.3988 6.18738 13.0402C5.86413 12.6815 5.69775 12.2972 5.69775 11.909C5.69775 11.5208 5.86413 11.1365 6.18738 10.7778C6.51062 10.4192 6.98442 10.0934 7.5817 9.81888C8.17899 9.5444 8.88807 9.32667 9.66846 9.17813C10.4488 9.02958 11.2853 8.95312 12.13 8.95312C12.9746 8.95312 13.8111 9.02958 14.5914 9.17813C15.3718 9.32667 16.0809 9.5444 16.6782 9.81888C17.2755 10.0934 17.7493 10.4192 18.0725 10.7778C18.3958 11.1365 18.5622 11.5208 18.5622 11.909Z" fill="url(#paint9_linear_212_272)"/>
<path opacity="0.14118" fill-rule="evenodd" clip-rule="evenodd" d="M19.4347 12.8336C19.4425 12.4828 19.2577 12.1349 18.8909 11.8101C18.5241 11.4852 17.9827 11.1897 17.2978 10.9406C16.6129 10.6916 15.7982 10.4939 14.9005 10.3591C14.0028 10.2242 13.0399 10.1547 12.0674 10.1547C11.095 10.1547 10.1321 10.2242 9.23443 10.3591C8.33673 10.4939 7.52194 10.6916 6.83706 10.9406C6.15217 11.1897 5.61074 11.4852 5.24398 11.8101C4.87723 12.1349 4.69241 12.4828 4.70019 12.8336C4.69241 13.1844 4.87723 13.5322 5.24398 13.8571C5.61074 14.182 6.15217 14.4775 6.83706 14.7265C7.52194 14.9756 8.33673 15.1732 9.23443 15.3081C10.1321 15.443 11.095 15.5125 12.0674 15.5125C13.0399 15.5125 14.0028 15.443 14.9005 15.3081C15.7982 15.1732 16.6129 14.9756 17.2978 14.7265C17.9827 14.4775 18.5241 14.182 18.8909 13.8571C19.2577 13.5322 19.4425 13.1844 19.4347 12.8336Z" fill="url(#paint10_radial_212_272)"/>
<path d="M3.33469 12.7646C2.90531 -0.244155 13.9755 1.8121 13.9093 8.57835H16.9563L12.2155 13.9892L7.24381 8.57835H10.3861C10.5765 4.00793 3.4201 2.67043 3.33469 12.7646Z" fill="#002689" stroke="url(#paint11_linear_212_272)" stroke-width="0.416667"/>
<path opacity="0.47159" d="M5.19336 5.79328C7.16928 1.98324 13.7175 3.1322 13.5671 8.90799H16.1994L12.2136 13.4734L8.00694 8.90799H10.6972C10.8104 4.08507 6.55082 4.30591 5.19336 5.79328Z" stroke="url(#paint12_linear_212_272)" stroke-width="0.416667" stroke-miterlimit="10"/>
<path d="M4.57845 14.6243H19.5776C19.7572 14.6243 19.9294 14.6956 20.0564 14.8226C20.1834 14.9496 20.2547 15.1218 20.2547 15.3014V19.0631C20.2547 19.2427 20.1834 19.4149 20.0564 19.5419C19.9294 19.6688 19.7572 19.7402 19.5776 19.7402H4.57845C4.39888 19.7402 4.22666 19.6688 4.09968 19.5419C3.9727 19.4149 3.90137 19.2427 3.90137 19.0631V15.3014C3.90137 15.1218 3.9727 14.9496 4.09968 14.8226C4.22666 14.6956 4.39888 14.6243 4.57845 14.6243Z" fill="url(#paint13_linear_212_272)" stroke="#7D7D7D" stroke-width="0.416667" stroke-linecap="round"/>
<path opacity="0.59659" d="M4.91675 15.75H11.5834V18.6667H4.91675V15.75Z" fill="#7D7D7D"/>
<path d="M12 15.3333H12.4167V19.0833H12V15.3333Z" fill="black"/>
</g>
<defs>
<linearGradient id="paint0_linear_212_272" x1="20.9542" y1="18.1853" x2="20.9542" y2="22.0305" gradientUnits="userSpaceOnUse">
<stop stop-opacity="0"/>
<stop offset="0.5"/>
<stop offset="1" stop-opacity="0"/>
</linearGradient>
<radialGradient id="paint1_radial_212_272" cx="0" cy="0" r="1" gradientUnits="userSpaceOnUse" gradientTransform="translate(18.833 20.0854) scale(3.26537 1.85469)">
<stop/>
<stop offset="1" stop-opacity="0"/>
</radialGradient>
<radialGradient id="paint2_radial_212_272" cx="0" cy="0" r="1" gradientUnits="userSpaceOnUse" gradientTransform="translate(5.20244 20.0856) rotate(180) scale(3.26537 1.85469)">
<stop/>
<stop offset="1" stop-opacity="0"/>
</radialGradient>
<linearGradient id="paint3_linear_212_272" x1="5.1686" y1="16.0025" x2="17.0763" y2="21.1954" gradientUnits="userSpaceOnUse">
<stop stop-color="#BBBBBB"/>
<stop offset="1" stop-color="#9F9F9F"/>
</linearGradient>
<radialGradient id="paint4_radial_212_272" cx="0" cy="0" r="1" gradientUnits="userSpaceOnUse" gradientTransform="translate(8.4876 8.61682) rotate(31.2895) scale(13.1296 11.9391)">
<stop stop-color="#E4E4E4"/>
<stop offset="1" stop-color="#D3D3D3"/>
</radialGradient>
<linearGradient id="paint5_linear_212_272" x1="5.27417" y1="1.99993" x2="12.6179" y2="1.99993" gradientUnits="userSpaceOnUse">
<stop stop-color="#838383"/>
<stop offset="1" stop-color="#BBBBBB" stop-opacity="0"/>
</linearGradient>
<linearGradient id="paint6_linear_212_272" x1="7.11542" y1="19.6379" x2="7.0925" y2="18.2016" gradientUnits="userSpaceOnUse">
<stop stop-color="#EEEEEE"/>
<stop offset="1" stop-color="#EEEEEE" stop-opacity="0"/>
</linearGradient>
<linearGradient id="paint7_linear_212_272" x1="1.99992" y1="8.85167" x2="1.99992" y2="15.1175" gradientUnits="userSpaceOnUse">
<stop stop-color="white" stop-opacity="0.2549"/>
<stop offset="1" stop-color="white"/>
</linearGradient>
<linearGradient id="paint8_linear_212_272" x1="7.15762" y1="5.98255" x2="20.3735" y2="23.9775" gradientUnits="userSpaceOnUse">
<stop stop-color="white"/>
<stop offset="1" stop-color="white" stop-opacity="0"/>
</linearGradient>
<linearGradient id="paint9_linear_212_272" x1="15.7757" y1="17.3911" x2="10.556" y2="8.56902" gradientUnits="userSpaceOnUse">
<stop stop-color="white"/>
<stop offset="0.5" stop-color="#E6E6E6"/>
<stop offset="0.75" stop-color="white"/>
<stop offset="0.84167" stop-color="#E1E1E1"/>
<stop offset="1" stop-color="white"/>
</linearGradient>
<radialGradient id="paint10_radial_212_272" cx="0" cy="0" r="1" gradientUnits="userSpaceOnUse" gradientTransform="translate(12.0672 12.8336) scale(7.36749 2.65765)">
<stop/>
<stop offset="1" stop-opacity="0"/>
</radialGradient>
<linearGradient id="paint11_linear_212_272" x1="7.1041" y1="9.60418" x2="4.9166" y2="10.7992" gradientUnits="userSpaceOnUse">
<stop stop-color="#204A87"/>
<stop offset="1" stop-color="#204A87" stop-opacity="0"/>
</linearGradient>
<linearGradient id="paint12_linear_212_272" x1="12.9798" y1="11.3058" x2="5.1962" y2="5.66502" gradientUnits="userSpaceOnUse">
<stop stop-color="white"/>
<stop offset="1" stop-color="white" stop-opacity="0"/>
</linearGradient>
<linearGradient id="paint13_linear_212_272" x1="1.99991" y1="15.0964" x2="1.99991" y2="17.1822" gradientUnits="userSpaceOnUse">
<stop stop-color="#DDDDDD"/>
<stop offset="1" stop-color="#FDFDFD"/>
</linearGradient>
<clipPath id="clip0_212_272">
<rect width="20" height="20" fill="white" transform="translate(2 2)"/>
</clipPath>
</defs>
</svg>
