<svg width="24" height="24" viewBox="0 0 24 24" fill="none" xmlns="http://www.w3.org/2000/svg">
<g clip-path="url(#clip0_47_184)">
<path d="M18.75 6.6001H5.25V7.9501H18.75V6.6001Z" fill="#424242"/>
<path d="M3 12.9002H21V9.75019C21 8.75879 20.1914 7.9502 19.2 7.9502H4.8C3.80859 7.9502 3 8.75879 3 9.75019V12.9002Z" fill="#616161"/>
<path d="M4.8 17.8499H19.2C20.1914 17.8499 21 17.0414 21 16.0499V12.45H3V16.0499C3 17.0414 3.80859 17.8499 4.8 17.8499Z" fill="#424242"/>
<path d="M19.2 10.2C19.4485 10.2 19.65 9.99858 19.65 9.75005C19.65 9.50152 19.4485 9.30005 19.2 9.30005C18.9515 9.30005 18.75 9.50152 18.75 9.75005C18.75 9.99858 18.9515 10.2 19.2 10.2Z" fill="#00E676"/>
<path d="M17.8499 3.44995H6.1499V7.94994H17.8499V3.44995Z" fill="white"/>
<path d="M18.075 15.6H5.925C5.56641 15.6 5.25 15.2836 5.25 14.925C5.25 14.5664 5.56641 14.25 5.925 14.25H18.075C18.4336 14.25 18.75 14.5664 18.75 14.925C18.75 15.2836 18.4336 15.6 18.075 15.6Z" fill="#242424"/>
<path d="M17.8499 15.5999H6.1499V20.5498H17.8499V15.5999Z" fill="white"/>
<path d="M17.8499 14.7H6.1499V15.6H17.8499V14.7Z" fill="#E5E5E5"/>
<path d="M16.0501 16.5002H8.40015V17.4002H16.0501V16.5002Z" fill="#616161" fill-opacity="0.27"/>
<path d="M14.2501 18.3H8.40015V19.2H14.2501V18.3Z" fill="#616161" fill-opacity="0.27"/>
</g>
<defs>
<clipPath id="clip0_47_184">
<rect width="18" height="18" fill="white" transform="translate(3 3)"/>
</clipPath>
</defs>
</svg>
