<svg width="74" height="16" viewBox="0 0 74 16" fill="none" xmlns="http://www.w3.org/2000/svg">
<g clip-path="url(#clip0_64_1676)">
<path d="M28.451 0H17.591L17.774 0.725V15.271L17.591 15.996H22.351V3.565H27.435C28.448 3.639 28.961 4.075 28.961 5.093V6.287C28.961 6.319 28.961 6.351 28.961 6.38C28.929 7.33 28.419 7.745 27.439 7.815H26.295H22.855L28.84 15.996H33.799L30.244 11.207C30.622 11.127 31 11.031 31.337 10.884C31.991 10.595 32.491 10.158 32.831 9.574C33.261 8.865 33.495 7.898 33.536 6.672C33.536 6.647 33.536 6.621 33.536 6.595C33.536 6.566 33.536 6.534 33.536 6.505C33.536 6.434 33.536 6.364 33.536 6.29V5.097C33.536 3.315 33.129 2.025 32.315 1.226C31.522 0.408 30.234 0 28.451 0Z" fill="#5766FF"/>
<path d="M0 0L0.183 0.725V15.271L0 15.996H4.76V9.783H11.116V15.271L10.933 15.996H15.693V15.271V0.725V0H10.933L11.116 0.722V6.217H4.76V0H0Z" fill="#5766FF"/>
<path d="M51.527 0H56.297L53.878 10.98C53.49 12.735 52.811 14.012 51.832 14.812C50.874 15.595 49.521 15.99 47.771 15.99H42.013C40.263 15.99 39.075 15.597 38.447 14.812C37.841 14.009 37.728 12.732 38.116 10.98L40.377 0.728L40.268 0H45.038L42.618 10.98C42.396 11.98 42.787 12.482 43.788 12.482H47.541C48.542 12.482 49.153 11.98 49.375 10.98L51.634 0.728L51.527 0Z" fill="#0C0C0C"/>
<path d="M11.116 6.214H5.02301V9.779H11.116V6.214Z" fill="url(#paint0_linear_64_1676)"/>
<path d="M31.324 10.884C31.978 10.595 32.478 10.158 32.818 9.574C33.248 8.865 33.482 7.898 33.523 6.672C33.523 6.647 33.523 6.621 33.523 6.595C33.523 6.566 33.523 6.534 33.523 6.505C33.523 6.434 33.523 6.364 33.523 6.29V5.097C33.523 3.315 33.116 2.025 32.302 1.226C31.513 0.408 30.225 0 28.445 0L27.429 3.565C28.442 3.639 28.955 4.075 28.955 5.093V6.287C28.955 6.319 28.955 6.351 28.955 6.38C28.926 7.237 28.509 7.654 27.705 7.783L30.24 11.205C30.615 11.127 30.99 11.027 31.327 10.881L31.324 10.884Z" fill="url(#paint1_linear_64_1676)"/>
<path d="M62.955 3.565H71.42L68.76 0H62.924C61.145 0 59.756 0.408 58.762 1.223C57.923 1.91 57.301 2.965 56.891 4.39C56.827 4.618 56.699 5.218 56.666 5.391C56.445 6.813 56.605 7.869 57.141 8.559C57.776 9.374 58.981 9.782 60.763 9.782H65.241C65.975 9.782 66.434 10.372 66.274 11.107C66.113 11.842 65.392 12.432 64.657 12.432H55.462L55.305 13.151L54.84 15.266L54.679 16H64.696C66.476 16 67.864 15.592 68.857 14.776C69.555 14.201 70.107 13.375 70.504 12.296C70.774 11.561 70.953 10.762 71.017 10.033C71.117 8.897 70.934 8.033 70.472 7.443C69.838 6.628 68.632 6.22 66.854 6.22H62.375C61.641 6.22 61.183 5.629 61.344 4.894C61.502 4.159 62.225 3.569 62.958 3.569L62.955 3.565Z" fill="#0C0C0C"/>
<path d="M72.751 3.565L73.539 0H70.091L72.751 3.565Z" fill="#5766FF"/>
</g>
<defs>
<linearGradient id="paint0_linear_64_1676" x1="10.9043" y1="7.9956" x2="5.12861" y2="7.9956" gradientUnits="userSpaceOnUse">
<stop stop-opacity="0.3"/>
<stop offset="0.04" stop-color="#141414" stop-opacity="0.28"/>
<stop offset="1" stop-color="white" stop-opacity="0"/>
</linearGradient>
<linearGradient id="paint1_linear_64_1676" x1="27.7929" y1="8.3183" x2="32.8368" y2="2.0944" gradientUnits="userSpaceOnUse">
<stop stop-opacity="0.3"/>
<stop offset="0.04" stop-color="#141414" stop-opacity="0.28"/>
<stop offset="1" stop-color="white" stop-opacity="0"/>
</linearGradient>
<clipPath id="clip0_64_1676">
<rect width="74" height="16" fill="white"/>
</clipPath>
</defs>
</svg>
