<svg width="74" height="16" viewBox="0 0 74 16" fill="none" xmlns="http://www.w3.org/2000/svg">
<path d="M28.4511 0H17.5911L17.7741 0.725V15.271L17.5911 15.996H22.3511V3.565H27.4351C28.4481 3.639 28.9611 4.075 28.9611 5.093V6.287C28.9611 6.319 28.9611 6.351 28.9611 6.38C28.9291 7.33 28.4191 7.745 27.4391 7.815H26.2951H22.8551L28.8401 15.996H33.7991L30.2441 11.207C30.6221 11.127 31.0001 11.031 31.3371 10.884C31.9911 10.595 32.4911 10.158 32.8311 9.574C33.2611 8.865 33.4951 7.898 33.5361 6.672C33.5361 6.647 33.5361 6.621 33.5361 6.595C33.5361 6.566 33.5361 6.534 33.5361 6.505C33.5361 6.434 33.5361 6.364 33.5361 6.29V5.097C33.5361 3.315 33.1291 2.025 32.3151 1.226C31.5221 0.408 30.2341 0 28.4511 0Z" fill="white"/>
<path d="M0 0L0.183 0.725V15.271L0 15.996H4.76V9.783H11.116V15.271L10.933 15.996H15.693V15.271V0.725V0H10.933L11.116 0.722V6.217H4.76V0H0Z" fill="white"/>
<path d="M51.5275 0H56.2975L53.8785 10.98C53.4905 12.735 52.8115 14.012 51.8325 14.812C50.8745 15.595 49.5215 15.99 47.7715 15.99H42.0135C40.2635 15.99 39.0755 15.597 38.4475 14.812C37.8415 14.009 37.7285 12.732 38.1165 10.98L40.3775 0.728L40.2685 0H45.0385L42.6185 10.98C42.3965 11.98 42.7875 12.482 43.7885 12.482H47.5415C48.5425 12.482 49.1535 11.98 49.3755 10.98L51.6345 0.728L51.5275 0Z" fill="white" fill-opacity="0.37"/>
<path d="M11.1164 6.21387H5.02344V9.77887H11.1164V6.21387Z" fill="url(#paint0_linear_70_364)"/>
<path d="M31.3237 10.884C31.9777 10.595 32.4777 10.158 32.8177 9.574C33.2477 8.865 33.4817 7.898 33.5227 6.672C33.5227 6.647 33.5227 6.621 33.5227 6.595C33.5227 6.566 33.5227 6.534 33.5227 6.505C33.5227 6.434 33.5227 6.364 33.5227 6.29V5.097C33.5227 3.315 33.1157 2.025 32.3017 1.226C31.5127 0.408 30.2247 0 28.4447 0L27.4287 3.565C28.4417 3.639 28.9547 4.075 28.9547 5.093V6.287C28.9547 6.319 28.9547 6.351 28.9547 6.38C28.9257 7.237 28.5087 7.654 27.7047 7.783L30.2397 11.205C30.6147 11.127 30.9897 11.027 31.3267 10.881L31.3237 10.884Z" fill="url(#paint1_linear_70_364)"/>
<path d="M62.9547 3.565H71.4197L68.7597 0H62.9237C61.1447 0 59.7557 0.408 58.7617 1.223C57.9227 1.91 57.3007 2.965 56.8907 4.39C56.8267 4.618 56.6987 5.218 56.6657 5.391C56.4447 6.813 56.6047 7.869 57.1407 8.559C57.7757 9.374 58.9807 9.782 60.7627 9.782H65.2407C65.9747 9.782 66.4337 10.372 66.2737 11.107C66.1127 11.842 65.3917 12.432 64.6567 12.432H55.4617L55.3047 13.151L54.8397 15.266L54.6787 16H64.6957C66.4757 16 67.8637 15.592 68.8567 14.776C69.5547 14.201 70.1067 13.375 70.5037 12.296C70.7737 11.561 70.9527 10.762 71.0167 10.033C71.1167 8.897 70.9337 8.033 70.4717 7.443C69.8377 6.628 68.6317 6.22 66.8537 6.22H62.3747C61.6407 6.22 61.1827 5.629 61.3437 4.894C61.5017 4.159 62.2247 3.569 62.9577 3.569L62.9547 3.565Z" fill="white" fill-opacity="0.37"/>
<path d="M72.7511 3.565L73.5391 0H70.0911L72.7511 3.565Z" fill="white"/>
<defs>
<linearGradient id="paint0_linear_70_364" x1="10.9047" y1="7.99547" x2="5.12904" y2="7.99547" gradientUnits="userSpaceOnUse">
<stop stop-opacity="0.3"/>
<stop offset="0.04" stop-color="#141414" stop-opacity="0.28"/>
<stop offset="1" stop-color="white" stop-opacity="0"/>
</linearGradient>
<linearGradient id="paint1_linear_70_364" x1="27.7926" y1="8.3183" x2="32.8365" y2="2.0944" gradientUnits="userSpaceOnUse">
<stop stop-opacity="0.3"/>
<stop offset="0.04" stop-color="#141414" stop-opacity="0.28"/>
<stop offset="1" stop-color="white" stop-opacity="0"/>
</linearGradient>
</defs>
</svg>
