<svg width="59" height="15" viewBox="0 0 59 15" fill="none" xmlns="http://www.w3.org/2000/svg">
<path d="M7.69922 0C8.84926 0 9.94278 0.195921 10.9746 0.59082C11.9996 0.983115 12.8841 1.51976 13.6201 2.2041L13.9668 2.52637L12.7637 3.96973L12.4258 4.37598L12.0391 4.0166C11.3962 3.41882 10.7319 3.0017 10.0479 2.75195L10.0391 2.74805C9.35407 2.4829 8.63545 2.34964 7.87988 2.34961C7.28852 2.34961 6.7431 2.44804 6.24023 2.64062L6.23145 2.64453C5.74038 2.8222 5.32052 3.09714 4.9668 3.47168C4.61607 3.84315 4.32451 4.32944 4.10352 4.94629C3.89845 5.53989 3.79004 6.27484 3.79004 7.16016C3.79006 8.04319 3.8983 8.78308 4.10352 9.38965C4.32218 9.98864 4.61569 10.4672 4.97559 10.8389L5.12109 10.9766C5.46779 11.2887 5.86239 11.5271 6.30762 11.6943C6.83446 11.8758 7.41686 11.9697 8.05957 11.9697C8.81791 11.9697 9.53883 11.8417 10.2256 11.5869C10.9114 11.325 11.576 10.9013 12.2188 10.3037L12.6055 9.94434L13.8438 11.4297L14.1465 11.7939L13.7998 12.1162C13.0638 12.8005 12.1792 13.3363 11.1543 13.7285C10.1225 14.1234 9.02983 14.3203 7.87988 14.3203C6.70973 14.3203 5.63747 14.1711 4.66895 13.8652L4.66699 13.8643C3.70883 13.5576 2.8731 13.1002 2.16895 12.4873L2.16602 12.4844C1.47084 11.8679 0.93588 11.1088 0.560547 10.2158C0.182132 9.31545 2.10267e-05 8.29343 0 7.16016C0 6.029 0.175439 5.00902 0.540039 4.11035L0.542969 4.10449C0.91738 3.21365 1.44403 2.45528 2.12598 1.83887L2.12988 1.83594C2.82229 1.22192 3.64671 0.763204 4.59375 0.456055C5.53846 0.149721 6.57521 3.47445e-05 7.69922 0ZM22.0957 0C23.2186 2.7693e-05 24.2493 0.149604 25.1826 0.456055C26.1303 0.763395 26.951 1.22265 27.6328 1.83887C28.3265 2.45488 28.8596 3.21274 29.2344 4.10449C29.6127 5.00485 29.7949 6.0269 29.7949 7.16016C29.7949 8.29343 29.6128 9.31545 29.2344 10.2158C28.859 11.1088 28.3241 11.8679 27.6289 12.4844L27.6279 12.4834C26.9472 13.0976 26.1299 13.5555 25.1846 13.8623L25.1855 13.8633C24.2515 14.1704 23.2197 14.3203 22.0957 14.3203C20.9714 14.3203 19.9342 14.1697 18.9893 13.8633C18.0422 13.5561 17.2178 13.0984 16.5254 12.4844L16.5225 12.4805C15.8405 11.8641 15.3129 11.1067 14.9385 10.2158L14.9365 10.21C14.5718 9.31124 14.3955 8.29142 14.3955 7.16016C14.3955 6.0289 14.5719 5.00908 14.9365 4.11035L14.9385 4.10449C15.3129 3.2136 15.8405 2.4553 16.5225 1.83887L16.5254 1.83594C17.2178 1.22192 18.0422 0.763204 18.9893 0.456055C19.9341 0.149631 20.9714 0 22.0957 0ZM38.6621 0.360352C39.5946 0.360352 40.4432 0.465233 41.2021 0.682617C41.9717 0.887834 42.6404 1.20091 43.1934 1.63086C43.7474 2.04978 44.1769 2.57332 44.4756 3.19629C44.7779 3.81458 44.9228 4.50959 44.9229 5.26953C44.9229 6.31599 44.659 7.23435 44.1064 7.99414C43.6727 8.59046 43.0935 9.06163 42.3867 9.41992L45.5625 13.96H41.3721L41.2227 13.7471L38.7266 10.1797H35.292V13.96H31.6826V0.360352H38.6621ZM58.7793 2.70996H50.4092V5.84961H56.9785V8.2002H50.4092V11.6104H58.7793V13.96H46.7988V0.360352H58.7793V2.70996ZM22.0957 2.25977C21.5451 2.25977 21.0327 2.35554 20.5557 2.5459L20.5566 2.54688C20.1021 2.73285 19.7021 3.01749 19.3545 3.40723C19.0114 3.79194 18.7226 4.29301 18.5 4.92578C18.2939 5.5331 18.1855 6.27521 18.1855 7.16016C18.1856 8.04342 18.2946 8.79072 18.501 9.41113C18.7232 10.0308 19.0104 10.5273 19.3545 10.9131C19.7009 11.3015 20.0992 11.5855 20.5518 11.7715C21.0296 11.9626 21.5439 12.0596 22.0957 12.0596C22.6474 12.0595 23.1527 11.9631 23.6162 11.7734L23.6201 11.7715C24.0864 11.5849 24.4903 11.3006 24.8359 10.9131C25.1795 10.5278 25.4614 10.0316 25.6719 9.41113L25.6738 9.40625C25.8908 8.78787 26.0058 8.04234 26.0059 7.16016C26.0059 6.27768 25.8907 5.53924 25.6748 4.93457L25.6709 4.92383C25.46 4.29116 25.1781 3.79087 24.8359 3.40723C24.4903 3.01964 24.0865 2.73446 23.6201 2.54785L23.6162 2.54688C23.1527 2.35724 22.6474 2.2598 22.0957 2.25977ZM35.292 7.83008H38.6621C39.5214 7.83008 40.1121 7.60874 40.5078 7.23438C40.8914 6.85971 41.1328 6.23947 41.1328 5.26953C41.1327 4.29896 40.8922 3.68928 40.5137 3.32812L40.5088 3.32324C40.1127 2.93658 39.5218 2.70996 38.6621 2.70996H35.292V7.83008Z" fill="white"/>
</svg>
