<svg width="440" height="500" viewBox="0 0 440 500" fill="none" xmlns="http://www.w3.org/2000/svg">
<g clip-path="url(#clip0_281_880)">
<rect x="60" y="60" width="560" height="502" rx="22" fill="white"/>
<path d="M93.724 106.212C92.8747 106.212 92.2167 105.993 91.75 105.554C91.2833 105.125 91.05 104.513 91.05 103.72C91.05 102.927 91.2833 102.315 91.75 101.886C92.2167 101.447 92.8747 101.228 93.724 101.228H98.47C99.3193 101.228 99.9773 101.447 100.444 101.886C100.911 102.315 101.144 102.927 101.144 103.72C101.144 104.513 100.911 105.125 100.444 105.554C99.9773 105.993 99.3193 106.212 98.47 106.212H93.724ZM97.686 100.36H96.286V94.97H94.914C94.6153 94.97 94.4007 95.0307 94.27 95.152C94.1487 95.264 94.0367 95.432 93.934 95.656L91.848 100.36H90.294L92.506 95.334C92.6273 95.0727 92.7393 94.8393 92.842 94.634C92.9447 94.4287 93.066 94.2607 93.206 94.13C93.3553 93.99 93.5327 93.8873 93.738 93.822C93.9433 93.7473 94.2047 93.71 94.522 93.71H97.686V100.36ZM98.288 104.952C98.7827 104.952 99.1467 104.835 99.38 104.602C99.6227 104.378 99.744 104.084 99.744 103.72C99.744 103.356 99.6227 103.062 99.38 102.838C99.1467 102.605 98.7827 102.488 98.288 102.488H93.906C93.4113 102.488 93.0427 102.605 92.8 102.838C92.5667 103.062 92.45 103.356 92.45 103.72C92.45 104.084 92.5667 104.378 92.8 104.602C93.0427 104.835 93.4113 104.952 93.906 104.952H98.288ZM100.892 100.92H99.492V93.556H100.892V96.258H102.544V97.546H100.892V100.92ZM111.41 106.212H110.024V99.506H108.442V105.204H107.056V94.97H106.72C106.561 94.97 106.444 95.04 106.37 95.18C106.304 95.32 106.234 95.544 106.16 95.852L103.877 105.204H102.407L104.802 95.474C104.867 95.194 104.946 94.9467 105.04 94.732C105.133 94.508 105.249 94.3213 105.389 94.172C105.529 94.0227 105.702 93.9107 105.908 93.836C106.113 93.752 106.365 93.71 106.664 93.71H108.442V98.218H110.024V93.556H111.41V106.212ZM114.07 106.212H112.67V93.556H114.07V106.212ZM129.988 100.724H118.2V99.464H123.394V98.19H119.082V94.424C119.082 94.1253 119.147 93.9107 119.278 93.78C119.408 93.6493 119.623 93.584 119.922 93.584H129.106V97.14C129.106 97.504 129.022 97.77 128.854 97.938C128.686 98.106 128.42 98.19 128.056 98.19H124.794V99.464H129.988V100.724ZM129.176 106.254H127.776V102.95H119.012V101.69H129.176V106.254ZM127.706 96.93V94.844H120.482V96.93H127.706ZM142.255 105.372H130.467V104.112H133.337V101.9H134.737V104.112H137.985V101.9H139.385V104.112H142.255V105.372ZM141.793 101.06H130.929V99.8H133.127L132.819 95.656H134.219L134.527 99.8H138.139L138.489 95.656H139.889L139.539 99.8H141.793V101.06ZM141.443 94.956H131.279V93.696H141.443V94.956Z" fill="black"/>
<rect x="90" y="286" width="486" height="346" rx="12" fill="#F5F6FB"/>
<rect x="121" y="332.482" width="288.886" height="5.54217" rx="2.77108" fill="white"/>
<rect x="121" y="332.482" width="101.837" height="5.54217" rx="2.77108" fill="#9CA0FF"/>
<g filter="url(#filter0_d_281_880)">
<rect x="218.681" y="328.325" width="13.8554" height="13.8554" rx="6.92771" fill="#5767C6"/>
</g>
<path d="M123.682 351.961C122.266 351.961 121.457 350.774 121.457 348.69C121.457 346.623 122.284 345.418 123.682 345.418C125.081 345.418 125.908 346.623 125.908 348.69C125.908 350.774 125.09 351.961 123.682 351.961ZM123.682 351.258C124.597 351.258 125.134 350.334 125.134 348.69C125.134 347.045 124.597 346.104 123.682 346.104C122.768 346.104 122.222 347.045 122.222 348.69C122.222 350.334 122.759 351.258 123.682 351.258ZM128.101 348.461C127.274 348.461 126.826 347.845 126.826 346.931C126.826 346.034 127.292 345.409 128.101 345.409C128.936 345.409 129.376 346.034 129.376 346.931C129.376 347.845 128.919 348.461 128.101 348.461ZM128.101 347.916C128.532 347.916 128.734 347.529 128.734 346.931C128.734 346.342 128.549 345.946 128.101 345.955C127.679 345.955 127.468 346.342 127.468 346.931C127.468 347.529 127.679 347.916 128.101 347.916ZM131.988 351.961C131.161 351.97 130.704 351.346 130.713 350.44C130.704 349.534 131.179 348.91 131.988 348.91C132.815 348.91 133.255 349.534 133.255 350.44C133.255 351.346 132.797 351.97 131.988 351.961ZM131.988 351.416C132.41 351.416 132.613 351.029 132.613 350.44C132.613 349.842 132.428 349.446 131.988 349.455C131.566 349.464 131.346 349.842 131.346 350.44C131.346 351.029 131.557 351.416 131.988 351.416ZM127.45 351.874L131.83 345.506H132.542L128.162 351.874H127.45Z" fill="black"/>
<path d="M391.259 345.506V351.874H390.459V346.333H390.424L388.876 347.362V346.561L390.459 345.506H391.259ZM394.833 351.961C393.417 351.961 392.608 350.774 392.608 348.69C392.608 346.623 393.435 345.418 394.833 345.418C396.231 345.418 397.058 346.623 397.058 348.69C397.058 350.774 396.24 351.961 394.833 351.961ZM394.833 351.258C395.748 351.258 396.284 350.334 396.284 348.69C396.284 347.045 395.748 346.104 394.833 346.104C393.918 346.104 393.373 347.045 393.373 348.69C393.373 350.334 393.91 351.258 394.833 351.258ZM399.99 351.961C398.574 351.961 397.765 350.774 397.765 348.69C397.765 346.623 398.592 345.418 399.99 345.418C401.389 345.418 402.215 346.623 402.215 348.69C402.215 350.774 401.397 351.961 399.99 351.961ZM399.99 351.258C400.905 351.258 401.441 350.334 401.441 348.69C401.441 347.045 400.905 346.104 399.99 346.104C399.076 346.104 398.53 347.045 398.53 348.69C398.53 350.334 399.067 351.258 399.99 351.258ZM404.408 348.461C403.582 348.461 403.133 347.845 403.133 346.931C403.133 346.034 403.599 345.409 404.408 345.409C405.244 345.409 405.684 346.034 405.684 346.931C405.684 347.845 405.226 348.461 404.408 348.461ZM404.408 347.916C404.839 347.916 405.042 347.529 405.042 346.931C405.042 346.342 404.857 345.946 404.408 345.955C403.986 345.955 403.775 346.342 403.775 346.931C403.775 347.529 403.986 347.916 404.408 347.916ZM408.296 351.961C407.469 351.97 407.012 351.346 407.021 350.44C407.012 349.534 407.487 348.91 408.296 348.91C409.123 348.91 409.562 349.534 409.562 350.44C409.562 351.346 409.105 351.97 408.296 351.961ZM408.296 351.416C408.718 351.416 408.92 351.029 408.92 350.44C408.92 349.842 408.736 349.446 408.296 349.455C407.874 349.464 407.654 349.842 407.654 350.44C407.654 351.029 407.865 351.416 408.296 351.416ZM403.758 351.874L408.138 345.506H408.85L404.47 351.874H403.758Z" fill="black"/>
<path d="M225.608 329.711L228.008 327.633H223.209L225.608 329.711Z" fill="#222222"/>
<g filter="url(#filter1_d_281_880)">
<path d="M208.289 305.464C208.289 303.551 209.84 302 211.753 302H240.681C242.594 302 244.144 303.551 244.144 305.464V324.392C244.144 326.305 242.594 327.855 240.681 327.855H211.753C209.84 327.855 208.289 326.305 208.289 324.392V305.464Z" fill="#222222" shape-rendering="crispEdges"/>
<path d="M215.662 316.649V315.664L218.627 311.07H220.161V315.636H221.061V316.649H220.161V317.928H218.986V316.649H215.662ZM216.922 315.636H219.005V312.472H218.93L216.922 315.588V315.636ZM224.367 318.022C222.719 318.022 221.734 316.744 221.734 314.499C221.734 312.264 222.719 310.976 224.367 310.976C226.005 310.976 227 312.264 227 314.499C227 316.744 226.015 318.022 224.367 318.022ZM224.367 316.99C225.229 316.99 225.759 316.147 225.759 314.499C225.759 312.86 225.219 311.999 224.367 311.999C223.514 311.999 222.974 312.86 222.974 314.499C222.974 316.147 223.505 316.99 224.367 316.99ZM229.51 314.414C228.535 314.414 228.004 313.694 228.004 312.643C228.004 311.601 228.554 310.881 229.51 310.881C230.505 310.881 231.026 311.601 231.026 312.643C231.026 313.703 230.486 314.414 229.51 314.414ZM229.51 313.656C229.937 313.656 230.145 313.258 230.145 312.643C230.145 312.046 229.956 311.629 229.51 311.639C229.094 311.639 228.876 312.046 228.876 312.643C228.876 313.258 229.094 313.656 229.51 313.656ZM233.99 318.108C233.015 318.117 232.484 317.388 232.484 316.346C232.484 315.295 233.034 314.575 233.99 314.575C234.975 314.575 235.506 315.295 235.506 316.346C235.506 317.397 234.966 318.117 233.99 318.108ZM233.99 317.35C234.426 317.35 234.625 316.952 234.625 316.346C234.625 315.74 234.436 315.323 233.99 315.333C233.574 315.333 233.356 315.749 233.356 316.346C233.356 316.952 233.574 317.35 233.99 317.35ZM228.885 317.928L233.602 311.07H234.559L229.842 317.928H228.885Z" fill="white"/>
</g>
<rect x="121" y="371.277" width="281.145" height="56.8072" rx="10" fill="white"/>
<path d="M142.771 395.461V402.392H141.807V400.515H140.345V399.744H141.807V398.617H140.345V397.826H141.807V395.461H142.771ZM140.315 396.517V397.298H135.2V396.517H137.331V395.451H138.285V396.517H140.315ZM137.798 397.734C139.026 397.734 139.889 398.445 139.899 399.48C139.889 400.525 139.026 401.235 137.798 401.235C136.57 401.235 135.708 400.525 135.708 399.48C135.708 398.445 136.57 397.734 137.798 397.734ZM137.798 398.485C137.088 398.496 136.611 398.881 136.611 399.48C136.611 400.099 137.088 400.485 137.798 400.485C138.498 400.485 138.986 400.099 138.996 399.48C138.986 398.881 138.498 398.496 137.798 398.485ZM142.974 403.57V404.351H136.834V401.783H137.808V403.57H142.974ZM151.818 395.451V404.544H150.894V399.876H149.809V404.097H148.895V395.624H149.809V399.064H150.894V395.451H151.818ZM146.724 397.856C146.724 399.49 147.343 400.972 148.662 401.652L148.094 402.392C147.201 401.91 146.602 401.063 146.277 400.008C145.968 401.205 145.364 402.159 144.44 402.707L143.842 401.976C145.171 401.225 145.79 399.663 145.79 397.856V397.268H144.085V396.486H148.307V397.268H146.724V397.856ZM159.511 395.959V396.73H156.405V398.942C158.12 398.947 159.155 398.871 160.333 398.638L160.444 399.399C159.186 399.673 158.08 399.713 156.172 399.713H155.451V395.959H159.511ZM162.21 395.451V397.308H163.529V398.1H162.21V400.018H161.246V395.451H162.21ZM162.21 400.444V402.768H157.298V403.651H162.525V404.432H156.355V402.027H161.256V401.215H156.334V400.444H162.21ZM167.066 396.811C167.066 398.09 167.888 399.226 169.268 399.673L168.74 400.424C167.741 400.063 167.005 399.363 166.609 398.455C166.214 399.495 165.422 400.302 164.326 400.698L163.808 399.926C165.26 399.429 166.102 398.222 166.112 396.852V395.959H167.066V396.811ZM171.419 395.451V400.819H170.455V398.09H168.537V397.298H170.455V395.451H171.419ZM168.375 401.073C170.283 401.073 171.45 401.702 171.45 402.808C171.45 403.904 170.283 404.534 168.375 404.523C166.467 404.534 165.29 403.904 165.3 402.808C165.29 401.702 166.467 401.073 168.375 401.073ZM168.375 401.824C167.046 401.824 166.254 402.179 166.254 402.808C166.254 403.417 167.046 403.762 168.375 403.762C169.704 403.762 170.496 403.417 170.496 402.808C170.496 402.179 169.704 401.824 168.375 401.824ZM180.923 399.561V400.282H178.741V401.012H179.898V403.011H174.56V403.772H180.182V404.452H173.596V402.372H178.944V401.702H173.586V401.012H174.794V400.282H172.602V399.561H180.923ZM179.878 395.685V397.643H174.621V398.313H180.03V398.993H173.667V397.004H178.914V396.354H173.647V395.685H179.878ZM175.748 401.012H177.788V400.282H175.748V401.012Z" fill="#5767C6"/>
<path d="M314.283 385.479H376.633C378.354 385.48 379.75 386.875 379.75 388.597V410.766C379.75 412.487 378.354 413.883 376.633 413.883H314.283C312.561 413.883 311.166 412.487 311.166 410.766V388.597C311.166 386.875 312.561 385.479 314.283 385.479Z" fill="white"/>
<path d="M314.283 385.479H376.633C378.354 385.48 379.75 386.875 379.75 388.597V410.766C379.75 412.487 378.354 413.883 376.633 413.883H314.283C312.561 413.883 311.166 412.487 311.166 410.766V388.597C311.166 386.875 312.561 385.479 314.283 385.479Z" stroke="#EEEEEE" stroke-width="0.692771"/>
<path d="M319.606 401.279V400.578L322.694 395.824H323.745V400.531H324.702V401.279H323.745V402.681H322.93V401.279H319.606ZM320.525 400.531H322.93V396.904H322.845L320.525 400.474V400.531ZM327.866 402.776C326.341 402.776 325.469 401.497 325.469 399.252C325.469 397.027 326.36 395.729 327.866 395.729C329.372 395.729 330.262 397.027 330.262 399.252C330.262 401.497 329.381 402.776 327.866 402.776ZM327.866 402.018C328.851 402.018 329.428 401.024 329.428 399.252C329.428 397.481 328.851 396.468 327.866 396.468C326.881 396.468 326.293 397.481 326.293 399.252C326.293 401.024 326.871 402.018 327.866 402.018Z" fill="#222222"/>
<path d="M389.117 399.118C388.227 399.118 387.744 398.455 387.744 397.47C387.744 396.503 388.246 395.831 389.117 395.831C390.017 395.831 390.49 396.503 390.49 397.47C390.49 398.455 389.998 399.118 389.117 399.118ZM389.117 398.53C389.581 398.53 389.799 398.114 389.799 397.47C389.799 396.835 389.6 396.409 389.117 396.418C388.662 396.418 388.435 396.835 388.435 397.47C388.435 398.114 388.662 398.53 389.117 398.53ZM393.303 402.887C392.413 402.897 391.921 402.224 391.93 401.249C391.921 400.273 392.432 399.601 393.303 399.601C394.194 399.601 394.667 400.273 394.667 401.249C394.667 402.224 394.175 402.897 393.303 402.887ZM393.303 402.3C393.758 402.3 393.976 401.883 393.976 401.249C393.976 400.605 393.777 400.178 393.303 400.188C392.849 400.197 392.612 400.605 392.612 401.249C392.612 401.883 392.839 402.3 393.303 402.3ZM388.416 402.792L393.133 395.935H393.9L389.183 402.792H388.416Z" fill="#222222"/>
<rect x="121" y="435.013" width="281.145" height="57.127" rx="10" fill="white"/>
<path d="M142.426 459.721V462.837H139.808V463.892H143.481V464.673H135.19V463.892H138.854V462.837H136.246V459.721H142.426ZM137.189 460.482V462.065H141.472V460.482H137.189ZM142.466 465.536V468.438H141.492V466.297H136.114V465.536H142.466ZM152.285 466.571V467.363H143.963V466.571H146.196V464.552H144.694V463.77H146.054V460.939H144.674V460.147H151.524V460.939H150.133V463.77H151.493V464.552H150.001V466.571H152.285ZM147.008 463.77H149.19V460.939H147.008V463.77ZM147.16 466.571H149.037V464.552H147.16V466.571ZM158.435 461.243C158.435 462.42 159.308 463.527 160.708 463.973L160.211 464.724C159.166 464.379 158.374 463.664 157.968 462.755C157.557 463.745 156.75 464.526 155.664 464.907L155.167 464.146C156.578 463.669 157.451 462.492 157.461 461.243V460.848H155.421V460.066H160.434V460.848H158.435V461.243ZM162.606 459.356V465.993H161.642V459.356H162.606ZM162.88 467.464V468.245H156.659V465.363H157.633V467.464H162.88ZM171.592 459.346V465.079H170.679V462.542H169.623V464.765H168.72V459.518H169.623V461.751H170.679V459.346H171.592ZM168.385 460.381V461.142H163.788V460.381H165.625V459.417H166.579V460.381H168.385ZM166.092 461.568C167.249 461.568 168.06 462.187 168.06 463.131C168.06 464.075 167.249 464.694 166.092 464.694C164.955 464.694 164.143 464.075 164.143 463.131C164.143 462.187 164.955 461.568 166.092 461.568ZM166.092 462.278C165.452 462.278 165.006 462.613 165.006 463.131C165.006 463.648 165.452 463.993 166.092 463.993C166.751 463.993 167.188 463.648 167.188 463.131C167.188 462.613 166.751 462.278 166.092 462.278ZM168.548 465.211C170.476 465.211 171.633 465.79 171.643 466.825C171.633 467.84 170.476 468.428 168.548 468.418C166.619 468.428 165.463 467.84 165.473 466.825C165.463 465.79 166.619 465.211 168.548 465.211ZM168.548 465.952C167.198 465.952 166.416 466.256 166.427 466.825C166.416 467.373 167.198 467.687 168.548 467.677C169.907 467.687 170.668 467.373 170.679 466.825C170.668 466.256 169.907 465.952 168.548 465.952ZM178.077 460.797C178.077 461.994 178.909 463.1 180.269 463.547L179.751 464.308C178.757 463.958 178.011 463.248 177.62 462.349C177.219 463.369 176.448 464.166 175.388 464.562L174.87 463.79C176.291 463.283 177.113 462.075 177.123 460.716V459.823H178.077V460.797ZM182.085 459.346V461.629H183.405V462.441H182.085V464.836H181.121V459.346H182.085ZM179.153 465.049C181.02 465.049 182.167 465.668 182.167 466.733C182.167 467.809 181.02 468.428 179.153 468.418C177.265 468.428 176.098 467.809 176.098 466.733C176.098 465.668 177.265 465.049 179.153 465.049ZM179.153 465.81C177.833 465.81 177.052 466.155 177.062 466.733C177.052 467.332 177.833 467.657 179.153 467.667C180.462 467.657 181.223 467.332 181.223 466.733C181.223 466.155 180.462 465.81 179.153 465.81ZM187.703 460.36V461.132H184.983V462.755H187.55V463.516H184.983V465.434C186.211 465.429 187.023 465.379 187.987 465.221L188.068 466.013C187.002 466.206 186.119 466.246 184.668 466.246H184.059V460.36H187.703ZM191.539 459.346V468.438H190.615V463.74H189.519V467.992H188.596V459.518H189.519V462.958H190.615V459.346H191.539Z" fill="#5767C6"/>
<path d="M314.321 449.214H377.355C379.098 449.214 380.512 450.627 380.512 452.37V474.782C380.512 476.524 379.098 477.937 377.355 477.937H314.321C312.578 477.937 311.166 476.524 311.166 474.782V452.37C311.166 450.627 312.578 449.214 314.321 449.214Z" fill="white"/>
<path d="M314.321 449.214H377.355C379.098 449.214 380.512 450.627 380.512 452.37V474.782C380.512 476.524 379.098 477.937 377.355 477.937H314.321C312.578 477.937 311.166 476.524 311.166 474.782V452.37C311.166 450.627 312.578 449.214 314.321 449.214Z" stroke="#EEEEEE" stroke-width="0.692771"/>
<path d="M322.522 461.453C322.522 462.899 323.576 464.364 324.83 464.91L324.409 465.503C323.413 465.048 322.551 464.067 322.158 462.889C321.756 464.139 320.899 465.226 319.927 465.714L319.477 465.12C320.693 464.536 321.756 462.927 321.766 461.453V460.342H319.755V459.72H324.552V460.342H322.522V461.453ZM326.496 458.839V467.351H325.74V458.839H326.496ZM334.801 458.848V465.139H334.044V462.841H331.842C331.449 463.344 330.817 463.646 330.09 463.646C328.816 463.646 327.878 462.765 327.878 461.52C327.878 460.275 328.816 459.394 330.09 459.384C330.813 459.389 331.43 459.686 331.832 460.179H334.044V458.848H334.801ZM335.04 466.537V467.169H329.333V464.479H330.09V466.537H335.04ZM330.09 460.055C329.218 460.064 328.596 460.668 328.596 461.52C328.596 462.372 329.218 462.975 330.09 462.975C330.923 462.975 331.564 462.372 331.564 461.52C331.564 460.668 330.923 460.064 330.09 460.055ZM332.177 460.802C332.249 461.022 332.292 461.261 332.292 461.52C332.292 461.769 332.249 462.003 332.177 462.219H334.044V460.802H332.177Z" fill="#222222"/>
<g clip-path="url(#clip1_281_880)">
<path d="M366.309 462.474C366.309 462.296 366.404 462.118 366.586 461.994C366.917 461.769 367.412 461.802 367.692 462.067L369.427 463.705L371.16 462.066C371.441 461.801 371.936 461.768 372.268 461.993C372.597 462.218 372.639 462.616 372.358 462.881L370.025 465.086C369.876 465.227 369.658 465.308 369.427 465.308C369.197 465.308 368.978 465.227 368.828 465.086L366.496 462.881C366.37 462.763 366.309 462.618 366.309 462.474Z" fill="#222222"/>
</g>
<rect width="127" height="100" transform="translate(90 126)" fill="#F5F6FB"/>
<path d="M96 126.5H216.5V159.5H90.5V132C90.5 128.962 92.9624 126.5 96 126.5Z" fill="#F5F6FB"/>
<path d="M96 126.5H216.5V159.5H90.5V132C90.5 128.962 92.9624 126.5 96 126.5Z" stroke="#DDDDDD"/>
<path d="M146.742 137.93V141.527H143.719V142.746H147.961V143.648H138.387V142.746H142.617V141.527H139.605V137.93H146.742ZM140.695 138.809V140.637H145.641V138.809H140.695ZM146.789 144.645V147.996H145.664V145.523H139.453V144.645H146.789ZM158.067 145.84V146.754H148.458V145.84H151.036V143.508H149.302V142.605H150.872V139.336H149.278V138.422H157.188V139.336H155.583V142.605H157.153V143.508H155.43V145.84H158.067ZM151.973 142.605H154.493V139.336H151.973V142.605ZM152.149 145.84H154.317V143.508H152.149V145.84ZM167.283 137.496V143.695H166.17V142.137H163.884V142.992H159.009V138.281H163.884V139.148H166.17V137.496H167.283ZM160.111 139.172V142.102H162.795V139.172H160.111ZM163.767 143.988C165.97 143.988 167.318 144.715 167.318 145.992C167.318 147.258 165.97 147.984 163.767 147.973C161.564 147.984 160.205 147.258 160.216 145.992C160.205 144.715 161.564 143.988 163.767 143.988ZM163.767 144.844C162.232 144.855 161.318 145.254 161.318 145.992C161.318 146.695 162.232 147.117 163.767 147.117C165.302 147.117 166.216 146.695 166.216 145.992C166.216 145.254 165.302 144.855 163.767 144.844ZM163.884 141.234H166.17V140.039H163.884V141.234Z" fill="black"/>
<rect x="90.5" y="159.5" width="126" height="33" fill="#F5F6FB"/>
<rect x="90.5" y="159.5" width="126" height="33" stroke="#DDDDDD"/>
<path d="M135.086 173.367C135.086 175.043 135.789 176.836 137.195 177.691L136.574 178.547C135.59 177.955 134.922 176.906 134.57 175.688C134.178 177.023 133.457 178.16 132.438 178.781L131.746 177.949C133.234 177.059 134.008 175.207 134.008 173.414V171.457H135.086V173.367ZM140.922 170.496V180.996H139.855V170.496H140.922ZM138.742 170.695V180.48H137.688V175.113H136.059V174.188H137.688V170.695H138.742ZM151.555 176.672V177.551H147.266V180.996H146.177V177.551H141.946V176.672H151.555ZM144.243 170.918V172.289H149.235V170.918H150.348V175.477H143.141V170.918H144.243ZM144.243 174.586H149.235V173.18H144.243V174.586ZM163.014 170.93V174.527H159.991V175.746H164.233V176.648H154.659V175.746H158.889V174.527H155.877V170.93H163.014ZM156.967 171.809V173.637H161.913V171.809H156.967ZM163.061 177.645V180.996H161.936V178.523H155.725V177.645H163.061ZM174.339 178.84V179.754H164.73V178.84H167.308V176.508H165.573V175.605H167.144V172.336H165.55V171.422H173.46V172.336H171.855V175.605H173.425V176.508H171.702V178.84H174.339ZM168.245 175.605H170.765V172.336H168.245V175.605ZM168.421 178.84H170.589V176.508H168.421V178.84Z" fill="black"/>
<path d="M216.5 192.5V225.5H96C92.9624 225.5 90.5 223.038 90.5 220V192.5H216.5Z" fill="#F5F6FB"/>
<path d="M216.5 192.5V225.5H96C92.9624 225.5 90.5 223.038 90.5 220V192.5H216.5Z" stroke="#DDDDDD"/>
<path d="M140.242 203.93V207.527H137.219V208.746H141.461V209.648H131.887V208.746H136.117V207.527H133.105V203.93H140.242ZM134.195 204.809V206.637H139.141V204.809H134.195ZM140.289 210.645V213.996H139.164V211.523H132.953V210.645H140.289ZM151.567 211.84V212.754H141.958V211.84H144.536V209.508H142.802V208.605H144.372V205.336H142.778V204.422H150.688V205.336H149.083V208.605H150.653V209.508H148.93V211.84H151.567ZM145.473 208.605H147.993V205.336H145.473V208.605ZM145.649 211.84H147.817V209.508H145.649V211.84ZM163.389 203.496V213.996H162.264V203.496H163.389ZM160.26 204.621C160.26 207.691 158.948 210.363 155.35 212.086L154.764 211.184C157.559 209.854 158.918 207.961 159.135 205.512H155.268V204.621H160.26ZM172.98 203.496V206.602H174.503V207.527H172.98V211.125H171.855V203.496H172.98ZM170.132 204.293C170.132 207.047 168.257 209.051 165.187 209.977L164.718 209.086C167.173 208.348 168.702 206.953 168.925 205.219H165.163V204.293H170.132ZM173.413 212.871V213.773H166.312V210.34H167.437V212.871H173.413Z" fill="black"/>
<rect x="216.5" y="126.5" width="289" height="33" fill="white"/>
<rect x="216.5" y="126.5" width="289" height="33" stroke="#DDDDDD"/>
<path d="M241.777 137.941V138.633C241.777 139.33 241.777 140.209 241.555 141.352H242.996V142.242H233.387V141.352H240.441C240.652 140.285 240.676 139.482 240.676 138.832H234.594V137.941H241.777ZM241.789 143.18V145.934H235.637V147H242.059V147.891H234.523V145.078H240.688V144.07H234.512V143.18H241.789ZM253.067 145.805V146.742H243.458V145.805H247.688V143.965H244.63V140.625H250.794V139.148H244.606V138.234H251.895V141.516H245.731V143.051H252.141V143.965H248.79V145.805H253.067ZM262.271 137.496V142.934H261.17V140.672H258.873V142.547H254.033V137.977H255.146V139.371H257.771V137.977H258.873V139.758H261.17V137.496H262.271ZM262.271 143.402V145.992H256.541V146.977H262.646V147.867H255.427V145.172H261.17V144.293H255.404V143.402H262.271ZM255.146 141.668H257.771V140.25H255.146V141.668ZM272.159 138.516H273.448V144.094C273.448 145.875 272.112 147.141 270.085 147.141C268.034 147.141 266.71 145.875 266.71 144.094V138.516H267.999V143.988C267.999 145.137 268.796 145.969 270.085 145.969C271.362 145.969 272.159 145.137 272.159 143.988V138.516ZM275.785 138.516L277.801 141.82H277.871L279.898 138.516H281.387L278.738 142.758L281.41 147H279.898L277.871 143.73H277.801L275.762 147H274.262L276.969 142.758L274.273 138.516H275.785ZM293.982 145.84V146.754H284.373V145.84H286.951V143.508H285.216V142.605H286.787V139.336H285.193V138.422H293.103V139.336H291.498V142.605H293.068V143.508H291.345V145.84H293.982ZM287.888 142.605H290.408V139.336H287.888V142.605ZM288.064 145.84H290.232V143.508H288.064V145.84ZM303.162 138V138.891H299.963C300.028 140.033 301.539 141.041 303.491 141.281L303.069 142.16C301.27 141.926 299.793 141.088 299.225 139.91C298.657 141.082 297.186 141.926 295.393 142.16L294.971 141.281C296.934 141.041 298.428 140.033 298.487 138.891H295.323V138H303.162ZM304.041 142.84V143.742H299.87V145.781H298.768V143.742H294.432V142.84H304.041ZM302.975 146.871V147.773H295.627V144.773H296.741V146.871H302.975ZM312.688 138.164V142.477H307.695V138.164H312.688ZM308.785 139.055V141.609H311.586V139.055H308.785ZM315.84 137.496V143.496H314.738V137.496H315.84ZM316.086 144.176V145.02H313.016C313.092 145.934 314.551 146.889 316.461 147.105L316.086 147.961C314.439 147.768 313.086 147.059 312.453 146.133C311.809 147.07 310.426 147.756 308.773 147.961L308.387 147.105C310.297 146.924 311.791 145.957 311.867 145.02H308.809V144.176H311.891V143.191H312.992V144.176H316.086ZM328.365 143.086V143.977H321.052V138.363H328.259V139.266H322.177V140.684H328.037V141.562H322.177V143.086H328.365ZM329.455 145.758V146.672H319.845V145.758H329.455ZM338.87 137.508V145.312H337.815V141.504H336.526V145.031H335.483V137.695H336.526V140.59H337.815V137.508H338.87ZM339.174 146.871V147.773H331.909V144.586H333.01V146.871H339.174ZM334.346 138.387V141.469H331.463V142.887C332.764 142.887 333.754 142.816 334.909 142.594L335.026 143.484C333.702 143.73 332.612 143.777 331.077 143.777H330.385V140.625H333.28V139.277H330.362V138.387H334.346ZM348.495 142.477V143.391H341.183V138.434H348.402V139.348H342.284V142.477H348.495ZM349.597 145.688V146.613H339.988V145.688H349.597ZM359.094 137.496V147.996H358.027V137.496H359.094ZM356.961 137.695V147.48H355.895V142.418H354.711C354.617 144.469 353.738 145.746 352.438 145.734C351.066 145.746 350.176 144.305 350.176 142.031C350.176 139.758 351.066 138.328 352.438 138.34C353.715 138.328 354.582 139.541 354.711 141.516H355.895V137.695H356.961ZM352.438 139.383C351.676 139.383 351.207 140.355 351.207 142.031C351.207 143.707 351.676 144.68 352.438 144.68C353.211 144.68 353.691 143.707 353.691 142.031C353.691 140.355 353.211 139.383 352.438 139.383ZM371.771 137.496V147.996H370.705V142.57H369.345V147.457H368.326V137.707H369.345V141.656H370.705V137.496H371.771ZM367.048 138.762V139.664H364.224V144.527C365.513 144.516 366.486 144.457 367.611 144.246L367.693 145.16C366.427 145.418 365.349 145.465 363.814 145.477H363.111V138.762H367.048ZM381.08 137.508V140.883H382.604V141.809H381.08V145.359H379.967V137.508H381.08ZM379.1 138.727V139.629H372.842V138.727H375.42V137.496H376.534V138.727H379.1ZM375.971 140.133C377.483 140.133 378.514 140.918 378.514 142.113C378.514 143.309 377.483 144.082 375.971 144.082C374.448 144.082 373.416 143.309 373.416 142.113C373.416 140.918 374.448 140.133 375.971 140.133ZM375.971 140.988C375.08 140.988 374.483 141.422 374.495 142.113C374.483 142.793 375.08 143.215 375.971 143.215C376.862 143.215 377.459 142.793 377.471 142.113C377.459 141.422 376.862 140.988 375.971 140.988ZM381.526 146.871V147.773H374.424V144.738H375.538V146.871H381.526ZM394.227 137.496V148.02H393.113V137.496H394.227ZM388.613 138.281C390.172 138.281 391.32 139.711 391.32 141.961C391.32 144.223 390.172 145.652 388.613 145.652C387.031 145.652 385.895 144.223 385.895 141.961C385.895 139.711 387.031 138.281 388.613 138.281ZM388.613 139.277C387.641 139.277 386.973 140.309 386.973 141.961C386.973 143.625 387.641 144.656 388.613 144.656C389.574 144.656 390.242 143.625 390.242 141.961C390.242 140.309 389.574 139.277 388.613 139.277ZM400.794 139.23V140.133H395.579V139.23H397.641V137.801H398.743V139.23H400.794ZM398.192 140.766C399.528 140.766 400.466 141.762 400.477 143.18C400.466 144.609 399.528 145.617 398.192 145.617C396.88 145.617 395.907 144.609 395.919 143.18C395.907 141.762 396.88 140.766 398.192 140.766ZM398.192 141.691C397.43 141.691 396.903 142.312 396.903 143.18C396.903 144.07 397.43 144.668 398.192 144.668C398.942 144.668 399.493 144.07 399.493 143.18C399.493 142.312 398.942 141.691 398.192 141.691ZM404.591 137.496V147.996H403.536V142.781H402.329V147.504H401.274V137.73H402.329V141.867H403.536V137.496H404.591Z" fill="black"/>
<rect x="216.5" y="159.5" width="289" height="33" fill="white"/>
<rect x="216.5" y="159.5" width="289" height="33" stroke="#DDDDDD"/>
<path d="M241.777 170.941V171.633C241.777 172.33 241.777 173.209 241.555 174.352H242.996V175.242H233.387V174.352H240.441C240.652 173.285 240.676 172.482 240.676 171.832H234.594V170.941H241.777ZM241.789 176.18V178.934H235.637V180H242.059V180.891H234.523V178.078H240.688V177.07H234.512V176.18H241.789ZM253.067 178.805V179.742H243.458V178.805H247.688V176.965H244.63V173.625H250.794V172.148H244.606V171.234H251.895V174.516H245.731V176.051H252.141V176.965H248.79V178.805H253.067ZM262.271 170.496V175.934H261.17V173.672H258.873V175.547H254.033V170.977H255.146V172.371H257.771V170.977H258.873V172.758H261.17V170.496H262.271ZM262.271 176.402V178.992H256.541V179.977H262.646V180.867H255.427V178.172H261.17V177.293H255.404V176.402H262.271ZM255.146 174.668H257.771V173.25H255.146V174.668ZM272.159 171.516H273.448V177.094C273.448 178.875 272.112 180.141 270.085 180.141C268.034 180.141 266.71 178.875 266.71 177.094V171.516H267.999V176.988C267.999 178.137 268.796 178.969 270.085 178.969C271.362 178.969 272.159 178.137 272.159 176.988V171.516ZM275.785 171.516L277.801 174.82H277.871L279.898 171.516H281.387L278.738 175.758L281.41 180H279.898L277.871 176.73H277.801L275.762 180H274.262L276.969 175.758L274.273 171.516H275.785ZM293.982 178.84V179.754H284.373V178.84H286.951V176.508H285.216V175.605H286.787V172.336H285.193V171.422H293.103V172.336H291.498V175.605H293.068V176.508H291.345V178.84H293.982ZM287.888 175.605H290.408V172.336H287.888V175.605ZM288.064 178.84H290.232V176.508H288.064V178.84ZM303.162 171V171.891H299.963C300.028 173.033 301.539 174.041 303.491 174.281L303.069 175.16C301.27 174.926 299.793 174.088 299.225 172.91C298.657 174.082 297.186 174.926 295.393 175.16L294.971 174.281C296.934 174.041 298.428 173.033 298.487 171.891H295.323V171H303.162ZM304.041 175.84V176.742H299.87V178.781H298.768V176.742H294.432V175.84H304.041ZM302.975 179.871V180.773H295.627V177.773H296.741V179.871H302.975ZM312.688 171.164V175.477H307.695V171.164H312.688ZM308.785 172.055V174.609H311.586V172.055H308.785ZM315.84 170.496V176.496H314.738V170.496H315.84ZM316.086 177.176V178.02H313.016C313.092 178.934 314.551 179.889 316.461 180.105L316.086 180.961C314.439 180.768 313.086 180.059 312.453 179.133C311.809 180.07 310.426 180.756 308.773 180.961L308.387 180.105C310.297 179.924 311.791 178.957 311.867 178.02H308.809V177.176H311.891V176.191H312.992V177.176H316.086ZM328.365 176.086V176.977H321.052V171.363H328.259V172.266H322.177V173.684H328.037V174.562H322.177V176.086H328.365ZM329.455 178.758V179.672H319.845V178.758H329.455ZM338.87 170.508V178.312H337.815V174.504H336.526V178.031H335.483V170.695H336.526V173.59H337.815V170.508H338.87ZM339.174 179.871V180.773H331.909V177.586H333.01V179.871H339.174ZM334.346 171.387V174.469H331.463V175.887C332.764 175.887 333.754 175.816 334.909 175.594L335.026 176.484C333.702 176.73 332.612 176.777 331.077 176.777H330.385V173.625H333.28V172.277H330.362V171.387H334.346ZM348.495 175.477V176.391H341.183V171.434H348.402V172.348H342.284V175.477H348.495ZM349.597 178.688V179.613H339.988V178.688H349.597ZM359.094 170.496V180.996H358.027V170.496H359.094ZM356.961 170.695V180.48H355.895V175.418H354.711C354.617 177.469 353.738 178.746 352.438 178.734C351.066 178.746 350.176 177.305 350.176 175.031C350.176 172.758 351.066 171.328 352.438 171.34C353.715 171.328 354.582 172.541 354.711 174.516H355.895V170.695H356.961ZM352.438 172.383C351.676 172.383 351.207 173.355 351.207 175.031C351.207 176.707 351.676 177.68 352.438 177.68C353.211 177.68 353.691 176.707 353.691 175.031C353.691 173.355 353.211 172.383 352.438 172.383ZM371.771 170.496V180.996H370.705V175.57H369.345V180.457H368.326V170.707H369.345V174.656H370.705V170.496H371.771ZM367.048 171.762V172.664H364.224V177.527C365.513 177.516 366.486 177.457 367.611 177.246L367.693 178.16C366.427 178.418 365.349 178.465 363.814 178.477H363.111V171.762H367.048ZM381.08 170.508V173.883H382.604V174.809H381.08V178.359H379.967V170.508H381.08ZM379.1 171.727V172.629H372.842V171.727H375.42V170.496H376.534V171.727H379.1ZM375.971 173.133C377.483 173.133 378.514 173.918 378.514 175.113C378.514 176.309 377.483 177.082 375.971 177.082C374.448 177.082 373.416 176.309 373.416 175.113C373.416 173.918 374.448 173.133 375.971 173.133ZM375.971 173.988C375.08 173.988 374.483 174.422 374.495 175.113C374.483 175.793 375.08 176.215 375.971 176.215C376.862 176.215 377.459 175.793 377.471 175.113C377.459 174.422 376.862 173.988 375.971 173.988ZM381.526 179.871V180.773H374.424V177.738H375.538V179.871H381.526ZM394.227 170.496V181.02H393.113V170.496H394.227ZM388.613 171.281C390.172 171.281 391.32 172.711 391.32 174.961C391.32 177.223 390.172 178.652 388.613 178.652C387.031 178.652 385.895 177.223 385.895 174.961C385.895 172.711 387.031 171.281 388.613 171.281ZM388.613 172.277C387.641 172.277 386.973 173.309 386.973 174.961C386.973 176.625 387.641 177.656 388.613 177.656C389.574 177.656 390.242 176.625 390.242 174.961C390.242 173.309 389.574 172.277 388.613 172.277ZM400.794 172.23V173.133H395.579V172.23H397.641V170.801H398.743V172.23H400.794ZM398.192 173.766C399.528 173.766 400.466 174.762 400.477 176.18C400.466 177.609 399.528 178.617 398.192 178.617C396.88 178.617 395.907 177.609 395.919 176.18C395.907 174.762 396.88 173.766 398.192 173.766ZM398.192 174.691C397.43 174.691 396.903 175.312 396.903 176.18C396.903 177.07 397.43 177.668 398.192 177.668C398.942 177.668 399.493 177.07 399.493 176.18C399.493 175.312 398.942 174.691 398.192 174.691ZM404.591 170.496V180.996H403.536V175.781H402.329V180.504H401.274V170.73H402.329V174.867H403.536V170.496H404.591Z" fill="black"/>
<rect x="216.5" y="192.5" width="289" height="33" fill="white"/>
<rect x="216.5" y="192.5" width="289" height="33" stroke="#DDDDDD"/>
<path d="M233.75 213V212.062L236.691 209.098C237.617 208.125 238.086 207.586 238.086 206.848C238.086 206.016 237.406 205.477 236.516 205.477C235.578 205.477 234.969 206.074 234.969 206.977H233.75C233.738 205.43 234.922 204.398 236.539 204.398C238.18 204.398 239.305 205.43 239.316 206.812C239.305 207.762 238.859 208.512 237.266 210.082L235.543 211.828V211.898H239.457V213H233.75ZM243.54 213.117C241.571 213.117 240.423 211.535 240.423 208.758C240.423 206.004 241.595 204.398 243.54 204.398C245.485 204.398 246.657 206.004 246.657 208.758C246.657 211.535 245.497 213.117 243.54 213.117ZM243.54 212.004C244.688 212.004 245.368 210.879 245.368 208.758C245.368 206.648 244.677 205.488 243.54 205.488C242.403 205.488 241.712 206.648 241.712 208.758C241.712 210.879 242.391 212.004 243.54 212.004ZM247.693 213V212.062L250.634 209.098C251.56 208.125 252.029 207.586 252.029 206.848C252.029 206.016 251.349 205.477 250.459 205.477C249.521 205.477 248.912 206.074 248.912 206.977H247.693C247.681 205.43 248.865 204.398 250.482 204.398C252.123 204.398 253.248 205.43 253.259 206.812C253.248 207.762 252.802 208.512 251.209 210.082L249.486 211.828V211.898H253.4V213H247.693ZM257.413 213.117C255.807 213.117 254.6 212.133 254.541 210.785H255.795C255.866 211.512 256.557 212.039 257.413 212.039C258.444 212.039 259.182 211.289 259.182 210.281C259.182 209.25 258.42 208.5 257.354 208.488C256.674 208.488 256.159 208.711 255.866 209.238H254.647L255.198 204.516H260.002V205.617H256.264L255.983 207.996H256.065C256.416 207.656 257.014 207.422 257.659 207.422C259.252 207.422 260.436 208.605 260.436 210.246C260.436 211.922 259.182 213.117 257.413 213.117ZM265.269 208.219V209.297H261.507V208.219H265.269ZM269.422 213.117C267.453 213.117 266.305 211.535 266.305 208.758C266.305 206.004 267.477 204.398 269.422 204.398C271.367 204.398 272.539 206.004 272.539 208.758C272.539 211.535 271.379 213.117 269.422 213.117ZM269.422 212.004C270.57 212.004 271.25 210.879 271.25 208.758C271.25 206.648 270.559 205.488 269.422 205.488C268.285 205.488 267.594 206.648 267.594 208.758C267.594 210.879 268.273 212.004 269.422 212.004ZM276.458 213.117C274.852 213.117 273.645 212.133 273.587 210.785H274.841C274.911 211.512 275.602 212.039 276.458 212.039C277.489 212.039 278.227 211.289 278.227 210.281C278.227 209.25 277.466 208.5 276.399 208.488C275.72 208.488 275.204 208.711 274.911 209.238H273.692L274.243 204.516H279.048V205.617H275.309L275.028 207.996H275.11C275.462 207.656 276.059 207.422 276.704 207.422C278.298 207.422 279.481 208.605 279.481 210.246C279.481 211.922 278.227 213.117 276.458 213.117ZM284.314 208.219V209.297H280.552V208.219H284.314ZM288.467 213.117C286.498 213.117 285.35 211.535 285.35 208.758C285.35 206.004 286.522 204.398 288.467 204.398C290.412 204.398 291.584 206.004 291.584 208.758C291.584 211.535 290.424 213.117 288.467 213.117ZM288.467 212.004C289.616 212.004 290.295 210.879 290.295 208.758C290.295 206.648 289.604 205.488 288.467 205.488C287.33 205.488 286.639 206.648 286.639 208.758C286.639 210.879 287.319 212.004 288.467 212.004ZM295.843 204.516V213H294.542V205.805H294.495L292.468 207.129V205.898L294.577 204.516H295.843ZM300.704 208.535C301.091 208.102 301.571 207.879 302.098 207.879C303.012 207.879 303.821 208.547 304.712 208.547C305.251 208.547 305.72 208.312 306.083 207.844V208.969C305.684 209.402 305.216 209.625 304.688 209.625C303.774 209.625 302.954 208.957 302.063 208.957C301.536 208.957 301.079 209.191 300.704 209.66V208.535ZM310.287 213V212.062L313.229 209.098C314.155 208.125 314.623 207.586 314.623 206.848C314.623 206.016 313.944 205.477 313.053 205.477C312.116 205.477 311.506 206.074 311.506 206.977H310.287C310.276 205.43 311.459 204.398 313.077 204.398C314.717 204.398 315.842 205.43 315.854 206.812C315.842 207.762 315.397 208.512 313.803 210.082L312.08 211.828V211.898H315.995V213H310.287ZM320.077 213.117C318.109 213.117 316.96 211.535 316.96 208.758C316.96 206.004 318.132 204.398 320.077 204.398C322.023 204.398 323.195 206.004 323.195 208.758C323.195 211.535 322.034 213.117 320.077 213.117ZM320.077 212.004C321.226 212.004 321.905 210.879 321.905 208.758C321.905 206.648 321.214 205.488 320.077 205.488C318.941 205.488 318.249 206.648 318.249 208.758C318.249 210.879 318.929 212.004 320.077 212.004ZM324.23 213V212.062L327.172 209.098C328.098 208.125 328.566 207.586 328.566 206.848C328.566 206.016 327.887 205.477 326.996 205.477C326.059 205.477 325.449 206.074 325.449 206.977H324.23C324.219 205.43 325.402 204.398 327.02 204.398C328.66 204.398 329.785 205.43 329.797 206.812C329.785 207.762 329.34 208.512 327.746 210.082L326.023 211.828V211.898H329.938V213H324.23ZM333.95 213.117C332.345 213.117 331.137 212.133 331.079 210.785H332.333C332.403 211.512 333.095 212.039 333.95 212.039C334.981 212.039 335.72 211.289 335.72 210.281C335.72 209.25 334.958 208.5 333.891 208.488C333.212 208.488 332.696 208.711 332.403 209.238H331.184L331.735 204.516H336.54V205.617H332.802L332.52 207.996H332.602C332.954 207.656 333.552 207.422 334.196 207.422C335.79 207.422 336.973 208.605 336.973 210.246C336.973 211.922 335.72 213.117 333.95 213.117ZM341.806 208.219V209.297H338.045V208.219H341.806ZM345.959 213.117C343.991 213.117 342.842 211.535 342.842 208.758C342.842 206.004 344.014 204.398 345.959 204.398C347.905 204.398 349.077 206.004 349.077 208.758C349.077 211.535 347.916 213.117 345.959 213.117ZM345.959 212.004C347.108 212.004 347.787 210.879 347.787 208.758C347.787 206.648 347.096 205.488 345.959 205.488C344.823 205.488 344.131 206.648 344.131 208.758C344.131 210.879 344.811 212.004 345.959 212.004ZM352.995 213.117C351.39 213.117 350.183 212.133 350.124 210.785H351.378C351.448 211.512 352.14 212.039 352.995 212.039C354.027 212.039 354.765 211.289 354.765 210.281C354.765 209.25 354.003 208.5 352.937 208.488C352.257 208.488 351.741 208.711 351.448 209.238H350.23L350.78 204.516H355.585V205.617H351.847L351.566 207.996H351.648C351.999 207.656 352.597 207.422 353.241 207.422C354.835 207.422 356.019 208.605 356.019 210.246C356.019 211.922 354.765 213.117 352.995 213.117ZM360.852 208.219V209.297H357.09V208.219H360.852ZM361.712 213V212.062L364.653 209.098C365.579 208.125 366.048 207.586 366.048 206.848C366.048 206.016 365.368 205.477 364.477 205.477C363.54 205.477 362.93 206.074 362.93 206.977H361.712C361.7 205.43 362.884 204.398 364.501 204.398C366.141 204.398 367.266 205.43 367.278 206.812C367.266 207.762 366.821 208.512 365.227 210.082L363.505 211.828V211.898H367.419V213H361.712ZM371.466 204.398C373.025 204.41 374.666 205.348 374.666 208.453C374.666 211.43 373.388 213.117 371.349 213.117C369.791 213.117 368.689 212.156 368.49 210.773H369.767C369.943 211.488 370.494 211.992 371.349 211.992C372.662 211.992 373.423 210.844 373.435 208.91H373.33C372.873 209.625 372.076 210.059 371.162 210.059C369.638 210.059 368.42 208.898 368.42 207.27C368.42 205.652 369.627 204.387 371.466 204.398ZM371.466 205.477C370.435 205.477 369.673 206.273 369.673 207.246C369.673 208.23 370.412 209.004 371.443 209.004C372.462 209.004 373.259 208.172 373.259 207.234C373.259 206.32 372.509 205.477 371.466 205.477Z" fill="black"/>
<path d="M102.236 260.724H90.448V259.464H95.642V258.19H91.33V254.424C91.33 254.125 91.3953 253.911 91.526 253.78C91.6567 253.649 91.8713 253.584 92.17 253.584H101.354V257.14C101.354 257.504 101.27 257.77 101.102 257.938C100.934 258.106 100.668 258.19 100.304 258.19H97.042V259.464H102.236V260.724ZM101.424 266.254H100.024V262.95H91.26V261.69H101.424V266.254ZM99.954 256.93V254.844H92.73V256.93H99.954ZM114.504 265.372H102.715V264.112H105.586V261.9H106.986V264.112H110.234V261.9H111.634V264.112H114.504V265.372ZM114.042 261.06H103.177V259.8H105.376L105.067 255.656H106.468L106.776 259.8H110.388L110.738 255.656H112.138L111.788 259.8H114.042V261.06ZM113.692 254.956H103.527V253.696H113.692V254.956ZM128.784 266.212H119.082V262.53H127.244V261.522H119.054V260.262H128.644V262.922C128.644 263.221 128.578 263.435 128.448 263.566C128.317 263.697 128.102 263.762 127.804 263.762H120.482V264.952H128.784V266.212ZM126.474 259.254H118.48V254.55C118.48 254.251 118.545 254.037 118.676 253.906C118.806 253.775 119.021 253.71 119.32 253.71H125.774V254.97H119.88V257.994H126.474V259.254ZM128.644 259.66H127.244V253.556H128.644V255.656H130.296V256.944H128.644V259.66ZM134.163 266.212C133.314 266.212 132.656 265.993 132.189 265.554C131.723 265.125 131.489 264.513 131.489 263.72C131.489 262.927 131.723 262.315 132.189 261.886C132.656 261.447 133.314 261.228 134.163 261.228H139.049C139.899 261.228 140.557 261.447 141.023 261.886C141.49 262.315 141.723 262.927 141.723 263.72C141.723 264.513 141.49 265.125 141.023 265.554C140.557 265.993 139.899 266.212 139.049 266.212H134.163ZM141.471 260.78H140.071V257.574H137.845V260.36H136.445V254.97H135.213C134.915 254.97 134.7 255.031 134.569 255.152C134.448 255.264 134.336 255.432 134.233 255.656L132.147 260.36H130.593L132.805 255.334C132.927 255.073 133.039 254.839 133.141 254.634C133.244 254.429 133.365 254.261 133.505 254.13C133.655 253.99 133.832 253.887 134.037 253.822C134.243 253.747 134.504 253.71 134.821 253.71H137.845V256.286H140.071V253.556H141.471V260.78ZM138.867 264.952C139.362 264.952 139.726 264.835 139.959 264.602C140.202 264.378 140.323 264.084 140.323 263.72C140.323 263.356 140.202 263.062 139.959 262.838C139.726 262.605 139.362 262.488 138.867 262.488H134.345C133.851 262.488 133.482 262.605 133.239 262.838C133.006 263.062 132.889 263.356 132.889 263.72C132.889 264.084 133.006 264.378 133.239 264.602C133.482 264.835 133.851 264.952 134.345 264.952H138.867ZM153.851 266.254H143.547V263.062H152.311V262.362H143.519V261.102H145.605V260.374H142.735V259.114H154.523V260.374H151.653V261.102H153.711V263.454C153.711 263.753 153.645 263.967 153.515 264.098C153.384 264.229 153.169 264.294 152.871 264.294H144.947V264.994H153.851V266.254ZM153.809 258.526H143.617V255.404H152.241V254.774H143.589V253.514H153.641V255.586C153.641 255.95 153.557 256.216 153.389 256.384C153.221 256.552 152.955 256.636 152.591 256.636H145.017V257.266H153.809V258.526ZM150.253 261.102V260.374H147.005V261.102H150.253ZM168.747 266.212H158.961V262.25H160.361V264.952H168.747V266.212ZM168.663 263.328H167.263V253.556H168.663V256.958H170.315V258.246H168.663V263.328ZM165.667 258.988H164.267L164.589 255.292C164.598 255.161 164.584 255.077 164.547 255.04C164.519 254.993 164.44 254.97 164.309 254.97H158.751V253.71H165.471C165.704 253.71 165.863 253.771 165.947 253.892C166.031 254.004 166.064 254.167 166.045 254.382L165.667 258.988ZM166.563 261.172H158.275V259.912H160.809V257.154H162.209V259.912H166.563V261.172ZM181.49 266.212H180.09V253.556H181.49V266.212ZM178.97 264.98H171.046V258.414H176.744V254.942H171.018V253.71H178.144V258.568C178.144 258.932 178.06 259.198 177.892 259.366C177.724 259.534 177.458 259.618 177.094 259.618H172.446V263.748H178.97V264.98Z" fill="black"/>
</g>
<defs>
<filter id="filter0_d_281_880" x="215.91" y="328.325" width="19.3976" height="19.3976" filterUnits="userSpaceOnUse" color-interpolation-filters="sRGB">
<feFlood flood-opacity="0" result="BackgroundImageFix"/>
<feColorMatrix in="SourceAlpha" type="matrix" values="0 0 0 0 0 0 0 0 0 0 0 0 0 0 0 0 0 0 127 0" result="hardAlpha"/>
<feOffset dy="2.77108"/>
<feGaussianBlur stdDeviation="1.38554"/>
<feComposite in2="hardAlpha" operator="out"/>
<feColorMatrix type="matrix" values="0 0 0 0 0 0 0 0 0 0 0 0 0 0 0 0 0 0 0.25 0"/>
<feBlend mode="normal" in2="BackgroundImageFix" result="effect1_dropShadow_281_880"/>
<feBlend mode="normal" in="SourceGraphic" in2="effect1_dropShadow_281_880" result="shape"/>
</filter>
<filter id="filter1_d_281_880" x="204.132" y="300.614" width="44.1687" height="34.1687" filterUnits="userSpaceOnUse" color-interpolation-filters="sRGB">
<feFlood flood-opacity="0" result="BackgroundImageFix"/>
<feColorMatrix in="SourceAlpha" type="matrix" values="0 0 0 0 0 0 0 0 0 0 0 0 0 0 0 0 0 0 127 0" result="hardAlpha"/>
<feOffset dy="2.77108"/>
<feGaussianBlur stdDeviation="2.07831"/>
<feComposite in2="hardAlpha" operator="out"/>
<feColorMatrix type="matrix" values="0 0 0 0 0 0 0 0 0 0 0 0 0 0 0 0 0 0 0.1 0"/>
<feBlend mode="normal" in2="BackgroundImageFix" result="effect1_dropShadow_281_880"/>
<feBlend mode="normal" in="SourceGraphic" in2="effect1_dropShadow_281_880" result="shape"/>
</filter>
<clipPath id="clip0_281_880">
<rect width="440" height="500" rx="16" fill="white"/>
</clipPath>
<clipPath id="clip1_281_880">
<rect width="6.23494" height="3.46386" fill="white" transform="translate(366.309 461.844)"/>
</clipPath>
</defs>
</svg>
