<svg width="440" height="500" viewBox="0 0 440 500" fill="none" xmlns="http://www.w3.org/2000/svg">
<g clip-path="url(#clip0_281_968)">
<rect x="60" y="60" width="560" height="502" rx="22" fill="white"/>
<path d="M98.596 97.77C98.596 98.246 98.5027 98.6753 98.316 99.058C98.1387 99.4313 97.882 99.7533 97.546 100.024C97.2193 100.285 96.8273 100.491 96.37 100.64C95.9127 100.78 95.4087 100.85 94.858 100.85C94.3073 100.85 93.7987 100.78 93.332 100.64C92.8747 100.491 92.4827 100.285 92.156 100.024C91.8293 99.7533 91.5727 99.4313 91.386 99.058C91.2087 98.6753 91.12 98.246 91.12 97.77V96.622C91.12 96.146 91.2087 95.7213 91.386 95.348C91.5727 94.9653 91.8293 94.6433 92.156 94.382C92.4827 94.1113 92.8747 93.906 93.332 93.766C93.7987 93.6167 94.3073 93.542 94.858 93.542C95.4087 93.542 95.9127 93.6167 96.37 93.766C96.8273 93.906 97.2193 94.1113 97.546 94.382C97.882 94.6433 98.1387 94.9653 98.316 95.348C98.5027 95.7213 98.596 96.146 98.596 96.622V97.77ZM97.196 96.692C97.196 96.0947 96.9767 95.6327 96.538 95.306C96.1087 94.97 95.5487 94.802 94.858 94.802C94.1673 94.802 93.6027 94.97 93.164 95.306C92.7347 95.6327 92.52 96.0947 92.52 96.692V97.7C92.52 98.2973 92.7347 98.764 93.164 99.1C93.6027 99.4267 94.1673 99.59 94.858 99.59C95.5487 99.59 96.1087 99.4267 96.538 99.1C96.9767 98.764 97.196 98.2973 97.196 97.7V96.692ZM101.312 106.212H99.912V93.556H101.312V106.212ZM99.212 105.12H90.644V103.86H94.158V101.48H95.558V103.86H99.212V105.12ZM113.622 98.722C113.622 99.086 113.538 99.352 113.37 99.52C113.202 99.688 112.936 99.772 112.572 99.772H103.598V93.556H104.998V95.292H112.222V93.556H113.622V98.722ZM114.504 102.152H109.31V106.212H107.91V102.152H102.715V100.892H114.504V102.152ZM112.222 98.512V96.552H104.998V98.512H112.222ZM125.987 100.78H124.587V98.414H122.781V97.126H124.587V96.09H122.781V94.97H121.857L121.689 98.89H123.187V100.15H115.193V98.89H116.677L116.509 94.97H115.403V93.71H122.977V94.802H124.587V93.556H125.987V100.78ZM118.679 106.212C117.83 106.212 117.172 105.993 116.705 105.554C116.238 105.125 116.005 104.513 116.005 103.72C116.005 102.927 116.238 102.315 116.705 101.886C117.172 101.447 117.83 101.228 118.679 101.228H123.565C124.414 101.228 125.072 101.447 125.539 101.886C126.006 102.315 126.239 102.927 126.239 103.72C126.239 104.513 126.006 105.125 125.539 105.554C125.072 105.993 124.414 106.212 123.565 106.212H118.679ZM123.383 104.952C123.878 104.952 124.242 104.835 124.475 104.602C124.718 104.378 124.839 104.084 124.839 103.72C124.839 103.356 124.718 103.062 124.475 102.838C124.242 102.605 123.878 102.488 123.383 102.488H118.861C118.366 102.488 117.998 102.605 117.755 102.838C117.522 103.062 117.405 103.356 117.405 103.72C117.405 104.084 117.522 104.378 117.755 104.602C117.998 104.835 118.366 104.952 118.861 104.952H123.383ZM120.289 98.89L120.457 94.97H117.909L118.077 98.89H120.289ZM132.417 105.204H131.017L132.641 95.292C132.659 95.1613 132.65 95.0773 132.613 95.04C132.575 94.9933 132.491 94.97 132.361 94.97H127.391V93.71H133.663C133.896 93.71 134.059 93.7707 134.153 93.892C134.246 94.004 134.274 94.1673 134.237 94.382L132.417 105.204ZM137.555 106.212H136.155V93.556H137.555V98.26H139.207V99.548H137.555V106.212ZM153.837 101.34H152.297L150.295 95.628C150.211 95.3853 150.103 95.2127 149.973 95.11C149.842 95.0073 149.646 94.956 149.385 94.956H147.873C147.611 94.956 147.415 95.0073 147.285 95.11C147.154 95.2127 147.047 95.3853 146.963 95.628L144.961 101.34H143.421L145.745 94.956H143.617V93.696H153.641V94.956H151.513L153.837 101.34ZM154.523 105.372H142.735V104.112H147.929V100.08H149.329V104.112H154.523V105.372ZM163.766 105.12H155.198V103.86H158.754V102.32C157.905 102.208 157.261 101.895 156.822 101.382C156.384 100.869 156.164 100.187 156.164 99.338V97.882C156.164 97.406 156.239 96.9907 156.388 96.636C156.547 96.272 156.771 95.9827 157.06 95.768H155.45V94.508H158.754V92.982H160.154V94.508H163.5V95.768H161.89C162.189 95.9733 162.404 96.258 162.534 96.622C162.674 96.986 162.744 97.406 162.744 97.882V99.338C162.744 100.187 162.525 100.869 162.086 101.382C161.648 101.895 161.004 102.208 160.154 102.32V103.86H163.766V105.12ZM161.344 97.644C161.344 97.0467 161.2 96.5753 160.91 96.23C160.63 95.8753 160.145 95.698 159.454 95.698C158.764 95.698 158.274 95.8753 157.984 96.23C157.704 96.5753 157.564 97.0467 157.564 97.644V99.268C157.564 99.8653 157.704 100.341 157.984 100.696C158.274 101.041 158.764 101.214 159.454 101.214C160.145 101.214 160.63 101.041 160.91 100.696C161.2 100.341 161.344 99.8653 161.344 99.268V97.644ZM165.866 106.212H164.466V93.556H165.866V106.212Z" fill="black"/>
<path d="M98.6602 119.211V120.125C98.6602 121.115 98.6602 122.188 98.3672 123.688H99.9141V124.449H95.6133V128.973H94.6875V124.449H90.4219V123.688H97.4297C97.7461 122.188 97.7461 121.092 97.7461 120.125V119.973H91.6172V119.211H98.6602ZM104.019 120.172C104.007 121.66 105.062 122.973 106.597 123.488L106.081 124.203C104.933 123.77 104.031 122.926 103.585 121.824C103.134 123.072 102.179 124.045 100.925 124.52L100.421 123.77C102.027 123.207 103.093 121.824 103.105 120.207V119.129H104.019V120.172ZM109.07 118.531V124.707H108.144V121.531H105.824V120.77H108.144V118.531H109.07ZM105.613 125.012C107.781 125.012 109.105 125.727 109.105 126.98C109.105 128.223 107.781 128.926 105.613 128.926C103.445 128.926 102.12 128.223 102.12 126.98C102.12 125.727 103.445 125.012 105.613 125.012ZM105.613 125.738C104.019 125.738 103.023 126.207 103.035 126.98C103.023 127.73 104.019 128.188 105.613 128.188C107.206 128.188 108.191 127.73 108.191 126.98C108.191 126.207 107.206 125.738 105.613 125.738ZM119.034 118.543V126.453H118.108V125.375H115.952V124.707H118.108V118.543H119.034ZM119.292 127.953V128.727H111.885V125.68H112.811V127.953H119.292ZM110.385 123.371C112.331 123.359 114.932 123.348 117.171 123.066L117.229 123.734C116.298 123.881 115.325 123.975 114.37 124.027V126.09H113.444V124.074C112.389 124.121 111.387 124.127 110.514 124.121L110.385 123.371ZM113.807 118.965C115.331 118.965 116.374 119.691 116.385 120.781C116.374 121.895 115.331 122.586 113.807 122.586C112.272 122.586 111.229 121.895 111.229 120.781C111.229 119.691 112.272 118.965 113.807 118.965ZM113.807 119.668C112.788 119.656 112.096 120.113 112.108 120.781C112.096 121.461 112.788 121.906 113.807 121.906C114.792 121.906 115.495 121.461 115.507 120.781C115.495 120.113 114.792 119.656 113.807 119.668ZM129.959 122.914V123.652H120.455V122.914H129.959ZM128.822 121.309V122.059H121.721V118.895H128.717V119.633H122.647V121.309H128.822ZM128.729 124.59V127.004H122.541V128.082H129.045V128.832H121.627V126.312H127.826V125.305H121.604V124.59H128.729ZM133.876 119.293C135.517 119.293 136.677 120.289 136.677 121.742C136.677 123.195 135.517 124.191 133.876 124.191C132.236 124.191 131.052 123.195 131.064 121.742C131.052 120.289 132.236 119.293 133.876 119.293ZM133.876 120.102C132.763 120.102 131.955 120.77 131.966 121.742C131.955 122.715 132.763 123.383 133.876 123.383C134.978 123.383 135.775 122.715 135.775 121.742C135.775 120.77 134.978 120.102 133.876 120.102ZM139.009 118.531V128.973H138.095V118.531H139.009ZM130.525 125.891C132.447 125.891 135.095 125.879 137.404 125.539L137.474 126.219C135.095 126.664 132.529 126.676 130.654 126.676L130.525 125.891ZM146.539 119.211C148.18 119.223 149.34 120.207 149.34 121.66C149.34 122.973 148.391 123.904 146.996 124.062V125.844C148.028 125.791 149.076 125.703 150.067 125.551L150.137 126.23C147.758 126.676 145.192 126.688 143.317 126.688L143.188 125.914C144.037 125.914 145.028 125.914 146.07 125.879V124.062C144.676 123.898 143.715 122.973 143.727 121.66C143.715 120.207 144.899 119.223 146.539 119.211ZM146.539 120.02C145.426 120.02 144.617 120.688 144.629 121.66C144.617 122.633 145.426 123.312 146.539 123.301C147.641 123.312 148.438 122.633 148.438 121.66C148.438 120.688 147.641 120.02 146.539 120.02ZM151.672 118.531V128.973H150.758V118.531H151.672ZM162.667 124.719V125.469H158.32V128.949H157.417V125.469H153.128V124.719H162.667ZM155.261 118.965V120.406H160.511V118.965H161.437V123.453H154.347V118.965H155.261ZM155.261 122.703H160.511V121.156H155.261V122.703ZM168.999 119.328V120.09H167.933V123.418C168.419 123.389 168.888 123.348 169.339 123.289L169.386 123.992C167.358 124.309 164.979 124.332 163.292 124.332L163.175 123.559L164.522 123.547V120.09H163.468V119.328H168.999ZM171.788 118.531V124.965H170.862V123.031H169.104V122.27H170.862V121.168H169.104V120.406H170.862V118.531H171.788ZM168.331 125.188C170.511 125.188 171.823 125.867 171.823 127.051C171.823 128.246 170.511 128.926 168.331 128.926C166.151 128.926 164.839 128.246 164.839 127.051C164.839 125.867 166.151 125.188 168.331 125.188ZM168.331 125.902C166.725 125.902 165.741 126.336 165.753 127.051C165.741 127.777 166.725 128.199 168.331 128.199C169.936 128.199 170.909 127.777 170.909 127.051C170.909 126.336 169.936 125.902 168.331 125.902ZM165.413 123.535C165.946 123.523 166.497 123.506 167.042 123.477V120.09H165.413V123.535ZM181.225 118.531V122.773H182.912V123.547H181.225V128.949H180.311V118.531H181.225ZM178.53 119.656C178.53 122.609 177.147 125.293 173.748 126.969L173.233 126.242C175.928 124.9 177.393 122.896 177.604 120.43H173.713V119.656H178.53ZM189.353 121.73C189.341 123.406 190.548 125.246 192.06 125.961L191.532 126.688C190.36 126.119 189.37 124.877 188.907 123.465C188.427 125 187.378 126.348 186.212 126.945L185.649 126.219C187.149 125.492 188.438 123.512 188.45 121.73V120.371H186.024V119.609H191.696V120.371H189.353V121.73ZM193.888 118.531V122.75H195.634V123.535H193.888V128.949H192.974V118.531H193.888ZM205.375 126.887V127.66H195.836V126.887H198.52V124.906H197.032V121.695H203.266V120.066H197.008V119.305H204.168V122.457H197.946V124.145H204.414V124.906H202.785V126.887H205.375ZM199.422 126.887H201.883V124.906H199.422V126.887ZM215.375 123.371V124.098H205.836V123.371H215.375ZM214.179 124.93V127.145H207.922V128.141H214.519V128.809H206.996V126.512H213.265V125.621H206.984V124.93H214.179ZM214.144 118.848V121.004H207.992V121.918H214.332V122.586H207.078V120.371H213.218V119.516H207.043V118.848H214.144ZM228.014 123.488V124.262H218.51V123.488H228.014ZM226.901 121.742V122.492H219.717V118.953H226.83V119.727H220.62V121.742H226.901ZM223.256 125.176C225.495 125.176 226.83 125.855 226.842 127.051C226.83 128.258 225.495 128.926 223.256 128.926C221.006 128.926 219.659 128.258 219.659 127.051C219.659 125.855 221.006 125.176 223.256 125.176ZM223.256 125.891C221.58 125.902 220.584 126.324 220.596 127.051C220.584 127.789 221.58 128.199 223.256 128.199C224.909 128.199 225.916 127.789 225.916 127.051C225.916 126.324 224.909 125.902 223.256 125.891ZM238.049 124.273V125.035H228.51V124.273H232.822V123.172H229.752V120.629H235.892V119.551H229.717V118.801H236.818V121.32H230.666V122.434H237.041V123.172H233.724V124.273H238.049ZM236.877 125.832V128.855H235.951V126.582H229.576V125.832H236.877ZM240.243 127.215L239.329 130.402H238.462L239.107 127.215H240.243ZM253.433 126.84V127.613H243.894V126.84H248.195V124.309H249.121V126.84H253.433ZM249.121 120.512C249.121 122.176 251.183 123.605 252.976 123.898L252.601 124.625C251.008 124.314 249.326 123.301 248.664 121.848C247.99 123.307 246.314 124.344 244.75 124.672L244.363 123.934C246.121 123.629 248.172 122.176 248.172 120.512V120.254H244.68V119.48H252.613V120.254H249.121V120.512ZM262.448 118.531V128.949H261.534V118.531H262.448ZM253.964 126.172C254.855 126.166 255.874 126.16 256.929 126.125V124.988C255.681 124.854 254.866 124.145 254.878 123.102C254.866 121.93 255.874 121.168 257.374 121.168C258.874 121.168 259.894 121.93 259.894 123.102C259.894 124.133 259.085 124.842 257.855 124.977V126.09C258.863 126.049 259.882 125.973 260.843 125.844L260.913 126.547C258.593 126.922 256.038 126.957 254.105 126.957L253.964 126.172ZM260.573 119.82V120.57H254.187V119.82H256.929V118.543H257.855V119.82H260.573ZM257.374 121.883C256.413 121.883 255.734 122.375 255.734 123.102C255.734 123.828 256.413 124.297 257.374 124.285C258.347 124.297 259.015 123.828 259.015 123.102C259.015 122.375 258.347 121.883 257.374 121.883ZM272.061 118.496V121.027H273.643V121.789H272.061V124.262H271.147V118.496H272.061ZM272.061 124.801V127.109H266.342V128.129H272.448V128.832H265.44V126.43H271.147V125.492H265.417V124.801H272.061ZM270.151 119.48V120.219H263.94V119.48H266.588V118.426H267.503V119.48H270.151ZM267.045 120.688C268.557 120.688 269.542 121.344 269.553 122.398C269.542 123.453 268.557 124.109 267.045 124.109C265.522 124.109 264.526 123.453 264.538 122.398C264.526 121.344 265.522 120.688 267.045 120.688ZM267.045 121.367C266.061 121.367 265.405 121.777 265.417 122.398C265.405 123.031 266.061 123.418 267.045 123.418C268.03 123.418 268.674 123.031 268.686 122.398C268.674 121.777 268.03 121.367 267.045 121.367ZM281.806 119.504C281.806 120.969 283.728 122.246 285.603 122.504L285.228 123.254C283.611 122.984 282.011 122.088 281.337 120.805C280.669 122.094 279.064 122.984 277.447 123.254L277.072 122.504C278.947 122.246 280.857 120.992 280.857 119.504V118.906H281.806V119.504ZM286.072 124.402V125.176H281.759V128.949H280.857V125.176H276.579V124.402H286.072ZM292.77 125.527C292.77 126.447 293.262 127.426 294.258 127.988C295.242 127.373 295.77 126.336 295.77 125.527V124.953H296.672V125.527C296.672 126.594 297.457 127.672 298.793 128.129L298.336 128.809C297.293 128.439 296.561 127.713 296.203 126.84C295.881 127.684 295.242 128.48 294.281 128.891C293.268 128.504 292.623 127.736 292.312 126.863C291.943 127.707 291.223 128.434 290.227 128.809L289.758 128.129C291.07 127.637 291.867 126.523 291.879 125.527V124.953H292.77V125.527ZM297.844 118.543V124.496H296.93V118.543H297.844ZM292.219 119.152C293.801 119.152 294.949 120.137 294.949 121.59C294.949 123.02 293.801 124.004 292.219 124.004C290.637 124.004 289.488 123.02 289.488 121.59C289.488 120.137 290.637 119.152 292.219 119.152ZM292.219 119.938C291.152 119.926 290.379 120.617 290.391 121.59C290.379 122.551 291.152 123.23 292.219 123.242C293.273 123.23 294.047 122.551 294.047 121.59C294.047 120.617 293.273 119.926 292.219 119.938ZM302.054 119.34C303.472 119.352 304.492 120.564 304.644 122.516H306.976V118.531H307.89V128.973H306.976V123.277H304.656C304.544 125.316 303.507 126.594 302.054 126.594C300.519 126.594 299.441 125.188 299.441 122.973C299.441 120.758 300.519 119.352 302.054 119.34ZM302.054 120.16C301.023 120.172 300.32 121.273 300.32 122.973C300.32 124.672 301.023 125.773 302.054 125.773C303.074 125.773 303.788 124.672 303.788 122.973C303.788 121.273 303.074 120.172 302.054 120.16ZM318.803 126.84V127.613H309.264V126.84H311.632V124.027C310.741 123.564 310.202 122.814 310.202 121.871C310.202 120.254 311.784 119.199 314.01 119.188C316.237 119.199 317.819 120.254 317.819 121.871C317.819 122.797 317.298 123.541 316.436 124.004V126.84H318.803ZM314.01 119.949C312.3 119.938 311.092 120.711 311.092 121.871C311.092 123.031 312.3 123.816 314.01 123.816C315.71 123.816 316.928 123.031 316.928 121.871C316.928 120.711 315.71 119.938 314.01 119.949ZM312.534 126.84H315.51V124.355C315.059 124.479 314.555 124.543 314.01 124.543C313.477 124.543 312.979 124.484 312.534 124.367V126.84ZM320.377 128.07C319.967 128.07 319.615 127.73 319.627 127.309C319.615 126.898 319.967 126.559 320.377 126.559C320.787 126.559 321.127 126.898 321.127 127.309C321.127 127.73 320.787 128.07 320.377 128.07Z" fill="black" fill-opacity="0.54"/>
<g filter="url(#filter0_d_281_968)">
<rect x="90" y="196" width="476" height="347" rx="11" fill="white"/>
<rect x="90.5" y="196.5" width="475" height="346" rx="10.5" stroke="#EEEEEE"/>
</g>
<rect x="128.5" y="266.5" width="475" height="79" rx="10.5" fill="white" stroke="#EEEEEE"/>
<rect x="128.5" y="354.5" width="475" height="79" rx="10.5" fill="white" stroke="#EEEEEE"/>
<rect x="128.5" y="439.5" width="475" height="79" rx="10.5" fill="white" stroke="#EEEEEE"/>
<g clip-path="url(#clip1_281_968)">
<path d="M159.468 301H153.427C153.191 301 153 300.821 153 300.6V289.4C153 289.179 153.191 289 153.427 289H162.573C162.809 289 163 289.179 163 289.4V297.693C163 297.799 162.954 297.901 162.875 297.976L159.769 300.883C159.689 300.958 159.58 301 159.468 301ZM153.854 300.199H159.29L162.145 297.527V289.801H153.854V300.199Z" fill="#888888"/>
<path d="M162.162 297.693L159.335 300.6V297.693H162.162Z" fill="#888888"/>
<path d="M159.335 301C159.284 301 159.234 300.99 159.185 300.97C159.04 300.908 158.946 300.762 158.946 300.6V297.692C158.946 297.471 159.12 297.292 159.335 297.292H162.162C162.319 297.292 162.46 297.39 162.521 297.539C162.581 297.689 162.548 297.861 162.436 297.975L159.61 300.883C159.535 300.959 159.436 301 159.335 301ZM159.723 298.093V299.635L161.222 298.093H159.723Z" fill="#888888"/>
<path d="M160.42 292.429H155.889C155.674 292.429 155.5 292.249 155.5 292.028C155.5 291.807 155.673 291.628 155.889 291.628H160.42C160.635 291.628 160.809 291.807 160.809 292.028C160.809 292.249 160.635 292.429 160.42 292.429Z" fill="#888888"/>
<path d="M160.266 294.157H155.735C155.52 294.157 155.346 293.977 155.346 293.756C155.346 293.535 155.519 293.356 155.735 293.356H160.266C160.481 293.356 160.655 293.535 160.655 293.756C160.655 293.977 160.481 294.157 160.266 294.157Z" fill="#888888"/>
<path d="M158.18 295.98H155.735C155.52 295.98 155.346 295.802 155.346 295.58C155.346 295.359 155.519 295.181 155.735 295.181H158.181C158.396 295.181 158.57 295.359 158.57 295.58C158.569 295.802 158.396 295.98 158.18 295.98Z" fill="#888888"/>
</g>
<path d="M184.274 300.386H178.66C177.447 300.386 176.84 299.779 176.84 298.566V297.208C176.84 296.947 176.859 296.723 176.896 296.536C176.933 296.349 176.999 296.191 177.092 296.06C177.185 295.929 177.307 295.813 177.456 295.71C177.615 295.607 177.811 295.5 178.044 295.388L182.314 293.372C182.473 293.297 182.58 293.209 182.636 293.106C182.701 293.003 182.734 292.859 182.734 292.672V290.824C182.734 290.357 182.501 290.124 182.034 290.124H177.05V288.864H182.314C183.527 288.864 184.134 289.471 184.134 290.684V292.7C184.134 292.971 184.115 293.199 184.078 293.386C184.041 293.563 183.975 293.717 183.882 293.848C183.789 293.979 183.663 294.095 183.504 294.198C183.355 294.301 183.163 294.408 182.93 294.52L178.66 296.564C178.501 296.639 178.389 296.727 178.324 296.83C178.268 296.933 178.24 297.077 178.24 297.264V298.426C178.24 298.893 178.473 299.126 178.94 299.126H184.274V300.386ZM193.561 297.362C193.561 298.417 193.309 299.191 192.805 299.686C192.31 300.19 191.536 300.442 190.481 300.442H188.857C187.802 300.442 187.023 300.19 186.519 299.686C186.024 299.191 185.777 298.417 185.777 297.362V291.888C185.777 290.833 186.024 290.059 186.519 289.564C187.023 289.06 187.802 288.808 188.857 288.808H190.481C191.536 288.808 192.31 289.06 192.805 289.564C193.309 290.059 193.561 290.833 193.561 291.888V297.362ZM190.621 299.21C191.078 299.21 191.447 299.07 191.727 298.79C192.016 298.501 192.161 298.127 192.161 297.67V291.58C192.161 291.123 192.016 290.754 191.727 290.474C191.447 290.185 191.078 290.04 190.621 290.04H188.717C188.26 290.04 187.886 290.185 187.597 290.474C187.317 290.754 187.177 291.123 187.177 291.58V297.67C187.177 298.127 187.317 298.501 187.597 298.79C187.886 299.07 188.26 299.21 188.717 299.21H190.621ZM202.512 300.386H196.898C195.685 300.386 195.078 299.779 195.078 298.566V297.208C195.078 296.947 195.097 296.723 195.134 296.536C195.172 296.349 195.237 296.191 195.33 296.06C195.424 295.929 195.545 295.813 195.694 295.71C195.853 295.607 196.049 295.5 196.282 295.388L200.552 293.372C200.711 293.297 200.818 293.209 200.874 293.106C200.94 293.003 200.972 292.859 200.972 292.672V290.824C200.972 290.357 200.739 290.124 200.272 290.124H195.288V288.864H200.552C201.766 288.864 202.372 289.471 202.372 290.684V292.7C202.372 292.971 202.354 293.199 202.316 293.386C202.279 293.563 202.214 293.717 202.12 293.848C202.027 293.979 201.901 294.095 201.742 294.198C201.593 294.301 201.402 294.408 201.168 294.52L196.898 296.564C196.74 296.639 196.628 296.727 196.562 296.83C196.506 296.933 196.478 297.077 196.478 297.264V298.426C196.478 298.893 196.712 299.126 197.178 299.126H202.512V300.386ZM211.631 298.076C211.631 298.776 211.431 299.336 211.029 299.756C210.637 300.176 210.021 300.386 209.181 300.386H204.197V299.126H209.181C209.881 299.126 210.231 298.729 210.231 297.936V296.144C210.231 295.351 209.881 294.954 209.181 294.954H205.737C205.177 294.954 204.781 294.833 204.547 294.59C204.314 294.347 204.197 293.946 204.197 293.386V288.864H211.351V290.124H205.597V293.134C205.597 293.507 205.784 293.694 206.157 293.694H209.181C210.021 293.694 210.637 293.904 211.029 294.324C211.431 294.744 211.631 295.304 211.631 296.004V298.076ZM223.929 297.978H222.529V293.302H218.567V292.014H222.529V290.88H218.567V289.592H222.529V288.556H223.929V297.978ZM221.129 295.696H213.485V288.64H214.885V294.436H221.129V295.696ZM224.013 301.212H214.227V296.76H215.627V299.952H224.013V301.212ZM237.397 292.77C237.397 293.246 237.303 293.675 237.117 294.058C236.939 294.431 236.683 294.753 236.347 295.024C236.02 295.285 235.628 295.491 235.171 295.64C234.713 295.78 234.209 295.85 233.659 295.85C233.108 295.85 232.599 295.78 232.133 295.64C231.675 295.491 231.283 295.285 230.957 295.024C230.63 294.753 230.373 294.431 230.187 294.058C230.009 293.675 229.921 293.246 229.921 292.77V291.622C229.921 291.146 230.009 290.721 230.187 290.348C230.373 289.965 230.63 289.643 230.957 289.382C231.283 289.111 231.675 288.906 232.133 288.766C232.599 288.617 233.108 288.542 233.659 288.542C234.209 288.542 234.713 288.617 235.171 288.766C235.628 288.906 236.02 289.111 236.347 289.382C236.683 289.643 236.939 289.965 237.117 290.348C237.303 290.721 237.397 291.146 237.397 291.622V292.77ZM235.997 291.692C235.997 291.095 235.777 290.633 235.339 290.306C234.909 289.97 234.349 289.802 233.659 289.802C232.968 289.802 232.403 289.97 231.965 290.306C231.535 290.633 231.321 291.095 231.321 291.692V292.7C231.321 293.297 231.535 293.764 231.965 294.1C232.403 294.427 232.968 294.59 233.659 294.59C234.349 294.59 234.909 294.427 235.339 294.1C235.777 293.764 235.997 293.297 235.997 292.7V291.692ZM240.113 301.212H238.713V288.556H240.113V301.212ZM238.013 300.12H229.445V298.86H232.959V296.48H234.359V298.86H238.013V300.12ZM252.842 293.722C252.842 294.086 252.758 294.352 252.59 294.52C252.422 294.688 252.156 294.772 251.792 294.772H242.818V288.556H244.218V290.292H251.442V288.556H252.842V293.722ZM253.724 297.152H248.53V301.212H247.13V297.152H241.936V295.892H253.724V297.152ZM251.442 293.512V291.552H244.218V293.512H251.442ZM265.628 295.78H264.228V293.414H262.422V292.126H264.228V291.09H262.422V289.97H261.498L261.33 293.89H262.828V295.15H254.834V293.89H256.318L256.15 289.97H255.044V288.71H262.618V289.802H264.228V288.556H265.628V295.78ZM258.32 301.212C257.47 301.212 256.812 300.993 256.346 300.554C255.879 300.125 255.646 299.513 255.646 298.72C255.646 297.927 255.879 297.315 256.346 296.886C256.812 296.447 257.47 296.228 258.32 296.228H263.206C264.055 296.228 264.713 296.447 265.18 296.886C265.646 297.315 265.88 297.927 265.88 298.72C265.88 299.513 265.646 300.125 265.18 300.554C264.713 300.993 264.055 301.212 263.206 301.212H258.32ZM263.024 299.952C263.518 299.952 263.882 299.835 264.116 299.602C264.358 299.378 264.48 299.084 264.48 298.72C264.48 298.356 264.358 298.062 264.116 297.838C263.882 297.605 263.518 297.488 263.024 297.488H258.502C258.007 297.488 257.638 297.605 257.396 297.838C257.162 298.062 257.046 298.356 257.046 298.72C257.046 299.084 257.162 299.378 257.396 299.602C257.638 299.835 258.007 299.952 258.502 299.952H263.024ZM259.93 293.89L260.098 289.97H257.55L257.718 293.89H259.93ZM272.477 300.204H271.077L272.701 290.292C272.72 290.161 272.711 290.077 272.673 290.04C272.636 289.993 272.552 289.97 272.421 289.97H267.451V288.71H273.723C273.957 288.71 274.12 288.771 274.213 288.892C274.307 289.004 274.335 289.167 274.297 289.382L272.477 300.204ZM277.615 301.212H276.215V288.556H277.615V293.26H279.267V294.548H277.615V301.212ZM287.587 300.204H286.117L284.535 290.474C284.479 290.138 284.334 289.97 284.101 289.97H283.373C283.13 289.97 282.981 290.138 282.925 290.474L281.273 300.204H279.803L281.553 289.97H280.027V288.71H287.573V289.97H285.907L287.587 300.204ZM290.443 301.212H289.043V288.556H290.443V293.26H292.095V294.548H290.443V301.212ZM303.76 296.34H293.568V291.79H302.192V289.816H293.54V288.556H303.592V292C303.592 292.364 303.508 292.63 303.34 292.798C303.172 292.966 302.906 293.05 302.542 293.05H294.968V295.08H303.76V296.34ZM304.474 300.372H292.686V299.112H295.556V297.04H296.956V299.112H300.204V297.04H301.604V299.112H304.474V300.372ZM306.956 300.792C306.956 300.969 306.928 301.081 306.872 301.128C306.825 301.184 306.713 301.212 306.536 301.212H305.836C305.658 301.212 305.542 301.184 305.486 301.128C305.439 301.081 305.416 300.969 305.416 300.792V300.092C305.416 299.915 305.439 299.798 305.486 299.742C305.542 299.695 305.658 299.672 305.836 299.672H306.536C306.713 299.672 306.825 299.695 306.872 299.742C306.928 299.798 306.956 299.915 306.956 300.092V300.792ZM315.225 300.386H313.825V294.912C313.825 294.119 313.475 293.722 312.775 293.722H309.681V300.386H308.281V288.864H309.681V292.49H312.775C313.615 292.49 314.231 292.7 314.623 293.12C315.025 293.54 315.225 294.1 315.225 294.8V300.386ZM325.088 299.826C325.032 300.041 324.948 300.185 324.836 300.26C324.733 300.344 324.574 300.386 324.36 300.386H323.73C323.515 300.386 323.352 300.344 323.24 300.26C323.128 300.185 323.048 300.041 323.002 299.826L321.602 294.226L320.202 299.826C320.155 300.041 320.076 300.185 319.964 300.26C319.852 300.344 319.688 300.386 319.474 300.386H318.844C318.629 300.386 318.466 300.344 318.354 300.26C318.251 300.185 318.172 300.041 318.116 299.826L316.142 292.49H317.612L319.25 299.098L320.706 293.05C320.752 292.835 320.832 292.691 320.944 292.616C321.056 292.532 321.219 292.49 321.434 292.49H321.77C321.984 292.49 322.148 292.532 322.26 292.616C322.372 292.691 322.451 292.835 322.498 293.05L323.954 299.098L325.592 292.49H327.062L325.088 299.826ZM335.05 298.076C335.05 298.776 334.849 299.336 334.448 299.756C334.056 300.176 333.44 300.386 332.6 300.386H329.506V303.536H328.106V292.49H332.6C333.44 292.49 334.056 292.7 334.448 293.12C334.849 293.54 335.05 294.1 335.05 294.8V298.076ZM332.6 299.154C333.3 299.154 333.65 298.757 333.65 297.964V294.912C333.65 294.119 333.3 293.722 332.6 293.722H329.506V299.154H332.6Z" fill="black"/>
<path opacity="0.88" d="M161.311 320.191V320.953H153.322V320.191H161.311ZM160.383 318.678V319.43H154.318V316.393H160.324V317.154H155.236V318.678H160.383ZM157.307 321.637C159.191 321.637 160.324 322.213 160.324 323.229C160.324 324.244 159.191 324.82 157.307 324.811C155.412 324.82 154.27 324.244 154.27 323.229C154.27 322.213 155.412 321.637 157.307 321.637ZM157.307 322.35C155.969 322.359 155.207 322.672 155.207 323.229C155.207 323.785 155.969 324.098 157.307 324.098C158.625 324.098 159.396 323.785 159.396 323.229C159.396 322.672 158.625 322.359 157.307 322.35ZM169.663 320.855V321.607H161.655V320.855H165.2V320.025H162.68V317.799H167.729V317.018H162.661V316.285H168.657V318.482H163.598V319.303H168.833V320.025H166.118V320.855H169.663ZM168.706 322.223V324.762H167.768V322.965H162.554V322.223H168.706ZM172.488 316.373C173.806 316.383 174.773 317.193 174.783 318.336C174.773 319.488 173.806 320.289 172.488 320.289C171.16 320.289 170.183 319.488 170.183 318.336C170.183 317.193 171.16 316.383 172.488 316.373ZM172.488 317.154C171.677 317.145 171.082 317.623 171.091 318.336C171.082 319.059 171.677 319.537 172.488 319.537C173.289 319.537 173.884 319.059 173.884 318.336C173.884 317.623 173.289 317.145 172.488 317.154ZM177.263 316.08V320.533H176.336V316.08H177.263ZM177.263 320.934V323.141H172.439V323.98H177.556V324.723H171.541V322.447H176.345V321.676H171.511V320.934H177.263ZM181.397 318.658C181.397 320.045 182.305 321.588 183.633 322.213L183.106 322.936C182.124 322.462 181.348 321.476 180.957 320.328C180.552 321.583 179.732 322.662 178.731 323.16L178.184 322.428C179.512 321.793 180.479 320.143 180.479 318.658V317.73H178.506V316.959H183.301V317.73H181.397V318.658ZM185.166 316.08V319.547H186.573V320.328H185.166V324.83H184.239V316.08H185.166Z" fill="#888888"/>
<path opacity="0.88" d="M193.625 324V323.219L196.076 320.748C196.848 319.938 197.238 319.488 197.238 318.873C197.238 318.18 196.672 317.73 195.93 317.73C195.148 317.73 194.641 318.229 194.641 318.98H193.625C193.615 317.691 194.602 316.832 195.949 316.832C197.316 316.832 198.254 317.691 198.264 318.844C198.254 319.635 197.883 320.26 196.555 321.568L195.119 323.023V323.082H198.381V324H193.625ZM201.733 324.098C200.093 324.098 199.136 322.779 199.136 320.465C199.136 318.17 200.112 316.832 201.733 316.832C203.354 316.832 204.331 318.17 204.331 320.465C204.331 322.779 203.364 324.098 201.733 324.098ZM201.733 323.17C202.69 323.17 203.257 322.232 203.257 320.465C203.257 318.707 202.68 317.74 201.733 317.74C200.786 317.74 200.21 318.707 200.21 320.465C200.21 322.232 200.776 323.17 201.733 323.17ZM205.144 324V323.219L207.595 320.748C208.367 319.938 208.757 319.488 208.757 318.873C208.757 318.18 208.191 317.73 207.449 317.73C206.668 317.73 206.16 318.229 206.16 318.98H205.144C205.134 317.691 206.121 316.832 207.468 316.832C208.836 316.832 209.773 317.691 209.783 318.844C209.773 319.635 209.402 320.26 208.074 321.568L206.638 323.023V323.082H209.9V324H205.144ZM213.194 324.098C211.856 324.098 210.85 323.277 210.801 322.154H211.846C211.905 322.76 212.481 323.199 213.194 323.199C214.053 323.199 214.668 322.574 214.668 321.734C214.668 320.875 214.034 320.25 213.145 320.24C212.579 320.24 212.149 320.426 211.905 320.865H210.889L211.348 316.93H215.352V317.848H212.237L212.002 319.83H212.071C212.364 319.547 212.862 319.352 213.399 319.352C214.727 319.352 215.713 320.338 215.713 321.705C215.713 323.102 214.668 324.098 213.194 324.098ZM219.691 320.016V320.914H216.556V320.016H219.691ZM223.102 324.098C221.461 324.098 220.504 322.779 220.504 320.465C220.504 318.17 221.48 316.832 223.102 316.832C224.723 316.832 225.699 318.17 225.699 320.465C225.699 322.779 224.732 324.098 223.102 324.098ZM223.102 323.17C224.059 323.17 224.625 322.232 224.625 320.465C224.625 318.707 224.049 317.74 223.102 317.74C222.154 317.74 221.578 318.707 221.578 320.465C221.578 322.232 222.145 323.17 223.102 323.17ZM229.071 324.098C227.763 324.088 226.395 323.316 226.395 320.699C226.395 318.238 227.46 316.832 229.159 316.832C230.458 316.832 231.366 317.643 231.532 318.766H230.468C230.331 318.189 229.872 317.77 229.159 317.77C228.065 317.77 227.43 318.727 227.43 320.318H227.509C227.889 319.723 228.554 319.361 229.325 319.361C230.585 319.361 231.6 320.328 231.6 321.686C231.6 323.053 230.595 324.107 229.071 324.098ZM229.061 323.199C229.921 323.199 230.555 322.535 230.555 321.705C230.555 320.895 229.94 320.24 229.091 320.24C228.221 320.24 227.567 320.924 227.557 321.715C227.567 322.496 228.192 323.199 229.061 323.199ZM235.578 320.016V320.914H232.443V320.016H235.578ZM236.245 324V323.219L238.696 320.748C239.467 319.938 239.858 319.488 239.858 318.873C239.858 318.18 239.291 317.73 238.549 317.73C237.768 317.73 237.26 318.229 237.26 318.98H236.245C236.235 317.691 237.221 316.832 238.569 316.832C239.936 316.832 240.873 317.691 240.883 318.844C240.873 319.635 240.502 320.26 239.174 321.568L237.739 323.023V323.082H241V324H236.245ZM241.892 324V323.219L244.343 320.748C245.114 319.938 245.505 319.488 245.505 318.873C245.505 318.18 244.939 317.73 244.196 317.73C243.415 317.73 242.907 318.229 242.907 318.98H241.892C241.882 317.691 242.868 316.832 244.216 316.832C245.583 316.832 246.521 317.691 246.53 318.844C246.521 319.635 246.15 320.26 244.821 321.568L243.386 323.023V323.082H246.648V324H241.892Z" fill="#353535"/>
<path opacity="0.88" d="M265.568 316.08V324.85H264.641V316.08H265.568ZM259.738 316.812V319.059H262.092V316.812H263.01V322.75H258.811V316.812H259.738ZM259.738 321.988H262.092V319.791H259.738V321.988ZM273.745 316.92V317.779C273.745 318.863 273.745 320.074 273.413 321.861L272.475 321.764C272.817 320.074 272.817 318.834 272.817 317.779V317.672H267.505V316.92H273.745ZM274.643 322.877V323.648H266.665V322.877H269.702V319.791H270.62V322.877H274.643Z" fill="#888888"/>
<path opacity="0.88" d="M282.328 324H281.186L283.725 316.93H284.965L287.514 324H286.371L285.727 322.135H282.973L282.328 324ZM283.285 321.236H285.414L284.369 318.219H284.32L283.285 321.236ZM288.112 324V316.93H290.7C292.204 316.93 292.936 317.74 292.936 318.785C292.936 319.664 292.399 320.113 291.745 320.279V320.348C292.448 320.387 293.21 321.002 293.21 322.096C293.21 323.18 292.468 324 290.817 324H288.112ZM290.72 323.082C291.735 323.082 292.145 322.633 292.145 322.047C292.145 321.373 291.608 320.826 290.759 320.826H289.186V323.082H290.72ZM290.612 319.986C291.325 319.986 291.882 319.547 291.882 318.873C291.882 318.287 291.481 317.848 290.632 317.848H289.186V319.986H290.612ZM298.847 319.234C298.671 318.326 297.92 317.818 297.021 317.818C295.8 317.818 294.892 318.756 294.892 320.465C294.892 322.184 295.81 323.111 297.021 323.111C297.91 323.111 298.662 322.613 298.847 321.715L299.931 321.725C299.707 323.121 298.564 324.098 297.011 324.098C295.166 324.098 293.828 322.721 293.828 320.465C293.828 318.199 295.175 316.832 297.011 316.832C298.505 316.832 299.687 317.711 299.931 319.234H298.847ZM307.437 316.715V317.467H306.597V320.113C306.968 320.084 307.324 320.05 307.671 320.006L307.71 320.709C306.03 320.973 304.068 321.002 302.661 321.002L302.544 320.23L303.609 320.221V317.467H302.788V316.715H307.437ZM309.829 316.08V321.461H308.902V319.938H307.564V319.195H308.902V318.346H307.564V317.604H308.902V316.08H309.829ZM306.9 321.627C308.745 321.627 309.859 322.203 309.859 323.229C309.859 324.225 308.745 324.82 306.9 324.811C305.054 324.82 303.931 324.225 303.941 323.229C303.931 322.203 305.054 321.627 306.9 321.627ZM306.9 322.35C305.611 322.35 304.859 322.662 304.859 323.229C304.859 323.785 305.611 324.098 306.9 324.098C308.179 324.098 308.941 323.785 308.941 323.229C308.941 322.662 308.179 322.35 306.9 322.35ZM304.507 320.211C304.903 320.201 305.303 320.187 305.708 320.162V317.467H304.507V320.211ZM317.693 316.08V319.566H319.051V320.338H317.693V324.82H316.766V316.08H317.693ZM315.408 316.998C315.398 319.527 314.285 321.783 311.404 323.209L310.887 322.486C313.079 321.393 314.271 319.811 314.461 317.77H311.326V316.998H315.408ZM326.495 316.08V324.83H325.557V316.08H326.495ZM323.888 317.018C323.888 319.576 322.794 321.803 319.796 323.238L319.307 322.486C321.637 321.378 322.769 319.801 322.95 317.76H319.727V317.018H323.888ZM332.435 316.744V317.232C332.425 317.818 332.425 318.688 332.211 319.82L331.293 319.732C331.483 318.761 331.512 318.058 331.527 317.506H328.021V316.744H332.435ZM330.199 318.707V320.514C331.136 320.484 332.103 320.416 332.982 320.289L333.041 320.963C331.214 321.285 329.125 321.314 327.582 321.324L327.494 320.572C328.031 320.567 328.641 320.562 329.281 320.543V318.707H330.199ZM334.486 316.08V318.863H335.687V319.645H334.486V322.652H333.539V316.08H334.486ZM334.769 323.893V324.645H328.822V322.057H329.75V323.893H334.769Z" fill="#353535"/>
<g clip-path="url(#clip2_281_968)">
<path d="M159.468 389H153.427C153.191 389 153 388.821 153 388.6V377.4C153 377.179 153.191 377 153.427 377H162.573C162.809 377 163 377.179 163 377.4V385.693C163 385.799 162.954 385.901 162.875 385.976L159.769 388.883C159.689 388.958 159.58 389 159.468 389ZM153.854 388.199H159.29L162.145 385.527V377.801H153.854V388.199Z" fill="#888888"/>
<path d="M162.162 385.693L159.335 388.6V385.693H162.162Z" fill="#888888"/>
<path d="M159.335 389C159.284 389 159.234 388.99 159.185 388.97C159.04 388.908 158.946 388.762 158.946 388.6V385.692C158.946 385.471 159.12 385.292 159.335 385.292H162.162C162.319 385.292 162.46 385.39 162.521 385.539C162.581 385.689 162.548 385.861 162.436 385.975L159.61 388.883C159.535 388.959 159.436 389 159.335 389ZM159.723 386.093V387.635L161.222 386.093H159.723Z" fill="#888888"/>
<path d="M160.42 380.429H155.889C155.674 380.429 155.5 380.249 155.5 380.028C155.5 379.807 155.673 379.628 155.889 379.628H160.42C160.635 379.628 160.809 379.807 160.809 380.028C160.809 380.249 160.635 380.429 160.42 380.429Z" fill="#888888"/>
<path d="M160.266 382.157H155.735C155.52 382.157 155.346 381.977 155.346 381.756C155.346 381.535 155.519 381.356 155.735 381.356H160.266C160.481 381.356 160.655 381.535 160.655 381.756C160.655 381.977 160.481 382.157 160.266 382.157Z" fill="#888888"/>
<path d="M158.18 383.98H155.735C155.52 383.98 155.346 383.802 155.346 383.58C155.346 383.359 155.519 383.181 155.735 383.181H158.181C158.396 383.181 158.57 383.359 158.57 383.58C158.569 383.802 158.396 383.98 158.18 383.98Z" fill="#888888"/>
</g>
<path d="M184.274 388.386H178.66C177.447 388.386 176.84 387.779 176.84 386.566V385.208C176.84 384.947 176.859 384.723 176.896 384.536C176.933 384.349 176.999 384.191 177.092 384.06C177.185 383.929 177.307 383.813 177.456 383.71C177.615 383.607 177.811 383.5 178.044 383.388L182.314 381.372C182.473 381.297 182.58 381.209 182.636 381.106C182.701 381.003 182.734 380.859 182.734 380.672V378.824C182.734 378.357 182.501 378.124 182.034 378.124H177.05V376.864H182.314C183.527 376.864 184.134 377.471 184.134 378.684V380.7C184.134 380.971 184.115 381.199 184.078 381.386C184.041 381.563 183.975 381.717 183.882 381.848C183.789 381.979 183.663 382.095 183.504 382.198C183.355 382.301 183.163 382.408 182.93 382.52L178.66 384.564C178.501 384.639 178.389 384.727 178.324 384.83C178.268 384.933 178.24 385.077 178.24 385.264V386.426C178.24 386.893 178.473 387.126 178.94 387.126H184.274V388.386ZM193.561 385.362C193.561 386.417 193.309 387.191 192.805 387.686C192.31 388.19 191.536 388.442 190.481 388.442H188.857C187.802 388.442 187.023 388.19 186.519 387.686C186.024 387.191 185.777 386.417 185.777 385.362V379.888C185.777 378.833 186.024 378.059 186.519 377.564C187.023 377.06 187.802 376.808 188.857 376.808H190.481C191.536 376.808 192.31 377.06 192.805 377.564C193.309 378.059 193.561 378.833 193.561 379.888V385.362ZM190.621 387.21C191.078 387.21 191.447 387.07 191.727 386.79C192.016 386.501 192.161 386.127 192.161 385.67V379.58C192.161 379.123 192.016 378.754 191.727 378.474C191.447 378.185 191.078 378.04 190.621 378.04H188.717C188.26 378.04 187.886 378.185 187.597 378.474C187.317 378.754 187.177 379.123 187.177 379.58V385.67C187.177 386.127 187.317 386.501 187.597 386.79C187.886 387.07 188.26 387.21 188.717 387.21H190.621ZM202.512 388.386H196.898C195.685 388.386 195.078 387.779 195.078 386.566V385.208C195.078 384.947 195.097 384.723 195.134 384.536C195.172 384.349 195.237 384.191 195.33 384.06C195.424 383.929 195.545 383.813 195.694 383.71C195.853 383.607 196.049 383.5 196.282 383.388L200.552 381.372C200.711 381.297 200.818 381.209 200.874 381.106C200.94 381.003 200.972 380.859 200.972 380.672V378.824C200.972 378.357 200.739 378.124 200.272 378.124H195.288V376.864H200.552C201.766 376.864 202.372 377.471 202.372 378.684V380.7C202.372 380.971 202.354 381.199 202.316 381.386C202.279 381.563 202.214 381.717 202.12 381.848C202.027 381.979 201.901 382.095 201.742 382.198C201.593 382.301 201.402 382.408 201.168 382.52L196.898 384.564C196.74 384.639 196.628 384.727 196.562 384.83C196.506 384.933 196.478 385.077 196.478 385.264V386.426C196.478 386.893 196.712 387.126 197.178 387.126H202.512V388.386ZM211.001 388.386H209.601V386.02H203.987C203.707 386.02 203.567 385.88 203.567 385.6V384.984C203.567 384.797 203.577 384.653 203.595 384.55C203.623 384.438 203.689 384.317 203.791 384.186L209.027 376.864H211.001V384.76H212.261V386.02H211.001V388.386ZM209.601 384.76V378.306L204.967 384.76H209.601ZM223.929 385.978H222.529V381.302H218.567V380.014H222.529V378.88H218.567V377.592H222.529V376.556H223.929V385.978ZM221.129 383.696H213.485V376.64H214.885V382.436H221.129V383.696ZM224.013 389.212H214.227V384.76H215.627V387.952H224.013V389.212ZM237.397 380.77C237.397 381.246 237.303 381.675 237.117 382.058C236.939 382.431 236.683 382.753 236.347 383.024C236.02 383.285 235.628 383.491 235.171 383.64C234.713 383.78 234.209 383.85 233.659 383.85C233.108 383.85 232.599 383.78 232.133 383.64C231.675 383.491 231.283 383.285 230.957 383.024C230.63 382.753 230.373 382.431 230.187 382.058C230.009 381.675 229.921 381.246 229.921 380.77V379.622C229.921 379.146 230.009 378.721 230.187 378.348C230.373 377.965 230.63 377.643 230.957 377.382C231.283 377.111 231.675 376.906 232.133 376.766C232.599 376.617 233.108 376.542 233.659 376.542C234.209 376.542 234.713 376.617 235.171 376.766C235.628 376.906 236.02 377.111 236.347 377.382C236.683 377.643 236.939 377.965 237.117 378.348C237.303 378.721 237.397 379.146 237.397 379.622V380.77ZM235.997 379.692C235.997 379.095 235.777 378.633 235.339 378.306C234.909 377.97 234.349 377.802 233.659 377.802C232.968 377.802 232.403 377.97 231.965 378.306C231.535 378.633 231.321 379.095 231.321 379.692V380.7C231.321 381.297 231.535 381.764 231.965 382.1C232.403 382.427 232.968 382.59 233.659 382.59C234.349 382.59 234.909 382.427 235.339 382.1C235.777 381.764 235.997 381.297 235.997 380.7V379.692ZM240.113 389.212H238.713V376.556H240.113V389.212ZM238.013 388.12H229.445V386.86H232.959V384.48H234.359V386.86H238.013V388.12ZM252.842 381.722C252.842 382.086 252.758 382.352 252.59 382.52C252.422 382.688 252.156 382.772 251.792 382.772H242.818V376.556H244.218V378.292H251.442V376.556H252.842V381.722ZM253.724 385.152H248.53V389.212H247.13V385.152H241.936V383.892H253.724V385.152ZM251.442 381.512V379.552H244.218V381.512H251.442ZM265.628 383.78H264.228V381.414H262.422V380.126H264.228V379.09H262.422V377.97H261.498L261.33 381.89H262.828V383.15H254.834V381.89H256.318L256.15 377.97H255.044V376.71H262.618V377.802H264.228V376.556H265.628V383.78ZM258.32 389.212C257.47 389.212 256.812 388.993 256.346 388.554C255.879 388.125 255.646 387.513 255.646 386.72C255.646 385.927 255.879 385.315 256.346 384.886C256.812 384.447 257.47 384.228 258.32 384.228H263.206C264.055 384.228 264.713 384.447 265.18 384.886C265.646 385.315 265.88 385.927 265.88 386.72C265.88 387.513 265.646 388.125 265.18 388.554C264.713 388.993 264.055 389.212 263.206 389.212H258.32ZM263.024 387.952C263.518 387.952 263.882 387.835 264.116 387.602C264.358 387.378 264.48 387.084 264.48 386.72C264.48 386.356 264.358 386.062 264.116 385.838C263.882 385.605 263.518 385.488 263.024 385.488H258.502C258.007 385.488 257.638 385.605 257.396 385.838C257.162 386.062 257.046 386.356 257.046 386.72C257.046 387.084 257.162 387.378 257.396 387.602C257.638 387.835 258.007 387.952 258.502 387.952H263.024ZM259.93 381.89L260.098 377.97H257.55L257.718 381.89H259.93ZM272.477 388.204H271.077L272.701 378.292C272.72 378.161 272.711 378.077 272.673 378.04C272.636 377.993 272.552 377.97 272.421 377.97H267.451V376.71H273.723C273.957 376.71 274.12 376.771 274.213 376.892C274.307 377.004 274.335 377.167 274.297 377.382L272.477 388.204ZM277.615 389.212H276.215V376.556H277.615V381.26H279.267V382.548H277.615V389.212ZM287.587 388.204H286.117L284.535 378.474C284.479 378.138 284.334 377.97 284.101 377.97H283.373C283.13 377.97 282.981 378.138 282.925 378.474L281.273 388.204H279.803L281.553 377.97H280.027V376.71H287.573V377.97H285.907L287.587 388.204ZM290.443 389.212H289.043V376.556H290.443V381.26H292.095V382.548H290.443V389.212ZM303.76 384.34H293.568V379.79H302.192V377.816H293.54V376.556H303.592V380C303.592 380.364 303.508 380.63 303.34 380.798C303.172 380.966 302.906 381.05 302.542 381.05H294.968V383.08H303.76V384.34ZM304.474 388.372H292.686V387.112H295.556V385.04H296.956V387.112H300.204V385.04H301.604V387.112H304.474V388.372ZM306.956 388.792C306.956 388.969 306.928 389.081 306.872 389.128C306.825 389.184 306.713 389.212 306.536 389.212H305.836C305.658 389.212 305.542 389.184 305.486 389.128C305.439 389.081 305.416 388.969 305.416 388.792V388.092C305.416 387.915 305.439 387.798 305.486 387.742C305.542 387.695 305.658 387.672 305.836 387.672H306.536C306.713 387.672 306.825 387.695 306.872 387.742C306.928 387.798 306.956 387.915 306.956 388.092V388.792ZM315.225 388.386H313.825V382.912C313.825 382.119 313.475 381.722 312.775 381.722H309.681V388.386H308.281V376.864H309.681V380.49H312.775C313.615 380.49 314.231 380.7 314.623 381.12C315.025 381.54 315.225 382.1 315.225 382.8V388.386ZM325.088 387.826C325.032 388.041 324.948 388.185 324.836 388.26C324.733 388.344 324.574 388.386 324.36 388.386H323.73C323.515 388.386 323.352 388.344 323.24 388.26C323.128 388.185 323.048 388.041 323.002 387.826L321.602 382.226L320.202 387.826C320.155 388.041 320.076 388.185 319.964 388.26C319.852 388.344 319.688 388.386 319.474 388.386H318.844C318.629 388.386 318.466 388.344 318.354 388.26C318.251 388.185 318.172 388.041 318.116 387.826L316.142 380.49H317.612L319.25 387.098L320.706 381.05C320.752 380.835 320.832 380.691 320.944 380.616C321.056 380.532 321.219 380.49 321.434 380.49H321.77C321.984 380.49 322.148 380.532 322.26 380.616C322.372 380.691 322.451 380.835 322.498 381.05L323.954 387.098L325.592 380.49H327.062L325.088 387.826ZM335.05 386.076C335.05 386.776 334.849 387.336 334.448 387.756C334.056 388.176 333.44 388.386 332.6 388.386H329.506V391.536H328.106V380.49H332.6C333.44 380.49 334.056 380.7 334.448 381.12C334.849 381.54 335.05 382.1 335.05 382.8V386.076ZM332.6 387.154C333.3 387.154 333.65 386.757 333.65 385.964V382.912C333.65 382.119 333.3 381.722 332.6 381.722H329.506V387.154H332.6Z" fill="black"/>
<path opacity="0.88" d="M161.311 408.191V408.953H153.322V408.191H161.311ZM160.383 406.678V407.43H154.318V404.393H160.324V405.154H155.236V406.678H160.383ZM157.307 409.637C159.191 409.637 160.324 410.213 160.324 411.229C160.324 412.244 159.191 412.82 157.307 412.811C155.412 412.82 154.27 412.244 154.27 411.229C154.27 410.213 155.412 409.637 157.307 409.637ZM157.307 410.35C155.969 410.359 155.207 410.672 155.207 411.229C155.207 411.785 155.969 412.098 157.307 412.098C158.625 412.098 159.396 411.785 159.396 411.229C159.396 410.672 158.625 410.359 157.307 410.35ZM169.663 408.855V409.607H161.655V408.855H165.2V408.025H162.68V405.799H167.729V405.018H162.661V404.285H168.657V406.482H163.598V407.303H168.833V408.025H166.118V408.855H169.663ZM168.706 410.223V412.762H167.768V410.965H162.554V410.223H168.706ZM172.488 404.373C173.806 404.383 174.773 405.193 174.783 406.336C174.773 407.488 173.806 408.289 172.488 408.289C171.16 408.289 170.183 407.488 170.183 406.336C170.183 405.193 171.16 404.383 172.488 404.373ZM172.488 405.154C171.677 405.145 171.082 405.623 171.091 406.336C171.082 407.059 171.677 407.537 172.488 407.537C173.289 407.537 173.884 407.059 173.884 406.336C173.884 405.623 173.289 405.145 172.488 405.154ZM177.263 404.08V408.533H176.336V404.08H177.263ZM177.263 408.934V411.141H172.439V411.98H177.556V412.723H171.541V410.447H176.345V409.676H171.511V408.934H177.263ZM181.397 406.658C181.397 408.045 182.305 409.588 183.633 410.213L183.106 410.936C182.124 410.462 181.348 409.476 180.957 408.328C180.552 409.583 179.732 410.662 178.731 411.16L178.184 410.428C179.512 409.793 180.479 408.143 180.479 406.658V405.73H178.506V404.959H183.301V405.73H181.397V406.658ZM185.166 404.08V407.547H186.573V408.328H185.166V412.83H184.239V404.08H185.166Z" fill="#888888"/>
<path opacity="0.88" d="M193.625 412V411.219L196.076 408.748C196.848 407.938 197.238 407.488 197.238 406.873C197.238 406.18 196.672 405.73 195.93 405.73C195.148 405.73 194.641 406.229 194.641 406.98H193.625C193.615 405.691 194.602 404.832 195.949 404.832C197.316 404.832 198.254 405.691 198.264 406.844C198.254 407.635 197.883 408.26 196.555 409.568L195.119 411.023V411.082H198.381V412H193.625ZM201.733 412.098C200.093 412.098 199.136 410.779 199.136 408.465C199.136 406.17 200.112 404.832 201.733 404.832C203.354 404.832 204.331 406.17 204.331 408.465C204.331 410.779 203.364 412.098 201.733 412.098ZM201.733 411.17C202.69 411.17 203.257 410.232 203.257 408.465C203.257 406.707 202.68 405.74 201.733 405.74C200.786 405.74 200.21 406.707 200.21 408.465C200.21 410.232 200.776 411.17 201.733 411.17ZM205.144 412V411.219L207.595 408.748C208.367 407.938 208.757 407.488 208.757 406.873C208.757 406.18 208.191 405.73 207.449 405.73C206.668 405.73 206.16 406.229 206.16 406.98H205.144C205.134 405.691 206.121 404.832 207.468 404.832C208.836 404.832 209.773 405.691 209.783 406.844C209.773 407.635 209.402 408.26 208.074 409.568L206.638 411.023V411.082H209.9V412H205.144ZM210.479 410.623V409.754L213.604 404.93H214.932V409.715H215.899V410.623H214.932V412H213.916V410.623H210.479ZM211.612 409.715H213.916V406.209H213.838L211.612 409.656V409.715ZM219.818 408.016V408.914H216.683V408.016H219.818ZM223.229 412.098C221.588 412.098 220.631 410.779 220.631 408.465C220.631 406.17 221.607 404.832 223.229 404.832C224.85 404.832 225.826 406.17 225.826 408.465C225.826 410.779 224.859 412.098 223.229 412.098ZM223.229 411.17C224.186 411.17 224.752 410.232 224.752 408.465C224.752 406.707 224.176 405.74 223.229 405.74C222.281 405.74 221.705 406.707 221.705 408.465C221.705 410.232 222.271 411.17 223.229 411.17ZM229.042 412.098C227.704 412.098 226.698 411.277 226.649 410.154H227.694C227.753 410.76 228.329 411.199 229.042 411.199C229.901 411.199 230.516 410.574 230.516 409.734C230.516 408.875 229.882 408.25 228.993 408.24C228.427 408.24 227.997 408.426 227.753 408.865H226.737L227.196 404.93H231.2V405.848H228.085L227.85 407.83H227.919C228.212 407.547 228.71 407.352 229.247 407.352C230.575 407.352 231.561 408.338 231.561 409.705C231.561 411.102 230.516 412.098 229.042 412.098ZM235.539 408.016V408.914H232.404V408.016H235.539ZM239.174 404.93V412H238.09V406.004H238.051L236.362 407.107V406.082L238.12 404.93H239.174ZM240.915 412L244.07 405.906V405.848H240.427V404.93H245.183V405.887L242.038 412H240.915Z" fill="#353535"/>
<path opacity="0.88" d="M263.568 404.08V412.85H262.641V404.08H263.568ZM257.738 404.812V407.059H260.092V404.812H261.01V410.75H256.811V404.812H257.738ZM257.738 409.988H260.092V407.791H257.738V409.988ZM271.745 404.92V405.779C271.745 406.863 271.745 408.074 271.413 409.861L270.475 409.764C270.817 408.074 270.817 406.834 270.817 405.779V405.672H265.505V404.92H271.745ZM272.643 410.877V411.648H264.665V410.877H267.702V407.791H268.62V410.877H272.643Z" fill="#888888"/>
<path opacity="0.88" d="M280.328 412H279.186L281.725 404.93H282.965L285.514 412H284.371L283.727 410.135H280.973L280.328 412ZM281.285 409.236H283.414L282.369 406.219H282.32L281.285 409.236ZM286.112 412V404.93H288.7C290.204 404.93 290.936 405.74 290.936 406.785C290.936 407.664 290.399 408.113 289.745 408.279V408.348C290.448 408.387 291.21 409.002 291.21 410.096C291.21 411.18 290.468 412 288.817 412H286.112ZM288.72 411.082C289.735 411.082 290.145 410.633 290.145 410.047C290.145 409.373 289.608 408.826 288.759 408.826H287.186V411.082H288.72ZM288.612 407.986C289.325 407.986 289.882 407.547 289.882 406.873C289.882 406.287 289.481 405.848 288.632 405.848H287.186V407.986H288.612ZM296.847 407.234C296.671 406.326 295.92 405.818 295.021 405.818C293.8 405.818 292.892 406.756 292.892 408.465C292.892 410.184 293.81 411.111 295.021 411.111C295.91 411.111 296.662 410.613 296.847 409.715L297.931 409.725C297.707 411.121 296.564 412.098 295.011 412.098C293.166 412.098 291.828 410.721 291.828 408.465C291.828 406.199 293.175 404.832 295.011 404.832C296.505 404.832 297.687 405.711 297.931 407.234H296.847ZM305.437 404.715V405.467H304.597V408.113C304.968 408.084 305.324 408.05 305.671 408.006L305.71 408.709C304.03 408.973 302.068 409.002 300.661 409.002L300.544 408.23L301.609 408.221V405.467H300.788V404.715H305.437ZM307.829 404.08V409.461H306.902V407.938H305.564V407.195H306.902V406.346H305.564V405.604H306.902V404.08H307.829ZM304.9 409.627C306.745 409.627 307.859 410.203 307.859 411.229C307.859 412.225 306.745 412.82 304.9 412.811C303.054 412.82 301.931 412.225 301.941 411.229C301.931 410.203 303.054 409.627 304.9 409.627ZM304.9 410.35C303.611 410.35 302.859 410.662 302.859 411.229C302.859 411.785 303.611 412.098 304.9 412.098C306.179 412.098 306.941 411.785 306.941 411.229C306.941 410.662 306.179 410.35 304.9 410.35ZM302.507 408.211C302.903 408.201 303.303 408.187 303.708 408.162V405.467H302.507V408.211ZM315.693 404.08V407.566H317.051V408.338H315.693V412.82H314.766V404.08H315.693ZM313.408 404.998C313.398 407.527 312.285 409.783 309.404 411.209L308.887 410.486C311.079 409.393 312.271 407.811 312.461 405.77H309.326V404.998H313.408ZM324.495 404.08V412.83H323.557V404.08H324.495ZM321.888 405.018C321.888 407.576 320.794 409.803 317.796 411.238L317.307 410.486C319.637 409.378 320.769 407.801 320.95 405.76H317.727V405.018H321.888ZM330.435 404.744V405.232C330.425 405.818 330.425 406.688 330.211 407.82L329.293 407.732C329.483 406.761 329.512 406.058 329.527 405.506H326.021V404.744H330.435ZM328.199 406.707V408.514C329.136 408.484 330.103 408.416 330.982 408.289L331.041 408.963C329.214 409.285 327.125 409.314 325.582 409.324L325.494 408.572C326.031 408.567 326.641 408.562 327.281 408.543V406.707H328.199ZM332.486 404.08V406.863H333.687V407.645H332.486V410.652H331.539V404.08H332.486ZM332.769 411.893V412.645H326.822V410.057H327.75V411.893H332.769Z" fill="#353535"/>
<g clip-path="url(#clip3_281_968)">
<path d="M159.468 474H153.427C153.191 474 153 473.821 153 473.6V462.4C153 462.179 153.191 462 153.427 462H162.573C162.809 462 163 462.179 163 462.4V470.693C163 470.799 162.954 470.901 162.875 470.976L159.769 473.883C159.689 473.958 159.58 474 159.468 474ZM153.854 473.199H159.29L162.145 470.527V462.801H153.854V473.199Z" fill="#888888"/>
<path d="M162.162 470.693L159.335 473.6V470.693H162.162Z" fill="#888888"/>
<path d="M159.335 474C159.284 474 159.234 473.99 159.185 473.97C159.04 473.908 158.946 473.762 158.946 473.6V470.692C158.946 470.471 159.12 470.292 159.335 470.292H162.162C162.319 470.292 162.46 470.39 162.521 470.539C162.581 470.689 162.548 470.861 162.436 470.975L159.61 473.883C159.535 473.959 159.436 474 159.335 474ZM159.723 471.093V472.635L161.222 471.093H159.723Z" fill="#888888"/>
<path d="M160.42 465.429H155.889C155.674 465.429 155.5 465.249 155.5 465.028C155.5 464.807 155.673 464.628 155.889 464.628H160.42C160.635 464.628 160.809 464.807 160.809 465.028C160.809 465.249 160.635 465.429 160.42 465.429Z" fill="#888888"/>
<path d="M160.266 467.157H155.735C155.52 467.157 155.346 466.977 155.346 466.756C155.346 466.535 155.519 466.356 155.735 466.356H160.266C160.481 466.356 160.655 466.535 160.655 466.756C160.655 466.977 160.481 467.157 160.266 467.157Z" fill="#888888"/>
<path d="M158.18 468.98H155.735C155.52 468.98 155.346 468.802 155.346 468.58C155.346 468.359 155.519 468.181 155.735 468.181H158.181C158.396 468.181 158.57 468.359 158.57 468.58C158.569 468.802 158.396 468.98 158.18 468.98Z" fill="#888888"/>
</g>
<path d="M184.274 473.386H178.66C177.447 473.386 176.84 472.779 176.84 471.566V470.208C176.84 469.947 176.859 469.723 176.896 469.536C176.933 469.349 176.999 469.191 177.092 469.06C177.185 468.929 177.307 468.813 177.456 468.71C177.615 468.607 177.811 468.5 178.044 468.388L182.314 466.372C182.473 466.297 182.58 466.209 182.636 466.106C182.701 466.003 182.734 465.859 182.734 465.672V463.824C182.734 463.357 182.501 463.124 182.034 463.124H177.05V461.864H182.314C183.527 461.864 184.134 462.471 184.134 463.684V465.7C184.134 465.971 184.115 466.199 184.078 466.386C184.041 466.563 183.975 466.717 183.882 466.848C183.789 466.979 183.663 467.095 183.504 467.198C183.355 467.301 183.163 467.408 182.93 467.52L178.66 469.564C178.501 469.639 178.389 469.727 178.324 469.83C178.268 469.933 178.24 470.077 178.24 470.264V471.426C178.24 471.893 178.473 472.126 178.94 472.126H184.274V473.386ZM193.561 470.362C193.561 471.417 193.309 472.191 192.805 472.686C192.31 473.19 191.536 473.442 190.481 473.442H188.857C187.802 473.442 187.023 473.19 186.519 472.686C186.024 472.191 185.777 471.417 185.777 470.362V464.888C185.777 463.833 186.024 463.059 186.519 462.564C187.023 462.06 187.802 461.808 188.857 461.808H190.481C191.536 461.808 192.31 462.06 192.805 462.564C193.309 463.059 193.561 463.833 193.561 464.888V470.362ZM190.621 472.21C191.078 472.21 191.447 472.07 191.727 471.79C192.016 471.501 192.161 471.127 192.161 470.67V464.58C192.161 464.123 192.016 463.754 191.727 463.474C191.447 463.185 191.078 463.04 190.621 463.04H188.717C188.26 463.04 187.886 463.185 187.597 463.474C187.317 463.754 187.177 464.123 187.177 464.58V470.67C187.177 471.127 187.317 471.501 187.597 471.79C187.886 472.07 188.26 472.21 188.717 472.21H190.621ZM202.512 473.386H196.898C195.685 473.386 195.078 472.779 195.078 471.566V470.208C195.078 469.947 195.097 469.723 195.134 469.536C195.172 469.349 195.237 469.191 195.33 469.06C195.424 468.929 195.545 468.813 195.694 468.71C195.853 468.607 196.049 468.5 196.282 468.388L200.552 466.372C200.711 466.297 200.818 466.209 200.874 466.106C200.94 466.003 200.972 465.859 200.972 465.672V463.824C200.972 463.357 200.739 463.124 200.272 463.124H195.288V461.864H200.552C201.766 461.864 202.372 462.471 202.372 463.684V465.7C202.372 465.971 202.354 466.199 202.316 466.386C202.279 466.563 202.214 466.717 202.12 466.848C202.027 466.979 201.901 467.095 201.742 467.198C201.593 467.301 201.402 467.408 201.168 467.52L196.898 469.564C196.74 469.639 196.628 469.727 196.562 469.83C196.506 469.933 196.478 470.077 196.478 470.264V471.426C196.478 471.893 196.712 472.126 197.178 472.126H202.512V473.386ZM211.547 470.306C211.547 471.426 211.291 472.219 210.777 472.686C210.264 473.153 209.447 473.386 208.327 473.386H204.281V472.126H208.467C208.999 472.126 209.41 472.005 209.699 471.762C209.998 471.51 210.147 471.118 210.147 470.586V469.508C210.147 468.976 210.031 468.589 209.797 468.346C209.564 468.103 209.219 467.982 208.761 467.982H204.841V466.778H208.705C209.125 466.778 209.438 466.675 209.643 466.47C209.858 466.265 209.965 465.994 209.965 465.658V464.524C209.965 463.591 209.499 463.124 208.565 463.124H204.281V461.864H208.425C209.471 461.864 210.222 462.093 210.679 462.55C211.137 463.007 211.365 463.759 211.365 464.804V465.574C211.365 466.069 211.267 466.47 211.071 466.778C210.875 467.086 210.581 467.291 210.189 467.394C210.665 467.506 211.011 467.73 211.225 468.066C211.44 468.393 211.547 468.822 211.547 469.354V470.306ZM223.929 470.978H222.529V466.302H218.567V465.014H222.529V463.88H218.567V462.592H222.529V461.556H223.929V470.978ZM221.129 468.696H213.485V461.64H214.885V467.436H221.129V468.696ZM224.013 474.212H214.227V469.76H215.627V472.952H224.013V474.212ZM237.397 465.77C237.397 466.246 237.303 466.675 237.117 467.058C236.939 467.431 236.683 467.753 236.347 468.024C236.02 468.285 235.628 468.491 235.171 468.64C234.713 468.78 234.209 468.85 233.659 468.85C233.108 468.85 232.599 468.78 232.133 468.64C231.675 468.491 231.283 468.285 230.957 468.024C230.63 467.753 230.373 467.431 230.187 467.058C230.009 466.675 229.921 466.246 229.921 465.77V464.622C229.921 464.146 230.009 463.721 230.187 463.348C230.373 462.965 230.63 462.643 230.957 462.382C231.283 462.111 231.675 461.906 232.133 461.766C232.599 461.617 233.108 461.542 233.659 461.542C234.209 461.542 234.713 461.617 235.171 461.766C235.628 461.906 236.02 462.111 236.347 462.382C236.683 462.643 236.939 462.965 237.117 463.348C237.303 463.721 237.397 464.146 237.397 464.622V465.77ZM235.997 464.692C235.997 464.095 235.777 463.633 235.339 463.306C234.909 462.97 234.349 462.802 233.659 462.802C232.968 462.802 232.403 462.97 231.965 463.306C231.535 463.633 231.321 464.095 231.321 464.692V465.7C231.321 466.297 231.535 466.764 231.965 467.1C232.403 467.427 232.968 467.59 233.659 467.59C234.349 467.59 234.909 467.427 235.339 467.1C235.777 466.764 235.997 466.297 235.997 465.7V464.692ZM240.113 474.212H238.713V461.556H240.113V474.212ZM238.013 473.12H229.445V471.86H232.959V469.48H234.359V471.86H238.013V473.12ZM252.842 466.722C252.842 467.086 252.758 467.352 252.59 467.52C252.422 467.688 252.156 467.772 251.792 467.772H242.818V461.556H244.218V463.292H251.442V461.556H252.842V466.722ZM253.724 470.152H248.53V474.212H247.13V470.152H241.936V468.892H253.724V470.152ZM251.442 466.512V464.552H244.218V466.512H251.442ZM265.628 468.78H264.228V466.414H262.422V465.126H264.228V464.09H262.422V462.97H261.498L261.33 466.89H262.828V468.15H254.834V466.89H256.318L256.15 462.97H255.044V461.71H262.618V462.802H264.228V461.556H265.628V468.78ZM258.32 474.212C257.47 474.212 256.812 473.993 256.346 473.554C255.879 473.125 255.646 472.513 255.646 471.72C255.646 470.927 255.879 470.315 256.346 469.886C256.812 469.447 257.47 469.228 258.32 469.228H263.206C264.055 469.228 264.713 469.447 265.18 469.886C265.646 470.315 265.88 470.927 265.88 471.72C265.88 472.513 265.646 473.125 265.18 473.554C264.713 473.993 264.055 474.212 263.206 474.212H258.32ZM263.024 472.952C263.518 472.952 263.882 472.835 264.116 472.602C264.358 472.378 264.48 472.084 264.48 471.72C264.48 471.356 264.358 471.062 264.116 470.838C263.882 470.605 263.518 470.488 263.024 470.488H258.502C258.007 470.488 257.638 470.605 257.396 470.838C257.162 471.062 257.046 471.356 257.046 471.72C257.046 472.084 257.162 472.378 257.396 472.602C257.638 472.835 258.007 472.952 258.502 472.952H263.024ZM259.93 466.89L260.098 462.97H257.55L257.718 466.89H259.93ZM272.477 473.204H271.077L272.701 463.292C272.72 463.161 272.711 463.077 272.673 463.04C272.636 462.993 272.552 462.97 272.421 462.97H267.451V461.71H273.723C273.957 461.71 274.12 461.771 274.213 461.892C274.307 462.004 274.335 462.167 274.297 462.382L272.477 473.204ZM277.615 474.212H276.215V461.556H277.615V466.26H279.267V467.548H277.615V474.212ZM287.587 473.204H286.117L284.535 463.474C284.479 463.138 284.334 462.97 284.101 462.97H283.373C283.13 462.97 282.981 463.138 282.925 463.474L281.273 473.204H279.803L281.553 462.97H280.027V461.71H287.573V462.97H285.907L287.587 473.204ZM290.443 474.212H289.043V461.556H290.443V466.26H292.095V467.548H290.443V474.212ZM303.76 469.34H293.568V464.79H302.192V462.816H293.54V461.556H303.592V465C303.592 465.364 303.508 465.63 303.34 465.798C303.172 465.966 302.906 466.05 302.542 466.05H294.968V468.08H303.76V469.34ZM304.474 473.372H292.686V472.112H295.556V470.04H296.956V472.112H300.204V470.04H301.604V472.112H304.474V473.372ZM306.956 473.792C306.956 473.969 306.928 474.081 306.872 474.128C306.825 474.184 306.713 474.212 306.536 474.212H305.836C305.658 474.212 305.542 474.184 305.486 474.128C305.439 474.081 305.416 473.969 305.416 473.792V473.092C305.416 472.915 305.439 472.798 305.486 472.742C305.542 472.695 305.658 472.672 305.836 472.672H306.536C306.713 472.672 306.825 472.695 306.872 472.742C306.928 472.798 306.956 472.915 306.956 473.092V473.792ZM315.225 473.386H313.825V467.912C313.825 467.119 313.475 466.722 312.775 466.722H309.681V473.386H308.281V461.864H309.681V465.49H312.775C313.615 465.49 314.231 465.7 314.623 466.12C315.025 466.54 315.225 467.1 315.225 467.8V473.386ZM325.088 472.826C325.032 473.041 324.948 473.185 324.836 473.26C324.733 473.344 324.574 473.386 324.36 473.386H323.73C323.515 473.386 323.352 473.344 323.24 473.26C323.128 473.185 323.048 473.041 323.002 472.826L321.602 467.226L320.202 472.826C320.155 473.041 320.076 473.185 319.964 473.26C319.852 473.344 319.688 473.386 319.474 473.386H318.844C318.629 473.386 318.466 473.344 318.354 473.26C318.251 473.185 318.172 473.041 318.116 472.826L316.142 465.49H317.612L319.25 472.098L320.706 466.05C320.752 465.835 320.832 465.691 320.944 465.616C321.056 465.532 321.219 465.49 321.434 465.49H321.77C321.984 465.49 322.148 465.532 322.26 465.616C322.372 465.691 322.451 465.835 322.498 466.05L323.954 472.098L325.592 465.49H327.062L325.088 472.826ZM335.05 471.076C335.05 471.776 334.849 472.336 334.448 472.756C334.056 473.176 333.44 473.386 332.6 473.386H329.506V476.536H328.106V465.49H332.6C333.44 465.49 334.056 465.7 334.448 466.12C334.849 466.54 335.05 467.1 335.05 467.8V471.076ZM332.6 472.154C333.3 472.154 333.65 471.757 333.65 470.964V467.912C333.65 467.119 333.3 466.722 332.6 466.722H329.506V472.154H332.6Z" fill="black"/>
<path opacity="0.88" d="M161.311 493.191V493.953H153.322V493.191H161.311ZM160.383 491.678V492.43H154.318V489.393H160.324V490.154H155.236V491.678H160.383ZM157.307 494.637C159.191 494.637 160.324 495.213 160.324 496.229C160.324 497.244 159.191 497.82 157.307 497.811C155.412 497.82 154.27 497.244 154.27 496.229C154.27 495.213 155.412 494.637 157.307 494.637ZM157.307 495.35C155.969 495.359 155.207 495.672 155.207 496.229C155.207 496.785 155.969 497.098 157.307 497.098C158.625 497.098 159.396 496.785 159.396 496.229C159.396 495.672 158.625 495.359 157.307 495.35ZM169.663 493.855V494.607H161.655V493.855H165.2V493.025H162.68V490.799H167.729V490.018H162.661V489.285H168.657V491.482H163.598V492.303H168.833V493.025H166.118V493.855H169.663ZM168.706 495.223V497.762H167.768V495.965H162.554V495.223H168.706ZM172.488 489.373C173.806 489.383 174.773 490.193 174.783 491.336C174.773 492.488 173.806 493.289 172.488 493.289C171.16 493.289 170.183 492.488 170.183 491.336C170.183 490.193 171.16 489.383 172.488 489.373ZM172.488 490.154C171.677 490.145 171.082 490.623 171.091 491.336C171.082 492.059 171.677 492.537 172.488 492.537C173.289 492.537 173.884 492.059 173.884 491.336C173.884 490.623 173.289 490.145 172.488 490.154ZM177.263 489.08V493.533H176.336V489.08H177.263ZM177.263 493.934V496.141H172.439V496.98H177.556V497.723H171.541V495.447H176.345V494.676H171.511V493.934H177.263ZM181.397 491.658C181.397 493.045 182.305 494.588 183.633 495.213L183.106 495.936C182.124 495.462 181.348 494.476 180.957 493.328C180.552 494.583 179.732 495.662 178.731 496.16L178.184 495.428C179.512 494.793 180.479 493.143 180.479 491.658V490.73H178.506V489.959H183.301V490.73H181.397V491.658ZM185.166 489.08V492.547H186.573V493.328H185.166V497.83H184.239V489.08H185.166Z" fill="#888888"/>
<path opacity="0.88" d="M193.625 497V496.219L196.076 493.748C196.848 492.938 197.238 492.488 197.238 491.873C197.238 491.18 196.672 490.73 195.93 490.73C195.148 490.73 194.641 491.229 194.641 491.98H193.625C193.615 490.691 194.602 489.832 195.949 489.832C197.316 489.832 198.254 490.691 198.264 491.844C198.254 492.635 197.883 493.26 196.555 494.568L195.119 496.023V496.082H198.381V497H193.625ZM201.733 497.098C200.093 497.098 199.136 495.779 199.136 493.465C199.136 491.17 200.112 489.832 201.733 489.832C203.354 489.832 204.331 491.17 204.331 493.465C204.331 495.779 203.364 497.098 201.733 497.098ZM201.733 496.17C202.69 496.17 203.257 495.232 203.257 493.465C203.257 491.707 202.68 490.74 201.733 490.74C200.786 490.74 200.21 491.707 200.21 493.465C200.21 495.232 200.776 496.17 201.733 496.17ZM205.144 497V496.219L207.595 493.748C208.367 492.938 208.757 492.488 208.757 491.873C208.757 491.18 208.191 490.73 207.449 490.73C206.668 490.73 206.16 491.229 206.16 491.98H205.144C205.134 490.691 206.121 489.832 207.468 489.832C208.836 489.832 209.773 490.691 209.783 491.844C209.773 492.635 209.402 493.26 208.074 494.568L206.638 496.023V496.082H209.9V497H205.144ZM213.301 497.098C211.836 497.098 210.791 496.307 210.752 495.154H211.846C211.885 495.779 212.5 496.17 213.291 496.17C214.141 496.17 214.766 495.701 214.766 495.018C214.766 494.324 214.18 493.816 213.174 493.816H212.569V492.938H213.174C213.975 492.938 214.541 492.488 214.541 491.814C214.541 491.17 214.063 490.73 213.311 490.73C212.598 490.73 211.973 491.121 211.944 491.766H210.909C210.938 490.613 212.002 489.832 213.321 489.832C214.707 489.832 215.586 490.711 215.577 491.756C215.586 492.557 215.088 493.143 214.327 493.328V493.377C215.293 493.514 215.85 494.158 215.85 495.057C215.85 496.238 214.766 497.098 213.301 497.098ZM219.866 493.016V493.914H216.732V493.016H219.866ZM223.277 497.098C221.637 497.098 220.68 495.779 220.68 493.465C220.68 491.17 221.656 489.832 223.277 489.832C224.898 489.832 225.875 491.17 225.875 493.465C225.875 495.779 224.908 497.098 223.277 497.098ZM223.277 496.17C224.234 496.17 224.801 495.232 224.801 493.465C224.801 491.707 224.225 490.74 223.277 490.74C222.33 490.74 221.754 491.707 221.754 493.465C221.754 495.232 222.32 496.17 223.277 496.17ZM229.247 497.098C227.938 497.088 226.571 496.316 226.571 493.699C226.571 491.238 227.636 489.832 229.335 489.832C230.634 489.832 231.542 490.643 231.708 491.766H230.643C230.507 491.189 230.048 490.77 229.335 490.77C228.241 490.77 227.606 491.727 227.606 493.318H227.684C228.065 492.723 228.729 492.361 229.501 492.361C230.761 492.361 231.776 493.328 231.776 494.686C231.776 496.053 230.77 497.107 229.247 497.098ZM229.237 496.199C230.096 496.199 230.731 495.535 230.731 494.705C230.731 493.895 230.116 493.24 229.266 493.24C228.397 493.24 227.743 493.924 227.733 494.715C227.743 495.496 228.368 496.199 229.237 496.199ZM235.754 493.016V493.914H232.619V493.016H235.754ZM239.389 489.93V497H238.305V491.004H238.266L236.577 492.107V491.082L238.334 489.93H239.389ZM240.73 495.623V494.754L243.855 489.93H245.183V494.715H246.15V495.623H245.183V497H244.167V495.623H240.73ZM241.862 494.715H244.167V491.209H244.089L241.862 494.656V494.715Z" fill="#353535"/>
<path opacity="0.88" d="M264.568 489.08V497.85H263.641V489.08H264.568ZM258.738 489.812V492.059H261.092V489.812H262.01V495.75H257.811V489.812H258.738ZM258.738 494.988H261.092V492.791H258.738V494.988ZM272.745 489.92V490.779C272.745 491.863 272.745 493.074 272.413 494.861L271.475 494.764C271.817 493.074 271.817 491.834 271.817 490.779V490.672H266.505V489.92H272.745ZM273.643 495.877V496.648H265.665V495.877H268.702V492.791H269.62V495.877H273.643Z" fill="#888888"/>
<path opacity="0.88" d="M281.328 497H280.186L282.725 489.93H283.965L286.514 497H285.371L284.727 495.135H281.973L281.328 497ZM282.285 494.236H284.414L283.369 491.219H283.32L282.285 494.236ZM287.112 497V489.93H289.7C291.204 489.93 291.936 490.74 291.936 491.785C291.936 492.664 291.399 493.113 290.745 493.279V493.348C291.448 493.387 292.21 494.002 292.21 495.096C292.21 496.18 291.468 497 289.817 497H287.112ZM289.72 496.082C290.735 496.082 291.145 495.633 291.145 495.047C291.145 494.373 290.608 493.826 289.759 493.826H288.186V496.082H289.72ZM289.612 492.986C290.325 492.986 290.882 492.547 290.882 491.873C290.882 491.287 290.481 490.848 289.632 490.848H288.186V492.986H289.612ZM297.847 492.234C297.671 491.326 296.92 490.818 296.021 490.818C294.8 490.818 293.892 491.756 293.892 493.465C293.892 495.184 294.81 496.111 296.021 496.111C296.91 496.111 297.662 495.613 297.847 494.715L298.931 494.725C298.707 496.121 297.564 497.098 296.011 497.098C294.166 497.098 292.828 495.721 292.828 493.465C292.828 491.199 294.175 489.832 296.011 489.832C297.505 489.832 298.687 490.711 298.931 492.234H297.847ZM306.437 489.715V490.467H305.597V493.113C305.968 493.084 306.324 493.05 306.671 493.006L306.71 493.709C305.03 493.973 303.068 494.002 301.661 494.002L301.544 493.23L302.609 493.221V490.467H301.788V489.715H306.437ZM308.829 489.08V494.461H307.902V492.938H306.564V492.195H307.902V491.346H306.564V490.604H307.902V489.08H308.829ZM305.9 494.627C307.745 494.627 308.859 495.203 308.859 496.229C308.859 497.225 307.745 497.82 305.9 497.811C304.054 497.82 302.931 497.225 302.941 496.229C302.931 495.203 304.054 494.627 305.9 494.627ZM305.9 495.35C304.611 495.35 303.859 495.662 303.859 496.229C303.859 496.785 304.611 497.098 305.9 497.098C307.179 497.098 307.941 496.785 307.941 496.229C307.941 495.662 307.179 495.35 305.9 495.35ZM303.507 493.211C303.903 493.201 304.303 493.187 304.708 493.162V490.467H303.507V493.211ZM316.693 489.08V492.566H318.051V493.338H316.693V497.82H315.766V489.08H316.693ZM314.408 489.998C314.398 492.527 313.285 494.783 310.404 496.209L309.887 495.486C312.079 494.393 313.271 492.811 313.461 490.77H310.326V489.998H314.408ZM325.495 489.08V497.83H324.557V489.08H325.495ZM322.888 490.018C322.888 492.576 321.794 494.803 318.796 496.238L318.307 495.486C320.637 494.378 321.769 492.801 321.95 490.76H318.727V490.018H322.888ZM331.435 489.744V490.232C331.425 490.818 331.425 491.688 331.211 492.82L330.293 492.732C330.483 491.761 330.512 491.058 330.527 490.506H327.021V489.744H331.435ZM329.199 491.707V493.514C330.136 493.484 331.103 493.416 331.982 493.289L332.041 493.963C330.214 494.285 328.125 494.314 326.582 494.324L326.494 493.572C327.031 493.567 327.641 493.562 328.281 493.543V491.707H329.199ZM333.486 489.08V491.863H334.687V492.645H333.486V495.652H332.539V489.08H333.486ZM333.769 496.893V497.645H327.822V495.057H328.75V496.893H333.769Z" fill="#353535"/>
<path d="M135.686 242.204H134.286V231.97H133.054C132.755 231.97 132.545 232.031 132.424 232.152C132.303 232.264 132.214 232.432 132.158 232.656L129.778 242.204H128.294L130.688 232.544C130.753 232.273 130.828 232.026 130.912 231.802C131.005 231.578 131.122 231.387 131.262 231.228C131.411 231.06 131.593 230.934 131.808 230.85C132.023 230.757 132.293 230.71 132.62 230.71H135.686V242.204ZM138.892 243.212H137.492V230.556H138.892V235.54H140.544V236.828H138.892V243.212ZM148.444 234.098C148.266 234.406 148.01 234.667 147.674 234.882C147.347 235.097 146.955 235.26 146.498 235.372C146.04 235.484 145.536 235.54 144.986 235.54C144.435 235.54 143.926 235.484 143.46 235.372C143.002 235.26 142.61 235.097 142.284 234.882C141.957 234.667 141.7 234.406 141.513 234.098C141.336 233.781 141.247 233.417 141.247 233.006C141.247 232.605 141.336 232.245 141.513 231.928C141.7 231.611 141.957 231.345 142.284 231.13C142.61 230.915 143.002 230.752 143.46 230.64C143.926 230.528 144.435 230.472 144.986 230.472C145.536 230.472 146.04 230.528 146.498 230.64C146.955 230.752 147.347 230.915 147.674 231.13C148.01 231.345 148.266 231.611 148.444 231.928C148.63 232.245 148.724 232.605 148.724 233.006C148.724 233.417 148.63 233.781 148.444 234.098ZM151.58 240.888H150.179V239.558H147.058V238.326H150.179V230.556H151.58V240.888ZM151.664 243.212H141.598V239.712H142.998V241.952H151.664V243.212ZM149.27 237.43H145.462V239.642H144.062V237.43H140.911V236.17H149.27V237.43ZM146.666 233.986C147.104 233.781 147.324 233.454 147.324 233.006C147.324 232.558 147.104 232.236 146.666 232.04C146.236 231.835 145.676 231.732 144.986 231.732C144.295 231.732 143.73 231.835 143.292 232.04C142.862 232.236 142.647 232.558 142.647 233.006C142.647 233.454 142.862 233.781 143.292 233.986C143.73 234.182 144.295 234.28 144.986 234.28C145.676 234.28 146.236 234.182 146.666 233.986ZM165.664 241.952V239.544H158.762V241.952H165.664ZM167.064 242.162C167.064 242.526 166.98 242.792 166.812 242.96C166.644 243.128 166.378 243.212 166.014 243.212H157.362V239.124C157.362 238.825 157.427 238.611 157.558 238.48C157.688 238.349 157.903 238.284 158.202 238.284H167.064V242.162ZM167.064 237.64H165.664V230.556H167.064V237.64ZM162.626 237.29H161.226L162.01 232.292C162.028 232.161 162.019 232.077 161.982 232.04C161.944 231.993 161.86 231.97 161.73 231.97H156.62V230.71H163.032C163.265 230.71 163.428 230.771 163.522 230.892C163.615 231.004 163.643 231.167 163.606 231.382L162.626 237.29ZM179.443 237.92H169.349V231.536C169.349 231.237 169.415 231.023 169.545 230.892C169.676 230.761 169.891 230.696 170.189 230.696H179.373V231.956H170.749V236.66H179.443V237.92ZM180.255 242.372H168.467V241.112H173.661V238.76H175.061V241.112H180.255V242.372ZM191.739 240.118H190.339V236.436H188.785V235.148H190.339V233.58H188.785V232.404H187.469C187.721 232.516 187.921 232.721 188.071 233.02C188.22 233.319 188.295 233.627 188.295 233.944V235.456C188.295 237.276 187.175 238.186 184.935 238.186C183.843 238.186 183.007 237.962 182.429 237.514C181.859 237.057 181.575 236.371 181.575 235.456V233.944C181.575 233.617 181.649 233.309 181.799 233.02C181.948 232.721 182.149 232.516 182.401 232.404H180.903V231.144H184.235V229.842H185.635V231.144H188.967V232.292H190.339V230.556H191.739V240.118ZM186.895 233.874C186.895 233.417 186.741 233.034 186.433 232.726C186.134 232.418 185.635 232.264 184.935 232.264C184.235 232.264 183.731 232.418 183.423 232.726C183.124 233.034 182.975 233.417 182.975 233.874V235.428C182.975 235.923 183.124 236.315 183.423 236.604C183.731 236.893 184.235 237.038 184.935 237.038C185.635 237.038 186.134 236.893 186.433 236.604C186.741 236.315 186.895 235.923 186.895 235.428V233.874ZM191.823 243.212H182.037V239.04H183.437V241.952H191.823V243.212ZM201.766 242.12H193.198V240.86H201.766V242.12ZM203.866 243.212H202.466V230.556H203.866V243.212ZM201.15 235.96C201.15 236.436 201.057 236.865 200.87 237.248C200.693 237.621 200.436 237.943 200.1 238.214C199.774 238.475 199.382 238.681 198.924 238.83C198.467 238.97 197.963 239.04 197.412 239.04C196.862 239.04 196.353 238.97 195.886 238.83C195.429 238.681 195.037 238.475 194.71 238.214C194.384 237.943 194.127 237.621 193.94 237.248C193.763 236.865 193.674 236.436 193.674 235.96V233.622C193.674 233.146 193.763 232.721 193.94 232.348C194.127 231.965 194.384 231.643 194.71 231.382C195.037 231.111 195.429 230.906 195.886 230.766C196.353 230.617 196.862 230.542 197.412 230.542C197.963 230.542 198.467 230.617 198.924 230.766C199.382 230.906 199.774 231.111 200.1 231.382C200.436 231.643 200.693 231.965 200.87 232.348C201.057 232.721 201.15 233.146 201.15 233.622V235.96ZM199.75 233.692C199.75 233.095 199.531 232.633 199.092 232.306C198.663 231.97 198.103 231.802 197.412 231.802C196.722 231.802 196.157 231.97 195.718 232.306C195.289 232.633 195.074 233.095 195.074 233.692V235.89C195.074 236.487 195.289 236.954 195.718 237.29C196.157 237.617 196.722 237.78 197.412 237.78C198.103 237.78 198.663 237.617 199.092 237.29C199.531 236.954 199.75 236.487 199.75 235.89V233.692ZM216.634 234.77C216.634 235.246 216.541 235.675 216.354 236.058C216.177 236.431 215.92 236.753 215.584 237.024C215.258 237.285 214.866 237.491 214.408 237.64C213.951 237.78 213.447 237.85 212.896 237.85C212.346 237.85 211.837 237.78 211.37 237.64C210.913 237.491 210.521 237.285 210.194 237.024C209.868 236.753 209.611 236.431 209.424 236.058C209.247 235.675 209.158 235.246 209.158 234.77V233.622C209.158 233.146 209.247 232.721 209.424 232.348C209.611 231.965 209.868 231.643 210.194 231.382C210.521 231.111 210.913 230.906 211.37 230.766C211.837 230.617 212.346 230.542 212.896 230.542C213.447 230.542 213.951 230.617 214.408 230.766C214.866 230.906 215.258 231.111 215.584 231.382C215.92 231.643 216.177 231.965 216.354 232.348C216.541 232.721 216.634 233.146 216.634 233.622V234.77ZM215.234 233.692C215.234 233.095 215.015 232.633 214.576 232.306C214.147 231.97 213.587 231.802 212.896 231.802C212.206 231.802 211.641 231.97 211.202 232.306C210.773 232.633 210.558 233.095 210.558 233.692V234.7C210.558 235.297 210.773 235.764 211.202 236.1C211.641 236.427 212.206 236.59 212.896 236.59C213.587 236.59 214.147 236.427 214.576 236.1C215.015 235.764 215.234 235.297 215.234 234.7V233.692ZM219.35 243.212H217.95V230.556H219.35V243.212ZM217.25 242.12H208.682V240.86H212.196V238.48H213.596V240.86H217.25V242.12ZM231.66 235.722C231.66 236.086 231.576 236.352 231.408 236.52C231.24 236.688 230.974 236.772 230.61 236.772H221.636V230.556H223.036V232.292H230.26V230.556H231.66V235.722ZM232.542 239.152H227.348V243.212H225.948V239.152H220.754V237.892H232.542V239.152ZM230.26 235.512V233.552H223.036V235.512H230.26ZM244.025 237.78H242.625V235.414H240.819V234.126H242.625V233.09H240.819V231.97H239.895L239.727 235.89H241.225V237.15H233.231V235.89H234.715L234.547 231.97H233.441V230.71H241.015V231.802H242.625V230.556H244.025V237.78ZM236.717 243.212C235.868 243.212 235.21 242.993 234.743 242.554C234.277 242.125 234.043 241.513 234.043 240.72C234.043 239.927 234.277 239.315 234.743 238.886C235.21 238.447 235.868 238.228 236.717 238.228H241.603C242.453 238.228 243.111 238.447 243.577 238.886C244.044 239.315 244.277 239.927 244.277 240.72C244.277 241.513 244.044 242.125 243.577 242.554C243.111 242.993 242.453 243.212 241.603 243.212H236.717ZM241.421 241.952C241.916 241.952 242.28 241.835 242.513 241.602C242.756 241.378 242.877 241.084 242.877 240.72C242.877 240.356 242.756 240.062 242.513 239.838C242.28 239.605 241.916 239.488 241.421 239.488H236.899C236.405 239.488 236.036 239.605 235.793 239.838C235.56 240.062 235.443 240.356 235.443 240.72C235.443 241.084 235.56 241.378 235.793 241.602C236.036 241.835 236.405 241.952 236.899 241.952H241.421ZM238.327 235.89L238.495 231.97H235.947L236.115 235.89H238.327ZM250.455 242.204H249.055L250.679 232.292C250.698 232.161 250.688 232.077 250.651 232.04C250.614 231.993 250.53 231.97 250.399 231.97H245.429V230.71H251.701C251.934 230.71 252.098 230.771 252.191 230.892C252.284 231.004 252.312 231.167 252.275 231.382L250.455 242.204ZM255.593 243.212H254.193V230.556H255.593V235.26H257.245V236.548H255.593V243.212ZM265.144 242.204H263.674L262.092 232.474C262.036 232.138 261.892 231.97 261.658 231.97H260.93C260.688 231.97 260.538 232.138 260.482 232.474L258.83 242.204H257.36L259.11 231.97H257.584V230.71H265.13V231.97H263.464L265.144 242.204ZM268 243.212H266.6V230.556H268V235.26H269.652V236.548H268V243.212ZM280.898 238.34H270.706V233.79H279.33V231.816H270.678V230.556H280.73V234C280.73 234.364 280.646 234.63 280.478 234.798C280.31 234.966 280.044 235.05 279.68 235.05H272.106V237.08H280.898V238.34ZM281.612 242.372H269.824V241.112H272.694V239.04H274.094V241.112H277.342V239.04H278.742V241.112H281.612V242.372Z" fill="black"/>
<rect x="90" y="157" width="64" height="25" rx="3" fill="#00AEAE"/>
<path opacity="0.88" d="M101.011 166.092C102.215 166.092 103.111 166.839 103.12 167.885C103.111 168.939 102.215 169.678 101.011 169.678C99.7979 169.678 98.9015 168.939 98.9015 167.885C98.9015 166.839 99.7979 166.092 101.011 166.092ZM101.011 166.9C100.343 166.9 99.8507 167.278 99.8507 167.885C99.8507 168.5 100.343 168.887 101.011 168.887C101.679 168.887 102.171 168.5 102.171 167.885C102.171 167.278 101.679 166.9 101.011 166.9ZM105.379 165.837V169.854H104.395V165.837H105.379ZM105.379 170.196V172.271H101.081V172.912H105.616V173.686H100.123V171.55H104.403V170.961H100.106V170.196H105.379ZM110.678 166.224V166.654C110.678 167.111 110.678 167.806 110.493 168.658L109.544 168.553C109.667 167.911 109.693 167.406 109.702 166.997H106.626V166.224H110.678ZM108.665 167.823V169.124C109.491 169.102 110.33 169.045 111.108 168.948L111.17 169.634C109.517 169.915 107.672 169.933 106.239 169.933L106.151 169.168C106.63 169.168 107.158 169.168 107.707 169.15V167.823H108.665ZM112.576 165.837V167.604H113.604V168.395H112.576V170.082H111.574V165.837H112.576ZM112.576 170.39V172.358H108.164V172.965H112.849V173.703H107.197V171.664H111.583V171.11H107.18V170.39H112.576ZM121.776 165.837V168.852H122.998V169.651H121.776V173.791H120.8V165.837H121.776ZM119.596 166.593V167.384H116.854V171.031C118.089 171.031 119.064 170.97 120.159 170.776L120.273 171.603C119.042 171.813 117.97 171.849 116.538 171.849H115.878V166.593H119.596ZM130.283 169.766V170.548H127.215V172.007H126.222V170.548H123.023V169.766H130.283ZM129.483 172.824V173.624H123.91V171.269H124.895V172.824H129.483ZM126.644 166.013C128.358 166.013 129.492 166.637 129.492 167.639C129.492 168.641 128.358 169.256 126.644 169.256C124.93 169.256 123.796 168.641 123.796 167.639C123.796 166.637 124.93 166.013 126.644 166.013ZM126.644 166.786C125.554 166.786 124.842 167.094 124.851 167.639C124.842 168.166 125.554 168.474 126.644 168.474C127.742 168.474 128.446 168.166 128.446 167.639C128.446 167.094 127.742 166.786 126.644 166.786ZM137.77 172.051V172.859H130.51V172.051H133.639V170.759H131.371V168.157H135.942V167.173H131.354V166.382H136.908V168.931H132.347V169.959H137.093V170.759H134.606V172.051H137.77ZM144.439 169.563V170.346H138.867V166.531H144.378V167.322H139.834V169.563H144.439ZM145.248 171.963V172.771H137.988V171.963H145.248Z" fill="white"/>
<rect x="160.5" y="157.5" width="38" height="24" rx="2.5" stroke="#EEEEEE"/>
<path opacity="0.88" d="M170.602 166.188C171.631 166.18 172.439 166.773 172.641 167.647H174.074V165.837H175.05V170.1H174.074V168.438H172.65C172.452 169.331 171.635 169.933 170.602 169.933C169.381 169.933 168.502 169.15 168.502 168.052C168.502 166.971 169.381 166.18 170.602 166.188ZM170.602 167.006C169.917 167.006 169.433 167.41 169.433 168.052C169.433 168.685 169.917 169.106 170.602 169.106C171.27 169.106 171.745 168.685 171.754 168.052C171.745 167.41 171.27 167.006 170.602 167.006ZM170.778 170.469V171.312H174.074V170.469H175.05V173.686H169.811V170.469H170.778ZM170.778 172.895H174.074V172.068H170.778V172.895ZM183.134 172.051V172.859H175.875V172.051H179.003V170.759H176.736V168.157H181.306V167.173H176.718V166.382H182.273V168.931H177.711V169.959H182.458V170.759H179.97V172.051H183.134ZM189.804 169.563V170.346H184.232V166.531H189.742V167.322H185.199V169.563H189.804ZM190.613 171.963V172.771H183.353V171.963H190.613Z" fill="#353535"/>
</g>
<defs>
<filter id="filter0_d_281_968" x="68.8" y="195.8" width="518.4" height="389.4" filterUnits="userSpaceOnUse" color-interpolation-filters="sRGB">
<feFlood flood-opacity="0" result="BackgroundImageFix"/>
<feColorMatrix in="SourceAlpha" type="matrix" values="0 0 0 0 0 0 0 0 0 0 0 0 0 0 0 0 0 0 127 0" result="hardAlpha"/>
<feOffset dy="21"/>
<feGaussianBlur stdDeviation="10.6"/>
<feComposite in2="hardAlpha" operator="out"/>
<feColorMatrix type="matrix" values="0 0 0 0 0 0 0 0 0 0 0 0 0 0 0 0 0 0 0.06 0"/>
<feBlend mode="normal" in2="BackgroundImageFix" result="effect1_dropShadow_281_968"/>
<feBlend mode="normal" in="SourceGraphic" in2="effect1_dropShadow_281_968" result="shape"/>
</filter>
<clipPath id="clip0_281_968">
<rect width="440" height="500" rx="16" fill="white"/>
</clipPath>
<clipPath id="clip1_281_968">
<rect width="10" height="12" fill="white" transform="translate(153 289)"/>
</clipPath>
<clipPath id="clip2_281_968">
<rect width="10" height="12" fill="white" transform="translate(153 377)"/>
</clipPath>
<clipPath id="clip3_281_968">
<rect width="10" height="12" fill="white" transform="translate(153 462)"/>
</clipPath>
</defs>
</svg>
