<svg width="460" height="610" viewBox="0 0 460 610" fill="none" xmlns="http://www.w3.org/2000/svg">
<rect x="1" width="459" height="377" rx="20" fill="white"/>
<path d="M40.728 43.12H31.832V30.16H33.432V41.68H40.728V43.12ZM43.448 44.528H41.848V30.064H43.448V35.44H45.336V36.912H43.448V44.528ZM55.548 43.28H45.756V41.84H55.548V43.28ZM57.948 44.528H56.348V30.064H57.948V44.528ZM54.844 36.24C54.844 36.784 54.7373 37.2747 54.524 37.712C54.3213 38.1387 54.028 38.5067 53.644 38.816C53.2707 39.1147 52.8227 39.3493 52.3 39.52C51.7773 39.68 51.2013 39.76 50.572 39.76C49.9427 39.76 49.3613 39.68 48.828 39.52C48.3053 39.3493 47.8573 39.1147 47.484 38.816C47.1107 38.5067 46.8173 38.1387 46.604 37.712C46.4013 37.2747 46.3 36.784 46.3 36.24V33.568C46.3 33.024 46.4013 32.5387 46.604 32.112C46.8173 31.6747 47.1107 31.3067 47.484 31.008C47.8573 30.6987 48.3053 30.464 48.828 30.304C49.3613 30.1333 49.9427 30.048 50.572 30.048C51.2013 30.048 51.7773 30.1333 52.3 30.304C52.8227 30.464 53.2707 30.6987 53.644 31.008C54.028 31.3067 54.3213 31.6747 54.524 32.112C54.7373 32.5387 54.844 33.024 54.844 33.568V36.24ZM53.244 33.648C53.244 32.9653 52.9933 32.4373 52.492 32.064C52.0013 31.68 51.3613 31.488 50.572 31.488C49.7827 31.488 49.1373 31.68 48.636 32.064C48.1453 32.4373 47.9 32.9653 47.9 33.648V36.16C47.9 36.8427 48.1453 37.376 48.636 37.76C49.1373 38.1333 49.7827 38.32 50.572 38.32C51.3613 38.32 52.0013 38.1333 52.492 37.76C52.9933 37.376 53.244 36.8427 53.244 36.16V33.648ZM76.7002 38.256H63.2282V36.816H69.1642V35.36H64.2362V31.056C64.2362 30.7147 64.3109 30.4693 64.4602 30.32C64.6096 30.1707 64.8549 30.096 65.1962 30.096H75.6923V34.16C75.6923 34.576 75.5963 34.88 75.4043 35.072C75.2123 35.264 74.9083 35.36 74.4923 35.36H70.7642V36.816H76.7002V38.256ZM75.7723 44.576H74.1722V40.8H64.1562V39.36H75.7723V44.576ZM74.0922 33.92V31.536H65.8362V33.92H74.0922ZM90.7203 43.568H77.2483V42.128H80.5283V39.6H82.1283V42.128H85.8403V39.6H87.4403V42.128H90.7203V43.568ZM90.1923 38.64H77.7763V37.2H80.2883L79.9363 32.464H81.5363L81.8883 37.2H86.0163L86.4163 32.464H88.0163L87.6163 37.2H90.1923V38.64ZM89.7923 31.664H78.1763V30.224H89.7923V31.664Z" fill="black"/>
<path d="M36.168 58.5547C38.582 58.5547 39.9766 59.1992 39.9883 60.3711C39.9766 61.4492 38.8223 62.0703 36.8008 62.1758V62.8555H41.0078V63.8984H31.3516V62.8555H35.5117V62.1758C33.502 62.0645 32.3477 61.4434 32.3477 60.3711C32.3477 59.1992 33.7539 58.5547 36.168 58.5547ZM36.168 59.5273C34.5508 59.5273 33.707 59.8203 33.7188 60.3711C33.707 60.957 34.5508 61.2266 36.168 61.2383C37.8086 61.2266 38.6406 60.957 38.6406 60.3711C38.6406 59.8203 37.8086 59.5273 36.168 59.5273ZM39.8008 64.5781V67.168H33.7773V67.9531H40.0938V68.9492H32.5V66.2422H38.5234V65.5625H32.4883V64.5781H39.8008ZM46.5306 60.1367V61.1797H41.3392V60.1367H43.308V58.7539H44.597V60.1367H46.5306ZM43.9525 61.7422C45.3002 61.7422 46.2611 62.7617 46.2611 64.2031C46.2611 65.668 45.3002 66.6992 43.9525 66.6992C42.6166 66.6992 41.6322 65.668 41.6439 64.2031C41.6322 62.7617 42.6166 61.7422 43.9525 61.7422ZM43.9525 62.8203C43.2611 62.8203 42.7806 63.3711 42.7923 64.2031C42.7806 65.0586 43.2611 65.5977 43.9525 65.5859C44.6322 65.5977 45.1127 65.0586 45.1127 64.2031C45.1127 63.3711 44.6322 62.8203 43.9525 62.8203ZM50.4681 58.4492V69.043H49.2259V63.8633H48.1947V68.5625H46.9759V58.6719H48.1947V62.8086H49.2259V58.4492H50.4681ZM63.7286 62.5391V63.6055H62.1583V69.0195H60.8575V58.4492H62.1583V62.5391H63.7286ZM55.5255 59.4805V65.3281C56.9376 65.3047 58.4434 65.1816 60.0372 64.8477L60.1778 65.9492C58.3966 66.3008 56.6973 66.4062 55.127 66.4062H54.2364V59.4805H55.5255ZM67.3061 59.1875C68.9819 59.1758 70.2123 60.2422 70.2241 61.7422C70.2123 63.2539 68.9819 64.3086 67.3061 64.3086C65.642 64.3086 64.3998 63.2539 64.3998 61.7422C64.3998 60.2422 65.642 59.1758 67.3061 59.1875ZM67.3061 60.3125C66.3803 60.3125 65.6889 60.8633 65.6889 61.7422C65.6889 62.6328 66.3803 63.1719 67.3061 63.1719C68.2436 63.1719 68.9467 62.6328 68.9467 61.7422C68.9467 60.8633 68.2436 60.3125 67.3061 60.3125ZM72.6967 58.4492V69.0547H71.3959V58.4492H72.6967ZM63.9194 65.7734C65.8295 65.7734 68.478 65.75 70.7631 65.4219L70.8686 66.3711C68.4897 66.8281 65.9467 66.8398 64.0834 66.8398L63.9194 65.7734ZM84.797 58.8828V62.5625H81.8439V63.6758H86.0275V64.7305H76.3713V63.6758H80.5314V62.5625H77.59V58.8828H84.797ZM78.8556 59.9023V61.5312H83.508V59.9023H78.8556ZM84.8439 65.6211V69.043H83.5431V66.6523H77.4377V65.6211H84.8439ZM96.062 66.7695V67.8242H86.3823V66.7695H88.8902V64.5898H87.2144V63.5352H88.7027V60.3945H87.1792V59.3516H95.2183V60.3945H93.6714V63.5352H95.1831V64.5898H93.5073V66.7695H96.062ZM90.0034 63.5352H92.3823V60.3945H90.0034V63.5352ZM90.1909 66.7695H92.2066V64.5898H90.1909V66.7695ZM106.061 63.2539V64.2383H96.3817V63.2539H106.061ZM104.89 64.8711V67.2852H98.8192V68.0234H105.206V68.9258H97.5184V66.4414H103.6V65.7852H97.5067V64.8711H104.89ZM104.866 58.6836V61.0742H98.9013V61.7656H105.054V62.6562H97.6122V60.2305H103.565V59.5859H97.577V58.6836H104.866ZM112.197 61.2266C112.197 62.9375 112.795 64.7188 114.224 65.6211L113.509 66.6172C112.554 66.043 111.933 65.0527 111.588 63.8867C111.201 65.1699 110.521 66.2539 109.525 66.8633L108.716 65.8906C110.252 64.9531 110.943 63.0898 110.943 61.2852V59.3867H112.197V61.2266ZM118.033 58.4492V69.043H116.779V58.4492H118.033ZM115.83 58.6367V68.5273H114.599V63.1719H113.088V62.0938H114.599V58.6367H115.83ZM128.571 64.4141V65.4922H124.353V69.043H123.063V65.4922H118.892V64.4141H128.571ZM123.708 58.8242C125.958 58.8359 127.528 59.75 127.528 61.2031C127.528 62.6445 125.958 63.5469 123.708 63.5469C121.446 63.5469 119.899 62.6445 119.911 61.2031C119.899 59.75 121.446 58.8359 123.708 58.8242ZM123.708 59.8789C122.208 59.8789 121.235 60.3711 121.247 61.2031C121.235 62.0234 122.208 62.5156 123.708 62.5156C125.208 62.5156 126.181 62.0234 126.181 61.2031C126.181 60.3711 125.208 59.8789 123.708 59.8789ZM137.563 59.4219V60.4414C137.551 61.7539 137.551 63.2305 137.141 65.4453L135.828 65.3047C136.239 63.2422 136.239 61.7363 136.25 60.4648H129.922V59.4219H137.563ZM138.571 66.6055V67.6719H128.914V66.6055H132.477V62.9258H133.766V66.6055H138.571ZM140.988 67.168L140.004 70.4492H138.89L139.5 67.168H140.988ZM149.268 59.0234V60.0664H145.811V62.4219C147.739 62.4102 148.893 62.334 150.205 62.0703L150.346 63.0781C148.928 63.4062 147.627 63.4414 145.377 63.4414H144.522V59.0234H149.268ZM152.467 58.4492V60.5352H153.944V61.6016H152.467V63.7461H151.166V58.4492H152.467ZM152.467 64.2031V67.0156H146.842V67.8594H152.795V68.9141H145.553V66.0312H151.166V65.2461H145.541V64.2031H152.467ZM158.002 59.9727C157.99 61.4141 158.834 62.7266 160.498 63.2539L159.795 64.2734C158.64 63.8691 157.832 63.1016 157.381 62.0938C156.912 63.248 156.027 64.1562 154.744 64.6016L154.052 63.5469C155.81 62.9727 156.689 61.5547 156.689 60.0312V59.0234H158.002V59.9727ZM162.994 58.4492V64.6836H161.693V61.5664H159.584V60.5H161.693V58.4492H162.994ZM159.408 64.9648C161.658 64.9648 163.029 65.7148 163.029 67.0039C163.029 68.293 161.658 69.0312 159.408 69.0312C157.17 69.0312 155.799 68.293 155.81 67.0039C155.799 65.7148 157.17 64.9648 159.408 64.9648ZM159.408 65.9727C157.931 65.9727 157.099 66.3359 157.099 67.0039C157.099 67.6484 157.931 68.0117 159.408 68.0117C160.885 68.0117 161.728 67.6484 161.728 67.0039C161.728 66.3359 160.885 65.9727 159.408 65.9727ZM173.802 63.1836V64.1562H171.341V64.8828H172.63V67.2969H166.56V68.0469H172.946V68.9492H165.259V66.4531H171.341V65.7969H165.247V64.8828H166.595V64.1562H164.122V63.1836H173.802ZM172.607 58.6836V61.0625H166.642V61.707H172.794V62.6094H165.353V60.2188H171.306V59.5742H165.318V58.6836H172.607ZM167.884 64.8828H170.052V64.1562H167.884V64.8828ZM178.961 58.6133C181.375 58.6133 182.77 59.2578 182.782 60.4297C182.77 61.6133 181.375 62.2461 178.961 62.2578C176.547 62.2461 175.141 61.6133 175.141 60.4297C175.141 59.2578 176.547 58.6133 178.961 58.6133ZM178.961 59.5742C177.344 59.5742 176.5 59.8789 176.512 60.4297C176.5 61.0156 177.344 61.2852 178.961 61.2852C180.602 61.2852 181.434 61.0156 181.434 60.4297C181.434 59.8789 180.602 59.5742 178.961 59.5742ZM183.801 62.8203V63.8633H174.145V62.8203H183.801ZM182.594 64.5781V67.168H176.571V67.9531H182.887V68.9492H175.293V66.2422H181.317V65.5391H175.282V64.5781H182.594ZM195.491 58.4492V69.043H194.179V58.4492H195.491ZM192.327 59.5742C192.327 62.7266 191.109 65.4102 187.394 67.168L186.714 66.125C189.486 64.8066 190.775 63.0137 191.003 60.6055H187.253V59.5742H192.327ZM206.323 64.1797V65.2344H196.643V64.1797H200.838V63.3008H197.874V60.4883H203.827V59.7031H197.838V58.6836H205.128V61.4375H199.163V62.2812H205.338V63.3008H202.128V64.1797H206.323ZM205.186 65.9023V68.9727H203.874V66.9336H197.721V65.9023H205.186ZM211.834 60.1367V61.1797H206.643V60.1367H208.611V58.7539H209.9V60.1367H211.834ZM209.256 61.7422C210.603 61.7422 211.564 62.7617 211.564 64.2031C211.564 65.668 210.603 66.6992 209.256 66.6992C207.92 66.6992 206.935 65.668 206.947 64.2031C206.935 62.7617 207.92 61.7422 209.256 61.7422ZM209.256 62.8203C208.564 62.8203 208.084 63.3711 208.096 64.2031C208.084 65.0586 208.564 65.5977 209.256 65.5859C209.935 65.5977 210.416 65.0586 210.416 64.2031C210.416 63.3711 209.935 62.8203 209.256 62.8203ZM215.771 58.4492V69.043H214.529V63.8633H213.498V68.5625H212.279V58.6719H213.498V62.8086H214.529V58.4492H215.771ZM226.357 66.6992V67.7656H216.677V66.6992H220.849V64.6367H217.743V59.1523H219.044V60.8867H223.954V59.1523H225.255V64.6367H222.138V66.6992H226.357ZM219.044 63.582H223.954V61.9297H219.044V63.582ZM229.993 61.2266C229.993 62.9375 230.59 64.7188 232.02 65.6211L231.305 66.6172C230.35 66.043 229.729 65.0527 229.383 63.8867C228.997 65.1699 228.317 66.2539 227.321 66.8633L226.512 65.8906C228.048 64.9531 228.739 63.0898 228.739 61.2852V59.3867H229.993V61.2266ZM235.829 58.4492V69.043H234.575V58.4492H235.829ZM233.626 58.6367V68.5273H232.395V63.1719H230.883V62.0938H232.395V58.6367H233.626ZM246.379 66.6875V67.7539H236.699V66.6875H238.938V64.0039C238.094 63.5234 237.584 62.7676 237.59 61.8242C237.578 60.1367 239.242 59.0234 241.516 59.0234C243.801 59.0234 245.465 60.1367 245.465 61.8242C245.465 62.75 244.973 63.4941 244.152 63.9805V66.6875H246.379ZM241.516 60.0547C239.934 60.0547 238.855 60.7227 238.867 61.8242C238.855 62.9141 239.934 63.5938 241.516 63.5938C243.098 63.5938 244.188 62.9141 244.188 61.8242C244.188 60.7227 243.098 60.0547 241.516 60.0547ZM240.227 66.6875H242.828V64.4727C242.424 64.5664 241.984 64.6133 241.516 64.6133C241.059 64.6133 240.625 64.5664 240.227 64.4844V66.6875ZM247.999 68.0938C247.495 68.0938 247.085 67.6836 247.085 67.1797C247.085 66.6875 247.495 66.2773 247.999 66.2773C248.48 66.2773 248.902 66.6875 248.902 67.1797C248.902 67.6836 248.48 68.0938 247.999 68.0938Z" fill="#9C9C9C"/>
<rect x="31.5" y="89.5" width="398" height="81" rx="4.5" fill="#FFF1F1" stroke="#FFE2E2"/>
<rect x="52.5" y="177.5" width="377" height="81" rx="4.5" fill="white" stroke="#EAEAEA"/>
<rect x="52.5" y="265.5" width="377" height="81" rx="4.5" fill="white" stroke="#EAEAEA"/>
<path d="M89 202C101 202 104 205 104 217C104 229 101 232 89 232C77 232 74 229 74 217C74 205 77 202 89 202Z" fill="#EFF4FA"/>
<g filter="url(#filter0_d_295_680)">
<path d="M94.9092 223.034C94.9092 223.586 94.4615 224.034 93.9092 224.034L85.0001 224.034C84.4478 224.034 84.0001 223.586 84.0001 223.034L84.0001 213.213C84.0001 212.952 84.1015 212.702 84.2829 212.516L85.3637 211.403L86.4328 210.303C86.6211 210.109 86.8798 210 87.15 210L93.9092 210C94.4615 210 94.9092 210.448 94.9092 211L94.9092 223.034Z" fill="white"/>
</g>
<rect x="86.7275" y="215.613" width="5.45455" height="1.40342" fill="#5766FF"/>
<rect x="86.7275" y="218.42" width="5.45455" height="1.40342" fill="#5766FF"/>
<path d="M89 290C101 290 104 293 104 305C104 317 101 320 89 320C77 320 74 317 74 305C74 293 77 290 89 290Z" fill="#EFF4FA"/>
<g filter="url(#filter1_d_295_680)">
<path d="M94.4541 310.636C94.4541 311.189 94.0064 311.636 93.4541 311.636L84.545 311.636C83.9927 311.636 83.545 311.189 83.545 310.636L83.545 301.141C83.545 300.876 83.6504 300.622 83.8379 300.434L84.9086 299.364L85.9794 298.293C86.1669 298.105 86.4213 298 86.6865 298L93.4541 298C94.0064 298 94.4541 298.448 94.4541 299L94.4541 310.636Z" fill="white"/>
</g>
<rect x="86.2725" y="303.454" width="5.45455" height="1.36364" fill="#5766FF"/>
<rect x="86.2725" y="306.182" width="5.45455" height="1.36364" fill="#5766FF"/>
<path d="M100.373 134.412V134.998C100.373 135.579 100.373 136.302 100.197 137.225H101.359V138.084H93.293V137.225H99.1035C99.2598 136.424 99.2842 135.794 99.2891 135.271H94.2891V134.412H100.373ZM100.363 138.787V141.18H95.3145V141.932H100.588V142.781H94.2305V140.35H99.2793V139.637H94.2207V138.787H100.363ZM109.702 140.945V141.844H101.636V140.945H105.112V139.51H102.593V136.619H107.671V135.525H102.573V134.646H108.745V137.479H103.677V138.621H108.95V139.51H106.186V140.945H109.702ZM117.371 134.041V138.582H116.287V136.775H114.509V138.299H110.379V134.432H111.462V135.525H113.435V134.432H114.509V135.887H116.287V134.041H117.371ZM117.371 138.943V141.219H112.644V141.902H117.654V142.762H111.56V140.428H116.287V139.803H111.55V138.943H117.371ZM111.462 137.439H113.435V136.375H111.462V137.439ZM125.218 134.93H126.497V139.549C126.497 141.062 125.345 142.107 123.626 142.107C121.898 142.107 120.755 141.062 120.755 139.549V134.93H122.025V139.441C122.025 140.33 122.65 140.975 123.626 140.975C124.603 140.975 125.218 140.33 125.218 139.441V134.93ZM128.57 134.93L130.123 137.527H130.182L131.754 134.93H133.199L131.021 138.465L133.238 142H131.764L130.182 139.422H130.123L128.541 142H127.076L129.312 138.465L127.105 134.93H128.57ZM143.595 140.975V141.854H135.529V140.975H137.619V139.158H136.222V138.279H137.463V135.662H136.193V134.793H142.892V135.662H141.603V138.279H142.863V139.158H141.466V140.975H143.595ZM138.546 138.279H140.529V135.662H138.546V138.279ZM138.703 140.975H140.382V139.158H138.703V140.975ZM151.196 134.441V135.311H148.637C148.735 136.141 149.814 136.932 151.518 137.137L151.108 137.996C149.526 137.806 148.359 137.107 147.885 136.15C147.412 137.103 146.254 137.806 144.672 137.996L144.272 137.137C145.976 136.932 147.04 136.141 147.143 135.311H144.604V134.441H151.196ZM151.928 138.484V139.363H148.52V140.975H147.446V139.363H143.862V138.484H151.928ZM151.039 141.814V142.693H144.838V140.164H145.922V141.814H151.039ZM158.994 134.588V138.26H154.736V134.588H158.994ZM155.811 135.447V137.41H157.92V135.447H155.811ZM161.621 134.041V139.07H160.547V134.041H161.621ZM161.807 139.588V140.408H159.287C159.39 141.092 160.449 141.844 162.139 142.01L161.768 142.84C160.337 142.693 159.253 142.127 158.721 141.395C158.169 142.137 157.075 142.684 155.635 142.84L155.264 142.01C156.953 141.863 158.037 141.111 158.135 140.408H155.625V139.588H158.164V138.816H159.258V139.588H161.807ZM171.88 138.67V139.529H165.689V134.734H171.802V135.613H166.793V136.678H171.597V137.527H166.793V138.67H171.88ZM172.769 140.906V141.795H164.703V140.906H172.769ZM176.541 134.725V137.43H174.481V138.533C175.496 138.523 176.253 138.479 177.147 138.309L177.254 139.168C176.209 139.373 175.311 139.402 174.012 139.402H173.416V136.639H175.487V135.574H173.407V134.725H176.541ZM180.594 134.051V140.682H179.559V134.051H180.594ZM178.807 134.207V140.457H177.782V137.234H176.873V136.336H177.782V134.207H178.807ZM180.838 141.814V142.693H174.686V140.018H175.77V141.814H180.838ZM188.556 138.182V139.051H182.364V134.812H188.488V135.691H183.439V138.182H188.556ZM189.454 140.848V141.746H181.388V140.848H189.454ZM197.348 134.041V142.869H196.303V134.041H197.348ZM195.531 134.197V142.439H194.496V138.24H193.656C193.554 139.959 192.816 141.023 191.723 141.014C190.57 141.023 189.818 139.803 189.818 137.859C189.818 135.916 190.57 134.715 191.723 134.715C192.792 134.715 193.52 135.711 193.646 137.361H194.496V134.197H195.531ZM191.723 135.74C191.166 135.73 190.814 136.482 190.824 137.859C190.814 139.236 191.166 139.988 191.723 139.979C192.309 139.988 192.66 139.236 192.66 137.859C192.66 136.482 192.309 135.73 191.723 135.74ZM207.744 134.041V142.869H206.709V138.367H205.713V142.42H204.716V134.207H205.713V137.498H206.709V134.041H207.744ZM203.72 135.086V135.965H201.513V139.891C202.475 139.881 203.266 139.832 204.16 139.666L204.238 140.555C203.173 140.77 202.246 140.799 201.015 140.809H200.42V135.086H203.72ZM215.452 134.051V136.824H216.682V137.723H215.452V140.643H214.368V134.051H215.452ZM213.733 135.027V135.896H208.498V135.027H210.579V134.041H211.662V135.027H213.733ZM211.116 136.258C212.385 136.258 213.264 136.932 213.274 137.947C213.264 138.953 212.385 139.617 211.116 139.617C209.836 139.617 208.948 138.953 208.948 137.947C208.948 136.932 209.836 136.258 211.116 136.258ZM211.116 137.098C210.442 137.098 210.002 137.41 210.002 137.947C210.002 138.475 210.442 138.787 211.116 138.777C211.789 138.787 212.239 138.475 212.239 137.947C212.239 137.41 211.789 137.098 211.116 137.098ZM215.803 141.814V142.693H209.797V140.125H210.881V141.814H215.803ZM226.248 134.041V142.879H225.154V134.041H226.248ZM221.492 134.686C222.82 134.686 223.787 135.896 223.797 137.801C223.787 139.725 222.82 140.926 221.492 140.926C220.154 140.926 219.188 139.725 219.188 137.801C219.188 135.896 220.154 134.686 221.492 134.686ZM221.492 135.662C220.74 135.662 220.232 136.453 220.232 137.801C220.232 139.158 220.74 139.949 221.492 139.949C222.234 139.949 222.742 139.158 222.742 137.801C222.742 136.453 222.234 135.662 221.492 135.662ZM231.554 135.447V136.316H227.227V135.447H228.868V134.295H229.942V135.447H231.554ZM229.405 136.785C230.528 136.785 231.329 137.635 231.329 138.836C231.329 140.057 230.528 140.916 229.405 140.916C228.292 140.916 227.471 140.057 227.481 138.836C227.471 137.635 228.292 136.785 229.405 136.785ZM229.405 137.684C228.829 137.684 228.429 138.143 228.438 138.836C228.429 139.549 228.829 139.998 229.405 139.988C229.971 139.998 230.372 139.549 230.372 138.836C230.372 138.143 229.971 137.684 229.405 137.684ZM234.835 134.041V142.869H233.8V138.553H232.94V142.469H231.925V134.227H232.94V137.674H233.8V134.041H234.835Z" fill="black"/>
<path d="M100.314 118.402V121.469H97.8535V122.396H101.34V123.275H93.293V122.396H96.7598V121.469H94.3086V118.402H100.314ZM95.3633 119.252V120.609H99.2402V119.252H95.3633ZM100.354 124.018V126.869H99.2695V124.877H94.1816V124.018H100.354ZM109.702 124.975V125.854H101.636V124.975H103.725V123.158H102.329V122.279H103.569V119.662H102.3V118.793H108.999V119.662H107.71V122.279H108.97V123.158H107.573V124.975H109.702ZM104.653 122.279H106.636V119.662H104.653V122.279ZM104.809 124.975H106.489V123.158H104.809V124.975Z" fill="#FF1673"/>
<path d="M121.91 220.041V228.869H120.865V224.348H119.928V228.439H118.902V220.197H119.928V223.449H120.865V220.041H121.91ZM118.033 220.998V226.594H114.566V220.998H118.033ZM115.582 221.857V225.734H117.018V221.857H115.582ZM130.038 220.051V225.197H128.944V224.836H127.294V224.172H128.944V220.051H130.038ZM122.626 223.234C124.335 223.234 126.464 223.215 128.358 223.029L128.417 223.713C127.611 223.825 126.781 223.894 125.966 223.928V225.207H124.891V223.977C124.135 223.996 123.407 224.001 122.743 223.996L122.626 223.234ZM130.038 225.471V227.453H125.018V228.02H130.272V228.791H123.954V226.74H128.964V226.213H123.915V225.471H130.038ZM125.477 220.188C126.786 220.188 127.684 220.715 127.684 221.516C127.684 222.336 126.786 222.834 125.477 222.834C124.139 222.834 123.251 222.336 123.251 221.516C123.251 220.715 124.139 220.188 125.477 220.188ZM125.477 220.91C124.735 220.91 124.276 221.145 124.286 221.516C124.276 221.887 124.735 222.111 125.477 222.111C126.2 222.111 126.669 221.887 126.669 221.516C126.669 221.145 126.2 220.91 125.477 220.91ZM136.215 220.93V228H134.936V222.17H134.897L133.246 223.225V222.062L134.995 220.93H136.215ZM144.695 220.041V228.869H143.611V220.041H144.695ZM137.38 226.418C138.083 226.413 138.879 226.413 139.714 226.389V225.578C138.718 225.422 138.073 224.812 138.073 223.977C138.073 222.98 138.952 222.316 140.241 222.316C141.54 222.316 142.439 222.98 142.439 223.977C142.439 224.807 141.789 225.412 140.798 225.568V226.35C141.574 226.315 142.356 226.252 143.093 226.154L143.171 226.965C141.228 227.297 139.128 227.316 137.536 227.316L137.38 226.418ZM142.937 221.057V221.916H137.566V221.057H139.714V220.07H140.798V221.057H142.937ZM140.241 223.146C139.577 223.156 139.099 223.459 139.109 223.977C139.099 224.484 139.577 224.787 140.241 224.777C140.935 224.787 141.394 224.484 141.394 223.977C141.394 223.459 140.935 223.156 140.241 223.146ZM152.581 220.93H153.86V225.549C153.86 227.062 152.708 228.107 150.989 228.107C149.261 228.107 148.118 227.062 148.118 225.549V220.93H149.388V225.441C149.388 226.33 150.013 226.975 150.989 226.975C151.966 226.975 152.581 226.33 152.581 225.441V220.93ZM155.933 220.93L157.486 223.527H157.545L159.117 220.93H160.562L158.384 224.465L160.601 228H159.127L157.545 225.422H157.486L155.904 228H154.439L156.675 224.465L154.468 220.93H155.933ZM166.046 222.16C166.036 223.732 166.827 225.334 168.195 225.988L167.53 226.857C166.573 226.374 165.885 225.441 165.509 224.318C165.123 225.52 164.401 226.516 163.39 227.023L162.726 226.154C164.142 225.48 164.952 223.791 164.962 222.16V220.754H166.046V222.16ZM169.806 220.041V223.498H171.163V224.426H169.806V228.869H168.722V220.041H169.806ZM174.525 220.939V224.211H172.543V225.91C173.329 225.905 174.101 225.852 175.004 225.705L175.092 226.594C173.988 226.779 173.09 226.818 172.074 226.818H171.498V223.352H173.471V221.818H171.488V220.939H174.525ZM178.832 220.041V228.869H177.797V220.041H178.832ZM177.025 220.197V228.42H175.99V225.334H174.965V224.445H175.99V223.137H174.965V222.268H175.99V220.197H177.025ZM189.707 224.611V225.48H186.298V227.004H185.224V225.48H181.64V224.611H189.707ZM188.818 227.814V228.693H182.617V226.262H183.691V227.814H188.818ZM183.769 220.324V221.32H187.578V220.324H188.652V223.918H182.695V220.324H183.769ZM183.769 223.059H187.578V222.131H183.769V223.059ZM193.196 221.438C193.196 222.57 193.909 223.654 195.266 224.094L194.68 224.963C193.723 224.626 193.039 223.957 192.668 223.107C192.273 224.035 191.555 224.763 190.539 225.129L189.954 224.26C191.389 223.781 192.102 222.629 192.102 221.369V220.5H193.196V221.438ZM197.385 225.715V228.869H196.301V226.574H191.37V225.715H197.385ZM197.385 220.041V225.285H196.301V222.648H194.543V221.76H196.301V220.041H197.385ZM205.115 220.588V224.26H200.857V220.588H205.115ZM201.932 221.447V223.41H204.041V221.447H201.932ZM207.742 220.041V225.07H206.668V220.041H207.742ZM207.928 225.588V226.408H205.408C205.511 227.092 206.57 227.844 208.26 228.01L207.889 228.84C206.458 228.693 205.374 228.127 204.842 227.395C204.29 228.137 203.196 228.684 201.756 228.84L201.385 228.01C203.074 227.863 204.158 227.111 204.256 226.408H201.746V225.588H204.285V224.816H205.379V225.588H207.928ZM218.402 220.041V228.869H217.357V224.406H216.38V228.42H215.365V220.207H216.38V223.518H217.357V220.041H218.402ZM212.298 221.057V225.715C213.06 225.7 213.895 225.637 214.818 225.451L214.925 226.398C213.734 226.613 212.728 226.672 211.791 226.672H211.205V221.057H212.298ZM227.223 225.178V226.037H223.707V228.869H222.633V226.037H219.157V225.178H227.223ZM221.207 220.393V221.477H225.153V220.393H226.246V224.26H220.133V220.393H221.207ZM221.207 223.381H225.153V222.336H221.207V223.381ZM233.557 225.559C235.471 225.568 236.682 226.174 236.691 227.219C236.682 228.244 235.471 228.859 233.557 228.859C231.652 228.859 230.432 228.244 230.432 227.219C230.432 226.174 231.652 225.568 233.557 225.559ZM233.557 226.379C232.287 226.379 231.516 226.682 231.525 227.219C231.516 227.736 232.287 228.02 233.557 228.02C234.836 228.02 235.607 227.736 235.617 227.219C235.607 226.682 234.836 226.379 233.557 226.379ZM236.633 220.461V221.193C236.633 221.887 236.633 222.629 236.389 223.537L235.314 223.439C235.534 222.58 235.549 221.96 235.549 221.32H230.52V220.461H236.633ZM237.609 224.045V224.924H229.602V224.045H232.707V222.443H233.781V224.045H237.609ZM245.981 224.992V225.871H244.018V228.869H242.915V225.871H240.962V228.869H239.848V225.871H237.915V224.992H245.981ZM241.929 220.354C243.804 220.363 245.112 221.125 245.112 222.326C245.112 223.508 243.804 224.26 241.929 224.26C240.044 224.26 238.755 223.508 238.764 222.326C238.755 221.125 240.044 220.363 241.929 220.354ZM241.929 221.232C240.679 221.232 239.868 221.633 239.878 222.326C239.868 223 240.679 223.4 241.929 223.4C243.179 223.4 243.989 223 243.989 222.326C243.989 221.633 243.179 221.232 241.929 221.232Z" fill="black"/>
<path d="M117.047 206.355C117.047 207.781 117.545 209.266 118.736 210.018L118.141 210.848C117.345 210.369 116.827 209.544 116.539 208.572C116.217 209.642 115.65 210.545 114.82 211.053L114.146 210.242C115.426 209.461 116.002 207.908 116.002 206.404V204.822H117.047V206.355ZM121.91 204.041V212.869H120.865V204.041H121.91ZM120.074 204.197V212.439H119.049V207.977H117.789V207.078H119.049V204.197H120.074ZM130.692 209.178V210.037H127.177V212.869H126.102V210.037H122.626V209.178H130.692ZM124.677 204.393V205.477H128.622V204.393H129.716V208.26H123.602V204.393H124.677ZM124.677 207.381H128.622V206.336H124.677V207.381ZM138 204.402V207.469H135.539V208.396H139.025V209.275H130.978V208.396H134.445V207.469H131.994V204.402H138ZM133.048 205.252V206.609H136.925V205.252H133.048ZM138.039 210.018V212.869H136.955V210.877H131.867V210.018H138.039ZM147.387 210.975V211.854H139.321V210.975H141.411V209.158H140.014V208.279H141.254V205.662H139.985V204.793H146.684V205.662H145.395V208.279H146.655V209.158H145.258V210.975H147.387ZM142.338 208.279H144.321V205.662H142.338V208.279ZM142.495 210.975H144.174V209.158H142.495V210.975Z" fill="#5766FF"/>
<path d="M121.91 308.041V316.869H120.865V312.348H119.928V316.439H118.902V308.197H119.928V311.449H120.865V308.041H121.91ZM118.033 308.998V314.594H114.566V308.998H118.033ZM115.582 309.857V313.734H117.018V309.857H115.582ZM130.038 308.051V313.197H128.944V312.836H127.294V312.172H128.944V308.051H130.038ZM122.626 311.234C124.335 311.234 126.464 311.215 128.358 311.029L128.417 311.713C127.611 311.825 126.781 311.894 125.966 311.928V313.207H124.891V311.977C124.135 311.996 123.407 312.001 122.743 311.996L122.626 311.234ZM130.038 313.471V315.453H125.018V316.02H130.272V316.791H123.954V314.74H128.964V314.213H123.915V313.471H130.038ZM125.477 308.188C126.786 308.188 127.684 308.715 127.684 309.516C127.684 310.336 126.786 310.834 125.477 310.834C124.139 310.834 123.251 310.336 123.251 309.516C123.251 308.715 124.139 308.188 125.477 308.188ZM125.477 308.91C124.735 308.91 124.276 309.145 124.286 309.516C124.276 309.887 124.735 310.111 125.477 310.111C126.2 310.111 126.669 309.887 126.669 309.516C126.669 309.145 126.2 308.91 125.477 308.91ZM136.215 308.93V316H134.936V310.17H134.897L133.246 311.225V310.062L134.995 308.93H136.215ZM144.695 308.041V316.869H143.611V308.041H144.695ZM137.38 314.418C138.083 314.413 138.879 314.413 139.714 314.389V313.578C138.718 313.422 138.073 312.812 138.073 311.977C138.073 310.98 138.952 310.316 140.241 310.316C141.54 310.316 142.439 310.98 142.439 311.977C142.439 312.807 141.789 313.412 140.798 313.568V314.35C141.574 314.315 142.356 314.252 143.093 314.154L143.171 314.965C141.228 315.297 139.128 315.316 137.536 315.316L137.38 314.418ZM142.937 309.057V309.916H137.566V309.057H139.714V308.07H140.798V309.057H142.937ZM140.241 311.146C139.577 311.156 139.099 311.459 139.109 311.977C139.099 312.484 139.577 312.787 140.241 312.777C140.935 312.787 141.394 312.484 141.394 311.977C141.394 311.459 140.935 311.156 140.241 311.146ZM152.581 308.93H153.86V313.549C153.86 315.062 152.708 316.107 150.989 316.107C149.261 316.107 148.118 315.062 148.118 313.549V308.93H149.388V313.441C149.388 314.33 150.013 314.975 150.989 314.975C151.966 314.975 152.581 314.33 152.581 313.441V308.93ZM155.933 308.93L157.486 311.527H157.545L159.117 308.93H160.562L158.384 312.465L160.601 316H159.127L157.545 313.422H157.486L155.904 316H154.439L156.675 312.465L154.468 308.93H155.933ZM166.046 310.16C166.036 311.732 166.827 313.334 168.195 313.988L167.53 314.857C166.573 314.374 165.885 313.441 165.509 312.318C165.123 313.52 164.401 314.516 163.39 315.023L162.726 314.154C164.142 313.48 164.952 311.791 164.962 310.16V308.754H166.046V310.16ZM169.806 308.041V311.498H171.163V312.426H169.806V316.869H168.722V308.041H169.806ZM174.525 308.939V312.211H172.543V313.91C173.329 313.905 174.101 313.852 175.004 313.705L175.092 314.594C173.988 314.779 173.09 314.818 172.074 314.818H171.498V311.352H173.471V309.818H171.488V308.939H174.525ZM178.832 308.041V316.869H177.797V308.041H178.832ZM177.025 308.197V316.42H175.99V313.334H174.965V312.445H175.99V311.137H174.965V310.268H175.99V308.197H177.025ZM189.707 312.611V313.48H186.298V315.004H185.224V313.48H181.64V312.611H189.707ZM188.818 315.814V316.693H182.617V314.262H183.691V315.814H188.818ZM183.769 308.324V309.32H187.578V308.324H188.652V311.918H182.695V308.324H183.769ZM183.769 311.059H187.578V310.131H183.769V311.059ZM193.196 309.438C193.196 310.57 193.909 311.654 195.266 312.094L194.68 312.963C193.723 312.626 193.039 311.957 192.668 311.107C192.273 312.035 191.555 312.763 190.539 313.129L189.954 312.26C191.389 311.781 192.102 310.629 192.102 309.369V308.5H193.196V309.438ZM197.385 313.715V316.869H196.301V314.574H191.37V313.715H197.385ZM197.385 308.041V313.285H196.301V310.648H194.543V309.76H196.301V308.041H197.385ZM205.115 308.588V312.26H200.857V308.588H205.115ZM201.932 309.447V311.41H204.041V309.447H201.932ZM207.742 308.041V313.07H206.668V308.041H207.742ZM207.928 313.588V314.408H205.408C205.511 315.092 206.57 315.844 208.26 316.01L207.889 316.84C206.458 316.693 205.374 316.127 204.842 315.395C204.29 316.137 203.196 316.684 201.756 316.84L201.385 316.01C203.074 315.863 204.158 315.111 204.256 314.408H201.746V313.588H204.285V312.816H205.379V313.588H207.928ZM218.402 308.041V316.869H217.357V312.406H216.38V316.42H215.365V308.207H216.38V311.518H217.357V308.041H218.402ZM212.298 309.057V313.715C213.06 313.7 213.895 313.637 214.818 313.451L214.925 314.398C213.734 314.613 212.728 314.672 211.791 314.672H211.205V309.057H212.298ZM227.223 313.178V314.037H223.707V316.869H222.633V314.037H219.157V313.178H227.223ZM221.207 308.393V309.477H225.153V308.393H226.246V312.26H220.133V308.393H221.207ZM221.207 311.381H225.153V310.336H221.207V311.381ZM233.557 313.559C235.471 313.568 236.682 314.174 236.691 315.219C236.682 316.244 235.471 316.859 233.557 316.859C231.652 316.859 230.432 316.244 230.432 315.219C230.432 314.174 231.652 313.568 233.557 313.559ZM233.557 314.379C232.287 314.379 231.516 314.682 231.525 315.219C231.516 315.736 232.287 316.02 233.557 316.02C234.836 316.02 235.607 315.736 235.617 315.219C235.607 314.682 234.836 314.379 233.557 314.379ZM236.633 308.461V309.193C236.633 309.887 236.633 310.629 236.389 311.537L235.314 311.439C235.534 310.58 235.549 309.96 235.549 309.32H230.52V308.461H236.633ZM237.609 312.045V312.924H229.602V312.045H232.707V310.443H233.781V312.045H237.609ZM245.981 312.992V313.871H244.018V316.869H242.915V313.871H240.962V316.869H239.848V313.871H237.915V312.992H245.981ZM241.929 308.354C243.804 308.363 245.112 309.125 245.112 310.326C245.112 311.508 243.804 312.26 241.929 312.26C240.044 312.26 238.755 311.508 238.764 310.326C238.755 309.125 240.044 308.363 241.929 308.354ZM241.929 309.232C240.679 309.232 239.868 309.633 239.878 310.326C239.868 311 240.679 311.4 241.929 311.4C243.179 311.4 243.989 311 243.989 310.326C243.989 309.633 243.179 309.232 241.929 309.232Z" fill="black"/>
<path d="M117.047 294.355C117.047 295.781 117.545 297.266 118.736 298.018L118.141 298.848C117.345 298.369 116.827 297.544 116.539 296.572C116.217 297.642 115.65 298.545 114.82 299.053L114.146 298.242C115.426 297.461 116.002 295.908 116.002 294.404V292.822H117.047V294.355ZM121.91 292.041V300.869H120.865V292.041H121.91ZM120.074 292.197V300.439H119.049V295.977H117.789V295.078H119.049V292.197H120.074ZM130.692 297.178V298.037H127.177V300.869H126.102V298.037H122.626V297.178H130.692ZM124.677 292.393V293.477H128.622V292.393H129.716V296.26H123.602V292.393H124.677ZM124.677 295.381H128.622V294.336H124.677V295.381ZM138 292.402V295.469H135.539V296.396H139.025V297.275H130.978V296.396H134.445V295.469H131.994V292.402H138ZM133.048 293.252V294.609H136.925V293.252H133.048ZM138.039 298.018V300.869H136.955V298.877H131.867V298.018H138.039ZM147.387 298.975V299.854H139.321V298.975H141.411V297.158H140.014V296.279H141.254V293.662H139.985V292.793H146.684V293.662H145.395V296.279H146.655V297.158H145.258V298.975H147.387ZM142.338 296.279H144.321V293.662H142.338V296.279ZM142.495 298.975H144.174V297.158H142.495V298.975Z" fill="#5766FF"/>
<path d="M68 115C80 115 83 118 83 130C83 142 80 145 68 145C56 145 53 142 53 130C53 118 56 115 68 115Z" fill="#FFD9D9"/>
<rect x="62.333" y="134.007" width="10.9994" height="3.29982" transform="rotate(-45 62.333 134.007)" fill="#FF1673"/>
<path d="M74.2695 124.405L72.7235 132.013L66.6614 125.951L74.2695 124.405Z" fill="#FF1673"/>
<g filter="url(#filter2_d_295_680)">
<rect x="46" y="211" width="14" height="14" rx="2" fill="white"/>
<rect x="46.5" y="211.5" width="13" height="13" rx="1.5" stroke="#EAEAEA"/>
</g>
<rect x="50" y="217" width="6" height="2" fill="#D9D9D9"/>
<g filter="url(#filter3_d_295_680)">
<rect x="46" y="299" width="14" height="14" rx="2" fill="white"/>
<rect x="46.5" y="299.5" width="13" height="13" rx="1.5" stroke="#EAEAEA"/>
</g>
<rect x="50" y="305" width="6" height="2" fill="#D9D9D9"/>
<rect x="339" y="117" width="65" height="28" rx="14" fill="#FFD9D9"/>
<path d="M354.379 127.268V128.05H351.787V129.816C353.232 129.808 354.098 129.75 355.082 129.553L355.188 130.309C354.124 130.555 353.149 130.581 351.461 130.581H350.82V127.268H354.379ZM356.779 126.837V128.401H357.886V129.201H356.779V130.81H355.803V126.837H356.779ZM356.779 131.152V133.262H352.56V133.895H357.025V134.686H351.593V132.523H355.803V131.935H351.584V131.152H356.779ZM360.93 127.979C360.921 129.061 361.554 130.045 362.802 130.44L362.274 131.205C361.409 130.902 360.802 130.326 360.464 129.57C360.112 130.436 359.449 131.117 358.486 131.451L357.968 130.66C359.286 130.229 359.945 129.166 359.945 128.023V127.268H360.93V127.979ZM364.674 126.837V131.513H363.698V129.175H362.116V128.375H363.698V126.837H364.674ZM361.984 131.724C363.672 131.724 364.7 132.286 364.7 133.253C364.7 134.22 363.672 134.773 361.984 134.773C360.306 134.773 359.277 134.22 359.286 133.253C359.277 132.286 360.306 131.724 361.984 131.724ZM361.984 132.479C360.877 132.479 360.253 132.752 360.253 133.253C360.253 133.736 360.877 134.009 361.984 134.009C363.092 134.009 363.725 133.736 363.725 133.253C363.725 132.752 363.092 132.479 361.984 132.479ZM372.78 130.388V131.117H370.934V131.662H371.901V133.473H367.348V134.035H372.138V134.712H366.373V132.84H370.934V132.348H366.364V131.662H367.374V131.117H365.52V130.388H372.78ZM371.883 127.013V128.797H367.41V129.28H372.024V129.957H366.443V128.164H370.908V127.681H366.416V127.013H371.883ZM368.341 131.662H369.967V131.117H368.341V131.662ZM377.425 134.088C376.151 134.088 375.219 133.332 375.184 132.277H376.3C376.335 132.796 376.819 133.165 377.425 133.165C378.137 133.165 378.647 132.646 378.647 131.943C378.647 131.214 378.12 130.695 377.39 130.695C376.898 130.687 376.538 130.862 376.335 131.24H375.272L375.659 127.637H379.42V128.595H376.599L376.406 130.282H376.467C376.713 130.001 377.179 129.799 377.698 129.799C378.884 129.799 379.754 130.687 379.754 131.908C379.754 133.183 378.796 134.088 377.425 134.088ZM382.798 134.088C381.269 134.088 380.355 132.901 380.355 130.818C380.355 128.744 381.269 127.549 382.798 127.549C384.318 127.549 385.241 128.744 385.241 130.818C385.241 132.901 384.327 134.088 382.798 134.088ZM382.798 133.13C383.598 133.13 384.09 132.348 384.09 130.818C384.09 129.298 383.589 128.498 382.798 128.498C382.007 128.498 381.506 129.298 381.506 130.818C381.506 132.348 381.998 133.13 382.798 133.13ZM387.494 130.739C386.588 130.739 386.096 130.071 386.096 129.096C386.096 128.129 386.606 127.461 387.494 127.461C388.417 127.461 388.9 128.129 388.9 129.096C388.9 130.08 388.399 130.739 387.494 130.739ZM387.494 130.036C387.889 130.036 388.083 129.667 388.083 129.096C388.083 128.542 387.907 128.155 387.494 128.164C387.107 128.164 386.905 128.542 386.905 129.096C386.905 129.667 387.107 130.036 387.494 130.036ZM391.651 134.167C390.746 134.176 390.253 133.499 390.253 132.532C390.253 131.557 390.763 130.889 391.651 130.889C392.565 130.889 393.057 131.557 393.057 132.532C393.057 133.508 392.556 134.176 391.651 134.167ZM391.651 133.464C392.055 133.464 392.24 133.095 392.24 132.532C392.24 131.97 392.064 131.583 391.651 131.592C391.264 131.592 391.062 131.979 391.062 132.532C391.062 133.095 391.264 133.464 391.651 133.464ZM386.914 134L391.291 127.637H392.178L387.801 134H386.914Z" fill="#FF1673"/>
<rect x="340" y="205" width="63" height="26" rx="13" stroke="#E3E3E3" stroke-width="2"/>
<path d="M354.252 214.268V215.05H351.659V216.816C353.105 216.808 353.971 216.75 354.955 216.553L355.06 217.309C353.997 217.555 353.021 217.581 351.334 217.581H350.692V214.268H354.252ZM356.651 213.837V215.401H357.759V216.201H356.651V217.81H355.676V213.837H356.651ZM356.651 218.152V220.262H352.433V220.895H356.897V221.686H351.466V219.523H355.676V218.935H351.457V218.152H356.651ZM360.802 214.979C360.793 216.061 361.426 217.045 362.674 217.44L362.147 218.205C361.281 217.902 360.675 217.326 360.336 216.57C359.985 217.436 359.321 218.117 358.359 218.451L357.84 217.66C359.159 217.229 359.818 216.166 359.818 215.023V214.268H360.802V214.979ZM364.546 213.837V218.513H363.571V216.175H361.989V215.375H363.571V213.837H364.546ZM361.857 218.724C363.544 218.724 364.573 219.286 364.573 220.253C364.573 221.22 363.544 221.773 361.857 221.773C360.178 221.773 359.15 221.22 359.159 220.253C359.15 219.286 360.178 218.724 361.857 218.724ZM361.857 219.479C360.749 219.479 360.125 219.752 360.125 220.253C360.125 220.736 360.749 221.009 361.857 221.009C362.964 221.009 363.597 220.736 363.597 220.253C363.597 219.752 362.964 219.479 361.857 219.479ZM372.652 217.388V218.117H370.807V218.662H371.773V220.473H367.221V221.035H372.011V221.712H366.245V219.84H370.807V219.348H366.236V218.662H367.247V218.117H365.393V217.388H372.652ZM371.756 214.013V215.797H367.282V216.28H371.896V216.957H366.315V215.164H370.78V214.681H366.289V214.013H371.756ZM368.214 218.662H369.84V218.117H368.214V218.662ZM374.925 219.813V218.899L377.676 214.637H379.1V218.873H379.935V219.813H379.1V221H378.01V219.813H374.925ZM376.094 218.873H378.027V215.938H377.957L376.094 218.829V218.873ZM382.925 221.088C381.396 221.088 380.482 219.901 380.482 217.818C380.482 215.744 381.396 214.549 382.925 214.549C384.446 214.549 385.369 215.744 385.369 217.818C385.369 219.901 384.455 221.088 382.925 221.088ZM382.925 220.13C383.725 220.13 384.217 219.348 384.217 217.818C384.217 216.298 383.716 215.498 382.925 215.498C382.134 215.498 381.633 216.298 381.633 217.818C381.633 219.348 382.126 220.13 382.925 220.13ZM387.621 217.739C386.716 217.739 386.224 217.071 386.224 216.096C386.224 215.129 386.733 214.461 387.621 214.461C388.544 214.461 389.027 215.129 389.027 216.096C389.027 217.08 388.526 217.739 387.621 217.739ZM387.621 217.036C388.017 217.036 388.21 216.667 388.21 216.096C388.21 215.542 388.034 215.155 387.621 215.164C387.234 215.164 387.032 215.542 387.032 216.096C387.032 216.667 387.234 217.036 387.621 217.036ZM391.778 221.167C390.873 221.176 390.381 220.499 390.381 219.532C390.381 218.557 390.891 217.889 391.778 217.889C392.692 217.889 393.185 218.557 393.185 219.532C393.185 220.508 392.684 221.176 391.778 221.167ZM391.778 220.464C392.183 220.464 392.367 220.095 392.367 219.532C392.367 218.97 392.191 218.583 391.778 218.592C391.392 218.592 391.19 218.979 391.19 219.532C391.19 220.095 391.392 220.464 391.778 220.464ZM387.041 221L391.418 214.637H392.306L387.929 221H387.041Z" fill="#848484"/>
<rect x="340" y="293" width="63" height="26" rx="13" stroke="#E3E3E3" stroke-width="2"/>
<path d="M354.252 302.268V303.05H351.659V304.816C353.105 304.808 353.971 304.75 354.955 304.553L355.06 305.309C353.997 305.555 353.021 305.581 351.334 305.581H350.692V302.268H354.252ZM356.651 301.837V303.401H357.759V304.201H356.651V305.81H355.676V301.837H356.651ZM356.651 306.152V308.262H352.433V308.895H356.897V309.686H351.466V307.523H355.676V306.935H351.457V306.152H356.651ZM360.802 302.979C360.793 304.061 361.426 305.045 362.674 305.44L362.147 306.205C361.281 305.902 360.675 305.326 360.336 304.57C359.985 305.436 359.321 306.117 358.359 306.451L357.84 305.66C359.159 305.229 359.818 304.166 359.818 303.023V302.268H360.802V302.979ZM364.546 301.837V306.513H363.571V304.175H361.989V303.375H363.571V301.837H364.546ZM361.857 306.724C363.544 306.724 364.573 307.286 364.573 308.253C364.573 309.22 363.544 309.773 361.857 309.773C360.178 309.773 359.15 309.22 359.159 308.253C359.15 307.286 360.178 306.724 361.857 306.724ZM361.857 307.479C360.749 307.479 360.125 307.752 360.125 308.253C360.125 308.736 360.749 309.009 361.857 309.009C362.964 309.009 363.597 308.736 363.597 308.253C363.597 307.752 362.964 307.479 361.857 307.479ZM372.652 305.388V306.117H370.807V306.662H371.773V308.473H367.221V309.035H372.011V309.712H366.245V307.84H370.807V307.348H366.236V306.662H367.247V306.117H365.393V305.388H372.652ZM371.756 302.013V303.797H367.282V304.28H371.896V304.957H366.315V303.164H370.78V302.681H366.289V302.013H371.756ZM368.214 306.662H369.84V306.117H368.214V306.662ZM374.925 307.813V306.899L377.676 302.637H379.1V306.873H379.935V307.813H379.1V309H378.01V307.813H374.925ZM376.094 306.873H378.027V303.938H377.957L376.094 306.829V306.873ZM382.925 309.088C381.396 309.088 380.482 307.901 380.482 305.818C380.482 303.744 381.396 302.549 382.925 302.549C384.446 302.549 385.369 303.744 385.369 305.818C385.369 307.901 384.455 309.088 382.925 309.088ZM382.925 308.13C383.725 308.13 384.217 307.348 384.217 305.818C384.217 304.298 383.716 303.498 382.925 303.498C382.134 303.498 381.633 304.298 381.633 305.818C381.633 307.348 382.126 308.13 382.925 308.13ZM387.621 305.739C386.716 305.739 386.224 305.071 386.224 304.096C386.224 303.129 386.733 302.461 387.621 302.461C388.544 302.461 389.027 303.129 389.027 304.096C389.027 305.08 388.526 305.739 387.621 305.739ZM387.621 305.036C388.017 305.036 388.21 304.667 388.21 304.096C388.21 303.542 388.034 303.155 387.621 303.164C387.234 303.164 387.032 303.542 387.032 304.096C387.032 304.667 387.234 305.036 387.621 305.036ZM391.778 309.167C390.873 309.176 390.381 308.499 390.381 307.532C390.381 306.557 390.891 305.889 391.778 305.889C392.692 305.889 393.185 306.557 393.185 307.532C393.185 308.508 392.684 309.176 391.778 309.167ZM391.778 308.464C392.183 308.464 392.367 308.095 392.367 307.532C392.367 306.97 392.191 306.583 391.778 306.592C391.392 306.592 391.19 306.979 391.19 307.532C391.19 308.095 391.392 308.464 391.778 308.464ZM387.041 309L391.418 302.637H392.306L387.929 309H387.041Z" fill="#848484"/>
<path d="M388 110C388 107.791 389.791 106 392 106H410C412.209 106 414 107.791 414 110V120C414 122.209 412.209 124 410 124H388V110Z" fill="#22ABFF"/>
<path d="M399.926 110.846V116.857H398.941V116.163H397.386V115.478H398.941V110.846H399.926ZM400.11 117.833V118.624H394.283V116.277H395.259V117.833H400.11ZM393.229 114.414C394.696 114.405 396.665 114.388 398.353 114.177L398.405 114.88C397.75 114.99 397.074 115.064 396.401 115.108V116.638H395.426V115.161C394.683 115.192 393.976 115.196 393.352 115.196L393.229 114.414ZM395.821 111.136C396.981 111.136 397.79 111.707 397.799 112.542C397.79 113.395 396.981 113.939 395.821 113.939C394.644 113.939 393.835 113.395 393.835 112.542C393.835 111.707 394.644 111.136 395.821 111.136ZM395.821 111.856C395.188 111.856 394.758 112.111 394.758 112.542C394.758 112.973 395.188 113.228 395.821 113.228C396.428 113.228 396.858 112.973 396.867 112.542C396.858 112.111 396.428 111.856 395.821 111.856ZM407.039 110.819V112.612H408.155V113.403H407.039V115.152H406.063V110.819H407.039ZM407.039 115.504V117.42H402.82V117.982H407.285V118.712H401.853V116.743H406.063V116.216H401.844V115.504H407.039ZM405.492 111.479V112.226H400.781V111.479H402.653V110.775H403.628V111.479H405.492ZM403.136 112.472C404.314 112.48 405.07 112.981 405.079 113.772C405.07 114.59 404.314 115.073 403.136 115.073C401.959 115.073 401.185 114.59 401.185 113.772C401.185 112.981 401.959 112.48 403.136 112.472ZM403.136 113.175C402.521 113.175 402.134 113.395 402.134 113.772C402.134 114.159 402.521 114.37 403.136 114.37C403.751 114.37 404.147 114.159 404.147 113.772C404.147 113.395 403.751 113.175 403.136 113.175Z" fill="white"/>
<path d="M388 197C388 194.791 389.791 193 392 193H410C412.209 193 414 194.791 414 197V207C414 209.209 412.209 211 410 211H388V197Z" fill="#FF8052"/>
<path d="M396.261 200.596C396.261 201.896 397.025 203.268 398.309 203.804L397.772 204.577C396.832 204.173 396.146 203.338 395.786 202.327C395.417 203.417 394.723 204.331 393.791 204.771L393.229 204.006C394.485 203.426 395.268 201.949 395.268 200.596V199.928H393.519V199.119H398.001V199.928H396.261V200.596ZM399.873 198.337V206.282H398.889V198.337H399.873ZM407.425 198.346V204.173H406.45V202.204H404.56C404.178 202.63 403.615 202.89 402.978 202.89C401.783 202.89 400.877 202.028 400.877 200.859C400.877 199.673 401.783 198.82 402.978 198.82C403.611 198.82 404.169 199.075 404.551 199.497H406.45V198.346H407.425ZM407.627 205.333V206.124H402.213V203.575H403.189V205.333H407.627ZM402.978 199.69C402.293 199.69 401.809 200.147 401.809 200.859C401.809 201.562 402.293 202.02 402.978 202.02C403.628 202.02 404.121 201.562 404.129 200.859C404.121 200.147 403.628 199.69 402.978 199.69ZM404.982 200.288C405.03 200.468 405.061 200.657 405.061 200.859C405.061 201.053 405.035 201.237 404.991 201.413H406.45V200.288H404.982Z" fill="white"/>
<path d="M388 285C388 282.791 389.791 281 392 281H410C412.209 281 414 282.791 414 285V295C414 297.209 412.209 299 410 299H388V285Z" fill="#FF8052"/>
<path d="M396.261 288.596C396.261 289.896 397.025 291.268 398.309 291.804L397.772 292.577C396.832 292.173 396.146 291.338 395.786 290.327C395.417 291.417 394.723 292.331 393.791 292.771L393.229 292.006C394.485 291.426 395.268 289.949 395.268 288.596V287.928H393.519V287.119H398.001V287.928H396.261V288.596ZM399.873 286.337V294.282H398.889V286.337H399.873ZM407.425 286.346V292.173H406.45V290.204H404.56C404.178 290.63 403.615 290.89 402.978 290.89C401.783 290.89 400.877 290.028 400.877 288.859C400.877 287.673 401.783 286.82 402.978 286.82C403.611 286.82 404.169 287.075 404.551 287.497H406.45V286.346H407.425ZM407.627 293.333V294.124H402.213V291.575H403.189V293.333H407.627ZM402.978 287.69C402.293 287.69 401.809 288.147 401.809 288.859C401.809 289.562 402.293 290.02 402.978 290.02C403.628 290.02 404.121 289.562 404.129 288.859C404.121 288.147 403.628 287.69 402.978 287.69ZM404.982 288.288C405.03 288.468 405.061 288.657 405.061 288.859C405.061 289.053 405.035 289.237 404.991 289.413H406.45V288.288H404.982Z" fill="white"/>
<g clip-path="url(#clip0_295_680)">
<rect y="397" width="460" height="213" rx="10" fill="white"/>
<g filter="url(#filter4_d_295_680)">
<rect x="30" y="469" width="400" height="341" rx="10" fill="#F7F9FC" shape-rendering="crispEdges"/>
<rect x="50" y="523" width="360" height="6" rx="3" fill="white"/>
<rect x="50" y="523.482" width="101.837" height="5.54217" rx="2.77108" fill="#9CA0FF"/>
<g filter="url(#filter5_d_295_680)">
<rect x="147.681" y="519.325" width="13.8554" height="13.8554" rx="6.92771" fill="#5767C6"/>
</g>
<path d="M52.6825 542.961C51.2665 542.961 50.4573 541.774 50.4573 539.69C50.4573 537.623 51.2841 536.418 52.6825 536.418C54.0809 536.418 54.9076 537.623 54.9076 539.69C54.9076 541.774 54.0896 542.961 52.6825 542.961ZM52.6825 542.258C53.5971 542.258 54.1336 541.334 54.1336 539.69C54.1336 538.045 53.5971 537.104 52.6825 537.104C51.7678 537.104 51.2225 538.045 51.2225 539.69C51.2225 541.334 51.759 542.258 52.6825 542.258ZM57.1008 539.461C56.274 539.461 55.8255 538.845 55.8255 537.931C55.8255 537.034 56.2916 536.409 57.1008 536.409C57.9363 536.409 58.376 537.034 58.376 537.931C58.376 538.845 57.9187 539.461 57.1008 539.461ZM57.1008 538.916C57.5317 538.916 57.734 538.529 57.734 537.931C57.734 537.342 57.5493 536.946 57.1008 536.955C56.6786 536.955 56.4675 537.342 56.4675 537.931C56.4675 538.529 56.6786 538.916 57.1008 538.916ZM60.9881 542.961C60.1614 542.97 59.7041 542.346 59.7129 541.44C59.7041 540.534 60.179 539.91 60.9881 539.91C61.8149 539.91 62.2546 540.534 62.2546 541.44C62.2546 542.346 61.7973 542.97 60.9881 542.961ZM60.9881 542.416C61.4103 542.416 61.6126 542.029 61.6126 541.44C61.6126 540.842 61.4279 540.446 60.9881 540.455C60.566 540.464 60.3461 540.842 60.3461 541.44C60.3461 542.029 60.5572 542.416 60.9881 542.416ZM56.4499 542.874L60.8298 536.506H61.5422L57.1623 542.874H56.4499Z" fill="black"/>
<path d="M390.85 536.777V543.145H390.049V537.604H390.014L388.466 538.633V537.832L390.049 536.777H390.85ZM394.424 543.232C393.008 543.232 392.198 542.045 392.198 539.961C392.198 537.894 393.025 536.689 394.424 536.689C395.822 536.689 396.649 537.894 396.649 539.961C396.649 542.045 395.831 543.232 394.424 543.232ZM394.424 542.529C395.338 542.529 395.875 541.605 395.875 539.961C395.875 538.316 395.338 537.375 394.424 537.375C393.509 537.375 392.964 538.316 392.964 539.961C392.964 541.605 393.5 542.529 394.424 542.529ZM399.581 543.232C398.165 543.232 397.356 542.045 397.356 539.961C397.356 537.894 398.182 536.689 399.581 536.689C400.979 536.689 401.806 537.894 401.806 539.961C401.806 542.045 400.988 543.232 399.581 543.232ZM399.581 542.529C400.495 542.529 401.032 541.605 401.032 539.961C401.032 538.316 400.495 537.375 399.581 537.375C398.666 537.375 398.121 538.316 398.121 539.961C398.121 541.605 398.657 542.529 399.581 542.529ZM403.999 539.732C403.172 539.732 402.724 539.116 402.724 538.202C402.724 537.305 403.19 536.68 403.999 536.68C404.834 536.68 405.274 537.305 405.274 538.202C405.274 539.116 404.817 539.732 403.999 539.732ZM403.999 539.187C404.43 539.187 404.632 538.8 404.632 538.202C404.632 537.613 404.447 537.217 403.999 537.226C403.577 537.226 403.366 537.613 403.366 538.202C403.366 538.8 403.577 539.187 403.999 539.187ZM407.886 543.232C407.06 543.241 406.602 542.617 406.611 541.711C406.602 540.805 407.077 540.181 407.886 540.181C408.713 540.181 409.153 540.805 409.153 541.711C409.153 542.617 408.695 543.241 407.886 543.232ZM407.886 542.687C408.308 542.687 408.511 542.3 408.511 541.711C408.511 541.113 408.326 540.717 407.886 540.726C407.464 540.735 407.244 541.113 407.244 541.711C407.244 542.3 407.455 542.687 407.886 542.687ZM403.348 543.145L407.728 536.777H408.44L404.061 543.145H403.348Z" fill="black"/>
<path d="M154.608 520.711L157.008 518.633H152.209L154.608 520.711Z" fill="#222222"/>
<g filter="url(#filter6_d_295_680)">
<path d="M137.289 496.464C137.289 494.551 138.84 493 140.753 493H169.681C171.594 493 173.144 494.551 173.144 496.464V515.392C173.144 517.305 171.594 518.855 169.681 518.855H140.753C138.84 518.855 137.289 517.305 137.289 515.392V496.464Z" fill="#222222" shape-rendering="crispEdges"/>
<path d="M144.662 507.649V506.664L147.627 502.07H149.161V506.636H150.061V507.649H149.161V508.928H147.986V507.649H144.662ZM145.922 506.636H148.005V503.472H147.93L145.922 506.588V506.636ZM153.367 509.022C151.719 509.022 150.734 507.744 150.734 505.499C150.734 503.264 151.719 501.976 153.367 501.976C155.005 501.976 156 503.264 156 505.499C156 507.744 155.015 509.022 153.367 509.022ZM153.367 507.99C154.229 507.99 154.759 507.147 154.759 505.499C154.759 503.86 154.219 502.999 153.367 502.999C152.514 502.999 151.974 503.86 151.974 505.499C151.974 507.147 152.505 507.99 153.367 507.99ZM158.51 505.414C157.535 505.414 157.004 504.694 157.004 503.643C157.004 502.601 157.554 501.881 158.51 501.881C159.505 501.881 160.026 502.601 160.026 503.643C160.026 504.703 159.486 505.414 158.51 505.414ZM158.51 504.656C158.937 504.656 159.145 504.258 159.145 503.643C159.145 503.046 158.956 502.629 158.51 502.639C158.094 502.639 157.876 503.046 157.876 503.643C157.876 504.258 158.094 504.656 158.51 504.656ZM162.99 509.108C162.015 509.117 161.484 508.388 161.484 507.346C161.484 506.295 162.034 505.575 162.99 505.575C163.975 505.575 164.506 506.295 164.506 507.346C164.506 508.397 163.966 509.117 162.99 509.108ZM162.99 508.35C163.426 508.35 163.625 507.952 163.625 507.346C163.625 506.74 163.436 506.323 162.99 506.333C162.574 506.333 162.356 506.749 162.356 507.346C162.356 507.952 162.574 508.35 162.99 508.35ZM157.885 508.928L162.602 502.07H163.559L158.842 508.928H157.885Z" fill="white"/>
</g>
<rect x="50" y="561.855" width="360" height="56.8072" rx="10" fill="white"/>
<path d="M71.7709 586.039V592.97H70.8069V591.093H69.3455V590.322H70.8069V589.195H69.3455V588.404H70.8069V586.039H71.7709ZM69.3151 587.095V587.876H64.2005V587.095H66.3316V586.029H67.2855V587.095H69.3151ZM66.7984 588.313C68.0263 588.313 68.8889 589.023 68.899 590.058C68.8889 591.103 68.0263 591.814 66.7984 591.814C65.5705 591.814 64.7079 591.103 64.7079 590.058C64.7079 589.023 65.5705 588.313 66.7984 588.313ZM66.7984 589.063C66.088 589.074 65.6111 589.459 65.6111 590.058C65.6111 590.677 66.088 591.063 66.7984 591.063C67.4986 591.063 67.9857 590.677 67.9959 590.058C67.9857 589.459 67.4986 589.074 66.7984 589.063ZM71.9739 594.148V594.929H65.8343V592.362H66.8085V594.148H71.9739ZM80.8181 586.029V595.122H79.8946V590.454H78.8088V594.675H77.8954V586.202H78.8088V589.642H79.8946V586.029H80.8181ZM75.7238 588.434C75.7238 590.068 76.3428 591.55 77.662 592.23L77.0938 592.97C76.2007 592.488 75.602 591.641 75.2773 590.586C74.9677 591.783 74.3639 592.737 73.4405 593.285L72.8417 592.554C74.1711 591.803 74.7902 590.241 74.7902 588.434V587.846H73.0853V587.064H77.3069V587.846H75.7238V588.434ZM88.5107 586.537V587.308H85.4054V589.52C87.1204 589.525 88.1555 589.449 89.3327 589.216L89.4443 589.977C88.1859 590.251 87.0798 590.291 85.172 590.291H84.4515V586.537H88.5107ZM91.21 586.029V587.886H92.5293V588.678H91.21V590.596H90.246V586.029H91.21ZM91.21 591.022V593.346H86.2984V594.229H91.5246V595.01H85.3546V592.605H90.2561V591.793H85.3343V591.022H91.21ZM96.0661 587.389C96.0661 588.668 96.8881 589.804 98.2682 590.251L97.7405 591.002C96.7409 590.642 96.0052 589.941 95.6094 589.033C95.2136 590.073 94.4221 590.88 93.3261 591.276L92.8086 590.505C94.2597 590.007 95.102 588.8 95.1122 587.43V586.537H96.0661V587.389ZM100.42 586.029V591.398H99.4555V588.668H97.5375V587.876H99.4555V586.029H100.42ZM97.3752 591.651C99.283 591.651 100.45 592.28 100.45 593.387C100.45 594.483 99.283 595.112 97.3752 595.102C95.4673 595.112 94.2902 594.483 94.3003 593.387C94.2902 592.28 95.4673 591.651 97.3752 591.651ZM97.3752 592.402C96.0458 592.402 95.2542 592.757 95.2542 593.387C95.2542 593.995 96.0458 594.34 97.3752 594.34C98.7046 594.34 99.4961 593.995 99.4961 593.387C99.4961 592.757 98.7046 592.402 97.3752 592.402ZM109.923 590.139V590.86H107.742V591.59H108.898V593.59H103.561V594.351H109.183V595.031H102.597V592.95H107.945V592.28H102.586V591.59H103.794V590.86H101.602V590.139H109.923ZM108.878 586.263V588.221H103.621V588.891H109.03V589.571H102.668V587.582H107.914V586.932H102.647V586.263H108.878ZM104.748 591.59H106.788V590.86H104.748V591.59Z" fill="#5767C6"/>
<path d="M318.885 576.058H381.235C382.957 576.058 384.352 577.453 384.352 579.175V601.344C384.352 603.065 382.957 604.461 381.235 604.461H318.885C317.164 604.461 315.768 603.065 315.768 601.344V579.175C315.768 577.453 317.164 576.058 318.885 576.058Z" fill="white"/>
<path d="M318.885 576.058H381.235C382.957 576.058 384.352 577.453 384.352 579.175V601.344C384.352 603.065 382.957 604.461 381.235 604.461H318.885C317.164 604.461 315.768 603.065 315.768 601.344V579.175C315.768 577.453 317.164 576.058 318.885 576.058Z" stroke="#EEEEEE" stroke-width="0.692771"/>
<path d="M324.208 591.857V591.157L327.296 586.402H328.347V591.109H329.304V591.857H328.347V593.259H327.533V591.857H324.208ZM325.127 591.109H327.533V587.482H327.448L325.127 591.052V591.109ZM332.468 593.354C330.943 593.354 330.072 592.075 330.072 589.831C330.072 587.605 330.962 586.307 332.468 586.307C333.974 586.307 334.864 587.605 334.864 589.831C334.864 592.075 333.984 593.354 332.468 593.354ZM332.468 592.596C333.453 592.596 334.031 591.602 334.031 589.831C334.031 588.059 333.453 587.046 332.468 587.046C331.483 587.046 330.896 588.059 330.896 589.831C330.896 591.602 331.474 592.596 332.468 592.596Z" fill="#222222"/>
<path d="M393.72 589.696C392.829 589.696 392.346 589.033 392.346 588.048C392.346 587.082 392.848 586.409 393.72 586.409C394.619 586.409 395.093 587.082 395.093 588.048C395.093 589.033 394.601 589.696 393.72 589.696ZM393.72 589.108C394.184 589.108 394.402 588.692 394.402 588.048C394.402 587.413 394.203 586.987 393.72 586.996C393.265 586.996 393.038 587.413 393.038 588.048C393.038 588.692 393.265 589.108 393.72 589.108ZM397.906 593.465C397.016 593.475 396.523 592.802 396.533 591.827C396.523 590.851 397.035 590.179 397.906 590.179C398.796 590.179 399.27 590.851 399.27 591.827C399.27 592.802 398.777 593.475 397.906 593.465ZM397.906 592.878C398.361 592.878 398.579 592.461 398.579 591.827C398.579 591.183 398.38 590.756 397.906 590.766C397.451 590.775 397.215 591.183 397.215 591.827C397.215 592.461 397.442 592.878 397.906 592.878ZM393.019 593.371L397.736 586.513H398.503L393.786 593.371H393.019Z" fill="#222222"/>
</g>
<path d="M43.11 436.49H30.48V435.14H36.045V433.775H31.425V429.74C31.425 429.42 31.495 429.19 31.635 429.05C31.775 428.91 32.005 428.84 32.325 428.84H42.165V432.65C42.165 433.04 42.075 433.325 41.895 433.505C41.715 433.685 41.43 433.775 41.04 433.775H37.545V435.14H43.11V436.49ZM42.24 442.415H40.74V438.875H31.35V437.525H42.24V442.415ZM40.665 432.425V430.19H32.925V432.425H40.665ZM56.4038 441.47H43.7737V440.12H46.8488V437.75H48.3487V440.12H51.8287V437.75H53.3288V440.12H56.4038V441.47ZM55.9088 436.85H44.2687V435.5H46.6238L46.2937 431.06H47.7937L48.1238 435.5H51.9938L52.3688 431.06H53.8688L53.4937 435.5H55.9088V436.85ZM55.5338 430.31H44.6437V428.96H55.5338V430.31ZM72.004 442.37H61.609V438.425H70.354V437.345H61.579V435.995H71.854V438.845C71.854 439.165 71.784 439.395 71.644 439.535C71.504 439.675 71.274 439.745 70.954 439.745H63.109V441.02H72.004V442.37ZM69.529 434.915H60.964V429.875C60.964 429.555 61.034 429.325 61.174 429.185C61.314 429.045 61.544 428.975 61.864 428.975H68.779V430.325H62.464V433.565H69.529V434.915ZM71.854 435.35H70.354V428.81H71.854V431.06H73.624V432.44H71.854V435.35ZM77.9177 442.37C77.0077 442.37 76.3027 442.135 75.8027 441.665C75.3027 441.205 75.0527 440.55 75.0527 439.7C75.0527 438.85 75.3027 438.195 75.8027 437.735C76.3027 437.265 77.0077 437.03 77.9177 437.03H83.1527C84.0627 437.03 84.7677 437.265 85.2677 437.735C85.7677 438.195 86.0177 438.85 86.0177 439.7C86.0177 440.55 85.7677 441.205 85.2677 441.665C84.7677 442.135 84.0627 442.37 83.1527 442.37H77.9177ZM85.7477 436.55H84.2477V433.115H81.8627V436.1H80.3627V430.325H79.0427C78.7227 430.325 78.4927 430.39 78.3527 430.52C78.2227 430.64 78.1027 430.82 77.9927 431.06L75.7577 436.1H74.0927L76.4627 430.715C76.5927 430.435 76.7127 430.185 76.8227 429.965C76.9327 429.745 77.0627 429.565 77.2127 429.425C77.3727 429.275 77.5627 429.165 77.7827 429.095C78.0027 429.015 78.2827 428.975 78.6227 428.975H81.8627V431.735H84.2477V428.81H85.7477V436.55ZM82.9577 441.02C83.4877 441.02 83.8777 440.895 84.1277 440.645C84.3877 440.405 84.5177 440.09 84.5177 439.7C84.5177 439.31 84.3877 438.995 84.1277 438.755C83.8777 438.505 83.4877 438.38 82.9577 438.38H78.1127C77.5827 438.38 77.1877 438.505 76.9277 438.755C76.6777 438.995 76.5527 439.31 76.5527 439.7C76.5527 440.09 76.6777 440.405 76.9277 440.645C77.1877 440.895 77.5827 441.02 78.1127 441.02H82.9577ZM99.1615 442.415H88.1215V438.995H97.5115V438.245H88.0915V436.895H90.3265V436.115H87.2515V434.765H99.8815V436.115H96.8065V436.895H99.0115V439.415C99.0115 439.735 98.9415 439.965 98.8015 440.105C98.6615 440.245 98.4315 440.315 98.1115 440.315H89.6215V441.065H99.1615V442.415ZM99.1165 434.135H88.1965V430.79H97.4365V430.115H88.1665V428.765H98.9365V430.985C98.9365 431.375 98.8465 431.66 98.6665 431.84C98.4865 432.02 98.2015 432.11 97.8115 432.11H89.6965V432.785H99.1165V434.135ZM95.3065 436.895V436.115H91.8265V436.895H95.3065ZM115.422 442.37H104.937V438.125H106.437V441.02H115.422V442.37ZM115.332 439.28H113.832V428.81H115.332V432.455H117.102V433.835H115.332V439.28ZM112.122 434.63H110.622L110.967 430.67C110.977 430.53 110.962 430.44 110.922 430.4C110.892 430.35 110.807 430.325 110.667 430.325H104.712V428.975H111.912C112.162 428.975 112.332 429.04 112.422 429.17C112.512 429.29 112.547 429.465 112.527 429.695L112.122 434.63ZM113.082 436.97H104.202V435.62H106.917V432.665H108.417V435.62H113.082V436.97ZM129.225 442.37H127.725V428.81H129.225V442.37ZM126.525 441.05H118.035V434.015H124.14V430.295H118.005V428.975H125.64V434.18C125.64 434.57 125.55 434.855 125.37 435.035C125.19 435.215 124.905 435.305 124.515 435.305H119.535V439.73H126.525V441.05Z" fill="black"/>
</g>
<defs>
<filter id="filter0_d_295_680" x="81.2" y="208.2" width="16.5092" height="19.6342" filterUnits="userSpaceOnUse" color-interpolation-filters="sRGB">
<feFlood flood-opacity="0" result="BackgroundImageFix"/>
<feColorMatrix in="SourceAlpha" type="matrix" values="0 0 0 0 0 0 0 0 0 0 0 0 0 0 0 0 0 0 127 0" result="hardAlpha"/>
<feOffset dy="1"/>
<feGaussianBlur stdDeviation="1.4"/>
<feComposite in2="hardAlpha" operator="out"/>
<feColorMatrix type="matrix" values="0 0 0 0 0.341176 0 0 0 0 0.4 0 0 0 0 1 0 0 0 0.19 0"/>
<feBlend mode="normal" in2="BackgroundImageFix" result="effect1_dropShadow_295_680"/>
<feBlend mode="normal" in="SourceGraphic" in2="effect1_dropShadow_295_680" result="shape"/>
</filter>
<filter id="filter1_d_295_680" x="80.7449" y="296.2" width="16.5092" height="19.2362" filterUnits="userSpaceOnUse" color-interpolation-filters="sRGB">
<feFlood flood-opacity="0" result="BackgroundImageFix"/>
<feColorMatrix in="SourceAlpha" type="matrix" values="0 0 0 0 0 0 0 0 0 0 0 0 0 0 0 0 0 0 127 0" result="hardAlpha"/>
<feOffset dy="1"/>
<feGaussianBlur stdDeviation="1.4"/>
<feComposite in2="hardAlpha" operator="out"/>
<feColorMatrix type="matrix" values="0 0 0 0 0.341176 0 0 0 0 0.4 0 0 0 0 1 0 0 0 0.19 0"/>
<feBlend mode="normal" in2="BackgroundImageFix" result="effect1_dropShadow_295_680"/>
<feBlend mode="normal" in="SourceGraphic" in2="effect1_dropShadow_295_680" result="shape"/>
</filter>
<filter id="filter2_d_295_680" x="42" y="210" width="22" height="22" filterUnits="userSpaceOnUse" color-interpolation-filters="sRGB">
<feFlood flood-opacity="0" result="BackgroundImageFix"/>
<feColorMatrix in="SourceAlpha" type="matrix" values="0 0 0 0 0 0 0 0 0 0 0 0 0 0 0 0 0 0 127 0" result="hardAlpha"/>
<feOffset dy="3"/>
<feGaussianBlur stdDeviation="2"/>
<feComposite in2="hardAlpha" operator="out"/>
<feColorMatrix type="matrix" values="0 0 0 0 0 0 0 0 0 0 0 0 0 0 0 0 0 0 0.02 0"/>
<feBlend mode="normal" in2="BackgroundImageFix" result="effect1_dropShadow_295_680"/>
<feBlend mode="normal" in="SourceGraphic" in2="effect1_dropShadow_295_680" result="shape"/>
</filter>
<filter id="filter3_d_295_680" x="42" y="298" width="22" height="22" filterUnits="userSpaceOnUse" color-interpolation-filters="sRGB">
<feFlood flood-opacity="0" result="BackgroundImageFix"/>
<feColorMatrix in="SourceAlpha" type="matrix" values="0 0 0 0 0 0 0 0 0 0 0 0 0 0 0 0 0 0 127 0" result="hardAlpha"/>
<feOffset dy="3"/>
<feGaussianBlur stdDeviation="2"/>
<feComposite in2="hardAlpha" operator="out"/>
<feColorMatrix type="matrix" values="0 0 0 0 0 0 0 0 0 0 0 0 0 0 0 0 0 0 0.02 0"/>
<feBlend mode="normal" in2="BackgroundImageFix" result="effect1_dropShadow_295_680"/>
<feBlend mode="normal" in="SourceGraphic" in2="effect1_dropShadow_295_680" result="shape"/>
</filter>
<filter id="filter4_d_295_680" x="23.8" y="439.8" width="448.4" height="389.4" filterUnits="userSpaceOnUse" color-interpolation-filters="sRGB">
<feFlood flood-opacity="0" result="BackgroundImageFix"/>
<feColorMatrix in="SourceAlpha" type="matrix" values="0 0 0 0 0 0 0 0 0 0 0 0 0 0 0 0 0 0 127 0" result="hardAlpha"/>
<feOffset dx="18" dy="-5"/>
<feGaussianBlur stdDeviation="12.1"/>
<feComposite in2="hardAlpha" operator="out"/>
<feColorMatrix type="matrix" values="0 0 0 0 0 0 0 0 0 0 0 0 0 0 0 0 0 0 0.01 0"/>
<feBlend mode="normal" in2="BackgroundImageFix" result="effect1_dropShadow_295_680"/>
<feBlend mode="normal" in="SourceGraphic" in2="effect1_dropShadow_295_680" result="shape"/>
</filter>
<filter id="filter5_d_295_680" x="144.91" y="519.325" width="19.3976" height="19.3976" filterUnits="userSpaceOnUse" color-interpolation-filters="sRGB">
<feFlood flood-opacity="0" result="BackgroundImageFix"/>
<feColorMatrix in="SourceAlpha" type="matrix" values="0 0 0 0 0 0 0 0 0 0 0 0 0 0 0 0 0 0 127 0" result="hardAlpha"/>
<feOffset dy="2.77108"/>
<feGaussianBlur stdDeviation="1.38554"/>
<feComposite in2="hardAlpha" operator="out"/>
<feColorMatrix type="matrix" values="0 0 0 0 0 0 0 0 0 0 0 0 0 0 0 0 0 0 0.25 0"/>
<feBlend mode="normal" in2="BackgroundImageFix" result="effect1_dropShadow_295_680"/>
<feBlend mode="normal" in="SourceGraphic" in2="effect1_dropShadow_295_680" result="shape"/>
</filter>
<filter id="filter6_d_295_680" x="133.132" y="491.614" width="44.1687" height="34.1687" filterUnits="userSpaceOnUse" color-interpolation-filters="sRGB">
<feFlood flood-opacity="0" result="BackgroundImageFix"/>
<feColorMatrix in="SourceAlpha" type="matrix" values="0 0 0 0 0 0 0 0 0 0 0 0 0 0 0 0 0 0 127 0" result="hardAlpha"/>
<feOffset dy="2.77108"/>
<feGaussianBlur stdDeviation="2.07831"/>
<feComposite in2="hardAlpha" operator="out"/>
<feColorMatrix type="matrix" values="0 0 0 0 0 0 0 0 0 0 0 0 0 0 0 0 0 0 0.1 0"/>
<feBlend mode="normal" in2="BackgroundImageFix" result="effect1_dropShadow_295_680"/>
<feBlend mode="normal" in="SourceGraphic" in2="effect1_dropShadow_295_680" result="shape"/>
</filter>
<clipPath id="clip0_295_680">
<rect y="397" width="460" height="213" rx="10" fill="white"/>
</clipPath>
</defs>
</svg>
