<svg width="440" height="500" viewBox="0 0 440 500" fill="none" xmlns="http://www.w3.org/2000/svg">
<g clip-path="url(#clip0_208_172)">
<path d="M207.523 227H191.673L191.94 228.042V248.952L191.673 249.994H198.62V232.125H206.04C207.519 232.231 208.267 232.858 208.267 234.321V236.038C208.267 236.084 208.267 236.13 208.267 236.171C208.221 237.537 207.476 238.133 206.046 238.234H204.376H199.356L208.091 249.994H215.328L210.14 243.11C210.692 242.995 211.243 242.857 211.735 242.646C212.69 242.23 213.419 241.602 213.916 240.763C214.543 239.743 214.885 238.353 214.944 236.591C214.944 236.555 214.944 236.518 214.944 236.48C214.944 236.439 214.944 236.393 214.944 236.351C214.944 236.249 214.944 236.148 214.944 236.042V234.327C214.944 231.765 214.35 229.911 213.162 228.762C212.005 227.586 210.125 227 207.523 227Z" fill="#5766FF"/>
<path d="M166 227L166.267 228.042V248.952L166 249.994H172.947V241.063H182.223V248.952L181.956 249.994H188.903V248.952V228.042V227H181.956L182.223 228.038V235.937H172.947V227H166Z" fill="#5766FF"/>
<path d="M241.202 227H248.163L244.633 242.784C244.067 245.307 243.076 247.142 241.647 248.292C240.249 249.418 238.274 249.986 235.72 249.986H227.316C224.762 249.986 223.029 249.421 222.112 248.292C221.228 247.138 221.063 245.302 221.629 242.784L224.929 228.046L224.77 227H231.731L228.199 242.784C227.875 244.221 228.446 244.943 229.907 244.943H235.384C236.845 244.943 237.737 244.221 238.061 242.784L241.358 228.046L241.202 227Z" fill="#0C0C0C"/>
<path d="M182.224 235.933H173.331V241.057H182.224V235.933Z" fill="url(#paint0_linear_208_172)"/>
<path d="M211.716 242.646C212.67 242.23 213.4 241.602 213.896 240.763C214.524 239.743 214.865 238.353 214.925 236.591C214.925 236.555 214.925 236.518 214.925 236.48C214.925 236.439 214.925 236.393 214.925 236.351C214.925 236.249 214.925 236.148 214.925 236.042V234.327C214.925 231.765 214.331 229.911 213.143 228.762C211.992 227.586 210.112 227 207.514 227L206.031 232.125C207.51 232.231 208.258 232.858 208.258 234.321V236.038C208.258 236.084 208.258 236.13 208.258 236.171C208.216 237.403 207.607 238.003 206.434 238.188L210.134 243.107C210.681 242.995 211.228 242.851 211.72 242.641L211.716 242.646Z" fill="url(#paint1_linear_208_172)"/>
<path d="M257.88 232.125H270.235L266.352 227H257.835C255.239 227 253.211 227.587 251.761 228.758C250.536 229.746 249.628 231.262 249.03 233.311C248.937 233.638 248.75 234.501 248.702 234.75C248.379 236.794 248.613 238.312 249.395 239.304C250.322 240.475 252.08 241.062 254.681 241.062H261.217C262.288 241.062 262.958 241.91 262.724 242.966C262.489 244.023 261.437 244.871 260.364 244.871H246.945L246.715 245.905L246.037 248.945L245.802 250H260.421C263.019 250 265.045 249.414 266.494 248.241C267.513 247.414 268.318 246.227 268.898 244.675C269.292 243.619 269.553 242.47 269.646 241.422C269.792 239.789 269.525 238.547 268.851 237.699C267.926 236.528 266.166 235.941 263.571 235.941H257.034C255.963 235.941 255.294 235.092 255.529 234.035C255.76 232.979 256.815 232.13 257.885 232.13L257.88 232.125Z" fill="#0C0C0C"/>
<path d="M272.177 232.125L273.327 227H268.295L272.177 232.125Z" fill="#5766FF"/>
</g>
<defs>
<linearGradient id="paint0_linear_208_172" x1="181.915" y1="238.494" x2="173.485" y2="238.494" gradientUnits="userSpaceOnUse">
<stop stop-opacity="0.3"/>
<stop offset="0.04" stop-color="#141414" stop-opacity="0.28"/>
<stop offset="1" stop-color="white" stop-opacity="0"/>
</linearGradient>
<linearGradient id="paint1_linear_208_172" x1="206.562" y1="238.958" x2="213.789" y2="229.904" gradientUnits="userSpaceOnUse">
<stop stop-opacity="0.3"/>
<stop offset="0.04" stop-color="#141414" stop-opacity="0.28"/>
<stop offset="1" stop-color="white" stop-opacity="0"/>
</linearGradient>
<clipPath id="clip0_208_172">
<rect width="108" height="23" fill="white" transform="translate(166 227)"/>
</clipPath>
</defs>
</svg>
