<svg xmlns="http://www.w3.org/2000/svg" width="680" height="640" fill="none" xmlns:v="https://vecta.io/nano"><g clip-path="url(#D)"><g filter="url(#B)"><rect x="60" y="312" width="560" height="428" rx="20" fill="#fff"/><mask id="A" fill="#fff"><path d="M80 336.444c0-2.454 1.99-4.444 4.444-4.444h93.667c2.455 0 4.445 1.99 4.445 4.444V364H80v-27.556z"/></mask><path d="M79.111 336.444c0-2.945 2.388-5.333 5.333-5.333h93.667c2.946 0 5.333 2.388 5.333 5.333h-1.777c0-1.963-1.592-3.555-3.556-3.555H84.444c-1.964 0-3.555 1.592-3.555 3.555h-1.778zM182.556 364H80h102.556zm-103.445 0v-27.556c0-2.945 2.388-5.333 5.333-5.333v1.778c-1.964 0-3.555 1.592-3.555 3.555V364h-1.778zm99-32.889c2.946 0 5.333 2.388 5.333 5.333V364h-1.777v-27.556c0-1.963-1.592-3.555-3.556-3.555v-1.778z" fill="#222" mask="url(#A)"/><path d="M101.847 345.998c0 1.726.887 3.5 2.37 4.29l-.559.717c-1.075-.589-1.853-1.695-2.248-3.002-.389 1.386-1.161 2.589-2.236 3.221l-.571-.705c1.459-.851 2.334-2.734 2.345-4.521v-.498h-2.09v-.79h2.09v-1.628h.911v1.628h2.066v.79h-2.078v.498zm6.125-3.317v10.803h-.923v-5.614h-1.471v5.068h-.911v-10.027h.911v4.145h1.471v-4.375h.923zm11.048 5.347v.79h-9.844v-.79h2.443v-1.519c-.863-.335-1.349-.887-1.349-1.617 0-1.276 1.458-2.005 3.828-2.005 2.345 0 3.816.729 3.816 2.005 0 .723-.48 1.276-1.337 1.605v1.531h2.443zm-4.922 1.616c2.321 0 3.707.668 3.719 1.908-.012 1.228-1.398 1.908-3.719 1.908-2.345 0-3.731-.68-3.731-1.908 0-1.24 1.386-1.908 3.731-1.908zm0 .729c-1.738.012-2.771.438-2.759 1.179-.012.729 1.021 1.167 2.759 1.167 1.714 0 2.759-.438 2.759-1.167 0-.741-1.045-1.167-2.759-1.179zm0-6.732c-1.762 0-2.856.474-2.844 1.251-.012.79 1.082 1.252 2.844 1.252 1.75 0 2.844-.462 2.844-1.252 0-.777-1.094-1.251-2.844-1.251zm-1.531 4.387h3.062v-1.264c-.455.079-.966.121-1.531.121s-1.076-.042-1.531-.121v1.264zm11.983 1.482c2.321 0 3.792.73 3.792 1.981 0 1.24-1.471 1.969-3.792 1.969-2.309 0-3.779-.729-3.779-1.969 0-1.251 1.47-1.981 3.779-1.981zm0 .73c-1.726.012-2.844.486-2.832 1.251-.012.754 1.106 1.216 2.832 1.216s2.832-.462 2.844-1.216c-.012-.765-1.118-1.239-2.844-1.251zm3.707-7v.911c0 .875 0 1.75-.304 2.868l-.936-.109c.292-1.118.292-1.908.292-2.759v-.134h-6.466v-.777h7.414zm1.251 4.484v.778h-9.831v-.778h4.071v-2.09h.936v2.09h4.824zm9.31-3.95v1.082c-.012 1.325-.012 2.807-.401 4.983l-.972-.11c.413-2.066.413-3.585.413-4.873v-.292h-6.66v-.79h7.62zm1.179 7.389v.79h-9.844v-.79h3.865v-3.864h.936v3.864h5.043zm12.458-8.482v6.441h-.96v-2.832h-2.175v-.79h2.175v-2.819h.96zm-3.585 6.781c2.248 0 3.621.729 3.621 2.005s-1.373 2.005-3.621 2.017c-2.248-.012-3.622-.741-3.622-2.017s1.374-2.005 3.622-2.005zm0 .741c-1.653 0-2.686.474-2.674 1.264-.012.778 1.021 1.252 2.674 1.252s2.673-.474 2.673-1.252c0-.79-1.02-1.264-2.673-1.264zm-1.616-5.542c0 1.41 1.081 2.747 2.661 3.294l-.498.765c-1.216-.437-2.157-1.342-2.613-2.467a4.74 4.74 0 0 1-2.759 2.771l-.498-.765c1.604-.584 2.746-2.042 2.746-3.585v-.401h-2.442v-.803h5.821v.803h-2.418v.388zm16.625 6.648v.79h-9.892v-.79h4.448v-2.333h-3.281v-5.53h.96v1.957h5.614v-1.957h.936v5.53h-3.293v2.333h4.508zm-7.765-3.111h5.614v-2.017h-5.614v2.017z" fill="#000"/><path d="M185.223 336.444c0-2.454 1.99-4.444 4.444-4.444h80c2.455 0 4.445 1.99 4.445 4.444V364h-88.889v-27.556z" fill="#f7f9fc"/><path d="M217.95 342.693v7.923h-.96v-4.144h-2.224v-.79h2.224v-2.989h.96zm.304 9.758v.802h-7.243v-3.354h.96v2.552h6.283zm-5.505-7.534c0 1.397 1.082 2.758 2.661 3.293l-.498.766c-1.221-.438-2.163-1.349-2.625-2.467-.468 1.245-1.464 2.242-2.746 2.722l-.499-.778c1.592-.559 2.747-1.981 2.747-3.536v-.559h-2.443v-.79h5.821v.79h-2.418v.559zm12.858-1.021v.778h-6.113v-.778h2.625v-1.301h.948v1.301h2.54zm-3.026 1.337c1.446 0 2.467.79 2.467 1.993 0 1.215-1.021 2.005-2.467 2.005-1.458 0-2.455-.79-2.442-2.005-.013-1.203.984-1.993 2.442-1.993zm0 .717c-.936.012-1.555.522-1.555 1.276 0 .765.619 1.264 1.555 1.264s1.568-.499 1.58-1.264c-.012-.754-.644-1.264-1.58-1.276zm5.858-3.269v6.987h-.96v-1.494h-1.884v-.79h1.884v-1.313h-1.872v-.79h1.872v-2.6h.96zm-3.561 7.097c2.248 0 3.622.668 3.622 1.847 0 1.155-1.374 1.835-3.622 1.835-2.272 0-3.634-.68-3.634-1.835 0-1.179 1.362-1.847 3.634-1.847zm0 .741c-1.641 0-2.649.401-2.649 1.106 0 .681 1.008 1.094 2.649 1.094 1.616 0 2.613-.413 2.613-1.094 0-.705-.997-1.106-2.613-1.106zm13.539-7.838v3.22h1.641v.802h-1.641v3.804h-.948v-7.826h.948zm-3.123.935v.802h-3.865v3.367c2.169 0 3.403-.055 4.849-.353l.122.79c-1.519.292-2.808.365-5.08.365h-.839v-4.971h4.813zm3.621 8.835v.802h-7.255v-3.536h.936v2.734h6.319zm10.793-9.77v10.803h-.912v-10.803h.912zm-2.188.291v9.966h-.911v-3.744h-2.006v-.789h2.006v-1.921h-1.823c-.529 1.829-1.714 3.446-3.755 4.667l-.584-.693c2.352-1.391 3.531-3.342 3.719-5.602h-3.233v-.79h4.181a9.03 9.03 0 0 1-.146 1.628h1.641v-2.722h.911z" fill="#888"/><path d="M276.777 336.444c0-2.454 1.99-4.444 4.445-4.444h82.666c2.455 0 4.445 1.99 4.445 4.444V364h-91.556v-27.556z" fill="#f7f9fc"/><path d="M299.074 345.998c0 1.835 1.337 3.695 2.929 4.387l-.535.754c-1.264-.577-2.358-1.823-2.856-3.318-.51 1.586-1.598 2.965-2.832 3.585l-.571-.753c1.544-.742 2.893-2.783 2.905-4.655v-1.409h-2.552v-.79h6.088v.79h-2.576v1.409zm5.043-3.317v10.803h-.96v-10.803h.96zm10.489.012v8.203h-.96v-1.118h-2.236v-.693h2.236v-6.392h.96zm.267 9.758v.802h-7.68v-3.159h.96v2.357h6.72zm-9.236-4.751l7.036-.316.061.692a29.65 29.65 0 0 1-2.965.304v2.139h-.96v-2.09l-3.038.048-.134-.777zm3.549-4.57c1.579 0 2.661.754 2.673 1.884-.012 1.154-1.094 1.871-2.673 1.871-1.592 0-2.674-.717-2.674-1.871 0-1.13 1.082-1.884 2.674-1.884zm0 .729c-1.058-.012-1.775.462-1.763 1.155-.012.705.705 1.167 1.763 1.167 1.02 0 1.75-.462 1.762-1.167-.012-.693-.742-1.167-1.762-1.155zm10.804 1.726c0 1.957 1.252 3.925 2.82 4.642l-.572.778c-1.227-.632-2.242-1.926-2.722-3.463-.48 1.616-1.495 3.001-2.722 3.658l-.62-.766c1.58-.778 2.844-2.856 2.844-4.849v-1.969h.972v1.969zm5.153-2.904v10.828h-.948v-6.356h-2.564v-.778h2.564v-3.694h.948zm13.345 0v5.59h-.96v-2.807h-2.406v-.79h2.406v-1.993h.96zm0 6.137v2.576h-6.04v1.179h6.441v.766h-7.377v-2.674h6.028v-1.082h-6.052v-.765h7zm-5.274-4.764c-.012 1.422 1.106 2.71 2.685 3.232l-.51.742c-1.197-.426-2.151-1.276-2.625-2.37-.462 1.233-1.44 2.175-2.722 2.637l-.523-.765c1.629-.535 2.747-1.896 2.759-3.476v-1.021h.936v1.021zm15.763-1.373v6.441h-.961v-2.832h-2.175v-.79h2.175v-2.819h.961zm-3.586 6.781c2.249 0 3.622.729 3.622 2.005s-1.373 2.005-3.622 2.017c-2.248-.012-3.621-.741-3.621-2.017s1.373-2.005 3.621-2.005zm0 .741c-1.652 0-2.685.474-2.673 1.264-.012.778 1.021 1.252 2.673 1.252s2.674-.474 2.674-1.252c0-.79-1.021-1.264-2.674-1.264zm-1.616-5.542c0 1.41 1.082 2.747 2.662 3.294l-.499.765c-1.215-.437-2.157-1.342-2.612-2.467a4.74 4.74 0 0 1-2.759 2.771l-.498-.765c1.604-.584 2.746-2.042 2.746-3.585v-.401h-2.443v-.803h5.822v.803h-2.419v.388z" fill="#888"/><path d="M88.229 393.036v-10.583h1.235v10.583h-1.235zm-3.667-6.891h1.525v-3.493h1.222v9.874h-1.222v-5.328h-1.525v-1.053zm-.941-.8c-.003.616.072 1.21.224 1.782a5.08 5.08 0 0 0 .713 1.554c.323.464.729.836 1.218 1.115l-.767.957a3.89 3.89 0 0 1-1.218-1.14c-.334-.478-.595-1.029-.783-1.653-.193.677-.463 1.278-.808 1.802s-.755.937-1.239 1.235l-.796-.961a3.93 3.93 0 0 0 1.231-1.193c.329-.495.572-1.042.729-1.641s.24-1.221.24-1.857v-.704h-1.84v-1.053h4.807v1.053h-1.711v.704zm12.211 1.214v1.119h4.181v1.053h-9.651v-1.053h4.164v-1.119h-2.95v-3.679h7.21v3.679h-2.954zm1.67-2.656H92.85v1.625h4.653v-1.625zm.025 6.746h-6.095v-1.027h7.405v3.414h-1.309v-2.387z" fill="#999"/><rect x="80.5" y="406.5" width="519" height="33" rx="4.417" fill="#fff"/><rect x="80.5" y="406.5" width="519" height="33" rx="4.417" stroke="#ddd"/><path d="M94.313 418.514h1.521V427h-1.521v-8.486zm4.991 1.284h-2.623v-1.284h6.759v1.284h-2.619V427h-1.517v-7.202zm7.949.551h1.4v-1.611h-1.458v-.982h7.898v.982h-1.459v1.611h1.401v.987h-7.782v-.987zm2.697 0h2.379v-1.611h-2.379v1.611zm-3.621 2.681v-1.031h9.65v1.031h-9.65zm8.449 3.228h-6.025v.721h6.315v.97h-7.591v-2.59h6.016v-.667h-6.029v-.945h7.314v2.511zm9.381-5.109h-1.106v2.569h-1.214v-6.062h1.214v2.441h1.106v-2.636h1.239v7.148h-1.239v-3.46zm-2.739 2.159c-.591.122-1.17.202-1.736.24l-2.176.054h-.721v-3.195h2.756v-1.135h-2.772v-1.048h4.028v3.132h-2.748v1.219l1.72-.071a14.62 14.62 0 0 0 1.525-.219l.124 1.023zm1.003 1.04c-.003.403.139.789.427 1.156s.694.682 1.222.945 1.144.435 1.84.526l-.522 1.011c-.826-.121-1.554-.36-2.184-.717s-1.108-.798-1.434-1.326c-.331.528-.812.97-1.442 1.326s-1.352.596-2.175.717l-.522-1.011c.69-.091 1.299-.266 1.827-.526s.935-.577 1.222-.945.433-.753.436-1.156v-.224h1.305v.224zm9.394-2.668v.977h4.185v1.032h-9.651v-1.032h4.156v-.977h-3.232v-1.053h1.401v-1.811h-1.459v-1.052h7.898v1.052h-1.459v1.811h1.401v1.053h-3.24zm.534-2.864h-2.378v1.811h2.378v-1.811zm2.482 9.096h-7.342v-3.398h7.342v3.398zm-1.268-2.383h-4.79v1.33h4.79v-1.33zm12.872-4.653v-3.423h1.293v10.608h-1.293v-6.133h-2.217v-1.052h2.217zm-3.676-.879c0 .663.103 1.304.307 1.923a5.1 5.1 0 0 0 .903 1.641c.398.475.872.834 1.422 1.077l-.792 1.04c-.585-.287-1.09-.697-1.512-1.23a6.07 6.07 0 0 1-.982-1.865 6.56 6.56 0 0 1-1.003 1.985c-.431.572-.943 1.007-1.537 1.305l-.821-1.057a3.99 3.99 0 0 0 1.442-1.143c.406-.506.716-1.078.928-1.716s.321-1.294.324-1.96v-1.695h1.321v1.695zm13.6-2.544h1.313v10.608h-1.313v-10.608zm-6.945.862h1.305v2.648h2.565v-2.648h1.289v7.243h-5.159v-7.243zm1.305 3.667v2.507h2.565v-2.507h-2.565zm12.937-1.193a4.87 4.87 0 0 1-.932 1.288 5.6 5.6 0 0 1-1.347.987c-.508.27-1.055.468-1.641.592l-.572-1.086c.713-.129 1.358-.381 1.935-.754s1.031-.817 1.359-1.334.499-1.044.502-1.583v-.779h1.384v.779c0 .544.164 1.075.493 1.591s.783.962 1.363 1.335 1.236.618 1.96.745l-.584 1.086c-.589-.121-1.138-.316-1.649-.584s-.958-.601-1.347-.991a4.79 4.79 0 0 1-.924-1.292zm-4.786 5.904v-1.077h9.684v1.077h-9.684zm11.225-7.462h5.959v-.647h-5.984v-.895h7.285v2.387h-5.967v.684h6.149v.899h-7.442v-2.428zm-1.226 4.002v-.977h9.683v.977h-9.683zm8.507 3.05h-6.071v.738h6.394v.903h-7.691v-2.486h6.075v-.651h-6.087v-.92h7.38v2.416zm7.808-7.815h2.49v1.04h-6.286v-1.04h2.499v-1.085h1.297v1.085zm4.554 1.662h1.479v1.098h-1.479v2.606h-1.31v-6.381h1.31v2.677zm-2.619 1.666a1.61 1.61 0 0 1-.328.998c-.218.287-.523.51-.915.667s-.836.237-1.339.237c-.514 0-.968-.079-1.363-.237s-.697-.38-.916-.667-.323-.623-.323-.998.108-.703.323-.991.525-.509.92-.667.848-.24 1.359-.24c.503 0 .949.08 1.339.24s.697.38.915.667a1.59 1.59 0 0 1 .328.991zm-3.92 0a.77.77 0 0 0 .161.501c.111.138.267.244.469.319s.438.109.708.112c.268-.003.503-.04.705-.112s.357-.181.468-.319.171-.308.174-.501a.75.75 0 0 0-.174-.485c-.111-.138-.268-.243-.472-.315a2.01 2.01 0 0 0-.701-.112c-.268 0-.504.037-.708.112s-.358.177-.469.315-.164.297-.161.485zm6.539 6.116h-6.842v-3.568h6.842v3.568zm-1.289-2.54h-4.268v1.487h4.268v-1.487zm10.898 2.664v-10.583h1.251v10.583h-1.251zm-2.027-6.551v-3.775h1.227v9.833h-1.227v-5.006h-1.218c-.119.696-.293 1.357-.522 1.981s-.53 1.206-.903 1.753l-.999-.564c.404-.574.717-1.182.941-1.823a9.94 9.94 0 0 0 .468-1.956 19.91 19.91 0 0 0 .158-2.184h-.925v-1.056h2.047l-.029 1.475-.091 1.322h1.073zm-3.319-2.797c-.002.931-.051 1.79-.145 2.577s-.261 1.553-.509 2.304a8.45 8.45 0 0 1-1.04 2.117l-1.02-.551c.376-.53.676-1.078.899-1.645a8.78 8.78 0 0 0 .489-1.757 14.93 14.93 0 0 0 .199-1.989h-1.284v-1.056h2.411zm17.418 9.348v-10.583h1.313v10.583h-1.313zm-1.844-9.46c-.003 1.102-.163 2.116-.481 3.041s-.837 1.77-1.566 2.54-1.688 1.441-2.884 2.01l-.684-1.044c.917-.437 1.678-.927 2.283-1.471s1.075-1.153 1.401-1.819.527-1.41.605-2.225h-3.75v-1.032h5.076zm8.478-.278h2.486v.958h-6.261v-.958h2.474v-.911h1.301v.911zm3.364 6.295v-7.115h1.318v7.115h-1.318zm-.638-.676a27.07 27.07 0 0 1-3.153.34l-3.506.079-.174-.999 2.806-.033v-.622c-.401-.049-.748-.142-1.04-.277s-.518-.314-.676-.527a1.17 1.17 0 0 1-.232-.729c-.003-.323.102-.605.315-.845s.521-.426.916-.555.855-.195 1.38-.195c.511 0 .962.065 1.355.195s.701.316.919.559.329.521.332.841a1.21 1.21 0 0 1-.249.734c-.16.212-.388.388-.683.526s-.639.228-1.036.277v.568l2.631-.224.095.887zm-4.728-2.768c0 .216.12.384.361.506s.567.182.982.182.75-.059.998-.178.379-.292.382-.51c-.003-.226-.127-.402-.373-.526s-.575-.191-.986-.191c-.423 0-.756.062-.999.187s-.365.301-.365.53zm5.366 4.898h-5.971v-1.011h7.289v3h-1.318v-1.989zm6.299-7.749h2.49v1.003h-6.286v-1.003h2.499v-.928h1.297v.928zm4.554-.87v2.387h1.487v1.052h-1.487v2.337h-1.31v-5.776h1.31zm-2.619 3.937c0 .356-.107.665-.319.928s-.514.458-.904.597-.839.207-1.359.207-.98-.069-1.375-.207-.695-.338-.908-.597-.319-.572-.319-.928c0-.348.106-.652.319-.912s.52-.464.912-.605.849-.215 1.371-.215.97.071 1.359.215.691.343.904.605a1.4 1.4 0 0 1 .319.912zm-3.92 0c-.003.254.115.45.352.588s.566.203.986.203.742-.068.982-.203.362-.334.365-.588c-.003-.252-.126-.448-.369-.589s-.566-.215-.978-.215c-.276 0-.515.032-.717.095s-.356.156-.464.278-.16.265-.157.431zm6.539 4.868h-5.632v.746h5.963v.97h-7.247v-2.623h5.614v-.709h-5.631v-.948h6.933v2.564zM244 420.876v-3.423h1.292v10.608H244v-6.133h-2.217v-1.052H244zm-3.676-.879c0 .663.102 1.304.307 1.923a5.1 5.1 0 0 0 .903 1.641 3.89 3.89 0 0 0 1.421 1.077l-.791 1.04c-.586-.287-1.09-.697-1.512-1.23s-.748-1.155-.982-1.865a6.56 6.56 0 0 1-1.003 1.985 4.37 4.37 0 0 1-1.538 1.305l-.82-1.057a3.99 3.99 0 0 0 1.442-1.143c.406-.506.715-1.078.928-1.716s.321-1.294.323-1.96v-1.695h1.322v1.695zm13.6-2.544h1.313v10.608h-1.313v-10.608zm-6.945.862h1.305v2.648h2.565v-2.648h1.289v7.243h-5.159v-7.243zm1.305 3.667v2.507h2.565v-2.507h-2.565zm12.937-1.193c-.232.469-.543.899-.933 1.288s-.835.716-1.346.987a6.25 6.25 0 0 1-1.641.592l-.572-1.086c.713-.129 1.358-.381 1.935-.754s1.03-.817 1.359-1.334.499-1.044.502-1.583v-.779h1.384v.779c0 .544.164 1.075.493 1.591s.783.962 1.363 1.335 1.236.618 1.96.745l-.584 1.086c-.589-.121-1.139-.316-1.65-.584s-.957-.601-1.346-.991a4.79 4.79 0 0 1-.924-1.292zm-4.786 5.904v-1.077h9.683v1.077h-9.683zm20.028 1.343v-10.583h1.313v10.583h-1.313zm-1.844-9.46c-.003 1.102-.163 2.116-.481 3.041s-.837 1.77-1.566 2.54-1.688 1.441-2.884 2.01l-.684-1.044c.917-.437 1.678-.927 2.283-1.471s1.075-1.153 1.401-1.819.527-1.41.605-2.225h-3.75v-1.032h5.076zm8.478-.278h2.486v.958h-6.261v-.958h2.473v-.911h1.302v.911zm3.364 6.295v-7.115h1.318v7.115h-1.318zm-.638-.676a27.07 27.07 0 0 1-3.153.34l-3.506.079-.174-.999 2.805-.033v-.622a3.5 3.5 0 0 1-1.04-.277c-.292-.138-.518-.314-.675-.527a1.17 1.17 0 0 1-.232-.729c-.003-.323.102-.605.315-.845s.521-.426.916-.555.855-.195 1.379-.195c.511 0 .963.065 1.355.195s.702.316.92.559.329.521.332.841a1.21 1.21 0 0 1-.249.734c-.16.212-.388.388-.684.526s-.638.228-1.035.277v.568l2.631-.224.095.887zm-4.728-2.768c0 .216.12.384.361.506s.567.182.982.182.75-.059.998-.178.379-.292.382-.51c-.003-.226-.128-.402-.373-.526s-.575-.191-.987-.191c-.422 0-.755.062-.998.187s-.365.301-.365.53zm5.366 4.898h-5.971v-1.011h7.289v3h-1.318v-1.989zm10.79-4.475h1.633v1.094h-1.633v5.37h-1.305v-10.583h1.305v4.119zm-4.496-1.115c-.002.553.101 1.111.311 1.674a5.07 5.07 0 0 0 .92 1.538c.403.461.874.817 1.413 1.069l-.729 1.027a4.41 4.41 0 0 1-1.529-1.197 6.06 6.06 0 0 1-1.024-1.824c-.246.746-.595 1.409-1.048 1.989s-.977 1.01-1.57 1.297l-.767-1.027a4.25 4.25 0 0 0 1.434-1.115 5.43 5.43 0 0 0 .949-1.637c.221-.602.332-1.2.335-1.794v-.891h-2.308v-1.069h5.826v1.069h-2.213v.891zm16.639 1.14v-4.144h1.251v10.583h-1.251v-5.366h-1.082v4.86h-1.23v-9.895h1.23v3.962h1.082zm-4.703-.924c0 .558.077 1.099.232 1.624s.397.997.721 1.425a3.65 3.65 0 0 0 1.21 1.02l-.734.961a3.72 3.72 0 0 1-1.23-1.036c-.34-.439-.608-.946-.804-1.521-.194.622-.462 1.174-.804 1.658a3.84 3.84 0 0 1-1.231 1.135l-.754-.974c.475-.273.874-.638 1.198-1.093s.563-.959.721-1.509.241-1.113.244-1.69v-.299h-1.852v-1.065h1.852v-1.483h1.227v1.483h1.827v1.065h-1.823v.299zm14.142 1.873h2.283v1.044h-9.65v-1.044h2.245v-1.347c-.403-.171-.712-.388-.928-.651s-.317-.569-.315-.911c0-.417.155-.777.464-1.078s.75-.531 1.322-.692 1.252-.244 2.031-.244 1.45.081 2.022.244 1.016.391 1.326.692.464.661.464 1.078c0 .345-.109.65-.328.915s-.527.484-.936.655v1.339zm-2.548-3.916c-.522 0-.969.04-1.339.12s-.648.192-.841.344-.289.33-.286.543c-.003.323.21.57.638.741s1.038.253 1.828.253 1.396-.084 1.827-.253.646-.418.646-.741c0-.213-.098-.394-.294-.543s-.475-.267-.845-.344-.815-.12-1.334-.12zm-1.26 3.916h2.511v-1.007a9.77 9.77 0 0 1-1.251.078c-.434 0-.854-.026-1.26-.078v1.007zm1.251 1.682c.76 0 1.415.073 1.964.22s.971.357 1.264.642.444.624.444 1.027a1.38 1.38 0 0 1-.444 1.036c-.293.288-.714.504-1.264.651s-1.201.218-1.964.215c-.77.003-1.432-.069-1.984-.215s-.971-.362-1.264-.647-.44-.631-.44-1.04a1.37 1.37 0 0 1 .44-1.027c.293-.285.715-.499 1.268-.642s1.212-.22 1.98-.22zm0 2.805c.76.006 1.344-.07 1.753-.228s.615-.386.618-.688c-.003-.292-.208-.515-.614-.667s-.991-.23-1.757-.236c-.773.006-1.362.084-1.765.236s-.599.375-.597.667c-.005.302.195.531.601.688s.993.231 1.761.228zm8.43-3.497c0-1.028.137-1.977.41-2.847a8.22 8.22 0 0 1 1.231-2.42h1.4c-.276.362-.529.833-.758 1.413s-.406 1.205-.538 1.882a10.4 10.4 0 0 0-.195 1.972 10.49 10.49 0 0 0 .195 1.981c.132.674.312 1.299.538 1.877s.482 1.047.758 1.408h-1.4c-.547-.743-.957-1.548-1.231-2.415s-.41-1.821-.41-2.851zm8.537-3.257c-.331.84-.878 1.554-1.641 2.142s-1.723 1.044-2.884 1.368l-.518-1.028c1.219-.331 2.163-.798 2.835-1.401s1.063-1.303 1.168-2.104h-3.443v-1.061h4.86c0 .367-.029.718-.087 1.052h2.13v-1.786h1.301v6.187h-1.301v-1.169h-2.523v-1.052h2.523v-1.148h-2.42zm.216 3.489c.712 0 1.338.086 1.877.257s.955.411 1.251.729a1.57 1.57 0 0 1 .448 1.115c0 .431-.15.806-.448 1.127s-.714.562-1.255.733-1.163.257-1.873.257c-.719 0-1.35-.085-1.894-.257s-.96-.415-1.256-.733a1.61 1.61 0 0 1-.443-1.127c0-.428.148-.8.443-1.115s.715-.561 1.256-.729 1.173-.257 1.894-.257zm0 3.182a5.16 5.16 0 0 0 1.21-.124c.339-.083.6-.206.783-.369s.279-.359.281-.588a.76.76 0 0 0-.281-.589c-.183-.163-.444-.286-.783-.368s-.744-.123-1.21-.121c-.476-.002-.886.038-1.231.121s-.605.205-.787.368-.274.357-.274.589.091.429.274.592.444.282.787.365a5.32 5.32 0 0 0 1.231.124zm12.215-7.985v-1.504h1.301v6.514h-1.301v-1.74h-1.873v-1.044h1.873v-1.19h-1.873v-1.036h1.873zm-1.927 4.401c-.596.102-1.205.17-1.827.203l-2.606.05h-.784V420.3h3.332v-1.19h-3.348v-1.031h4.645v3.194h-3.34v1.302l2.171-.054a13.64 13.64 0 0 0 1.637-.207l.12 1.052zm1.927 2.159h-5.942v-1.048h7.243v3.567h-1.301v-2.519zm5.478-1.989c0 1.03-.137 1.981-.41 2.851s-.684 1.672-1.231 2.415h-1.4c.276-.361.527-.831.754-1.408s.409-1.203.538-1.877a10.26 10.26 0 0 0 .199-1.981 10.17 10.17 0 0 0-.199-1.972 10.37 10.37 0 0 0-.538-1.882c-.227-.58-.478-1.051-.754-1.413h1.4a8.22 8.22 0 0 1 1.231 2.42c.273.87.41 1.819.41 2.847z" fill="#2a2929"/><path d="M87.865 525.838v-6.385h1.305v6.385h-1.305zm-4.127-2.594c-.246.558-.593 1.045-1.04 1.459a4.44 4.44 0 0 1-1.591.932l-.675-1.007a4.12 4.12 0 0 0 1.421-.795c.395-.345.693-.738.895-1.177a3.28 3.28 0 0 0 .307-1.363v-.133h-2.279v-1.048h5.83v1.048h-2.229v.133c0 .442.099.87.298 1.284s.496.785.883 1.111.858.569 1.405.737l-.667 1.007c-.591-.188-1.104-.471-1.537-.849s-.773-.825-1.019-1.339zm4.127 4.136h-5.917v-1.049h7.222v3.705h-1.305v-2.656zm3.667-7.384h7.313v4.214h-7.313v-4.214zm1.276 3.195h4.74v-2.155h-4.74v2.155zm-2.457 2.258h9.684v1.052h-4.227v3.527h-1.289v-3.527h-4.169v-1.052zm12.539-5.333h1.305l-2.735 10.16h-1.305l2.735-10.16zm8.938 5.722v-6.385h1.305v6.385h-1.305zm-4.127-2.594c-.246.558-.593 1.045-1.041 1.459s-.977.722-1.591.932l-.675-1.007c.552-.185 1.026-.45 1.421-.795s.694-.738.895-1.177a3.28 3.28 0 0 0 .307-1.363v-.133h-2.279v-1.048h5.83v1.048h-2.229v.133a2.93 2.93 0 0 0 .298 1.284c.202.415.496.785.883 1.111s.857.569 1.404.737l-.667 1.007c-.591-.188-1.103-.471-1.537-.849a4.11 4.11 0 0 1-1.019-1.339zm4.127 4.136h-5.918v-1.049h7.223v3.705h-1.305v-2.656zm12.182-3.377v1.04h-4.14v2.358h-1.301v-2.358h-4.243v-1.04h6.937c.11-.544.181-1.043.211-1.496l.05-1.484h-6v-1.052h7.301v.891l-.042 1.595c-.024.462-.091.977-.198 1.546h1.425zm-8.524 2.44h1.302v2.337h6.219v1.057h-7.521v-3.394z" fill="#999"/><path d="M85.503 633.279c-.331.84-.878 1.554-1.641 2.142s-1.724 1.044-2.884 1.368l-.518-1.028c1.218-.331 2.163-.798 2.834-1.401s1.063-1.303 1.168-2.104h-3.443v-1.061h4.861c0 .367-.029.718-.087 1.052h2.13v-1.786h1.301v6.187h-1.301v-1.169h-2.524v-1.052h2.524v-1.148h-2.42zm.215 3.489c.713 0 1.338.086 1.877.257s.956.411 1.251.729.448.687.448 1.115a1.6 1.6 0 0 1-.448 1.127c-.296.318-.714.562-1.255.733s-1.163.257-1.873.257c-.718 0-1.349-.085-1.894-.257s-.96-.415-1.255-.733a1.61 1.61 0 0 1-.443-1.127c0-.428.148-.8.443-1.115s.714-.561 1.255-.729 1.173-.257 1.894-.257zm0 3.182c.467 0 .87-.041 1.21-.124s.601-.206.783-.369a.77.77 0 0 0 .282-.588c-.003-.232-.097-.428-.282-.589s-.443-.286-.783-.368-.743-.123-1.21-.121c-.475-.002-.885.038-1.231.121s-.605.205-.787.368-.273.357-.273.589.091.429.273.592.445.282.787.365.755.124 1.231.124zm12.216-7.985v-1.504h1.301v6.514h-1.301v-1.74h-1.873v-1.044h1.873v-1.19h-1.873v-1.036h1.873zm-1.927 4.401c-.597.102-1.206.17-1.827.203l-2.606.05h-.783V633.3h3.332v-1.19h-3.348v-1.031h4.645v3.194h-3.34v1.302l2.171-.054a13.65 13.65 0 0 0 1.637-.207l.12 1.052zm1.927 2.159h-5.942v-1.048h7.243v3.567h-1.301v-2.519z" fill="#999"/><rect x="80.5" y="543.5" width="176" height="33" rx="4.417" fill="#fff"/><rect x="80.5" y="543.5" width="176" height="33" rx="4.417" stroke="#ddd"/><path d="M96.207 555.514h1.463V564h-1.533v-6.999h-.05l-1.985 1.268v-1.396l2.105-1.359zm11.11 3.124h1.633v1.098h-1.633v5.3h-1.305v-10.583h1.305v4.185zm-4.566-.824a4.46 4.46 0 0 0 .29 1.587 4.63 4.63 0 0 0 .862 1.437c.381.434.835.777 1.363 1.028l-.729.99c-.558-.259-1.044-.635-1.459-1.127a5.52 5.52 0 0 1-.961-1.694 5.81 5.81 0 0 1-1.007 1.819 4.25 4.25 0 0 1-1.533 1.185l-.725-1.007c.541-.243 1.008-.589 1.4-1.036s.695-.949.899-1.504.308-1.115.311-1.678v-.556H99.2v-1.04h2.254v-1.541h1.309v1.541h2.225v1.04h-2.237v.556zm16.282 3.024v-6.385h1.305v6.385h-1.305zm-4.127-2.594c-.246.558-.593 1.045-1.04 1.459a4.44 4.44 0 0 1-1.592.932l-.675-1.007c.552-.185 1.026-.45 1.421-.795s.694-.738.895-1.177a3.28 3.28 0 0 0 .307-1.363v-.133h-2.279v-1.048h5.83v1.048h-2.229v.133a2.93 2.93 0 0 0 .298 1.284c.202.415.496.785.883 1.111s.857.569 1.404.737l-.667 1.007c-.591-.188-1.103-.471-1.537-.849a4.11 4.11 0 0 1-1.019-1.339zm4.127 4.136h-5.917v-1.049h7.222v3.705h-1.305v-2.656zm12.182-3.377v1.04h-4.139v2.358h-1.302v-2.358h-4.243v-1.04h6.937c.11-.544.181-1.043.211-1.496l.05-1.484h-6v-1.052h7.301v.891l-.041 1.595c-.025.462-.092.977-.199 1.546h1.425zm-8.523 2.44h1.301v2.337h6.219v1.057h-7.52v-3.394zm11.366-6.327h1.305l-2.735 10.16h-1.305l2.735-10.16zm8.938 5.722v-6.385h1.305v6.385h-1.305zm-4.127-2.594c-.246.558-.593 1.045-1.04 1.459a4.44 4.44 0 0 1-1.592.932l-.675-1.007c.552-.185 1.026-.45 1.421-.795s.694-.738.895-1.177a3.28 3.28 0 0 0 .307-1.363v-.133h-2.279v-1.048h5.83v1.048h-2.229v.133a2.93 2.93 0 0 0 .298 1.284c.202.415.496.785.883 1.111s.857.569 1.404.737l-.667 1.007c-.591-.188-1.103-.471-1.537-.849a4.11 4.11 0 0 1-1.019-1.339zm4.127 4.136h-5.917v-1.049h7.222v3.705h-1.305v-2.656zm3.667-7.384h7.313v4.214h-7.313v-4.214zm1.276 3.195h4.74v-2.155h-4.74v2.155zm-2.457 2.258h9.684v1.052h-4.227v3.527h-1.289v-3.527h-4.168v-1.052z" fill="#2a2929"/><g clip-path="url(#E)"><use href="#H" fill="#222"/></g><g clip-path="url(#F)"><path d="M269.909 564c-.257 0-.513-.136-.693-.399-.324-.478-.277-1.192.106-1.597l2.364-2.504-2.365-2.502c-.383-.405-.43-1.12-.106-1.599s.899-.535 1.282-.13l3.183 3.367c.203.216.32.531.32.864s-.117.648-.32.864l-3.183 3.367c-.171.181-.38.269-.588.269z" fill="#222" fill-opacity=".18"/></g><rect x="282.5" y="543.5" width="176" height="33" rx="4.417" fill="#fff"/><rect x="282.5" y="543.5" width="176" height="33" rx="4.417" stroke="#ddd"/><path d="M296.23 564l-.004-1.106 2.996-2.888.754-.804c.179-.21.316-.416.41-.618s.145-.421.145-.65a1.23 1.23 0 0 0-.19-.684c-.128-.196-.303-.347-.527-.452s-.469-.157-.746-.157a1.59 1.59 0 0 0-.758.174 1.18 1.18 0 0 0-.497.489c-.116.213-.174.461-.174.746h-1.45c-.003-.528.118-.992.364-1.393s.589-.709 1.028-.928.945-.331 1.508-.331 1.069.106 1.508.319.781.501 1.024.874.369.794.369 1.264c-.003.331-.067.649-.191.953s-.34.638-.646 1.011-.736.819-1.297 1.347l-1.504 1.496v.062h3.766V564h-5.888zm14.81-5.362h1.632v1.098h-1.632v5.3h-1.306v-10.583h1.306v4.185zm-4.567-.824a4.46 4.46 0 0 0 .291 1.587 4.65 4.65 0 0 0 .861 1.437 4.2 4.2 0 0 0 1.364 1.028l-.73.99c-.558-.259-1.044-.635-1.458-1.127s-.732-1.056-.962-1.694c-.237.687-.573 1.294-1.006 1.819s-.945.919-1.534 1.185l-.725-1.007c.542-.243 1.009-.589 1.401-1.036s.695-.949.899-1.504.308-1.115.311-1.678v-.556h-2.263v-1.04h2.254v-1.541h1.31v1.541h2.225v1.04h-2.238v.556zm16.282 3.024v-6.385h1.306v6.385h-1.306zm-4.127-2.594a4.36 4.36 0 0 1-1.04 1.459c-.447.412-.978.722-1.591.932l-.675-1.007c.552-.185 1.026-.45 1.421-.795a3.5 3.5 0 0 0 .895-1.177 3.28 3.28 0 0 0 .307-1.363v-.133h-2.279v-1.048h5.83v1.048h-2.23v.133a2.93 2.93 0 0 0 .299 1.284c.201.415.496.785.882 1.111s.858.569 1.405.737l-.667 1.007c-.591-.188-1.104-.471-1.537-.849s-.774-.825-1.02-1.339zm4.127 4.136h-5.917v-1.049h7.223v3.705h-1.306v-2.656zm12.183-3.377v1.04h-4.14v2.358h-1.301v-2.358h-4.243v-1.04h6.936c.111-.544.181-1.043.212-1.496l.05-1.484h-6v-1.052h7.301v.891l-.042 1.595c-.025.462-.091.977-.199 1.546h1.426zm-8.524 2.44h1.301v2.337h6.22v1.057h-7.521v-3.394zm11.366-6.327h1.306l-2.735 10.16h-1.306l2.735-10.16zm8.938 5.722v-6.385h1.306v6.385h-1.306zm-4.127-2.594a4.36 4.36 0 0 1-1.04 1.459c-.447.412-.978.722-1.591.932l-.675-1.007c.552-.185 1.026-.45 1.421-.795a3.5 3.5 0 0 0 .895-1.177 3.28 3.28 0 0 0 .307-1.363v-.133h-2.279v-1.048h5.83v1.048h-2.23v.133a2.93 2.93 0 0 0 .299 1.284c.201.415.496.785.882 1.111s.858.569 1.405.737l-.667 1.007c-.591-.188-1.104-.471-1.537-.849s-.774-.825-1.02-1.339zm4.127 4.136h-5.917v-1.049h7.223v3.705h-1.306v-2.656zm3.667-7.384h7.314v4.214h-7.314v-4.214zm1.277 3.195h4.74v-2.155h-4.74v2.155zm-2.457 2.258h9.683v1.052h-4.226v3.527h-1.289v-3.527h-4.168v-1.052z" fill="#2a2929"/><g clip-path="url(#G)"><path d="M438 557.909c0-.257.136-.513.399-.693.478-.324 1.192-.277 1.597.106l2.504 2.364 2.502-2.365c.405-.383 1.12-.43 1.599-.106s.535.899.13 1.282l-3.367 3.183c-.216.203-.531.32-.864.32s-.648-.117-.864-.32l-3.367-3.183c-.181-.171-.269-.38-.269-.588z" fill="#222"/></g><path d="M85.818 463.378v2.308h4.218v1.07h-9.684v-1.07h4.173v-2.308h-3.108v-5.109h7.5v5.109h-3.099zm1.815-4.064h-4.935v3.041h4.935v-3.041zm10.243 3.878v-5.739h1.305v5.739h-1.305zm-4.139-2.254c-.243.539-.59 1.007-1.04 1.405s-.985.69-1.604.886l-.663-1.023c.55-.163 1.022-.402 1.417-.717a3.24 3.24 0 0 0 .899-1.086c.207-.409.313-.835.319-1.28h-2.279v-1.044h5.83v1.044h-2.229c.006.417.109.819.311 1.206s.497.729.887 1.027.855.524 1.396.676l-.65 1.015c-.602-.177-1.124-.448-1.566-.812a3.92 3.92 0 0 1-1.028-1.297zm-.273 3.808h4.421v-1.09h1.297v4.256h-6.999v-4.256h1.28v1.09zm0 2.113h4.421v-1.098h-4.421v1.098zm14.44 1.177v-10.583h1.314v10.583h-1.314zm-1.844-9.46c-.002 1.102-.163 2.116-.48 3.041s-.837 1.77-1.566 2.54-1.688 1.441-2.884 2.01l-.684-1.044c.917-.437 1.678-.927 2.283-1.471s1.075-1.153 1.401-1.819.527-1.41.605-2.225h-3.75v-1.032h5.075zm12.684-1.123v3.046h1.48v1.081h-1.48v3.51h-1.322v-7.637h1.322zm-2.88.8c0 .931-.196 1.773-.588 2.527s-.96 1.4-1.703 1.944-1.634.965-2.681 1.272l-.547-1.036c.804-.232 1.499-.529 2.084-.891s1.047-.779 1.384-1.243.547-.966.622-1.504h-3.638v-1.069h5.067zm-3.924 6.058h1.314v2.469h5.888v1.057h-7.202v-3.526z" fill="#999"/><path d="M197.71 488.453v2.569h1.479v1.086h-1.479v2.677h-1.309v-6.332h1.309zm-5.238 3.667c-.234.575-.566 1.072-.994 1.492a4.15 4.15 0 0 1-1.542.949l-.704-1.028a3.95 3.95 0 0 0 1.405-.824c.386-.357.677-.766.87-1.227a3.84 3.84 0 0 0 .294-1.467v-1.003h1.301v1.123c0 .451.096.882.286 1.293s.477.772.85 1.09.824.561 1.355.729l-.697 1.015c-.56-.19-1.047-.469-1.458-.837a4 4 0 0 1-.966-1.305zm1.79 2.901c.727 0 1.355.078 1.886.236s.942.387 1.226.688a1.49 1.49 0 0 1 .431 1.073c0 .423-.143.784-.431 1.086s-.693.53-1.226.687-1.159.237-1.886.237c-.737 0-1.375-.079-1.914-.237s-.949-.386-1.239-.687a1.52 1.52 0 0 1-.431-1.086 1.49 1.49 0 0 1 .431-1.073c.29-.301.705-.531 1.243-.688s1.176-.236 1.91-.236zm0 2.983c.732-.003 1.292-.087 1.679-.253s.584-.41.584-.733c0-.312-.196-.553-.589-.721s-.95-.257-1.674-.257c-.483 0-.896.039-1.239.116s-.599.185-.779.332-.265.323-.265.53c-.002.323.194.568.589.733s.96.25 1.694.253zm12.601 1.057v-10.608h1.314v10.608h-1.314zm-3.497-8.064c-.003.649.105 1.283.323 1.902s.539 1.165.953 1.645a4.03 4.03 0 0 0 1.459 1.078l-.775 1.044c-.597-.276-1.117-.68-1.562-1.21s-.789-1.154-1.04-1.861a6.35 6.35 0 0 1-1.053 2.014c-.455.575-.997 1.008-1.624 1.301l-.796-1.085c.572-.249 1.068-.622 1.488-1.119a5.3 5.3 0 0 0 .97-1.712c.223-.646.337-1.312.339-1.997v-1.695h1.318v1.695zm11.474 3.381v2.308h4.218v1.07h-9.684v-1.07h4.173v-2.308h-3.108v-5.109h7.5v5.109h-3.099zm1.815-4.064h-4.935v3.041h4.935v-3.041zm10.243 3.878v-5.739h1.305v5.739h-1.305zm-4.14-2.254c-.243.539-.589 1.007-1.04 1.405s-.984.69-1.603.886l-.663-1.023c.55-.163 1.022-.402 1.417-.717s.695-.677.899-1.086a2.87 2.87 0 0 0 .319-1.28h-2.279v-1.044h5.83v1.044h-2.229c.005.417.109.819.311 1.206s.497.729.886 1.027.855.524 1.397.676l-.651 1.015a4.37 4.37 0 0 1-1.566-.812c-.439-.365-.782-.797-1.028-1.297zm-.273 3.808h4.421v-1.09h1.297v4.256h-6.998v-4.256h1.28v1.09zm0 2.113h4.421v-1.098h-4.421v1.098z" fill="#323232"/><path d="M111.71 488.453v2.055h1.479v1.082h-1.479v2.134h-1.309v-5.271h1.309zm-2.117 4.45c-.824.166-1.636.283-2.437.353l-2.465.099h-.883v-4.438h1.309v3.352a24.42 24.42 0 0 0 4.322-.431l.154 1.065zm2.117 4.082h-5.615v.874h5.946v1.053h-7.247v-2.913h5.602v-.792h-5.618v-1.023h6.932v2.801zm10.264-4.471h1.293v1.094h-1.293v5.428h-1.301v-10.583h1.301v4.061zm-3.013-1.231c-.002 1.008.109 1.91.336 2.706s.641 1.416 1.243 1.86l-.824.949c-.658-.511-1.123-1.313-1.397-2.407-.295 1.152-.791 1.985-1.487 2.499-.691-.52-1.181-1.347-1.471-2.483-.279 1.089-.742 1.886-1.389 2.391l-.828-.949c.599-.444 1.012-1.066 1.239-1.864s.341-1.699.344-2.702v-.804h-1.194v-1.056h3.104v1.056h-.68v.804a11.77 11.77 0 0 0 .183 2.13c.124.66.357 1.244.7 1.753.334-.506.563-1.089.688-1.749a11.84 11.84 0 0 0 .199-2.134v-.804h-.688v-1.056h2.962v1.056h-1.04v.804zm15.773 5.035h-1.302v-4.463h-2.104v-1.061h2.104v-2.333h1.302v7.857zm-5.656-3.928c-.233.593-.565 1.11-.999 1.549s-.95.768-1.558.995l-.696-1.036c.552-.188 1.022-.463 1.409-.825a3.61 3.61 0 0 0 .874-1.259 3.97 3.97 0 0 0 .298-1.505v-1.205h1.306v1.222a3.48 3.48 0 0 0 .281 1.376 3.49 3.49 0 0 0 .846 1.176c.375.343.828.605 1.359.788l-.713 1.015c-.561-.21-1.046-.511-1.454-.903s-.724-.858-.953-1.388zm-.009 3.078v2.312h5.897v1.057h-7.214v-3.369h1.317zm14.623-4.363v-2.644h1.239v6.444h-1.239v-2.748h-1.106v2.673h-1.214v-6.174h1.214v2.449h1.106zm-2.809 3.066c-.569.105-1.129.177-1.678.216l-2.035.054h-.19-.705v-5.259h4.16v1.053h-2.904v1.027h2.797v.995h-2.797v1.115l1.744-.063c.489-.038.982-.102 1.479-.19l.129 1.052zm2.751 2.254h-5.958v-1.048h7.255v3.659h-1.297v-2.611z" fill="#323232"/><circle cx="174" cy="494" r="7.5" fill="#fff" stroke="#00aeae"/><rect x="166" y="486" width="16" height="16" rx="8" fill="#00aeae"/><g filter="url(#C)"><circle cx="174" cy="494" r="3" fill="#fff"/></g><circle cx="88" cy="494" r="7.5" fill="#fff" stroke="#ddd"/><rect x="80.5" y="588.5" width="109.44" height="23" rx="2.5" stroke="#eee"/><path d="M94.568 604.863v-8.819h1.095v8.819h-1.095zm-1.537-7.883c-.002.918-.136 1.763-.401 2.535s-.697 1.474-1.305 2.116-1.407 1.201-2.403 1.675l-.57-.87c.764-.364 1.398-.773 1.903-1.226s.895-.961 1.167-1.516.44-1.175.504-1.854h-3.125v-.86h4.23zm7.065-.231h2.072v.797H96.95v-.797h2.061v-.76h1.084v.76zm2.804 5.245v-5.929h1.098v5.929H102.9zm-.532-.563a22.47 22.47 0 0 1-2.628.283l-2.921.066-.145-.832 2.338-.028v-.518c-.334-.042-.623-.119-.867-.231s-.432-.262-.563-.439-.196-.38-.193-.608c-.002-.269.085-.504.263-.704s.434-.355.763-.463.713-.162 1.15-.162c.426 0 .803.054 1.129.162s.585.264.767.466.274.434.276.701a1 1 0 0 1-.207.611c-.133.178-.323.324-.57.439a2.89 2.89 0 0 1-.863.231v.473l2.193-.186.079.739zm-3.94-2.307c0 .18.1.32.3.422s.473.152.818.152.625-.05.832-.149.316-.243.318-.425c-.002-.188-.106-.335-.311-.438s-.479-.159-.822-.159c-.352 0-.63.052-.832.155s-.304.251-.304.442zm4.472 4.082h-4.976v-.843h6.074v2.5H102.9v-1.657zm4.725-3.471v-1.218l4.72 2.185v.988l-4.72 2.182v-1.219l3.322-1.426v-.062l-3.322-1.43zm13.968-.839v-2.852h1.077v8.84h-1.077v-5.111h-1.848v-.877h1.848zm-3.063-.732a5.09 5.09 0 0 0 .255 1.603 4.26 4.26 0 0 0 .753 1.367c.332.396.726.695 1.184.898l-.659.866c-.488-.239-.908-.581-1.26-1.025s-.623-.962-.819-1.554c-.198.626-.476 1.178-.835 1.654s-.787.839-1.282 1.088l-.683-.881a3.32 3.32 0 0 0 1.201-.953c.339-.421.597-.898.774-1.429s.267-1.079.269-1.634v-1.412h1.102v1.412zm11.333-2.12h1.094v8.84h-1.094v-8.84zm-5.788.718h1.088v2.207h2.137v-2.207h1.074v6.036h-4.299v-6.036zm1.088 3.056v2.089h2.137v-2.089h-2.137zm10.78-.994c-.193.391-.452.749-.776 1.074s-.697.596-1.123.822a5.17 5.17 0 0 1-1.367.493l-.477-.904c.594-.108 1.132-.318 1.613-.629s.859-.681 1.133-1.112.415-.87.417-1.319v-.649h1.154v.649c0 .454.137.896.411 1.326s.652.801 1.136 1.112 1.03.516 1.633.622l-.487.904c-.49-.101-.948-.263-1.374-.486a4.68 4.68 0 0 1-1.122-.826 4 4 0 0 1-.771-1.077zm-3.988 4.92v-.897h8.07v.897h-8.07zm16.69 1.119v-8.819h1.095v8.819h-1.095zm-1.537-7.883c-.002.918-.135 1.763-.4 2.535s-.698 1.474-1.305 2.116-1.407 1.201-2.404 1.675l-.569-.87c.764-.364 1.398-.773 1.902-1.226s.896-.961 1.167-1.516.44-1.175.504-1.854h-3.125v-.86h4.23zm7.065-.231h2.072v.797h-5.217v-.797h2.061v-.76h1.084v.76zm2.804 5.245v-5.929h1.098v5.929h-1.098zm-.532-.563a22.47 22.47 0 0 1-2.627.283l-2.922.066-.145-.832 2.338-.028v-.518c-.334-.042-.623-.119-.867-.231s-.431-.262-.562-.439-.196-.38-.194-.608a1.01 1.01 0 0 1 .263-.704c.179-.2.434-.355.763-.463a3.69 3.69 0 0 1 1.15-.162c.425 0 .802.054 1.129.162s.584.264.766.466a1.03 1.03 0 0 1 .277.701c-.003.228-.072.432-.208.611s-.323.324-.569.439-.532.19-.864.231v.473l2.193-.186.079.739zm-3.939-2.307c0 .18.1.32.3.422s.473.152.818.152.625-.05.833-.149.315-.243.317-.425c-.002-.188-.106-.335-.311-.438s-.478-.159-.821-.159c-.353 0-.63.052-.833.155s-.303.251-.303.442zm4.471 4.082h-4.976v-.843h6.074v2.5h-1.098v-1.657zm8.992-3.729h1.36v.911h-1.36v4.475h-1.088v-8.819h1.088v3.433zm-3.747-.929c-.002.46.084.925.259 1.395a4.23 4.23 0 0 0 .767 1.281 3.56 3.56 0 0 0 1.177.891l-.607.856c-.484-.226-.908-.558-1.274-.998a5.05 5.05 0 0 1-.853-1.519 5.42 5.42 0 0 1-.874 1.657c-.377.481-.814.842-1.309 1.081l-.638-.856c.453-.214.851-.524 1.194-.929a4.52 4.52 0 0 0 .791-1.364c.184-.502.277-1 .28-1.495v-.743h-1.924v-.891h4.855v.891h-1.844v.743z" fill="#2a2929"/><path d="M182.272 597.798c-.213-.197-.545-.186-.743.026l-1.309 1.405-1.31-1.405c-.198-.212-.53-.223-.743-.026s-.224.53-.026.743l1.36 1.459-1.36 1.459c-.197.213-.186.546.026.743.102.094.23.141.357.141.141 0 .281-.055.386-.167l1.31-1.405 1.309 1.404c.104.112.245.167.386.167.127 0 .256-.047.357-.141.212-.197.225-.53.026-.743l-1.36-1.458 1.36-1.459c.198-.213.186-.546-.026-.743z" fill="#999"/></g></g><defs><filter id="B" x="17.6" y="265.6" width="644.8" height="512.8" filterUnits="userSpaceOnUse" color-interpolation-filters="sRGB"><feFlood flood-opacity="0" result="A"/><feColorMatrix in="SourceAlpha" values="0 0 0 0 0 0 0 0 0 0 0 0 0 0 0 0 0 0 127 0" result="B"/><feOffset dy="-4"/><feGaussianBlur stdDeviation="21.2"/><feComposite in2="B" operator="out"/><feColorMatrix values="0 0 0 0 0.142104 0 0 0 0 0.54285 0 0 0 0 0.557692 0 0 0 0.13 0"/><feBlend in2="A"/><feBlend in="SourceGraphic"/></filter><filter id="C" x="167" y="489" width="14" height="14" filterUnits="userSpaceOnUse" color-interpolation-filters="sRGB"><feFlood flood-opacity="0" result="A"/><feColorMatrix in="SourceAlpha" values="0 0 0 0 0 0 0 0 0 0 0 0 0 0 0 0 0 0 127 0" result="B"/><feOffset dy="2"/><feGaussianBlur stdDeviation="2"/><feComposite in2="B" operator="out"/><feColorMatrix values="0 0 0 0 0 0 0 0 0 0 0 0 0 0 0 0 0 0 0.1 0"/><feBlend in2="A"/><feBlend in="SourceGraphic"/></filter><clipPath id="D"><rect width="680" height="640" rx="16" fill="#fff"/></clipPath><clipPath id="E"><path fill="#fff" transform="translate(236 557)" d="M0 0h9v5H0z"/></clipPath><clipPath id="F"><path fill="#fff" transform="matrix(0 -1 1 0 269 564)" d="M0 0h9v5H0z"/></clipPath><clipPath id="G"><path fill="#fff" transform="translate(438 557)" d="M0 0h9v5H0z"/></clipPath><path id="H" d="M236 557.909c0-.257.136-.513.399-.693.478-.324 1.192-.277 1.597.106l2.504 2.364 2.502-2.365c.405-.383 1.12-.43 1.599-.106s.535.899.13 1.282l-3.367 3.183c-.216.203-.531.32-.864.32s-.648-.117-.864-.32l-3.367-3.183c-.181-.171-.269-.38-.269-.588z"/></defs></svg>