<svg xmlns="http://www.w3.org/2000/svg" width="680" height="420" fill="none"><g clip-path="url(#a)" filter="url(#b)"><rect width="560" height="428" x="60" y="92" fill="#fff" rx="20"/><mask id="c" fill="#fff"><path d="M80 116.444A4.444 4.444 0 0 1 84.444 112h93.667a4.445 4.445 0 0 1 4.445 4.444V144H80z"/></mask><path fill="#222" d="M79.111 116.444a5.333 5.333 0 0 1 5.333-5.333h93.667a5.333 5.333 0 0 1 5.333 5.333h-1.777a3.556 3.556 0 0 0-3.556-3.555H84.444a3.556 3.556 0 0 0-3.555 3.555zM182.556 144H80zm-103.445 0v-27.556a5.333 5.333 0 0 1 5.333-5.333v1.778a3.556 3.556 0 0 0-3.555 3.555V144zm99-32.889a5.333 5.333 0 0 1 5.333 5.333V144h-1.777v-27.556a3.556 3.556 0 0 0-3.556-3.555z" mask="url(#c)"/><path fill="#000" d="M101.847 125.998c0 1.726.887 3.5 2.37 4.29l-.559.717c-1.075-.589-1.853-1.695-2.248-3.002-.389 1.386-1.161 2.589-2.236 3.221l-.572-.705c1.459-.851 2.334-2.734 2.346-4.521v-.498h-2.09v-.79h2.09v-1.628h.911v1.628h2.066v.79h-2.078zm6.125-3.317v10.803h-.923v-5.614h-1.471v5.068h-.911v-10.027h.911v4.145h1.471v-4.375zm11.048 5.347v.79h-9.844v-.79h2.443v-1.519c-.863-.335-1.349-.887-1.349-1.617 0-1.276 1.458-2.005 3.828-2.005 2.345 0 3.816.729 3.816 2.005 0 .723-.48 1.276-1.337 1.605v1.531zm-4.922 1.616c2.321 0 3.707.668 3.719 1.908-.012 1.228-1.398 1.908-3.719 1.908-2.345 0-3.731-.68-3.731-1.908 0-1.24 1.386-1.908 3.731-1.908m0 .729c-1.738.012-2.771.438-2.759 1.179-.012.729 1.021 1.167 2.759 1.167 1.714 0 2.759-.438 2.759-1.167 0-.741-1.045-1.167-2.759-1.179m0-6.732c-1.762 0-2.856.474-2.844 1.251-.012.79 1.082 1.252 2.844 1.252 1.75 0 2.844-.462 2.844-1.252 0-.777-1.094-1.251-2.844-1.251m-1.531 4.387h3.062v-1.264a9 9 0 0 1-1.531.121 9 9 0 0 1-1.531-.121zm11.983 1.482c2.321 0 3.792.73 3.792 1.981 0 1.24-1.471 1.969-3.792 1.969-2.309 0-3.779-.729-3.779-1.969 0-1.251 1.47-1.981 3.779-1.981m0 .73c-1.726.012-2.844.486-2.832 1.251-.012.754 1.106 1.216 2.832 1.216s2.832-.462 2.844-1.216c-.012-.765-1.118-1.239-2.844-1.251m3.707-7v.911c0 .875 0 1.75-.304 2.868l-.936-.109c.292-1.118.292-1.908.292-2.759v-.134h-6.466v-.777zm1.251 4.484v.778h-9.831v-.778h4.071v-2.09h.936v2.09zm9.31-3.95v1.082c-.012 1.325-.012 2.807-.401 4.983l-.972-.11c.413-2.066.413-3.585.413-4.873v-.292h-6.66v-.79zm1.179 7.389v.79h-9.844v-.79h3.865v-3.864h.936v3.864zm12.458-8.482v6.441h-.96v-2.832h-2.175v-.79h2.175v-2.819zm-3.585 6.781c2.248 0 3.621.729 3.621 2.005s-1.373 2.005-3.621 2.017c-2.248-.012-3.622-.741-3.622-2.017s1.374-2.005 3.622-2.005m0 .741c-1.653 0-2.686.474-2.674 1.264-.012.778 1.021 1.252 2.674 1.252s2.673-.474 2.673-1.252c0-.79-1.02-1.264-2.673-1.264m-1.616-5.542c0 1.41 1.081 2.747 2.661 3.294l-.498.765c-1.216-.437-2.157-1.342-2.613-2.467a4.74 4.74 0 0 1-2.759 2.771l-.498-.765c1.604-.584 2.746-2.042 2.746-3.585v-.401h-2.442v-.803h5.821v.803h-2.418zm16.625 6.648v.79h-9.892v-.79h4.448v-2.333h-3.281v-5.53h.96v1.957h5.614v-1.957h.936v5.53h-3.293v2.333zm-7.765-3.111h5.614v-2.017h-5.614z"/><path fill="#F7F9FC" d="M185.223 116.444a4.444 4.444 0 0 1 4.444-4.444h80a4.445 4.445 0 0 1 4.445 4.444V144h-88.889z"/><path fill="#888" d="M217.95 122.693v7.923h-.96v-4.144h-2.224v-.79h2.224v-2.989zm.304 9.758v.802h-7.243v-3.354h.96v2.552zm-5.505-7.534c0 1.397 1.082 2.758 2.661 3.293l-.498.766c-1.221-.438-2.163-1.349-2.625-2.467a4.67 4.67 0 0 1-2.746 2.722l-.499-.778c1.592-.559 2.747-1.981 2.747-3.536v-.559h-2.443v-.79h5.821v.79h-2.418zm12.858-1.021v.778h-6.113v-.778h2.625v-1.301h.948v1.301zm-3.026 1.337c1.446 0 2.467.79 2.467 1.993 0 1.215-1.021 2.005-2.467 2.005-1.458 0-2.455-.79-2.442-2.005-.013-1.203.984-1.993 2.442-1.993m0 .717c-.936.012-1.555.522-1.555 1.276 0 .765.619 1.264 1.555 1.264s1.568-.499 1.58-1.264c-.012-.754-.644-1.264-1.58-1.276m5.858-3.269v6.987h-.96v-1.494h-1.884v-.79h1.884v-1.313h-1.872v-.79h1.872v-2.6zm-3.561 7.097c2.248 0 3.622.668 3.622 1.847 0 1.155-1.374 1.835-3.622 1.835-2.272 0-3.634-.68-3.634-1.835 0-1.179 1.362-1.847 3.634-1.847m0 .741c-1.641 0-2.649.401-2.649 1.106 0 .681 1.008 1.094 2.649 1.094 1.616 0 2.613-.413 2.613-1.094 0-.705-.997-1.106-2.613-1.106m13.539-7.838v3.22h1.641v.802h-1.641v3.804h-.948v-7.826zm-3.123.935v.802h-3.865v3.367c2.169 0 3.403-.055 4.849-.353l.122.79c-1.519.292-2.808.365-5.08.365h-.839v-4.971zm3.621 8.835v.802h-7.255v-3.536h.936v2.734zm10.793-9.77v10.803h-.912v-10.803zm-2.188.291v9.966h-.911v-3.744h-2.006v-.789h2.006v-1.921h-1.823c-.529 1.829-1.714 3.446-3.755 4.667l-.584-.693c2.352-1.391 3.531-3.342 3.719-5.602h-3.233v-.79h4.181c0 .553-.049 1.1-.146 1.628h1.641v-2.722z"/><path fill="#F7F9FC" d="M276.777 116.444a4.445 4.445 0 0 1 4.445-4.444h82.666a4.445 4.445 0 0 1 4.445 4.444V144h-91.556z"/><path fill="#888" d="M299.074 125.998c0 1.835 1.337 3.695 2.929 4.387l-.535.754c-1.264-.577-2.358-1.823-2.856-3.318-.51 1.586-1.598 2.965-2.832 3.585l-.571-.753c1.544-.742 2.893-2.783 2.905-4.655v-1.409h-2.552v-.79h6.088v.79h-2.576zm5.043-3.317v10.803h-.96v-10.803zm10.489.012v8.203h-.96v-1.118h-2.236v-.693h2.236v-6.392zm.267 9.758v.802h-7.68v-3.159h.96v2.357zm-9.236-4.751c2.017-.013 4.715-.025 7.036-.316l.061.692a30 30 0 0 1-2.965.304v2.139h-.96v-2.09a59 59 0 0 1-3.038.048zm3.549-4.57c1.579 0 2.661.754 2.673 1.884-.012 1.154-1.094 1.871-2.673 1.871-1.592 0-2.674-.717-2.674-1.871 0-1.13 1.082-1.884 2.674-1.884m0 .729c-1.058-.012-1.775.462-1.763 1.155-.012.705.705 1.167 1.763 1.167 1.02 0 1.75-.462 1.762-1.167-.012-.693-.742-1.167-1.762-1.155m10.804 1.726c0 1.957 1.252 3.925 2.82 4.642l-.572.778c-1.227-.632-2.242-1.926-2.722-3.463-.48 1.616-1.495 3.001-2.722 3.658l-.62-.766c1.58-.778 2.844-2.856 2.844-4.849v-1.969h.972zm5.153-2.904v10.828h-.948v-6.356h-2.564v-.778h2.564v-3.694zm13.345 0v5.59h-.96v-2.807h-2.406v-.79h2.406v-1.993zm0 6.137v2.576h-6.04v1.179h6.441v.766h-7.377v-2.674h6.028v-1.082h-6.052v-.765zm-5.274-4.764c-.012 1.422 1.106 2.71 2.685 3.232l-.51.742c-1.197-.426-2.151-1.276-2.625-2.37-.462 1.233-1.44 2.175-2.722 2.637l-.523-.765c1.629-.535 2.747-1.896 2.759-3.476v-1.021h.936zm15.763-1.373v6.441h-.961v-2.832h-2.175v-.79h2.175v-2.819zm-3.586 6.781c2.249 0 3.622.729 3.622 2.005s-1.373 2.005-3.622 2.017c-2.248-.012-3.621-.741-3.621-2.017s1.373-2.005 3.621-2.005m0 .741c-1.652 0-2.685.474-2.673 1.264-.012.778 1.021 1.252 2.673 1.252s2.674-.474 2.674-1.252c0-.79-1.021-1.264-2.674-1.264m-1.616-5.542c0 1.41 1.082 2.747 2.662 3.294l-.499.765c-1.215-.437-2.157-1.342-2.612-2.467a4.74 4.74 0 0 1-2.759 2.771l-.498-.765c1.604-.584 2.746-2.042 2.746-3.585v-.401h-2.443v-.803h5.822v.803h-2.419z"/><path fill="#999" d="M88.23 173.036v-10.583h1.234v10.583zm-3.668-6.891h1.525v-3.493h1.222v9.874h-1.222v-5.328h-1.525zm-.94-.8q-.005.924.223 1.782a5.1 5.1 0 0 0 .713 1.554q.485.696 1.218 1.115l-.766.957a3.9 3.9 0 0 1-1.219-1.14 5.8 5.8 0 0 1-.783-1.653 6.5 6.5 0 0 1-.808 1.802 4 4 0 0 1-1.239 1.235l-.795-.961a3.9 3.9 0 0 0 1.23-1.193 5.5 5.5 0 0 0 .73-1.641q.24-.904.24-1.857v-.704h-1.84v-1.053h4.807v1.053H83.62zm12.21 1.214v1.119h4.182v1.053h-9.65v-1.053h4.164v-1.119h-2.95v-3.679h7.21v3.679zm1.67-2.656H92.85v1.625h4.653zm.026 6.746h-6.096v-1.027h7.405v3.414h-1.31z"/><rect width="519" height="33" x="80.5" y="186.5" fill="#fff" rx="4.417"/><rect width="519" height="33" x="80.5" y="186.5" stroke="#DDD" rx="4.417"/><path fill="#2A2929" d="M94.313 198.514h1.52V207h-1.52zm4.991 1.284h-2.623v-1.284h6.759v1.284h-2.619V207h-1.517zm7.949.551h1.4v-1.611h-1.458v-.982h7.898v.982h-1.459v1.611h1.401v.987h-7.782zm2.697 0h2.379v-1.611h-2.379zm-3.621 2.681v-1.031h9.65v1.031zm8.449 3.228h-6.025v.721h6.315v.97h-7.591v-2.59h6.016v-.667h-6.029v-.945h7.314zm9.381-5.109h-1.106v2.569h-1.214v-6.062h1.214v2.441h1.106v-2.636h1.239v7.148h-1.239zm-2.739 2.159q-.887.183-1.736.24-.85.054-2.176.054h-.721v-3.195h2.756v-1.135h-2.772v-1.048h4.028v3.132h-2.748v1.219a23 23 0 0 0 1.72-.071 15 15 0 0 0 1.525-.219zm1.003 1.04q-.005.605.427 1.156.43.551 1.222.945.796.39 1.84.526l-.522 1.011q-1.239-.182-2.184-.717t-1.434-1.326q-.497.792-1.442 1.326-.94.536-2.175.717l-.522-1.011q1.035-.136 1.827-.526.792-.394 1.222-.945.432-.551.436-1.156v-.224h1.305zm9.394-2.668v.977h4.185v1.032h-9.651v-1.032h4.156v-.977h-3.232v-1.053h1.401v-1.811h-1.459v-1.052h7.898v1.052h-1.459v1.811h1.401v1.053zm.534-2.864h-2.378v1.811h2.378zm2.482 9.096h-7.342v-3.398h7.342zm-1.268-2.383h-4.79v1.33h4.79zm12.872-4.653v-3.423h1.293v10.608h-1.293v-6.133h-2.217v-1.052zm-3.676-.879q0 .994.307 1.923a5.1 5.1 0 0 0 .903 1.641q.597.712 1.422 1.077l-.792 1.04a4.4 4.4 0 0 1-1.512-1.23 6.1 6.1 0 0 1-.982-1.865 6.6 6.6 0 0 1-1.003 1.985 4.4 4.4 0 0 1-1.537 1.305l-.821-1.057a4 4 0 0 0 1.442-1.143 5.5 5.5 0 0 0 .928-1.716 6.3 6.3 0 0 0 .324-1.96v-1.695h1.321zm13.6-2.544h1.313v10.608h-1.313zm-6.945.862h1.305v2.648h2.565v-2.648h1.289v7.243h-5.159zm1.305 3.667v2.507h2.565v-2.507zm12.937-1.193a4.9 4.9 0 0 1-.932 1.288 5.6 5.6 0 0 1-1.347.987 6.2 6.2 0 0 1-1.641.592l-.572-1.086a5.25 5.25 0 0 0 1.935-.754q.867-.559 1.359-1.334.498-.775.502-1.583v-.779h1.384v.779q0 .817.493 1.591.493.775 1.363 1.335.874.555 1.96.745l-.584 1.086a6.2 6.2 0 0 1-1.649-.584 5.6 5.6 0 0 1-1.347-.991 4.8 4.8 0 0 1-.924-1.292m-4.786 5.904v-1.077h9.684v1.077zm11.225-7.462h5.959v-.647h-5.984v-.895h7.285v2.387h-5.967v.684h6.149v.899h-7.442zm-1.226 4.002v-.977h9.683v.977zm8.507 3.05h-6.071v.738h6.394v.903h-7.691v-2.486h6.075v-.651h-6.087v-.92h7.38zm7.808-7.815h2.49v1.04h-6.286v-1.04h2.499v-1.085h1.297zm4.554 1.662h1.479v1.098h-1.479v2.606h-1.31v-6.381h1.31zm-2.619 1.666q0 .563-.328.998-.327.431-.915.667-.585.237-1.339.237-.77 0-1.363-.237-.588-.236-.916-.667a1.63 1.63 0 0 1-.323-.998q0-.56.323-.991.328-.43.92-.667.593-.24 1.359-.24.754 0 1.339.24.588.237.915.667.328.432.328.991m-3.92 0a.77.77 0 0 0 .161.501q.166.207.469.319.302.108.708.112.402-.004.705-.112.302-.112.468-.319a.8.8 0 0 0 .174-.501.75.75 0 0 0-.174-.485 1.02 1.02 0 0 0-.472-.315 2 2 0 0 0-.701-.112q-.402 0-.708.112a1.02 1.02 0 0 0-.469.315.73.73 0 0 0-.161.485m6.539 6.116h-6.842v-3.568h6.842zm-1.289-2.54h-4.268v1.487h4.268zm10.898 2.664v-10.583h1.251v10.583zm-2.027-6.551v-3.775h1.227v9.833h-1.227v-5.006h-1.218a11.2 11.2 0 0 1-.522 1.981 8 8 0 0 1-.903 1.753l-.999-.564a7.4 7.4 0 0 0 .941-1.823 10 10 0 0 0 .468-1.956q.132-.995.158-2.184h-.925v-1.056h2.047q-.003.795-.029 1.475-.025.675-.091 1.322zm-3.319-2.797q-.003 1.397-.145 2.577a11.6 11.6 0 0 1-.509 2.304 8.5 8.5 0 0 1-1.04 2.117l-1.02-.551q.564-.795.899-1.645a8.8 8.8 0 0 0 .489-1.757 15 15 0 0 0 .199-1.989h-1.284v-1.056zm17.418 9.348v-10.583h1.313v10.583zm-1.844-9.46q-.004 1.653-.481 3.041-.472 1.385-1.566 2.54-1.09 1.156-2.884 2.01l-.684-1.044q1.375-.655 2.283-1.471a6 6 0 0 0 1.401-1.819q.488-1.003.605-2.225h-3.75v-1.032zm8.478-.278h2.486v.958h-6.261v-.958h2.474v-.911h1.301zm3.364 6.295v-7.115h1.318v7.115zm-.638-.676a27 27 0 0 1-3.153.34q-1.637.079-3.506.079l-.174-.999q1.666 0 2.806-.033v-.622a3.5 3.5 0 0 1-1.04-.277 1.75 1.75 0 0 1-.676-.527 1.17 1.17 0 0 1-.232-.729 1.22 1.22 0 0 1 .315-.845q.323-.36.916-.555.592-.195 1.38-.195.766 0 1.355.195.592.194.919.559.328.36.332.841a1.2 1.2 0 0 1-.249.734q-.24.319-.683.526a3.5 3.5 0 0 1-1.036.277v.568q1.467-.075 2.631-.224zm-4.728-2.768q0 .323.361.506.36.182.982.182.626 0 .998-.178.378-.183.382-.51-.004-.34-.373-.526-.37-.19-.986-.191-.635 0-.999.187-.365.186-.365.53m5.366 4.898h-5.971v-1.011h7.289v3h-1.318zm6.299-7.749h2.49v1.003h-6.286v-1.003h2.499v-.928h1.297zm4.554-.87v2.387h1.487v1.052h-1.487v2.337h-1.31v-5.776zm-2.619 3.937q0 .534-.319.928-.32.388-.904.597-.579.207-1.359.207-.783 0-1.375-.207-.589-.209-.908-.597a1.43 1.43 0 0 1-.319-.928q0-.522.319-.912.324-.393.912-.605.588-.216 1.371-.215.775 0 1.359.215.585.212.904.605a1.4 1.4 0 0 1 .319.912m-3.92 0q-.004.381.352.588.356.203.986.203.622 0 .982-.203.361-.207.365-.588-.004-.378-.369-.589-.36-.215-.978-.215-.414 0-.717.095a1 1 0 0 0-.464.278.61.61 0 0 0-.157.431m6.539 4.868h-5.632v.746h5.963v.97h-7.247v-2.623h5.614v-.709h-5.631v-.948h6.933zM244 200.876v-3.423h1.292v10.608H244v-6.133h-2.217v-1.052zm-3.676-.879q0 .994.307 1.923a5.1 5.1 0 0 0 .903 1.641 3.9 3.9 0 0 0 1.421 1.077l-.791 1.04a4.36 4.36 0 0 1-1.512-1.23 6 6 0 0 1-.982-1.865 6.6 6.6 0 0 1-1.003 1.985 4.4 4.4 0 0 1-1.538 1.305l-.82-1.057a4 4 0 0 0 1.442-1.143 5.5 5.5 0 0 0 .928-1.716 6.2 6.2 0 0 0 .323-1.96v-1.695h1.322zm13.6-2.544h1.313v10.608h-1.313zm-6.945.862h1.305v2.648h2.565v-2.648h1.289v7.243h-5.159zm1.305 3.667v2.507h2.565v-2.507zm12.937-1.193a4.9 4.9 0 0 1-.933 1.288 5.6 5.6 0 0 1-1.346.987 6.3 6.3 0 0 1-1.641.592l-.572-1.086a5.25 5.25 0 0 0 1.935-.754q.865-.559 1.359-1.334.498-.775.502-1.583v-.779h1.384v.779q0 .817.493 1.591.493.775 1.363 1.335.874.555 1.96.745l-.584 1.086a6.2 6.2 0 0 1-1.65-.584 5.6 5.6 0 0 1-1.346-.991 4.8 4.8 0 0 1-.924-1.292m-4.786 5.904v-1.077h9.683v1.077zm20.028 1.343v-10.583h1.313v10.583zm-1.844-9.46q-.004 1.653-.481 3.041-.473 1.385-1.566 2.54-1.09 1.156-2.884 2.01l-.684-1.044q1.375-.655 2.283-1.471a6 6 0 0 0 1.401-1.819q.489-1.003.605-2.225h-3.75v-1.032zm8.478-.278h2.486v.958h-6.261v-.958h2.473v-.911h1.302zm3.364 6.295v-7.115h1.318v7.115zm-.638-.676a27 27 0 0 1-3.153.34q-1.637.079-3.506.079l-.174-.999q1.666 0 2.805-.033v-.622a3.5 3.5 0 0 1-1.04-.277 1.74 1.74 0 0 1-.675-.527 1.17 1.17 0 0 1-.232-.729 1.22 1.22 0 0 1 .315-.845q.323-.36.916-.555t1.379-.195q.767 0 1.355.195.593.194.92.559.328.36.332.841a1.2 1.2 0 0 1-.249.734q-.24.319-.684.526a3.5 3.5 0 0 1-1.035.277v.568a35 35 0 0 0 2.631-.224zm-4.728-2.768q0 .323.361.506.36.182.982.182.626 0 .998-.178.378-.183.382-.51-.005-.34-.373-.526-.369-.19-.987-.191-.633 0-.998.187-.365.186-.365.53m5.366 4.898h-5.971v-1.011h7.289v3h-1.318zm10.79-4.475h1.633v1.094h-1.633v5.37h-1.305v-10.583h1.305zm-4.496-1.115a4.7 4.7 0 0 0 .311 1.674 5.1 5.1 0 0 0 .92 1.538q.605.691 1.413 1.069l-.729 1.027a4.4 4.4 0 0 1-1.529-1.197 6 6 0 0 1-1.024-1.824 6.5 6.5 0 0 1-1.048 1.989q-.68.867-1.57 1.297l-.767-1.027a4.25 4.25 0 0 0 1.434-1.115 5.4 5.4 0 0 0 .949-1.637q.331-.903.335-1.794v-.891h-2.308v-1.069h5.826v1.069h-2.213zm16.639 1.14v-4.144h1.251v10.583h-1.251v-5.366h-1.082v4.86h-1.23v-9.895h1.23v3.962zm-4.703-.924q0 .837.232 1.624.235.783.721 1.425a3.65 3.65 0 0 0 1.21 1.02l-.734.961a3.7 3.7 0 0 1-1.23-1.036 5.2 5.2 0 0 1-.804-1.521 5.9 5.9 0 0 1-.804 1.658 3.8 3.8 0 0 1-1.231 1.135l-.754-.974a3.76 3.76 0 0 0 1.198-1.093q.484-.684.721-1.509.24-.824.244-1.69v-.299h-1.852v-1.065h1.852v-1.483h1.227v1.483h1.827v1.065h-1.823zm14.142 1.873h2.283v1.044h-9.65v-1.044h2.245v-1.347q-.604-.257-.928-.651a1.4 1.4 0 0 1-.315-.911q0-.626.464-1.078.465-.451 1.322-.692.862-.244 2.031-.244 1.164 0 2.022.244.861.241 1.326.692.464.452.464 1.078 0 .517-.328.915-.322.399-.936.655zm-2.548-3.916q-.783 0-1.339.12-.551.116-.841.344-.29.224-.286.543-.004.484.638.741.643.253 1.828.253 1.18 0 1.827-.253.646-.257.646-.741 0-.32-.294-.543-.29-.228-.845-.344-.555-.12-1.334-.12m-1.26 3.916h2.511v-1.007a10 10 0 0 1-1.251.078q-.651 0-1.26-.078zm1.251 1.682q1.14 0 1.964.22.825.214 1.264.642.444.423.444 1.027 0 .61-.444 1.036-.44.431-1.264.651-.82.22-1.964.215-1.156.004-1.984-.215-.825-.22-1.264-.647a1.4 1.4 0 0 1-.44-1.04q0-.604.44-1.027.439-.428 1.268-.642.828-.22 1.98-.22m0 2.805q1.14.009 1.753-.228.614-.235.618-.688-.005-.439-.614-.667-.608-.227-1.757-.236-1.16.008-1.765.236-.6.228-.597.667-.008.453.601.688.609.232 1.761.228m8.43-3.497q0-1.542.41-2.847a8.2 8.2 0 0 1 1.231-2.42h1.4q-.414.543-.758 1.413a11 11 0 0 0-.538 1.882q-.195 1.01-.195 1.972 0 .966.195 1.981.198 1.01.538 1.877.344.866.758 1.408h-1.4a8.2 8.2 0 0 1-1.231-2.415q-.41-1.306-.41-2.851m8.537-3.257q-.497 1.26-1.641 2.142-1.143.883-2.884 1.368l-.518-1.028q1.828-.496 2.835-1.401 1.01-.903 1.168-2.104h-3.443v-1.061h4.86q0 .55-.087 1.052h2.13v-1.786h1.301v6.187h-1.301v-1.169h-2.523v-1.052h2.523v-1.148zm.216 3.489q1.068 0 1.877.257.807.252 1.251.729.447.473.448 1.115 0 .646-.448 1.127-.444.477-1.255.733-.808.257-1.873.257-1.078 0-1.894-.257-.812-.256-1.256-.733a1.6 1.6 0 0 1-.443-1.127q0-.642.443-1.115.444-.477 1.256-.729.812-.257 1.894-.257m0 3.182q.7 0 1.21-.124.509-.124.783-.369a.77.77 0 0 0 .281-.588.76.76 0 0 0-.281-.589q-.274-.245-.783-.368a5 5 0 0 0-1.21-.121 5.2 5.2 0 0 0-1.231.121q-.514.123-.787.368a.76.76 0 0 0-.274.589q0 .348.274.592.273.241.787.365a5.3 5.3 0 0 0 1.231.124m12.215-7.985v-1.504h1.301v6.514h-1.301v-1.74h-1.873v-1.044h1.873v-1.19h-1.873v-1.036zm-1.927 4.401q-.894.153-1.827.203-.933.045-2.606.05h-.784V200.3h3.332v-1.19h-3.348v-1.031h4.645v3.194h-3.34v1.302a40 40 0 0 0 2.171-.054q.825-.054 1.637-.207zm1.927 2.159h-5.942v-1.048h7.243v3.567h-1.301zm5.478-1.989q0 1.545-.41 2.851a8.2 8.2 0 0 1-1.231 2.415h-1.4q.414-.542.754-1.408.344-.867.538-1.877.2-1.015.199-1.981 0-.961-.199-1.972a10.4 10.4 0 0 0-.538-1.882q-.34-.87-.754-1.413h1.4q.82 1.115 1.231 2.42.41 1.305.41 2.847"/><path fill="#999" d="M87.865 305.838v-6.385h1.305v6.385zm-4.127-2.594a4.4 4.4 0 0 1-1.04 1.459 4.4 4.4 0 0 1-1.592.932l-.675-1.007a4.1 4.1 0 0 0 1.421-.795q.593-.518.895-1.177a3.3 3.3 0 0 0 .307-1.363v-.133h-2.28v-1.048h5.831v1.048h-2.23v.133q0 .663.299 1.284.303.622.883 1.111.584.485 1.404.737l-.667 1.007a4.3 4.3 0 0 1-1.537-.849 4.1 4.1 0 0 1-1.02-1.339m4.127 4.136h-5.917v-1.049h7.222v3.705h-1.305zm3.667-7.384h7.313v4.214h-7.313zm1.276 3.195h4.74v-2.155h-4.74zm-2.457 2.258h9.684v1.052h-4.227v3.527H94.52v-3.527h-4.168zm12.539-5.333h1.305l-2.735 10.16h-1.305zm8.938 5.722v-6.385h1.305v6.385zm-4.127-2.594a4.4 4.4 0 0 1-1.041 1.459 4.4 4.4 0 0 1-1.591.932l-.675-1.007a4.1 4.1 0 0 0 1.421-.795q.593-.518.895-1.177t.307-1.363v-.133h-2.279v-1.048h5.83v1.048h-2.229v.133q0 .663.298 1.284.303.622.883 1.111.584.485 1.404.737l-.667 1.007a4.3 4.3 0 0 1-1.537-.849 4.1 4.1 0 0 1-1.019-1.339m4.127 4.136h-5.918v-1.049h7.223v3.705h-1.305zm12.182-3.377v1.04h-4.14v2.358h-1.301v-2.358h-4.243v-1.04h6.937q.166-.816.211-1.496.05-.68.05-1.484h-6v-1.052h7.301v.891q0 .903-.042 1.595-.037.693-.198 1.546zm-8.524 2.44h1.302v2.337h6.219v1.057h-7.521zM85.503 413.279q-.498 1.26-1.641 2.142-1.144.883-2.884 1.368l-.518-1.028q1.827-.497 2.834-1.401 1.011-.903 1.169-2.104h-3.444v-1.061h4.86q0 .55-.086 1.052h2.13v-1.786h1.3v6.187h-1.3v-1.169h-2.524v-1.052h2.524v-1.148zm.215 3.489q1.07 0 1.877.257.808.252 1.252.729.447.473.447 1.115 0 .646-.447 1.127-.444.477-1.256.733-.807.257-1.873.257-1.078 0-1.893-.257-.812-.256-1.256-.733a1.6 1.6 0 0 1-.443-1.127q0-.642.443-1.115.444-.477 1.256-.729.811-.257 1.893-.257m0 3.182q.7 0 1.21-.124.51-.125.783-.369a.77.77 0 0 0 .282-.588.77.77 0 0 0-.282-.589q-.273-.245-.783-.368a5 5 0 0 0-1.21-.121 5.2 5.2 0 0 0-1.23.121q-.514.123-.788.368a.76.76 0 0 0-.273.589q0 .348.273.592.274.241.788.365.517.124 1.23.124m12.216-7.985v-1.504h1.3v6.514h-1.3v-1.74H96.06v-1.044h1.873v-1.19H96.06v-1.036zm-1.927 4.401q-.895.153-1.827.203-.932.045-2.607.05h-.783V413.3h3.332v-1.19h-3.349v-1.031h4.646v3.194h-3.34v1.302a40 40 0 0 0 2.171-.054q.824-.054 1.637-.207zm1.927 2.159h-5.942v-1.048h7.243v3.567h-1.301z"/><rect width="176" height="33" x="80.5" y="323.5" fill="#fff" rx="4.417"/><rect width="176" height="33" x="80.5" y="323.5" stroke="#DDD" rx="4.417"/><path fill="#2A2929" d="M96.207 335.514h1.462V344h-1.533v-6.999h-.05l-1.984 1.268v-1.396zm11.11 3.124h1.633v1.098h-1.633v5.3h-1.305v-10.583h1.305zm-4.566-.824a4.5 4.5 0 0 0 .29 1.587q.294.787.862 1.437.571.651 1.363 1.028l-.729.99a4.2 4.2 0 0 1-1.459-1.127 5.5 5.5 0 0 1-.961-1.694 5.8 5.8 0 0 1-1.007 1.819 4.25 4.25 0 0 1-1.533 1.185l-.725-1.007a4.05 4.05 0 0 0 1.4-1.036q.593-.672.899-1.504a4.9 4.9 0 0 0 .311-1.678v-.556H99.2v-1.04h2.254v-1.541h1.309v1.541h2.225v1.04h-2.237zm16.282 3.024v-6.385h1.305v6.385zm-4.127-2.594a4.4 4.4 0 0 1-1.04 1.459 4.4 4.4 0 0 1-1.592.932l-.675-1.007a4.1 4.1 0 0 0 1.421-.795q.593-.518.895-1.177t.307-1.363v-.133h-2.279v-1.048h5.83v1.048h-2.229v.133q0 .663.298 1.284.303.622.883 1.111.584.485 1.404.737l-.667 1.007a4.3 4.3 0 0 1-1.537-.849 4.1 4.1 0 0 1-1.019-1.339m4.127 4.136h-5.917v-1.049h7.222v3.705h-1.305zm12.182-3.377v1.04h-4.139v2.358h-1.302v-2.358h-4.243v-1.04h6.937q.166-.816.211-1.496.05-.68.05-1.484h-6v-1.052h7.301v.891q0 .903-.041 1.595-.038.693-.199 1.546zm-8.523 2.44h1.301v2.337h6.219v1.057h-7.52zm11.366-6.327h1.305l-2.735 10.16h-1.305zm8.938 5.722v-6.385h1.305v6.385zm-4.127-2.594a4.4 4.4 0 0 1-1.04 1.459 4.4 4.4 0 0 1-1.592.932l-.675-1.007a4.1 4.1 0 0 0 1.421-.795q.593-.518.895-1.177t.307-1.363v-.133h-2.279v-1.048h5.83v1.048h-2.229v.133q0 .663.298 1.284.303.622.883 1.111.584.485 1.404.737l-.667 1.007a4.3 4.3 0 0 1-1.537-.849 4.1 4.1 0 0 1-1.019-1.339m4.127 4.136h-5.917v-1.049h7.222v3.705h-1.305zm3.667-7.384h7.313v4.214h-7.313zm1.276 3.195h4.74v-2.155h-4.74zm-2.457 2.258h9.684v1.052h-4.227v3.527h-1.289v-3.527h-4.168z"/><g clip-path="url(#d)"><path fill="#222" d="M236 337.909c0-.257.136-.513.399-.693.478-.324 1.192-.277 1.597.106l2.504 2.364 2.502-2.365c.405-.383 1.12-.43 1.599-.106.475.325.535.899.13 1.282l-3.367 3.183c-.216.203-.531.32-.864.32s-.648-.117-.864-.32l-3.367-3.183a.8.8 0 0 1-.269-.588"/></g><g clip-path="url(#e)"><path fill="#222" fill-opacity=".18" d="M269.909 344c-.257 0-.513-.136-.693-.399-.324-.478-.277-1.192.106-1.597l2.364-2.504-2.365-2.502c-.383-.405-.43-1.12-.106-1.599.325-.475.899-.535 1.282-.13l3.183 3.367c.203.216.32.531.32.864s-.117.648-.32.864l-3.183 3.367a.8.8 0 0 1-.588.269"/></g><rect width="176" height="33" x="282.5" y="323.5" fill="#fff" rx="4.417"/><rect width="176" height="33" x="282.5" y="323.5" stroke="#DDD" rx="4.417"/><path fill="#2A2929" d="m296.23 344-.004-1.106 2.996-2.888q.489-.489.754-.804.269-.315.41-.618.145-.306.145-.65 0-.39-.19-.684a1.25 1.25 0 0 0-.527-.452 1.7 1.7 0 0 0-.746-.157q-.43 0-.758.174a1.18 1.18 0 0 0-.497.489 1.53 1.53 0 0 0-.174.746h-1.45q-.005-.792.364-1.393.37-.6 1.028-.928.663-.331 1.508-.331.85 0 1.508.319.66.315 1.024.874.369.56.369 1.264a2.6 2.6 0 0 1-.191.953q-.187.452-.646 1.011-.456.555-1.297 1.347l-1.504 1.496v.062h3.766V344zm14.81-5.362h1.632v1.098h-1.632v5.3h-1.306v-10.583h1.306zm-4.567-.824a4.5 4.5 0 0 0 .291 1.587q.294.787.861 1.437a4.2 4.2 0 0 0 1.364 1.028l-.73.99a4.2 4.2 0 0 1-1.458-1.127 5.5 5.5 0 0 1-.962-1.694 5.8 5.8 0 0 1-1.006 1.819 4.25 4.25 0 0 1-1.534 1.185l-.725-1.007a4.04 4.04 0 0 0 1.401-1.036q.593-.672.899-1.504a4.9 4.9 0 0 0 .311-1.678v-.556h-2.263v-1.04h2.254v-1.541h1.31v1.541h2.225v1.04h-2.238zm16.282 3.024v-6.385h1.306v6.385zm-4.127-2.594a4.4 4.4 0 0 1-1.04 1.459 4.4 4.4 0 0 1-1.591.932l-.675-1.007a4.1 4.1 0 0 0 1.421-.795 3.5 3.5 0 0 0 .895-1.177q.303-.659.307-1.363v-.133h-2.279v-1.048h5.83v1.048h-2.23v.133q0 .663.299 1.284.302.622.882 1.111.585.485 1.405.737l-.667 1.007a4.3 4.3 0 0 1-1.537-.849 4.1 4.1 0 0 1-1.02-1.339m4.127 4.136h-5.917v-1.049h7.223v3.705h-1.306zm12.183-3.377v1.04h-4.14v2.358h-1.301v-2.358h-4.243v-1.04h6.936q.166-.816.212-1.496.05-.68.05-1.484h-6v-1.052h7.301v.891q0 .903-.042 1.595-.037.693-.199 1.546zm-8.524 2.44h1.301v2.337h6.22v1.057h-7.521zm11.366-6.327h1.306l-2.735 10.16h-1.306zm8.938 5.722v-6.385h1.306v6.385zm-4.127-2.594a4.4 4.4 0 0 1-1.04 1.459 4.4 4.4 0 0 1-1.591.932l-.675-1.007a4.1 4.1 0 0 0 1.421-.795 3.5 3.5 0 0 0 .895-1.177q.303-.659.307-1.363v-.133h-2.279v-1.048h5.83v1.048h-2.23v.133q0 .663.299 1.284.302.622.882 1.111.585.485 1.405.737l-.667 1.007a4.3 4.3 0 0 1-1.537-.849 4.1 4.1 0 0 1-1.02-1.339m4.127 4.136h-5.917v-1.049h7.223v3.705h-1.306zm3.667-7.384h7.314v4.214h-7.314zm1.277 3.195h4.74v-2.155h-4.74zm-2.457 2.258h9.683v1.052h-4.226v3.527h-1.289v-3.527h-4.168z"/><g clip-path="url(#f)"><path fill="#222" d="M438 337.909c0-.257.136-.513.399-.693.478-.324 1.192-.277 1.597.106l2.504 2.364 2.502-2.365c.405-.383 1.12-.43 1.599-.106.475.325.535.899.13 1.282l-3.367 3.183c-.216.203-.531.32-.864.32s-.648-.117-.864-.32l-3.367-3.183a.8.8 0 0 1-.269-.588"/></g><path fill="#999" d="M85.818 243.378v2.308h4.218v1.07h-9.684v-1.07h4.173v-2.308h-3.108v-5.109h7.5v5.109zm1.815-4.064h-4.935v3.041h4.935zm10.243 3.878v-5.739h1.305v5.739zm-4.14-2.254a4.1 4.1 0 0 1-1.04 1.405q-.675.592-1.603.886l-.663-1.023a4.1 4.1 0 0 0 1.417-.717 3.2 3.2 0 0 0 .899-1.086q.31-.613.319-1.28h-2.279v-1.044h5.83v1.044h-2.23q.009.625.312 1.206.302.58.886 1.027.585.448 1.397.676l-.65 1.015a4.4 4.4 0 0 1-1.567-.812 3.9 3.9 0 0 1-1.028-1.297m-.273 3.808h4.421v-1.09h1.297v4.256h-6.999v-4.256h1.28zm0 2.113h4.421v-1.098h-4.421zm14.44 1.177v-10.583h1.314v10.583zm-1.844-9.46q-.004 1.653-.48 3.041-.472 1.385-1.566 2.54-1.09 1.156-2.884 2.01l-.684-1.044q1.376-.655 2.283-1.471a6 6 0 0 0 1.401-1.819q.489-1.003.605-2.225h-3.75v-1.032zm12.684-1.123v3.046h1.48v1.081h-1.48v3.51h-1.322v-7.637zm-2.88.8q0 1.396-.588 2.527-.588 1.128-1.703 1.944-1.11.812-2.681 1.272l-.547-1.036q1.206-.348 2.084-.891.879-.547 1.384-1.243.51-.697.622-1.504h-3.638v-1.069zm-3.924 6.058h1.314v2.469h5.888v1.057h-7.202z"/><path fill="#323232" d="M197.71 268.453v2.569h1.479v1.086h-1.479v2.677h-1.309v-6.332zm-5.238 3.667a4.4 4.4 0 0 1-.994 1.492 4.15 4.15 0 0 1-1.542.949l-.704-1.028a3.95 3.95 0 0 0 1.405-.824q.58-.536.87-1.227.29-.696.294-1.467v-1.003h1.301v1.123q0 .677.286 1.293.29.613.85 1.09a3.8 3.8 0 0 0 1.355.729l-.697 1.015a4.2 4.2 0 0 1-1.458-.837 4 4 0 0 1-.966-1.305m1.79 2.901q1.09 0 1.886.236.8.236 1.226.688.431.447.431 1.073 0 .634-.431 1.086-.426.451-1.226.687-.796.237-1.886.237-1.105 0-1.914-.237-.804-.236-1.239-.687a1.52 1.52 0 0 1-.431-1.086q0-.626.431-1.073.435-.452 1.243-.688.809-.236 1.91-.236m0 2.983q1.098-.004 1.679-.253.584-.248.584-.733 0-.469-.589-.721-.588-.257-1.674-.257-.724 0-1.239.116-.509.112-.779.332a.67.67 0 0 0-.265.53q-.003.485.589.733.593.249 1.694.253m12.601 1.057v-10.608h1.314v10.608zm-3.497-8.064a5.6 5.6 0 0 0 .323 1.902q.332.924.953 1.645.622.717 1.459 1.078l-.775 1.044a4.5 4.5 0 0 1-1.562-1.21 6.1 6.1 0 0 1-1.04-1.861 6.4 6.4 0 0 1-1.053 2.014 4.5 4.5 0 0 1-1.624 1.301l-.796-1.085a4.04 4.04 0 0 0 1.488-1.119 5.3 5.3 0 0 0 .97-1.712 6.1 6.1 0 0 0 .339-1.997v-1.695h1.318zm11.474 3.381v2.308h4.218v1.07h-9.684v-1.07h4.173v-2.308h-3.108v-5.109h7.5v5.109zm1.815-4.064h-4.935v3.041h4.935zm10.243 3.878v-5.739h1.305v5.739zm-4.14-2.254a4.1 4.1 0 0 1-1.04 1.405q-.675.592-1.603.886l-.663-1.023a4.1 4.1 0 0 0 1.417-.717q.593-.473.899-1.086.311-.613.319-1.28h-2.279v-1.044h5.83v1.044h-2.229q.008.625.311 1.206.302.58.886 1.027.584.448 1.397.676l-.651 1.015a4.4 4.4 0 0 1-1.566-.812 3.9 3.9 0 0 1-1.028-1.297m-.273 3.808h4.421v-1.09h1.297v4.256h-6.998v-4.256h1.28zm0 2.113h4.421v-1.098h-4.421zM111.71 268.453v2.055h1.479v1.082h-1.479v2.134h-1.309v-5.271zm-2.117 4.45q-1.236.249-2.437.353-1.197.099-2.465.099h-.883v-4.438h1.309v3.352a24.4 24.4 0 0 0 4.322-.431zm2.117 4.082h-5.615v.874h5.946v1.053h-7.247v-2.913h5.602v-.792h-5.618v-1.023h6.932zm10.264-4.471h1.293v1.094h-1.293v5.428h-1.301v-10.583h1.301zm-3.013-1.231q-.004 1.512.336 2.706t1.243 1.86l-.824.949q-.986-.766-1.397-2.407-.443 1.728-1.487 2.499-1.036-.78-1.471-2.483-.419 1.633-1.389 2.391l-.828-.949q.899-.666 1.239-1.864t.344-2.702v-.804h-1.194v-1.056h3.104v1.056h-.68v.804q0 1.135.183 2.13.186.99.7 1.753a4.7 4.7 0 0 0 .688-1.749 12 12 0 0 0 .199-2.134v-.804h-.688v-1.056h2.962v1.056h-1.04zm15.773 5.035h-1.302v-4.463h-2.104v-1.061h2.104v-2.333h1.302zm-5.656-3.928a4.5 4.5 0 0 1-.999 1.549q-.646.655-1.558.995l-.696-1.036a3.85 3.85 0 0 0 1.409-.825 3.6 3.6 0 0 0 .874-1.259q.294-.713.298-1.505v-1.205h1.306v1.222q0 .713.281 1.376.287.659.846 1.176.563.514 1.359.788l-.713 1.015a4.2 4.2 0 0 1-1.454-.903 4.3 4.3 0 0 1-.953-1.388m-.009 3.078v2.312h5.897v1.057h-7.214v-3.369zm14.623-4.363v-2.644h1.239v6.444h-1.239v-2.748h-1.106v2.673h-1.214v-6.174h1.214v2.449zm-2.809 3.066q-.854.158-1.678.216-.82.054-2.035.054h-.895v-5.259h4.16v1.053h-2.904v1.027h2.797v.995h-2.797v1.115a27 27 0 0 0 1.744-.063q.734-.057 1.479-.19zm2.751 2.254h-5.958v-1.048h7.255v3.659h-1.297z"/><circle cx="174" cy="274" r="7.5" fill="#fff" stroke="#00AEAE"/><rect width="16" height="16" x="166" y="266" fill="#00AEAE" rx="8"/><g filter="url(#g)"><circle cx="174" cy="274" r="3" fill="#fff"/></g><circle cx="88" cy="274" r="7.5" fill="#fff" stroke="#DDD"/><rect width="109.44" height="23" x="80.5" y="368.5" stroke="#EEE" rx="2.5"/><path fill="#2A2929" d="M94.568 384.863v-8.819h1.094v8.819zm-1.537-7.883q-.003 1.377-.4 2.535a5.8 5.8 0 0 1-1.306 2.116q-.908.964-2.403 1.675l-.57-.87q1.147-.546 1.903-1.226a5 5 0 0 0 1.167-1.516q.408-.835.504-1.854h-3.125v-.86zm7.065-.231h2.072v.797H96.95v-.797h2.062v-.76h1.084zm2.804 5.245v-5.929h1.098v5.929zm-.532-.563q-1.263.214-2.628.283-1.364.066-2.92.066l-.146-.832a84 84 0 0 0 2.338-.028v-.518a3 3 0 0 1-.867-.231 1.46 1.46 0 0 1-.563-.439.98.98 0 0 1-.193-.608 1.01 1.01 0 0 1 .262-.704q.27-.3.763-.463.495-.162 1.15-.162.64 0 1.129.162.494.163.767.466a1.02 1.02 0 0 1 .069 1.312 1.46 1.46 0 0 1-.57.439 2.9 2.9 0 0 1-.863.231v.473a29 29 0 0 0 2.193-.186zm-3.94-2.307q0 .27.3.422t.819.152q.522 0 .832-.149.315-.152.318-.425-.003-.283-.311-.438-.307-.159-.822-.159-.529 0-.832.155-.304.156-.304.442m4.472 4.082h-4.976v-.843h6.074v2.5H102.9zm4.725-3.471v-1.218l4.72 2.185v.988l-4.72 2.182v-1.219l3.322-1.426v-.062zm13.968-.839v-2.852h1.077v8.84h-1.077v-5.111h-1.848v-.877zm-3.063-.732q0 .83.255 1.603.26.77.753 1.367.497.594 1.184.898l-.659.866a3.6 3.6 0 0 1-1.26-1.025 5 5 0 0 1-.819-1.554 5.5 5.5 0 0 1-.835 1.654q-.54.715-1.282 1.088l-.683-.881a3.3 3.3 0 0 0 1.201-.953q.509-.632.774-1.429a5.2 5.2 0 0 0 .269-1.634v-1.412h1.102zm11.333-2.12h1.094v8.84h-1.094zm-5.788.718h1.088v2.207h2.137v-2.207h1.074v6.036h-4.299zm1.088 3.056v2.089h2.137v-2.089zm10.78-.994a4 4 0 0 1-.776 1.074 4.7 4.7 0 0 1-1.123.822 5.2 5.2 0 0 1-1.367.493l-.477-.904a4.4 4.4 0 0 0 1.613-.629 3.7 3.7 0 0 0 1.133-1.112q.414-.645.417-1.319v-.649h1.154v.649q0 .681.411 1.326a3.7 3.7 0 0 0 1.136 1.112q.728.463 1.633.622l-.487.904a5.2 5.2 0 0 1-1.374-.486 4.7 4.7 0 0 1-1.122-.826 4 4 0 0 1-.771-1.077m-3.988 4.92v-.897h8.07v.897zm16.69 1.119v-8.819h1.095v8.819zm-1.537-7.883q-.003 1.377-.4 2.535a5.8 5.8 0 0 1-1.305 2.116q-.909.964-2.404 1.675l-.569-.87q1.146-.546 1.902-1.226a5 5 0 0 0 1.167-1.516q.408-.835.504-1.854h-3.125v-.86zm7.065-.231h2.072v.797h-5.217v-.797h2.061v-.76h1.084zm2.804 5.245v-5.929h1.098v5.929zm-.532-.563q-1.263.214-2.627.283-1.364.066-2.922.066l-.145-.832q1.389 0 2.338-.028v-.518a3 3 0 0 1-.867-.231 1.46 1.46 0 0 1-.562-.439.98.98 0 0 1-.194-.608 1.01 1.01 0 0 1 .263-.704q.269-.3.763-.463a3.7 3.7 0 0 1 1.15-.162q.638 0 1.129.162.493.163.766.466.273.301.277.701a1 1 0 0 1-.208.611 1.47 1.47 0 0 1-.569.439q-.366.17-.864.231v.473a29 29 0 0 0 2.193-.186zm-3.939-2.307q0 .27.3.422t.818.152q.522 0 .833-.149.314-.152.317-.425-.003-.283-.311-.438-.306-.159-.821-.159-.529 0-.833.155-.303.156-.303.442m4.471 4.082h-4.976v-.843h6.074v2.5h-1.098zm8.992-3.729h1.36v.911h-1.36v4.475h-1.088v-8.819h1.088zm-3.747-.929q-.003.69.259 1.395.267.704.767 1.281.505.576 1.177.891l-.607.856a3.7 3.7 0 0 1-1.274-.998 5 5 0 0 1-.853-1.519 5.4 5.4 0 0 1-.874 1.657 3.7 3.7 0 0 1-1.309 1.081l-.638-.856a3.5 3.5 0 0 0 1.194-.929q.515-.612.791-1.364t.28-1.495v-.743h-1.924v-.891h4.855v.891h-1.844z"/><path fill="#999" d="M182.272 377.798a.527.527 0 0 0-.743.026l-1.309 1.405-1.31-1.405a.527.527 0 0 0-.769.717l1.36 1.459-1.36 1.459a.527.527 0 0 0 .769.717l1.31-1.405 1.309 1.404a.524.524 0 0 0 .743.026.525.525 0 0 0 .026-.743l-1.36-1.458 1.36-1.459a.526.526 0 0 0-.026-.743"/></g><defs><clipPath id="a"><rect width="680" height="420" fill="#fff" rx="16"/></clipPath><clipPath id="d"><path fill="#fff" d="M236 337h9v5h-9z"/></clipPath><clipPath id="e"><path fill="#fff" d="M269 344v-9h5v9z"/></clipPath><clipPath id="f"><path fill="#fff" d="M438 337h9v5h-9z"/></clipPath><filter id="b" width="644.8" height="512.8" x="17.6" y="45.6" color-interpolation-filters="sRGB" filterUnits="userSpaceOnUse"><feFlood flood-opacity="0" result="BackgroundImageFix"/><feColorMatrix in="SourceAlpha" result="hardAlpha" values="0 0 0 0 0 0 0 0 0 0 0 0 0 0 0 0 0 0 127 0"/><feOffset dy="-4"/><feGaussianBlur stdDeviation="21.2"/><feComposite in2="hardAlpha" operator="out"/><feColorMatrix values="0 0 0 0 0.142104 0 0 0 0 0.54285 0 0 0 0 0.557692 0 0 0 0.13 0"/><feBlend in2="BackgroundImageFix" result="effect1_dropShadow_171_378"/><feBlend in="SourceGraphic" in2="effect1_dropShadow_171_378" result="shape"/></filter><filter id="g" width="14" height="14" x="167" y="269" color-interpolation-filters="sRGB" filterUnits="userSpaceOnUse"><feFlood flood-opacity="0" result="BackgroundImageFix"/><feColorMatrix in="SourceAlpha" result="hardAlpha" values="0 0 0 0 0 0 0 0 0 0 0 0 0 0 0 0 0 0 127 0"/><feOffset dy="2"/><feGaussianBlur stdDeviation="2"/><feComposite in2="hardAlpha" operator="out"/><feColorMatrix values="0 0 0 0 0 0 0 0 0 0 0 0 0 0 0 0 0 0 0.1 0"/><feBlend in2="BackgroundImageFix" result="effect1_dropShadow_171_378"/><feBlend in="SourceGraphic" in2="effect1_dropShadow_171_378" result="shape"/></filter></defs></svg>