<svg width="680" height="420" viewBox="0 0 680 420" fill="none" xmlns="http://www.w3.org/2000/svg">
<g clip-path="url(#clip0_171_378)">
<g filter="url(#filter0_d_171_378)">
<rect x="60" y="92" width="560" height="428" rx="20" fill="white"/>
<mask id="path-3-inside-1_171_378" fill="white">
<path d="M80 116.444C80 113.99 81.9898 112 84.4444 112H178.111C180.566 112 182.556 113.99 182.556 116.444V144H80V116.444Z"/>
</mask>
<path d="M79.1111 116.444C79.1111 113.499 81.4989 111.111 84.4444 111.111H178.111C181.057 111.111 183.444 113.499 183.444 116.444H181.667C181.667 114.481 180.075 112.889 178.111 112.889H84.4444C82.4808 112.889 80.8889 114.481 80.8889 116.444H79.1111ZM182.556 144H80H182.556ZM79.1111 144V116.444C79.1111 113.499 81.4989 111.111 84.4444 111.111V112.889C82.4808 112.889 80.8889 114.481 80.8889 116.444V144H79.1111ZM178.111 111.111C181.057 111.111 183.444 113.499 183.444 116.444V144H181.667V116.444C181.667 114.481 180.075 112.889 178.111 112.889V111.111Z" fill="#222222" mask="url(#path-3-inside-1_171_378)"/>
<path d="M101.847 125.998C101.847 127.724 102.734 129.498 104.217 130.288L103.658 131.005C102.583 130.416 101.805 129.31 101.41 128.003C101.021 129.389 100.249 130.592 99.1737 131.224L98.6025 130.519C100.061 129.668 100.936 127.785 100.948 125.998V125.5H98.8577V124.71H100.948V123.082H101.859V124.71H103.925V125.5H101.847V125.998ZM107.972 122.681V133.484H107.049V127.87H105.578V132.938H104.667V122.911H105.578V127.056H107.049V122.681H107.972ZM119.02 128.028V128.818H109.176V128.028H111.619V126.509C110.756 126.174 110.27 125.622 110.27 124.892C110.27 123.616 111.728 122.887 114.098 122.887C116.443 122.887 117.914 123.616 117.914 124.892C117.914 125.615 117.434 126.168 116.577 126.497V128.028H119.02ZM114.098 129.644C116.419 129.644 117.805 130.312 117.817 131.552C117.805 132.78 116.419 133.46 114.098 133.46C111.753 133.46 110.367 132.78 110.367 131.552C110.367 130.312 111.753 129.644 114.098 129.644ZM114.098 130.373C112.36 130.385 111.327 130.811 111.339 131.552C111.327 132.281 112.36 132.719 114.098 132.719C115.812 132.719 116.857 132.281 116.857 131.552C116.857 130.811 115.812 130.385 114.098 130.373ZM114.098 123.641C112.336 123.641 111.242 124.115 111.254 124.892C111.242 125.682 112.336 126.144 114.098 126.144C115.848 126.144 116.942 125.682 116.942 124.892C116.942 124.115 115.848 123.641 114.098 123.641ZM112.567 128.028H115.629V126.764C115.174 126.843 114.663 126.885 114.098 126.885C113.533 126.885 113.022 126.843 112.567 126.764V128.028ZM124.55 129.51C126.871 129.51 128.342 130.24 128.342 131.491C128.342 132.731 126.871 133.46 124.55 133.46C122.241 133.46 120.771 132.731 120.771 131.491C120.771 130.24 122.241 129.51 124.55 129.51ZM124.55 130.24C122.824 130.252 121.706 130.726 121.718 131.491C121.706 132.245 122.824 132.707 124.55 132.707C126.276 132.707 127.382 132.245 127.394 131.491C127.382 130.726 126.276 130.252 124.55 130.24ZM128.257 123.24V124.151C128.257 125.026 128.257 125.901 127.953 127.019L127.017 126.91C127.309 125.792 127.309 125.002 127.309 124.151V124.017H120.843V123.24H128.257ZM129.508 127.724V128.502H119.677V127.724H123.748V125.634H124.684V127.724H129.508ZM138.818 123.774V124.856C138.806 126.181 138.806 127.663 138.417 129.839L137.445 129.729C137.858 127.663 137.858 126.144 137.858 124.856V124.564H131.198V123.774H138.818ZM139.997 131.163V131.953H130.153V131.163H134.018V127.299H134.954V131.163H139.997ZM152.455 122.681V129.122H151.495V126.29H149.32V125.5H151.495V122.681H152.455ZM148.87 129.462C151.118 129.462 152.491 130.191 152.491 131.467C152.491 132.743 151.118 133.472 148.87 133.484C146.622 133.472 145.248 132.743 145.248 131.467C145.248 130.191 146.622 129.462 148.87 129.462ZM148.87 130.203C147.217 130.203 146.184 130.677 146.196 131.467C146.184 132.245 147.217 132.719 148.87 132.719C150.523 132.719 151.543 132.245 151.543 131.467C151.543 130.677 150.523 130.203 148.87 130.203ZM147.254 124.661C147.254 126.071 148.335 127.408 149.915 127.955L149.417 128.72C148.201 128.283 147.26 127.378 146.804 126.253C146.33 127.523 145.327 128.538 144.045 129.024L143.547 128.259C145.151 127.675 146.293 126.217 146.293 124.674V124.273H143.851V123.47H149.672V124.273H147.254V124.661ZM163.879 131.309V132.099H153.987V131.309H158.435V128.976H155.154V123.446H156.114V125.403H161.728V123.446H162.664V128.976H159.371V131.309H163.879ZM156.114 128.198H161.728V126.181H156.114V128.198Z" fill="black"/>
<path d="M185.223 116.444C185.223 113.99 187.213 112 189.667 112H269.667C272.122 112 274.112 113.99 274.112 116.444V144H185.223V116.444Z" fill="#F7F9FC"/>
<path d="M217.95 122.693V130.616H216.99V126.472H214.766V125.682H216.99V122.693H217.95ZM218.254 132.451V133.253H211.011V129.899H211.971V132.451H218.254ZM212.749 124.917C212.749 126.314 213.831 127.675 215.41 128.21L214.912 128.976C213.691 128.538 212.749 127.627 212.287 126.509C211.819 127.754 210.823 128.751 209.541 129.231L209.042 128.453C210.634 127.894 211.789 126.472 211.789 124.917V124.358H209.346V123.568H215.167V124.358H212.749V124.917ZM225.607 123.896V124.674H219.494V123.896H222.119V122.595H223.067V123.896H225.607ZM222.581 125.233C224.027 125.233 225.048 126.023 225.048 127.226C225.048 128.441 224.027 129.231 222.581 129.231C221.123 129.231 220.126 128.441 220.139 127.226C220.126 126.023 221.123 125.233 222.581 125.233ZM222.581 125.95C221.645 125.962 221.026 126.472 221.026 127.226C221.026 127.991 221.645 128.49 222.581 128.49C223.517 128.49 224.149 127.991 224.161 127.226C224.149 126.472 223.517 125.962 222.581 125.95ZM228.439 122.681V129.668H227.479V128.174H225.595V127.384H227.479V126.071H225.607V125.281H227.479V122.681H228.439ZM224.878 129.778C227.126 129.778 228.5 130.446 228.5 131.625C228.5 132.78 227.126 133.46 224.878 133.46C222.606 133.46 221.244 132.78 221.244 131.625C221.244 130.446 222.606 129.778 224.878 129.778ZM224.878 130.519C223.237 130.519 222.229 130.92 222.229 131.625C222.229 132.306 223.237 132.719 224.878 132.719C226.494 132.719 227.491 132.306 227.491 131.625C227.491 130.92 226.494 130.519 224.878 130.519ZM238.417 122.681V125.901H240.058V126.703H238.417V130.507H237.469V122.681H238.417ZM235.294 123.616V124.418H231.429V127.785C233.598 127.785 234.832 127.73 236.278 127.432L236.4 128.222C234.881 128.514 233.592 128.587 231.32 128.587H230.481V123.616H235.294ZM238.915 132.451V133.253H231.66V129.717H232.596V132.451H238.915ZM249.708 122.681V133.484H248.796V122.681H249.708ZM247.52 122.972V132.938H246.609V129.194H244.603V128.405H246.609V126.484H244.786C244.257 128.313 243.072 129.93 241.031 131.151L240.447 130.458C242.799 129.067 243.978 127.116 244.166 124.856H240.933V124.066H245.114C245.114 124.619 245.065 125.166 244.968 125.694H246.609V122.972H247.52Z" fill="#888888"/>
<path d="M276.777 116.444C276.777 113.99 278.767 112 281.222 112H363.888C366.343 112 368.333 113.99 368.333 116.444V144H276.777V116.444Z" fill="#F7F9FC"/>
<path d="M299.074 125.998C299.074 127.833 300.411 129.693 302.003 130.385L301.468 131.139C300.204 130.562 299.11 129.316 298.612 127.821C298.102 129.407 297.014 130.786 295.78 131.406L295.209 130.653C296.753 129.911 298.102 127.87 298.114 125.998V124.589H295.562V123.799H301.65V124.589H299.074V125.998ZM304.117 122.681V133.484H303.157V122.681H304.117ZM314.606 122.693V130.896H313.646V129.778H311.41V129.085H313.646V122.693H314.606ZM314.873 132.451V133.253H307.193V130.094H308.153V132.451H314.873ZM305.637 127.7C307.654 127.687 310.352 127.675 312.673 127.384L312.734 128.076C311.768 128.228 310.759 128.326 309.769 128.38V130.519H308.809V128.429C307.715 128.477 306.676 128.484 305.771 128.477L305.637 127.7ZM309.186 123.13C310.765 123.13 311.847 123.884 311.859 125.014C311.847 126.168 310.765 126.885 309.186 126.885C307.594 126.885 306.512 126.168 306.512 125.014C306.512 123.884 307.594 123.13 309.186 123.13ZM309.186 123.859C308.128 123.847 307.411 124.321 307.423 125.014C307.411 125.719 308.128 126.181 309.186 126.181C310.206 126.181 310.936 125.719 310.948 125.014C310.936 124.321 310.206 123.847 309.186 123.859ZM319.99 125.585C319.99 127.542 321.242 129.51 322.81 130.227L322.238 131.005C321.011 130.373 319.996 129.079 319.516 127.542C319.036 129.158 318.021 130.543 316.794 131.2L316.174 130.434C317.754 129.656 319.018 127.578 319.018 125.585V123.616H319.99V125.585ZM325.143 122.681V133.509H324.195V127.153H321.631V126.375H324.195V122.681H325.143ZM338.488 122.681V128.271H337.528V125.464H335.122V124.674H337.528V122.681H338.488ZM338.488 128.818V131.394H332.448V132.573H338.889V133.339H331.512V130.665H337.54V129.583H331.488V128.818H338.488ZM333.214 124.054C333.202 125.476 334.32 126.764 335.899 127.286L335.389 128.028C334.192 127.602 333.238 126.752 332.764 125.658C332.302 126.891 331.324 127.833 330.042 128.295L329.519 127.53C331.148 126.995 332.266 125.634 332.278 124.054V123.033H333.214V124.054ZM348.977 122.681V129.122H348.016V126.29H345.841V125.5H348.016V122.681H348.977ZM345.391 129.462C347.64 129.462 349.013 130.191 349.013 131.467C349.013 132.743 347.64 133.472 345.391 133.484C343.143 133.472 341.77 132.743 341.77 131.467C341.77 130.191 343.143 129.462 345.391 129.462ZM345.391 130.203C343.739 130.203 342.706 130.677 342.718 131.467C342.706 132.245 343.739 132.719 345.391 132.719C347.044 132.719 348.065 132.245 348.065 131.467C348.065 130.677 347.044 130.203 345.391 130.203ZM343.775 124.661C343.775 126.071 344.857 127.408 346.437 127.955L345.938 128.72C344.723 128.283 343.781 127.378 343.326 126.253C342.852 127.523 341.849 128.538 340.567 129.024L340.069 128.259C341.673 127.675 342.815 126.217 342.815 124.674V124.273H340.372V123.47H346.194V124.273H343.775V124.661Z" fill="#888888"/>
<path d="M88.2293 173.036V162.453H89.4641V173.036H88.2293ZM84.5622 166.145H86.087V162.652H87.3094V172.526H86.087V167.198H84.5622V166.145ZM83.6215 165.345C83.6188 165.961 83.6934 166.555 83.8453 167.127C84 167.696 84.2376 168.214 84.558 168.681C84.8812 169.145 85.2873 169.517 85.7762 169.796L85.0097 170.753C84.5318 170.471 84.1257 170.091 83.7914 169.613C83.4572 169.135 83.1961 168.584 83.0083 167.96C82.8149 168.637 82.5456 169.238 82.2003 169.762C81.8577 170.287 81.4448 170.699 80.9613 170.997L80.1657 170.036C80.6575 169.735 81.0677 169.337 81.3964 168.843C81.7251 168.348 81.9682 167.801 82.1257 167.202C82.2859 166.599 82.366 165.981 82.366 165.345V164.641H80.5262V163.588H85.3329V164.641H83.6215V165.345ZM95.8329 166.559V167.678H100.014V168.731H90.3633V167.678H94.5277V166.559H91.5774V162.88H98.7873V166.559H95.8329ZM97.5028 163.903H92.8495V165.528H97.5028V163.903ZM97.5277 170.649H91.4324V169.622H98.8371V173.036H97.5277V170.649Z" fill="#999999"/>
<rect x="80.5" y="186.5" width="519" height="33" rx="4.41667" fill="white"/>
<rect x="80.5" y="186.5" width="519" height="33" rx="4.41667" stroke="#DDDDDD"/>
<path d="M94.3129 198.514H95.8336V207H94.3129V198.514ZM99.3042 199.798H96.6813V198.514H103.44V199.798H100.821V207H99.3042V199.798ZM107.253 200.349H108.653V198.738H107.195V197.756H115.093V198.738H113.634V200.349H115.035V201.336H107.253V200.349ZM109.95 200.349H112.329V198.738H109.95V200.349ZM106.329 203.03V201.999H115.979V203.03H106.329ZM114.778 206.258H108.753V206.979H115.068V207.949H107.477V205.359H113.493V204.692H107.464V203.747H114.778V206.258ZM124.159 201.149H123.053V203.718H121.839V197.656H123.053V200.097H124.159V197.461H125.398V204.609H124.159V201.149ZM121.42 203.308C120.829 203.43 120.25 203.51 119.684 203.548C119.118 203.584 118.392 203.602 117.508 203.602H116.787V200.407H119.543V199.272H116.771V198.224H120.799V201.356H118.051V202.575C118.7 202.569 119.274 202.546 119.771 202.504C120.268 202.46 120.776 202.387 121.296 202.285L121.42 203.308ZM122.423 204.348C122.42 204.751 122.562 205.137 122.85 205.504C123.137 205.872 123.544 206.186 124.072 206.449C124.602 206.709 125.216 206.884 125.912 206.975L125.39 207.986C124.564 207.865 123.836 207.626 123.206 207.269C122.576 206.913 122.098 206.471 121.772 205.943C121.441 206.471 120.96 206.913 120.33 207.269C119.703 207.626 118.978 207.865 118.155 207.986L117.633 206.975C118.323 206.884 118.932 206.709 119.46 206.449C119.988 206.186 120.395 205.872 120.682 205.504C120.97 205.137 121.115 204.751 121.118 204.348V204.124H122.423V204.348ZM131.817 201.68V202.657H136.002V203.689H126.351V202.657H130.507V201.68H127.275V200.627H128.676V198.816H127.217V197.764H135.115V198.816H133.656V200.627H135.057V201.68H131.817ZM132.351 198.816H129.973V200.627H132.351V198.816ZM134.833 207.912H127.491V204.514H134.833V207.912ZM133.565 205.529H128.775V206.859H133.565V205.529ZM146.437 200.876V197.453H147.73V208.061H146.437V201.928H144.22V200.876H146.437ZM142.761 199.997C142.761 200.66 142.864 201.301 143.068 201.92C143.275 202.536 143.576 203.083 143.971 203.561C144.369 204.036 144.843 204.395 145.393 204.638L144.601 205.678C144.016 205.391 143.511 204.981 143.089 204.448C142.669 203.914 142.342 203.293 142.107 202.583C141.869 203.334 141.535 203.996 141.104 204.568C140.673 205.14 140.161 205.575 139.567 205.873L138.746 204.816C139.304 204.557 139.785 204.175 140.188 203.673C140.594 203.167 140.904 202.595 141.116 201.957C141.329 201.316 141.437 200.663 141.44 199.997V198.302H142.761V199.997ZM156.361 197.453H157.674V208.061H156.361V197.453ZM149.416 198.315H150.721V200.963H153.286V198.315H154.575V205.558H149.416V198.315ZM150.721 201.982V204.489H153.286V201.982H150.721ZM163.658 200.789C163.426 201.258 163.115 201.688 162.726 202.077C162.339 202.464 161.89 202.793 161.379 203.064C160.871 203.334 160.324 203.532 159.738 203.656L159.166 202.57C159.879 202.441 160.524 202.189 161.101 201.816C161.679 201.443 162.132 200.999 162.46 200.482C162.792 199.965 162.959 199.438 162.962 198.899V198.12H164.346V198.899C164.346 199.443 164.51 199.974 164.839 200.49C165.168 201.007 165.622 201.452 166.202 201.825C166.785 202.195 167.438 202.443 168.162 202.57L167.578 203.656C166.989 203.535 166.44 203.34 165.929 203.072C165.42 202.801 164.971 202.471 164.582 202.081C164.195 201.692 163.887 201.261 163.658 200.789ZM158.872 206.693V205.616H168.556V206.693H158.872ZM170.097 199.231H176.056V198.584H170.072V197.689H177.357V200.076H171.39V200.76H177.539V201.659H170.097V199.231ZM168.871 203.233V202.256H178.554V203.233H168.871ZM177.378 206.283H171.307V207.021H177.701V207.924H170.01V205.438H176.085V204.787H169.998V203.867H177.378V206.283ZM185.186 198.468H187.676V199.508H181.39V198.468H183.889V197.383H185.186V198.468ZM189.74 200.13H191.219V201.228H189.74V203.834H188.43V197.453H189.74V200.13ZM187.121 201.796C187.121 202.171 187.012 202.504 186.793 202.794C186.575 203.081 186.27 203.304 185.878 203.461C185.488 203.619 185.042 203.698 184.539 203.698C184.025 203.698 183.571 203.619 183.176 203.461C182.784 203.304 182.479 203.081 182.26 202.794C182.045 202.504 181.937 202.171 181.937 201.796C181.937 201.423 182.045 201.093 182.26 200.805C182.479 200.518 182.785 200.296 183.18 200.138C183.575 199.978 184.028 199.898 184.539 199.898C185.042 199.898 185.488 199.978 185.878 200.138C186.27 200.296 186.575 200.518 186.793 200.805C187.012 201.093 187.121 201.423 187.121 201.796ZM183.201 201.796C183.198 201.989 183.252 202.156 183.362 202.297C183.473 202.435 183.629 202.541 183.831 202.616C184.032 202.688 184.269 202.725 184.539 202.728C184.807 202.725 185.042 202.688 185.244 202.616C185.445 202.541 185.601 202.435 185.712 202.297C185.825 202.156 185.883 201.989 185.886 201.796C185.883 201.608 185.825 201.446 185.712 201.311C185.601 201.173 185.444 201.068 185.24 200.996C185.038 200.921 184.804 200.884 184.539 200.884C184.271 200.884 184.035 200.921 183.831 200.996C183.629 201.068 183.473 201.173 183.362 201.311C183.252 201.446 183.198 201.608 183.201 201.796ZM189.74 207.912H182.898V204.344H189.74V207.912ZM188.451 205.372H184.183V206.859H188.451V205.372ZM199.349 208.036V197.453H200.6V208.036H199.349ZM197.322 201.485V197.71H198.549V207.543H197.322V202.537H196.104C195.985 203.233 195.811 203.894 195.582 204.518C195.353 205.14 195.052 205.724 194.679 206.271L193.68 205.707C194.084 205.133 194.397 204.525 194.621 203.884C194.845 203.24 195.001 202.588 195.089 201.928C195.177 201.265 195.23 200.537 195.247 199.744H194.322V198.688H196.369C196.367 199.218 196.357 199.71 196.34 200.163C196.324 200.613 196.293 201.054 196.249 201.485H197.322ZM194.003 198.688C194.001 199.619 193.952 200.478 193.858 201.265C193.767 202.05 193.597 202.818 193.349 203.569C193.103 204.32 192.756 205.026 192.309 205.686L191.289 205.135C191.665 204.605 191.965 204.057 192.188 203.49C192.412 202.921 192.575 202.336 192.677 201.733C192.782 201.128 192.849 200.465 192.876 199.744H191.592V198.688H194.003ZM211.421 208.036V197.453H212.734V208.036H211.421ZM209.577 198.576C209.574 199.678 209.414 200.692 209.096 201.617C208.781 202.54 208.259 203.387 207.53 204.157C206.803 204.928 205.842 205.598 204.646 206.167L203.962 205.123C204.879 204.686 205.64 204.196 206.245 203.652C206.853 203.105 207.32 202.499 207.646 201.833C207.972 201.164 208.173 200.423 208.251 199.608H204.501V198.576H209.577ZM218.055 198.298H220.541V199.256H214.28V198.298H216.754V197.387H218.055V198.298ZM221.419 204.593V197.478H222.737V204.593H221.419ZM220.781 203.917C219.77 204.088 218.719 204.202 217.628 204.257C216.537 204.309 215.368 204.336 214.122 204.336L213.948 203.337C215.059 203.337 215.994 203.326 216.754 203.304V202.682C216.353 202.633 216.006 202.54 215.714 202.405C215.421 202.267 215.196 202.091 215.038 201.878C214.881 201.666 214.803 201.423 214.806 201.149C214.803 200.826 214.908 200.544 215.121 200.304C215.336 200.064 215.642 199.878 216.037 199.749C216.432 199.619 216.892 199.554 217.417 199.554C217.928 199.554 218.379 199.619 218.772 199.749C219.167 199.878 219.473 200.065 219.691 200.308C219.91 200.548 220.02 200.829 220.023 201.149C220.02 201.423 219.937 201.667 219.774 201.883C219.614 202.095 219.386 202.271 219.091 202.409C218.798 202.544 218.452 202.637 218.055 202.686V203.254C219.033 203.204 219.91 203.13 220.686 203.03L220.781 203.917ZM216.053 201.149C216.053 201.365 216.173 201.533 216.414 201.655C216.654 201.776 216.981 201.837 217.396 201.837C217.813 201.837 218.146 201.778 218.394 201.659C218.646 201.537 218.773 201.367 218.776 201.149C218.773 200.923 218.649 200.747 218.403 200.623C218.157 200.496 217.828 200.432 217.417 200.432C216.994 200.432 216.661 200.494 216.418 200.619C216.175 200.743 216.053 200.92 216.053 201.149ZM221.419 206.047H215.448V205.036H222.737V208.036H221.419V206.047ZM227.718 198.298H230.208V199.301H223.922V198.298H226.421V197.37H227.718V198.298ZM232.272 197.428V199.815H233.759V200.867H232.272V203.204H230.962V197.428H232.272ZM229.653 201.365C229.653 201.721 229.546 202.03 229.334 202.293C229.121 202.552 228.82 202.751 228.43 202.89C228.044 203.028 227.591 203.097 227.071 203.097C226.549 203.097 226.091 203.028 225.696 202.89C225.303 202.751 225.001 202.552 224.788 202.293C224.575 202.03 224.469 201.721 224.469 201.365C224.469 201.017 224.575 200.713 224.788 200.453C225.004 200.191 225.308 199.989 225.7 199.848C226.092 199.704 226.549 199.633 227.071 199.633C227.588 199.633 228.041 199.704 228.43 199.848C228.82 199.989 229.121 200.191 229.334 200.453C229.546 200.713 229.653 201.017 229.653 201.365ZM225.733 201.365C225.73 201.619 225.848 201.815 226.085 201.953C226.323 202.088 226.651 202.156 227.071 202.156C227.486 202.156 227.813 202.088 228.053 201.953C228.294 201.815 228.415 201.619 228.418 201.365C228.415 201.113 228.292 200.917 228.049 200.776C227.809 200.633 227.483 200.561 227.071 200.561C226.795 200.561 226.556 200.593 226.354 200.656C226.153 200.72 225.998 200.812 225.89 200.934C225.783 201.055 225.73 201.199 225.733 201.365ZM232.272 206.233H226.64V206.979H232.603V207.949H225.356V205.326H230.97V204.617H225.339V203.669H232.272V206.233ZM244 200.876V197.453H245.292V208.061H244V201.928H241.783V200.876H244ZM240.324 199.997C240.324 200.66 240.426 201.301 240.631 201.92C240.838 202.536 241.139 203.083 241.534 203.561C241.932 204.036 242.406 204.395 242.955 204.638L242.164 205.678C241.578 205.391 241.074 204.981 240.652 204.448C240.232 203.914 239.904 203.293 239.67 202.583C239.432 203.334 239.098 203.996 238.667 204.568C238.236 205.14 237.723 205.575 237.129 205.873L236.309 204.816C236.867 204.557 237.348 204.175 237.751 203.673C238.157 203.167 238.466 202.595 238.679 201.957C238.892 201.316 239 200.663 239.002 199.997V198.302H240.324V199.997ZM253.924 197.453H255.237V208.061H253.924V197.453ZM246.979 198.315H248.284V200.963H250.849V198.315H252.138V205.558H246.979V198.315ZM248.284 201.982V204.489H250.849V201.982H248.284ZM261.221 200.789C260.989 201.258 260.678 201.688 260.288 202.077C259.902 202.464 259.453 202.793 258.942 203.064C258.433 203.334 257.886 203.532 257.301 203.656L256.729 202.57C257.442 202.441 258.087 202.189 258.664 201.816C259.241 201.443 259.694 200.999 260.023 200.482C260.355 199.965 260.522 199.438 260.525 198.899V198.12H261.909V198.899C261.909 199.443 262.073 199.974 262.402 200.49C262.73 201.007 263.185 201.452 263.765 201.825C264.348 202.195 265.001 202.443 265.725 202.57L265.141 203.656C264.552 203.535 264.002 203.34 263.491 203.072C262.983 202.801 262.534 202.471 262.145 202.081C261.758 201.692 261.45 201.261 261.221 200.789ZM256.435 206.693V205.616H266.118V206.693H256.435ZM276.463 208.036V197.453H277.776V208.036H276.463ZM274.619 198.576C274.616 199.678 274.456 200.692 274.138 201.617C273.823 202.54 273.301 203.387 272.572 204.157C271.845 204.928 270.884 205.598 269.688 206.167L269.004 205.123C269.921 204.686 270.682 204.196 271.287 203.652C271.895 203.105 272.362 202.499 272.688 201.833C273.014 201.164 273.215 200.423 273.293 199.608H269.543V198.576H274.619ZM283.097 198.298H285.583V199.256H279.322V198.298H281.795V197.387H283.097V198.298ZM286.461 204.593V197.478H287.779V204.593H286.461ZM285.823 203.917C284.812 204.088 283.761 204.202 282.67 204.257C281.579 204.309 280.41 204.336 279.164 204.336L278.99 203.337C280.101 203.337 281.036 203.326 281.795 203.304V202.682C281.395 202.633 281.048 202.54 280.755 202.405C280.463 202.267 280.237 202.091 280.08 201.878C279.923 201.666 279.845 201.423 279.848 201.149C279.845 200.826 279.95 200.544 280.163 200.304C280.378 200.064 280.684 199.878 281.079 199.749C281.474 199.619 281.934 199.554 282.458 199.554C282.969 199.554 283.421 199.619 283.813 199.749C284.208 199.878 284.515 200.065 284.733 200.308C284.952 200.548 285.062 200.829 285.065 201.149C285.062 201.423 284.979 201.667 284.816 201.883C284.656 202.095 284.428 202.271 284.132 202.409C283.84 202.544 283.494 202.637 283.097 202.686V203.254C284.074 203.204 284.952 203.13 285.728 203.03L285.823 203.917ZM281.095 201.149C281.095 201.365 281.215 201.533 281.456 201.655C281.696 201.776 282.023 201.837 282.438 201.837C282.855 201.837 283.188 201.778 283.436 201.659C283.688 201.537 283.815 201.367 283.818 201.149C283.815 200.923 283.69 200.747 283.445 200.623C283.199 200.496 282.87 200.432 282.458 200.432C282.036 200.432 281.703 200.494 281.46 200.619C281.217 200.743 281.095 200.92 281.095 201.149ZM286.461 206.047H280.49V205.036H287.779V208.036H286.461V206.047ZM297.251 201.572H298.884V202.666H297.251V208.036H295.946V197.453H297.251V201.572ZM292.755 200.457C292.753 201.01 292.856 201.568 293.066 202.131C293.279 202.695 293.586 203.207 293.986 203.669C294.389 204.13 294.86 204.486 295.399 204.738L294.67 205.765C294.09 205.494 293.58 205.095 293.141 204.568C292.704 204.037 292.363 203.43 292.117 202.744C291.871 203.49 291.522 204.153 291.069 204.733C290.616 205.311 290.092 205.743 289.499 206.03L288.732 205.003C289.276 204.746 289.754 204.374 290.166 203.888C290.577 203.399 290.894 202.854 291.115 202.251C291.336 201.649 291.447 201.051 291.45 200.457V199.566H289.142V198.497H294.968V199.566H292.755V200.457ZM309.394 201.597V197.453H310.645V208.036H309.394V202.67H308.312V207.53H307.082V197.635H308.312V201.597H309.394ZM304.691 200.673C304.691 201.231 304.768 201.772 304.923 202.297C305.08 202.819 305.32 203.294 305.644 203.722C305.97 204.148 306.373 204.488 306.854 204.742L306.12 205.703C305.64 205.452 305.229 205.106 304.89 204.667C304.55 204.228 304.282 203.721 304.086 203.146C303.892 203.768 303.624 204.32 303.282 204.804C302.942 205.285 302.532 205.663 302.051 205.939L301.297 204.965C301.772 204.692 302.171 204.327 302.495 203.872C302.818 203.416 303.058 202.913 303.216 202.363C303.376 201.814 303.457 201.25 303.46 200.673V200.374H301.608V199.309H303.46V197.826H304.687V199.309H306.514V200.374H304.691V200.673ZM318.833 202.546H321.116V203.59H311.466V202.546H313.711V201.199C313.308 201.028 312.999 200.811 312.783 200.548C312.571 200.283 312.466 199.979 312.468 199.637C312.468 199.22 312.623 198.86 312.932 198.559C313.242 198.258 313.682 198.028 314.254 197.867C314.829 197.704 315.506 197.623 316.285 197.623C317.061 197.623 317.735 197.704 318.307 197.867C318.881 198.028 319.323 198.258 319.633 198.559C319.942 198.86 320.097 199.22 320.097 199.637C320.097 199.982 319.988 200.287 319.769 200.552C319.554 200.818 319.242 201.036 318.833 201.207V202.546ZM316.285 198.63C315.763 198.63 315.316 198.67 314.946 198.75C314.579 198.827 314.298 198.942 314.105 199.094C313.912 199.243 313.816 199.424 313.819 199.637C313.816 199.96 314.029 200.207 314.457 200.378C314.885 200.547 315.495 200.631 316.285 200.631C317.072 200.631 317.681 200.547 318.112 200.378C318.543 200.207 318.758 199.96 318.758 199.637C318.758 199.424 318.66 199.243 318.464 199.094C318.271 198.942 317.989 198.827 317.619 198.75C317.249 198.67 316.804 198.63 316.285 198.63ZM315.025 202.546H317.536V201.539C317.133 201.591 316.716 201.617 316.285 201.617C315.851 201.617 315.431 201.591 315.025 201.539V202.546ZM316.276 204.228C317.036 204.228 317.691 204.301 318.24 204.448C318.79 204.591 319.211 204.805 319.504 205.09C319.8 205.372 319.948 205.714 319.948 206.117C319.948 206.523 319.8 206.869 319.504 207.153C319.211 207.441 318.79 207.657 318.24 207.804C317.693 207.95 317.039 208.022 316.276 208.019C315.506 208.022 314.844 207.95 314.292 207.804C313.742 207.657 313.321 207.442 313.028 207.157C312.735 206.873 312.588 206.526 312.588 206.117C312.588 205.714 312.735 205.372 313.028 205.09C313.321 204.805 313.743 204.591 314.296 204.448C314.848 204.301 315.508 204.228 316.276 204.228ZM316.276 207.033C317.036 207.039 317.62 206.963 318.029 206.805C318.438 206.648 318.644 206.419 318.647 206.117C318.644 205.825 318.439 205.602 318.033 205.45C317.627 205.298 317.042 205.22 316.276 205.214C315.503 205.22 314.914 205.298 314.511 205.45C314.111 205.602 313.912 205.825 313.914 206.117C313.909 206.419 314.109 206.648 314.515 206.805C314.921 206.96 315.508 207.036 316.276 207.033ZM324.706 203.536C324.706 202.508 324.843 201.559 325.116 200.689C325.39 199.819 325.8 199.012 326.347 198.269H327.747C327.471 198.631 327.218 199.102 326.989 199.682C326.763 200.26 326.583 200.887 326.451 201.564C326.321 202.238 326.256 202.895 326.256 203.536C326.256 204.18 326.321 204.84 326.451 205.517C326.583 206.191 326.763 206.816 326.989 207.394C327.218 207.971 327.471 208.441 327.747 208.802H326.347C325.8 208.059 325.39 207.254 325.116 206.387C324.843 205.517 324.706 204.566 324.706 203.536ZM333.243 200.279C332.912 201.119 332.365 201.833 331.602 202.421C330.84 203.01 329.879 203.465 328.718 203.789L328.2 202.761C329.419 202.43 330.363 201.963 331.035 201.36C331.709 200.758 332.098 200.057 332.203 199.256H328.76V198.195H333.62C333.62 198.562 333.591 198.913 333.533 199.247H335.663V197.461H336.964V203.648H335.663V202.479H333.14V201.427H335.663V200.279H333.243ZM333.459 203.768C334.171 203.768 334.797 203.854 335.336 204.025C335.874 204.193 336.291 204.436 336.587 204.754C336.885 205.069 337.035 205.441 337.035 205.869C337.035 206.3 336.885 206.675 336.587 206.996C336.291 207.314 335.873 207.558 335.332 207.729C334.793 207.901 334.169 207.986 333.459 207.986C332.74 207.986 332.109 207.901 331.565 207.729C331.024 207.558 330.605 207.314 330.309 206.996C330.014 206.675 329.866 206.3 329.866 205.869C329.866 205.441 330.014 205.069 330.309 204.754C330.605 204.436 331.024 204.193 331.565 204.025C332.106 203.854 332.738 203.768 333.459 203.768ZM333.459 206.95C333.925 206.95 334.329 206.909 334.669 206.826C335.008 206.743 335.269 206.62 335.452 206.457C335.637 206.294 335.731 206.098 335.733 205.869C335.731 205.637 335.637 205.441 335.452 205.28C335.269 205.117 335.008 204.994 334.669 204.912C334.329 204.829 333.925 204.789 333.459 204.791C332.983 204.789 332.573 204.829 332.228 204.912C331.885 204.994 331.623 205.117 331.441 205.28C331.258 205.441 331.167 205.637 331.167 205.869C331.167 206.101 331.258 206.298 331.441 206.461C331.623 206.622 331.885 206.743 332.228 206.826C332.573 206.909 332.983 206.95 333.459 206.95ZM345.674 198.965V197.461H346.975V203.975H345.674V202.235H343.801V201.191H345.674V200.001H343.801V198.965H345.674ZM343.747 203.366C343.151 203.468 342.542 203.536 341.92 203.569C341.298 203.599 340.43 203.616 339.314 203.619H338.53V200.3H341.862V199.11H338.514V198.079H343.159V201.273H339.819V202.575C340.717 202.572 341.441 202.554 341.99 202.521C342.54 202.485 343.086 202.416 343.627 202.314L343.747 203.366ZM345.674 205.525H339.732V204.477H346.975V208.044H345.674V205.525ZM351.152 203.536C351.152 204.566 351.015 205.517 350.742 206.387C350.468 207.254 350.058 208.059 349.511 208.802H348.111C348.387 208.441 348.638 207.971 348.865 207.394C349.094 206.816 349.274 206.191 349.403 205.517C349.536 204.84 349.602 204.18 349.602 203.536C349.602 202.895 349.536 202.238 349.403 201.564C349.274 200.887 349.094 200.26 348.865 199.682C348.638 199.102 348.387 198.631 348.111 198.269H349.511C350.058 199.012 350.468 199.819 350.742 200.689C351.015 201.559 351.152 202.508 351.152 203.536Z" fill="#2A2929"/>
<path d="M87.8646 305.838V299.453H89.1699V305.838H87.8646ZM83.7376 303.244C83.4917 303.802 83.145 304.289 82.6975 304.703C82.25 305.115 81.7196 305.425 81.1064 305.635L80.4309 304.628C80.9834 304.443 81.4572 304.178 81.8522 303.833C82.2472 303.488 82.5456 303.095 82.7472 302.656C82.9489 302.217 83.0511 301.762 83.0539 301.293V301.16H80.7749V300.112H86.605V301.16H84.3757V301.293C84.3757 301.735 84.4751 302.163 84.674 302.577C84.8757 302.992 85.1699 303.362 85.5566 303.688C85.9461 304.011 86.4144 304.257 86.9613 304.425L86.2942 305.432C85.703 305.244 85.1906 304.961 84.7569 304.583C84.3232 304.204 83.9834 303.758 83.7376 303.244ZM87.8646 307.38H81.9475V306.331H89.1699V310.036H87.8646V307.38ZM91.5318 299.996H98.8453V304.21H91.5318V299.996ZM92.8081 303.191H97.5484V301.036H92.8081V303.191ZM90.3509 305.449H100.035V306.501H95.8081V310.028H94.5194V306.501H90.3509V305.449ZM102.89 300.116H104.195L101.46 310.276H100.155L102.89 300.116ZM111.828 305.838V299.453H113.133V305.838H111.828ZM107.701 303.244C107.455 303.802 107.108 304.289 106.66 304.703C106.213 305.115 105.683 305.425 105.069 305.635L104.394 304.628C104.946 304.443 105.42 304.178 105.815 303.833C106.21 303.488 106.509 303.095 106.71 302.656C106.912 302.217 107.014 301.762 107.017 301.293V301.16H104.738V300.112H110.568V301.16H108.339V301.293C108.339 301.735 108.438 302.163 108.637 302.577C108.839 302.992 109.133 303.362 109.52 303.688C109.909 304.011 110.377 304.257 110.924 304.425L110.257 305.432C109.666 305.244 109.154 304.961 108.72 304.583C108.286 304.204 107.946 303.758 107.701 303.244ZM111.828 307.38H105.91V306.331H113.133V310.036H111.828V307.38ZM124.01 304.003V305.043H119.87V307.401H118.569V305.043H114.326V304.003H121.263C121.373 303.459 121.444 302.96 121.474 302.507C121.507 302.054 121.524 301.559 121.524 301.023H115.524V299.971H122.825V300.862C122.825 301.464 122.811 301.996 122.783 302.457C122.759 302.919 122.692 303.434 122.585 304.003H124.01ZM115.486 306.443H116.788V308.78H123.007V309.837H115.486V306.443Z" fill="#999999"/>
<path d="M85.5028 413.279C85.1713 414.119 84.6243 414.833 83.8619 415.421C83.0994 416.01 82.1381 416.465 80.9779 416.789L80.4599 415.761C81.6782 415.43 82.6229 414.963 83.2942 414.36C83.9682 413.758 84.3577 413.057 84.4627 412.256H81.0193V411.195H85.8798C85.8798 411.562 85.8508 411.913 85.7928 412.247H87.9227V410.461H89.2238V416.648H87.9227V415.479H85.3992V414.427H87.9227V413.279H85.5028ZM85.7182 416.768C86.4309 416.768 87.0566 416.854 87.5953 417.025C88.134 417.193 88.5511 417.436 88.8467 417.754C89.145 418.069 89.2942 418.441 89.2942 418.869C89.2942 419.3 89.145 419.675 88.8467 419.996C88.5511 420.314 88.1326 420.558 87.5912 420.729C87.0525 420.901 86.4282 420.986 85.7182 420.986C85 420.986 84.3688 420.901 83.8246 420.729C83.2831 420.558 82.8646 420.314 82.5691 419.996C82.2735 419.675 82.1257 419.3 82.1257 418.869C82.1257 418.441 82.2735 418.069 82.5691 417.754C82.8646 417.436 83.2831 417.193 83.8246 417.025C84.366 416.854 84.9972 416.768 85.7182 416.768ZM85.7182 419.95C86.1851 419.95 86.5884 419.909 86.9282 419.826C87.268 419.743 87.529 419.62 87.7113 419.457C87.8964 419.294 87.9903 419.098 87.9931 418.869C87.9903 418.637 87.8964 418.441 87.7113 418.28C87.529 418.117 87.268 417.994 86.9282 417.912C86.5884 417.829 86.1851 417.789 85.7182 417.791C85.2431 417.789 84.8329 417.829 84.4876 417.912C84.145 417.994 83.8826 418.117 83.7003 418.28C83.518 418.441 83.4268 418.637 83.4268 418.869C83.4268 419.101 83.518 419.298 83.7003 419.461C83.8826 419.622 84.145 419.743 84.4876 419.826C84.8329 419.909 85.2431 419.95 85.7182 419.95ZM97.9337 411.965V410.461H99.2349V416.975H97.9337V415.235H96.0608V414.191H97.9337V413.001H96.0608V411.965H97.9337ZM96.007 416.366C95.4103 416.468 94.8011 416.536 94.1796 416.569C93.5581 416.599 92.6893 416.616 91.5732 416.619H90.7901V413.3H94.1216V412.11H90.7735V411.079H95.4186V414.273H92.0788V415.575C92.9766 415.572 93.7003 415.554 94.25 415.521C94.7998 415.485 95.3453 415.416 95.8868 415.314L96.007 416.366ZM97.9337 418.525H91.9918V417.477H99.2349V421.044H97.9337V418.525Z" fill="#999999"/>
<rect x="80.5" y="323.5" width="176" height="33" rx="4.41667" fill="white"/>
<rect x="80.5" y="323.5" width="176" height="33" rx="4.41667" stroke="#DDDDDD"/>
<path d="M96.2066 335.514H97.6693V344H96.1361V337.001H96.0864L94.1016 338.269V336.873L96.2066 335.514ZM107.317 338.638H108.95V339.736H107.317V345.036H106.012V334.453H107.317V338.638ZM102.751 337.814C102.748 338.344 102.845 338.873 103.041 339.401C103.237 339.925 103.524 340.405 103.903 340.838C104.284 341.272 104.738 341.615 105.266 341.866L104.537 342.856C103.979 342.597 103.493 342.221 103.078 341.729C102.667 341.238 102.346 340.673 102.117 340.035C101.879 340.722 101.544 341.329 101.11 341.854C100.676 342.378 100.165 342.773 99.5768 343.039L98.8516 342.032C99.3931 341.789 99.8599 341.443 100.252 340.996C100.647 340.548 100.947 340.047 101.151 339.492C101.356 338.936 101.459 338.377 101.462 337.814V337.258H99.1997V336.218H101.454V334.677H102.763V336.218H104.988V337.258H102.751V337.814ZM119.033 340.838V334.453H120.338V340.838H119.033ZM114.906 338.244C114.66 338.802 114.313 339.289 113.866 339.703C113.418 340.115 112.888 340.425 112.274 340.635L111.599 339.628C112.151 339.443 112.625 339.178 113.02 338.833C113.415 338.488 113.714 338.095 113.915 337.656C114.117 337.217 114.219 336.762 114.222 336.293V336.16H111.943V335.112H117.773V336.16H115.544V336.293C115.544 336.735 115.643 337.163 115.842 337.577C116.044 337.992 116.338 338.362 116.725 338.688C117.114 339.011 117.582 339.257 118.129 339.425L117.462 340.432C116.871 340.244 116.359 339.961 115.925 339.583C115.491 339.204 115.151 338.758 114.906 338.244ZM119.033 342.38H113.116V341.331H120.338V345.036H119.033V342.38ZM131.215 339.003V340.043H127.076V342.401H125.774V340.043H121.531V339.003H128.468C128.578 338.459 128.649 337.96 128.679 337.507C128.712 337.054 128.729 336.559 128.729 336.023H122.729V334.971H130.03V335.862C130.03 336.464 130.016 336.996 129.989 337.457C129.964 337.919 129.897 338.434 129.79 339.003H131.215ZM122.692 341.443H123.993V343.78H130.212V344.837H122.692V341.443ZM134.058 335.116H135.363L132.628 345.276H131.323L134.058 335.116ZM142.996 340.838V334.453H144.301V340.838H142.996ZM138.869 338.244C138.623 338.802 138.276 339.289 137.829 339.703C137.381 340.115 136.851 340.425 136.237 340.635L135.562 339.628C136.114 339.443 136.588 339.178 136.983 338.833C137.378 338.488 137.677 338.095 137.878 337.656C138.08 337.217 138.182 336.762 138.185 336.293V336.16H135.906V335.112H141.736V336.16H139.507V336.293C139.507 336.735 139.606 337.163 139.805 337.577C140.007 337.992 140.301 338.362 140.688 338.688C141.077 339.011 141.545 339.257 142.092 339.425L141.425 340.432C140.834 340.244 140.322 339.961 139.888 339.583C139.454 339.204 139.114 338.758 138.869 338.244ZM142.996 342.38H137.079V341.331H144.301V345.036H142.996V342.38ZM146.663 334.996H153.976V339.21H146.663V334.996ZM147.939 338.191H152.679V336.036H147.939V338.191ZM145.482 340.449H155.166V341.501H150.939V345.028H149.65V341.501H145.482V340.449Z" fill="#2A2929"/>
<g clip-path="url(#clip1_171_378)">
<path d="M236 337.909C236 337.652 236.136 337.396 236.399 337.216C236.877 336.892 237.591 336.939 237.996 337.322L240.5 339.686L243.002 337.321C243.407 336.938 244.122 336.891 244.601 337.215C245.076 337.54 245.136 338.114 244.731 338.497L241.364 341.68C241.148 341.883 240.833 342 240.5 342C240.168 342 239.852 341.883 239.636 341.68L236.269 338.497C236.088 338.326 236 338.117 236 337.909Z" fill="#222222"/>
</g>
<g clip-path="url(#clip2_171_378)">
<path d="M269.909 344C269.652 344 269.396 343.864 269.216 343.601C268.892 343.123 268.939 342.409 269.322 342.004L271.686 339.5L269.321 336.998C268.938 336.593 268.891 335.878 269.215 335.399C269.54 334.924 270.114 334.864 270.497 335.269L273.68 338.636C273.883 338.852 274 339.167 274 339.5C274 339.832 273.883 340.148 273.68 340.364L270.497 343.731C270.326 343.912 270.117 344 269.909 344Z" fill="#222222" fill-opacity="0.18"/>
</g>
<rect x="282.5" y="323.5" width="176" height="33" rx="4.41667" fill="white"/>
<rect x="282.5" y="323.5" width="176" height="33" rx="4.41667" stroke="#DDDDDD"/>
<path d="M296.23 344L296.226 342.894L299.222 340.006C299.548 339.68 299.799 339.412 299.976 339.202C300.155 338.992 300.292 338.786 300.386 338.584C300.483 338.38 300.531 338.163 300.531 337.934C300.531 337.674 300.468 337.446 300.341 337.25C300.213 337.054 300.038 336.903 299.814 336.798C299.593 336.693 299.345 336.641 299.068 336.641C298.781 336.641 298.528 336.699 298.31 336.815C298.095 336.928 297.929 337.091 297.813 337.304C297.697 337.517 297.639 337.765 297.639 338.05H296.189C296.186 337.522 296.307 337.058 296.553 336.657C296.799 336.257 297.142 335.948 297.581 335.729C298.023 335.508 298.526 335.398 299.089 335.398C299.655 335.398 300.158 335.504 300.597 335.717C301.037 335.927 301.378 336.218 301.621 336.591C301.867 336.964 301.99 337.385 301.99 337.855C301.987 338.186 301.923 338.504 301.799 338.808C301.675 339.109 301.459 339.446 301.153 339.819C300.849 340.189 300.417 340.638 299.856 341.166L298.352 342.662V342.724H302.118V344H296.23ZM311.04 338.638H312.672V339.736H311.04V345.036H309.734V334.453H311.04V338.638ZM306.473 337.814C306.471 338.344 306.567 338.873 306.764 339.401C306.96 339.925 307.247 340.405 307.625 340.838C308.007 341.272 308.461 341.615 308.989 341.866L308.259 342.856C307.701 342.597 307.215 342.221 306.801 341.729C306.389 341.238 306.069 340.673 305.839 340.035C305.602 340.722 305.266 341.329 304.833 341.854C304.399 342.378 303.888 342.773 303.299 343.039L302.574 342.032C303.116 341.789 303.583 341.443 303.975 340.996C304.37 340.548 304.67 340.047 304.874 339.492C305.078 338.936 305.182 338.377 305.185 337.814V337.258H302.922V336.218H305.176V334.677H306.486V336.218H308.711V337.258H306.473V337.814ZM322.755 340.838V334.453H324.061V340.838H322.755ZM318.628 338.244C318.382 338.802 318.036 339.289 317.588 339.703C317.141 340.115 316.61 340.425 315.997 340.635L315.322 339.628C315.874 339.443 316.348 339.178 316.743 338.833C317.138 338.488 317.436 338.095 317.638 337.656C317.84 337.217 317.942 336.762 317.945 336.293V336.16H315.666V335.112H321.496V336.16H319.266V336.293C319.266 336.735 319.366 337.163 319.565 337.577C319.766 337.992 320.061 338.362 320.447 338.688C320.837 339.011 321.305 339.257 321.852 339.425L321.185 340.432C320.594 340.244 320.081 339.961 319.648 339.583C319.214 339.204 318.874 338.758 318.628 338.244ZM322.755 342.38H316.838V341.331H324.061V345.036H322.755V342.38ZM334.938 339.003V340.043H330.798V342.401H329.497V340.043H325.254V339.003H332.19C332.301 338.459 332.371 337.96 332.402 337.507C332.435 337.054 332.452 336.559 332.452 336.023H326.452V334.971H333.753V335.862C333.753 336.464 333.739 336.996 333.711 337.457C333.686 337.919 333.62 338.434 333.512 339.003H334.938ZM326.414 341.443H327.715V343.78H333.935V344.837H326.414V341.443ZM337.78 335.116H339.086L336.351 345.276H335.045L337.78 335.116ZM346.718 340.838V334.453H348.024V340.838H346.718ZM342.591 338.244C342.345 338.802 341.999 339.289 341.551 339.703C341.104 340.115 340.573 340.425 339.96 340.635L339.285 339.628C339.837 339.443 340.311 339.178 340.706 338.833C341.101 338.488 341.399 338.095 341.601 337.656C341.803 337.217 341.905 336.762 341.908 336.293V336.16H339.629V335.112H345.459V336.16H343.229V336.293C343.229 336.735 343.329 337.163 343.528 337.577C343.729 337.992 344.024 338.362 344.41 338.688C344.8 339.011 345.268 339.257 345.815 339.425L345.148 340.432C344.557 340.244 344.044 339.961 343.611 339.583C343.177 339.204 342.837 338.758 342.591 338.244ZM346.718 342.38H340.801V341.331H348.024V345.036H346.718V342.38ZM350.385 334.996H357.699V339.21H350.385V334.996ZM351.662 338.191H356.402V336.036H351.662V338.191ZM349.205 340.449H358.888V341.501H354.662V345.028H353.373V341.501H349.205V340.449Z" fill="#2A2929"/>
<g clip-path="url(#clip3_171_378)">
<path d="M438 337.909C438 337.652 438.136 337.396 438.399 337.216C438.877 336.892 439.591 336.939 439.996 337.322L442.5 339.686L445.002 337.321C445.407 336.938 446.122 336.891 446.601 337.215C447.076 337.54 447.136 338.114 446.731 338.497L443.364 341.68C443.148 341.883 442.833 342 442.5 342C442.168 342 441.852 341.883 441.636 341.68L438.269 338.497C438.088 338.326 438 338.117 438 337.909Z" fill="#222222"/>
</g>
<path d="M85.8177 243.378V245.686H90.0359V246.756H80.3522V245.686H84.5249V243.378H81.4171V238.269H88.9171V243.378H85.8177ZM87.6326 239.314H82.6975V242.355H87.6326V239.314ZM97.8757 243.192V237.453H99.181V243.192H97.8757ZM93.7362 240.938C93.4931 241.477 93.1465 241.945 92.6962 242.343C92.2459 242.738 91.7114 243.033 91.0926 243.229L90.4296 242.206C90.9793 242.043 91.4517 241.804 91.8467 241.489C92.2418 241.174 92.5415 240.812 92.7459 240.403C92.9531 239.994 93.0594 239.568 93.065 239.123H90.786V238.079H96.6161V239.123H94.3868C94.3923 239.54 94.4959 239.942 94.6976 240.329C94.8992 240.715 95.1948 241.058 95.5843 241.356C95.9738 241.655 96.4393 241.88 96.9807 242.032L96.3302 243.047C95.7279 242.87 95.2058 242.599 94.7639 242.235C94.3246 241.87 93.9821 241.438 93.7362 240.938ZM93.4628 244.746H97.884V243.656H99.181V247.912H92.1824V243.656H93.4628V244.746ZM93.4628 246.859H97.884V245.761H93.4628V246.859ZM107.903 248.036V237.453H109.217V248.036H107.903ZM106.059 238.576C106.057 239.678 105.896 240.692 105.579 241.617C105.264 242.54 104.742 243.387 104.013 244.157C103.286 244.928 102.325 245.598 101.129 246.167L100.445 245.123C101.362 244.686 102.123 244.196 102.728 243.652C103.336 243.105 103.803 242.499 104.129 241.833C104.455 241.164 104.656 240.423 104.734 239.608H100.984V238.576H106.059ZM118.743 237.453V240.499H120.223V241.58H118.743V245.09H117.421V237.453H118.743ZM115.863 238.253C115.863 239.184 115.667 240.026 115.275 240.78C114.883 241.532 114.315 242.18 113.572 242.724C112.832 243.265 111.938 243.689 110.891 243.996L110.344 242.96C111.148 242.728 111.843 242.431 112.428 242.069C113.014 241.704 113.475 241.29 113.812 240.826C114.152 240.362 114.359 239.86 114.434 239.322H110.796V238.253H115.863ZM111.939 244.311H113.253V246.78H119.141V247.837H111.939V244.311Z" fill="#999999"/>
<path d="M197.71 268.453V271.022H199.189V272.108H197.71V274.785H196.401V268.453H197.71ZM192.472 272.12C192.238 272.695 191.906 273.192 191.478 273.612C191.05 274.032 190.536 274.348 189.936 274.561L189.232 273.533C189.785 273.34 190.253 273.065 190.637 272.709C191.023 272.352 191.314 271.943 191.507 271.482C191.7 271.018 191.798 270.529 191.801 270.015V269.012H193.102V270.135C193.102 270.586 193.198 271.017 193.388 271.428C193.581 271.837 193.865 272.2 194.238 272.518C194.61 272.836 195.062 273.079 195.593 273.247L194.896 274.262C194.336 274.072 193.849 273.793 193.438 273.425C193.026 273.055 192.704 272.62 192.472 272.12ZM194.262 275.021C194.989 275.021 195.617 275.099 196.148 275.257C196.681 275.414 197.09 275.644 197.374 275.945C197.662 276.243 197.805 276.601 197.805 277.018C197.805 277.441 197.662 277.802 197.374 278.104C197.09 278.405 196.681 278.634 196.148 278.791C195.617 278.949 194.989 279.028 194.262 279.028C193.525 279.028 192.887 278.949 192.348 278.791C191.812 278.634 191.399 278.405 191.109 278.104C190.822 277.802 190.678 277.441 190.678 277.018C190.678 276.601 190.822 276.243 191.109 275.945C191.399 275.644 191.814 275.414 192.352 275.257C192.891 275.099 193.528 275.021 194.262 275.021ZM194.262 278.004C194.994 278.001 195.554 277.917 195.941 277.751C196.33 277.586 196.525 277.341 196.525 277.018C196.525 276.706 196.329 276.465 195.936 276.297C195.544 276.126 194.986 276.04 194.262 276.04C193.779 276.04 193.366 276.079 193.023 276.156C192.684 276.231 192.424 276.341 192.244 276.488C192.068 276.634 191.979 276.811 191.979 277.018C191.977 277.341 192.173 277.586 192.568 277.751C192.963 277.917 193.528 278.001 194.262 278.004ZM206.863 279.061V268.453H208.177V279.061H206.863ZM203.366 270.997C203.363 271.646 203.471 272.28 203.689 272.899C203.91 273.515 204.228 274.064 204.642 274.544C205.057 275.022 205.543 275.381 206.101 275.622L205.326 276.666C204.729 276.39 204.209 275.986 203.764 275.456C203.322 274.923 202.975 274.302 202.724 273.595C202.478 274.36 202.127 275.032 201.671 275.609C201.216 276.184 200.674 276.617 200.047 276.91L199.251 275.825C199.823 275.576 200.319 275.203 200.739 274.706C201.162 274.209 201.485 273.638 201.709 272.994C201.932 272.348 202.046 271.682 202.048 270.997V269.302H203.366V270.997ZM214.84 274.378V276.686H219.058V277.756H209.374V276.686H213.547V274.378H210.439V269.269H217.939V274.378H214.84ZM216.655 270.314H211.72V273.355H216.655V270.314ZM226.898 274.192V268.453H228.203V274.192H226.898ZM222.758 271.938C222.515 272.477 222.169 272.945 221.718 273.343C221.268 273.738 220.734 274.033 220.115 274.229L219.452 273.206C220.002 273.043 220.474 272.804 220.869 272.489C221.264 272.174 221.564 271.812 221.768 271.403C221.975 270.994 222.082 270.568 222.087 270.123H219.808V269.079H225.638V270.123H223.409C223.414 270.54 223.518 270.942 223.72 271.329C223.921 271.715 224.217 272.058 224.606 272.356C224.996 272.655 225.461 272.88 226.003 273.032L225.352 274.047C224.75 273.87 224.228 273.599 223.786 273.235C223.347 272.87 223.004 272.438 222.758 271.938ZM222.485 275.746H226.906V274.656H228.203V278.912H221.205V274.656H222.485V275.746ZM222.485 277.859H226.906V276.761H222.485V277.859Z" fill="#323232"/>
<path d="M111.71 268.453V270.508H113.189V271.59H111.71V273.724H110.401V268.453H111.71ZM109.593 272.903C108.769 273.069 107.957 273.186 107.156 273.256C106.358 273.322 105.536 273.355 104.691 273.355H103.808V268.917H105.117V272.269C106.609 272.25 108.05 272.106 109.439 271.838L109.593 272.903ZM111.71 276.985H106.095V277.859H112.041V278.912H104.794V275.999H110.396V275.207H104.778V274.184H111.71V276.985ZM121.974 272.514H123.267V273.608H121.974V279.036H120.673V268.453H121.974V272.514ZM118.961 271.283C118.959 272.291 119.07 273.193 119.297 273.989C119.524 274.785 119.938 275.405 120.54 275.849L119.716 276.798C119.058 276.287 118.593 275.485 118.319 274.391C118.024 275.543 117.528 276.376 116.832 276.89C116.141 276.37 115.651 275.543 115.361 274.407C115.082 275.496 114.619 276.293 113.972 276.798L113.144 275.849C113.743 275.405 114.156 274.783 114.383 273.985C114.609 273.186 114.724 272.286 114.727 271.283V270.479H113.533V269.423H116.637V270.479H115.957V271.283C115.957 272.04 116.018 272.75 116.14 273.413C116.264 274.073 116.497 274.657 116.84 275.166C117.174 274.66 117.403 274.077 117.528 273.417C117.655 272.754 117.721 272.043 117.727 271.283V270.479H117.039V269.423H120.001V270.479H118.961V271.283ZM134.734 276.318H133.432V271.855H131.328V270.794H133.432V268.461H134.734V276.318ZM129.078 272.39C128.845 272.983 128.513 273.5 128.079 273.939C127.648 274.376 127.129 274.707 126.521 274.934L125.825 273.898C126.377 273.71 126.847 273.435 127.234 273.073C127.62 272.709 127.912 272.289 128.108 271.814C128.304 271.338 128.403 270.837 128.406 270.309V269.104H129.712V270.326C129.712 270.801 129.805 271.26 129.993 271.702C130.184 272.141 130.466 272.533 130.839 272.878C131.214 273.221 131.667 273.483 132.198 273.666L131.485 274.681C130.924 274.471 130.439 274.17 130.031 273.778C129.624 273.383 129.307 272.92 129.078 272.39ZM129.069 275.468V277.78H134.966V278.837H127.752V275.468H129.069ZM143.692 271.105V268.461H144.931V274.905H143.692V272.157H142.586V274.83H141.372V268.656H142.586V271.105H143.692ZM140.883 274.171C140.314 274.276 139.754 274.348 139.205 274.387C138.658 274.423 137.98 274.441 137.17 274.441H136.98H136.275V269.182H140.435V270.235H137.531V271.262H140.328V272.257H137.531V273.372C138.207 273.366 138.789 273.345 139.275 273.309C139.764 273.271 140.257 273.207 140.754 273.119L140.883 274.171ZM143.634 276.425H137.676V275.377H144.931V279.036H143.634V276.425Z" fill="#323232"/>
<circle cx="174" cy="274" r="7.5" fill="white" stroke="#00AEAE"/>
<rect x="166" y="266" width="16" height="16" rx="8" fill="#00AEAE"/>
<g filter="url(#filter1_d_171_378)">
<circle cx="174" cy="274" r="3" fill="white"/>
</g>
<circle cx="88" cy="274" r="7.5" fill="white" stroke="#DDDDDD"/>
<rect x="80.5" y="368.5" width="109.44" height="23" rx="2.5" stroke="#EEEEEE"/>
<path d="M94.5677 384.863V376.044H95.6623V384.863H94.5677ZM93.0311 376.98C93.0288 377.898 92.8953 378.743 92.6305 379.515C92.3681 380.283 91.933 380.989 91.3253 381.631C90.7198 382.273 89.9187 382.832 88.922 383.306L88.3522 382.436C89.1165 382.072 89.7507 381.663 90.2548 381.21C90.7613 380.754 91.1503 380.249 91.422 379.694C91.6936 379.137 91.8616 378.519 91.9261 377.84H88.8011V376.98H93.0311ZM100.096 376.749H102.168V377.546H96.9503V376.749H99.0118V375.989H100.096V376.749ZM102.9 381.994V376.065H103.998V381.994H102.9ZM102.368 381.431C101.526 381.574 100.65 381.668 99.7404 381.714C98.8311 381.758 97.8573 381.78 96.8191 381.78L96.6741 380.948C97.5995 380.948 98.3787 380.938 99.0118 380.92V380.402C98.678 380.36 98.3891 380.283 98.1451 380.171C97.901 380.055 97.7134 379.909 97.5822 379.732C97.451 379.555 97.3865 379.352 97.3888 379.124C97.3865 378.855 97.474 378.62 97.6513 378.42C97.8308 378.22 98.0852 378.065 98.4144 377.957C98.7436 377.849 99.1269 377.795 99.5643 377.795C99.9901 377.795 100.367 377.849 100.693 377.957C101.023 378.065 101.278 378.221 101.46 378.423C101.642 378.624 101.734 378.857 101.736 379.124C101.734 379.352 101.665 379.556 101.529 379.735C101.396 379.913 101.206 380.059 100.959 380.174C100.715 380.287 100.428 380.364 100.096 380.405V380.878C100.911 380.837 101.642 380.775 102.289 380.692L102.368 381.431ZM98.4282 379.124C98.4282 379.304 98.5284 379.444 98.7286 379.546C98.9289 379.647 99.2017 379.698 99.547 379.698C99.8946 379.698 100.172 379.648 100.379 379.549C100.589 379.448 100.695 379.306 100.697 379.124C100.695 378.936 100.591 378.789 100.386 378.686C100.181 378.58 99.9073 378.527 99.5643 378.527C99.2121 378.527 98.9347 378.579 98.7321 378.682C98.5295 378.786 98.4282 378.933 98.4282 379.124ZM102.9 383.206H97.9241V382.363H103.998V384.863H102.9V383.206ZM107.625 379.735V378.517L112.345 380.702V381.69L107.625 383.872V382.653L110.947 381.227V381.165L107.625 379.735ZM121.593 378.896V376.044H122.67V384.884H121.593V379.773H119.745V378.896H121.593ZM118.53 378.164C118.53 378.717 118.615 379.251 118.785 379.767C118.958 380.28 119.209 380.736 119.538 381.134C119.87 381.53 120.264 381.829 120.722 382.032L120.063 382.898C119.575 382.659 119.155 382.317 118.803 381.873C118.453 381.429 118.18 380.911 117.984 380.319C117.786 380.945 117.508 381.497 117.149 381.973C116.789 382.45 116.362 382.812 115.867 383.061L115.184 382.18C115.649 381.964 116.049 381.646 116.385 381.227C116.724 380.806 116.982 380.329 117.159 379.798C117.336 379.264 117.426 378.719 117.428 378.164V376.752H118.53V378.164ZM129.863 376.044H130.957V384.884H129.863V376.044ZM124.075 376.762H125.163V378.969H127.3V376.762H128.374V382.798H124.075V376.762ZM125.163 379.818V381.907H127.3V379.818H125.163ZM135.943 378.824C135.75 379.215 135.491 379.573 135.167 379.898C134.844 380.22 134.47 380.494 134.044 380.72C133.621 380.945 133.165 381.11 132.677 381.213L132.2 380.309C132.794 380.201 133.332 379.991 133.813 379.68C134.294 379.369 134.672 378.999 134.946 378.568C135.222 378.138 135.361 377.698 135.363 377.249V376.6H136.517V377.249C136.517 377.703 136.654 378.145 136.928 378.575C137.202 379.006 137.58 379.376 138.064 379.687C138.549 379.996 139.094 380.203 139.697 380.309L139.21 381.213C138.72 381.112 138.262 380.95 137.836 380.727C137.412 380.501 137.038 380.226 136.714 379.901C136.391 379.577 136.135 379.218 135.943 378.824ZM131.955 383.744V382.847H140.025V383.744H131.955ZM148.645 384.863V376.044H149.74V384.863H148.645ZM147.108 376.98C147.106 377.898 146.973 378.743 146.708 379.515C146.445 380.283 146.01 380.989 145.403 381.631C144.797 382.273 143.996 382.832 142.999 383.306L142.43 382.436C143.194 382.072 143.828 381.663 144.332 381.21C144.839 380.754 145.228 380.249 145.499 379.694C145.771 379.137 145.939 378.519 146.003 377.84H142.878V376.98H147.108ZM154.173 376.749H156.245V377.546H151.028V376.749H153.089V375.989H154.173V376.749ZM156.977 381.994V376.065H158.075V381.994H156.977ZM156.445 381.431C155.603 381.574 154.727 381.668 153.818 381.714C152.908 381.758 151.935 381.78 150.896 381.78L150.751 380.948C151.677 380.948 152.456 380.938 153.089 380.92V380.402C152.755 380.36 152.466 380.283 152.222 380.171C151.978 380.055 151.791 379.909 151.66 379.732C151.528 379.555 151.464 379.352 151.466 379.124C151.464 378.855 151.551 378.62 151.729 378.42C151.908 378.22 152.163 378.065 152.492 377.957C152.821 377.849 153.204 377.795 153.642 377.795C154.067 377.795 154.444 377.849 154.771 377.957C155.1 378.065 155.355 378.221 155.537 378.423C155.719 378.624 155.811 378.857 155.814 379.124C155.811 379.352 155.742 379.556 155.606 379.735C155.473 379.913 155.283 380.059 155.037 380.174C154.793 380.287 154.505 380.364 154.173 380.405V380.878C154.988 380.837 155.719 380.775 156.366 380.692L156.445 381.431ZM152.506 379.124C152.506 379.304 152.606 379.444 152.806 379.546C153.006 379.647 153.279 379.698 153.624 379.698C153.972 379.698 154.249 379.648 154.457 379.549C154.666 379.448 154.772 379.306 154.774 379.124C154.772 378.936 154.668 378.789 154.463 378.686C154.259 378.58 153.985 378.527 153.642 378.527C153.289 378.527 153.012 378.579 152.809 378.682C152.607 378.786 152.506 378.933 152.506 379.124ZM156.977 383.206H152.001V382.363H158.075V384.863H156.977V383.206ZM165.969 379.477H167.329V380.388H165.969V384.863H164.881V376.044H165.969V379.477ZM162.222 378.548C162.22 379.008 162.306 379.473 162.481 379.943C162.659 380.412 162.914 380.839 163.248 381.224C163.584 381.608 163.977 381.905 164.425 382.115L163.818 382.971C163.334 382.745 162.91 382.413 162.544 381.973C162.18 381.531 161.896 381.025 161.691 380.454C161.486 381.075 161.195 381.628 160.817 382.111C160.44 382.592 160.003 382.953 159.508 383.192L158.87 382.336C159.323 382.122 159.721 381.812 160.064 381.407C160.407 380.999 160.671 380.545 160.855 380.043C161.039 379.541 161.132 379.043 161.135 378.548V377.805H159.211V376.914H164.066V377.805H162.222V378.548Z" fill="#2A2929"/>
<path d="M182.272 377.798C182.059 377.601 181.727 377.612 181.529 377.824L180.22 379.229L178.91 377.824C178.712 377.612 178.38 377.601 178.167 377.798C177.955 377.995 177.943 378.328 178.141 378.541L179.501 380L178.141 381.459C177.944 381.672 177.955 382.005 178.167 382.202C178.269 382.296 178.397 382.343 178.524 382.343C178.665 382.343 178.805 382.288 178.91 382.176L180.22 380.771L181.529 382.175C181.633 382.287 181.774 382.342 181.915 382.342C182.042 382.342 182.171 382.295 182.272 382.201C182.484 382.004 182.497 381.671 182.298 381.458L180.938 380L182.298 378.541C182.496 378.328 182.484 377.995 182.272 377.798Z" fill="#999999"/>
</g>
</g>
<defs>
<filter id="filter0_d_171_378" x="17.6" y="45.6" width="644.8" height="512.8" filterUnits="userSpaceOnUse" color-interpolation-filters="sRGB">
<feFlood flood-opacity="0" result="BackgroundImageFix"/>
<feColorMatrix in="SourceAlpha" type="matrix" values="0 0 0 0 0 0 0 0 0 0 0 0 0 0 0 0 0 0 127 0" result="hardAlpha"/>
<feOffset dy="-4"/>
<feGaussianBlur stdDeviation="21.2"/>
<feComposite in2="hardAlpha" operator="out"/>
<feColorMatrix type="matrix" values="0 0 0 0 0.142104 0 0 0 0 0.54285 0 0 0 0 0.557692 0 0 0 0.13 0"/>
<feBlend mode="normal" in2="BackgroundImageFix" result="effect1_dropShadow_171_378"/>
<feBlend mode="normal" in="SourceGraphic" in2="effect1_dropShadow_171_378" result="shape"/>
</filter>
<filter id="filter1_d_171_378" x="167" y="269" width="14" height="14" filterUnits="userSpaceOnUse" color-interpolation-filters="sRGB">
<feFlood flood-opacity="0" result="BackgroundImageFix"/>
<feColorMatrix in="SourceAlpha" type="matrix" values="0 0 0 0 0 0 0 0 0 0 0 0 0 0 0 0 0 0 127 0" result="hardAlpha"/>
<feOffset dy="2"/>
<feGaussianBlur stdDeviation="2"/>
<feComposite in2="hardAlpha" operator="out"/>
<feColorMatrix type="matrix" values="0 0 0 0 0 0 0 0 0 0 0 0 0 0 0 0 0 0 0.1 0"/>
<feBlend mode="normal" in2="BackgroundImageFix" result="effect1_dropShadow_171_378"/>
<feBlend mode="normal" in="SourceGraphic" in2="effect1_dropShadow_171_378" result="shape"/>
</filter>
<clipPath id="clip0_171_378">
<rect width="680" height="420" rx="16" fill="white"/>
</clipPath>
<clipPath id="clip1_171_378">
<rect width="9" height="5" fill="white" transform="translate(236 337)"/>
</clipPath>
<clipPath id="clip2_171_378">
<rect width="9" height="5" fill="white" transform="translate(269 344) rotate(-90)"/>
</clipPath>
<clipPath id="clip3_171_378">
<rect width="9" height="5" fill="white" transform="translate(438 337)"/>
</clipPath>
</defs>
</svg>
