<svg xmlns="http://www.w3.org/2000/svg" width="294" height="385" fill="none"><style>.C{stroke:#f5784b}.D{fill:#f5784b}</style><g fill="#fff"><path d="M.875 0h292.249v385H.875z"/><rect width="259" height="230" x="17.5" y="122.5" stroke="#eee" rx="7.5"/></g><path fill="#000" d="M32.088 40.528H20.84V36.32h9.488v-1.152h-9.52v-1.44h11.12v3.04q0 .512-.224.736c-.224.224-.395.224-.736.224H22.44v1.36h9.648zM26.536 32.8h-1.6l.896-4.752q.032-.224-.032-.288-.064-.08-.288-.08h-5.52v-1.44H27q.4 0 .56.208.176.192.096.56zm5.392.24h-1.6v-1.376h-2.496v-1.472h2.496v-1.424h-2.32v-1.472h2.32v-1.232h1.6zm14.58 7.488h-1.6v-7.616h-1.792v7.616h-1.584V26.064h1.584v5.376h1.792v-5.376h1.6zm-6.128-1.152h-1.664L37.644 28.24q-.032-.32-.128-.432-.08-.128-.288-.128h-.432q-.224 0-.32.128-.08.113-.112.432l-1.296 11.136h-1.664l1.424-11.696h-1.264v-1.44h7.04v1.44H39.18zm24.32.192H51.228v-1.44h3.28V35.44h1.6v2.688h3.712V35.44h1.6v2.688h3.28zm-9.248-5.072q-.864 0-1.536-.304a3.4 3.4 0 0 1-1.136-.864A4 4 0 0 1 52.092 32q-.224-.768-.224-1.68c0-.912.075-1.168.224-1.68a3.8 3.8 0 0 1 .688-1.312 3.1 3.1 0 0 1 1.136-.864q.672-.32 1.536-.32h5.024q.864 0 1.536.32a3 3 0 0 1 1.12.864q.464.544.688 1.312.24.768.24 1.68c0 .912-.08 1.168-.24 1.68a3.7 3.7 0 0 1-.688 1.328 3.2 3.2 0 0 1-1.12.864q-.672.304-1.536.304zm4.816-1.44q.576 0 .976-.208.416-.224.688-.592a2.7 2.7 0 0 0 .4-.88 4.2 4.2 0 0 0 .128-1.056 4.2 4.2 0 0 0-.128-1.056 2.5 2.5 0 0 0-.4-.864 1.84 1.84 0 0 0-.688-.592q-.4-.224-.976-.224H55.66q-.576 0-.992.224a1.9 1.9 0 0 0-.672.592 2.5 2.5 0 0 0-.4.864q-.128.497-.128 1.056c0 .559.043.725.128 1.056s.219.624.4.88q.271.368.672.592.416.208.992.208zm14.788 2.096q1.457 0 2.256.704.8.688.8 1.984c0 1.296-.267 1.525-.8 1.984q-.8.704-2.256.704h-5.584q-1.457 0-2.256-.704-.8-.688-.8-1.984c0-1.296.267-1.525.8-1.984q.8-.704 2.256-.704zm-.912-.992h-1.68l-1.808-5.504a.7.7 0 0 0-.128-.256q-.048-.08-.224-.08H69.2q-.176 0-.24.08a1.6 1.6 0 0 0-.112.256l-1.904 5.504h-1.68l2.016-5.84h-1.808v-1.44h3.488v-1.632h1.6v1.632h3.648v1.44H72.24zm.704 4.928q.847 0 1.248-.336.416-.336.416-.912c0-.576-.139-.688-.416-.912q-.4-.336-1.248-.336H69.68q-.848 0-1.264.336-.4.336-.4.912c0 .576.133.688.4.912q.416.336 1.264.336zm2.976-4.448h-1.6v-3.488h-2.416V29.68h2.416v-3.616h1.6zm14.42 5.888h-1.6v-7.776h-1.952v7.776h-1.584V26.064h1.584v5.216h1.952v-5.216h1.6zm-6.096-1.408H79.78V26.16h1.584v11.52h4.784zm19.716-4.96h-1.6v-2h-2.848q-.495.768-1.392 1.184-.88.416-2.08.416a5.3 5.3 0 0 1-1.648-.24 3.9 3.9 0 0 1-1.264-.704 3.2 3.2 0 0 1-.816-1.104 3.6 3.6 0 0 1-.288-1.472v-.752q0-.816.288-1.456.288-.655.816-1.104a3.6 3.6 0 0 1 1.264-.704 5 5 0 0 1 1.648-.256q1.184 0 2.064.416.897.4 1.392 1.152h2.864v-1.472h1.6zm0 6.368h-1.6v-4.192h-9.568v-1.44h11.168zm-5.504-10.96q0-1.024-.656-1.584-.656-.576-1.76-.576c-1.104 0-1.323.192-1.76.576q-.656.56-.656 1.584v.592q0 1.024.656 1.6.656.56 1.76.56c1.104 0 1.323-.187 1.76-.56q.656-.576.656-1.6zm3.904 1.12v-1.68h-2.336q.016.128.016.24a2 2 0 0 1 .016.24v.752a2 2 0 0 1-.016.24 1.4 1.4 0 0 1-.016.208z"/><path fill="#25a3ac" d="M24.168 65.75c2.332 0 3.656.586 3.668 1.652-.012 1.067-1.336 1.629-3.668 1.629-2.367 0-3.691-.562-3.691-1.629s1.324-1.652 3.691-1.652m0 .961c-1.57 0-2.355.234-2.355.691s.785.68 2.355.668q2.339.018 2.355-.668c-.012-.457-.797-.691-2.355-.691m4.313-7.453v.996h-8.648v-.996h3.691v-.914h1.301v.914zm-4.312 1.324c2.262 0 3.527.516 3.527 1.523 0 .885-1.02 1.4-2.871 1.488v.644h4.184v1.02h-9.656v-1.02h4.172v-.644c-1.84-.088-2.871-.604-2.871-1.488 0-1.008 1.277-1.523 3.516-1.523zm0 .891c-1.406 0-2.121.199-2.121.633 0 .41.715.609 2.121.621 1.418-.012 2.133-.211 2.133-.621 0-.434-.715-.633-2.133-.633m14.019-3.024v5.367h-1.312v-5.367zm-3.199.434c-.012 2.836-1.723 4.453-5.004 5.144l-.457-1.055c2.631-.516 3.861-1.617 4.02-3.035h-3.457v-1.055h4.898zm3.199 5.367v2.766h-5.695v.902h6.012v1.019h-7.324v-2.871h5.695v-.797h-5.719V64.25zm10.855-.727v1.043h-9.668v-1.043h4.195v-1.008h-3.012V58.93h7.313v1.02h-6.012v1.535h6.07v1.031h-3.082v1.008h4.195zm-4.852 1.652c2.285 0 3.656.691 3.668 1.934-.012 1.23-1.383 1.934-3.668 1.934-2.309 0-3.691-.703-3.691-1.934 0-1.242 1.383-1.934 3.691-1.934m0 .996c-1.547 0-2.379.328-2.367.938-.012.609.82.926 2.367.926 1.512 0 2.355-.316 2.367-.926-.012-.609-.855-.937-2.367-.937z"/><path fill="#9c9c9c" d="M60.673 58.449v5.965h-1.289v-5.965zm-6.867.621v3.633c1.658-.018 3.088-.135 4.582-.457l.164 1.078c-1.687.34-3.281.469-5.156.48h-.902V59.07h1.313zm6.867 5.801v4.031h-6.996v-4.031zm-5.719 1.02v1.98h4.453v-1.98zm15.742-7.441v10.606h-1.312V58.449h1.313zm-5.707.774c1.594 0 2.754 1.453 2.766 3.738-.012 2.309-1.172 3.75-2.766 3.75-1.605 0-2.766-1.441-2.766-3.75 0-2.285 1.16-3.738 2.766-3.738m0 1.172c-.902 0-1.512.949-1.512 2.566 0 1.629.609 2.578 1.512 2.578.891 0 1.5-.949 1.5-2.578 0-1.617-.609-2.566-1.5-2.566m19.073 6.293v1.066h-9.68v-1.066h2.238v-2.684c-.844-.48-1.353-1.236-1.348-2.18-.012-1.687 1.652-2.801 3.926-2.801 2.285 0 3.949 1.113 3.949 2.801 0 .926-.492 1.67-1.312 2.156v2.707h2.227zm-4.863-6.633c-1.582 0-2.66.668-2.648 1.77-.012 1.09 1.066 1.77 2.648 1.77s2.672-.68 2.672-1.77c0-1.101-1.09-1.77-2.672-1.77m-1.289 6.633h2.602v-2.215a5.8 5.8 0 0 1-1.312.141 6.4 6.4 0 0 1-1.289-.129v2.203zm10.292-5.977c0 1.16.902 2.309 2.566 2.754l-.609 1.008c-1.225-.334-2.104-1.049-2.59-1.969-.457 1.043-1.342 1.863-2.602 2.238l-.609-1.008c1.652-.504 2.543-1.746 2.543-3.023v-.059h-2.215v-1.031h2.215v-1.219h1.313v1.219h2.203v1.031h-2.215zm5.063-2.262v6.41h-1.301v-2.45h-1.863v-1.055h1.863v-2.906h1.301zm-3.586 6.621c2.238 0 3.621.715 3.621 1.969 0 1.266-1.383 1.992-3.621 1.992-2.227 0-3.609-.727-3.598-1.992-.012-1.254 1.371-1.969 3.598-1.969m0 .996c-1.477.012-2.309.34-2.309.973s.832.984 2.309.984c1.5 0 2.32-.352 2.32-.984s-.82-.961-2.32-.973m13.022-7.617v4.219h1.629v1.078h-1.629v5.297h-1.289V58.449h1.289zm-2.109 1.629v1.043h-6.246v-1.043h2.508v-1.477h1.301v1.477h2.438zm-3.082 1.734c1.523 0 2.66 1.031 2.66 2.496s-1.137 2.484-2.66 2.484c-1.547 0-2.684-1.02-2.672-2.484-.012-1.465 1.125-2.496 2.672-2.496m0 1.066c-.832 0-1.43.563-1.43 1.43s.598 1.418 1.43 1.406c.809.012 1.406-.539 1.418-1.406-.012-.867-.609-1.43-1.418-1.43m15.73-4.418v7.734h-1.313v-7.734zm.293 9.316v1.055h-7.301v-3.375h1.313v2.32zm-5.168-7.699c0 1.477.867 2.871 2.543 3.434l-.668 1.031c-1.207-.422-2.069-1.266-2.531-2.344-.481 1.154-1.354 2.08-2.602 2.531l-.68-1.031a3.77 3.77 0 0 0 2.59-3.621v-1.031h1.348zm17.42-1.617v7.734h-1.3v-3.879h-1.875v-1.055h1.875V58.46h1.3zm.27 9.316v1.055h-7.219v-3.316h1.301v2.262zm-5.25-7.207c0 1.277.855 2.59 2.496 3.129l-.656 1.043a4.14 4.14 0 0 1-2.485-2.215 4.3 4.3 0 0 1-2.601 2.438l-.668-1.055c1.687-.551 2.59-1.945 2.59-3.352v-.281h-2.203v-1.055h5.718v1.055h-2.191zm9.917.891c0 1.641.973 3.504 2.649 4.277l-.727 1.031c-1.195-.562-2.08-1.699-2.554-3.023-.481 1.453-1.407 2.695-2.625 3.281l-.762-1.019c1.687-.797 2.707-2.789 2.719-4.547v-.891h-2.309v-1.078h5.824v1.078h-2.215zm4.5-3.012v4.125h1.629v1.09h-1.629v5.379h-1.3V58.449zm10.586 0v5.367h-1.301v-.926h-2.555v-.996h2.555v-1.043h-2.414c-.668 1.617-2.215 2.672-4.559 3.199l-.457-1.066c2.49-.516 3.733-1.611 3.914-3.023h-3.328v-1.055h4.781a7 7 0 0 1-.07.949h2.133v-1.406zm0 5.777v2.789h-5.661v.879h5.942v1.043h-7.242v-2.894h5.66v-.785h-5.672v-1.031zm10.327-5.777v10.594h-1.242v-5.367h-1.09v4.851h-1.23v-9.891h1.23v3.961h1.09v-4.149h1.242zm-5.894 2.707c0 1.887.632 3.621 2.203 4.43l-.762.996c-1.008-.539-1.67-1.471-2.039-2.625-.363 1.318-1.025 2.379-2.074 3l-.797-.996c1.57-.891 2.203-2.742 2.203-4.805v-.504h-1.887v-1.043h4.887v1.043h-1.734zm18.299-2.707v10.594h-1.254v-5.356h-1.172v4.816h-1.218v-9.855h1.218v3.973h1.172v-4.172zm-7.324 1.219v5.59a17 17 0 0 0 3.023-.316l.129 1.137a20.6 20.6 0 0 1-3.761.328h-.704v-6.738zm17.113 5.543v3.832h-1.301v-2.801h-5.918v-1.031zm0-6.762v6.258h-1.301v-1.406h-2.485c-.503.563-1.265.902-2.144.902-1.594 0-2.801-1.078-2.801-2.602 0-1.5 1.207-2.578 2.801-2.566.873-.006 1.635.322 2.133.879h2.496v-1.465zm-5.93 1.688c-.914 0-1.559.586-1.559 1.465 0 .914.645 1.488 1.559 1.5.867-.012 1.523-.586 1.535-1.5-.012-.879-.668-1.465-1.535-1.465m2.695 2.109h1.934V60.98h-1.922c.041.199.07.404.07.621a2.6 2.6 0 0 1-.082.645m9.191-3.633c2.414 0 3.809.645 3.82 1.816-.011 1.184-1.406 1.816-3.82 1.828-2.414-.012-3.82-.645-3.82-1.828 0-1.172 1.406-1.816 3.82-1.816m0 .961c-1.617 0-2.461.305-2.449.855-.012.586.832.856 2.449.856 1.641 0 2.473-.27 2.473-.856 0-.551-.832-.855-2.473-.855m4.84 3.246v1.043h-9.656V62.82zm-1.207 1.758v2.59h-6.024v.785h6.317v.996h-7.594v-2.707h6.023v-.703h-6.035v-.961zm13.729 2.121v1.066h-9.68v-1.066h4.184v-2.437h1.301V66.7zm-.832-7.395v1.066h-3.34c.041 1.523 1.611 2.924 3.785 3.246l-.515 1.031c-1.793-.328-3.258-1.271-3.938-2.59-.685 1.336-2.138 2.314-3.902 2.648l-.516-1.031c2.115-.357 3.674-1.781 3.715-3.305h-3.328v-1.066h8.039zm9.988-.855v10.594h-1.301V58.449zm-8.778 7.652 2.801-.035v-.973c-1.195-.188-1.969-.92-1.969-1.922 0-1.195 1.055-1.992 2.602-1.992 1.559 0 2.637.797 2.637 1.992 0 .996-.78 1.723-1.969 1.91v.938l2.754-.234.094.973c-2.332.398-4.852.422-6.762.422zm6.668-6.434v1.031h-6.445v-1.031h2.578v-1.184h1.301v1.184zm-3.234 2.508c-.797.012-1.371.375-1.359.996-.012.609.562.973 1.359.961.832.012 1.383-.352 1.383-.961 0-.621-.551-.984-1.383-.996m14.886-3.75v2.391h1.488v1.055h-1.488v2.332h-1.301v-5.777zm0 6.246v2.555h-5.625v.75h5.953v.973h-7.242v-2.625h5.613v-.703h-5.625v-.949zm-2.062-5.367v.996h-6.282v-.996h2.496v-.937h1.301v.938zm-3.141 1.324c1.57.012 2.578.68 2.59 1.734-.012 1.09-1.02 1.734-2.59 1.734s-2.602-.645-2.602-1.734c0-1.055 1.032-1.723 2.602-1.734m0 .938c-.82 0-1.336.293-1.336.797 0 .516.516.797 1.336.797s1.348-.281 1.348-.797c0-.504-.528-.797-1.348-.797m14.866-2.238c0 1.336 1.488 2.684 3.75 2.977l-.516 1.055c-1.799-.27-3.228-1.154-3.914-2.355-.697 1.201-2.121 2.086-3.902 2.355l-.516-1.055c2.238-.293 3.727-1.641 3.727-2.977v-.539h1.371zm4.137 4.945v1.078h-4.207v3.691h-1.29v-3.691h-4.16v-1.078zm6.604 1.066a2.78 2.78 0 0 0 1.312 2.379c.92-.615 1.348-1.576 1.36-2.379v-.434h1.277v.434c-.012 1.113.644 2.145 2.039 2.59l-.633.949c-1.031-.346-1.717-1.02-2.086-1.863-.34.832-.967 1.576-1.922 1.957a3.23 3.23 0 0 1-1.968-1.922 3.48 3.48 0 0 1-2.039 1.828l-.645-.949c1.371-.48 2.027-1.559 2.039-2.59v-.434h1.266zm5.062-6.879v6h-1.312v-6zm-5.777.563c1.629 0 2.848 1.031 2.848 2.52 0 1.477-1.219 2.508-2.848 2.508-1.641 0-2.859-1.031-2.859-2.508 0-1.488 1.218-2.52 2.859-2.52m0 1.102c-.926 0-1.594.551-1.582 1.418-.012.867.656 1.43 1.582 1.43.914 0 1.57-.562 1.57-1.43s-.656-1.418-1.57-1.418m9.859-.902c1.435 0 2.496 1.195 2.683 3.129h2.016V58.45h1.289v10.606h-1.289v-5.648h-2.004c-.141 2.045-1.219 3.305-2.695 3.305-1.594 0-2.719-1.441-2.719-3.75 0-2.285 1.125-3.738 2.719-3.738zm0 1.172c-.879 0-1.477.949-1.465 2.566-.012 1.629.586 2.578 1.465 2.578s1.464-.949 1.476-2.578c-.012-1.617-.597-2.566-1.476-2.566m16.796 6.293v1.066h-9.68v-1.066h2.238v-2.684c-.843-.48-1.353-1.236-1.347-2.18-.012-1.687 1.652-2.801 3.926-2.801 2.285 0 3.949 1.113 3.949 2.801 0 .926-.492 1.67-1.313 2.156v2.707h2.227zm-4.863-6.633c-1.582 0-2.661.668-2.649 1.77-.012 1.09 1.067 1.77 2.649 1.77s2.671-.68 2.671-1.77c0-1.101-1.089-1.77-2.671-1.77m-1.289 6.633h2.601v-2.215a5.8 5.8 0 0 1-1.312.141c-.457 0-.891-.047-1.289-.129zm7.772 1.406a.915.915 0 0 1-.914-.914c0-.492.41-.902.914-.902a.92.92 0 0 1 .903.902.92.92 0 0 1-.903.914"/><g fill="#000" style="fill-opacity:.56"><use href="#B"/><path d="M149.586 198v-.918l2.5-2.412c.713-.713 1.084-1.133 1.084-1.729 0-.654-.518-1.074-1.211-1.074-.732 0-1.201.459-1.191 1.172h-1.211c-.01-1.338.996-2.207 2.412-2.207 1.445 0 2.422.859 2.422 2.051 0 .801-.391 1.445-1.778 2.754l-1.259 1.25v.049h3.144V198zm8.333.098c-1.699 0-2.715-1.319-2.715-3.633 0-2.305 1.016-3.633 2.715-3.633 1.689 0 2.715 1.328 2.715 3.633 0 2.314-1.016 3.633-2.715 3.633m0-1.065c.888 0 1.435-.869 1.435-2.568 0-1.69-.556-2.578-1.435-2.578s-1.436.888-1.436 2.578c0 1.699.547 2.568 1.436 2.568m3.479.967v-.918l2.5-2.412c.713-.713 1.084-1.133 1.084-1.729 0-.654-.518-1.074-1.211-1.074-.732 0-1.201.459-1.191 1.172h-1.211c-.01-1.338.996-2.207 2.412-2.207 1.445 0 2.422.859 2.422 2.051 0 .801-.391 1.445-1.778 2.754l-1.259 1.25v.049h3.144V198zm8.235.098c-1.416 0-2.451-.84-2.49-2.012h1.24c.039.576.576.986 1.25.986a1.31 1.31 0 0 0 1.358-1.357c0-.811-.586-1.387-1.397-1.387-.547-.01-.947.186-1.172.606h-1.181l.429-4.004h4.18v1.064h-3.135l-.215 1.875h.069c.273-.312.791-.537 1.367-.537 1.318 0 2.285.986 2.285 2.344 0 1.416-1.064 2.422-2.588 2.422m6.585-4.141v1.025h-3.184v-1.025zm3.518 4.141c-1.699 0-2.715-1.319-2.715-3.633 0-2.305 1.016-3.633 2.715-3.633 1.69 0 2.715 1.328 2.715 3.633 0 2.314-1.015 3.633-2.715 3.633m0-1.065c.889 0 1.436-.869 1.436-2.568 0-1.69-.557-2.578-1.436-2.578s-1.435.888-1.435 2.578c0 1.699.547 2.568 1.435 2.568m3.548.967 3.066-5.957v-.049h-3.554v-1.064h4.873v1.084L184.602 198zm8.333-4.043v1.025h-3.184v-1.025zm.667 4.043v-.918l2.5-2.412c.712-.713 1.084-1.133 1.084-1.729 0-.654-.518-1.074-1.211-1.074-.733 0-1.202.459-1.192 1.172h-1.211c-.009-1.338.996-2.207 2.412-2.207 1.446 0 2.422.859 2.422 2.051 0 .801-.39 1.445-1.777 2.754l-1.26 1.25v.049h3.145V198zm8.293.098c-1.513 0-2.588-.821-2.617-2.012h1.279c.04.566.606.937 1.338.937.782 0 1.338-.429 1.338-1.054 0-.635-.547-1.094-1.465-1.094h-.634v-.977h.634c.752 0 1.28-.419 1.27-1.035.01-.595-.44-.996-1.133-.996-.664 0-1.24.371-1.26.967h-1.22c.029-1.191 1.103-2.002 2.49-2.002 1.435 0 2.363.879 2.353 1.963.01.791-.517 1.367-1.289 1.523v.059c.996.137 1.563.771 1.553 1.66.01 1.192-1.103 2.061-2.637 2.061M71.32 279.859v.801h-3.477v.645h2.49v2.07h-5.02v.605h5.264v.811H64.25v-2.158h5.019v-.547H64.24v-.781h2.529v-.645h-3.457v-.801zm-3.477-3.838v.743h2.705v.81H67.96c.21.625 1.235 1.094 2.998 1.182l-.322.81c-1.582-.097-2.773-.527-3.33-1.24-.557.713-1.743 1.143-3.34 1.24l-.303-.81c1.743-.088 2.768-.557 2.998-1.182h-2.578v-.81h2.685v-.743h1.074zm6.956 1.612c0 1.084.703 2.099 2.08 2.519l-.518.85c-.991-.308-1.694-.938-2.08-1.738a3.57 3.57 0 0 1-2.197 2.021l-.547-.859c1.426-.469 2.168-1.612 2.168-2.783v-.108H71.84v-.879h4.795v.879H74.8zm3.799-1.592v2.119h1.231v.889h-1.231v2.256h-1.084v-5.264zm-2.871 5.459c1.826 0 2.949.615 2.959 1.67-.01 1.064-1.133 1.689-2.959 1.689-1.846 0-2.988-.625-2.988-1.689 0-1.055 1.143-1.67 2.988-1.67m0 .85c-1.211 0-1.904.283-1.904.82 0 .547.693.84 1.904.84s1.885-.293 1.885-.84c0-.537-.674-.82-1.885-.82m7.434-5.752-2.275 8.466h-1.094l2.285-8.466zm2.962-.01c1.397 0 2.422.879 2.432 2.129-.01 1.089-.776 1.885-1.885 2.08v1.289l2.334-.215.088.781c-1.982.371-4.102.391-5.654.391l-.137-.889 2.285-.029v-1.328c-1.108-.191-1.885-.991-1.885-2.08 0-1.25 1.035-2.129 2.422-2.129m0 .937c-.771 0-1.348.45-1.348 1.192 0 .732.576 1.201 1.348 1.201.781 0 1.367-.469 1.367-1.201 0-.742-.586-1.192-1.367-1.192m4.492-1.484v8.838h-1.084v-8.838zm8.069.508v.732c0 .742 0 1.597-.195 2.715h1.182v.889h-8.066v-.889h5.781c.2-1.064.215-1.855.215-2.568h-5v-.879h6.084zm.254 7.256v.879H92.65v-2.959h1.074v2.08h5.215zm10.435-7.754v6.445h-1.094v-6.445zm.244 7.763v.879h-6.084v-2.812h1.094v1.933zm-4.307-6.416c0 1.231.723 2.393 2.119 2.862l-.556.859a3.5 3.5 0 0 1-2.11-1.953c-.4.962-1.127 1.733-2.168 2.109l-.566-.859c1.436-.508 2.158-1.748 2.158-3.018v-.859h1.123zm8.226.528c0 .967.752 1.924 2.138 2.295l-.507.84c-1.021-.279-1.753-.874-2.159-1.641-.38.869-1.118 1.553-2.168 1.865l-.507-.84c1.377-.42 2.119-1.455 2.119-2.519v-.049h-1.846v-.859h1.846v-1.016h1.093v1.016h1.836v.859h-1.845zm4.218-1.885v5.342h-1.084v-2.041h-1.552v-.879h1.552v-2.422zm-2.988 5.518c1.865 0 3.018.595 3.018 1.64 0 1.055-1.153 1.66-3.018 1.66-1.855 0-3.008-.605-2.998-1.66-.01-1.045 1.143-1.64 2.998-1.64m0 .83c-1.23.009-1.924.283-1.924.81s.694.821 1.924.821c1.25 0 1.934-.293 1.934-.821s-.684-.801-1.934-.81m7.2-4.229c0 1.641.781 3.252 2.188 3.867l-.655.869c-1.001-.488-1.704-1.425-2.08-2.578-.385 1.216-1.103 2.227-2.119 2.744l-.683-.878c1.435-.674 2.236-2.373 2.246-4.024v-1.406h1.103zm4.141-2.119v8.838h-1.074v-5.108h-1.856v-.878h1.856v-2.852zM149.586 284v-.918l2.5-2.412c.713-.713 1.084-1.133 1.084-1.729 0-.654-.518-1.074-1.211-1.074-.732 0-1.201.459-1.191 1.172h-1.211c-.01-1.338.996-2.207 2.412-2.207 1.445 0 2.422.859 2.422 2.051 0 .801-.391 1.445-1.778 2.754l-1.259 1.25v.049h3.144V284zm8.333.098c-1.699 0-2.715-1.319-2.715-3.633 0-2.305 1.016-3.633 2.715-3.633 1.689 0 2.715 1.328 2.715 3.633 0 2.314-1.016 3.633-2.715 3.633m0-1.065c.888 0 1.435-.869 1.435-2.568 0-1.69-.556-2.578-1.435-2.578s-1.436.888-1.436 2.578c0 1.699.547 2.568 1.436 2.568m3.479.967v-.918l2.5-2.412c.713-.713 1.084-1.133 1.084-1.729 0-.654-.518-1.074-1.211-1.074-.732 0-1.201.459-1.191 1.172h-1.211c-.01-1.338.996-2.207 2.412-2.207 1.445 0 2.422.859 2.422 2.051 0 .801-.391 1.445-1.778 2.754l-1.259 1.25v.049h3.144V284zm8.235.098c-1.416 0-2.451-.84-2.49-2.012h1.24c.039.576.576.986 1.25.986a1.31 1.31 0 0 0 1.358-1.357c0-.811-.586-1.387-1.397-1.387-.547-.01-.947.186-1.172.606h-1.181l.429-4.004h4.18v1.064h-3.135l-.215 1.875h.069c.273-.312.791-.537 1.367-.537 1.318 0 2.285.986 2.285 2.344 0 1.416-1.064 2.422-2.588 2.422m6.585-4.141v1.025h-3.184v-1.025zm3.518 4.141c-1.699 0-2.715-1.319-2.715-3.633 0-2.305 1.016-3.633 2.715-3.633 1.69 0 2.715 1.328 2.715 3.633 0 2.314-1.015 3.633-2.715 3.633m0-1.065c.889 0 1.436-.869 1.436-2.568 0-1.69-.557-2.578-1.436-2.578s-1.435.888-1.435 2.578c0 1.699.547 2.568 1.435 2.568m5.989 1.065c-1.416 0-2.451-.84-2.49-2.012h1.24c.039.576.577.986 1.25.986a1.31 1.31 0 0 0 1.358-1.357c0-.811-.586-1.387-1.397-1.387-.547-.01-.947.186-1.172.606h-1.181l.43-4.004h4.179v1.064h-3.135l-.214 1.875h.068c.273-.312.791-.537 1.367-.537 1.318 0 2.285.986 2.285 2.344 0 1.416-1.064 2.422-2.588 2.422m6.585-4.141v1.025h-3.183v-1.025zm3.782-3.027V284h-1.279v-5.83h-.039l-1.651 1.055v-1.163l1.748-1.132zm3.987 7.168c-1.572 0-2.685-.84-2.685-1.993 0-.898.664-1.63 1.513-1.767v-.039c-.742-.156-1.25-.801-1.25-1.572 0-1.094 1.026-1.895 2.422-1.895 1.387 0 2.412.801 2.412 1.895 0 .771-.517 1.416-1.25 1.572v.039c.85.137 1.524.869 1.524 1.767 0 1.153-1.123 1.993-2.686 1.993m0-1.006c.83 0 1.377-.449 1.377-1.104 0-.664-.586-1.152-1.377-1.152-.8 0-1.386.488-1.377 1.152-.009.655.537 1.104 1.377 1.104m0-3.203c.684 0 1.172-.43 1.172-1.045 0-.596-.478-1.016-1.172-1.016-.703 0-1.181.41-1.181 1.016 0 .615.488 1.045 1.181 1.045"/><use y="29" href="#B"/><path d="M149.586 227v-.918l2.5-2.412c.713-.713 1.084-1.133 1.084-1.729 0-.654-.518-1.074-1.211-1.074-.732 0-1.201.459-1.191 1.172h-1.211c-.01-1.338.996-2.207 2.412-2.207 1.445 0 2.422.859 2.422 2.051 0 .801-.391 1.445-1.778 2.754l-1.259 1.25v.049h3.144V227zm8.333.098c-1.699 0-2.715-1.319-2.715-3.633 0-2.305 1.016-3.633 2.715-3.633 1.689 0 2.715 1.328 2.715 3.633 0 2.314-1.016 3.633-2.715 3.633m0-1.065c.888 0 1.435-.869 1.435-2.568 0-1.69-.556-2.578-1.435-2.578s-1.436.888-1.436 2.578c0 1.699.547 2.568 1.436 2.568m3.479.967v-.918l2.5-2.412c.713-.713 1.084-1.133 1.084-1.729 0-.654-.518-1.074-1.211-1.074-.732 0-1.201.459-1.191 1.172h-1.211c-.01-1.338.996-2.207 2.412-2.207 1.445 0 2.422.859 2.422 2.051 0 .801-.391 1.445-1.778 2.754l-1.259 1.25v.049h3.144V227zm8.235.098c-1.416 0-2.451-.84-2.49-2.012h1.24c.039.576.576.986 1.25.986a1.31 1.31 0 0 0 1.358-1.357c0-.811-.586-1.387-1.397-1.387-.547-.01-.947.186-1.172.606h-1.181l.429-4.004h4.18v1.064h-3.135l-.215 1.875h.069c.273-.312.791-.537 1.367-.537 1.318 0 2.285.986 2.285 2.344 0 1.416-1.064 2.422-2.588 2.422m6.585-4.141v1.025h-3.184v-1.025zm3.518 4.141c-1.699 0-2.715-1.319-2.715-3.633 0-2.305 1.016-3.633 2.715-3.633 1.69 0 2.715 1.328 2.715 3.633 0 2.314-1.015 3.633-2.715 3.633m0-1.065c.889 0 1.436-.869 1.436-2.568 0-1.69-.557-2.578-1.436-2.578s-1.435.888-1.435 2.578c0 1.699.547 2.568 1.435 2.568m3.548.967 3.066-5.957v-.049h-3.554v-1.064h4.873v1.084L184.602 227zm8.333-4.043v1.025h-3.184v-1.025zm.667 4.043v-.918l2.5-2.412c.712-.713 1.084-1.133 1.084-1.729 0-.654-.518-1.074-1.211-1.074-.733 0-1.202.459-1.192 1.172h-1.211c-.009-1.338.996-2.207 2.412-2.207 1.446 0 2.422.859 2.422 2.051 0 .801-.39 1.445-1.777 2.754l-1.26 1.25v.049h3.145V227zm5.725 0v-.918l2.5-2.412c.713-.713 1.084-1.133 1.084-1.729 0-.654-.518-1.074-1.211-1.074-.732 0-1.201.459-1.191 1.172h-1.211c-.01-1.338.996-2.207 2.412-2.207 1.445 0 2.422.859 2.422 2.051 0 .801-.391 1.445-1.778 2.754l-1.259 1.25v.049h3.144V227z"/><use y="115" href="#B"/><path d="M149.586 313v-.918l2.5-2.412c.713-.713 1.084-1.133 1.084-1.729 0-.654-.518-1.074-1.211-1.074-.732 0-1.201.459-1.191 1.172h-1.211c-.01-1.338.996-2.207 2.412-2.207 1.445 0 2.422.859 2.422 2.051 0 .801-.391 1.445-1.778 2.754l-1.259 1.25v.049h3.144V313zm8.333.098c-1.699 0-2.715-1.319-2.715-3.633 0-2.305 1.016-3.633 2.715-3.633 1.689 0 2.715 1.328 2.715 3.633 0 2.314-1.016 3.633-2.715 3.633m0-1.065c.888 0 1.435-.869 1.435-2.568 0-1.69-.556-2.578-1.435-2.578s-1.436.888-1.436 2.578c0 1.699.547 2.568 1.436 2.568m3.479.967v-.918l2.5-2.412c.713-.713 1.084-1.133 1.084-1.729 0-.654-.518-1.074-1.211-1.074-.732 0-1.201.459-1.191 1.172h-1.211c-.01-1.338.996-2.207 2.412-2.207 1.445 0 2.422.859 2.422 2.051 0 .801-.391 1.445-1.778 2.754l-1.259 1.25v.049h3.144V313zm8.235.098c-1.416 0-2.451-.84-2.49-2.012h1.24c.039.576.576.986 1.25.986a1.31 1.31 0 0 0 1.358-1.357c0-.811-.586-1.387-1.397-1.387-.547-.01-.947.186-1.172.606h-1.181l.429-4.004h4.18v1.064h-3.135l-.215 1.875h.069c.273-.312.791-.537 1.367-.537 1.318 0 2.285.986 2.285 2.344 0 1.416-1.064 2.422-2.588 2.422m6.585-4.141v1.025h-3.184v-1.025zm3.518 4.141c-1.699 0-2.715-1.319-2.715-3.633 0-2.305 1.016-3.633 2.715-3.633 1.69 0 2.715 1.328 2.715 3.633 0 2.314-1.015 3.633-2.715 3.633m0-1.065c.889 0 1.436-.869 1.436-2.568 0-1.69-.557-2.578-1.436-2.578s-1.435.888-1.435 2.578c0 1.699.547 2.568 1.435 2.568m5.989 1.065c-1.416 0-2.451-.84-2.49-2.012h1.24c.039.576.577.986 1.25.986a1.31 1.31 0 0 0 1.358-1.357c0-.811-.586-1.387-1.397-1.387-.547-.01-.947.186-1.172.606h-1.181l.43-4.004h4.179v1.064h-3.135l-.214 1.875h.068c.273-.312.791-.537 1.367-.537 1.318 0 2.285.986 2.285 2.344 0 1.416-1.064 2.422-2.588 2.422m6.585-4.141v1.025h-3.183v-1.025zm3.782-3.027V313h-1.279v-5.83h-.039l-1.651 1.055v-1.163l1.748-1.132zm4.29 0V313h-1.279v-5.83h-.039l-1.651 1.055v-1.163l1.748-1.132zM71.359 254.936v.888h-8.066v-.888h3.486v-1.827h1.074v1.827zm-.723-5.616v.879h-2.754c.073 1.099 1.221 2.11 3.125 2.363l-.4.85c-1.528-.215-2.705-.893-3.291-1.865-.586.972-1.753 1.65-3.281 1.865l-.41-.85c1.914-.253 3.057-1.264 3.144-2.363h-2.764v-.879h2.773v-1.142h1.074v1.142h2.783zm5.93-.361v.625c0 .791 0 1.895-.244 3.418l-1.074-.088a20 20 0 0 0 .244-3.086h-3.467v-.869zm-2.227 2.52v2.607l2.666-.205.059.81c-1.826.293-3.848.332-5.4.323l-.107-.869 1.709-.03v-2.636zm4.219-3.438v3.594h1.279v.918h-1.279v4.316h-1.094v-8.828zm8.499.508v.732c0 .742 0 1.597-.195 2.715h1.182v.889h-8.066v-.889h5.781c.2-1.064.215-1.855.215-2.568h-5v-.879zm.254 7.256v.879h-6.289v-2.959h1.074v2.08zm9.065-2.764v.879H92.86v2.939h-1.074v-2.939h-3.477v-.879h8.066zm-.986-4.551v3.516h-6.094v-3.516zm-5.029.869v1.797h3.945v-1.797zm15.728-1.308v6.445h-1.094v-6.445zm.244 7.763v.879h-6.084v-2.812h1.094v1.933zm-4.307-6.416c0 1.231.723 2.393 2.119 2.862l-.556.859a3.5 3.5 0 0 1-2.11-1.953c-.4.962-1.127 1.733-2.168 2.109l-.566-.859c1.436-.508 2.158-1.748 2.158-3.018v-.859h1.123zm8.226.528c0 .967.752 1.924 2.138 2.295l-.507.84c-1.021-.279-1.753-.874-2.159-1.641-.38.869-1.118 1.553-2.168 1.865l-.507-.84c1.377-.42 2.119-1.455 2.119-2.519v-.049h-1.846v-.859h1.846v-1.016h1.094v1.016h1.835v.859h-1.845zm4.218-1.885v5.342h-1.083v-2.041h-1.553v-.879h1.553v-2.422zm-2.988 5.518c1.865 0 3.018.595 3.018 1.64 0 1.055-1.153 1.66-3.018 1.66-1.855 0-3.008-.605-2.998-1.66-.01-1.045 1.143-1.64 2.998-1.64m0 .83c-1.23.009-1.924.283-1.924.81s.694.821 1.924.821c1.25 0 1.934-.293 1.934-.821s-.684-.801-1.934-.81m7.2-4.229c0 1.641.781 3.252 2.188 3.867l-.655.869c-1.001-.488-1.704-1.425-2.08-2.578-.385 1.216-1.103 2.227-2.119 2.744l-.683-.878c1.435-.674 2.236-2.373 2.246-4.024v-1.406h1.103zm4.141-2.119v8.838h-1.074v-5.108h-1.856v-.878h1.856v-2.852zM149.586 256v-.918l2.5-2.412c.713-.713 1.084-1.133 1.084-1.729 0-.654-.518-1.074-1.211-1.074-.732 0-1.201.459-1.191 1.172h-1.211c-.01-1.338.996-2.207 2.412-2.207 1.445 0 2.422.859 2.422 2.051 0 .801-.391 1.445-1.778 2.754l-1.259 1.25v.049h3.144V256zm8.333.098c-1.699 0-2.715-1.319-2.715-3.633 0-2.305 1.016-3.633 2.715-3.633 1.689 0 2.715 1.328 2.715 3.633 0 2.314-1.016 3.633-2.715 3.633m0-1.065c.888 0 1.435-.869 1.435-2.568 0-1.69-.556-2.578-1.435-2.578s-1.436.888-1.436 2.578c0 1.699.547 2.568 1.436 2.568m3.479.967v-.918l2.5-2.412c.713-.713 1.084-1.133 1.084-1.729 0-.654-.518-1.074-1.211-1.074-.732 0-1.201.459-1.191 1.172h-1.211c-.01-1.338.996-2.207 2.412-2.207 1.445 0 2.422.859 2.422 2.051 0 .801-.391 1.445-1.778 2.754l-1.259 1.25v.049h3.144V256zm8.235.098c-1.416 0-2.451-.84-2.49-2.012h1.24c.039.576.576.986 1.25.986a1.31 1.31 0 0 0 1.358-1.357c0-.811-.586-1.387-1.397-1.387-.547-.01-.947.186-1.172.606h-1.181l.429-4.004h4.18v1.064h-3.135l-.215 1.875h.069c.273-.312.791-.537 1.367-.537 1.318 0 2.285.986 2.285 2.344 0 1.416-1.064 2.422-2.588 2.422m6.585-4.141v1.025h-3.184v-1.025zm3.518 4.141c-1.699 0-2.715-1.319-2.715-3.633 0-2.305 1.016-3.633 2.715-3.633 1.69 0 2.715 1.328 2.715 3.633 0 2.314-1.015 3.633-2.715 3.633m0-1.065c.889 0 1.436-.869 1.436-2.568 0-1.69-.557-2.578-1.436-2.578s-1.435.888-1.435 2.578c0 1.699.547 2.568 1.435 2.568m3.548.967 3.066-5.957v-.049h-3.554v-1.064h4.873v1.084L184.602 256zm8.333-4.043v1.025h-3.184v-1.025zm.667 4.043v-.918l2.5-2.412c.712-.713 1.084-1.133 1.084-1.729 0-.654-.518-1.074-1.211-1.074-.733 0-1.202.459-1.192 1.172h-1.211c-.009-1.338.996-2.207 2.412-2.207 1.446 0 2.422.859 2.422 2.051 0 .801-.39 1.445-1.777 2.754l-1.26 1.25v.049h3.145V256zm8.596-7.07V256h-1.279v-5.83h-.039l-1.651 1.055v-1.163l1.748-1.132z"/><use y="143" href="#B"/><path d="M149.586 341v-.918l2.5-2.412c.713-.713 1.084-1.133 1.084-1.729 0-.654-.518-1.074-1.211-1.074-.732 0-1.201.459-1.191 1.172h-1.211c-.01-1.338.996-2.207 2.412-2.207 1.445 0 2.422.859 2.422 2.051 0 .801-.391 1.445-1.778 2.754l-1.259 1.25v.049h3.144V341zm8.333.098c-1.699 0-2.715-1.319-2.715-3.633 0-2.305 1.016-3.633 2.715-3.633 1.689 0 2.715 1.328 2.715 3.633 0 2.314-1.016 3.633-2.715 3.633m0-1.065c.888 0 1.435-.869 1.435-2.568 0-1.69-.556-2.578-1.435-2.578s-1.436.888-1.436 2.578c0 1.699.547 2.568 1.436 2.568m3.479.967v-.918l2.5-2.412c.713-.713 1.084-1.133 1.084-1.729 0-.654-.518-1.074-1.211-1.074-.732 0-1.201.459-1.191 1.172h-1.211c-.01-1.338.996-2.207 2.412-2.207 1.445 0 2.422.859 2.422 2.051 0 .801-.391 1.445-1.778 2.754l-1.259 1.25v.049h3.144V341zm8.235.098c-1.416 0-2.451-.84-2.49-2.012h1.24c.039.576.576.986 1.25.986a1.31 1.31 0 0 0 1.358-1.357c0-.811-.586-1.387-1.397-1.387-.547-.01-.947.186-1.172.606h-1.181l.429-4.004h4.18v1.064h-3.135l-.215 1.875h.069c.273-.312.791-.537 1.367-.537 1.318 0 2.285.986 2.285 2.344 0 1.416-1.064 2.422-2.588 2.422m6.585-4.141v1.025h-3.184v-1.025zm3.518 4.141c-1.699 0-2.715-1.319-2.715-3.633 0-2.305 1.016-3.633 2.715-3.633 1.69 0 2.715 1.328 2.715 3.633 0 2.314-1.015 3.633-2.715 3.633m0-1.065c.889 0 1.436-.869 1.436-2.568 0-1.69-.557-2.578-1.436-2.578s-1.435.888-1.435 2.578c0 1.699.547 2.568 1.435 2.568m3.353-.351v-1.016l3.056-4.736h1.582v4.707h.928v1.045h-.928V341h-1.211v-1.318zm1.299-1.045h2.148v-3.262h-.078l-2.07 3.213zm8.205-1.68v1.025h-3.183v-1.025zm.667 4.043v-.918l2.5-2.412c.713-.713 1.084-1.133 1.084-1.729 0-.654-.517-1.074-1.211-1.074-.732 0-1.201.459-1.191 1.172h-1.211c-.01-1.338.996-2.207 2.412-2.207 1.445 0 2.422.859 2.422 2.051 0 .801-.391 1.445-1.778 2.754l-1.259 1.25v.049h3.144V341zm8.294.098c-1.514 0-2.588-.821-2.617-2.012h1.279c.039.566.605.937 1.338.937.781 0 1.338-.429 1.338-1.054 0-.635-.547-1.094-1.465-1.094h-.635v-.977h.635c.752 0 1.279-.419 1.269-1.035.01-.595-.439-.996-1.132-.996-.664 0-1.241.371-1.26.967h-1.221c.029-1.191 1.104-2.002 2.49-2.002 1.436 0 2.364.879 2.354 1.963.01.791-.518 1.367-1.289 1.523v.059c.996.137 1.562.771 1.553 1.66.009 1.192-1.104 2.061-2.637 2.061"/></g><path fill="#9c9c9c" d="M36.506 135.862v.791h-7.242v-.791h3.129v-.843h.967v.843zm-3.146-4.008v.721h2.435v.774H33.44c.119.65 1.055 1.195 2.707 1.309l-.299.747c-1.424-.11-2.474-.553-2.971-1.239-.497.686-1.556 1.129-2.971 1.239l-.299-.747c1.644-.114 2.58-.659 2.707-1.309h-2.338v-.774h2.417v-.721zm-.483 5.239c1.731 0 2.742.474 2.751 1.345-.009.861-1.02 1.335-2.751 1.335-1.74 0-2.769-.474-2.769-1.335 0-.871 1.028-1.345 2.769-1.345m0 .729c-1.169 0-1.784.202-1.775.616-.009.404.606.606 1.775.606 1.143 0 1.767-.202 1.775-.606-.009-.414-.633-.616-1.775-.616m24.912-5.976v5.827h-.976v-2.672h-1.529v-.809h1.529v-2.346zm-2.452.597c0 2.092-1.389 3.665-3.683 4.395l-.413-.782c1.714-.545 2.843-1.556 3.032-2.813h-2.619v-.8zm2.654 6.39v.791h-5.379v-2.54h.993v1.749z"/><path fill="#00aeae" d="M38.901 139v-.826l2.25-2.171c.642-.642.976-1.02.976-1.556 0-.589-.466-.967-1.09-.967-.659 0-1.081.414-1.072 1.055h-1.09c-.009-1.204.897-1.986 2.171-1.986 1.301 0 2.18.773 2.18 1.846 0 .72-.352 1.3-1.6 2.478l-1.134 1.125v.044h2.83V139zm7.499.088c-1.529 0-2.443-1.187-2.443-3.27 0-2.074.914-3.269 2.443-3.269 1.52 0 2.443 1.195 2.443 3.269 0 2.083-.914 3.27-2.443 3.27m0-.958c.8 0 1.292-.782 1.292-2.312 0-1.52-.501-2.32-1.292-2.32s-1.292.8-1.292 2.32c0 1.53.492 2.312 1.292 2.312"/><g fill="#eee"><use href="#C"/><use y="58" href="#C"/><use y="116" href="#C"/><use y="174" href="#C"/><use y="29" href="#C"/><use y="87" href="#C"/><use y="145" href="#C"/></g><path fill="#f3f6fe" d="M18 151h258v28H18z"/><path fill="#eee" d="M53 150v203h-1V150zm167 0v203h-1V150zm-85 0v203h-1V150z"/><rect width="66" height="23" x="169.5" y="86.5" fill="#fff" stroke="#eee" rx="4.5"/><rect width="38" height="24" x="239" y="86" fill="#3c3c3c" rx="5"/><path fill="#169154" d="M182.25 93.5h-3.314a.436.436 0 0 0-.436.436v1.815h3.75z"/><path fill="#18482a" d="M178.5 100.263v1.801c0 .241.195.436.436.436h3.314v-2.237z"/><path fill="#0c8045" d="M178.5 95.751h3.75v2.251h-3.75z"/><path fill="#17472a" d="M178.5 98.001h3.75v2.263h-3.75z"/><path fill="#29c27f" d="M185.564 93.5h-3.314v2.251H186v-1.815a.436.436 0 0 0-.436-.436"/><path fill="#27663f" d="M182.25 100.263v2.237h3.314a.436.436 0 0 0 .436-.436v-1.8z"/><path fill="#19ac65" d="M182.25 95.751H186v2.251h-3.75z"/><path fill="#129652" d="M182.25 98.001H186v2.263h-3.75z"/><path fill="#0c7238" d="M180.58 100.5h-4.16a.42.42 0 0 1-.42-.42v-4.16a.42.42 0 0 1 .42-.42h4.16a.42.42 0 0 1 .42.42v4.16a.42.42 0 0 1-.42.42"/><path fill="#fff" d="M177.452 96.75h.597l.484.939.511-.939h.557l-.767 1.25.785 1.25h-.588l-.527-.983-.526.983h-.596l.798-1.254z"/><path fill="#3c3c3c" d="M199.207 94.041v3.35h1.357v.889h-1.357v4.6h-1.084v-8.838zm-2.422.84v.879h-3.047v4.053c1.372 0 2.456-.068 3.672-.283l.127.918c-1.367.235-2.558.274-4.15.274h-.733v-5.84h4.131zm11.907 3.525v.869h-3.408v1.621h-1.104v-1.621h-3.554v-.869zm-.888 3.399v.888h-6.192v-2.617h1.094v1.729zm-3.155-7.569c1.905 0 3.164.693 3.164 1.807s-1.259 1.797-3.164 1.797-3.164-.684-3.164-1.797 1.26-1.807 3.164-1.807m0 .859c-1.211 0-2.002.342-1.992.947-.01.586.781.928 1.992.928 1.221 0 2.002-.342 2.002-.928 0-.606-.781-.947-2.002-.947m12.396 5.849v.899h-8.067v-.899h3.477V99.51h-2.52v-2.891h5.078v-1.094h-5.097v-.879h6.171v2.832h-5.068v1.143h5.274v.889h-2.764v1.435zm7.444-2.763v.869h-6.192v-4.238h6.123v.879h-5.049v2.49zm.898 2.666v.898h-8.066v-.898z"/><g fill="#fff"><path d="M257.654 94.041v8.828h-1.084v-8.828zm-7.315 6.377 2.334-.029v-.811c-.996-.156-1.64-.767-1.64-1.602 0-.996.879-1.66 2.168-1.66 1.299 0 2.197.664 2.197 1.66 0 .83-.649 1.435-1.641 1.592v.782l2.295-.196.078.811c-1.943.332-4.043.351-5.634.351zm5.557-5.361v.859h-5.371v-.859h2.148v-.986h1.084v.986zm-2.695 2.09c-.664.01-1.143.313-1.133.83-.01.508.469.81 1.133.801.693.01 1.152-.293 1.152-.801 0-.518-.459-.82-1.152-.83m10.042-2.373c0 1.113 1.24 2.236 3.125 2.481l-.43.879c-1.499-.225-2.691-.962-3.262-1.963-.581 1.001-1.767 1.738-3.252 1.963l-.429-.879c1.865-.244 3.105-1.367 3.105-2.481v-.449h1.143zm3.447 4.121v.899h-3.506v3.076h-1.074v-3.076h-3.467v-.899z"/><g stroke="#cdcdcd"><rect width="13" height="13" x="28.5" y="158.5" rx="2.5"/><rect width="13" height="13" x="28.5" y="187.5" rx="2.5"/><rect width="13" height="13" x="28.5" y="216.5" rx="2.5"/><rect width="13" height="13" x="28.5" y="245.5" rx="2.5"/><rect width="13" height="13" x="28.5" y="274.5" rx="2.5"/><rect width="13" height="13" x="28.5" y="303.5" rx="2.5"/><rect width="13" height="13" x="28.5" y="332.5" rx="2.5"/></g></g><path fill="#000" fill-opacity=".63" d="M84.35 165.455v.869h-3.408v1.621h-1.074v-1.621h-3.584v-.869zm-1.035-4.014v3.194h-6.006v-3.194zm-4.951.85v1.494h3.877v-1.494zm5.098 6.523v.879H77.26v-2.558h1.084v1.679zm4.436-5.654c0 1.641.781 3.252 2.188 3.867l-.654.869c-1.001-.488-1.704-1.425-2.08-2.578-.386 1.216-1.103 2.227-2.119 2.744l-.683-.878c1.435-.674 2.236-2.373 2.246-4.024v-1.406H87.9v1.406zm4.141-2.119v8.838h-1.074v-5.108h-1.856v-.878h1.856v-2.852zm8.538 0v8.828h-1.035v-8.828zm-1.797.166v8.232h-1.025v-4.443h-1.27v-.879h1.27v-2.91zm-3.076 2.246c0 1.494.537 2.988 1.797 3.711l-.645.801c-.816-.488-1.357-1.328-1.66-2.334-.312 1.089-.874 2.016-1.709 2.539l-.664-.811c1.279-.771 1.836-2.373 1.836-3.906v-.586h-1.533v-.879h4.004v.879h-1.426zm12.639-2.051v3.067h-2.461v.927h3.487v.879h-8.047v-.879h3.467v-.927h-2.452v-3.067zm-4.951.85v1.357h3.877v-1.357zm4.99 4.766v2.851h-1.084v-1.992h-5.088v-.859zm52.288-5.586v1.123h2.06v-1.123h1.075v3.847h-4.209v-3.847zm0 2.988h2.06v-1.045h-2.06zm5.586-3.379v1.787h1.23v.879h-1.23v1.855h-1.084v-4.521zm0 4.873v2.315h-4.688v.703h4.961v.859h-6.035v-2.353h4.678v-.674h-4.688v-.85zm4.133-3.232c0 .957.557 1.914 1.719 2.353l-.576.83a2.95 2.95 0 0 1-1.65-1.553c-.323.792-.899 1.465-1.739 1.817l-.586-.83c1.211-.537 1.778-1.641 1.788-2.617v-1.094h1.044zm4.795-1.631v5.41h-1.035v-2.295h-.879v2.022h-1.015v-4.971h1.015v2.06h.879v-2.226zm-2.978 5.556c1.846 0 3.017.606 3.027 1.622-.01 1.015-1.181 1.63-3.027 1.63-1.865 0-3.027-.615-3.027-1.63s1.162-1.622 3.027-1.622m0 .821c-1.221 0-1.944.283-1.944.801 0 .527.723.8 1.944.8 1.211 0 1.933-.273 1.933-.8 0-.518-.722-.801-1.933-.801m6.272-6.104c1.338 0 2.334.83 2.344 1.992-.01 1.172-1.006 1.993-2.344 1.993-1.348 0-2.344-.821-2.344-1.993 0-1.162.996-1.992 2.344-1.992m0 .899c-.742 0-1.289.42-1.289 1.093 0 .684.547 1.114 1.289 1.114s1.289-.43 1.289-1.114c0-.673-.547-1.093-1.289-1.093m4.854-1.182v4.463h-1.094v-4.463zm0 4.844v2.304h-4.776v.713h5.039v.86h-6.103v-2.373h4.756v-.655h-4.776v-.849zm4.153-2.334c0 1.367.81 2.92 2.207 3.564l-.606.86c-.996-.469-1.733-1.416-2.129-2.52-.4 1.211-1.171 2.246-2.187 2.734l-.635-.849c1.406-.664 2.256-2.324 2.266-3.789v-.742h-1.924v-.899h4.853v.899h-1.845zm3.75-2.51v3.438h1.357v.908h-1.357v4.482h-1.084v-8.828zm47.46 0v8.838h-1.084v-4.512h-1.709v-.879h1.709v-3.447zm-4.179 2.803c-.01 1.338.791 2.763 2.187 3.379l-.586.83c-1.011-.43-1.743-1.314-2.129-2.373-.39 1.123-1.118 2.065-2.129 2.519l-.586-.84c1.377-.625 2.159-2.129 2.159-3.515v-.459h-1.895v-.869h1.904v-1.289h1.084v1.289h1.846v.869h-1.855zm12.473-2.803v8.838h-1.074v-8.838zm-2.715.771v3.311h-3.037v1.777c1.392-.009 2.593-.078 3.965-.312l.098.889c-1.504.263-2.823.312-4.405.312h-.771v-3.525h3.047v-1.573h-3.057v-.879zm6.829.635c0 1.114.723 2.158 2.08 2.588l-.586.85c-.952-.323-1.635-.967-2.011-1.787-.391.937-1.104 1.674-2.12 2.031l-.586-.85c1.426-.498 2.129-1.67 2.139-2.929v-.84h1.084zm3.838-1.406v2.148h1.23v.899h-1.23v2.236h-1.084v-5.283zm-2.871 5.479c1.826-.01 2.949.615 2.959 1.66-.01 1.064-1.133 1.679-2.959 1.679-1.846 0-2.988-.615-2.988-1.679 0-1.045 1.142-1.67 2.988-1.66m0 .849c-1.211 0-1.904.293-1.904.811 0 .547.693.82 1.904.82s1.885-.273 1.885-.82c0-.518-.674-.811-1.885-.811m8.128-5.371v.869h-2.52v1.445h2.363v.85h-2.363v1.719c1.089-.01 1.846-.049 2.744-.186l.088.889c-1.025.176-1.894.205-3.271.205h-.596v-5.791zm3.74-.957v8.828h-1.045v-4.482h-.908v4.052h-1.026v-8.242h1.026v3.311h.908v-3.467z"/><rect width="29" height="17" x="233.5" y="185.5" stroke="#00aeae" rx="8.5"/><path fill="#00aeae" d="M247.459 189.837v7.945h-.932v-4.052h-.897v3.648h-.896v-7.392h.896v2.962h.897v-3.111zm-3.622.94v.791h-1.986v3.534c.866-.009 1.578-.053 2.382-.203l.07.8c-.958.194-1.793.22-2.9.229h-.536v-5.151zm10.928-.94v7.945h-.985v-7.945zm-2.373.844c0 2.364-.914 4.377-3.701 5.695l-.509-.782c2.078-.989 3.045-2.334 3.217-4.14h-2.813v-.773z"/><rect width="29" height="17" x="233.5" y="214.5" class="C" rx="8.5"/><use class="D" href="#D"/><rect width="29" height="17" x="233.5" y="243.5" stroke="#5766ff" rx="8.5"/><path fill="#5766ff" d="M246.887 247.846v2.294h1.108v.808h-1.108v2.742h-.975v-5.844zm.317 6.987v.791h-5.406v-2.522h.976v1.731zm-5.344-6.425v1.213h1.854v-1.213h.967v3.99h-3.788v-3.99zm0 3.217h1.854v-1.248h-1.854zm12.922-3.788v7.954h-.975v-3.261h-1.45v-.8h1.45v-1.362h-1.424v-.8h1.424v-1.731zm-2.847.685v2.971h-2.549v1.688c1.05-.009 1.964-.053 3.032-.211l.079.8c-1.222.193-2.232.219-3.463.219h-.615v-3.26h2.558v-1.424h-2.584v-.783z"/><rect width="29" height="17" x="233.5" y="272.5" class="C" rx="8.5"/><use y="58" class="D" href="#D"/><rect width="29" height="17" x="233.5" y="301.5" class="C" rx="8.5"/><use y="87" class="D" href="#D"/><rect width="29" height="17" x="233.5" y="330.5" class="C" rx="8.5"/><use y="116" class="D" href="#D"/><defs><path id="B" d="M71.35 194.992v.879h-1.963v2.998h-1.104v-2.998H66.33v2.998h-1.113v-2.998h-1.934v-.879zm-4.053-4.638c1.875.009 3.184.771 3.184 1.972 0 1.182-1.309 1.934-3.184 1.934-1.885 0-3.174-.752-3.164-1.934-.01-1.201 1.279-1.963 3.164-1.972m0 .878c-1.25 0-2.061.401-2.051 1.094-.01.674.801 1.074 2.051 1.074s2.061-.4 2.061-1.074c0-.693-.811-1.094-2.061-1.094m11.731-1.181v6.474h-1.084v-2.187h-2.1a2.34 2.34 0 0 1-1.758.762c-1.328 0-2.334-.957-2.334-2.256 0-1.319 1.006-2.266 2.334-2.266.703 0 1.323.283 1.748.752h2.109v-1.279h1.084zm.225 7.763v.879h-6.016v-2.832h1.084v1.953zm-5.166-6.269c-.762 0-1.299.508-1.299 1.299 0 .781.537 1.289 1.299 1.289.723 0 1.27-.508 1.279-1.289-.01-.791-.557-1.299-1.279-1.299m2.227.664a2.4 2.4 0 0 1 .088.635 2.5 2.5 0 0 1-.078.615h1.621v-1.25zm10.745-1.66v.732c0 .742 0 1.597-.195 2.715h1.182v.889H79.98v-.889h5.781c.2-1.064.215-1.855.215-2.568h-5v-.879h6.084zm.254 7.256v.879h-6.289v-2.959h1.074v2.08zm9.065-2.764v.879h-3.516v2.939h-1.074v-2.939h-3.477v-.879h8.066zm-.986-4.551v3.516h-6.094v-3.516zm-5.029.869v1.797h3.945v-1.797zm15.728-1.308v6.445h-1.094v-6.445zm.244 7.763v.879h-6.084v-2.812h1.094v1.933zm-4.307-6.416c0 1.231.723 2.393 2.119 2.862l-.556.859a3.5 3.5 0 0 1-2.11-1.953c-.4.962-1.127 1.733-2.168 2.109l-.566-.859c1.436-.508 2.158-1.748 2.158-3.018v-.859h1.123zm8.226.528c0 .967.752 1.924 2.138 2.295l-.507.84c-1.021-.279-1.753-.874-2.159-1.641-.38.869-1.118 1.553-2.168 1.865l-.507-.84c1.377-.42 2.119-1.455 2.119-2.519v-.049h-1.846v-.859h1.846v-1.016h1.094v1.016h1.835v.859h-1.845zm4.218-1.885v5.342h-1.083v-2.041h-1.553v-.879h1.553v-2.422zm-2.988 5.518c1.865 0 3.018.595 3.018 1.64 0 1.055-1.153 1.66-3.018 1.66-1.855 0-3.008-.605-2.998-1.66-.01-1.045 1.143-1.64 2.998-1.64m0 .83c-1.23.009-1.924.283-1.924.81s.694.821 1.924.821c1.25 0 1.934-.293 1.934-.821s-.684-.801-1.934-.81m7.2-4.229c0 1.641.781 3.252 2.188 3.867l-.655.869c-1.001-.488-1.704-1.425-2.08-2.578-.385 1.216-1.103 2.227-2.119 2.744l-.683-.878c1.435-.674 2.236-2.373 2.246-4.024v-1.406h1.103zm4.141-2.119v8.838h-1.074v-5.108h-1.856v-.878h1.856v-2.852z"/><path id="C" d="M18 150h259v1H18z"/><path id="D" d="M244.743 219.259c0 .896 1.098 1.81 2.733 2.004l-.36.773c-1.314-.184-2.36-.786-2.865-1.608-.515.83-1.565 1.424-2.883 1.608l-.369-.773c1.643-.194 2.733-1.099 2.742-2.004v-.29h1.002zm3.12 3.278v.774h-7.242v-.774zm-3.63 1.389c1.714-.009 2.742.501 2.751 1.424-.009.914-1.037 1.432-2.751 1.432-1.731 0-2.769-.518-2.769-1.432 0-.923 1.038-1.433 2.769-1.424m0 .738c-1.16 0-1.784.229-1.775.686-.009.457.615.676 1.775.676 1.134 0 1.767-.219 1.775-.676-.008-.457-.641-.686-1.775-.686m10.514-5.818v5.739h-.984v-5.739zm.22 6.987v.791h-5.476v-2.619h.985v1.828zm-4.553-6.469c1.204 0 2.136.835 2.136 1.987 0 1.177-.932 1.995-2.136 1.995-1.213 0-2.144-.818-2.144-1.995 0-1.152.931-1.987 2.144-1.987m0 .853c-.677 0-1.195.448-1.186 1.134-.009.703.509 1.142 1.186 1.142.659 0 1.178-.439 1.178-1.142 0-.686-.519-1.134-1.178-1.134"/></defs></svg>