<svg width="34" height="36" viewBox="0 0 34 36" fill="none" xmlns="http://www.w3.org/2000/svg">
<path d="M24 -4.37114e-07C25.3132 -4.94516e-07 26.6136 0.258657 27.8268 0.761204C29.0401 1.26375 30.1425 2.00035 31.0711 2.92893C31.9997 3.85752 32.7362 4.95991 33.2388 6.17317C33.7413 7.38642 34 8.68678 34 10L24 10L24 -4.37114e-07Z" fill="#0E2E81"/>
<path d="M10 -4.37114e-07C8.68678 -4.94516e-07 7.38642 0.258657 6.17317 0.761204C4.95991 1.26375 3.85752 2.00035 2.92893 2.92893C2.00035 3.85752 1.26375 4.95991 0.761205 6.17317C0.258658 7.38642 4.37114e-07 8.68678 4.37114e-07 10L10 10L10 -4.37114e-07Z" fill="#0E2E81"/>
<circle cx="17" cy="19" r="17" fill="url(#paint0_linear_172_643)"/>
<rect x="15" y="8" width="2" height="10" fill="white"/>
<rect x="16" y="19.4141" width="2" height="8" transform="rotate(-45 16 19.4141)" fill="white"/>
<circle cx="16" cy="18" r="2" fill="#0E2E81"/>
<defs>
<linearGradient id="paint0_linear_172_643" x1="8.5" y1="2" x2="27.0937" y2="33.875" gradientUnits="userSpaceOnUse">
<stop stop-color="#BACDFF"/>
<stop offset="1" stop-color="#86A9FF"/>
</linearGradient>
</defs>
</svg>
