<svg width="34" height="34" viewBox="0 0 34 34" fill="none" xmlns="http://www.w3.org/2000/svg">
<path fill-rule="evenodd" clip-rule="evenodd" d="M17.0107 0.000548368C17.8486 -0.0135834 18.6687 0.245757 19.3486 0.739908C20.2616 1.32582 21.2853 2.4781 22.5607 3.21188C24.3591 4.24419 27.6515 2.82407 29.3392 5.36021C30.327 6.84172 30.3712 7.99958 30.4459 9.14629C30.5262 10.3823 30.742 11.5206 31.9953 13.1946C34.0731 15.9651 34.5047 17.8094 33.434 19.7317C32.7064 21.0402 31.1681 21.7684 30.8139 22.5998C30.0558 24.3659 30.8942 25.6968 29.8566 27.753C29.5279 28.4331 29.0633 29.0372 28.4919 29.5274C27.9206 30.0177 27.2548 30.3834 26.5365 30.6017C25.2915 31.009 24.0465 30.4231 23.0422 30.8444C21.288 31.5894 19.9988 33.3164 18.5988 33.7516C17.5504 34.0828 16.4267 34.0828 15.3783 33.7516C13.9949 33.3164 12.689 31.5894 10.9349 30.8444C9.93614 30.4231 8.68557 31.009 7.44054 30.6017C6.72985 30.3784 6.07217 30.0103 5.50822 29.5203C4.94428 29.0303 4.48607 28.4288 4.16196 27.753C3.1189 25.6968 3.95722 24.3659 3.19914 22.5998C2.845 21.7628 1.30669 21.0402 0.565206 19.7317C-0.50552 17.8094 -0.0711432 15.9651 2.00667 13.1946C3.26001 11.5206 3.47581 10.3823 3.55605 9.14629C3.62798 7.99958 3.67502 6.84172 4.66274 5.36021C6.35875 2.82407 9.665 4.24419 11.4495 3.21467C12.7388 2.48089 13.7598 1.32861 14.6756 0.742698C15.3543 0.24813 16.1733 -0.0121694 17.0107 0.000548368Z" fill="url(#paint0_linear_172_704)"/>
<path d="M20.5302 12.6435C21.2793 11.8319 22.5447 11.7811 23.3563 12.5302C24.1679 13.2794 24.2187 14.5448 23.4696 15.3564L17.9306 21.3564C17.552 21.7664 17.0198 21.9999 16.4618 22C15.9036 22 15.3707 21.7665 14.9921 21.3564L11.5302 17.6064L11.3993 17.4492C10.7905 16.6387 10.8825 15.4826 11.6434 14.7802C12.4043 14.078 13.5639 14.0785 14.3231 14.75L14.4696 14.8935L16.4608 17.0507L20.5302 12.6435Z" fill="white"/>
<defs>
<linearGradient id="paint0_linear_172_704" x1="9" y1="10" x2="48.5" y2="40" gradientUnits="userSpaceOnUse">
<stop stop-color="#2CC8F3"/>
<stop offset="1" stop-color="#06AA45"/>
</linearGradient>
</defs>
</svg>
