<svg xmlns="http://www.w3.org/2000/svg" width="385" height="294" fill="none" xmlns:v="https://vecta.io/nano"><path fill="#fff" d="M0 293.125V.876h385v292.249z"/><path d="M37.728 37.12h-8.896V24.16h1.6v11.52h7.296v1.44zm2.72 1.408h-1.6V24.064h1.6v5.376h1.888v1.472h-1.888v7.616zm12.1-1.248h-9.792v-1.44h9.792v1.44zm2.4 1.248h-1.6V24.064h1.6v14.464zm-3.104-8.288c0 .544-.107 1.035-.32 1.472a3.13 3.13 0 0 1-.88 1.104c-.373.299-.821.533-1.344.704-.523.16-1.099.24-1.728.24s-1.211-.08-1.744-.24c-.523-.171-.971-.405-1.344-.704-.373-.309-.667-.677-.88-1.104-.203-.437-.304-.928-.304-1.472v-2.672c0-.544.101-1.029.304-1.456a3.18 3.18 0 0 1 .88-1.104 3.84 3.84 0 0 1 1.344-.704c.533-.171 1.115-.256 1.744-.256s1.205.085 1.728.256a3.84 3.84 0 0 1 1.344.704c.384.299.677.667.88 1.104.213.427.32.912.32 1.456v2.672zm-1.6-2.592c0-.683-.251-1.211-.752-1.584-.491-.384-1.131-.576-1.92-.576s-1.435.192-1.936.576c-.491.373-.736.901-.736 1.584v2.512c0 .683.245 1.216.736 1.6.501.373 1.147.56 1.936.56s1.429-.187 1.92-.56c.501-.384.752-.917.752-1.6v-2.512zM73.7 32.256H60.228v-1.44h5.936V29.36h-4.928v-4.304c0-.341.075-.587.224-.736s.395-.224.736-.224h10.496v4.064c0 .416-.096.72-.288.912s-.496.288-.912.288h-3.728v1.456H73.7v1.44zm-.928 6.32h-1.6V34.8H61.156v-1.44h11.616v5.216zm-1.68-10.656v-2.384h-8.256v2.384h8.256zm16.628 9.648H74.248v-1.44h3.28V33.6h1.6v2.528h3.712V33.6h1.6v2.528h3.28v1.44zm-.528-4.928H74.776V31.2h2.512l-.352-4.736h1.6l.352 4.736h4.128l.4-4.736h1.6l-.4 4.736h2.576v1.44zm-.4-6.976H75.176v-1.44h11.616v1.44z" fill="#000"/><path d="M33.797 56.854h4.206v1.04h-9.651v-1.04h4.156v-.675c-.671-.039-1.242-.133-1.711-.282s-.827-.352-1.073-.609-.369-.561-.369-.912c0-.387.149-.715.447-.986s.736-.481 1.305-.621 1.26-.211 2.064-.211 1.49.07 2.059.211 1.003.348 1.301.621.452.599.452.986a1.27 1.27 0 0 1-.373.916c-.249.257-.611.46-1.086.609s-1.051.243-1.728.282v.671zm-3.079-2.478c-.008.566.809.852 2.453.858.823-.003 1.441-.075 1.852-.215s.622-.355.622-.642c0-.276-.209-.486-.626-.63s-1.033-.217-1.848-.22c-.807.003-1.419.076-1.836.22s-.623.354-.617.63zm6.083 6.791h-6.025v.787h6.315v.995H29.5v-2.702h6.017v-.688h-6.029v-.986h7.313v2.594zm9.431-4.355v-4.359h1.239v10.583h-1.239v-5.171h-1.04v4.695H43.97v-9.883h1.222v4.135h1.04zm-5.925-4.057h1.289v1.38h1.935v1.048h-5.188v-1.048h1.964v-1.38zm.646 2.979c.445 0 .841.106 1.189.319a2.2 2.2 0 0 1 .825.878c.199.376.298.801.298 1.276 0 .481-.099.91-.298 1.289s-.474.674-.825.887-.745.315-1.189.315-.84-.105-1.193-.315-.626-.508-.825-.887-.294-.808-.294-1.289c0-.475.098-.901.294-1.276a2.2 2.2 0 0 1 .825-.878 2.27 2.27 0 0 1 1.193-.319zm0 3.854a1.11 1.11 0 0 0 .601-.166c.177-.113.315-.273.414-.481s.149-.454.149-.733c0-.273-.051-.515-.153-.725s-.238-.376-.414-.489a1.05 1.05 0 0 0-.597-.174c-.227 0-.428.058-.605.174s-.315.275-.414.485-.145.453-.145.729.048.523.145.733.233.37.41.481.38.166.609.166zm18.205-3.05h1.57v1.069h-1.57v5.412h-1.305V52.453h1.305v4.086zm-6.63 2.785a24.04 24.04 0 0 0 4.512-.472l.141 1.094a21.98 21.98 0 0 1-2.511.356l-2.548.099h-.891v-6.924h1.297v5.847zm15.866-6.87h1.301v10.608h-1.301V52.453zm-4.086.729c.552 0 1.05.109 1.492.327s.789.522 1.04.912a2.37 2.37 0 0 1 .377 1.322c0 .495-.126.937-.377 1.326s-.598.693-1.04.912-.936.323-1.492.323c-.55 0-1.047-.108-1.492-.323s-.789-.522-1.04-.912-.377-.831-.377-1.326.126-.932.377-1.322.598-.693 1.04-.912a3.34 3.34 0 0 1 1.492-.327zm0 1.131a1.89 1.89 0 0 0-.833.178 1.38 1.38 0 0 0-.58.497c-.138.215-.206.467-.203.754a1.35 1.35 0 0 0 .203.758 1.38 1.38 0 0 0 .58.497c.246.116.523.174.833.174s.593-.058.841-.174.443-.282.584-.497.211-.468.211-.758-.07-.539-.211-.754-.336-.381-.584-.497-.529-.178-.841-.178zm-3.385 5.453h.361l3.418-.066 3.062-.278.1.945c-.732.141-1.492.246-2.279.315l-2.217.133-2.287.025-.157-1.073zm17.919-3.207v1.119h4.181v1.053h-9.651v-1.053h4.164v-1.119h-2.95v-3.68h7.21v3.68h-2.954zm1.67-2.656h-4.653v1.624h4.653v-1.624zm.025 6.746h-6.095v-1.028h7.405v3.414h-1.309v-2.387zm9.978-2.059v2.18h2.552v1.053h-9.684v-1.053h2.503v-2.18h-1.678v-1.057h1.5v-3.133h-1.533v-1.052h8.047v1.052h-1.554v3.133h1.513v1.057h-1.666zm-1.131-4.189h-2.379v3.133h2.379v-3.133zm-.178 4.189h-2.014v2.18h2.014v-2.18zm5.403-4.359h5.959v-.646h-5.984v-.895h7.285v2.387h-5.967v.684h6.149v.899h-7.442v-2.428zm-1.227 4.003v-.978h9.683v.978h-9.683zm8.507 3.05h-6.071v.738h6.394v.903h-7.691v-2.486h6.075v-.651h-6.087v-.92h7.38v2.416zm11.889 1.753V52.453h1.252v10.583h-1.252zm-3.688-6.936h1.513v-3.464h1.222v9.895h-1.222v-5.358h-1.513v-1.073zm-.891-.87c0 .594.072 1.17.216 1.728a5.23 5.23 0 0 0 .667 1.533c.304.464.687.84 1.148 1.127l-.721 1.003a3.78 3.78 0 0 1-1.173-1.11 5.93 5.93 0 0 1-.754-1.608c-.196.657-.467 1.242-.812 1.753s-.76.909-1.243 1.202l-.804-.965a4.02 4.02 0 0 0 1.239-1.181 5.33 5.33 0 0 0 .737-1.608c.161-.588.241-1.193.241-1.815V53.39h1.259v1.84zm11.507 2.32c-.748 0-1.41-.095-1.984-.286s-1.021-.467-1.339-.82a1.79 1.79 0 0 1-.476-1.235 1.84 1.84 0 0 1 .476-1.256c.318-.359.764-.635 1.339-.829s1.236-.294 1.984-.294 1.412.098 1.989.294 1.027.47 1.347.829a1.83 1.83 0 0 1 .481 1.256c0 .47-.161.881-.481 1.235s-.769.627-1.347.82-1.24.286-1.989.286zm0-3.671c-.497 0-.932.054-1.305.162s-.656.257-.858.456a.96.96 0 0 0-.294.713c-.003.271.096.504.294.7s.488.347.858.452.808.153 1.305.153.935-.051 1.306-.153.66-.256.862-.452.306-.429.306-.7a.96.96 0 0 0-.306-.713c-.202-.202-.489-.355-.862-.46s-.806-.157-1.306-.157zm-4.815 4.541h9.684v1.073h-4.226v3.551h-1.289v-3.551h-4.169V58.42zm16.936.883l.281-1.798.116-1.504.025-1.533h-6.327v-1.048h7.637v1.019l-.025 1.575-.112 1.529-.278 1.902-1.317-.141zm-2.056-2.379v3.684h4.795v1.069h-9.651v-1.069h3.564v-3.684h1.292zm5.731 4.231h1.488l-.974 3.29h-1.119l.605-3.29zm12.98-8.702v2.08h1.479v1.069h-1.479v2.142h-1.31v-5.291h1.31zm-2.126 4.628a13.17 13.17 0 0 1-1.997.29l-2.71.071h-.253-.862v-4.417h4.741v1.036h-3.448v2.358l2.453-.083c.649-.05 1.293-.139 1.931-.269l.145 1.015zm2.126 3.937h-5.631v.841h5.962v1.053h-7.247v-2.876h5.615v-.791h-5.632v-1.04h6.933v2.814zm10.525-2.341h-1.301v-3.108h-2.109V54.5h2.109v-2.047h1.301v6.224zm-5.619-2.59a4.43 4.43 0 0 1-1.024 1.537c-.442.431-.976.756-1.603.974l-.696-1.048c.569-.188 1.051-.46 1.446-.816s.692-.767.891-1.231a3.79 3.79 0 0 0 .302-1.479v-.999h1.31v.941c-.003.489.089.952.277 1.388s.468.82.841 1.152.833.579 1.372.75l-.7 1.019c-.569-.202-1.057-.489-1.463-.862s-.724-.815-.953-1.326zm2.034 2.876c.746 0 1.39.081 1.931.245s.958.394 1.248.7.435.669.435 1.094-.145.79-.435 1.094-.706.539-1.248.696-1.185.236-1.931.236-1.385-.079-1.926-.236-.958-.39-1.248-.696-.431-.669-.431-1.094.144-.79.431-1.094.706-.54 1.248-.7 1.183-.245 1.926-.245zm-.024 3.041c.748 0 1.326-.086 1.732-.257s.61-.423.613-.746c-.003-.331-.205-.584-.605-.758s-.972-.265-1.716-.265-1.314.088-1.715.265-.595.427-.593.758c-.002.213.085.395.262.547s.44.263.783.34.755.116 1.239.116zm5.962-7.782h5.959v-.646h-5.983v-.895h7.284v2.378h-5.967v.651h6.149v.903h-7.442v-2.391zm8.458 2.963v.965h-2.462v.729h1.285v2.42h-6.071v.746h6.394v.903h-7.691v-2.495h6.075V59.8h-6.087v-.92h1.347v-.729h-2.474v-.965h9.684zm-5.922 1.695h2.163v-.729h-2.163v.729zm11.08-2.623c-.803-.003-1.491-.073-2.063-.211s-1.004-.348-1.305-.622a1.3 1.3 0 0 1-.448-.999 1.28 1.28 0 0 1 .448-.986c.301-.271.736-.475 1.305-.613s1.26-.211 2.063-.211 1.491.07 2.06.211 1.003.343 1.301.613.452.599.452.986c0 .392-.151.725-.452.999s-.732.481-1.301.622-1.256.209-2.06.211zm0-2.681c-.803 0-1.415.073-1.835.22s-.623.356-.618.63c-.002.29.201.505.61.646s1.026.213 1.843.215c.826-.003 1.445-.075 1.857-.215s.617-.356.617-.646c0-.274-.21-.483-.63-.63s-1.034-.22-1.844-.22zm-4.819 4.289v-1.04h9.651v1.04h-9.651zm8.449 3.302h-6.025v.787h6.315v.995h-7.591v-2.706h6.017v-.7h-6.029v-.97h7.313v2.594zm11.579 1.869V52.453h1.314v10.583h-1.314zm-1.844-9.46c-.003 1.102-.163 2.116-.48 3.041s-.837 1.769-1.567 2.54-1.688 1.441-2.884 2.01l-.683-1.044c.917-.436 1.678-.927 2.283-1.471s1.074-1.153 1.4-1.819.528-1.41.605-2.225h-3.75v-1.032h5.076zm9.8 3.721v.883h4.197v1.052h-9.683V58.18h4.197v-.883h-2.971v-2.805h5.959V53.7h-5.984v-1.019h7.285v2.76h-5.967v.845h6.174v1.011h-3.207zm1.749 3.638h-6.154v-1.036h7.463v3.075h-1.309v-2.039zm10.657-4.123v-4.359h1.239v10.583h-1.239v-5.171h-1.04v4.695h-1.222v-9.883h1.222v4.135h1.04zm-5.925-4.057h1.288v1.38h1.935v1.048h-5.187v-1.048h1.964v-1.38zm.646 2.979c.445 0 .841.106 1.189.319a2.2 2.2 0 0 1 .825.878c.199.376.298.801.298 1.276 0 .481-.099.91-.298 1.289s-.474.674-.825.887-.744.315-1.189.315a2.29 2.29 0 0 1-1.193-.315c-.351-.213-.626-.508-.825-.887a2.76 2.76 0 0 1-.294-1.289c0-.475.098-.901.294-1.276a2.2 2.2 0 0 1 .825-.878c.353-.213.751-.319 1.193-.319zm0 3.854a1.11 1.11 0 0 0 .601-.166c.177-.113.315-.273.414-.481s.149-.454.149-.733a1.64 1.64 0 0 0-.153-.725c-.099-.213-.237-.376-.414-.489a1.05 1.05 0 0 0-.597-.174 1.08 1.08 0 0 0-.605.174 1.13 1.13 0 0 0-.414.485c-.097.21-.145.453-.145.729s.048.523.145.733.233.37.41.481.38.166.609.166zm12.887-.953v2.064h4.218v1.065h-9.684v-1.065h4.173v-2.064h-3.108v-5.482h1.306v1.732h4.906v-1.732h1.297v5.482h-3.108zm1.811-2.706h-4.906v1.657h4.906V55.93zm10.62 7.106V52.453h1.251v10.583h-1.251zm-3.688-6.936h1.512v-3.464h1.223v9.895h-1.223v-5.358h-1.512v-1.073zm-.891-.87c0 .594.072 1.17.216 1.728s.366 1.066.667 1.533.686.84 1.148 1.127l-.721 1.003a3.76 3.76 0 0 1-1.173-1.11 5.9 5.9 0 0 1-.754-1.608c-.196.657-.467 1.242-.812 1.753s-.76.909-1.244 1.202l-.803-.965a4.02 4.02 0 0 0 1.239-1.181 5.33 5.33 0 0 0 .737-1.608c.16-.588.24-1.193.24-1.815V53.39h1.26v1.84zm14.155 5.457h2.233v1.069h-9.683v-1.069h2.237v-2.681c-.431-.246-.765-.555-1.003-.928s-.35-.794-.348-1.255c0-.553.167-1.04.502-1.463s.804-.755 1.4-.99 1.274-.352 2.031-.352 1.435.117 2.034.352 1.068.565 1.405.99.51.91.51 1.463a2.3 2.3 0 0 1-.344 1.235c-.23.367-.554.675-.974.924v2.706zm-2.631-6.63c-.528 0-.992.07-1.393.211s-.711.345-.932.613-.331.579-.331.941c0 .356.11.67.331.941s.532.475.932.622.868.215 1.393.215.984-.073 1.388-.22.717-.354.94-.622.34-.58.34-.936c0-.362-.112-.675-.335-.941s-.538-.472-.941-.613a4.21 4.21 0 0 0-1.392-.211zm-1.293 6.63h2.606v-2.205c-.411.088-.849.133-1.313.133-.453 0-.884-.044-1.293-.133v2.205zm7.769 1.405c-.166 0-.319-.04-.46-.12s-.248-.193-.331-.331-.119-.293-.116-.456c-.003-.163.036-.314.116-.452a.92.92 0 0 1 .331-.327c.141-.08.294-.12.46-.12a.88.88 0 0 1 .448.12c.141.08.252.189.335.327a.86.86 0 0 1 .125.452c0 .163-.042.315-.125.456a.94.94 0 0 1-.335.331.88.88 0 0 1-.448.12z" fill="#9c9c9c"/><rect x="28.5" y="92.5" width="328" height="81" rx="4.5" fill="#fff1f1" stroke="#ffe2e2"/><rect x="48.5" y="180.5" width="308" height="81" rx="4.5" fill="#fff" stroke="#eaeaea"/><path d="M95.38 136.42v.58c0 .58 0 1.3-.18 2.22h1.16v.86H88.3v-.86h5.79a9.74 9.74 0 0 0 .21-1.94h-5v-.86h6.08zm-6.16 5.22v-.86h6.14v2.4h-5.04v.76h5.28v.84h-6.36v-2.42h5.04v-.72h-5.06zm15.483 1.3v.9h-8.06v-.9h3.48v-1.44h-2.52v-2.88h5.08v-1.1h-5.1v-.88h6.16v2.84h-5.06v1.14h5.26v.88h-2.76v1.44h3.52zm7.662-6.9v4.54h-1.08v-1.8h-1.78v1.52h-4.12v-3.86h1.08v1.08h1.98v-1.08h1.06v1.44h1.78v-1.84h1.08zm-5.9 3.4h1.98v-1.06h-1.98v1.06zm.08 2.36v-.86h5.82v2.28h-4.72v.68h5v.86h-6.08v-2.34h4.72v-.62h-4.74zm13.686-4.88h1.28v4.62c-.01 1.53-1.15 2.57-2.88 2.56-1.73.01-2.86-1.03-2.86-2.56v-4.62h1.26v4.52c.01.89.63 1.53 1.6 1.54.98-.01 1.6-.65 1.6-1.54v-4.52zm3.36 0l1.56 2.6h.04l1.58-2.6h1.46l-2.2 3.54 2.22 3.54h-1.48l-1.58-2.58h-.04l-1.58 2.58h-1.48l2.24-3.54-2.2-3.54h1.46zm15.024 6.06v.88h-8.06v-.88h2.08v-1.82h-1.4v-.88h1.26v-2.62h-1.28v-.88h6.7v.88h-1.3v2.62h1.26v.88h-1.38v1.82h2.12zm-5.04-2.7h1.98v-2.62h-1.98v2.62zm.14 2.7h1.68v-1.82h-1.68v1.82zm12.503-6.54v.86h-2.57c.09.84 1.17 1.64 2.89 1.84l-.42.86c-1.58-.2-2.74-.9-3.21-1.85-.47.95-1.63 1.65-3.21 1.85l-.4-.86c1.71-.2 2.78-1.01 2.87-1.84h-2.55v-.86h6.6zm-7.34 4.92v-.88h8.08v.88h-3.42v1.62h-1.08v-1.62h-3.58zm.98 3.34v-2.54h1.08v1.66h5.12v.88h-6.2zm14.165-8.1v3.66h-4.26v-3.66h4.26zm-3.74 7.42c1.71-.16 2.79-.92 2.89-1.62h-2.53v-.8h2.56v-.78h1.08v.78h2.56v.8h-2.53c.09.69 1.16 1.44 2.85 1.62l-.36.82c-1.43-.15-2.52-.71-3.06-1.45-.54.75-1.64 1.3-3.08 1.45l-.38-.82zm.56-4.6h2.1v-1.98h-2.1v1.98zm4.74 1.64v-5.02h1.06v5.02h-1.06zm11.326-.4v.88h-6.18v-4.8h6.12v.88h-5.02v1.06h4.8v.86h-4.8v1.12h5.08zm-7.16 3.14v-.9h8.06v.9h-8.06zm11.822-7.08v2.72h-2.06v1.1c1.02-.01 1.78-.06 2.68-.22l.1.86c-1.05.19-1.94.22-3.24.22h-.6v-2.76h2.08v-1.06h-2.08v-.86h3.12zm-1.86 7.98v-2.68h1.1v1.8h5.06v.88h-6.16zm2.2-5.48v-.88h.9v-2.14h1.04v6.26h-1.04v-3.24h-.9zm2.7 3.46v-6.62h1.02v6.62h-1.02zm8.983-2.5v.88h-6.18v-4.26h6.1v.9h-5.04v2.48h5.12zm-7.16 3.56v-.9h8.06v.9h-8.06zm15.943-7.7v8.82h-1.04v-8.82h1.04zm-7.52 3.82c0-1.94.75-3.15 1.9-3.14 1.08-.01 1.8.99 1.92 2.64h.86v-3.16h1.04v8.24h-1.04v-4.2h-.85c-.09 1.73-.83 2.78-1.93 2.78-1.15 0-1.9-1.21-1.9-3.16zm1 0c0 1.38.34 2.12.9 2.12.59 0 .94-.74.94-2.12s-.35-2.13-.94-2.12c-.56-.01-.9.74-.9 2.12zm16.925-3.82v8.82h-1.02v-4.48h-1v4.04h-1v-8.2h1v3.28h1v-3.46h1.02zm-7.32 6.76v-5.72h3.3v.88h-2.2v3.93c.96-.01 1.75-.06 2.64-.23l.08.9c-1.06.21-1.99.24-3.22.24h-.6zm15.043-6.74v2.76h1.24v.9h-1.24v2.92h-1.1v-6.58h1.1zm-6.96 1.84v-.88h2.08v-.98h1.08v.98h2.08v.88h-5.24zm.46 2.06c-.01-1.03.88-1.7 2.16-1.7 1.27 0 2.15.67 2.16 1.7-.01 1-.89 1.66-2.16 1.66-1.28 0-2.17-.66-2.16-1.66zm.84 4.74v-2.58h1.08v1.7h4.92v.88h-6zm.2-4.74c0 .52.45.82 1.12.82s1.12-.3 1.12-.82c0-.55-.45-.86-1.12-.86s-1.12.31-1.12.86zm16.265-3.92v8.84h-1.1v-8.84h1.1zm-7.06 3.76c-.01-1.9.96-3.11 2.3-3.12 1.33.01 2.3 1.22 2.3 3.12 0 1.92-.97 3.13-2.3 3.12-1.34.01-2.31-1.2-2.3-3.12zm1.04 0c0 1.36.51 2.15 1.26 2.14.74.01 1.25-.78 1.26-2.14-.01-1.34-.52-2.14-1.26-2.14-.75 0-1.26.8-1.26 2.14zm11.322-2.36v.88h-4.32v-.88h1.64v-1.14h1.06v1.14h1.62zm-4.08 3.4c0-1.21.81-2.06 1.94-2.06 1.11 0 1.91.85 1.92 2.06-.01 1.22-.81 2.08-1.92 2.08-1.13 0-1.94-.86-1.94-2.08zm.96 0c0 .71.4 1.15.98 1.14.56.01.96-.43.96-1.14 0-.7-.4-1.15-.96-1.16-.58.01-.98.46-.98 1.16zm3.48 3.62v-8.24h1.02v3.46h.86v-3.64h1.04v8.82h-1.04v-4.3h-.86v3.9h-1.02z" fill="#000"/><path d="M95.32 120.4v3.06h-2.46v.94h3.48v.88H88.3v-.88h3.46v-.94H89.3v-3.06h6.02zm-6.14 6.48v-.86h6.18v2.84h-1.1v-1.98h-5.08zm1.18-4.28h3.88v-1.34h-3.88v1.34zm14.343 4.38v.88h-8.06v-.88h2.08v-1.82h-1.4v-.88h1.26v-2.62h-1.28v-.88h6.7v.88h-1.3v2.62h1.26v.88h-1.38v1.82h2.12zm-5.04-2.7h1.98v-2.62h-1.98v2.62zm.14 2.7h1.68v-1.82h-1.68v1.82z" fill="#ff1673"/><path d="M115.9 224.04v8.82h-1.04v-4.52h-.94v4.1h-1.02v-8.24h1.02v3.26h.94v-3.42h1.04zm-7.34 6.56V225h3.48v5.6h-3.48zm1.02-.86h1.44v-3.88h-1.44v3.88zm14.463-5.68v5.14h-1.1v-.36h-1.64v-.66h1.64v-4.12h1.1zm-7.42 3.18l5.74-.2.06.68-2.46.22v1.28h-1.08v-1.24l-2.14.02-.12-.76zm.64-1.72c-.01-.81.87-1.33 2.22-1.34 1.31.01 2.2.53 2.2 1.34 0 .82-.89 1.32-2.2 1.32-1.35 0-2.23-.5-2.22-1.32zm.66 4.7v-.74h6.12v1.98h-5.02v.56h5.26v.78h-6.34v-2.06h5.02v-.52h-5.04zm.36-4.7c-.01.37.45.59 1.2.6.72-.01 1.19-.23 1.18-.6.01-.38-.46-.61-1.18-.62-.75.01-1.21.24-1.2.62zm11.945-.6V232h-1.28v-5.84h-.04l-1.66 1.06v-1.16l1.76-1.14h1.22zm8.46-.88v8.82h-1.08v-8.82h1.08zm-7.3 6.38l2.32-.03v-.81c-.99-.16-1.64-.76-1.64-1.6 0-1 .89-1.66 2.18-1.66s2.19.66 2.18 1.66c.01.84-.65 1.44-1.64 1.6v.77l2.3-.19.08.8c-1.94.33-4.04.35-5.64.36l-.14-.9zm.18-4.5v-.86h2.14v-.98h1.1v.98h2.12v.86h-5.36zm1.54 2.06c-.01.5.47.8 1.14.8.68 0 1.15-.3 1.16-.8-.01-.52-.48-.83-1.16-.82-.67-.01-1.15.3-1.14.82zm13.485-3.06h1.28v4.62c-.01 1.53-1.15 2.57-2.88 2.56-1.73.01-2.86-1.03-2.86-2.56v-4.62h1.26v4.52c.01.89.63 1.53 1.6 1.54.98-.01 1.6-.65 1.6-1.54v-4.52zm3.361 0l1.56 2.6h.04l1.58-2.6h1.46l-2.2 3.54 2.22 3.54h-1.48l-1.58-2.58h-.04l-1.58 2.58h-1.48l2.24-3.54-2.2-3.54h1.46zm10.104 1.24c0 1.58.79 3.17 2.16 3.84l-.66.86c-.97-.48-1.65-1.42-2.03-2.55-.39 1.21-1.11 2.2-2.11 2.71l-.68-.88c1.43-.66 2.24-2.35 2.24-3.98v-1.4h1.08v1.4zm2.68 6.7v-8.82h1.08v3.46h1.36v.92h-1.36v4.44h-1.08zm5.803-7.92v3.28h-1.98v1.7c.78-.02 1.56-.07 2.46-.22l.08.88c-1.1.2-1.99.24-3 .24h-.58v-3.46h1.96v-1.54h-1.98v-.88h3.04zm.44 4.38v-.88h1.04v-1.3h-1.04v-.88h1.04v-2.06h1.02v8.22h-1.02v-3.1h-1.04zm2.84 3.54v-8.82h1.02v8.82h-1.02zm11.925-4.24v.86h-3.42V231h-1.08v-1.52h-3.58v-.86h8.08zm-7.1 4.08v-2.44h1.08v1.56h5.12v.88h-6.2zm.08-4.78v-3.6h1.06v1h3.82v-1h1.08v3.6h-5.96zm1.06-.86h3.82v-.94h-3.82v.94zm9.443-1.62c-.01 1.13.7 2.22 2.06 2.66l-.58.86a3.43 3.43 0 0 1-2.02-1.85 3.6 3.6 0 0 1-2.12 2.03l-.58-.88c1.43-.48 2.14-1.63 2.14-2.88v-.88h1.1v.94zm-1.84 5.14v-.86h6.02v3.14h-1.08v-2.28h-4.94zm3.18-3.94v-.88h1.76v-1.72h1.08v5.24h-1.08v-2.64h-1.76zm10.585-2.04v3.66h-4.26v-3.66h4.26zm-3.74 7.42c1.71-.16 2.79-.92 2.89-1.62h-2.53v-.8h2.56v-.78h1.08v.78h2.56v.8h-2.53c.09.69 1.16 1.44 2.85 1.62l-.36.82c-1.43-.15-2.52-.71-3.06-1.45-.54.75-1.64 1.3-3.08 1.45l-.38-.82zm.56-4.6h2.1v-1.98h-2.1v1.98zm4.74 1.64v-5.02h1.06v5.02h-1.06zm11.746-5.02v8.82h-1.06v-4.46h-.96v4.02h-1.02v-8.2h1.02v3.3h.96v-3.48h1.06zm-7.2 6.62v-5.6h1.08v4.66c.76-.02 1.6-.08 2.52-.26l.12.94a16.76 16.76 0 0 1-3.14.26h-.58zm16.022-1.48v.86h-3.52v2.82h-1.08v-2.82h-3.48v-.86h8.08zm-7.1-.92v-3.86h1.08v1.08h3.94v-1.08h1.08v3.86h-6.1zm1.08-.88h3.94v-1.04h-3.94v1.04zm12.346 2.18c1.93 0 3.14.61 3.14 1.66 0 1.03-1.21 1.64-3.14 1.64-1.89 0-3.12-.61-3.12-1.64 0-1.05 1.23-1.66 3.12-1.66zm-3.96-.64v-.88h3.12v-1.6h1.06v1.6h3.84v.88h-8.02zm.92-3.6v-.86h6.12v.72c.01.71.01 1.45-.24 2.36l-1.06-.1c.21-.86.22-1.47.22-2.12h-5.04zm1.02 5.9c-.01.52.75.8 2.02.8 1.29 0 2.06-.28 2.06-.8 0-.54-.77-.84-2.06-.84-1.27 0-2.03.3-2.02.84zM240.05 229v.88h-1.98v2.98h-1.1v-2.98h-1.96v2.98h-1.1v-2.98h-1.94V229h8.08zm-7.24-2.68c.01-1.19 1.3-1.96 3.18-1.96s3.18.77 3.18 1.96-1.3 1.94-3.18 1.94-3.17-.75-3.18-1.94zm1.12 0c0 .68.81 1.08 2.06 1.08s2.06-.4 2.06-1.08-.81-1.09-2.06-1.08c-1.25-.01-2.06.4-2.06 1.08z" fill="#000"/><path d="M111.06 210.36c-.01 1.42.48 2.91 1.68 3.66l-.6.84c-.8-.48-1.31-1.31-1.6-2.28-.32 1.06-.89 1.96-1.72 2.46l-.66-.8c1.27-.78 1.84-2.33 1.84-3.84v-1.58h1.06v1.54zm.74 1.62v-.9h1.26v-2.88h1.02v8.24h-1.02v-4.46h-1.26zm3.06 4.88v-8.82h1.04v8.82h-1.04zm9.843-3.68v.86h-3.52v2.82h-1.08v-2.82h-3.48v-.86h8.08zm-7.1-.92v-3.86h1.08v1.08h3.94v-1.08h1.08v3.86h-6.1zm1.08-.88h3.94v-1.04h-3.94v1.04zm13.322-2.98v3.06h-2.46v.94h3.48v.88h-8.04v-.88h3.46v-.94h-2.46v-3.06h6.02zm-6.14 6.48v-.86h6.18v2.84h-1.1v-1.98h-5.08zm1.18-4.28h3.88v-1.34h-3.88v1.34zm14.343 4.38v.88h-8.06v-.88h2.08v-1.82h-1.4v-.88h1.26v-2.62h-1.28v-.88h6.7v.88h-1.3v2.62h1.26v.88h-1.38v1.82h2.12zm-5.04-2.7h1.98v-2.62h-1.98v2.62zm.14 2.7h1.68v-1.82h-1.68v1.82z" fill="#5766ff"/><use href="#C" fill="#ffd9d9"/><g fill="#ff1673"><path d="M55.001 137l7.778-7.778 2.333 2.333-7.778 7.778z"/><path d="M66.938 127.397l-1.546 7.609-6.062-6.063 7.608-1.546z"/></g><use href="#C" x="20" y="88" fill="#eff4fa"/><g filter="url(#A)"><path d="M86.454 226.818a1 1 0 0 1-1 1h-8.909a1 1 0 0 1-1-1v-9.495a1 1 0 0 1 .293-.707l1.071-1.07 1.071-1.071a1 1 0 0 1 .707-.293h6.768a1 1 0 0 1 1 1v11.636z" fill="#fff"/></g><path d="M78.272 219.636h5.455V221h-5.455zm0 2.728h5.455v1.364h-5.455z" fill="#5766ff"/><g filter="url(#B)"><rect x="42" y="214" width="14" height="14" rx="2" fill="#fff"/><rect x="42.5" y="214.5" width="13" height="13" rx="1.5" stroke="#eaeaea"/></g><path fill="#d9d9d9" d="M46 220h6v2h-6z"/><rect x="273" y="119" width="65" height="28" rx="14" fill="#ffd9d9"/><path d="M288.122 129.268v.774h-2.574v1.764c1.44 0 2.304-.063 3.276-.252l.108.756c-1.062.243-2.025.27-3.708.27h-.648v-3.312h3.546zm-2.79 4.662v-.774h5.202v2.106h-4.23v.63h4.482v.792h-5.436v-2.16h4.212v-.594h-4.23zm4.212-1.116v-3.978h.99v1.566h1.116v.792h-1.116v1.62h-.99zm5.132-2.844c0 1.089.63 2.079 1.872 2.466l-.522.774c-.864-.315-1.476-.891-1.809-1.647-.351.864-1.008 1.548-1.971 1.881l-.522-.774c1.314-.441 1.971-1.503 1.98-2.646v-.756h.972v.702zm-1.638 5.274c-.009-.963 1.026-1.521 2.7-1.53 1.683.009 2.709.567 2.718 1.53-.009.981-1.035 1.53-2.718 1.53-1.674 0-2.709-.549-2.7-1.53zm.972 0c-.009.495.621.765 1.728.756 1.107.009 1.737-.261 1.746-.756-.009-.495-.639-.756-1.746-.756s-1.737.261-1.728.756zm1.854-4.068v-.81h1.584v-1.53h.972v4.68h-.972v-2.34h-1.584zm10.677 1.206v.738h-1.854v.54h.972v1.818h-4.554v.558h4.788v.684h-5.76v-1.872h4.554v-.504h-4.572v-.684h1.008v-.54h-1.854v-.738h7.272zm-6.372-2.7v-.666h5.472v1.782h-4.482v.486h4.608v.684h-5.58v-1.8h4.464v-.486h-4.482zm1.926 3.978h1.62v-.54h-1.62v.54zm9.094 2.43c-1.278 0-2.214-.765-2.25-1.818h1.116c.045.522.531.891 1.134.882.711.009 1.224-.504 1.224-1.206 0-.729-.531-1.251-1.26-1.26-.495 0-.864.18-1.062.558h-1.062l.378-3.618h3.762v.972h-2.808l-.198 1.692h.054c.252-.288.72-.486 1.242-.486 1.179 0 2.061.873 2.052 2.106.009 1.269-.954 2.178-2.322 2.178zm5.384 0c-1.539 0-2.448-1.188-2.448-3.276 0-2.07.918-3.267 2.448-3.258 1.521-.009 2.439 1.188 2.448 3.258-.009 2.088-.927 3.276-2.448 3.276zm-1.296-3.276c0 1.53.495 2.313 1.296 2.304.792.009 1.287-.774 1.278-2.304.009-1.512-.486-2.313-1.278-2.322-.801.009-1.296.81-1.296 2.322zm7.809 1.656c0-.738.486-1.368 1.35-1.368.873 0 1.341.63 1.332 1.368v.342c.009.729-.468 1.359-1.332 1.368-.882-.009-1.35-.639-1.35-1.368v-.342zm-3.24-3.312v-.324c.009-.747.495-1.377 1.35-1.368.882-.009 1.341.621 1.35 1.368v.324c-.009.747-.477 1.368-1.35 1.368s-1.341-.621-1.35-1.368zm.36 4.842l4.374-6.372h.774L320.98 136h-.774zm.468-4.842c-.009.333.126.666.522.666.405 0 .531-.333.522-.666v-.324c.009-.333-.108-.666-.522-.666-.387 0-.531.333-.522.666v.324zm3.222 3.654c0 .324.135.648.54.648.396 0 .522-.324.522-.648v-.342c0-.333-.117-.657-.522-.666-.396.009-.54.333-.54.666v.342z" fill="#ff1673"/><rect x="274" y="208" width="63" height="26" rx="13" stroke="#e3e3e3" stroke-width="2"/><path d="M288.122 217.268v.774h-2.574v1.764c1.44 0 2.304-.063 3.276-.252l.108.756c-1.062.243-2.025.27-3.708.27h-.648v-3.312h3.546zm-2.79 4.662v-.774h5.202v2.106h-4.23v.63h4.482v.792h-5.436v-2.16h4.212v-.594h-4.23zm4.212-1.116v-3.978h.99v1.566h1.116v.792h-1.116v1.62h-.99zm5.132-2.844c0 1.089.63 2.079 1.872 2.466l-.522.774c-.864-.315-1.476-.891-1.809-1.647-.351.864-1.008 1.548-1.971 1.881l-.522-.774c1.314-.441 1.971-1.503 1.98-2.646v-.756h.972v.702zm-1.638 5.274c-.009-.963 1.026-1.521 2.7-1.53 1.683.009 2.709.567 2.718 1.53-.009.981-1.035 1.53-2.718 1.53-1.674 0-2.709-.549-2.7-1.53zm.972 0c-.009.495.621.765 1.728.756 1.107.009 1.737-.261 1.746-.756-.009-.495-.639-.756-1.746-.756s-1.737.261-1.728.756zm1.854-4.068v-.81h1.584v-1.53h.972v4.68h-.972v-2.34h-1.584zm10.677 1.206v.738h-1.854v.54h.972v1.818h-4.554v.558h4.788v.684h-5.76v-1.872h4.554v-.504h-4.572v-.684h1.008v-.54h-1.854v-.738h7.272zm-6.372-2.7v-.666h5.472v1.782h-4.482v.486h4.608v.684h-5.58v-1.8h4.464v-.486h-4.482zm1.926 3.978h1.62v-.54h-1.62v.54zm6.718 1.152v-.918l2.754-4.266h1.422v4.248h.828v.936h-.828V224h-1.098v-1.188h-3.078zm1.17-.936h1.926v-2.934h-.054l-1.872 2.88v.054zm6.845 2.214c-1.539 0-2.448-1.188-2.448-3.276 0-2.07.918-3.267 2.448-3.258 1.521-.009 2.439 1.188 2.448 3.258-.009 2.088-.927 3.276-2.448 3.276zm-1.296-3.276c0 1.53.495 2.313 1.296 2.304.792.009 1.287-.774 1.278-2.304.009-1.512-.486-2.313-1.278-2.322-.801.009-1.296.81-1.296 2.322zm7.809 1.656c0-.738.486-1.368 1.35-1.368.873 0 1.341.63 1.332 1.368v.342c.009.729-.468 1.359-1.332 1.368-.882-.009-1.35-.639-1.35-1.368v-.342zm-3.24-3.312v-.324c.009-.747.495-1.377 1.35-1.368.882-.009 1.341.621 1.35 1.368v.324c-.009.747-.477 1.368-1.35 1.368s-1.341-.621-1.35-1.368zm.36 4.842l4.374-6.372h.774L321.235 224h-.774zm.468-4.842c-.009.333.126.666.522.666.405 0 .531-.333.522-.666v-.324c.009-.333-.108-.666-.522-.666-.387 0-.531.333-.522.666v.324zm3.222 3.654c0 .324.135.648.54.648.396 0 .522-.324.522-.648v-.342c0-.333-.117-.657-.522-.666-.396.009-.54.333-.54.666v.342z" fill="#848484"/><use href="#D" fill="#22abff"/><path d="M332.93 111.854v5.994h-.99v-.684h-1.548v-.684h1.548v-4.626h.99zm-6.696 3.564l5.112-.234.054.702c-.648.108-1.332.18-1.998.225v1.521h-.972v-1.467l-2.088.027-.108-.774zm.594-1.872c.009-.846.81-1.413 1.998-1.404 1.152-.009 1.962.558 1.962 1.404s-.81 1.395-1.962 1.386c-1.179.009-1.989-.54-1.998-1.386zm.45 6.084v-2.358h.99v1.566h4.842v.792h-5.832zm.486-6.084c-.009.432.423.675 1.062.684.603-.009 1.035-.252 1.044-.684-.009-.432-.441-.693-1.044-.684-.639-.009-1.071.252-1.062.684zm12.278-1.728v1.8h1.116v.774h-1.116v1.764h-.99v-4.338h.99zm-6.264 1.404v-.756h1.872v-.684h.972v.684h1.872v.756h-4.716zm.414 1.548c-.009-.792.765-1.296 1.944-1.296s1.935.504 1.944 1.296c-.009.819-.765 1.305-1.944 1.296-1.179.009-1.953-.477-1.944-1.296zm.648 2.448v-.72h5.202v1.926h-4.23v.558h4.482v.738h-5.436v-1.98h4.212v-.522h-4.23zm.288-2.448c0 .396.396.594 1.008.594.621 0 1.008-.198 1.008-.594 0-.378-.387-.603-1.008-.594-.612-.009-1.008.216-1.008.594z" fill="#fff"/><use href="#D" y="88" fill="#ff8052"/><path d="M329.258 202.086c0 1.314.765 2.682 2.052 3.222l-.54.774c-.936-.414-1.629-1.251-1.989-2.259-.36 1.089-1.062 2.016-1.989 2.457l-.558-.774c1.251-.576 2.034-2.061 2.034-3.42v-.666h-1.746v-.792h4.482v.792h-1.746v.666zm2.628 5.688v-7.938h.99v7.938h-.99zm8.534-7.92v5.814h-.972v-1.962h-1.89c-.378.423-.945.684-1.584.684-1.197 0-2.097-.855-2.088-2.034-.009-1.179.891-2.034 2.088-2.034.639 0 1.206.261 1.584.684h1.89v-1.152h.972zm-5.616 2.502a1.12 1.12 0 0 0 1.17 1.17c.657-.009 1.152-.459 1.152-1.17s-.495-1.161-1.152-1.17a1.12 1.12 0 0 0-1.17 1.17zm.414 5.274v-2.556h.972v1.764h4.428v.792h-5.4zm2.772-4.716h1.458v-1.116h-1.458a2.2 2.2 0 0 1 0 1.116z" fill="#fff"/><defs><filter id="A" x="72.745" y="212.382" width="16.509" height="19.237" filterUnits="userSpaceOnUse" color-interpolation-filters="sRGB"><feFlood flood-opacity="0" result="A"/><feColorMatrix in="SourceAlpha" values="0 0 0 0 0 0 0 0 0 0 0 0 0 0 0 0 0 0 127 0" result="B"/><feOffset dy="1"/><feGaussianBlur stdDeviation="1.4"/><feComposite in2="B" operator="out"/><feColorMatrix values="0 0 0 0 0.341176 0 0 0 0 0.4 0 0 0 0 1 0 0 0 0.19 0"/><feBlend in2="A"/><feBlend in="SourceGraphic"/></filter><filter id="B" x="38" y="213" width="22" height="22" filterUnits="userSpaceOnUse" color-interpolation-filters="sRGB"><feFlood flood-opacity="0" result="A"/><feColorMatrix in="SourceAlpha" values="0 0 0 0 0 0 0 0 0 0 0 0 0 0 0 0 0 0 127 0" result="B"/><feOffset dy="3"/><feGaussianBlur stdDeviation="2"/><feComposite in2="B" operator="out"/><feColorMatrix values="0 0 0 0 0 0 0 0 0 0 0 0 0 0 0 0 0 0 0.09 0"/><feBlend in2="A"/><feBlend in="SourceGraphic"/></filter><path id="C" d="M61 118c12 0 15 3 15 15s-3 15-15 15-15-3-15-15 3-15 15-15z"/><path id="D" d="M321 111a4 4 0 0 1 4-4h18a4 4 0 0 1 4 4v10a4 4 0 0 1-4 4h-22v-14z"/></defs></svg>