<?xml version="1.0" encoding="utf-8"?>
<!-- Generator: Adobe Illustrator 16.0.0, SVG Export Plug-In . SVG Version: 6.00 Build 0)  -->
<!DOCTYPE svg PUBLIC "-//W3C//DTD SVG 1.1//EN" "http://www.w3.org/Graphics/SVG/1.1/DTD/svg11.dtd">
<svg version="1.1" id="Layer_1" xmlns="http://www.w3.org/2000/svg" xmlns:xlink="http://www.w3.org/1999/xlink" x="0px" y="0px"
	 width="48px" height="48px" viewBox="0 0 48 48" enable-background="new 0 0 48 48" xml:space="preserve">
<g>
	<path fill="#0C0C0C" d="M18.362,26.457h6.422L21.526,41.24c-0.522,2.364-1.438,4.084-2.754,5.16
		c-1.29,1.055-3.111,1.587-5.468,1.587H5.553c-2.356,0-3.957-0.528-4.804-1.587c-0.815-1.08-0.967-2.801-0.444-5.16l3.043-13.803
		l-0.146-0.98h6.422L6.364,41.24c-0.298,1.349,0.229,2.023,1.576,2.023h5.053c1.347,0,2.171-0.675,2.47-2.023l3.042-13.803
		L18.362,26.457z"/>
	<path fill="#0C0C0C" d="M33.75,31.258h11.397l-3.583-4.801h-7.858c-2.396,0-4.265,0.549-5.603,1.646
		c-1.13,0.925-1.969,2.347-2.521,4.266c-0.086,0.307-0.259,1.115-0.303,1.348c-0.297,1.914-0.082,3.336,0.64,4.266
		c0.854,1.098,2.477,1.646,4.877,1.646h6.029c0.988,0,1.605,0.795,1.39,1.785c-0.216,0.989-1.187,1.784-2.176,1.784H23.657
		l-0.211,0.969l-0.625,2.847L22.604,48h13.487c2.396,0,4.265-0.55,5.603-1.647c0.94-0.773,1.683-1.888,2.218-3.34
		c0.363-0.989,0.604-2.065,0.691-3.047c0.134-1.53-0.112-2.692-0.733-3.487c-0.854-1.098-2.478-1.646-4.873-1.646h-6.029
		c-0.989,0-1.605-0.795-1.39-1.785c0.215-0.989,1.187-1.784,2.175-1.784L33.75,31.258z"/>
	<path fill="#5766FF" d="M46.938,31.258L48,26.457h-4.644L46.938,31.258z"/>
</g>
<g>
	<path fill="#5766FF" d="M40.407,0H24.982l0.261,1.03v20.657l-0.261,1.031h6.761V5.064h7.221c1.438,0.105,2.167,0.725,2.167,2.17
		v1.695c0,0.046,0,0.091,0,0.132c-0.046,1.349-0.77,1.938-2.162,2.038h-1.626h-4.885l8.5,11.619H48l-5.048-6.801
		c0.537-0.114,1.073-0.251,1.552-0.461c0.929-0.41,1.64-1.03,2.121-1.859c0.61-1.008,0.943-2.379,1.002-4.121
		c0-0.037,0-0.073,0-0.109c0-0.042,0-0.087,0-0.127c0-0.101,0-0.201,0-0.306V7.238c0-2.53-0.578-4.362-1.734-5.497
		C44.768,0.579,42.938,0,40.407,0z"/>
	<path fill="#5766FF" d="M0,0l0.26,1.03v20.657L0,22.718h6.76v-8.824h9.028v7.793l-0.26,1.031h6.76v-1.031V1.03V0h-6.76l0.26,1.025
		v7.804H6.76V0H0z"/>
	
		<linearGradient id="SVGID_1_" gradientUnits="userSpaceOnUse" x1="289.1465" y1="-358.3154" x2="280.9427" y2="-358.3154" gradientTransform="matrix(1 0 0 -1 -273.6602 -346.96)">
		<stop  offset="0" style="stop-color:#000000;stop-opacity:0.3"/>
		<stop  offset="0.04" style="stop-color:#141414;stop-opacity:0.28"/>
		<stop  offset="1" style="stop-color:#FFFFFF;stop-opacity:0"/>
	</linearGradient>
	<path fill="url(#SVGID_1_)" d="M15.787,8.825H7.133v5.063h8.654V8.825z"/>
	
		<linearGradient id="SVGID_2_" gradientUnits="userSpaceOnUse" x1="313.1318" y1="-358.7744" x2="320.2951" y2="-349.9353" gradientTransform="matrix(1 0 0 -1 -273.6602 -346.96)">
		<stop  offset="0" style="stop-color:#000000;stop-opacity:0.3"/>
		<stop  offset="0.04" style="stop-color:#141414;stop-opacity:0.28"/>
		<stop  offset="1" style="stop-color:#FFFFFF;stop-opacity:0"/>
	</linearGradient>
	<path fill="url(#SVGID_2_)" d="M44.485,15.457c0.93-0.41,1.64-1.03,2.122-1.859c0.61-1.008,0.942-2.379,1.002-4.121
		c0-0.037,0-0.073,0-0.109c0-0.042,0-0.087,0-0.127c0-0.101,0-0.201,0-0.306V7.238c0-2.53-0.578-4.362-1.734-5.497
		C44.754,0.579,42.925,0,40.398,0l-1.443,5.064c1.438,0.105,2.167,0.725,2.167,2.17v1.695c0,0.046,0,0.091,0,0.132
		c-0.041,1.217-0.634,1.81-1.776,1.992l3.602,4.859c0.533-0.109,1.065-0.251,1.544-0.46L44.485,15.457z"/>
</g>
</svg>
