<svg xmlns="http://www.w3.org/2000/svg" width="440" height="500" fill="none"><g clip-path="url(#a)"><g filter="url(#b)" opacity=".12"><rect width="461.823" height="670.249" x="579.123" y="147.93" fill="#0F24FF" fill-opacity=".86" rx="230.911" style="mix-blend-mode:multiply" transform="rotate(30 579.123 147.93)"/></g><rect width="460" height="240" x="60" y="308" fill="#fff" rx="16"/><rect width="420" height="200" x="80" y="328" fill="#F4F6FC" rx="12"/><path fill="#000" d="M128.236 374.592h-5.194v4.62h-1.4v-4.62h-5.194v-1.26h11.788zm-1.246-2.1h-1.4l.42-4.144q.042-.392-.392-.392h-8.288v-1.26h9.45q.364 0 .546.21.197.21.168.56zm5.421 6.72q-1.274 0-1.974-.658-.7-.644-.7-1.834t.7-1.834q.7-.658 1.974-.658h4.887q1.274 0 1.974.658.7.644.7 1.834t-.7 1.834q-.7.658-1.974.658zm7.309-5.432h-1.4v-3.206h-2.226v2.786h-1.4v-5.39h-1.232q-.449 0-.644.182-.183.168-.336.504l-2.086 4.704h-1.555l2.213-5.026q.182-.392.335-.7a1.8 1.8 0 0 1 .365-.504q.223-.21.531-.308.309-.112.785-.112h3.024v2.576h2.226v-2.73h1.4zm-2.604 4.172q.741 0 1.092-.35.363-.336.364-.882 0-.546-.364-.882-.351-.35-1.092-.35h-4.522q-.743 0-1.107.35-.35.336-.349.882 0 .546.349.882.364.35 1.107.35zm11.595-7.854a2.3 2.3 0 0 1-.77.784 3.8 3.8 0 0 1-1.176.49 6.4 6.4 0 0 1-1.512.168 6.5 6.5 0 0 1-1.526-.168 3.8 3.8 0 0 1-1.176-.49 2.5 2.5 0 0 1-.77-.784 2.2 2.2 0 0 1-.266-1.092q0-.602.266-1.078a2.4 2.4 0 0 1 .77-.798 3.8 3.8 0 0 1 1.176-.49 6.5 6.5 0 0 1 1.526-.168q.827 0 1.512.168t1.176.49q.504.322.77.798.28.476.28 1.078 0 .616-.28 1.092m3.136 6.79h-1.4v-1.33h-3.122v-1.232h3.122v-7.77h1.4zm.084 2.324h-10.066v-3.5h1.4v2.24h8.666zm-2.394-5.782h-3.808v2.212h-1.4v-2.212h-3.15v-1.26h8.358zm-2.604-3.444q.658-.308.658-.98t-.658-.966q-.644-.308-1.68-.308t-1.694.308q-.644.294-.644.966t.644.98q.658.294 1.694.294t1.68-.294"/><path fill="#404040" d="M123.359 406.248h1.657v1.005h-1.657v2.878h-1.207v-6.42h1.207zm-2.163 2.603a24 24 0 0 1-2.653.382q-1.302.112-2.676.116h-.929v-5.077h1.212v4.076a26.5 26.5 0 0 0 4.898-.493zm2.163 6.074h-7.285v-4.202h7.285zm-1.176-3.259h-4.933v2.294h4.933zm12.565-1.248h-1.203v-3.407h-2.397v-.992h2.397v-2.317h1.203zm-6.015-2.963a4.8 4.8 0 0 1-1.109 1.719 4.7 4.7 0 0 1-1.755 1.096l-.647-.97a4.45 4.45 0 0 0 1.54-.88 3.9 3.9 0 0 0 .992-1.342 3.9 3.9 0 0 0 .35-1.616v-1.127h1.203v1.078a3.5 3.5 0 0 0 .324 1.503q.332.714.951 1.253.624.534 1.473.812l-.656.943a4.7 4.7 0 0 1-1.616-.97 4.5 4.5 0 0 1-1.05-1.499m2.204 3.277q1.19 0 2.051.26.867.256 1.329.746.467.489.467 1.171 0 .678-.467 1.163-.462.484-1.329.736-.861.251-2.051.251-1.194 0-2.061-.251-.866-.252-1.328-.736a1.62 1.62 0 0 1-.454-1.163q-.004-.682.458-1.171.462-.49 1.329-.746.866-.26 2.056-.26m0 3.376q.826 0 1.423-.139.597-.144.911-.413.32-.27.319-.647a.84.84 0 0 0-.319-.664q-.314-.278-.911-.422-.593-.144-1.423-.144t-1.428.144q-.596.144-.911.422a.84.84 0 0 0-.31.664q-.004.377.31.647.315.269.911.413.597.139 1.428.139m16.17-10.406h1.212V415.1h-1.212zm-7.582.948h1.203v2.922h3.07v-2.922h1.19v7.729h-5.463zm1.203 3.878v2.855h3.07v-2.855zm14.19-.768q-1.284-.004-2.195-.233-.912-.23-1.392-.669a1.4 1.4 0 0 1-.48-1.068q0-.624.48-1.064t1.392-.669q.915-.23 2.195-.229 1.28 0 2.19.229.912.23 1.387.669.481.44.481 1.064 0 .628-.481 1.068-.475.44-1.387.669-.907.229-2.19.233m0-3.025a8 8 0 0 0-1.531.125q-.629.126-.956.364-.324.233-.319.566-.004.52.714.79.723.269 2.092.274 1.378-.005 2.1-.274.723-.27.723-.79 0-.502-.732-.777-.727-.273-2.091-.278m5.193 3.64v.965h-2.792v1.015h1.477v2.662h-6.617v1.019h6.945v.934h-8.125v-2.819h6.612v-.894h-6.635v-.902h1.513v-1.015h-2.747v-.965zm-6.428 1.98h2.433v-1.015h-2.433zm15.114-6.653h1.213V415.1h-1.213zm-4.879.853q.849 0 1.513.494.669.493 1.046 1.401.377.902.377 2.096 0 1.203-.377 2.11t-1.046 1.4q-.664.49-1.513.49a2.5 2.5 0 0 1-1.522-.49q-.669-.494-1.046-1.4-.372-.907-.372-2.11 0-1.198.372-2.101.377-.906 1.046-1.396a2.5 2.5 0 0 1 1.522-.494m0 1.078q-.525.004-.929.363-.4.355-.624 1.015-.225.655-.225 1.535 0 .888.225 1.549.224.66.624 1.014.404.355.929.355t.925-.355q.4-.354.619-1.014.225-.66.225-1.549 0-.885-.225-1.54-.22-.66-.619-1.014a1.37 1.37 0 0 0-.925-.359m46.775 2.136v-4.067h1.203V415.1h-1.203v-6.334h-3.161v-.997zm-6.518 3.533a43 43 0 0 0 2.585-.081 19 19 0 0 0 2.128-.278l.135.988q-1.171.219-2.317.3-1.14.077-2.855.077h-.893v-7.546h5.212v.996h-3.995zm17.637-3.815v1.297h4.588v.969h-10.369v-.969h4.583v-1.297h-3.201v-3.542h1.194v2.572h6.653v.97zm3.452 4.242h-1.687v2.226h1.795v.979h-8.3v-.979h1.787v-2.226h-1.688v-.948h8.093zm-2.877 0h-2.339v2.226h2.339zm9.665-7.344q1.19 0 2.146.399.96.4 1.508 1.122.552.718.552 1.657 0 .942-.552 1.665-.548.723-1.508 1.118-.957.395-2.146.391-1.185.004-2.141-.391-.957-.395-1.504-1.118a2.7 2.7 0 0 1-.548-1.665q0-.939.548-1.657.547-.721 1.504-1.122.956-.399 2.141-.399m0 .983a4.1 4.1 0 0 0-1.558.274q-.692.273-1.086.776a1.8 1.8 0 0 0-.391 1.145q0 .651.391 1.149.39.493 1.082.768.695.269 1.562.269a4.3 4.3 0 0 0 1.557-.269q.692-.274 1.082-.768.391-.498.391-1.149 0-.647-.395-1.145-.391-.503-1.082-.776-.687-.279-1.553-.274m-5.176 7.24h10.41v.997h-10.41zm19.136-6.226v-2.68h1.195V415.1h-1.195v-4.624h-2.572v1.76h-5.274v-7.443h5.274v1.589zm-6.652 4.893h2.904v-5.535h-2.904zm4.08-3.91v2.137h2.572v-2.137zm-118.649 22.926v.983h-4.614v4.821h-1.208v-4.821h-4.547v-.983h7.51q.157-.754.229-1.423.076-.669.094-1.194.018-.53.018-1.252v-.023h-6.59v-.978h7.789v1.001a45 45 0 0 1-.023 1.266 16 16 0 0 1-.292 2.603zm9.957 1.127h-1.203v-3.407h-2.397v-.992h2.397v-2.317h1.203zm-6.015-2.963a4.8 4.8 0 0 1-1.109 1.719 4.7 4.7 0 0 1-1.755 1.096l-.647-.97a4.45 4.45 0 0 0 1.54-.88 3.9 3.9 0 0 0 .992-1.342 3.9 3.9 0 0 0 .35-1.616v-1.127h1.203v1.078a3.5 3.5 0 0 0 .324 1.503q.332.714.951 1.253.624.534 1.473.812l-.656.943a4.7 4.7 0 0 1-1.616-.97 4.5 4.5 0 0 1-1.05-1.499m2.204 3.277q1.19 0 2.051.26.867.256 1.329.746.467.489.467 1.171 0 .678-.467 1.163-.462.484-1.329.736-.861.251-2.051.251-1.194 0-2.061-.251-.866-.252-1.328-.736a1.62 1.62 0 0 1-.454-1.163q-.004-.682.458-1.171.462-.49 1.329-.746.866-.26 2.056-.26m0 3.376q.826 0 1.423-.139.597-.144.911-.413.32-.27.319-.647a.84.84 0 0 0-.319-.664q-.314-.278-.911-.422-.593-.144-1.423-.144t-1.428.144q-.596.144-.911.422a.84.84 0 0 0-.31.664q-.004.377.31.647.315.269.911.413.597.139 1.428.139m11.137-2.86v-.853h2.289v-6.684h1.212v8.628h-1.212v-1.091zm-2.294-3.115q-.839 0-1.486-.242-.642-.243-.996-.692a1.64 1.64 0 0 1-.355-1.05q0-.593.355-1.046.359-.453 1.001-.705.647-.25 1.481-.251.822 0 1.459.251.642.252 1.001.705t.364 1.046a1.67 1.67 0 0 1-.364 1.05q-.355.45-.996.692-.638.242-1.464.242m0-3.088q-.502 0-.889.134-.381.135-.592.386a.88.88 0 0 0-.211.584q0 .332.211.583.21.247.592.382.387.135.889.135.485 0 .862-.135a1.4 1.4 0 0 0 .593-.382.9.9 0 0 0 .22-.583.9.9 0 0 0-.22-.584 1.4 1.4 0 0 0-.597-.386 2.5 2.5 0 0 0-.858-.134m-.485 6.939v-2.154q-1.172.045-2.657.045h-.431l-.153-.97a136 136 0 0 0 4.009-.076 37 37 0 0 0 3.358-.265l.08.871q-1.363.224-3.003.327v2.222zm-.462-.489v2.361h7.012v.988h-8.215v-3.349zm20.39-.794h-1.204v-1.976h-1.746v-.978h1.746v-1.095h-1.746v-.97h1.746v-1.98h1.204zm-2.752-.983q-1.464.232-3.125.309a75 75 0 0 1-3.447.077l-.144-1.001h.669l.709-.009v-3.587h-1.068v-.983h6.042v.983h-1.082v3.438q.746-.057 1.392-.134zm-4.166-4.211v3.564q.512-.009 1.562-.054v-3.51zm3.106 5.409q1.198 0 2.061.247.866.243 1.324.709.462.467.462 1.122 0 .647-.462 1.109-.462.467-1.329.709-.862.247-2.056.247t-2.06-.247q-.867-.242-1.329-.709a1.5 1.5 0 0 1-.453-1.109 1.53 1.53 0 0 1 .453-1.122q.458-.466 1.324-.709.867-.247 2.065-.247m0 3.205a6.7 6.7 0 0 0 1.428-.13q.597-.13.911-.382.315-.255.314-.615 0-.363-.318-.619-.315-.256-.912-.391a6.6 6.6 0 0 0-1.423-.134q-.834 0-1.432.134-.596.135-.911.391-.31.256-.305.619-.004.36.305.615.315.252.907.382.597.13 1.436.13m15.586-5.584v.983h-2.81v2.662h-1.172v-2.662h-1.8v2.662h-1.176v-2.662h-3.452v-.983h7.627q.175-.907.22-1.639.045-.73.045-1.638h-6.603v-.961h7.801v.898q0 .943-.045 1.688a13 13 0 0 1-.211 1.652zm-9.189 2.698h1.203v2.621h6.967v.988h-8.17zm17.853-2.092a2.74 2.74 0 0 1-1.005.754q-.598.27-1.297.269a3.17 3.17 0 0 1-1.531-.368 2.7 2.7 0 0 1-1.064-1.023 2.84 2.84 0 0 1-.382-1.481 2.84 2.84 0 0 1 .382-1.482q.386-.66 1.064-1.028a3.2 3.2 0 0 1 1.531-.377 3.15 3.15 0 0 1 1.292.274 2.8 2.8 0 0 1 1.006.75h2.837v-1.72h1.203v8.377h-1.203v-2.945zm-4.134-1.849q0 .53.234.942.233.413.65.642.418.225.948.225.511 0 .924-.229t.647-.638q.238-.412.238-.942 0-.526-.238-.934a1.64 1.64 0 0 0-.647-.642 1.9 1.9 0 0 0-.924-.238 2 2 0 0 0-.948.233 1.64 1.64 0 0 0-.65.642 1.86 1.86 0 0 0-.234.939m6.967-.88h-2.303q.13.44.13.88 0 .444-.125.861h2.298zm-4.978 4.812v2.63h6.482v.988h-7.685v-3.618zm17.026-.521h-1.207v-1.988h-2.119v-.984h2.119v-1.342h-2.119v-.983h2.119v-1.697h1.207zm-3.366-.83q-.962.17-1.935.229a49 49 0 0 1-2.604.053h-1.104v-3.461h3.748v-1.382h-3.77v-.979h4.964v3.295h-3.748v1.544a47 47 0 0 0 2.483-.058 16 16 0 0 0 1.849-.224zm-.431 1.023q1.19 0 2.056.252.866.25 1.328.731.463.48.463 1.145 0 .664-.463 1.136-.462.476-1.328.722-.862.247-2.056.247-1.199 0-2.07-.247-.866-.246-1.328-.722a1.55 1.55 0 0 1-.458-1.136 1.57 1.57 0 0 1 .458-1.145q.462-.48 1.333-.731.87-.252 2.065-.252m0 3.295q.83 0 1.427-.135.597-.134.911-.395a.8.8 0 0 0 .319-.637.81.81 0 0 0-.319-.647q-.314-.269-.911-.404a6.4 6.4 0 0 0-1.427-.139q-.84 0-1.432.139-.593.135-.903.404a.81.81 0 0 0-.305.647q-.004.566.683.866.69.301 1.957.301m32.026.884v-11.375h1.159v11.375zm-4.111-7.375h1.773v-3.78h1.135v10.594h-1.135v-5.813h-1.773zm-1.046-.893q0 .934.256 1.84.26.903.776 1.652.516.746 1.253 1.194l-.678.934a4.25 4.25 0 0 1-1.32-1.271 6.5 6.5 0 0 1-.853-1.827 7 7 0 0 1-.911 1.985 4.5 4.5 0 0 1-1.392 1.36l-.754-.898a4.4 4.4 0 0 0 1.333-1.248 5.9 5.9 0 0 0 .84-1.728 6.8 6.8 0 0 0 .283-1.939v-2.124h1.167z"/><path fill="#00AEAE" d="m174.562 414-.004-1.199 3.245-3.128q.53-.53.817-.871.292-.342.444-.669.158-.332.158-.705 0-.422-.207-.74a1.35 1.35 0 0 0-.57-.49 1.86 1.86 0 0 0-.808-.17q-.467 0-.822.188a1.27 1.27 0 0 0-.538.53q-.189.345-.189.808h-1.571q-.004-.858.395-1.508.4-.652 1.113-1.006.719-.359 1.634-.359.921 0 1.634.346.714.34 1.109.947.4.606.4 1.369a2.8 2.8 0 0 1-.207 1.032q-.201.49-.7 1.096-.494.601-1.405 1.459l-1.63 1.62v.067h4.081V414zm10.774.126q-1.011 0-1.809-.332-.795-.337-1.239-.925a2.15 2.15 0 0 1-.44-1.333q-.005-.57.256-1.064.26-.495.709-.817a2.3 2.3 0 0 1 1.001-.409v-.058a2 2 0 0 1-.844-.391 2.1 2.1 0 0 1-.574-.722 2.2 2.2 0 0 1-.202-.93q0-.7.404-1.261.408-.566 1.126-.884a3.9 3.9 0 0 1 1.612-.319q.893 0 1.607.319.718.318 1.127.884.408.562.408 1.261a2.08 2.08 0 0 1-.79 1.652 2 2 0 0 1-.835.391v.058q.543.085.992.409.454.322.718.817.265.494.265 1.064 0 .74-.449 1.333-.448.588-1.248.925-.794.332-1.795.332m0-5.472q.44 0 .785-.171.346-.17.544-.476.197-.309.197-.705 0-.39-.193-.691t-.543-.467a1.8 1.8 0 0 0-.79-.17q-.453 0-.799.17a1.3 1.3 0 0 0-.539.467 1.27 1.27 0 0 0-.188.691q0 .396.193.705.196.305.543.476.35.171.79.171m0 4.197q.534 0 .938-.18a1.46 1.46 0 0 0 .628-.507q.22-.327.22-.745 0-.43-.233-.777a1.53 1.53 0 0 0-.637-.538 2.1 2.1 0 0 0-.916-.198q-.512 0-.92.198a1.5 1.5 0 0 0-.638.538q-.228.346-.224.777-.005.418.211.745.219.323.624.507.408.18.947.18m4.709-6.321q0-.543.229-.992.234-.453.673-.718a2 2 0 0 1 1.042-.265q.615 0 1.05.265.44.266.665.714.224.448.224.996v.485q0 .543-.229.992a1.7 1.7 0 0 1-.664.714q-.44.265-1.046.265-.61 0-1.051-.265a1.74 1.74 0 0 1-.668-.714 2.2 2.2 0 0 1-.225-.992zm1.63 7.47h-1.118l6.32-9.193h1.118zm-.449-6.985q0 .404.184.678t.579.274q.399 0 .579-.269.184-.274.184-.683v-.485q0-.412-.175-.682-.175-.274-.588-.274-.392 0-.579.279a1.2 1.2 0 0 0-.184.677zm3.492 4.776q0-.543.229-.992.23-.453.669-.718t1.046-.265q.61 0 1.05.265t.665.714q.224.448.224.996v.485q0 .544-.229.997a1.74 1.74 0 0 1-.669.714q-.44.264-1.041.264-.61 0-1.051-.264a1.75 1.75 0 0 1-.668-.714 2.2 2.2 0 0 1-.225-.997zm1.172.485q0 .405.184.678.184.274.588.274.399 0 .579-.274.184-.273.184-.678v-.485q0-.412-.18-.682-.175-.274-.583-.274-.395 0-.584.279a1.17 1.17 0 0 0-.188.677zm6.482 22.85q-.97 0-1.737-.332-.768-.333-1.208-.925a2.36 2.36 0 0 1-.462-1.365h1.67q.018.364.247.647.233.278.619.43.39.153.866.153.504 0 .898-.17.4-.176.62-.485.224-.315.224-.714a1.2 1.2 0 0 0-.224-.736 1.5 1.5 0 0 0-.665-.503 2.6 2.6 0 0 0-1.019-.184h-.817v-1.275h.817q.485 0 .862-.166.378-.17.588-.476.211-.309.211-.705 0-.38-.184-.673a1.2 1.2 0 0 0-.516-.458 1.74 1.74 0 0 0-.772-.161q-.435 0-.808.157a1.45 1.45 0 0 0-.602.44 1.1 1.1 0 0 0-.238.655h-1.584q.018-.755.449-1.347a2.83 2.83 0 0 1 1.162-.92 3.9 3.9 0 0 1 1.63-.332q.906 0 1.602.341.7.337 1.078.92.381.579.377 1.284a1.96 1.96 0 0 1-.207.925 1.85 1.85 0 0 1-.588.687q-.38.269-.889.377v.072q.642.084 1.1.377.458.291.696.749t.233 1.037a2.25 2.25 0 0 1-.44 1.374q-.44.61-1.225.956-.781.346-1.764.346m7.743 0a3.9 3.9 0 0 1-1.634-.337 2.86 2.86 0 0 1-1.154-.934 2.4 2.4 0 0 1-.449-1.351h1.607q.027.368.252.665.224.291.583.457.365.162.795.162.507 0 .911-.224.405-.23.629-.629a1.8 1.8 0 0 0 .229-.911q0-.52-.238-.929a1.6 1.6 0 0 0-.656-.642 1.9 1.9 0 0 0-.942-.229q-1.087 0-1.509.785h-1.526l.548-5.202h5.431v1.382h-4.067l-.278 2.442h.081q.278-.31.754-.503a2.7 2.7 0 0 1 1.032-.193q.844 0 1.522.395.678.391 1.064 1.087.386.691.386 1.562 0 .906-.431 1.625a2.95 2.95 0 0 1-1.194 1.122q-.763.4-1.746.4"/><path fill="#000" d="M144.64 480.844h1.529v.928h-1.529v2.656h-1.115v-5.925h1.115zm-1.998 2.403q-1.247.249-2.449.352-1.201.104-2.469.108h-.858v-4.686h1.119v3.762a24.5 24.5 0 0 0 4.521-.456zm1.998 5.607h-6.726v-3.879h6.726zm-1.086-3.009H139v2.118h4.554zm11.026-3.186h1.682v.94h-1.682v5.395h-1.114v-10.5h1.114zm-4.521-1.065a4.4 4.4 0 0 0 .336 1.67q.34.841.949 1.533.613.688 1.392 1.052l-.63.879q-.87-.419-1.549-1.247a6.1 6.1 0 0 1-1.04-1.877q-.24.75-.639 1.413-.397.662-.915 1.172a4.4 4.4 0 0 1-1.102.8l-.659-.879a4.3 4.3 0 0 0 1.404-1.102 5.7 5.7 0 0 0 .987-1.632q.36-.904.364-1.782v-1.123h-2.366v-.92h5.747v.92h-2.279zM205.043 478.494h1.102v10.521h-1.102v-4.027h-2.524q-.335.795-.932 1.234-.592.435-1.351.435-.783 0-1.388-.451-.604-.456-.945-1.289-.335-.836-.331-1.952-.004-1.106.331-1.939.34-.837.945-1.288a2.24 2.24 0 0 1 1.388-.456 2.25 2.25 0 0 1 1.285.393q.572.386.92 1.103h2.602zm-4.807 7.165q.473 0 .833-.328.364-.327.564-.936.203-.61.203-1.43 0-.811-.203-1.417-.2-.609-.564-.936a1.2 1.2 0 0 0-.833-.336 1.24 1.24 0 0 0-.841.332q-.36.327-.564.936-.198.606-.198 1.421 0 .82.198 1.43.204.609.564.936.365.328.841.328m4.807-1.579v-2.387h-2.287q.132.59.132 1.272 0 .564-.099 1.115zm10.537-1.421h1.682v.94h-1.682v5.395h-1.114v-10.5h1.114zm-4.521-1.065a4.4 4.4 0 0 0 .336 1.67q.34.841.949 1.533.613.688 1.392 1.052l-.63.879q-.87-.419-1.549-1.247a6.1 6.1 0 0 1-1.04-1.877q-.24.75-.639 1.413-.397.662-.915 1.172a4.4 4.4 0 0 1-1.102.8l-.659-.879a4.3 4.3 0 0 0 1.404-1.102 5.7 5.7 0 0 0 .987-1.632q.36-.904.364-1.782v-1.123h-2.366v-.92h5.747v.92h-2.279z"/><path fill="#61CDBB" d="M114 480h14v8h-14z"/><path fill="#FFC38F" d="M175 480h14v8h-14zM457 428c0 34.794-28.206 63-63 63s-63-28.206-63-63 28.206-63 63-63 63 28.206 63 63m-105.636 0c0 23.547 19.089 42.636 42.636 42.636s42.636-19.089 42.636-42.636-19.089-42.636-42.636-42.636-42.636 19.089-42.636 42.636"/><path fill="#61CDBB" d="M394 365a63 63 0 1 0 56.669 35.475l-18.318 8.897a42.634 42.634 0 0 1-34.678 61.105 42.64 42.64 0 0 1-43.486-27.222 42.63 42.63 0 0 1 14.161-49.311 42.64 42.64 0 0 1 25.652-8.58z"/><rect width="460" height="240" x="60" y="50" fill="#fff" rx="16"/><rect width="428" height="210" x="76" y="65" fill="#F4F6FC" rx="12"/><path fill="#EEE" d="M106 142h368v1H106zM106 159h368v1H106zM106 176h368v1H106zM106 193h368v1H106zM106 210h368v1H106zM106 227h368v1H106zM106 244h368v1H106zM106 261h368v1H106z"/><path fill="url(#c)" d="M145 208a4 4 0 0 1 4-4h18a4 4 0 0 1 4 4v67h-26z"/><path fill="url(#d)" d="M189 225a4 4 0 0 1 4-4h18a4 4 0 0 1 4 4v50h-26z"/><path fill="url(#e)" d="M233 179a4 4 0 0 1 4-4h18a4 4 0 0 1 4 4v96h-26z"/><path fill="url(#f)" d="M277 208a4 4 0 0 1 4-4h18a4 4 0 0 1 4 4v67h-26z"/><path fill="url(#g)" d="M321 179a4 4 0 0 1 4-4h18a4 4 0 0 1 4 4v96h-26z"/><path fill="url(#h)" d="M365 179a4 4 0 0 1 4-4h18a4 4 0 0 1 4 4v96h-26z"/><path fill="url(#i)" d="M409 146a4 4 0 0 1 4-4h18a4 4 0 0 1 4 4v129h-26z"/><path fill="#000" d="M115.002 100.774q1.273 0 1.974.574.7.574.7 1.666t-.7 1.666-1.974.574h-5.32q-1.273 0-1.974-.574-.7-.574-.7-1.666t.7-1.666 1.974-.574zm2.548-3.164h-1.512l-1.96-2.59a2.1 2.1 0 0 0-.378-.462q-.168-.14-.532-.14h-1.652q-.364 0-.532.14a2.1 2.1 0 0 0-.378.462l-1.96 2.59h-1.512l2.324-3.192h-2.128v-1.26h4.312v-1.316h1.4v1.316h4.312v1.26h-2.128zm.686 2.31h-11.788v-1.26h5.194v-2.114h1.4v2.114h5.194zm-3.416 4.074q.743 0 1.092-.266a.84.84 0 0 0 .364-.714.84.84 0 0 0-.364-.714q-.35-.266-1.092-.266h-4.956q-.742 0-1.106.266a.85.85 0 0 0-.35.714.85.85 0 0 0 .35.714q.364.266 1.106.266zm18.116-2.016h-1.4v-9.422h1.4zm.084 3.234h-9.786v-4.452h1.4v3.192h8.386zm-3.22-8.386q0 .714-.266 1.288a2.9 2.9 0 0 1-.742.966 3.5 3.5 0 0 1-1.162.616q-.671.21-1.484.21-.825 0-1.498-.21a3.6 3.6 0 0 1-1.148-.616 2.9 2.9 0 0 1-.742-.966 3 3 0 0 1-.266-1.288v-1.274q0-.714.266-1.274a2.7 2.7 0 0 1 .742-.966q.477-.406 1.148-.616.672-.225 1.498-.224.813 0 1.484.224.687.21 1.162.616.477.391.742.966.267.56.266 1.274zm-1.4-1.204q0-.896-.63-1.386-.615-.504-1.624-.504-1.008 0-1.638.504-.615.49-.616 1.386v1.134q0 .896.616 1.4.63.49 1.638.49t1.624-.49q.63-.504.63-1.4zm14.004 3.836h-7.644v-4.004h4.998v-1.512h-5.026V92.71h6.426v2.898q0 .546-.252.798t-.798.252h-3.948v1.568h6.244zm2.8 5.754h-1.4v-3.388h-8.372v-1.26h9.772zm0-5.292h-1.4v-2.338h-2.086v-1.288h2.086v-1.33h-2.086v-1.288h2.086v-1.12h1.4zm15.484 2.198h-1.4v-3.682h-1.554v-1.288h1.554V95.58h-1.554v-1.176h-1.316q.378.168.602.616t.224.924v1.512q0 2.73-3.36 2.73-1.638 0-2.506-.672-.854-.686-.854-2.058v-1.512q0-.49.224-.924.224-.448.602-.616h-1.498v-1.26h3.332v-1.302h1.4v1.302h3.332v1.148h1.372v-1.736h1.4zm-4.844-6.244q0-.686-.462-1.148-.448-.462-1.498-.462t-1.512.462q-.448.462-.448 1.148v1.554q0 .743.448 1.176.462.434 1.512.434t1.498-.434q.462-.434.462-1.176zm4.928 9.338h-9.786v-4.172h1.4v2.912h8.386zm9.663-4.816h-8.288v-1.26h3.416v-.756q-2.59-.238-2.59-2.226v-.336q0-.49.224-.882.225-.392.616-.602h-1.554v-1.26h3.304v-1.232h1.4v1.232h3.346v1.26h-1.554q.407.195.602.602.196.392.196.882v.336q0 1.988-2.59 2.226v.756h3.472zm-.322.84q1.275 0 1.974.49t.7 1.498q0 1.008-.7 1.498-.699.49-1.974.49h-4.886q-1.274 0-1.974-.49t-.7-1.498.7-1.498 1.974-.49zm2.422-.462h-1.4v-8.218h1.4v3.052h1.652v1.288h-1.652zm-2.604 3.178q1.456 0 1.456-.728t-1.456-.728h-4.522q-1.455 0-1.456.728t1.456.728zm-1.778-8.302q0-.294-.112-.546a1.03 1.03 0 0 0-.322-.434 1.45 1.45 0 0 0-.588-.294 2.9 2.9 0 0 0-.868-.112q-.518 0-.882.112a1.46 1.46 0 0 0-.574.294 1.2 1.2 0 0 0-.336.434 1.5 1.5 0 0 0-.098.546v.224q0 .686.42 1.036.435.35 1.47.35 1.036 0 1.456-.35.434-.35.434-1.036zM187.58 93.685h1.95V105h-2.044v-9.332h-.066l-2.647 1.691v-1.862zm8.234 11.47q-1.11 0-2.011-.415a3.5 3.5 0 0 1-1.42-1.149 2.94 2.94 0 0 1-.552-1.663h1.978q.033.453.309.818.276.359.718.563.447.2.978.199.624 0 1.122-.276.497-.282.773-.773.282-.498.282-1.122 0-.64-.293-1.144a2 2 0 0 0-.807-.79 2.4 2.4 0 0 0-1.16-.282q-1.337 0-1.856.967h-1.879l.674-6.403h6.685v1.702h-5.005l-.343 3.005h.1q.343-.381.928-.618.585-.238 1.271-.238 1.038 0 1.873.486.834.48 1.309 1.337.475.85.475 1.923 0 1.115-.53 2a3.65 3.65 0 0 1-1.47 1.381q-.939.492-2.149.492M209.692 99.95h-1.91v.714h-4.064v-3.926h4.064v.719h1.91v-1.378h.925v5.165h-.925zm-5.055-.035h2.237v-2.434h-2.237zm5.055-.725v-.988h-1.91v.988zm-2.006 2.296q.915 0 1.578.2.666.198 1.022.574.359.376.359.901 0 .522-.359.894-.356.374-1.022.567-.663.192-1.578.193-.92 0-1.585-.193-.666-.194-1.022-.567a1.24 1.24 0 0 1-.349-.894q-.003-.525.352-.901.356-.376 1.022-.574.667-.2 1.582-.2m0 2.607q.635 0 1.091-.11.46-.111.704-.321a.64.64 0 0 0 .246-.501.66.66 0 0 0-.246-.518q-.241-.214-.701-.325a5 5 0 0 0-1.094-.114 5 5 0 0 0-1.102.114q-.456.11-.697.325a.66.66 0 0 0-.239.518.64.64 0 0 0 .239.501q.242.21.701.321.459.11 1.098.11M311.596 99.21v-.756h1.678v-2.368h.925v6.408h-.925v-3.283zm-2.013.104a3.67 3.67 0 0 1-2.193 2.11l-.48-.756q.66-.221 1.153-.653.498-.435.764-.994.269-.563.269-1.164v-.345h-1.899v-.757h4.723v.757h-1.885v.345q0 .55.256 1.07.255.522.732.933.476.407 1.122.625l-.473.739a3.55 3.55 0 0 1-1.264-.75 3.45 3.45 0 0 1-.825-1.16m-.138 2.611v1.965h4.986v.759h-5.912v-2.724zm13.097.625h-.925v-2.973h-2.407v-.743h2.407v-.918h-2.407v-.74h2.407v-1.09h.925zm-2.244-1.565a17 17 0 0 1-1.872.246 30 30 0 0 1-1.992.069h-.674v-4.61h.922v3.836a26 26 0 0 0 1.785-.072 17 17 0 0 0 1.734-.232zm-2.521 1.002v1.903h4.993v.759h-5.929v-2.662zm14.579-2.438v-3.47h.881v8.75h-.881v-4.524h-1.132v4.075h-.857v-8.122h.857v3.291zm-5.4 2.393a21 21 0 0 0 1.502-.059q.645-.051 1.312-.179l.076.766q-.736.152-1.447.201-.712.048-1.792.055h-.58v-5.594h3.273v.753h-2.344zm13.435-5.863h.933v8.767h-.933zm-5.832.728h.926v2.248h2.361v-2.248h.916v5.946h-4.203zm.926 2.984v2.196h2.361v-2.196zm15.404-3.712h.929v4.696h-.929zm-3.822.404q.663-.004 1.191.255.531.255.832.722.3.462.301 1.057 0 .585-.301 1.05-.3.459-.832.714-.528.255-1.191.256a2.74 2.74 0 0 1-1.199-.256 2.04 2.04 0 0 1-.832-.715q-.3-.462-.3-1.05 0-.593.3-1.056.304-.465.832-.722a2.7 2.7 0 0 1 1.199-.255m0 .78a1.6 1.6 0 0 0-.739.155q-.325.156-.508.442-.18.287-.176.657-.004.37.176.656.183.283.508.442.324.159.739.159.407 0 .728-.16.325-.158.504-.441.183-.287.183-.656t-.183-.656a1.17 1.17 0 0 0-.504-.443 1.6 1.6 0 0 0-.728-.155m-.978 3.937h.909v.98h3.898v-.98h.922v3.518h-5.729zm.909 1.712v1.05h3.898v-1.05zm12.721-3.342h1.402v.79h-1.402v4.469h-.929v-8.75h.929zm-3.785-1.264a4.3 4.3 0 0 0 .273 1.516q.279.749.78 1.343.504.594 1.143.908l-.57.743a3.8 3.8 0 0 1-1.246-1.06 5.2 5.2 0 0 1-.832-1.582 5.5 5.5 0 0 1-.857 1.685 3.85 3.85 0 0 1-1.295 1.122l-.576-.746q.66-.317 1.17-.935.514-.622.798-1.41a4.7 4.7 0 0 0 .29-1.584v-1.499h.922zm9.292.894q-.987-.003-1.688-.18-.701-.175-1.071-.514a1.07 1.07 0 0 1-.369-.822q0-.48.369-.818.37-.339 1.071-.514.704-.177 1.688-.177t1.685.177 1.067.514q.37.338.37.818 0 .485-.37.822-.365.338-1.067.515-.697.176-1.685.18m0-2.327q-.69 0-1.177.097-.484.096-.736.28-.248.179-.245.434-.003.4.549.608.556.208 1.609.21 1.06-.002 1.616-.21.556-.206.556-.608 0-.386-.563-.597-.56-.21-1.609-.214m3.995 2.8v.743h-2.147v.78h1.136v2.048h-5.09v.784h5.342v.718h-6.25v-2.169h5.086v-.687h-5.104v-.694h1.164v-.78h-2.113v-.743zm-4.944 1.523h1.871v-.78h-1.871zm27.48-2.186a5.8 5.8 0 0 0 1.44-.335q.653-.248 1.05-.614.4-.366.456-.788h-2.635v-.763h6.53v.763h-2.649q.052.418.449.784t1.053.618q.656.25 1.457.335l-.334.729a6.2 6.2 0 0 1-1.413-.321 4.2 4.2 0 0 1-1.129-.598 2.4 2.4 0 0 1-.711-.821q-.236.46-.708.821-.473.363-1.126.598a6.2 6.2 0 0 1-1.409.321zm-.418 1.944v-.756h7.977v.756zm3.978.674q.94 0 1.616.19.68.186 1.043.545t.366.864a1.17 1.17 0 0 1-.366.859q-.359.36-1.039.542-.676.187-1.62.187t-1.63-.187q-.68-.183-1.042-.542a1.16 1.16 0 0 1-.363-.859q0-.505.363-.864.362-.359 1.042-.545.685-.19 1.63-.19m0 2.455q.998 0 1.547-.221.549-.22.553-.635-.004-.418-.553-.643-.548-.224-1.547-.231-1.008.007-1.554.231-.542.225-.538.643-.004.414.538.635.546.22 1.554.221m11.181-4.517h1.357v.777h-1.357v4.475h-.929v-8.74h.929zm-2.289-2.562q-.007 1.996-.97 3.591-.964 1.593-3.036 2.611l-.518-.718q3.284-1.638 3.581-4.717h-3.142v-.767z"/><path fill="#00AEAE" d="M373.642 96.928h1.219V104h-1.278v-5.832h-.041l-1.654 1.056v-1.163zm4.221 7.072h-1.323l3.07-5.957v-.051h-3.557v-1.064h4.876v1.091zm3.972-5.746q0-.417.176-.763.179-.35.518-.552.342-.204.801-.204.472 0 .808.204.338.202.511.549.172.345.172.766v.373q0 .418-.176.763-.172.345-.511.55a1.53 1.53 0 0 1-.804.203q-.47 0-.808-.204a1.34 1.34 0 0 1-.515-.549 1.7 1.7 0 0 1-.172-.763zm1.253 5.746h-.86l4.862-7.072h.86zm-.345-5.373q0 .31.141.522.142.21.446.21.307 0 .445-.207a.9.9 0 0 0 .142-.525v-.373a.94.94 0 0 0-.135-.525q-.135-.21-.452-.21-.301 0-.446.214a.93.93 0 0 0-.141.521zm2.686 3.674q0-.418.176-.763.177-.35.515-.553t.804-.203q.47 0 .808.203t.511.55q.173.345.173.766v.373q0 .418-.176.767a1.34 1.34 0 0 1-.515.549 1.53 1.53 0 0 1-.801.203q-.47 0-.808-.203a1.34 1.34 0 0 1-.514-.549 1.7 1.7 0 0 1-.173-.767zm.901.373q0 .31.142.521.141.211.452.211.308 0 .446-.211a.9.9 0 0 0 .141-.521v-.373a.93.93 0 0 0-.138-.525q-.134-.21-.449-.21-.303 0-.449.214a.9.9 0 0 0-.145.521z"/><path fill="#000" d="M426.524 104.846v-8.767h.925v8.767zm-2.922-2.562q1.316-.07 2.372-.221l.073.677q-.863.162-1.796.245-.929.083-1.736.107-.805.024-1.865.034l-.276.004-.114-.774q1.433 0 2.424-.031v-1.353h-1.775v-4.127h4.548v.753h-3.612v.936h3.435v.721h-3.435v.978h3.65v.739h-1.893zm11.772-2.714h1.402v.79h-1.402v4.469h-.929v-8.75h.929zm-3.785-1.264a4.3 4.3 0 0 0 .273 1.516q.28.749.78 1.343.504.594 1.143.908l-.569.743a3.8 3.8 0 0 1-1.247-1.06 5.2 5.2 0 0 1-.832-1.582 5.5 5.5 0 0 1-.857 1.685 3.85 3.85 0 0 1-1.294 1.122l-.577-.746q.66-.317 1.17-.935.515-.622.798-1.41a4.7 4.7 0 0 0 .29-1.584v-1.499h.922zm9.292.894q-.987-.003-1.688-.18-.701-.175-1.071-.514a1.07 1.07 0 0 1-.369-.822q0-.48.369-.818.37-.339 1.071-.514.704-.177 1.688-.177t1.685.177 1.067.514q.37.338.37.818 0 .485-.37.822-.366.338-1.067.515-.697.176-1.685.18m0-2.327q-.69 0-1.177.097-.483.096-.736.28-.248.179-.245.434-.003.4.549.608.556.208 1.609.21 1.06-.002 1.616-.21.556-.206.556-.608 0-.386-.563-.597-.559-.21-1.609-.214m3.995 2.8v.743h-2.147v.78h1.136v2.048h-5.09v.784h5.342v.718h-6.25v-2.169h5.086v-.687h-5.103v-.694h1.163v-.78H436.9v-.743zm-4.944 1.523h1.871v-.78h-1.871zm23.825-2.186a5.8 5.8 0 0 0 1.44-.335q.653-.248 1.05-.614.4-.366.456-.788h-2.635v-.763h6.53v.763h-2.649q.052.418.449.784t1.053.618q.656.25 1.457.335l-.334.729a6.2 6.2 0 0 1-1.413-.321 4.2 4.2 0 0 1-1.129-.598 2.4 2.4 0 0 1-.711-.821q-.236.46-.708.821-.473.363-1.126.598a6.2 6.2 0 0 1-1.409.321zm-.418 1.944v-.756h7.977v.756zm3.978.674q.94 0 1.616.19.68.186 1.043.545t.366.864a1.17 1.17 0 0 1-.366.859q-.359.36-1.039.542-.676.187-1.62.187t-1.63-.187q-.68-.183-1.042-.542a1.16 1.16 0 0 1-.363-.859q0-.505.363-.864.362-.359 1.042-.545.685-.19 1.63-.19m0 2.455q.998 0 1.547-.221.549-.22.553-.635-.004-.418-.553-.643-.548-.224-1.547-.231-1.008.007-1.554.231-.542.225-.538.643-.004.414.538.635.546.22 1.554.221m11.181-4.517h1.357v.777h-1.357v4.475h-.929v-8.74h.929zm-2.289-2.562q-.007 1.996-.97 3.591-.964 1.593-3.036 2.611l-.518-.718q3.284-1.638 3.581-4.717h-3.142v-.767z"/><path fill="#00AEAE" d="M450.212 104.097q-.777 0-1.392-.256-.61-.259-.953-.711a1.65 1.65 0 0 1-.338-1.026 1.7 1.7 0 0 1 .197-.818 1.8 1.8 0 0 1 1.315-.943v-.045q-.366-.075-.649-.3a1.6 1.6 0 0 1-.442-.556 1.7 1.7 0 0 1-.155-.715q0-.538.311-.97.314-.435.866-.68a3 3 0 0 1 1.24-.245q.687 0 1.236.245.553.245.867.68.314.432.314.97a1.6 1.6 0 0 1-.608 1.27q-.282.226-.642.301v.045q.418.066.763.314.35.25.553.629.204.38.203.818 0 .57-.345 1.026-.345.452-.96.711a3.5 3.5 0 0 1-1.381.256m0-4.21q.339 0 .604-.13.267-.132.418-.367a1 1 0 0 0 .152-.542q0-.3-.148-.532a1 1 0 0 0-.418-.359 1.36 1.36 0 0 0-.608-.131q-.349 0-.615.131a1 1 0 0 0-.414.36 1 1 0 0 0-.145.531q0 .304.148.542.153.236.418.366.27.131.608.131m0 3.229q.411 0 .722-.138.314-.142.483-.39.17-.252.169-.573 0-.332-.179-.598a1.2 1.2 0 0 0-.491-.414 1.6 1.6 0 0 0-.704-.152 1.6 1.6 0 0 0-.708.152 1.2 1.2 0 0 0-.49.414 1.04 1.04 0 0 0-.173.598q-.003.321.162.573.17.248.48.39.315.138.729.138m3.623-4.862q0-.417.176-.763.179-.35.518-.552.342-.204.801-.204.472 0 .808.204.338.202.511.549.172.345.172.766v.373q0 .418-.176.763-.172.345-.511.55a1.53 1.53 0 0 1-.804.203q-.47 0-.808-.204a1.34 1.34 0 0 1-.515-.549 1.7 1.7 0 0 1-.172-.763zm1.253 5.746h-.86l4.862-7.072h.86zm-.345-5.373q0 .31.141.522.142.21.446.21.307 0 .445-.207a.9.9 0 0 0 .142-.525v-.373a.94.94 0 0 0-.135-.525q-.135-.21-.452-.21-.301 0-.446.214a.93.93 0 0 0-.141.521zm2.686 3.674q0-.418.176-.763.177-.35.515-.553t.804-.203q.47 0 .808.203t.511.55q.173.345.173.766v.373q0 .418-.176.767a1.34 1.34 0 0 1-.515.549 1.53 1.53 0 0 1-.801.203q-.47 0-.808-.203a1.34 1.34 0 0 1-.514-.549 1.7 1.7 0 0 1-.173-.767zm.901.373q0 .31.142.521.141.211.452.211.308 0 .446-.211a.9.9 0 0 0 .141-.521v-.373a.93.93 0 0 0-.138-.525q-.134-.21-.449-.21-.303 0-.449.214a.9.9 0 0 0-.145.521z"/></g><defs><linearGradient id="c" x1="158" x2="158" y1="204" y2="275" gradientUnits="userSpaceOnUse"><stop stop-color="#5767C6"/><stop offset="1" stop-color="#0A339E"/></linearGradient><linearGradient id="d" x1="202" x2="202" y1="221" y2="275" gradientUnits="userSpaceOnUse"><stop stop-color="#5767C6"/><stop offset="1" stop-color="#0A339E"/></linearGradient><linearGradient id="e" x1="246" x2="246" y1="175" y2="275" gradientUnits="userSpaceOnUse"><stop stop-color="#5767C6"/><stop offset="1" stop-color="#0A339E"/></linearGradient><linearGradient id="f" x1="290" x2="290" y1="204" y2="275" gradientUnits="userSpaceOnUse"><stop stop-color="#5767C6"/><stop offset="1" stop-color="#0A339E"/></linearGradient><linearGradient id="g" x1="334" x2="334" y1="175" y2="275" gradientUnits="userSpaceOnUse"><stop stop-color="#5767C6"/><stop offset="1" stop-color="#0A339E"/></linearGradient><linearGradient id="h" x1="378" x2="378" y1="175" y2="275" gradientUnits="userSpaceOnUse"><stop stop-color="#5767C6"/><stop offset="1" stop-color="#0A339E"/></linearGradient><linearGradient id="i" x1="422" x2="422" y1="142" y2="275" gradientUnits="userSpaceOnUse"><stop stop-color="#5767C6"/><stop offset="1" stop-color="#0A339E"/></linearGradient><clipPath id="a"><rect width="440" height="500" fill="#fff" rx="16"/></clipPath><filter id="b" width="1166.11" height="1242.4" x="28.479" y="-67.59" color-interpolation-filters="sRGB" filterUnits="userSpaceOnUse"><feFlood flood-opacity="0" result="BackgroundImageFix"/><feBlend in="SourceGraphic" in2="BackgroundImageFix" result="shape"/><feGaussianBlur result="effect1_foregroundBlur_191_942" stdDeviation="150"/></filter></defs></svg>