<svg xmlns="http://www.w3.org/2000/svg" width="440" height="500" fill="none"><g clip-path="url(#a)" filter="url(#b)"><rect width="336" height="139" x="52" y="43" fill="#fff" rx="11.65"/><path fill="#000" d="M93.305 75.478v1.277H81.553v-1.277h8.408a16 16 0 0 0 .266-1.896q.06-.855.06-1.856h-7.28v-1.272h8.86v1.061a32 32 0 0 1-.056 2.001 16 16 0 0 1-.251 1.962zm-10.239 2.504h1.564v3.037h7.609v1.282h-9.172zm12.054-7.608h8.876v5.114H95.12zm1.549 3.877h5.753v-2.615h-5.753zm-2.982 2.74h11.752v1.278h-5.129v4.279h-1.564v-4.28h-5.059zm21.301 5.567V69.715h1.594v12.843zm-2.238-11.48q-.004 2.006-.583 3.69-.573 1.68-1.901 3.083-1.322 1.403-3.5 2.439l-.829-1.267q1.67-.795 2.77-1.785 1.107-.996 1.7-2.208.593-1.216.734-2.7h-4.551v-1.252zm11.893 4.515v1.071h5.094v1.278h-11.752v-1.278h5.094v-1.07h-3.605v-3.405h7.231v-.96h-7.261v-1.237h8.84v3.349h-7.241v1.025h7.492v1.227zm2.122 4.415h-7.467v-1.257h9.056v3.731h-1.589zm9.456-6.17h7.412v1.273h-8.991v-4.793h1.579zm-3.053 2.892h11.752v1.302h-5.144v4.526h-1.584v-4.526h-5.024zm22.292-3.857h1.806v1.297h-1.806v3.36h-1.589v-7.805h1.589zm-2.469 3.706q-1.383.241-2.76.332-1.373.085-3.36.085h-1.051v-3.952h4.31v-1.318h-4.335v-1.272h5.884v3.802h-4.285v1.443a51 51 0 0 0 2.957-.09 26 26 0 0 0 2.479-.297zm.88 2.836h-6.979v-1.272h8.568v4.405h-1.589z"/><path fill="#999" d="M88.82 139.976h-.781v-3.893h-1.971v-.655h1.97v-2.084h.782zm-4.685-3.608a3.9 3.9 0 0 1-.862 1.408 3.8 3.8 0 0 1-1.359.919l-.415-.634a3.4 3.4 0 0 0 1.161-.707q.51-.472.796-1.088.285-.616.288-1.288v-1.099h.768v1.127q0 .609.274 1.182.279.572.775 1.014.5.44 1.14.669l-.436.612a3.8 3.8 0 0 1-1.289-.841 3.8 3.8 0 0 1-.84-1.274m-.25 2.848v2.126h5.14v.647h-5.928v-2.773zm12.876-3.563v-2.309h.74v5.365h-.74v-2.415h-1.246v2.351h-.732v-5.132h.732v2.14zm-2.499 2.338q-.75.147-1.468.197a28 28 0 0 1-1.855.049h-.556v-4.252h3.436v.648h-2.683v1.112h2.584v.619h-2.584v1.218q1.007-.004 1.68-.052.675-.054 1.362-.187zm2.471 1.816h-5.195v-.641H97.5v3.021h-.768zm8.272-6.463h.782v6.618h-.782zm-.683 5.168q-2.312.316-5.674.316l-.12-.64q1.409-.007 2.542-.042v-1.268h-1.732v-2.963h4.231v.647h-3.442v1.676h3.513v.64h-1.789v1.236a37 37 0 0 0 2.415-.18zm-3.498.992v1.838h5.258v.647h-6.04v-2.485zm14.952-6.167h.782v4.541h-.782zm-1.724 2.288q-.004.57-.3 1.014-.295.444-.82.69a2.7 2.7 0 0 1-1.175.246q-.662 0-1.187-.246a1.96 1.96 0 0 1-.82-.69 1.8 1.8 0 0 1-.295-1.014q0-.57.295-1.014.296-.447.82-.696a2.75 2.75 0 0 1 1.187-.254q.654.003 1.175.254.525.249.82.696.296.444.3 1.014m-3.83 0q-.003.38.193.68.2.299.55.464t.792.166a1.8 1.8 0 0 0 .785-.166q.351-.165.549-.464.2-.3.2-.68 0-.376-.2-.676a1.3 1.3 0 0 0-.549-.464 1.76 1.76 0 0 0-.785-.162 1.8 1.8 0 0 0-.792.162q-.35.165-.55.464-.196.3-.193.676m1.366 4.816v.992h5.287v.634h-6.048v-2.218h4.957v-.908h-4.985v-.634h5.759v2.134zm10.933-4.147v-.648h1.788v-2.309h.781v5.273h-.781v-2.316zm-2.066-.028q-.285.778-.877 1.369a3.84 3.84 0 0 1-1.38.891l-.408-.62a3.6 3.6 0 0 0 1.165-.69q.514-.453.799-1.042.29-.587.289-1.211v-.33h-2v-.648h4.766v.648h-1.978v.323q0 .571.275 1.109.275.536.771.954.496.415 1.137.634l-.409.626a3.7 3.7 0 0 1-1.299-.795 3.6 3.6 0 0 1-.851-1.218m1.7 2.619q.915 0 1.58.197.67.194 1.025.563.359.37.359.887 0 .518-.359.884-.356.37-1.021.563-.666.196-1.584.201-.922-.005-1.591-.201-.666-.194-1.021-.563a1.21 1.21 0 0 1-.352-.884q-.003-.517.352-.887t1.024-.563q.669-.197 1.588-.197m0 2.668a4.8 4.8 0 0 0 1.165-.12q.492-.12.757-.352a.7.7 0 0 0 .267-.549.7.7 0 0 0-.267-.552q-.265-.236-.757-.36a4.9 4.9 0 0 0-1.165-.123q-.677 0-1.172.123-.493.124-.757.36a.7.7 0 0 0-.261.552.7.7 0 0 0 .261.549q.264.232.757.352.495.123 1.172.12m10.933.634v-8.85h.753v8.85zm-1.774-5.4v-3.26h.753v8.209h-.753v-4.301h-1.141q-.038.855-.285 1.489-.243.63-.661.971-.42.338-.961.334a1.45 1.45 0 0 1-1-.373q-.426-.377-.662-1.073-.232-.697-.232-1.63 0-.93.232-1.623.236-.696.662-1.07a1.47 1.47 0 0 1 1-.377q.535 0 .946.328.416.327.662.94.246.608.296 1.436zm-3.048 2.703a.82.82 0 0 0 .626-.281q.268-.285.412-.814.144-.531.144-1.242t-.144-1.239-.412-.813a.83.83 0 0 0-.626-.285.82.82 0 0 0-.616.285q-.264.285-.409.813a4.8 4.8 0 0 0-.137 1.239q-.003.711.137 1.242.145.53.409.814a.8.8 0 0 0 .616.281m16.853-2.084v.655h-8.103v-.655h6.026q.114-.566.162-1.063.054-.5.064-.883.014-.387.014-.905v-.042h-5.238v-.641h6.012v.683q0 .514-.014.905a13 13 0 0 1-.06.887q-.049.5-.158 1.059zm-7.033 1.648h.782v2.274h5.456v.654h-6.238zm8.469-5.224h6.006v3.443h-6.006zm.768 2.83h4.463v-2.189h-4.463zm-1.817 1.823h8.104v.641h-3.689v3.056h-.768v-3.056h-3.647zm15.193-4.378h3.175v.619H156.7v-.619h3.224v-.902h.775zm0 4.259h3.646v.633h-8.067v-.633h3.646v-.732q-1.203-.039-1.848-.363-.644-.323-.644-.905 0-.414.335-.704.337-.288.978-.436.644-.148 1.56-.148.915 0 1.555.148.645.148.979.436a.9.9 0 0 1 .338.704q0 .578-.644.905-.641.324-1.834.363zm-2.464-2q-.004.35.535.535.538.184 1.535.184t1.534-.184q.539-.186.542-.535-.003-.228-.246-.39t-.708-.247a6 6 0 0 0-1.122-.088q-.659 0-1.127.088-.465.085-.707.247-.24.162-.236.39m4.252 3.964h-5.343v-.612h6.124v2.471h-.781zm6.322-3.161q-.954 0-1.662-.211-.707-.211-1.091-.609a1.33 1.33 0 0 1-.38-.947q0-.546.38-.943.384-.398 1.091-.606.708-.207 1.662-.204.95-.003 1.654.204.708.208 1.088.606.384.397.384.943t-.384.947q-.38.398-1.088.609-.703.211-1.654.211m0-2.886q-.708 0-1.236.137-.524.133-.809.387a.76.76 0 0 0-.278.595.77.77 0 0 0 .278.602q.285.253.809.391a5 5 0 0 0 1.236.133q.708 0 1.232-.133.528-.138.813-.391a.78.78 0 0 0 .285-.602.77.77 0 0 0-.285-.595q-.285-.254-.813-.387a5 5 0 0 0-1.232-.137m-4.027 4.357v-.633h8.068v.633zm1.042.782h.788v1.922h5.337v.647h-6.125zm14.129-5.097h3.182v.633h-7.174v-.633h3.218v-1.035h.774zm-.387 4.069q-.905 0-1.556-.169-.648-.173-.993-.5a1.05 1.05 0 0 1-.337-.795q-.004-.469.337-.796.345-.327.993-.496.651-.173 1.556-.173.901 0 1.549.173.648.168.992.496.345.327.345.796 0 .464-.345.795-.344.327-.992.5-.648.17-1.549.169m0-2.33a5.5 5.5 0 0 0-1.126.105q-.465.102-.712.296-.242.194-.239.465-.003.27.239.464.247.19.715.292.468.103 1.123.103a5.2 5.2 0 0 0 1.116-.103q.468-.102.714-.292.25-.194.254-.464-.004-.272-.25-.465-.246-.194-.715-.296a5.4 5.4 0 0 0-1.119-.105m-4.027 2.928h8.103v.648h-2.14v2.563h-.782v-2.563h-2.288v2.563h-.781v-2.563h-2.112zm15.354-2.055h1.437v.661h-1.437v4.584h-.781v-8.843h.781zm-2.288-2.647a7 7 0 0 1-.429 2.439 6.2 6.2 0 0 1-1.331 2.112q-.904.965-2.309 1.658l-.436-.613q1.707-.848 2.64-2.101a5.43 5.43 0 0 0 1.07-2.841h-3.295v-.654zm12.729 7.899v-8.85h.781v8.85zm-1.838-7.885q-.007 2-1.014 3.597-1.002 1.595-3.147 2.626l-.422-.641q1.77-.837 2.714-2.09a5.4 5.4 0 0 0 1.074-2.859h-3.38v-.633zm8.23 2.971v.936h3.668v.648h-8.103v-.648h3.668v-.936h-2.612v-2.162h5.223v-.915h-5.251v-.633h6.033v2.14h-5.231v.943h5.421v.627zm1.887 2.9h-5.414v-.641h6.202v2.57h-.788zm8.708-6.836h.782v8.864h-.782zm-3.921.683q.655.003 1.165.384.514.38.803 1.08.291.697.292 1.62 0 .925-.292 1.626-.289.7-.803 1.081a1.92 1.92 0 0 1-1.165.376 1.93 1.93 0 0 1-1.172-.376q-.514-.38-.803-1.078-.285-.7-.285-1.629 0-.926.285-1.623.289-.697.803-1.077a1.93 1.93 0 0 1 1.172-.384m0 .697a1.18 1.18 0 0 0-.785.303q-.342.295-.532.838-.19.538-.19 1.246 0 .71.19 1.253.19.541.532.838.345.295.785.295t.778-.295q.342-.297.531-.838.19-.542.191-1.253 0-.708-.191-1.246-.189-.543-.531-.838a1.15 1.15 0 0 0-.778-.303m15.087-1.387v2.697h1.33v.661h-1.33v3.175h-.782v-6.533zm-2.105 2.809q-.004.63-.307 1.13a2.1 2.1 0 0 1-.834.774 2.5 2.5 0 0 1-1.183.279 2.5 2.5 0 0 1-1.189-.279 2.1 2.1 0 0 1-.835-.777 2.1 2.1 0 0 1-.299-1.127 2.1 2.1 0 0 1 .299-1.123q.303-.496.835-.774a2.5 2.5 0 0 1 1.189-.278q.655 0 1.183.278.532.275.834.771.303.496.307 1.126m-3.879 0q-.004.429.2.771.204.338.56.532.358.19.795.19.44 0 .796-.19.356-.194.56-.532.204-.342.207-.771a1.5 1.5 0 0 0-.207-.767 1.4 1.4 0 0 0-.56-.532 1.64 1.64 0 0 0-.796-.193q-.437 0-.795.193a1.42 1.42 0 0 0-.76 1.299m.443 3.049h.775v2.154h5.174v.647h-5.949zm13.637-5.844h.781v6.618h-.781zm-.683 5.168q-2.313.316-5.674.316l-.12-.64a102 102 0 0 0 2.541-.042v-1.268h-1.732v-2.963h4.232v.647h-3.443v1.676h3.513v.64h-1.788v1.236q1.372-.063 2.415-.18zm-3.499.992v1.838h5.259v.647h-6.041v-2.485zM89.552 151.716v.648h-3.66v3.837h-.782v-3.837h-3.626v-.648h5.95a11.6 11.6 0 0 0 .26-2.052q.014-.416.014-.975v-.127h-5.21v-.647h5.984v.774q0 .567-.014.978-.011.412-.067.937a13 13 0 0 1-.172 1.112zm7.773.866h-.782v-2.703h-1.971v-.648h1.971v-1.894h.782zm-4.664-2.446q-.282.795-.87 1.39-.585.595-1.387.894l-.422-.633q.675-.24 1.19-.69.513-.454.795-1.056.285-.603.289-1.282v-.915h.774v.887q-.003.62.271 1.183.279.563.778.985.5.423 1.148.641l-.437.613a3.8 3.8 0 0 1-1.292-.796 3.5 3.5 0 0 1-.837-1.221m1.728 2.7q.915 0 1.58.197.67.196 1.025.573.36.377.359.905 0 .52-.36.894-.354.374-1.02.567t-1.584.193q-.922 0-1.591-.193-.666-.194-1.02-.567a1.24 1.24 0 0 1-.353-.894 1.26 1.26 0 0 1 .352-.905q.356-.377 1.024-.573.669-.198 1.588-.197m0 2.703q.672 0 1.165-.123.492-.123.757-.356a.7.7 0 0 0 .267-.549.73.73 0 0 0-.267-.563q-.264-.24-.757-.366a4.7 4.7 0 0 0-1.165-.127q-.675 0-1.172.127-.493.126-.757.366a.72.72 0 0 0-.26.563.7.7 0 0 0 .26.549q.264.233.757.356.495.123 1.172.123m8.786-2.394v-.57h1.823v-5.231h.789v6.724h-.789v-.923zm-1.823-2.365q-.652 0-1.151-.187-.496-.186-.771-.535a1.27 1.27 0 0 1-.275-.813q0-.458.275-.806.274-.352.774-.542a3.2 3.2 0 0 1 1.148-.194q.64 0 1.137.194.495.19.77.542.279.348.282.806-.003.465-.282.813-.275.345-.77.535a3.2 3.2 0 0 1-1.137.187m0-2.485a2.2 2.2 0 0 0-.761.116q-.33.12-.514.338a.74.74 0 0 0-.176.496.74.74 0 0 0 .176.5q.183.215.514.334.331.116.761.116.415 0 .742-.116.328-.119.511-.334a.76.76 0 0 0 .19-.5.75.75 0 0 0-.19-.496 1.17 1.17 0 0 0-.511-.338 2.1 2.1 0 0 0-.742-.116m-.31 5.463v-1.711q-.909.035-2.063.035h-.43l-.105-.64q1.753-.008 3.129-.053 1.38-.05 2.63-.208l.056.57a25 25 0 0 1-2.436.257v1.75zm-.542-.352v1.936h5.505v.647h-6.287v-2.583zm13.01-6.069h.781v8.864h-.781zm-3.922.683q.655.003 1.166.384.513.38.802 1.08.292.697.292 1.62 0 .925-.292 1.626-.288.7-.802 1.081a1.92 1.92 0 0 1-1.166.376q-.657 0-1.172-.376-.513-.38-.802-1.078-.285-.7-.285-1.629 0-.926.285-1.623.288-.697.802-1.077a1.94 1.94 0 0 1 1.172-.384m0 .697a1.18 1.18 0 0 0-.785.303q-.34.295-.531.838a3.7 3.7 0 0 0-.19 1.246q0 .71.19 1.253.19.541.531.838.345.295.785.295t.778-.295q.342-.297.532-.838.19-.542.19-1.253a3.7 3.7 0 0 0-.19-1.246q-.19-.543-.532-.838a1.15 1.15 0 0 0-.778-.303m12.743 7.47v-8.85h.753v8.85zm-1.774-5.4v-3.26h.753v8.209h-.753v-4.301h-1.141q-.037.855-.285 1.489-.243.63-.662.971a1.47 1.47 0 0 1-.96.334 1.45 1.45 0 0 1-1-.373q-.426-.377-.662-1.073-.232-.697-.232-1.63 0-.93.232-1.623.236-.696.662-1.07a1.47 1.47 0 0 1 1-.377q.534 0 .946.328.416.327.662.94.246.608.296 1.436zm-3.048 2.703a.82.82 0 0 0 .626-.281q.267-.285.412-.814.144-.531.144-1.242t-.144-1.239-.412-.813a.83.83 0 0 0-.626-.285.82.82 0 0 0-.616.285q-.264.285-.409.813a4.8 4.8 0 0 0-.137 1.239q-.003.711.137 1.242.145.53.409.814a.8.8 0 0 0 .616.281m12.587.901h2.014v.655h-8.103v-.655h2.006v-2.386a2.4 2.4 0 0 1-.894-.771 1.86 1.86 0 0 1-.317-1.06q0-.675.412-1.189.412-.518 1.147-.803t1.672-.289q.94.004 1.676.289.739.285 1.151.803.412.514.412 1.189 0 .582-.31 1.046a2.37 2.37 0 0 1-.866.764zm-4.541-4.217q0 .486.314.863.316.373.88.581.566.204 1.284.204t1.282-.204q.567-.208.883-.581.321-.377.321-.863 0-.489-.321-.862-.316-.373-.883-.577a3.7 3.7 0 0 0-1.282-.201 3.7 3.7 0 0 0-1.284.201q-.564.204-.88.577a1.3 1.3 0 0 0-.314.862m1.225 4.217h2.528v-2.101a5 5 0 0 1-1.275.151q-.661 0-1.253-.148z"/><path fill="#000" d="m82.845 119.873-.01-2.685 7.272-7.01q1.185-1.187 1.83-1.951.654-.764.996-1.499a3.65 3.65 0 0 0 .352-1.579q0-.945-.463-1.659a3 3 0 0 0-1.277-1.096q-.805-.383-1.81-.383-1.047 0-1.841.423-.784.412-1.207 1.187-.422.774-.422 1.81h-3.52q-.01-1.921.885-3.379t2.494-2.253q1.61-.805 3.66-.805 2.062 0 3.661.775 1.6.764 2.485 2.122.894 1.357.895 3.067a6.2 6.2 0 0 1-.463 2.313q-.453 1.097-1.569 2.454-1.106 1.348-3.148 3.269l-3.65 3.631v.15h9.141v3.098zM110.143 114.281h-2.374v.869h-4.642v-4.49h4.642v.877h2.374v-1.649h.893v5.994h-.893zm-6.131.137h2.88v-3.034h-2.88zm6.131-.877v-1.272h-2.374v1.272zm-2.462 2.631q1.046 0 1.806.225.764.225 1.171.656.41.43.41 1.034 0 .594-.41 1.021-.406.427-1.167.648-.76.222-1.81.221-1.054 0-1.819-.221-.76-.22-1.166-.648a1.42 1.42 0 0 1-.403-1.021 1.44 1.44 0 0 1 .403-1.034q.407-.43 1.17-.656.765-.225 1.815-.225m0 3.097q.768 0 1.331-.145.564-.14.865-.406.306-.27.306-.631a.84.84 0 0 0-.302-.648q-.301-.274-.865-.419a5.5 5.5 0 0 0-1.335-.148 5.5 5.5 0 0 0-1.34.148q-.563.145-.865.419a.83.83 0 0 0-.298.648q-.003.361.298.631.302.266.865.406.567.145 1.34.145"/><rect width="336" height="124" x="52" y="195.44" fill="#fff" rx="11.65"/><path fill="#000" d="M93.305 227.918v1.277H81.553v-1.277h8.408a16 16 0 0 0 .266-1.896q.06-.855.06-1.855h-7.28v-1.272h8.86v1.061q0 1.12-.056 2.001-.05.88-.251 1.961zm-10.239 2.504h1.564v3.038h7.609v1.282h-9.172zm12.054-7.608h8.876v5.114H95.12zm1.549 3.877h5.753v-2.615h-5.753zm-2.982 2.741h11.752v1.277h-5.129v4.279h-1.564v-4.279h-5.059zm21.266 5.597v-12.874h1.594v12.874zm-4.244-9.786a6.8 6.8 0 0 0 .392 2.308 6.3 6.3 0 0 0 1.157 1.996 4.9 4.9 0 0 0 1.77 1.308l-.941 1.267a5.4 5.4 0 0 1-1.895-1.468 7.4 7.4 0 0 1-1.263-2.258 7.7 7.7 0 0 1-1.277 2.444 5.44 5.44 0 0 1-1.971 1.579l-.966-1.318a4.9 4.9 0 0 0 1.806-1.358 6.4 6.4 0 0 0 1.176-2.076 7.5 7.5 0 0 0 .413-2.424v-2.057h1.599zm17.434-3.088v3.696h1.795v1.313h-1.795v4.259h-1.604v-9.268zm-3.495.971q0 1.695-.714 3.067-.714 1.368-2.067 2.359-1.348.985-3.253 1.543l-.664-1.257q1.464-.422 2.529-1.081 1.067-.663 1.68-1.508a4 4 0 0 0 .754-1.826h-4.415v-1.297zm-4.762 7.352h1.594v2.997h7.146v1.282h-8.74zm22.384-8.323h1.594v12.874h-1.594zm-8.428 1.202h6.12v8.524h-6.12zm4.581 1.237h-3.007v6.024h3.007zm17.037-2.439v2.525h1.795v1.297h-1.795v2.6h-1.589v-6.422zm-2.579 5.617a16 16 0 0 1-2.424.352q-1.242.086-3.289.086h-1.353v-5.361h5.753v1.257h-4.184v2.862a44 44 0 0 0 2.977-.101q1.182-.09 2.344-.327zm2.579 4.777h-6.834v1.021h7.237v1.278h-8.795v-3.49h6.813v-.961h-6.834v-1.262h8.413z"/><path fill="#999" d="M85.494 288.287a3.7 3.7 0 0 1-.81 1.127q-.525.51-1.186.855-.658.342-1.345.486l-.352-.648a4.6 4.6 0 0 0 1.546-.584 4.2 4.2 0 0 0 1.246-1.102q.485-.651.489-1.362v-.683h.817v.683q0 .708.489 1.359.49.651 1.253 1.101.765.452 1.552.588l-.352.648a5.4 5.4 0 0 1-1.351-.486 5 5 0 0 1-1.19-.855 3.7 3.7 0 0 1-.806-1.127m.383 2.369v2.162h3.71v.647h-8.103v-.647h3.626v-2.162zm8.878-1.922v-.647h1.788v-2.309h.782v5.273h-.782v-2.317zm-2.066-.028q-.285.778-.877 1.37a3.8 3.8 0 0 1-1.38.89l-.408-.619a3.6 3.6 0 0 0 1.165-.69q.515-.454.8-1.042a2.7 2.7 0 0 0 .288-1.211v-.331h-2v-.648h4.767v.648h-1.979v.324q0 .57.275 1.109.275.534.77.954.497.416 1.138.633l-.409.627a3.7 3.7 0 0 1-1.298-.796 3.6 3.6 0 0 1-.852-1.218m1.7 2.619q.915 0 1.58.197.67.194 1.025.564.36.37.359.887 0 .517-.36.883-.354.37-1.02.563-.666.198-1.584.201-.922-.003-1.591-.201-.666-.193-1.02-.563a1.2 1.2 0 0 1-.353-.883 1.22 1.22 0 0 1 .352-.887q.356-.37 1.024-.564.669-.197 1.588-.197m0 2.668q.672.004 1.165-.119.492-.12.757-.352a.7.7 0 0 0 .267-.549.71.71 0 0 0-.267-.553q-.264-.236-.757-.359a4.9 4.9 0 0 0-1.165-.123q-.675 0-1.172.123-.493.123-.757.359a.7.7 0 0 0-.26.553.7.7 0 0 0 .26.549q.264.232.757.352.495.123 1.172.119m14.46-4.146v.655h-8.103v-.655h6.026q.113-.567.162-1.063.052-.5.064-.884a26 26 0 0 0 .014-.904v-.043h-5.238v-.64h6.012v.683q0 .514-.014.904a13 13 0 0 1-.06.887q-.05.5-.158 1.06zm-7.033 1.647h.781v2.274h5.457v.655h-6.238zm8.469-5.224h6.005v3.443h-6.005zm.768 2.831h4.463v-2.19h-4.463zm-1.817 1.823h8.103v.641h-3.689v3.055h-.767v-3.055h-3.647zm17.283 3.717v-8.863h.782v8.863zm-3.365-6.484a4 4 0 0 0 .321 1.56q.322.774.873 1.376.552.599 1.2.894l-.479.619a4 4 0 0 1-.947-.661 5 5 0 0 1-.795-.968 5.3 5.3 0 0 1-.556-1.172 5.8 5.8 0 0 1-.553 1.246q-.345.58-.799 1.027a3.8 3.8 0 0 1-.968.704l-.493-.654a3.7 3.7 0 0 0 1.207-.922q.553-.624.877-1.426a4.3 4.3 0 0 0 .331-1.623v-1.612h.781zm12.278-2.379v2.689h1.331v.662h-1.331v3.125h-.788v-6.476zm-2.393.683q0 1.123-.507 2.059-.507.933-1.447 1.619-.937.687-2.221 1.088l-.338-.627a7.5 7.5 0 0 0 1.858-.848q.796-.522 1.261-1.19a3.1 3.1 0 0 0 .545-1.447h-3.298v-.654zm-3.154 5.132h.781v2.189h5.167v.648h-5.948zm13.643-5.815h.782v8.863h-.782zm-3.921.683q.655.003 1.165.383.514.38.803 1.081.291.697.292 1.619 0 .925-.292 1.626-.289.701-.803 1.081a1.92 1.92 0 0 1-1.165.377 1.93 1.93 0 0 1-1.172-.377q-.514-.38-.803-1.077-.285-.7-.285-1.63 0-.926.285-1.623.289-.696.803-1.077a1.94 1.94 0 0 1 1.172-.383m0 .697a1.18 1.18 0 0 0-.785.302q-.342.296-.532.838-.19.538-.19 1.246 0 .711.19 1.253.19.543.532.838.345.296.785.296t.778-.296q.341-.295.531-.838t.19-1.253a3.7 3.7 0 0 0-.19-1.246q-.19-.542-.531-.838a1.15 1.15 0 0 0-.778-.302m14.678-1.38h.782v8.863h-.782zm-5.998.873h4.09v5.751h-4.09zm3.33.626h-2.555v4.485h2.555zm11.581-1.499v1.872h1.331v.655h-1.331v1.936h-.781v-4.463zm-1.654 3.808a13 13 0 0 1-1.715.247q-.852.063-2.15.063h-.993v-3.604h3.928v.64h-3.161v2.33h.134q1.278 0 2.137-.063a14 14 0 0 0 1.721-.239zm1.654 3.274h-4.858v1.007h5.182v.64h-5.949v-2.26h4.851v-.929h-4.872v-.633h5.646zm4.632-5.991h2.246v.641h-5.273v-.641h2.253v-1.084h.774zm3.872-1.084v2.914h1.331v.662h-1.331v3.055h-.781v-6.631zm-2.133 3.865a1.44 1.44 0 0 1-.271.859 1.73 1.73 0 0 1-.75.573 2.8 2.8 0 0 1-1.105.201 2.9 2.9 0 0 1-1.123-.201 1.7 1.7 0 0 1-.75-.57 1.44 1.44 0 0 1-.26-.862 1.45 1.45 0 0 1 .26-.87q.268-.376.75-.581a2.9 2.9 0 0 1 1.123-.204q.627 0 1.105.204.483.205.75.581.268.374.271.87m-3.513 0a.86.86 0 0 0 .169.538q.172.229.486.356.317.123.732.119a1.9 1.9 0 0 0 .722-.119q.314-.127.485-.356a.88.88 0 0 0 .18-.538.9.9 0 0 0-.18-.549 1.07 1.07 0 0 0-.485-.363 1.9 1.9 0 0 0-.722-.13q-.415 0-.732.13a1.1 1.1 0 0 0-.486.363.9.9 0 0 0-.169.549m.106 2.231h.774v1.901h5.175v.648h-5.949zm17.445-1.724v.647h-3.661v3.837h-.781v-3.837h-3.626v-.647h5.949q.127-.592.186-1.116.06-.525.074-.937.014-.415.014-.975v-.126h-5.209v-.648h5.984v.774q0 .567-.014.979-.011.412-.067.936a13 13 0 0 1-.173 1.113zm7.772.865h-.781v-2.703h-1.972v-.648h1.972v-1.893h.781zm-4.664-2.446q-.282.796-.869 1.39-.585.595-1.387.895l-.423-.634a3.6 3.6 0 0 0 1.19-.69q.514-.454.796-1.056.285-.601.288-1.281v-.915h.775v.887q-.004.62.271 1.182.277.563.778.986.5.422 1.147.641l-.436.612a3.8 3.8 0 0 1-1.292-.795 3.5 3.5 0 0 1-.838-1.222m1.728 2.7q.916 0 1.581.197.669.197 1.024.574.36.376.359.904 0 .522-.359.895-.355.372-1.021.566t-1.584.194q-.921 0-1.591-.194-.664-.194-1.02-.566a1.24 1.24 0 0 1-.352-.895 1.25 1.25 0 0 1 .352-.904q.355-.377 1.024-.574t1.587-.197m0 2.703q.673 0 1.166-.123.492-.124.756-.355a.7.7 0 0 0 .268-.55.73.73 0 0 0-.268-.563q-.264-.238-.756-.366a4.8 4.8 0 0 0-1.166-.127q-.675 0-1.172.127-.493.127-.757.366a.72.72 0 0 0-.26.563.7.7 0 0 0 .26.55q.264.231.757.355a5 5 0 0 0 1.172.123m8.786-2.393v-.571h1.824v-5.23h.788v6.723h-.788v-.922zm-1.823-2.366q-.651 0-1.151-.186-.496-.187-.771-.535a1.28 1.28 0 0 1-.274-.813q0-.458.274-.807.274-.351.775-.542a3.2 3.2 0 0 1 1.147-.193q.64 0 1.137.193.496.19.771.542.278.349.282.807a1.3 1.3 0 0 1-.282.813q-.274.345-.771.535a3.2 3.2 0 0 1-1.137.186m0-2.485a2.2 2.2 0 0 0-.76.116q-.331.12-.514.338a.73.73 0 0 0-.176.497.73.73 0 0 0 .176.499q.183.216.514.335.33.116.76.116.416 0 .743-.116.327-.12.51-.335a.746.746 0 0 0 0-.996 1.2 1.2 0 0 0-.51-.338 2.1 2.1 0 0 0-.743-.116m-.31 5.463v-1.711q-.908.036-2.062.036h-.43l-.105-.641q1.752-.007 3.129-.053a30 30 0 0 0 2.629-.207l.057.57q-1.102.176-2.436.257v1.749zm-.542-.352v1.936h5.506v.648h-6.287v-2.584zm13.01-6.068h.782v8.863h-.782zm-3.921.683q.655.003 1.165.383.514.38.803 1.081.291.697.292 1.619 0 .925-.292 1.626-.289.701-.803 1.081a1.92 1.92 0 0 1-1.165.377 1.93 1.93 0 0 1-1.172-.377q-.514-.38-.803-1.077-.285-.7-.285-1.63 0-.926.285-1.623.289-.696.803-1.077a1.94 1.94 0 0 1 1.172-.383m0 .697a1.18 1.18 0 0 0-.785.302q-.342.296-.532.838-.19.538-.19 1.246 0 .711.19 1.253.19.543.532.838.345.296.785.296t.778-.296q.342-.295.531-.838.19-.542.19-1.253a3.7 3.7 0 0 0-.19-1.246q-.189-.542-.531-.838a1.15 1.15 0 0 0-.778-.302m12.742 7.469v-8.849h.754v8.849zm-1.774-5.4v-3.259h.754v8.208h-.754v-4.301h-1.14q-.039.856-.285 1.489-.243.63-.662.971a1.47 1.47 0 0 1-.961.335 1.46 1.46 0 0 1-1-.373q-.426-.376-.661-1.074-.233-.697-.233-1.63 0-.929.233-1.622.235-.698.661-1.07.43-.377 1-.377.535 0 .947.327.415.328.662.94.246.61.295 1.436zm-3.048 2.704a.83.83 0 0 0 .627-.282q.267-.285.411-.813.145-.531.145-1.243 0-.711-.145-1.239-.144-.528-.411-.813a.84.84 0 0 0-.627-.285.82.82 0 0 0-.616.285q-.264.285-.408.813-.141.528-.138 1.239-.003.712.138 1.243.144.528.408.813t.616.282m12.588.901h2.013v.655h-8.103v-.655h2.006v-2.387a2.44 2.44 0 0 1-.894-.771 1.86 1.86 0 0 1-.316-1.059q0-.676.411-1.19.412-.517 1.148-.803.736-.285 1.672-.288.94.003 1.675.288.74.286 1.151.803.412.514.412 1.19 0 .58-.309 1.045a2.37 2.37 0 0 1-.866.764zm-4.541-4.217q0 .486.313.862.317.374.88.581.567.204 1.285.204.719 0 1.281-.204.567-.207.884-.581.32-.376.32-.862a1.3 1.3 0 0 0-.32-.863q-.317-.373-.884-.577a3.7 3.7 0 0 0-1.281-.201 3.7 3.7 0 0 0-1.285.201q-.563.204-.88.577a1.3 1.3 0 0 0-.313.863m1.225 4.217h2.527v-2.102a5 5 0 0 1-1.274.152q-.662 0-1.253-.148zm6.667 1.042a.65.65 0 0 1-.56-.321.6.6 0 0 1-.081-.32.61.61 0 0 1 .317-.553.64.64 0 0 1 .644 0 .6.6 0 0 1 .232.233.6.6 0 0 1 .088.32.6.6 0 0 1-.088.32.63.63 0 0 1-.552.321"/><path fill="#000" d="M90.59 272.595q-2.183 0-4.004-.955-1.82-.966-2.946-3.188-1.127-2.233-1.127-5.854 0-3.49 1.006-6.004 1.005-2.514 2.866-3.832 1.86-1.327 4.385-1.327 1.941 0 3.48.754 1.55.755 2.494 2.082a6.53 6.53 0 0 1 1.187 2.987h-3.66q-.292-1.208-1.208-1.911t-2.293-.704q-1.478 0-2.524.845-1.046.835-1.59 2.403-.542 1.57-.552 3.742h.211a5.44 5.44 0 0 1 2.172-2.092q1.408-.754 3.108-.754 1.83 0 3.319.864a6.2 6.2 0 0 1 2.353 2.394q.865 1.528.865 3.45 0 2.031-.945 3.65-.936 1.61-2.655 2.535-1.72.915-3.943.915m-.051-2.997q1.126 0 2.042-.533a3.87 3.87 0 0 0 1.438-1.448 4.06 4.06 0 0 0 .523-2.032q0-1.097-.513-2.001a3.76 3.76 0 0 0-1.418-1.428q-.895-.534-2.022-.533-1.126 0-2.061.543a4.1 4.1 0 0 0-1.469 1.458 3.95 3.95 0 0 0-.543 1.981q0 1.077.523 1.992a3.95 3.95 0 0 0 3.5 2.001M110.143 266.721h-2.374v.869h-4.642v-4.489h4.642v.877h2.374v-1.65h.893v5.994h-.893zm-6.131.137h2.88v-3.033h-2.88zm6.131-.877v-1.271h-2.374v1.271zm-2.462 2.631q1.046 0 1.806.225.764.226 1.171.656.41.43.41 1.034 0 .596-.41 1.022-.406.426-1.167.647-.76.222-1.81.222-1.054 0-1.819-.222-.76-.22-1.166-.647a1.42 1.42 0 0 1-.403-1.022 1.44 1.44 0 0 1 .403-1.034q.407-.43 1.17-.656.765-.225 1.815-.225m0 3.098q.768 0 1.331-.145.564-.14.865-.406.306-.27.306-.632a.84.84 0 0 0-.302-.648q-.301-.274-.865-.418a5.5 5.5 0 0 0-1.335-.149 5.5 5.5 0 0 0-1.34.149q-.563.144-.865.418a.83.83 0 0 0-.298.648q-.003.362.298.632.302.265.865.406a5.5 5.5 0 0 0 1.34.145"/><path fill="#00AEAE" d="M122.666 271.629q-.87 0-1.557-.297-.689-.298-1.082-.829a2.12 2.12 0 0 1-.415-1.223h1.497q.016.326.221.579.21.25.555.386.35.137.777.137.45 0 .804-.153.359-.156.555-.434.201-.282.202-.64a1.1 1.1 0 0 0-.202-.66 1.3 1.3 0 0 0-.595-.45 2.3 2.3 0 0 0-.913-.165h-.732v-1.143h.732q.434 0 .772-.148.338-.153.527-.427.189-.277.189-.631 0-.343-.165-.604a1.06 1.06 0 0 0-.462-.41 1.56 1.56 0 0 0-.692-.145q-.39 0-.724.141a1.3 1.3 0 0 0-.539.394.97.97 0 0 0-.214.587h-1.42q.016-.675.403-1.207a2.53 2.53 0 0 1 1.042-.824 3.5 3.5 0 0 1 1.46-.298q.813 0 1.436.306.627.302.965.825.342.519.338 1.15.004.459-.185.829a1.65 1.65 0 0 1-.527.615 2.1 2.1 0 0 1-.796.338v.065q.575.076.985.338.411.261.624.671t.209.93a2.02 2.02 0 0 1-.394 1.231q-.395.546-1.098.856-.7.31-1.581.31M131.343 270.43v-3.452l-1.284 1.178a.655.655 0 0 1-.876 0 .537.537 0 0 1 .002-.806l2.306-2.112a.6.6 0 0 1 .469-.238c.011 0 .017.01.027.01a.64.64 0 0 1 .451.163l2.379 2.179a.538.538 0 0 1 .003.805.65.65 0 0 1-.876 0l-1.36-1.245v3.517c0 .313-.28.571-.624.571-.34.001-.617-.258-.617-.57"/><rect width="336" height="125" x="52" y="332.88" fill="#fff" rx="11.65"/><path fill="#000" d="M82.036 366.177q1.357-.175 2.368-.684 1.016-.512 1.58-1.232.562-.724.623-1.533h-4.013v-1.278h4.038v-1.654h1.564v1.654h4.048v1.278H88.23q.055.81.613 1.533.564.72 1.58 1.227 1.014.509 2.368.689l-.584 1.237q-1.66-.236-2.906-.945-1.247-.71-1.89-1.765-.64 1.06-1.882 1.77-1.236.704-2.901.94zm6.16.79v2.66h5.109v1.297H81.553v-1.297h5.079v-2.66zm15.588-2.142h1.861v1.337h-1.861v6.276h-1.594v-12.843h1.594zm-4.817 1.865q.206-1.302.272-2.343.064-1.046.075-2.152H94.27v-1.273h6.618v1.051a46 46 0 0 1-.076 2.344q-.065 1.096-.286 2.499zm-1.333 1.705a48 48 0 0 0 3.888-.302l.09 1.177a33 33 0 0 1-3.485.377 68 68 0 0 1-3.761.101h-.624l-.156-1.278q1.645-.01 2.495-.03v-3.837h1.553zm19.969-3.037v1.277h-11.752v-1.277h8.408q.205-1.047.267-1.896.06-.855.06-1.856h-7.282v-1.272h8.861v1.061q0 1.122-.055 2.001a16 16 0 0 1-.252 1.962zm-10.238 2.504h1.564v3.037h7.608v1.282h-9.172zm12.053-7.608h8.876v5.114h-8.876zm1.549 3.877h5.753v-2.615h-5.753zm-2.982 2.74h11.752v1.277h-5.129v4.28h-1.564v-4.28h-5.059z"/><path fill="#999" d="M85.494 425.727a3.7 3.7 0 0 1-.81 1.126q-.525.511-1.186.856a5.3 5.3 0 0 1-1.345.485l-.352-.647a4.6 4.6 0 0 0 1.546-.585q.76-.45 1.246-1.101.485-.652.489-1.363v-.682h.817v.682q0 .708.489 1.359a4.2 4.2 0 0 0 1.253 1.102q.765.45 1.552.588l-.352.647a5.4 5.4 0 0 1-1.351-.485 5 5 0 0 1-1.19-.856 3.7 3.7 0 0 1-.806-1.126m.383 2.369v2.161h3.71v.648h-8.103v-.648h3.626v-2.161zm8.878-1.922v-.648h1.788v-2.309h.782v5.273h-.782v-2.316zm-2.066-.028q-.285.777-.877 1.369a3.84 3.84 0 0 1-1.38.891l-.408-.62a3.6 3.6 0 0 0 1.165-.69q.515-.454.8-1.042.288-.588.288-1.211v-.331h-2v-.647h4.767v.647h-1.979v.324q0 .57.275 1.109.275.536.77.954.497.415 1.138.634l-.409.626a3.7 3.7 0 0 1-1.298-.795 3.6 3.6 0 0 1-.852-1.218m1.7 2.619q.915 0 1.58.197.67.194 1.025.563.36.37.359.887 0 .518-.36.884-.354.37-1.02.563-.666.197-1.584.2-.922-.003-1.591-.2-.666-.194-1.02-.563a1.2 1.2 0 0 1-.353-.884 1.22 1.22 0 0 1 .352-.887q.356-.37 1.024-.563.669-.197 1.588-.197m0 2.668q.672.003 1.165-.12.492-.12.757-.352a.7.7 0 0 0 .267-.549.71.71 0 0 0-.267-.553q-.264-.236-.757-.359a4.9 4.9 0 0 0-1.165-.123q-.675 0-1.172.123-.493.123-.757.359a.7.7 0 0 0-.26.553.7.7 0 0 0 .26.549q.264.232.757.352.495.123 1.172.12m14.46-4.147v.655h-8.103v-.655h6.026q.113-.567.162-1.063.052-.5.064-.883.014-.387.014-.905v-.042h-5.238v-.641h6.012v.683q0 .514-.014.905a13 13 0 0 1-.06.887q-.05.5-.158 1.059zm-7.033 1.648h.781v2.274h5.457v.654h-6.238zm8.469-5.224h6.005v3.442h-6.005zm.768 2.83h4.463v-2.189h-4.463zm-1.817 1.823h8.103v.641h-3.689v3.055h-.767v-3.055h-3.647zm17.283 3.718v-8.864h.782v8.864zm-3.365-6.484a4 4 0 0 0 .321 1.559q.322.774.873 1.376.552.599 1.2.894l-.479.62a4 4 0 0 1-.947-.662 5 5 0 0 1-.795-.968 5.3 5.3 0 0 1-.556-1.172 5.8 5.8 0 0 1-.553 1.246q-.345.58-.799 1.028a3.8 3.8 0 0 1-.968.704l-.493-.655a3.7 3.7 0 0 0 1.207-.922q.553-.623.877-1.426a4.3 4.3 0 0 0 .331-1.622v-1.613h.781zm12.278-2.38v2.689h1.331v.662h-1.331v3.126h-.788v-6.477zm-2.393.683q0 1.123-.507 2.059a4.9 4.9 0 0 1-1.447 1.619q-.937.687-2.221 1.088l-.338-.626a7.5 7.5 0 0 0 1.858-.849q.796-.52 1.261-1.19a3.1 3.1 0 0 0 .545-1.446h-3.298v-.655zm-3.154 5.132h.781v2.19h5.167v.647h-5.948zm11.158-2.584q-.985-.003-1.69-.183-.7-.179-1.073-.524-.37-.345-.37-.841 0-.49.37-.831.373-.342 1.073-.517.705-.18 1.69-.18.986 0 1.686.176t1.07.521q.37.341.37.831 0 .496-.37.841t-1.07.524q-.7.18-1.686.183m0-2.485q-.725 0-1.25.113-.52.112-.795.324-.274.207-.271.5-.003.302.267.517.275.212.796.324.52.11 1.253.109.736 0 1.257-.109.524-.112.799-.324.274-.215.274-.517 0-.293-.278-.5-.274-.212-.799-.324a6 6 0 0 0-1.253-.113m-4.027 3.717v-.633h8.068v.633zm7.026 2.746h-5.259v.922h5.527v.62h-6.294v-2.119h5.259v-.803h-5.28v-.598h6.047zm4.182-2.464a5.3 5.3 0 0 0 1.594-.517 3.4 3.4 0 0 0 1.162-.94q.437-.563.44-1.232h-2.894v-.648h2.901v-1.218h.767v1.218h2.901v.648h-2.887q0 .668.433 1.232a3.4 3.4 0 0 0 1.158.94 5.3 5.3 0 0 0 1.592.517l-.303.613a6 6 0 0 1-1.366-.405 4.7 4.7 0 0 1-1.14-.704 3.2 3.2 0 0 1-.771-.965 3.1 3.1 0 0 1-.771.965 4.6 4.6 0 0 1-1.141.704q-.643.277-1.365.405zm3.97.303v2.027h3.682v.655h-8.103v-.655h3.654v-2.027zm10.912-1.345h1.437v.676h-1.437v4.47h-.781v-8.849h.781zm-2.963 1.183q.157-.985.207-1.767.053-.782.053-1.5h-3.717v-.64h4.499v.559a30 30 0 0 1-.057 1.602q-.045.785-.204 1.809zm-1.275 1.313a36 36 0 0 0 2.901-.215l.042.592q-2.08.323-5.22.323h-.306l-.099-.654a97 97 0 0 0 1.908-.025v-2.714h.774zm8.962-5.108h2.246v.641h-5.273v-.641h2.253v-1.084h.774zm3.872-1.084v2.915h1.331v.661h-1.331v3.056h-.781v-6.632zm-2.133 3.865a1.44 1.44 0 0 1-.271.859 1.73 1.73 0 0 1-.75.574q-.478.2-1.105.2a2.9 2.9 0 0 1-1.123-.2 1.7 1.7 0 0 1-.75-.57 1.44 1.44 0 0 1-.26-.863 1.45 1.45 0 0 1 .26-.869q.268-.377.75-.581a2.9 2.9 0 0 1 1.123-.204q.627 0 1.105.204.483.204.75.581.268.372.271.869m-3.513 0a.87.87 0 0 0 .169.539q.172.229.486.355.317.123.732.12.408.003.722-.12.314-.126.485-.355a.88.88 0 0 0 .18-.539.9.9 0 0 0-.18-.549 1.1 1.1 0 0 0-.485-.363 1.9 1.9 0 0 0-.722-.13q-.415 0-.732.13a1.1 1.1 0 0 0-.486.363.9.9 0 0 0-.169.549m.106 2.232h.774v1.901h5.175v.647h-5.949zm17.445-1.725v.648h-3.661v3.837h-.781v-3.837h-3.626v-.648h5.949q.127-.591.186-1.116.06-.524.074-.936.014-.415.014-.975v-.127h-5.209v-.648h5.984v.775q0 .567-.014.978-.011.412-.067.937a13 13 0 0 1-.173 1.112zm7.772.866h-.781v-2.703h-1.972v-.648h1.972v-1.894h.781zm-4.664-2.446q-.282.795-.869 1.39a3.75 3.75 0 0 1-1.387.894l-.423-.634a3.6 3.6 0 0 0 1.19-.69q.514-.453.796-1.056.285-.602.288-1.281v-.915h.775v.887q-.004.62.271 1.183.277.563.778.985.5.423 1.147.641l-.436.612a3.8 3.8 0 0 1-1.292-.795 3.5 3.5 0 0 1-.838-1.221m1.728 2.699q.916 0 1.581.198.669.197 1.024.573.36.377.359.905 0 .52-.359.894-.355.373-1.021.567t-1.584.193q-.921 0-1.591-.193-.664-.194-1.02-.567a1.24 1.24 0 0 1-.352-.894 1.26 1.26 0 0 1 .352-.905q.355-.376 1.024-.573.669-.198 1.587-.198m0 2.704q.673 0 1.166-.123.492-.124.756-.356a.7.7 0 0 0 .268-.549.73.73 0 0 0-.268-.563q-.264-.24-.756-.366a4.7 4.7 0 0 0-1.166-.127q-.675 0-1.172.127-.493.126-.757.366a.72.72 0 0 0-.26.563.7.7 0 0 0 .26.549q.264.232.757.356a5 5 0 0 0 1.172.123m8.786-2.394v-.57h1.824v-5.231h.788v6.723h-.788v-.922zm-1.823-2.365q-.651 0-1.151-.187a1.7 1.7 0 0 1-.771-.535 1.27 1.27 0 0 1-.274-.813q0-.458.274-.806.274-.352.775-.542a3.2 3.2 0 0 1 1.147-.194q.64 0 1.137.194.496.19.771.542.278.348.282.806-.005.465-.282.813-.274.345-.771.535a3.2 3.2 0 0 1-1.137.187m0-2.485a2.2 2.2 0 0 0-.76.116q-.331.12-.514.338a.73.73 0 0 0-.176.496.74.74 0 0 0 .176.5q.183.214.514.334.33.116.76.116a2.2 2.2 0 0 0 .743-.116q.327-.12.51-.334a.75.75 0 0 0 0-.996 1.2 1.2 0 0 0-.51-.338 2.1 2.1 0 0 0-.743-.116m-.31 5.463v-1.711q-.908.035-2.062.035h-.43l-.105-.641a108 108 0 0 0 3.129-.052q1.38-.05 2.629-.208l.057.57q-1.102.177-2.436.257v1.75zm-.542-.352v1.936h5.506v.647h-6.287v-2.583zm13.01-6.069h.782v8.864h-.782zm-3.921.683q.655.003 1.165.384.514.38.803 1.08.291.697.292 1.62 0 .925-.292 1.626-.289.7-.803 1.08a1.9 1.9 0 0 1-1.165.377q-.659 0-1.172-.377-.514-.38-.803-1.077-.285-.7-.285-1.629 0-.927.285-1.623.289-.697.803-1.077a1.93 1.93 0 0 1 1.172-.384m0 .697a1.18 1.18 0 0 0-.785.303q-.342.296-.532.837-.19.539-.19 1.247 0 .71.19 1.253.19.541.532.837.345.296.785.296t.778-.296q.342-.296.531-.837.19-.543.19-1.253 0-.708-.19-1.247-.189-.541-.531-.837a1.15 1.15 0 0 0-.778-.303m12.742 7.469v-8.849h.754v8.849zm-1.774-5.399v-3.26h.754v8.209h-.754v-4.302h-1.14q-.039.856-.285 1.489-.243.63-.662.972a1.47 1.47 0 0 1-.961.334 1.46 1.46 0 0 1-1-.373q-.426-.377-.661-1.073-.233-.697-.233-1.63 0-.93.233-1.623.235-.697.661-1.07.43-.377 1-.377.535 0 .947.328.415.327.662.94.246.609.295 1.436zm-3.048 2.703a.83.83 0 0 0 .627-.281q.267-.286.411-.814.145-.531.145-1.242t-.145-1.239q-.144-.528-.411-.813a.84.84 0 0 0-.627-.285.82.82 0 0 0-.616.285q-.264.285-.408.813-.141.528-.138 1.239a4.8 4.8 0 0 0 .138 1.242q.144.528.408.814t.616.281m12.588.901h2.013v.655h-8.103v-.655h2.006v-2.386a2.44 2.44 0 0 1-.894-.771 1.86 1.86 0 0 1-.316-1.06q0-.675.411-1.19.412-.517 1.148-.802t1.672-.289q.94.004 1.675.289.74.286 1.151.802.412.515.412 1.19 0 .58-.309 1.046a2.4 2.4 0 0 1-.866.764zm-4.541-4.217q0 .486.313.863.317.373.88.58.567.205 1.285.205.719 0 1.281-.205.567-.207.884-.58.32-.377.32-.863 0-.489-.32-.862-.317-.373-.884-.577a3.7 3.7 0 0 0-1.281-.201 3.7 3.7 0 0 0-1.285.201q-.563.204-.88.577a1.3 1.3 0 0 0-.313.862m1.225 4.217h2.527v-2.101a5 5 0 0 1-1.274.151q-.662 0-1.253-.148zm6.667 1.042a.66.66 0 0 1-.324-.084.7.7 0 0 1-.236-.236.6.6 0 0 1-.081-.32.62.62 0 0 1 .317-.553.63.63 0 0 1 .644 0 .6.6 0 0 1 .232.232.6.6 0 0 1 .088.321.6.6 0 0 1-.088.32.64.64 0 0 1-.232.236.64.64 0 0 1-.32.084"/><path fill="#000" d="M87.643 389.156h3.55v20.597h-3.721v-16.987h-.121l-4.817 3.078v-3.389zM103.901 404.161h-2.374v.869h-4.642v-4.49h4.642v.877h2.374v-1.649h.893v5.994h-.893zm-6.13.137h2.879v-3.034h-2.88zm6.13-.877v-1.272h-2.374v1.272zm-2.462 2.631q1.046 0 1.806.225.765.225 1.171.656.41.43.41 1.033 0 .596-.41 1.022-.406.427-1.167.648-.76.22-1.81.221-1.054 0-1.818-.221-.76-.221-1.167-.648a1.41 1.41 0 0 1-.402-1.022 1.44 1.44 0 0 1 .402-1.033q.406-.43 1.17-.656.765-.225 1.815-.225m0 3.097q.768 0 1.332-.145.563-.14.864-.406.306-.27.306-.632 0-.378-.302-.647-.301-.274-.864-.419a5.5 5.5 0 0 0-1.336-.148 5.6 5.6 0 0 0-1.34.148q-.562.145-.865.419a.82.82 0 0 0-.297.647q-.004.362.297.632.303.265.865.406.567.145 1.34.145"/><path fill="#F5784B" d="M115.732 403.758h3.705v1.195h-3.705zm7.681 4.831a3.9 3.9 0 0 1-1.557-.297q-.687-.298-1.082-.829a2.1 2.1 0 0 1-.414-1.223h1.496q.017.326.221.579.21.25.556.386.35.137.776.137.45 0 .805-.153.357-.156.555-.434.201-.282.201-.64a1.1 1.1 0 0 0-.201-.66 1.33 1.33 0 0 0-.596-.45 2.3 2.3 0 0 0-.913-.165h-.732v-1.143h.732q.434 0 .773-.148.337-.154.527-.427.189-.277.189-.631 0-.342-.165-.604a1.07 1.07 0 0 0-.463-.41 1.56 1.56 0 0 0-.692-.145q-.39 0-.724.141a1.3 1.3 0 0 0-.539.394.98.98 0 0 0-.213.587h-1.42q.015-.675.402-1.207a2.54 2.54 0 0 1 1.042-.824 3.5 3.5 0 0 1 1.46-.298q.813 0 1.436.306.628.302.966.824.341.52.338 1.151a1.8 1.8 0 0 1-.185.829 1.7 1.7 0 0 1-.527.615 2.1 2.1 0 0 1-.797.338v.065q.576.076.986.337.41.263.623.672.213.411.209.93.005.683-.394 1.231-.395.546-1.098.856-.7.31-1.581.31M131.343 402.57v3.452l-1.284-1.178a.655.655 0 0 0-.876 0 .537.537 0 0 0 .002.806l2.306 2.112a.6.6 0 0 0 .469.238c.011 0 .017-.01.027-.01a.64.64 0 0 0 .451-.163l2.379-2.179a.538.538 0 0 0 .003-.805.65.65 0 0 0-.876 0l-1.36 1.245v-3.517c0-.313-.28-.571-.624-.571-.34-.001-.617.258-.617.57"/></g><defs><clipPath id="a"><rect width="440" height="500" fill="#fff" rx="16"/></clipPath><filter id="b" width="365.6" height="444.48" x="37.2" y="32.2" color-interpolation-filters="sRGB" filterUnits="userSpaceOnUse"><feFlood flood-opacity="0" result="BackgroundImageFix"/><feColorMatrix in="SourceAlpha" result="hardAlpha" values="0 0 0 0 0 0 0 0 0 0 0 0 0 0 0 0 0 0 127 0"/><feOffset dy="4"/><feGaussianBlur stdDeviation="7.4"/><feComposite in2="hardAlpha" operator="out"/><feColorMatrix values="0 0 0 0 0 0 0 0 0 0.682353 0 0 0 0 0.682353 0 0 0 0.06 0"/><feBlend in2="BackgroundImageFix" result="effect1_dropShadow_191_984"/><feBlend in="SourceGraphic" in2="effect1_dropShadow_191_984" result="shape"/></filter></defs></svg>