<svg xmlns="http://www.w3.org/2000/svg" width="420" height="200" fill="none"><path fill="#F4F6FC" d="M0 0h420v200H0z"/><path fill="#000" d="M44.232 35.004h-1.47l-1.582-5.74a.5.5 0 0 0-.098-.224q-.056-.07-.21-.07h-.966q-.155 0-.21.07a.6.6 0 0 0-.098.224l-1.666 5.74h-1.47l1.764-6.034h-1.582v-1.26h7.644v1.26h-1.722zm3.304 5.208H37.75V35.76h1.4v3.192h8.386zm-.084-3.234h-1.4v-5.096h-2.254v-1.288h2.254v-3.038h1.4zm12.267 3.234h-1.4v-3.668h-8.372v-1.26h9.772zm0-5.572h-1.4v-7.084h1.4zm-3.08-.28h-1.47l-1.581-5.096a.6.6 0 0 0-.113-.224q-.042-.07-.196-.07h-.966q-.153 0-.21.07-.041.07-.098.224L50.34 34.36h-1.47l1.764-5.39h-1.722v-1.26h7.925v1.26h-1.862zm12.072-3.262q-.266.462-.77.784a3.8 3.8 0 0 1-1.176.49 6.4 6.4 0 0 1-1.512.168q-.826 0-1.526-.168a3.8 3.8 0 0 1-1.176-.49 2.5 2.5 0 0 1-.77-.784 2.2 2.2 0 0 1-.266-1.092q0-.601.266-1.078.28-.476.77-.798a3.8 3.8 0 0 1 1.176-.49 6.5 6.5 0 0 1 1.526-.168q.826 0 1.512.168t1.176.49q.504.322.77.798.28.476.28 1.078 0 .616-.28 1.092m3.136 6.79h-1.4v-1.33h-3.122v-1.232h3.122v-7.77h1.4zm.084 2.324H61.865v-3.5h1.4v2.24h8.666zm-2.394-5.782h-3.808v2.212h-1.4V34.43h-3.15v-1.26h8.358zm-2.604-3.444q.658-.308.658-.98t-.658-.966q-.645-.308-1.68-.308t-1.694.308q-.644.294-.644.966t.644.98q.658.294 1.694.294 1.035 0 1.68-.294m21.322 8.386H76.467v-1.26h4.382v-5.264h1.4v5.264h6.006zM87.01 35.48h-1.4l.42-6.132q.043-.392-.392-.392H77.35v-1.26h9.45q.365 0 .546.21.196.21.168.56zm13.514-.616H88.735v-1.26h2.87v-1.288q-1.093-.084-1.708-.7-.602-.615-.602-1.694 0-1.162.7-1.778.699-.63 1.974-.63h5.32q1.274 0 1.974.644.7.63.7 1.764 0 1.05-.616 1.68-.602.616-1.694.714v1.288h2.87zm-3.234.77q1.274 0 1.974.602.7.601.7 1.708t-.7 1.708q-.7.602-1.974.602h-5.32q-1.275 0-1.974-.602-.7-.601-.7-1.708t.7-1.708 1.974-.602zm-.182-4.564q.741 0 1.092-.308.364-.307.364-.84t-.364-.84q-.351-.308-1.092-.308H92.15q-.743 0-1.106.308-.35.307-.35.84t.35.84q.363.308 1.106.308zm0 7.924q.741 0 1.092-.294a.9.9 0 0 0 .364-.756.9.9 0 0 0-.364-.756q-.351-.294-1.092-.294H92.15q-.743 0-1.106.294a.92.92 0 0 0-.35.756q0 .476.35.756.363.294 1.106.294zm-.854-5.39V32.33h-3.248v1.274zm15.753 1.456h-1.4v-1.89h-1.554v-1.288h1.554v-1.428h-1.554v-1.05h-1.316q.378.168.602.616.225.448.224.924v.924q0 2.73-3.36 2.73-1.638 0-2.506-.672-.854-.686-.854-2.058v-.924q0-.49.224-.924.225-.448.602-.616h-1.498v-1.26h3.332v-1.302h1.4v1.302h3.332v1.022h1.372v-1.61h1.4zm-2.422.448q1.275 0 1.974.616.7.602.7 1.736t-.7 1.736q-.699.615-1.974.616h-4.886q-1.273 0-1.974-.616-.7-.602-.7-1.736t.7-1.736q.7-.615 1.974-.616zm-.182 3.444q.743 0 1.092-.294.364-.294.364-.798t-.364-.798q-.35-.294-1.092-.294h-4.522q-.741 0-1.106.294-.35.294-.35.798t.35.798q.365.294 1.106.294zm-2.24-8.078q0-.686-.462-1.148-.447-.462-1.498-.462t-1.512.462q-.448.462-.448 1.148v.966q0 .742.448 1.176.462.434 1.512.434t1.498-.434q.462-.434.462-1.176zm17.462 9.338h-1.4v-6.664h-1.638v6.664H120.2V27.556h1.386v4.704h1.638v-4.704h1.4zm-5.264-1.232h-5.642V28.55q0-.448.196-.644.195-.195.644-.196h4.452v1.232h-3.906v3.472h3.808v1.204h-3.808v4.13h4.256zm21.182-3.388h-5.194v4.62h-1.4v-4.62h-5.194v-1.26h11.788zm-1.246-2.1h-1.4l.42-4.144q.042-.392-.392-.392h-8.288v-1.26h9.45q.365 0 .546.21.197.21.168.56zm5.421 6.72q-1.274 0-1.974-.658-.7-.644-.7-1.834t.7-1.834q.7-.658 1.974-.658h4.886q1.275 0 1.974.658.7.644.7 1.834t-.7 1.834q-.699.658-1.974.658zm7.308-5.432h-1.4v-3.206h-2.226v2.786h-1.4v-5.39h-1.232q-.447 0-.644.182-.181.168-.336.504l-2.086 4.704h-1.554l2.212-5.026q.183-.392.336-.7t.364-.504q.225-.21.532-.308.309-.112.784-.112h3.024v2.576h2.226v-2.73h1.4zm-2.604 4.172q.743 0 1.092-.35.364-.336.364-.882t-.364-.882q-.35-.35-1.092-.35h-4.522q-.741 0-1.106.35-.35.336-.35.882t.35.882q.365.35 1.106.35zm14.743-.882q0 .546-.252.798t-.798.252h-6.048V27.64h1.4v4.158h4.298V27.64h1.4zm-1.4-.21v-4.802h-4.298v4.802zm4.746 2.352h-1.4V27.556h1.4zm12.379.042h-10.304v-3.346h8.764v-.84h-8.792v-1.26h2.086v-1.12h-2.87v-1.26h11.788v1.26h-2.87v1.12h2.058V37.3q0 .448-.196.644-.196.195-.644.196h-7.924v.854h8.904zm-2.562-12.74q1.274 0 1.974.546.7.533.7 1.554 0 1.022-.7 1.568-.7.532-1.974.532h-5.32q-1.274 0-1.974-.518-.7-.532-.7-1.582t.7-1.568q.7-.532 1.974-.532zm-.182 2.94q1.456 0 1.456-.84t-1.456-.84h-4.956q-1.456 0-1.456.84t1.456.84zm-.854 4.354v-1.12h-3.248v1.12z"/><path fill="#F5784B" d="M376 97c0 34.794-28.206 63-63 63s-63-28.206-63-63 28.206-63 63-63 63 28.206 63 63m-105.636 0c0 23.547 19.089 42.636 42.636 42.636S355.636 120.547 355.636 97 336.547 54.364 313 54.364 270.364 73.453 270.364 97"/><path fill="#FFC38F" d="M313 34a63.001 63.001 0 0 0-32.97 116.684 63 63 0 0 0 75.666-7.359 63 63 0 0 0 13.493-74.816l-18.163 9.21A42.635 42.635 0 1 1 313 54.363z"/><path fill="#61CDBB" d="M313 34a63 63 0 1 0 25.986 120.391l-8.4-18.551a42.65 42.65 0 0 1-18.468 3.787 42.64 42.64 0 0 1-40.599-52.482 42.63 42.63 0 0 1 23.096-28.613A42.6 42.6 0 0 1 313 54.364z"/><path fill="#00AEAE" d="M41.961 67.719q-.538 1.365-1.777 2.32-1.24.957-3.125 1.482l-.56-1.113q1.979-.54 3.07-1.517 1.095-.98 1.266-2.28h-3.73v-1.15h5.265q0 .597-.094 1.14h2.307v-1.935h1.41v6.702h-1.41v-1.265h-2.734v-1.14h2.734v-1.244zm.234 3.78q1.158 0 2.033.278.876.274 1.356.79.485.512.485 1.208 0 .7-.485 1.22-.48.517-1.36.795-.875.279-2.03.278-1.166 0-2.05-.278-.88-.279-1.36-.794a1.74 1.74 0 0 1-.481-1.221q0-.696.48-1.208.48-.516 1.36-.79.88-.279 2.052-.278m0 3.447q.758 0 1.31-.135.553-.135.849-.4a.84.84 0 0 0 .305-.636.83.83 0 0 0-.305-.638q-.296-.265-.849-.4a5.5 5.5 0 0 0-1.31-.13q-.773-.005-1.334.13-.556.136-.852.4a.82.82 0 0 0-.297.638.83.83 0 0 0 .297.641q.296.261.852.395.562.135 1.334.135m13.233-8.65v-1.63h1.41v7.057h-1.41v-1.885H53.4v-1.131h2.03v-1.289h-2.03v-1.122zm-2.087 4.767q-.97.165-1.98.22a65 65 0 0 1-2.823.054h-.849v-3.596h3.61v-1.288H47.67v-1.118h5.032v3.461h-3.618v1.41a43 43 0 0 0 2.352-.059 15 15 0 0 0 1.774-.224zm2.087 2.339h-6.437v-1.136h7.847v3.865h-1.41zm10.783-1.827v-6.918h1.414v6.918zm-4.471-2.81a4.7 4.7 0 0 1-1.127 1.58 4.8 4.8 0 0 1-1.724 1.01l-.731-1.09a4.5 4.5 0 0 0 1.54-.863q.64-.561.969-1.275t.332-1.476v-.144H58.53V65.37h6.316v1.136h-2.415v.144q0 .717.323 1.391.328.673.956 1.203.634.525 1.522.8l-.723 1.09a4.6 4.6 0 0 1-1.665-.92 4.5 4.5 0 0 1-1.104-1.45m4.47 4.48H59.8v-1.136h7.825v4.013H66.21z"/><path fill="#404040" d="M80.02 67.477v-2.775h1.203v6.635h-1.204v-2.864h-2.136v-.996zm-4.804 1.063a4.75 4.75 0 0 1-1.113 1.661 4.7 4.7 0 0 1-1.733 1.06l-.624-.943a4.4 4.4 0 0 0 1.5-.862q.645-.57.992-1.302.35-.731.35-1.512v-.27h-2.47v-.987h6.142v.987h-2.451v.274q0 .71.328 1.387.331.678.951 1.212.624.534 1.464.826l-.615.952a4.6 4.6 0 0 1-1.648-.974 4.5 4.5 0 0 1-1.073-1.509m6.007 7.394h-7.51v-4.072h7.51zm-1.181-3.111H74.92v2.132h5.122zm7.707-2.707q-1.194.004-2.114-.296-.915-.3-1.423-.862a1.9 1.9 0 0 1-.507-1.31q0-.76.507-1.325.507-.57 1.423-.88t2.114-.314q1.2.005 2.12.314.92.31 1.427.88.51.565.511 1.324 0 .75-.511 1.31-.507.562-1.428.863t-2.118.296m0-4.009q-.84 0-1.476.189-.637.184-.988.534-.345.346-.341.817-.005.462.341.804.35.34.988.525.637.184 1.477.184.843 0 1.476-.184.638-.184.988-.525.35-.342.35-.804a1.1 1.1 0 0 0-.35-.817q-.35-.35-.988-.534-.633-.189-1.477-.189m-5.18 5.023h10.41v.988h-2.635v3.96h-1.22v-3.96h-2.721v3.96h-1.24v-3.96H82.57zm16.04-2.37q-1.285-.004-2.196-.233-.91-.23-1.391-.669-.48-.44-.48-1.068 0-.623.48-1.064.48-.44 1.391-.669.915-.23 2.195-.229 1.28 0 2.191.229.911.23 1.387.669.48.44.48 1.064 0 .628-.48 1.068-.476.44-1.387.669-.907.229-2.19.233m0-3.025a8 8 0 0 0-1.531.126q-.63.124-.957.363-.322.233-.318.566-.004.52.713.79.724.269 2.092.274 1.378-.005 2.101-.274.723-.27.723-.79 0-.503-.732-.777-.727-.273-2.092-.278m5.193 3.64v.966h-2.792v1.014h1.477v2.662H95.87v1.019h6.944v.934H94.69v-2.82h6.612v-.893h-6.635v-.902h1.513v-1.014h-2.748v-.966zm-6.428 1.98h2.433v-1.014h-2.433zm41.801.355v2.002h4.637v1h-10.41v-1h4.579V71.71h-3.313v-3.618h6.68v-1.599h-6.702v-.983h7.891v3.551h-6.67v1.661h6.935v.988zm16.718-2.474h1.764v1.01h-1.764v5.818h-1.208V64.702h1.208zm-2.976-3.33q-.01 2.594-1.262 4.668-1.252 2.069-3.946 3.394l-.673-.934q4.27-2.128 4.655-6.132h-4.085v-.997zm13.898-1.204v2.815h1.647v.996h-1.647v3.017h-1.208v-6.828zm-5.549 4a4.6 4.6 0 0 1-1.113 1.652 4.8 4.8 0 0 1-1.751 1.055l-.615-.96a4.4 4.4 0 0 0 1.513-.845q.647-.555.992-1.28.345-.72.35-1.512v-.314h-2.505v-.979h6.164v.979h-2.456v.305q0 .723.323 1.378.328.656.943 1.163.62.503 1.468.772l-.575.943a4.7 4.7 0 0 1-1.656-.92 4.3 4.3 0 0 1-1.082-1.437m1.872 3.106q1.171 0 2.02.252.853.246 1.306.722.454.477.454 1.14 0 .67-.454 1.15-.453.48-1.306.731-.849.256-2.02.256-1.18 0-2.038-.255-.857-.252-1.32-.732a1.6 1.6 0 0 1-.458-1.15q0-.663.458-1.14.463-.476 1.32-.722.858-.252 2.038-.252m0 3.3a6 6 0 0 0 1.401-.14q.584-.139.888-.403a.81.81 0 0 0 .31-.642.8.8 0 0 0-.305-.629q-.305-.26-.884-.395a6 6 0 0 0-1.383-.135q-.83 0-1.423.135-.592.135-.907.395a.77.77 0 0 0-.305.629.8.8 0 0 0 .305.642q.31.264.894.404.587.138 1.409.139m14.15-6.621v1.297h4.588v.97h-10.37v-.97h4.583v-1.297h-3.2v-3.542h1.194v2.572h6.652v.97zm3.452 4.242h-1.688v2.226h1.796v.979h-8.3v-.979h1.786V72.73h-1.688v-.948h8.094zm-2.877 0h-2.339v2.226h2.339zm9.664-7.789q1.244 0 2.159.26.916.261 1.406.755.493.494.493 1.171 0 .668-.493 1.154-.495.485-1.41.745-.912.255-2.155.256-1.238 0-2.159-.256-.916-.26-1.414-.745a1.56 1.56 0 0 1-.494-1.154q0-.678.494-1.171.498-.494 1.414-.754.92-.26 2.159-.26m0 .956q-.875 0-1.508.144t-.974.422q-.337.274-.332.664-.005.377.332.647.34.27.974.417a7 7 0 0 0 1.508.144q.867 0 1.504-.144.637-.148.979-.417.34-.27.341-.647 0-.39-.341-.664-.342-.279-.979-.422a7 7 0 0 0-1.504-.144m-5.175 4.26h10.369v.974h-10.369zm1.243 1.993h7.86v3.785h-7.86zm6.689.961h-5.499v1.845h5.499z"/><path fill="#191818" d="M110.767 75.126a3.95 3.95 0 0 1-1.863-.44q-.84-.445-1.356-1.45-.516-1.01-.516-2.622.005-1.53.467-2.644.467-1.113 1.32-1.701.852-.588 1.997-.588.903 0 1.621.35t1.153.96q.436.612.53 1.37h-1.881a1.3 1.3 0 0 0-.493-.763q-.378-.279-.93-.279-.614 0-1.046.355-.426.35-.646 1.01-.216.656-.22 1.562h.081q.319-.606.951-.947.633-.346 1.406-.346.816 0 1.472.382a2.7 2.7 0 0 1 1.032 1.06q.373.677.373 1.526 0 .924-.435 1.656a3 3 0 0 1-1.217 1.14q-.786.41-1.8.409m-.031-1.504q.462 0 .834-.216.373-.219.584-.597.211-.377.211-.835 0-.453-.211-.826a1.53 1.53 0 0 0-.575-.588 1.6 1.6 0 0 0-.83-.215q-.458 0-.835.22a1.64 1.64 0 0 0-.817 1.418q0 .445.211.822.216.376.588.597.377.22.84.22m7.981 1.576q-1.149 0-1.98-.566-.83-.57-1.275-1.643-.44-1.077-.435-2.577 0-1.49.444-2.554.445-1.065 1.271-1.62.83-.557 1.975-.557 1.144 0 1.975.561.83.556 1.27 1.62.445 1.065.445 2.55 0 1.504-.445 2.581-.44 1.074-1.27 1.639-.83.566-1.975.566m0-1.59q.539 0 .929-.359.391-.36.602-1.072.215-.719.215-1.765 0-1.033-.215-1.741-.216-.71-.606-1.064a1.33 1.33 0 0 0-.925-.355q-.538 0-.934.36-.39.358-.601 1.072t-.211 1.75q0 1.038.211 1.751.215.71.606 1.069.395.354.929.354m4.915-6.078q0-.561.242-1.023.243-.467.696-.74.459-.275 1.078-.275.637 0 1.09.274.459.27.692.736.233.463.233 1.028v.485q0 .56-.238 1.024a1.75 1.75 0 0 1-.691.731q-.457.27-1.086.27-.633 0-1.091-.27a1.8 1.8 0 0 1-.691-.736 2.2 2.2 0 0 1-.234-1.019zm1.755 7.47h-1.167l6.321-9.193h1.167zm-.453-6.985q0 .378.17.633t.544.256q.382 0 .547-.251.166-.256.166-.638v-.485q0-.39-.161-.646-.162-.255-.552-.256-.373 0-.544.265-.17.265-.17.637zm3.416 4.776q0-.555.238-1.019.238-.466.691-.74.458-.279 1.082-.278.638 0 1.091.273.458.27.691.736.234.463.234 1.028v.485q0 .557-.238 1.024a1.8 1.8 0 0 1-.696.736q-.453.279-1.082.278-.633 0-1.086-.278a1.8 1.8 0 0 1-.692-.736 2.3 2.3 0 0 1-.233-1.024zm1.288.485q0 .373.171.633.175.255.552.256.377 0 .548-.256.17-.255.17-.633v-.485q0-.385-.166-.641-.162-.26-.552-.26-.377 0-.552.264a1.14 1.14 0 0 0-.171.637z"/></svg>