<svg width="460" height="610" viewBox="0 0 460 610" fill="none" xmlns="http://www.w3.org/2000/svg">
<rect width="460" height="240" rx="16" fill="white"/>
<rect x="16" y="15" width="428" height="210" rx="12" fill="#F4F6FC"/>
<rect x="46" y="92" width="368" height="1" fill="#EEEEEE"/>
<rect x="46" y="109" width="368" height="1" fill="#EEEEEE"/>
<rect x="46" y="126" width="368" height="1" fill="#EEEEEE"/>
<rect x="46" y="143" width="368" height="1" fill="#EEEEEE"/>
<rect x="46" y="160" width="368" height="1" fill="#EEEEEE"/>
<rect x="46" y="177" width="368" height="1" fill="#EEEEEE"/>
<rect x="46" y="194" width="368" height="1" fill="#EEEEEE"/>
<rect x="46" y="211" width="368" height="1" fill="#EEEEEE"/>
<path d="M85 158C85 155.791 86.7909 154 89 154H107C109.209 154 111 155.791 111 158V225H85V158Z" fill="url(#paint0_linear_266_1892)"/>
<path d="M129 175C129 172.791 130.791 171 133 171H151C153.209 171 155 172.791 155 175V225H129V175Z" fill="url(#paint1_linear_266_1892)"/>
<path d="M173 129C173 126.791 174.791 125 177 125H195C197.209 125 199 126.791 199 129V225H173V129Z" fill="url(#paint2_linear_266_1892)"/>
<path d="M217 158C217 155.791 218.791 154 221 154H239C241.209 154 243 155.791 243 158V225H217V158Z" fill="url(#paint3_linear_266_1892)"/>
<path d="M261 129C261 126.791 262.791 125 265 125H283C285.209 125 287 126.791 287 129V225H261V129Z" fill="url(#paint4_linear_266_1892)"/>
<path d="M305 129C305 126.791 306.791 125 309 125H327C329.209 125 331 126.791 331 129V225H305V129Z" fill="url(#paint5_linear_266_1892)"/>
<path d="M349 96C349 93.7909 350.791 92 353 92H371C373.209 92 375 93.7909 375 96V225H349V96Z" fill="url(#paint6_linear_266_1892)"/>
<path d="M55.002 50.774C55.8513 50.774 56.5093 50.9653 56.976 51.348C57.4427 51.7307 57.676 52.286 57.676 53.014C57.676 53.742 57.4427 54.2973 56.976 54.68C56.5093 55.0627 55.8513 55.254 55.002 55.254H49.682C48.8327 55.254 48.1747 55.0627 47.708 54.68C47.2413 54.2973 47.008 53.742 47.008 53.014C47.008 52.286 47.2413 51.7307 47.708 51.348C48.1747 50.9653 48.8327 50.774 49.682 50.774H55.002ZM57.55 47.61H56.038L54.078 45.02C53.938 44.8053 53.812 44.6513 53.7 44.558C53.588 44.4647 53.4107 44.418 53.168 44.418H51.516C51.2733 44.418 51.096 44.4647 50.984 44.558C50.872 44.6513 50.746 44.8053 50.606 45.02L48.646 47.61H47.134L49.458 44.418H47.33V43.158H51.642V41.842H53.042V43.158H57.354V44.418H55.226L57.55 47.61ZM58.236 49.92H46.448V48.66H51.642V46.546H53.042V48.66H58.236V49.92ZM54.82 53.994C55.3147 53.994 55.6787 53.9053 55.912 53.728C56.1547 53.5507 56.276 53.3127 56.276 53.014C56.276 52.7153 56.1547 52.4773 55.912 52.3C55.6787 52.1227 55.3147 52.034 54.82 52.034H49.864C49.3693 52.034 49.0007 52.1227 48.758 52.3C48.5247 52.4773 48.408 52.7153 48.408 53.014C48.408 53.3127 48.5247 53.5507 48.758 53.728C49.0007 53.9053 49.3693 53.994 49.864 53.994H54.82ZM72.9362 51.978H71.5362V42.556H72.9362V51.978ZM73.0202 55.212H63.2342V50.76H64.6342V53.952H73.0202V55.212ZM69.8002 46.826C69.8002 47.302 69.7116 47.7313 69.5342 48.114C69.3569 48.4873 69.1096 48.8093 68.7922 49.08C68.4749 49.3413 68.0876 49.5467 67.6302 49.696C67.1822 49.836 66.6876 49.906 66.1462 49.906C65.5956 49.906 65.0962 49.836 64.6482 49.696C64.2002 49.5467 63.8176 49.3413 63.5002 49.08C63.1829 48.8093 62.9356 48.4873 62.7582 48.114C62.5809 47.7313 62.4922 47.302 62.4922 46.826V45.552C62.4922 45.076 62.5809 44.6513 62.7582 44.278C62.9356 43.8953 63.1829 43.5733 63.5002 43.312C63.8176 43.0413 64.2002 42.836 64.6482 42.696C65.0962 42.5467 65.5956 42.472 66.1462 42.472C66.6876 42.472 67.1822 42.5467 67.6302 42.696C68.0876 42.836 68.4749 43.0413 68.7922 43.312C69.1096 43.5733 69.3569 43.8953 69.5342 44.278C69.7116 44.6513 69.8002 45.076 69.8002 45.552V46.826ZM68.4002 45.622C68.4002 45.0247 68.1902 44.5627 67.7702 44.236C67.3596 43.9 66.8182 43.732 66.1462 43.732C65.4742 43.732 64.9282 43.9 64.5082 44.236C64.0976 44.5627 63.8922 45.0247 63.8922 45.622V46.756C63.8922 47.3533 64.0976 47.82 64.5082 48.156C64.9282 48.4827 65.4742 48.646 66.1462 48.646C66.8182 48.646 67.3596 48.4827 67.7702 48.156C68.1902 47.82 68.4002 47.3533 68.4002 46.756V45.622ZM82.4037 49.458H74.7597V45.454H79.7577V43.942H74.7317V42.71H81.1577V45.608C81.1577 45.972 81.0737 46.238 80.9057 46.406C80.7377 46.574 80.4717 46.658 80.1077 46.658H76.1597V48.226H82.4037V49.458ZM85.2037 55.212H83.8037V51.824H75.4317V50.564H85.2037V55.212ZM85.2037 49.92H83.8037V47.582H81.7177V46.294H83.8037V44.964H81.7177V43.676H83.8037V42.556H85.2037V49.92ZM100.688 52.118H99.2879V48.436H97.7339V47.148H99.2879V45.58H97.7339V44.404H96.4179C96.6699 44.516 96.8706 44.7213 97.0199 45.02C97.1693 45.3187 97.2439 45.6267 97.2439 45.944V47.456C97.2439 49.276 96.1239 50.186 93.8839 50.186C92.7919 50.186 91.9566 49.962 91.3779 49.514C90.8086 49.0567 90.5239 48.3707 90.5239 47.456V45.944C90.5239 45.6173 90.5986 45.3093 90.7479 45.02C90.8973 44.7213 91.0979 44.516 91.3499 44.404H89.8519V43.144H93.1839V41.842H94.5839V43.144H97.9159V44.292H99.2879V42.556H100.688V52.118ZM95.8439 45.874C95.8439 45.4167 95.6899 45.034 95.3819 44.726C95.0833 44.418 94.5839 44.264 93.8839 44.264C93.1839 44.264 92.6799 44.418 92.3719 44.726C92.0733 45.034 91.9239 45.4167 91.9239 45.874V47.428C91.9239 47.9227 92.0733 48.3147 92.3719 48.604C92.6799 48.8933 93.1839 49.038 93.8839 49.038C94.5839 49.038 95.0833 48.8933 95.3819 48.604C95.6899 48.3147 95.8439 47.9227 95.8439 47.428V45.874ZM100.772 55.212H90.9859V51.04H92.3859V53.952H100.772V55.212ZM110.435 50.396H102.147V49.136H105.563V48.38C103.837 48.2213 102.973 47.4793 102.973 46.154V45.818C102.973 45.4913 103.048 45.1973 103.197 44.936C103.347 44.6747 103.552 44.474 103.813 44.334H102.259V43.074H105.563V41.842H106.963V43.074H110.309V44.334H108.755C109.026 44.4647 109.227 44.6653 109.357 44.936C109.488 45.1973 109.553 45.4913 109.553 45.818V46.154C109.553 47.4793 108.69 48.2213 106.963 48.38V49.136H110.435V50.396ZM110.113 51.236C110.963 51.236 111.621 51.3993 112.087 51.726C112.554 52.0527 112.787 52.552 112.787 53.224C112.787 53.896 112.554 54.3953 112.087 54.722C111.621 55.0487 110.963 55.212 110.113 55.212H105.227C104.378 55.212 103.72 55.0487 103.253 54.722C102.787 54.3953 102.553 53.896 102.553 53.224C102.553 52.552 102.787 52.0527 103.253 51.726C103.72 51.3993 104.378 51.236 105.227 51.236H110.113ZM112.535 50.774H111.135V42.556H112.535V45.608H114.187V46.896H112.535V50.774ZM109.931 53.952C110.902 53.952 111.387 53.7093 111.387 53.224C111.387 52.7387 110.902 52.496 109.931 52.496H105.409C104.439 52.496 103.953 52.7387 103.953 53.224C103.953 53.7093 104.439 53.952 105.409 53.952H109.931ZM108.153 45.65C108.153 45.454 108.116 45.272 108.041 45.104C107.976 44.936 107.869 44.7913 107.719 44.67C107.57 44.5393 107.374 44.4413 107.131 44.376C106.898 44.3013 106.609 44.264 106.263 44.264C105.918 44.264 105.624 44.3013 105.381 44.376C105.148 44.4413 104.957 44.5393 104.807 44.67C104.658 44.7913 104.546 44.936 104.471 45.104C104.406 45.272 104.373 45.454 104.373 45.65V45.874C104.373 46.3313 104.513 46.6767 104.793 46.91C105.083 47.1433 105.573 47.26 106.263 47.26C106.954 47.26 107.439 47.1433 107.719 46.91C108.009 46.6767 108.153 46.3313 108.153 45.874V45.65Z" fill="black"/>
<path d="M127.58 43.6851H129.53V55H127.486V45.6685H127.42L124.773 47.3591V45.4972L127.58 43.6851ZM135.814 55.1547C135.074 55.1547 134.403 55.0166 133.803 54.7403C133.206 54.4641 132.733 54.081 132.383 53.5912C132.033 53.1013 131.849 52.547 131.831 51.9282H133.809C133.831 52.2302 133.934 52.5028 134.118 52.7459C134.302 52.9853 134.541 53.1731 134.836 53.3094C135.134 53.442 135.46 53.5083 135.814 53.5083C136.23 53.5083 136.604 53.4162 136.936 53.232C137.267 53.0442 137.525 52.7864 137.709 52.4586C137.897 52.1271 137.991 51.7532 137.991 51.337C137.991 50.9098 137.893 50.5285 137.698 50.1934C137.506 49.8545 137.238 49.5912 136.891 49.4033C136.549 49.2155 136.162 49.1215 135.731 49.1215C134.84 49.1215 134.221 49.4438 133.875 50.0884H131.996L132.67 43.6851H139.355V45.3867H134.35L134.007 48.3923H134.107C134.335 48.1381 134.645 47.9319 135.035 47.7735C135.425 47.6151 135.849 47.5359 136.306 47.5359C136.998 47.5359 137.622 47.698 138.179 48.0221C138.735 48.3425 139.171 48.7882 139.488 49.3591C139.805 49.9263 139.963 50.5672 139.963 51.2818C139.963 52.0258 139.786 52.6924 139.433 53.2818C139.083 53.8711 138.593 54.3315 137.963 54.663C137.337 54.9908 136.621 55.1547 135.814 55.1547Z" fill="black"/>
<path d="M149.692 49.9496H147.782V50.6644H143.718V46.7383H147.782V47.4565H149.692V46.0787H150.617V51.2445H149.692V49.9496ZM144.637 49.9151H146.874V47.4807H144.637V49.9151ZM149.692 49.1899V48.2023H147.782V49.1899H149.692ZM147.686 51.4862C148.296 51.4862 148.822 51.5529 149.264 51.6865C149.708 51.8177 150.049 52.0087 150.286 52.2597C150.525 52.5106 150.645 52.811 150.645 53.1609C150.645 53.5085 150.525 53.8066 150.286 54.0552C150.049 54.3039 149.708 54.4926 149.264 54.6215C148.822 54.7505 148.296 54.8149 147.686 54.8149C147.073 54.8149 146.545 54.7505 146.101 54.6215C145.657 54.4926 145.316 54.3039 145.079 54.0552C144.844 53.8066 144.728 53.5085 144.73 53.1609C144.728 52.811 144.845 52.5106 145.082 52.2597C145.319 52.0087 145.66 51.8177 146.104 51.6865C146.549 51.5529 147.076 51.4862 147.686 51.4862ZM147.686 54.0932C148.109 54.0932 148.473 54.0564 148.777 53.9827C149.083 53.9091 149.318 53.802 149.481 53.6616C149.645 53.5212 149.727 53.3543 149.727 53.1609C149.727 52.9583 149.645 52.7857 149.481 52.643C149.32 52.5002 149.087 52.392 148.78 52.3184C148.477 52.2447 148.112 52.2067 147.686 52.2044C147.258 52.2067 146.89 52.2447 146.584 52.3184C146.28 52.392 146.048 52.5002 145.887 52.643C145.726 52.7857 145.646 52.9583 145.648 53.1609C145.646 53.3543 145.726 53.5212 145.887 53.6616C146.048 53.802 146.282 53.9091 146.588 53.9827C146.894 54.0564 147.26 54.0932 147.686 54.0932Z" fill="black"/>
<path d="M251.596 49.2106V48.4544H253.274V46.0856H254.199V52.4945H253.274V49.2106H251.596ZM249.583 49.3142C249.387 49.8046 249.1 50.2327 248.723 50.5988C248.348 50.9648 247.903 51.2399 247.39 51.424L246.91 50.6678C247.35 50.5205 247.734 50.3029 248.063 50.0152C248.395 49.7251 248.649 49.3936 248.827 49.0207C249.006 48.6455 249.096 48.2576 249.096 47.857V47.5117H247.197V46.7555H251.92V47.5117H250.035V47.857C250.035 48.2231 250.12 48.5799 250.291 48.9275C250.461 49.2751 250.705 49.5859 251.023 49.8598C251.34 50.1314 251.714 50.3398 252.145 50.4848L251.672 51.2238C251.188 51.0557 250.767 50.8059 250.408 50.4744C250.051 50.143 249.776 49.7562 249.583 49.3142ZM249.445 51.9247V53.8895H254.431V54.6492H248.519V51.9247H249.445ZM262.542 52.5497H261.617V49.5767H259.21V48.8343H261.617V47.9157H259.21V47.1768H261.617V46.0856H262.542V52.5497ZM260.298 50.9855C259.653 51.1052 259.029 51.1869 258.426 51.2307C257.825 51.2744 257.161 51.2974 256.434 51.2997H255.76V46.6899H256.682V50.5262C257.308 50.5216 257.903 50.4975 258.467 50.4537C259.031 50.4077 259.609 50.3306 260.201 50.2224L260.298 50.9855ZM257.777 51.9869V53.8895H262.77V54.6492H256.841V51.9869H257.777ZM272.356 49.549V46.0787H273.237V54.8287H272.356V50.3052H271.224V54.3798H270.367V46.2583H271.224V49.549H272.356ZM266.956 51.942C267.529 51.9374 268.029 51.9178 268.458 51.8833C268.888 51.8488 269.325 51.7889 269.77 51.7037L269.846 52.4703C269.355 52.5716 268.873 52.6384 268.399 52.6706C267.925 52.7028 267.327 52.7212 266.607 52.7258H266.027V47.1319H269.3V47.8847H266.956V51.942ZM280.391 46.0787H281.324V54.846H280.391V46.0787ZM274.559 46.8073H275.485V49.0552H277.846V46.8073H278.762V52.7535H274.559V46.8073ZM275.485 49.7907V51.9869H277.846V49.7907H275.485ZM290.889 46.0787H291.818V50.7749H290.889V46.0787ZM287.067 46.4827C287.509 46.4804 287.906 46.5656 288.258 46.7383C288.612 46.9086 288.89 47.1492 289.09 47.4599C289.29 47.7684 289.391 48.1206 289.391 48.5166C289.391 48.9079 289.29 49.2578 289.09 49.5663C288.89 49.8725 288.612 50.1107 288.258 50.2811C287.906 50.4514 287.509 50.5366 287.067 50.5366C286.622 50.5366 286.223 50.4514 285.868 50.2811C285.516 50.1107 285.239 49.8725 285.036 49.5663C284.836 49.2578 284.736 48.9079 284.736 48.5166C284.736 48.1206 284.836 47.7684 285.036 47.4599C285.239 47.1492 285.516 46.9086 285.868 46.7383C286.223 46.5656 286.622 46.4804 287.067 46.4827ZM287.067 47.2631C286.79 47.2608 286.544 47.3126 286.328 47.4185C286.111 47.5221 285.942 47.6694 285.82 47.8605C285.7 48.0516 285.642 48.2703 285.644 48.5166C285.642 48.7629 285.7 48.9816 285.82 49.1727C285.942 49.3614 286.111 49.5087 286.328 49.6146C286.544 49.7205 286.79 49.7735 287.067 49.7735C287.338 49.7735 287.581 49.7205 287.795 49.6146C288.012 49.5087 288.18 49.3614 288.299 49.1727C288.421 48.9816 288.482 48.7629 288.482 48.5166C288.482 48.2703 288.421 48.0516 288.299 47.8605C288.18 47.6694 288.012 47.5221 287.795 47.4185C287.581 47.3126 287.338 47.2608 287.067 47.2631ZM286.089 51.1996H286.998V52.1802H290.896V51.1996H291.818V54.7182H286.089V51.1996ZM286.998 52.9123V53.962H290.896V52.9123H286.998ZM299.719 49.5698H301.121V50.3605H299.719V54.8287H298.79V46.0787H299.719V49.5698ZM295.934 48.3059C295.932 48.817 296.023 49.3223 296.207 49.8218C296.393 50.3214 296.653 50.7691 296.987 51.1651C297.323 51.561 297.704 51.8637 298.13 52.0732L297.56 52.8156C297.089 52.5716 296.673 52.2182 296.314 51.7555C295.955 51.2928 295.677 50.7657 295.482 50.174C295.284 50.8048 294.998 51.3665 294.625 51.8591C294.252 52.3517 293.821 52.7258 293.33 52.9814L292.754 52.2355C293.194 52.0237 293.584 51.7118 293.924 51.2997C294.267 50.8854 294.533 50.4157 294.722 49.8909C294.913 49.366 295.01 48.8377 295.012 48.3059V46.8073H295.934V48.3059ZM305.226 49.2003C304.568 49.198 304.005 49.1381 303.538 49.0207C303.07 48.9033 302.714 48.7318 302.467 48.5062C302.221 48.2806 302.098 48.0067 302.098 47.6844C302.098 47.3644 302.221 47.0916 302.467 46.866C302.714 46.6404 303.07 46.4689 303.538 46.3515C304.007 46.2341 304.57 46.1754 305.226 46.1754C305.882 46.1754 306.444 46.2341 306.911 46.3515C307.379 46.4689 307.734 46.6404 307.978 46.866C308.225 47.0916 308.348 47.3644 308.348 47.6844C308.348 48.0067 308.225 48.2806 307.978 48.5062C307.734 48.7318 307.379 48.9033 306.911 49.0207C306.446 49.1381 305.885 49.198 305.226 49.2003ZM305.226 46.8729C304.766 46.8729 304.373 46.9052 304.049 46.9696C303.726 47.0341 303.481 47.1273 303.313 47.2493C303.148 47.369 303.066 47.514 303.068 47.6844C303.066 47.9514 303.249 48.154 303.617 48.2921C303.988 48.4302 304.524 48.5005 305.226 48.5028C305.933 48.5005 306.472 48.4302 306.842 48.2921C307.213 48.154 307.398 47.9514 307.398 47.6844C307.398 47.4266 307.211 47.2274 306.835 47.087C306.462 46.9466 305.926 46.8752 305.226 46.8729ZM309.221 49.6733V50.4157H307.074V51.1961H308.21V53.2438H303.12V54.0276H308.462V54.7459H302.212V52.5773H307.298V51.8902H302.194V51.1961H303.358V50.4157H301.245V49.6733H309.221ZM304.277 51.1961H306.148V50.4157H304.277V51.1961ZM331.757 49.0104C332.282 48.9528 332.762 48.8412 333.197 48.6754C333.632 48.5097 333.982 48.3048 334.247 48.0608C334.514 47.8168 334.666 47.5543 334.703 47.2735H332.068V46.5104H338.598V47.2735H335.949C335.984 47.552 336.133 47.8133 336.398 48.0573C336.663 48.3013 337.014 48.5074 337.451 48.6754C337.889 48.8412 338.374 48.9528 338.908 49.0104L338.574 49.739C338.067 49.6814 337.596 49.5744 337.161 49.4178C336.726 49.2613 336.35 49.0622 336.032 48.8204C335.714 48.5787 335.477 48.3048 335.321 47.9986C335.164 48.3048 334.928 48.5787 334.613 48.8204C334.298 49.0622 333.922 49.2613 333.487 49.4178C333.054 49.5744 332.585 49.6814 332.078 49.739L331.757 49.0104ZM331.339 50.9544V50.1982H339.316V50.9544H331.339ZM335.317 51.6278C335.943 51.6278 336.482 51.6911 336.933 51.8177C337.387 51.942 337.734 52.1238 337.976 52.3633C338.218 52.6027 338.34 52.8904 338.342 53.2265C338.34 53.5626 338.218 53.8492 337.976 54.0863C337.737 54.3257 337.39 54.5064 336.937 54.6285C336.486 54.7528 335.946 54.8149 335.317 54.8149C334.687 54.8149 334.143 54.7528 333.687 54.6285C333.234 54.5064 332.886 54.3257 332.645 54.0863C332.403 53.8492 332.282 53.5626 332.282 53.2265C332.282 52.8904 332.403 52.6027 332.645 52.3633C332.886 52.1238 333.234 51.942 333.687 51.8177C334.143 51.6911 334.687 51.6278 335.317 51.6278ZM335.317 54.0829C335.983 54.0829 336.498 54.0092 336.864 53.8619C337.23 53.7145 337.414 53.5028 337.417 53.2265C337.414 52.948 337.23 52.7339 336.864 52.5843C336.498 52.4346 335.983 52.3575 335.317 52.3529C334.645 52.3575 334.127 52.4346 333.763 52.5843C333.402 52.7339 333.222 52.948 333.225 53.2265C333.222 53.5028 333.402 53.7145 333.763 53.8619C334.127 54.0092 334.645 54.0829 335.317 54.0829ZM346.498 49.5663H347.855V50.3432H346.498V54.8184H345.569V46.0787H346.498V49.5663ZM344.209 47.0041C344.204 48.3347 343.881 49.5318 343.239 50.5953C342.596 51.6565 341.585 52.5267 340.203 53.2058L339.685 52.4876C341.875 51.3964 343.068 49.8241 343.266 47.7707H340.124V47.0041H344.209Z" fill="black"/>
<path d="M313.642 46.9282H314.861V54H313.583V48.1678H313.542L311.888 49.2244V48.0608L313.642 46.9282ZM317.863 54H316.54L319.61 48.0435V47.9917H316.053V46.9282H320.929V48.0193L317.863 54ZM321.835 48.2541C321.835 47.9756 321.893 47.7212 322.011 47.491C322.13 47.2585 322.303 47.0744 322.529 46.9385C322.757 46.8027 323.024 46.7348 323.33 46.7348C323.645 46.7348 323.914 46.8027 324.138 46.9385C324.363 47.0744 324.534 47.2574 324.649 47.4876C324.764 47.7178 324.821 47.9733 324.821 48.2541V48.6271C324.821 48.9056 324.763 49.16 324.645 49.3902C324.53 49.6204 324.36 49.8034 324.134 49.9392C323.909 50.075 323.64 50.143 323.33 50.143C323.017 50.143 322.747 50.075 322.522 49.9392C322.296 49.8034 322.125 49.6204 322.007 49.3902C321.892 49.16 321.835 48.9056 321.835 48.6271V48.2541ZM323.088 54H322.228L327.09 46.9282H327.95L323.088 54ZM322.743 48.6271C322.743 48.8343 322.79 49.0081 322.884 49.1485C322.979 49.2889 323.127 49.3591 323.33 49.3591C323.535 49.3591 323.683 49.2901 323.775 49.1519C323.87 49.0115 323.917 48.8366 323.917 48.6271V48.2541C323.917 48.0424 323.872 47.8674 323.782 47.7293C323.692 47.5889 323.541 47.5186 323.33 47.5186C323.129 47.5186 322.981 47.59 322.884 47.7327C322.79 47.8755 322.743 48.0493 322.743 48.2541V48.6271ZM325.429 52.3011C325.429 52.0226 325.488 51.7682 325.605 51.538C325.723 51.3055 325.894 51.1213 326.12 50.9855C326.345 50.8497 326.614 50.7818 326.924 50.7818C327.237 50.7818 327.507 50.8497 327.732 50.9855C327.958 51.1213 328.128 51.3043 328.243 51.5345C328.358 51.7647 328.416 52.0203 328.416 52.3011V52.674C328.416 52.9526 328.357 53.2081 328.24 53.4406C328.123 53.6708 327.951 53.8538 327.725 53.9896C327.5 54.1255 327.233 54.1934 326.924 54.1934C326.611 54.1934 326.342 54.1255 326.116 53.9896C325.891 53.8538 325.719 53.6708 325.602 53.4406C325.487 53.2081 325.429 52.9526 325.429 52.674V52.3011ZM326.33 52.674C326.33 52.8812 326.378 53.055 326.472 53.1954C326.566 53.3359 326.717 53.4061 326.924 53.4061C327.129 53.4061 327.278 53.3359 327.37 53.1954C327.464 53.055 327.511 52.8812 327.511 52.674V52.3011C327.511 52.0893 327.465 51.9144 327.373 51.7762C327.283 51.6358 327.134 51.5656 326.924 51.5656C326.722 51.5656 326.572 51.637 326.475 51.7797C326.379 51.9201 326.33 52.0939 326.33 52.3011V52.674Z" fill="#00AEAE"/>
<path d="M366.524 54.846V46.0787H367.449V54.846H366.524ZM363.602 52.2838C364.479 52.2378 365.27 52.1641 365.974 52.0628L366.047 52.7396C365.471 52.8478 364.873 52.9296 364.251 52.9848C363.632 53.0401 363.053 53.0757 362.515 53.0919C361.978 53.108 361.357 53.1195 360.65 53.1264L360.374 53.1298L360.26 52.3564C361.215 52.3564 362.023 52.346 362.684 52.3253V50.9717H360.909V46.8453H365.457V47.5981H361.845V48.5338H365.28V49.2555H361.845V50.2327H365.495V50.9717H363.602V52.2838ZM375.374 49.5698H376.776V50.3605H375.374V54.8287H374.445V46.0787H375.374V49.5698ZM371.589 48.3059C371.587 48.817 371.678 49.3223 371.862 49.8218C372.048 50.3214 372.309 50.7691 372.642 51.1651C372.978 51.561 373.359 51.8637 373.785 52.0732L373.216 52.8156C372.744 52.5716 372.328 52.2182 371.969 51.7555C371.61 51.2928 371.332 50.7657 371.137 50.174C370.939 50.8048 370.653 51.3665 370.28 51.8591C369.908 52.3517 369.476 52.7258 368.986 52.9814L368.409 52.2355C368.849 52.0237 369.239 51.7118 369.579 51.2997C369.923 50.8854 370.188 50.4157 370.377 49.8909C370.568 49.366 370.665 48.8377 370.667 48.3059V46.8073H371.589V48.3059ZM380.881 49.2003C380.223 49.198 379.66 49.1381 379.193 49.0207C378.725 48.9033 378.369 48.7318 378.122 48.5062C377.876 48.2806 377.753 48.0067 377.753 47.6844C377.753 47.3644 377.876 47.0916 378.122 46.866C378.369 46.6404 378.725 46.4689 379.193 46.3515C379.662 46.2341 380.225 46.1754 380.881 46.1754C381.537 46.1754 382.099 46.2341 382.566 46.3515C383.034 46.4689 383.389 46.6404 383.633 46.866C383.88 47.0916 384.003 47.3644 384.003 47.6844C384.003 48.0067 383.88 48.2806 383.633 48.5062C383.389 48.7318 383.034 48.9033 382.566 49.0207C382.101 49.1381 381.54 49.198 380.881 49.2003ZM380.881 46.8729C380.421 46.8729 380.028 46.9052 379.704 46.9696C379.382 47.0341 379.136 47.1273 378.968 47.2493C378.803 47.369 378.721 47.514 378.723 47.6844C378.721 47.9514 378.904 48.154 379.272 48.2921C379.643 48.4302 380.179 48.5005 380.881 48.5028C381.588 48.5005 382.127 48.4302 382.497 48.2921C382.868 48.154 383.053 47.9514 383.053 47.6844C383.053 47.4266 382.866 47.2274 382.49 47.087C382.118 46.9466 381.581 46.8752 380.881 46.8729ZM384.876 49.6733V50.4157H382.729V51.1961H383.865V53.2438H378.775V54.0276H384.117V54.7459H377.867V52.5773H382.953V51.8902H377.85V51.1961H379.013V50.4157H376.9V49.6733H384.876ZM379.932 51.1961H381.803V50.4157H379.932V51.1961ZM403.757 49.0104C404.282 48.9528 404.762 48.8412 405.197 48.6754C405.632 48.5097 405.982 48.3048 406.247 48.0608C406.514 47.8168 406.666 47.5543 406.703 47.2735H404.068V46.5104H410.598V47.2735H407.949C407.984 47.552 408.133 47.8133 408.398 48.0573C408.663 48.3013 409.014 48.5074 409.451 48.6754C409.889 48.8412 410.374 48.9528 410.908 49.0104L410.574 49.739C410.067 49.6814 409.596 49.5744 409.161 49.4178C408.726 49.2613 408.35 49.0622 408.032 48.8204C407.714 48.5787 407.477 48.3048 407.321 47.9986C407.164 48.3048 406.928 48.5787 406.613 48.8204C406.298 49.0622 405.922 49.2613 405.487 49.4178C405.054 49.5744 404.585 49.6814 404.078 49.739L403.757 49.0104ZM403.339 50.9544V50.1982H411.316V50.9544H403.339ZM407.317 51.6278C407.943 51.6278 408.482 51.6911 408.933 51.8177C409.387 51.942 409.734 52.1238 409.976 52.3633C410.218 52.6027 410.34 52.8904 410.342 53.2265C410.34 53.5626 410.218 53.8492 409.976 54.0863C409.737 54.3257 409.39 54.5064 408.937 54.6285C408.486 54.7528 407.946 54.8149 407.317 54.8149C406.687 54.8149 406.143 54.7528 405.687 54.6285C405.234 54.5064 404.886 54.3257 404.645 54.0863C404.403 53.8492 404.282 53.5626 404.282 53.2265C404.282 52.8904 404.403 52.6027 404.645 52.3633C404.886 52.1238 405.234 51.942 405.687 51.8177C406.143 51.6911 406.687 51.6278 407.317 51.6278ZM407.317 54.0829C407.983 54.0829 408.498 54.0092 408.864 53.8619C409.23 53.7145 409.414 53.5028 409.417 53.2265C409.414 52.948 409.23 52.7339 408.864 52.5843C408.498 52.4346 407.983 52.3575 407.317 52.3529C406.645 52.3575 406.127 52.4346 405.763 52.5843C405.402 52.7339 405.222 52.948 405.225 53.2265C405.222 53.5028 405.402 53.7145 405.763 53.8619C406.127 54.0092 406.645 54.0829 407.317 54.0829ZM418.498 49.5663H419.855V50.3432H418.498V54.8184H417.569V46.0787H418.498V49.5663ZM416.209 47.0041C416.204 48.3347 415.881 49.5318 415.239 50.5953C414.596 51.6565 413.585 52.5267 412.203 53.2058L411.685 52.4876C413.875 51.3964 415.068 49.8241 415.266 47.7707H412.124V47.0041H416.209Z" fill="black"/>
<path d="M390.212 54.0967C389.694 54.0967 389.23 54.0115 388.82 53.8412C388.413 53.6685 388.095 53.4314 387.867 53.1298C387.639 52.826 387.527 52.4841 387.529 52.1043C387.527 51.8119 387.592 51.5391 387.726 51.2859C387.859 51.0327 388.041 50.8232 388.271 50.6575C388.504 50.4917 388.761 50.387 389.041 50.3432V50.2983C388.797 50.2477 388.581 50.1476 388.392 49.9979C388.203 49.846 388.056 49.6607 387.95 49.442C387.847 49.221 387.795 48.9827 387.795 48.7272C387.795 48.3681 387.898 48.0447 388.106 47.7569C388.315 47.4669 388.604 47.2401 388.972 47.0767C389.341 46.9132 389.754 46.8315 390.212 46.8315C390.67 46.8315 391.082 46.9132 391.448 47.0767C391.817 47.2401 392.105 47.4669 392.315 47.7569C392.524 48.0447 392.629 48.3681 392.629 48.7272C392.629 48.9827 392.575 49.221 392.467 49.442C392.361 49.6607 392.212 49.846 392.021 49.9979C391.833 50.1476 391.619 50.2477 391.379 50.2983V50.3432C391.658 50.387 391.912 50.4917 392.142 50.6575C392.375 50.8232 392.559 51.0327 392.695 51.2859C392.831 51.5391 392.898 51.8119 392.898 52.1043C392.898 52.4841 392.783 52.826 392.553 53.1298C392.323 53.4314 392.003 53.6685 391.593 53.8412C391.186 54.0115 390.725 54.0967 390.212 54.0967ZM390.212 49.8874C390.438 49.8874 390.639 49.8437 390.816 49.7562C390.994 49.6687 391.133 49.5467 391.234 49.3902C391.335 49.2314 391.386 49.0506 391.386 48.8481C391.386 48.6478 391.337 48.4705 391.238 48.3163C391.139 48.1621 390.999 48.0424 390.82 47.9572C390.642 47.8697 390.44 47.826 390.212 47.826C389.979 47.826 389.775 47.8697 389.597 47.9572C389.42 48.0424 389.282 48.1621 389.183 48.3163C389.086 48.4705 389.038 48.6478 389.038 48.8481C389.038 49.0506 389.087 49.2314 389.186 49.3902C389.288 49.5467 389.427 49.6687 389.604 49.7562C389.784 49.8437 389.986 49.8874 390.212 49.8874ZM390.212 53.116C390.486 53.116 390.727 53.07 390.934 52.9779C391.143 52.8835 391.304 52.7535 391.417 52.5877C391.53 52.4197 391.586 52.2286 391.586 52.0145C391.586 51.7935 391.526 51.5944 391.407 51.4171C391.289 51.2399 391.126 51.1017 390.916 51.0028C390.707 50.9015 390.472 50.8508 390.212 50.8508C389.95 50.8508 389.714 50.9015 389.504 51.0028C389.295 51.1017 389.131 51.2399 389.014 51.4171C388.896 51.5944 388.839 51.7935 388.841 52.0145C388.839 52.2286 388.893 52.4197 389.003 52.5877C389.116 52.7535 389.276 52.8835 389.483 52.9779C389.693 53.07 389.936 53.116 390.212 53.116ZM393.835 48.2541C393.835 47.9756 393.893 47.7212 394.011 47.491C394.13 47.2585 394.303 47.0744 394.529 46.9385C394.757 46.8027 395.024 46.7348 395.33 46.7348C395.645 46.7348 395.914 46.8027 396.138 46.9385C396.363 47.0744 396.534 47.2574 396.649 47.4876C396.764 47.7178 396.821 47.9733 396.821 48.2541V48.6271C396.821 48.9056 396.763 49.16 396.645 49.3902C396.53 49.6204 396.36 49.8034 396.134 49.9392C395.909 50.075 395.64 50.143 395.33 50.143C395.017 50.143 394.747 50.075 394.522 49.9392C394.296 49.8034 394.125 49.6204 394.007 49.3902C393.892 49.16 393.835 48.9056 393.835 48.6271V48.2541ZM395.088 54H394.228L399.09 46.9282H399.95L395.088 54ZM394.743 48.6271C394.743 48.8343 394.79 49.0081 394.884 49.1485C394.979 49.2889 395.127 49.3591 395.33 49.3591C395.535 49.3591 395.683 49.2901 395.775 49.1519C395.87 49.0115 395.917 48.8366 395.917 48.6271V48.2541C395.917 48.0424 395.872 47.8674 395.782 47.7293C395.692 47.5889 395.541 47.5186 395.33 47.5186C395.129 47.5186 394.981 47.59 394.884 47.7327C394.79 47.8755 394.743 48.0493 394.743 48.2541V48.6271ZM397.429 52.3011C397.429 52.0226 397.488 51.7682 397.605 51.538C397.723 51.3055 397.894 51.1213 398.12 50.9855C398.345 50.8497 398.614 50.7818 398.924 50.7818C399.237 50.7818 399.507 50.8497 399.732 50.9855C399.958 51.1213 400.128 51.3043 400.243 51.5345C400.358 51.7647 400.416 52.0203 400.416 52.3011V52.674C400.416 52.9526 400.357 53.2081 400.24 53.4406C400.123 53.6708 399.951 53.8538 399.725 53.9896C399.5 54.1255 399.233 54.1934 398.924 54.1934C398.611 54.1934 398.342 54.1255 398.116 53.9896C397.891 53.8538 397.719 53.6708 397.602 53.4406C397.487 53.2081 397.429 52.9526 397.429 52.674V52.3011ZM398.33 52.674C398.33 52.8812 398.378 53.055 398.472 53.1954C398.566 53.3359 398.717 53.4061 398.924 53.4061C399.129 53.4061 399.278 53.3359 399.37 53.1954C399.464 53.055 399.511 52.8812 399.511 52.674V52.3011C399.511 52.0893 399.465 51.9144 399.373 51.7762C399.283 51.6358 399.134 51.5656 398.924 51.5656C398.722 51.5656 398.572 51.637 398.475 51.7797C398.379 51.9201 398.33 52.0939 398.33 52.3011V52.674Z" fill="#00AEAE"/>
<rect y="250" width="460" height="240" rx="16" fill="white"/>
<rect x="20" y="270" width="420" height="200" rx="12" fill="#F4F6FC"/>
<path d="M68.236 316.592H63.042V321.212H61.642V316.592H56.448V315.332H68.236V316.592ZM66.99 314.492H65.59L66.01 310.348C66.038 310.087 65.9073 309.956 65.618 309.956H57.33V308.696H66.78C67.0227 308.696 67.2047 308.766 67.326 308.906C67.4567 309.046 67.5127 309.233 67.494 309.466L66.99 314.492ZM72.4115 321.212C71.5622 321.212 70.9042 320.993 70.4375 320.554C69.9708 320.125 69.7375 319.513 69.7375 318.72C69.7375 317.927 69.9708 317.315 70.4375 316.886C70.9042 316.447 71.5622 316.228 72.4115 316.228H77.2975C78.1468 316.228 78.8048 316.447 79.2715 316.886C79.7382 317.315 79.9715 317.927 79.9715 318.72C79.9715 319.513 79.7382 320.125 79.2715 320.554C78.8048 320.993 78.1468 321.212 77.2975 321.212H72.4115ZM79.7195 315.78H78.3195V312.574H76.0935V315.36H74.6935V309.97H73.4615C73.1628 309.97 72.9482 310.031 72.8175 310.152C72.6962 310.264 72.5842 310.432 72.4815 310.656L70.3955 315.36H68.8415L71.0535 310.334C71.1748 310.073 71.2868 309.839 71.3895 309.634C71.4922 309.429 71.6135 309.261 71.7535 309.13C71.9028 308.99 72.0802 308.887 72.2855 308.822C72.4908 308.747 72.7522 308.71 73.0695 308.71H76.0935V311.286H78.3195V308.556H79.7195V315.78ZM77.1155 319.952C77.6102 319.952 77.9742 319.835 78.2075 319.602C78.4502 319.378 78.5715 319.084 78.5715 318.72C78.5715 318.356 78.4502 318.062 78.2075 317.838C77.9742 317.605 77.6102 317.488 77.1155 317.488H72.5935C72.0988 317.488 71.7302 317.605 71.4875 317.838C71.2542 318.062 71.1375 318.356 71.1375 318.72C71.1375 319.084 71.2542 319.378 71.4875 319.602C71.7302 319.835 72.0988 319.952 72.5935 319.952H77.1155ZM88.711 312.098C88.5337 312.406 88.277 312.667 87.941 312.882C87.6143 313.097 87.2223 313.26 86.765 313.372C86.3077 313.484 85.8037 313.54 85.253 313.54C84.7023 313.54 84.1937 313.484 83.727 313.372C83.2697 313.26 82.8777 313.097 82.551 312.882C82.2243 312.667 81.9677 312.406 81.781 312.098C81.6037 311.781 81.515 311.417 81.515 311.006C81.515 310.605 81.6037 310.245 81.781 309.928C81.9677 309.611 82.2243 309.345 82.551 309.13C82.8777 308.915 83.2697 308.752 83.727 308.64C84.1937 308.528 84.7023 308.472 85.253 308.472C85.8037 308.472 86.3077 308.528 86.765 308.64C87.2223 308.752 87.6143 308.915 87.941 309.13C88.277 309.345 88.5337 309.611 88.711 309.928C88.8977 310.245 88.991 310.605 88.991 311.006C88.991 311.417 88.8977 311.781 88.711 312.098ZM91.847 318.888H90.447V317.558H87.325V316.326H90.447V308.556H91.847V318.888ZM91.931 321.212H81.865V317.712H83.265V319.952H91.931V321.212ZM89.537 315.43H85.729V317.642H84.329V315.43H81.179V314.17H89.537V315.43ZM86.933 311.986C87.3717 311.781 87.591 311.454 87.591 311.006C87.591 310.558 87.3717 310.236 86.933 310.04C86.5037 309.835 85.9437 309.732 85.253 309.732C84.5623 309.732 83.9977 309.835 83.559 310.04C83.1297 310.236 82.915 310.558 82.915 311.006C82.915 311.454 83.1297 311.781 83.559 311.986C83.9977 312.182 84.5623 312.28 85.253 312.28C85.9437 312.28 86.5037 312.182 86.933 311.986Z" fill="black"/>
<path d="M63.3595 348.248H65.0159V349.253H63.3595V352.131H62.1519V345.711H63.3595V348.248ZM61.1958 350.851C60.295 351.031 59.4107 351.158 58.5428 351.233C57.675 351.308 56.7831 351.346 55.8674 351.349H54.9382V346.272H56.1502V350.348C57.8231 350.333 59.4556 350.169 61.0477 349.855L61.1958 350.851ZM63.3595 356.925H56.0739V352.723H63.3595V356.925ZM62.1834 353.666H57.25V355.96H62.1834V353.666ZM74.748 352.418H73.5449V349.011H71.1478V348.019H73.5449V345.702H74.748V352.418ZM68.7328 349.455C68.4844 350.113 68.1148 350.687 67.624 351.174C67.1362 351.659 66.5512 352.024 65.8688 352.27L65.2224 351.3C65.818 351.097 66.3312 350.803 66.7621 350.42C67.1961 350.034 67.5268 349.587 67.7542 349.078C67.9846 348.569 68.1013 348.031 68.1043 347.462V346.335H69.3074V347.413C69.3044 347.939 69.4121 348.441 69.6306 348.916C69.852 349.392 70.1692 349.81 70.5822 350.169C70.9982 350.525 71.489 350.796 72.0546 350.981L71.3992 351.924C70.7768 351.7 70.2381 351.376 69.7832 350.954C69.3313 350.529 68.9812 350.03 68.7328 349.455ZM70.9369 352.732C71.7299 352.732 72.4137 352.819 72.9883 352.992C73.5659 353.163 74.0088 353.411 74.317 353.738C74.6283 354.064 74.7839 354.454 74.7839 354.909C74.7839 355.361 74.6283 355.749 74.317 356.072C74.0088 356.395 73.5659 356.64 72.9883 356.808C72.4137 356.976 71.7299 357.059 70.9369 357.059C70.1408 357.059 69.454 356.976 68.8764 356.808C68.2989 356.64 67.8559 356.395 67.5477 356.072C67.2425 355.749 67.0913 355.361 67.0943 354.909C67.0913 354.454 67.2439 354.064 67.5522 353.738C67.8604 353.411 68.3033 353.163 68.8809 352.992C69.4585 352.819 70.1438 352.732 70.9369 352.732ZM70.9369 356.108C71.4875 356.108 71.9618 356.061 72.3599 355.969C72.7579 355.873 73.0616 355.735 73.2711 355.556C73.4836 355.376 73.5898 355.161 73.5898 354.909C73.5898 354.649 73.4836 354.427 73.2711 354.245C73.0616 354.059 72.7579 353.919 72.3599 353.823C71.9648 353.727 71.4905 353.679 70.9369 353.679C70.3832 353.679 69.9074 353.727 69.5094 353.823C69.1114 353.919 68.8076 354.059 68.5981 354.245C68.3886 354.427 68.2854 354.649 68.2884 354.909C68.2854 355.161 68.3886 355.376 68.5981 355.556C68.8076 355.735 69.1114 355.873 69.5094 355.969C69.9074 356.061 70.3832 356.108 70.9369 356.108ZM87.1068 345.702H88.3188V357.1H87.1068V345.702ZM79.5249 346.65H80.728V349.572H83.7984V346.65H84.988V354.379H79.5249V346.65ZM80.728 350.528V353.383H83.7984V350.528H80.728ZM94.9176 349.76C94.0617 349.757 93.33 349.68 92.7225 349.527C92.115 349.374 91.6511 349.151 91.3309 348.858C91.0107 348.565 90.8506 348.209 90.8506 347.79C90.8506 347.374 91.0107 347.019 91.3309 346.726C91.6511 346.433 92.115 346.21 92.7225 346.057C93.333 345.904 94.0647 345.828 94.9176 345.828C95.7705 345.828 96.5007 345.904 97.1082 346.057C97.7157 346.21 98.1781 346.433 98.4953 346.726C98.8155 347.019 98.9756 347.374 98.9756 347.79C98.9756 348.209 98.8155 348.565 98.4953 348.858C98.1781 349.151 97.7157 349.374 97.1082 349.527C96.5037 349.68 95.7735 349.757 94.9176 349.76ZM94.9176 346.735C94.3191 346.735 93.8088 346.777 93.3869 346.86C92.9679 346.944 92.6492 347.065 92.4307 347.224C92.2153 347.38 92.109 347.568 92.112 347.79C92.109 348.137 92.3469 348.4 92.8258 348.58C93.3076 348.759 94.0048 348.851 94.9176 348.854C95.8363 348.851 96.5366 348.759 97.0184 348.58C97.5002 348.4 97.7412 348.137 97.7412 347.79C97.7412 347.455 97.4973 347.196 97.0095 347.013C96.5246 346.831 95.8274 346.738 94.9176 346.735ZM100.111 350.375V351.34H97.3192V352.355H98.7961V355.017H92.1793V356.036H99.1237V356.97H90.9987V354.151H97.611V353.257H90.9763V352.355H92.4891V351.34H89.7418V350.375H100.111ZM93.6831 352.355H96.1162V351.34H93.6831V352.355ZM108.797 345.702H110.01V357.1H108.797V345.702ZM103.918 346.555C104.484 346.555 104.988 346.72 105.431 347.049C105.877 347.378 106.225 347.845 106.477 348.45C106.728 349.051 106.854 349.75 106.854 350.546C106.854 351.348 106.728 352.051 106.477 352.656C106.225 353.26 105.877 353.727 105.431 354.056C104.988 354.382 104.484 354.546 103.918 354.546C103.349 354.546 102.842 354.382 102.396 354.056C101.95 353.727 101.602 353.26 101.35 352.656C101.102 352.051 100.978 351.348 100.978 350.546C100.978 349.747 101.102 349.047 101.35 348.445C101.602 347.841 101.95 347.375 102.396 347.049C102.842 346.72 103.349 346.555 103.918 346.555ZM103.918 347.633C103.568 347.636 103.258 347.757 102.989 347.996C102.722 348.233 102.514 348.571 102.365 349.011C102.215 349.448 102.14 349.959 102.14 350.546C102.14 351.138 102.215 351.655 102.365 352.095C102.514 352.535 102.722 352.873 102.989 353.109C103.258 353.346 103.568 353.464 103.918 353.464C104.268 353.464 104.576 353.346 104.843 353.109C105.109 352.873 105.316 352.535 105.462 352.095C105.612 351.655 105.687 351.138 105.687 350.546C105.687 349.956 105.612 349.443 105.462 349.006C105.316 348.566 105.109 348.228 104.843 347.992C104.576 347.755 104.268 347.636 103.918 347.633ZM150.693 349.769V345.702H151.896V357.1H150.693V350.766H147.532V349.769H150.693ZM144.175 353.302C145.195 353.296 146.057 353.269 146.76 353.221C147.464 353.17 148.173 353.078 148.888 352.943L149.023 353.931C148.242 354.077 147.47 354.177 146.706 354.231C145.946 354.282 144.995 354.308 143.851 354.308H142.958V346.762H148.17V347.758H144.175V353.302ZM161.812 349.487V350.784H166.4V351.753H156.031V350.784H160.614V349.487H157.413V345.945H158.607V348.517H165.26V349.487H161.812ZM165.264 353.729H163.577V355.955H165.372V356.934H157.072V355.955H158.859V353.729H157.171V352.781H165.264V353.729ZM162.387 353.729H160.048V355.955H162.387V353.729ZM172.052 346.385C172.845 346.385 173.56 346.518 174.198 346.784C174.838 347.051 175.341 347.425 175.706 347.906C176.074 348.385 176.258 348.937 176.258 349.563C176.258 350.191 176.074 350.746 175.706 351.228C175.341 351.71 174.838 352.083 174.198 352.346C173.56 352.609 172.845 352.74 172.052 352.737C171.262 352.74 170.548 352.609 169.911 352.346C169.273 352.083 168.772 351.71 168.407 351.228C168.042 350.746 167.859 350.191 167.859 349.563C167.859 348.937 168.042 348.385 168.407 347.906C168.772 347.425 169.273 347.051 169.911 346.784C170.548 346.518 171.262 346.385 172.052 346.385ZM172.052 347.368C171.474 347.365 170.955 347.456 170.494 347.642C170.033 347.824 169.671 348.083 169.408 348.418C169.147 348.75 169.017 349.132 169.017 349.563C169.017 349.997 169.147 350.38 169.408 350.712C169.668 351.041 170.029 351.297 170.49 351.48C170.953 351.659 171.474 351.749 172.052 351.749C172.629 351.749 173.149 351.659 173.609 351.48C174.07 351.297 174.431 351.041 174.691 350.712C174.952 350.38 175.082 349.997 175.082 349.563C175.082 349.132 174.95 348.75 174.687 348.418C174.426 348.083 174.066 347.824 173.605 347.642C173.147 347.456 172.629 347.365 172.052 347.368ZM166.876 354.608H177.286V355.605H166.876V354.608ZM186.012 348.382V345.702H187.207V357.1H186.012V352.476H183.44V354.236H178.166V346.793H183.44V348.382H186.012ZM179.36 353.275H182.264V347.74H179.36V353.275ZM183.44 349.365V351.502H186.012V349.365H183.44ZM64.7914 372.291V373.274H60.1768V378.095H58.9693V373.274H54.422V372.291H61.932C62.0367 371.788 62.113 371.314 62.1609 370.868C62.2118 370.422 62.2432 370.024 62.2552 369.674C62.2672 369.321 62.2731 368.903 62.2731 368.422V368.399H55.6834V367.421H63.4717V368.422C63.4687 368.918 63.4612 369.34 63.4492 369.688C63.4403 370.032 63.4133 370.427 63.3684 370.873C63.3236 371.315 63.2532 371.788 63.1575 372.291H64.7914ZM74.748 373.418H73.5449V370.011H71.1478V369.019H73.5449V366.702H74.748V373.418ZM68.7328 370.455C68.4844 371.113 68.1148 371.687 67.624 372.174C67.1362 372.659 66.5512 373.024 65.8688 373.27L65.2224 372.3C65.818 372.097 66.3312 371.803 66.7621 371.42C67.1961 371.034 67.5268 370.587 67.7542 370.078C67.9846 369.569 68.1013 369.031 68.1043 368.462V367.335H69.3074V368.413C69.3044 368.939 69.4121 369.441 69.6306 369.916C69.852 370.392 70.1692 370.81 70.5822 371.169C70.9982 371.525 71.489 371.796 72.0546 371.981L71.3992 372.924C70.7768 372.7 70.2381 372.376 69.7832 371.954C69.3313 371.529 68.9812 371.03 68.7328 370.455ZM70.9369 373.732C71.7299 373.732 72.4137 373.819 72.9883 373.992C73.5659 374.163 74.0088 374.411 74.317 374.738C74.6283 375.064 74.7839 375.454 74.7839 375.909C74.7839 376.361 74.6283 376.749 74.317 377.072C74.0088 377.395 73.5659 377.64 72.9883 377.808C72.4137 377.976 71.7299 378.059 70.9369 378.059C70.1408 378.059 69.454 377.976 68.8764 377.808C68.2989 377.64 67.8559 377.395 67.5477 377.072C67.2425 376.749 67.0913 376.361 67.0943 375.909C67.0913 375.454 67.2439 375.064 67.5522 374.738C67.8604 374.411 68.3033 374.163 68.8809 373.992C69.4585 373.819 70.1438 373.732 70.9369 373.732ZM70.9369 377.108C71.4875 377.108 71.9618 377.061 72.3599 376.969C72.7579 376.873 73.0616 376.735 73.2711 376.556C73.4836 376.376 73.5898 376.161 73.5898 375.909C73.5898 375.649 73.4836 375.427 73.2711 375.245C73.0616 375.059 72.7579 374.919 72.3599 374.823C71.9648 374.727 71.4905 374.679 70.9369 374.679C70.3832 374.679 69.9074 374.727 69.5094 374.823C69.1114 374.919 68.8076 375.059 68.5981 375.245C68.3886 375.427 68.2854 375.649 68.2884 375.909C68.2854 376.161 68.3886 376.376 68.5981 376.556C68.8076 376.735 69.1114 376.873 69.5094 376.969C69.9074 377.061 70.3832 377.108 70.9369 377.108ZM82.074 374.248V373.395H84.3634V366.711H85.5754V375.339H84.3634V374.248H82.074ZM79.7801 371.133C79.2205 371.133 78.7252 371.052 78.2943 370.891C77.8663 370.729 77.5342 370.499 77.2977 370.199C77.0613 369.9 76.9431 369.55 76.9431 369.149C76.9431 368.754 77.0613 368.405 77.2977 368.103C77.5372 367.801 77.8708 367.566 78.2988 367.398C78.7297 367.231 79.2235 367.147 79.7801 367.147C80.3278 367.147 80.8141 367.231 81.239 367.398C81.667 367.566 82.0007 367.801 82.2401 368.103C82.4795 368.405 82.6007 368.754 82.6037 369.149C82.6007 369.547 82.4795 369.897 82.2401 370.199C82.0037 370.499 81.6715 370.729 81.2435 370.891C80.8186 371.052 80.3308 371.133 79.7801 371.133ZM79.7801 368.045C79.445 368.045 79.1487 368.089 78.8913 368.179C78.637 368.269 78.4394 368.398 78.2988 368.565C78.1581 368.733 78.0878 368.927 78.0878 369.149C78.0878 369.37 78.1581 369.565 78.2988 369.732C78.4394 369.897 78.637 370.024 78.8913 370.114C79.1487 370.204 79.445 370.249 79.7801 370.249C80.1033 370.249 80.3906 370.204 80.642 370.114C80.8934 370.024 81.0909 369.897 81.2346 369.732C81.3782 369.565 81.4515 369.37 81.4545 369.149C81.4515 368.927 81.3782 368.733 81.2346 368.565C81.0909 368.398 80.8919 368.269 80.6375 368.179C80.3861 368.089 80.1003 368.045 79.7801 368.045ZM79.2953 374.984V372.83C78.5143 372.86 77.6284 372.875 76.6379 372.875H76.2069L76.0543 371.905C77.5566 371.896 78.8928 371.871 80.0629 371.829C81.2361 371.787 82.3553 371.699 83.4207 371.564L83.5015 372.435C82.5917 372.584 81.5907 372.694 80.4984 372.762V374.984H79.2953ZM78.833 374.495V376.856H85.8447V377.844H77.6299V374.495H78.833ZM99.2225 373.701H98.0195V371.725H96.2733V370.747H98.0195V369.652H96.2733V368.682H98.0195V366.702H99.2225V373.701ZM96.4708 372.718C95.4952 372.873 94.4537 372.976 93.3465 373.027C92.2422 373.078 91.093 373.104 89.899 373.104L89.7553 372.103C89.9738 372.103 90.1967 372.103 90.4242 372.103C90.6546 372.1 90.891 372.097 91.1334 372.094V368.507H90.065V367.524H96.1072V368.507H95.0253V371.945C95.5221 371.907 95.986 371.862 96.4169 371.811L96.4708 372.718ZM92.305 368.507V372.071C92.6462 372.065 93.1669 372.047 93.8672 372.017V368.507H92.305ZM95.4114 373.916C96.2104 373.916 96.8972 373.998 97.4718 374.163C98.0494 374.325 98.4908 374.561 98.7961 374.872C99.1043 375.183 99.2584 375.558 99.2584 375.994C99.2584 376.425 99.1043 376.795 98.7961 377.103C98.4878 377.414 98.0449 377.651 97.4673 377.812C96.8927 377.977 96.2074 378.059 95.4114 378.059C94.6153 378.059 93.9285 377.977 93.351 377.812C92.7734 377.651 92.3305 377.414 92.0222 377.103C91.717 376.795 91.5659 376.425 91.5688 375.994C91.5659 375.558 91.717 375.183 92.0222 374.872C92.3275 374.561 92.7689 374.325 93.3465 374.163C93.924 373.998 94.6124 373.916 95.4114 373.916ZM95.4114 377.121C95.968 377.121 96.4438 377.078 96.8389 376.991C97.2369 376.904 97.5406 376.777 97.7501 376.609C97.9596 376.439 98.0644 376.234 98.0644 375.994C98.0644 375.752 97.9581 375.546 97.7456 375.375C97.5362 375.204 97.2324 375.074 96.8344 374.984C96.4394 374.895 95.965 374.85 95.4114 374.85C94.8548 374.85 94.3774 374.895 93.9794 374.984C93.5814 375.074 93.2776 375.204 93.0682 375.375C92.8617 375.546 92.7599 375.752 92.7629 375.994C92.7599 376.234 92.8617 376.439 93.0682 376.609C93.2776 376.777 93.5799 376.904 93.9749 376.991C94.3729 377.078 94.8518 377.121 95.4114 377.121ZM110.997 371.537V372.52H108.187V375.182H107.015V372.52H105.215V375.182H104.039V372.52H100.587V371.537H108.214C108.331 370.932 108.404 370.386 108.434 369.898C108.464 369.411 108.479 368.865 108.479 368.26H101.876V367.299H109.677V368.197C109.677 368.826 109.662 369.388 109.632 369.885C109.605 370.379 109.535 370.929 109.421 371.537H110.997ZM101.808 374.235H103.011V376.856H109.978V377.844H101.808V374.235ZM119.661 372.143C119.392 372.466 119.057 372.718 118.656 372.897C118.258 373.077 117.825 373.166 117.359 373.166C116.793 373.166 116.283 373.044 115.828 372.798C115.376 372.553 115.021 372.212 114.764 371.775C114.507 371.338 114.379 370.844 114.382 370.294C114.379 369.743 114.507 369.249 114.764 368.812C115.021 368.372 115.376 368.03 115.828 367.784C116.283 367.536 116.793 367.41 117.359 367.407C117.822 367.41 118.253 367.501 118.651 367.681C119.049 367.86 119.385 368.11 119.657 368.431H122.494V366.711H123.697V375.088H122.494V372.143H119.661ZM115.527 370.294C115.527 370.647 115.605 370.961 115.761 371.236C115.916 371.512 116.133 371.725 116.411 371.878C116.69 372.028 117.006 372.103 117.359 372.103C117.7 372.103 118.008 372.026 118.283 371.874C118.559 371.721 118.774 371.509 118.93 371.236C119.088 370.961 119.168 370.647 119.168 370.294C119.168 369.943 119.088 369.632 118.93 369.36C118.774 369.084 118.559 368.871 118.283 368.718C118.008 368.562 117.7 368.483 117.359 368.48C117.006 368.483 116.69 368.561 116.411 368.713C116.133 368.866 115.916 369.08 115.761 369.355C115.605 369.628 115.527 369.94 115.527 370.294ZM122.494 369.414H120.191C120.278 369.707 120.321 370 120.321 370.294C120.321 370.59 120.279 370.877 120.196 371.155H122.494V369.414ZM117.516 374.226V376.856H123.998V377.844H116.313V374.226H117.516ZM134.542 373.705H133.335V371.717H131.216V370.733H133.335V369.391H131.216V368.408H133.335V366.711H134.542V373.705ZM131.176 372.875C130.535 372.988 129.89 373.065 129.241 373.104C128.595 373.14 127.727 373.157 126.637 373.157H126.355H125.533V369.696H129.281V368.314H125.511V367.335H130.475V370.63H126.727V372.174C127.766 372.171 128.593 372.152 129.21 372.116C129.829 372.077 130.445 372.002 131.059 371.892L131.176 372.875ZM130.745 373.898C131.538 373.898 132.223 373.982 132.801 374.15C133.378 374.317 133.821 374.561 134.129 374.881C134.438 375.201 134.592 375.583 134.592 376.026C134.592 376.469 134.438 376.847 134.129 377.162C133.821 377.479 133.378 377.72 132.801 377.884C132.226 378.049 131.541 378.131 130.745 378.131C129.946 378.131 129.256 378.049 128.675 377.884C128.098 377.72 127.655 377.479 127.347 377.162C127.038 376.847 126.886 376.469 126.889 376.026C126.886 375.583 127.038 375.201 127.347 374.881C127.655 374.561 128.099 374.317 128.68 374.15C129.26 373.982 129.949 373.898 130.745 373.898ZM130.745 377.193C131.298 377.193 131.774 377.148 132.172 377.058C132.57 376.969 132.874 376.837 133.083 376.663C133.296 376.49 133.402 376.277 133.402 376.026C133.402 375.772 133.296 375.556 133.083 375.379C132.874 375.2 132.57 375.065 132.172 374.975C131.774 374.883 131.298 374.836 130.745 374.836C130.185 374.836 129.708 374.883 129.313 374.975C128.918 375.065 128.617 375.2 128.41 375.379C128.204 375.556 128.102 375.772 128.105 376.026C128.102 376.403 128.33 376.692 128.788 376.892C129.248 377.093 129.901 377.193 130.745 377.193ZM162.771 378.077V366.702H163.93V378.077H162.771ZM158.66 370.702H160.433V366.922H161.568V377.516H160.433V371.703H158.66V370.702ZM157.614 369.809C157.614 370.431 157.699 371.045 157.87 371.649C158.043 372.251 158.302 372.801 158.646 373.301C158.99 373.798 159.408 374.196 159.899 374.495L159.221 375.429C158.706 375.118 158.266 374.694 157.901 374.158C157.536 373.623 157.252 373.014 157.048 372.331C156.833 373.074 156.529 373.735 156.137 374.316C155.748 374.893 155.284 375.347 154.745 375.676L153.991 374.778C154.512 374.467 154.956 374.051 155.324 373.53C155.695 373.009 155.975 372.433 156.164 371.802C156.352 371.167 156.447 370.521 156.447 369.863V367.739H157.614V369.809Z" fill="#404040"/>
<path d="M114.562 356L114.558 354.801L117.803 351.673C118.156 351.32 118.429 351.029 118.62 350.802C118.815 350.574 118.963 350.351 119.064 350.133C119.169 349.911 119.222 349.677 119.222 349.428C119.222 349.147 119.153 348.9 119.015 348.688C118.877 348.475 118.687 348.312 118.445 348.198C118.206 348.084 117.936 348.028 117.637 348.028C117.326 348.028 117.052 348.09 116.815 348.216C116.582 348.339 116.402 348.515 116.277 348.746C116.151 348.976 116.088 349.246 116.088 349.554H114.517C114.514 348.982 114.646 348.48 114.912 348.046C115.179 347.612 115.55 347.276 116.025 347.04C116.504 346.801 117.049 346.681 117.659 346.681C118.273 346.681 118.818 346.796 119.293 347.027C119.769 347.254 120.139 347.57 120.402 347.974C120.668 348.378 120.802 348.834 120.802 349.343C120.799 349.702 120.73 350.046 120.595 350.375C120.461 350.702 120.227 351.067 119.895 351.471C119.566 351.872 119.097 352.358 118.49 352.93L116.86 354.55V354.617H120.941V356H114.562ZM125.336 356.126C124.662 356.126 124.059 356.015 123.527 355.794C122.997 355.569 122.584 355.261 122.288 354.869C121.992 354.474 121.845 354.029 121.848 353.536C121.845 353.156 121.93 352.801 122.104 352.472C122.277 352.142 122.514 351.87 122.813 351.655C123.115 351.439 123.449 351.303 123.814 351.246V351.188C123.497 351.122 123.216 350.992 122.97 350.797C122.725 350.6 122.533 350.359 122.396 350.075C122.261 349.787 122.194 349.478 122.194 349.145C122.194 348.679 122.328 348.258 122.598 347.884C122.87 347.507 123.245 347.212 123.724 347C124.203 346.787 124.74 346.681 125.336 346.681C125.931 346.681 126.467 346.787 126.943 347C127.422 347.212 127.797 347.507 128.07 347.884C128.342 348.258 128.478 348.679 128.478 349.145C128.478 349.478 128.408 349.787 128.267 350.075C128.129 350.359 127.936 350.6 127.688 350.797C127.443 350.992 127.164 351.122 126.853 351.188V351.246C127.215 351.303 127.546 351.439 127.845 351.655C128.147 351.87 128.387 352.142 128.563 352.472C128.74 352.801 128.828 353.156 128.828 353.536C128.828 354.029 128.679 354.474 128.379 354.869C128.08 355.261 127.664 355.569 127.131 355.794C126.602 356.015 126.003 356.126 125.336 356.126ZM125.336 350.654C125.629 350.654 125.891 350.597 126.121 350.483C126.352 350.369 126.533 350.211 126.665 350.007C126.796 349.801 126.862 349.566 126.862 349.302C126.862 349.042 126.798 348.812 126.669 348.611C126.54 348.411 126.359 348.255 126.126 348.144C125.895 348.031 125.632 347.974 125.336 347.974C125.034 347.974 124.767 348.031 124.537 348.144C124.306 348.255 124.127 348.411 123.998 348.611C123.872 348.812 123.81 349.042 123.81 349.302C123.81 349.566 123.874 349.801 124.003 350.007C124.134 350.211 124.315 350.369 124.546 350.483C124.779 350.597 125.043 350.654 125.336 350.654ZM125.336 354.851C125.692 354.851 126.005 354.791 126.274 354.671C126.546 354.549 126.756 354.379 126.902 354.164C127.049 353.946 127.122 353.697 127.122 353.419C127.122 353.132 127.045 352.873 126.889 352.642C126.736 352.412 126.524 352.232 126.252 352.104C125.979 351.972 125.674 351.906 125.336 351.906C124.995 351.906 124.688 351.972 124.416 352.104C124.143 352.232 123.931 352.412 123.778 352.642C123.626 352.873 123.551 353.132 123.554 353.419C123.551 353.697 123.621 353.946 123.765 354.164C123.911 354.379 124.119 354.549 124.389 354.671C124.661 354.791 124.977 354.851 125.336 354.851ZM130.045 348.53C130.045 348.168 130.121 347.838 130.274 347.538C130.43 347.236 130.654 346.997 130.947 346.82C131.244 346.644 131.591 346.555 131.989 346.555C132.399 346.555 132.749 346.644 133.039 346.82C133.333 346.997 133.554 347.235 133.704 347.534C133.853 347.833 133.928 348.165 133.928 348.53V349.015C133.928 349.377 133.852 349.708 133.699 350.007C133.55 350.307 133.328 350.544 133.035 350.721C132.742 350.898 132.393 350.986 131.989 350.986C131.582 350.986 131.232 350.898 130.938 350.721C130.645 350.544 130.422 350.307 130.27 350.007C130.12 349.708 130.045 349.377 130.045 349.015V348.53ZM131.675 356H130.557L136.877 346.807H137.995L131.675 356ZM131.226 349.015C131.226 349.285 131.287 349.51 131.41 349.693C131.532 349.876 131.726 349.967 131.989 349.967C132.255 349.967 132.448 349.877 132.568 349.698C132.691 349.515 132.752 349.288 132.752 349.015V348.53C132.752 348.255 132.694 348.028 132.577 347.848C132.46 347.666 132.264 347.574 131.989 347.574C131.728 347.574 131.535 347.667 131.41 347.853C131.287 348.038 131.226 348.264 131.226 348.53V349.015ZM134.718 353.791C134.718 353.429 134.794 353.099 134.947 352.799C135.1 352.497 135.323 352.258 135.616 352.081C135.909 351.905 136.258 351.816 136.662 351.816C137.069 351.816 137.419 351.905 137.712 352.081C138.006 352.258 138.227 352.496 138.377 352.795C138.526 353.094 138.601 353.426 138.601 353.791V354.276C138.601 354.638 138.525 354.971 138.372 355.273C138.22 355.572 137.997 355.81 137.703 355.987C137.41 356.163 137.063 356.251 136.662 356.251C136.255 356.251 135.905 356.163 135.611 355.987C135.318 355.81 135.095 355.572 134.943 355.273C134.793 354.971 134.718 354.638 134.718 354.276V353.791ZM135.89 354.276C135.89 354.546 135.951 354.772 136.074 354.954C136.196 355.137 136.393 355.228 136.662 355.228C136.928 355.228 137.121 355.137 137.241 354.954C137.364 354.772 137.425 354.546 137.425 354.276V353.791C137.425 353.516 137.365 353.289 137.245 353.109C137.129 352.927 136.934 352.835 136.662 352.835C136.398 352.835 136.204 352.928 136.078 353.114C135.953 353.296 135.89 353.522 135.89 353.791V354.276ZM142.372 377.126C141.725 377.126 141.146 377.015 140.635 376.794C140.123 376.572 139.72 376.264 139.427 375.869C139.134 375.471 138.98 375.016 138.965 374.504H140.635C140.647 374.747 140.729 374.962 140.882 375.151C141.037 375.336 141.244 375.48 141.501 375.581C141.761 375.683 142.05 375.734 142.367 375.734C142.703 375.734 143.002 375.677 143.265 375.564C143.531 375.447 143.738 375.285 143.885 375.079C144.034 374.869 144.109 374.631 144.109 374.365C144.112 374.087 144.037 373.841 143.885 373.629C143.732 373.413 143.511 373.246 143.22 373.126C142.933 373.003 142.593 372.942 142.201 372.942H141.384V371.667H142.201C142.524 371.667 142.812 371.612 143.063 371.501C143.315 371.387 143.511 371.229 143.651 371.025C143.792 370.819 143.862 370.584 143.862 370.32C143.862 370.066 143.801 369.842 143.678 369.647C143.558 369.45 143.386 369.297 143.162 369.189C142.94 369.081 142.683 369.028 142.39 369.028C142.1 369.028 141.83 369.08 141.582 369.185C141.333 369.286 141.133 369.433 140.98 369.625C140.831 369.813 140.751 370.032 140.742 370.28H139.158C139.17 369.777 139.319 369.328 139.607 368.933C139.894 368.538 140.281 368.232 140.769 368.013C141.257 367.792 141.8 367.681 142.399 367.681C143.003 367.681 143.537 367.795 144.001 368.022C144.468 368.247 144.827 368.553 145.079 368.942C145.333 369.328 145.459 369.756 145.456 370.226C145.459 370.567 145.39 370.876 145.249 371.151C145.112 371.426 144.916 371.655 144.661 371.838C144.407 372.017 144.111 372.143 143.772 372.215V372.287C144.2 372.343 144.567 372.469 144.872 372.664C145.177 372.858 145.409 373.108 145.568 373.413C145.727 373.719 145.804 374.064 145.801 374.45C145.804 374.959 145.658 375.417 145.361 375.824C145.068 376.231 144.66 376.55 144.136 376.78C143.615 377.01 143.027 377.126 142.372 377.126ZM150.115 377.126C149.513 377.126 148.969 377.013 148.481 376.789C147.996 376.565 147.612 376.253 147.327 375.855C147.043 375.457 146.893 375.007 146.878 374.504H148.485C148.503 374.75 148.587 374.971 148.737 375.169C148.886 375.363 149.081 375.516 149.32 375.626C149.563 375.734 149.828 375.788 150.115 375.788C150.453 375.788 150.757 375.713 151.026 375.564C151.296 375.411 151.505 375.201 151.655 374.935C151.807 374.666 151.884 374.362 151.884 374.024C151.884 373.677 151.804 373.367 151.646 373.095C151.49 372.819 151.272 372.605 150.99 372.453C150.712 372.3 150.398 372.224 150.048 372.224C149.323 372.224 148.821 372.486 148.539 373.009H147.013L147.561 367.807H152.992V369.189H148.925L148.647 371.631H148.728C148.913 371.425 149.165 371.257 149.482 371.128C149.799 371 150.143 370.935 150.514 370.935C151.077 370.935 151.584 371.067 152.036 371.33C152.488 371.591 152.843 371.953 153.1 372.417C153.357 372.878 153.486 373.398 153.486 373.979C153.486 374.583 153.342 375.125 153.055 375.604C152.771 376.083 152.373 376.457 151.861 376.726C151.352 376.993 150.77 377.126 150.115 377.126Z" fill="#00AEAE"/>
<path d="M84.6395 422.844H86.1685V423.772H84.6395V426.428H83.5249V420.503H84.6395V422.844ZM82.6423 425.247C81.8108 425.413 80.9945 425.53 80.1934 425.599C79.3923 425.669 78.5691 425.704 77.7238 425.707H76.866V421.021H77.9848V424.783C79.529 424.769 81.0359 424.617 82.5055 424.327L82.6423 425.247ZM84.6395 430.854H77.9144V426.975H84.6395V430.854ZM83.5539 427.845H79V429.963H83.5539V427.845ZM94.5802 424.659H96.2625V425.599H94.5802V430.994H93.4655V420.494H94.5802V424.659ZM90.0594 423.594C90.0567 424.144 90.1686 424.7 90.3951 425.264C90.6216 425.825 90.9379 426.336 91.344 426.797C91.7528 427.256 92.2169 427.606 92.7362 427.849L92.1064 428.728C91.5263 428.449 91.0097 428.033 90.5567 427.481C90.1064 426.928 89.7597 426.302 89.5166 425.604C89.3564 426.104 89.1437 426.575 88.8785 427.017C88.6133 427.459 88.3081 427.849 87.9628 428.189C87.6202 428.526 87.2528 428.793 86.8605 428.989L86.2017 428.11C86.721 427.862 87.1893 427.494 87.6064 427.008C88.0263 426.522 88.355 425.978 88.5926 425.376C88.8329 424.773 88.9545 424.18 88.9572 423.594V422.471H86.5912V421.551H92.3384V422.471H90.0594V423.594Z" fill="black"/>
<path d="M145.043 420.494H146.145V431.015H145.043V426.988H142.519C142.296 427.518 141.985 427.93 141.587 428.222C141.192 428.512 140.742 428.657 140.236 428.657C139.714 428.657 139.251 428.507 138.848 428.206C138.445 427.902 138.13 427.472 137.903 426.917C137.68 426.359 137.569 425.709 137.572 424.965C137.569 424.228 137.68 423.581 137.903 423.026C138.13 422.468 138.445 422.039 138.848 421.738C139.251 421.434 139.714 421.282 140.236 421.282C140.714 421.285 141.142 421.416 141.521 421.675C141.902 421.932 142.209 422.3 142.441 422.778H145.043V420.494ZM140.236 427.659C140.551 427.659 140.829 427.55 141.069 427.331C141.312 427.113 141.5 426.801 141.633 426.395C141.768 425.989 141.836 425.512 141.836 424.965C141.836 424.424 141.768 423.952 141.633 423.548C141.5 423.142 141.312 422.83 141.069 422.612C140.829 422.391 140.551 422.279 140.236 422.276C139.919 422.279 139.638 422.39 139.395 422.608C139.155 422.826 138.967 423.138 138.831 423.544C138.699 423.948 138.633 424.421 138.633 424.965C138.633 425.512 138.699 425.989 138.831 426.395C138.967 426.801 139.155 427.113 139.395 427.331C139.638 427.55 139.919 427.659 140.236 427.659ZM145.043 426.08V423.693H142.756C142.844 424.086 142.888 424.51 142.888 424.965C142.888 425.341 142.855 425.713 142.789 426.08H145.043ZM155.58 424.659H157.262V425.599H155.58V430.994H154.466V420.494H155.58V424.659ZM151.059 423.594C151.057 424.144 151.169 424.7 151.395 425.264C151.622 425.825 151.938 426.336 152.344 426.797C152.753 427.256 153.217 427.606 153.736 427.849L153.106 428.728C152.526 428.449 152.01 428.033 151.557 427.481C151.106 426.928 150.76 426.302 150.517 425.604C150.356 426.104 150.144 426.575 149.878 427.017C149.613 427.459 149.308 427.849 148.963 428.189C148.62 428.526 148.253 428.793 147.861 428.989L147.202 428.11C147.721 427.862 148.189 427.494 148.606 427.008C149.026 426.522 149.355 425.978 149.593 425.376C149.833 424.773 149.954 424.18 149.957 423.594V422.471H147.591V421.551H153.338V422.471H151.059V423.594Z" fill="black"/>
<rect x="54" y="422" width="14" height="8" fill="#61CDBB"/>
<rect x="115" y="422" width="14" height="8" fill="#FFC38F"/>
<path d="M397 370C397 404.794 368.794 433 334 433C299.206 433 271 404.794 271 370C271 335.206 299.206 307 334 307C368.794 307 397 335.206 397 370ZM291.364 370C291.364 393.547 310.453 412.636 334 412.636C357.547 412.636 376.636 393.547 376.636 370C376.636 346.453 357.547 327.364 334 327.364C310.453 327.364 291.364 346.453 291.364 370Z" fill="#FFC38F"/>
<path d="M334 307C320.324 307 307.02 311.45 296.096 319.678C285.172 327.906 277.223 339.466 273.448 352.61C269.673 365.755 270.277 379.771 275.171 392.541C280.064 405.312 288.98 416.143 300.572 423.4C312.163 430.656 325.802 433.944 339.427 432.766C353.052 431.588 365.924 426.008 376.098 416.87C386.272 407.731 393.197 395.53 395.825 382.109C398.454 368.688 396.644 354.777 390.669 342.475L372.351 351.372C376.395 359.697 377.62 369.112 375.841 378.195C374.062 387.278 369.376 395.535 362.49 401.719C355.604 407.904 346.893 411.68 337.673 412.477C328.452 413.274 319.222 411.05 311.377 406.139C303.532 401.228 297.498 393.897 294.187 385.255C290.875 376.612 290.466 367.127 293.021 358.231C295.575 349.336 300.955 341.513 308.348 335.944C315.741 330.376 324.745 327.364 334 327.364V307Z" fill="#61CDBB"/>
<rect y="500" width="460" height="240" rx="16" fill="white"/>
<rect x="20" y="520" width="420" height="200" rx="12" fill="#F4F6FC"/>
<path d="M64.232 555.004H62.762L61.18 549.264C61.152 549.152 61.1193 549.077 61.082 549.04C61.0447 548.993 60.9747 548.97 60.872 548.97H59.906C59.8033 548.97 59.7333 548.993 59.696 549.04C59.6587 549.087 59.626 549.161 59.598 549.264L57.932 555.004H56.462L58.226 548.97H56.644V547.71H64.288V548.97H62.566L64.232 555.004ZM67.536 560.212H57.75V555.76H59.15V558.952H67.536V560.212ZM67.452 556.978H66.052V551.882H63.798V550.594H66.052V547.556H67.452V556.978ZM79.7195 560.212H78.3195V556.544H69.9475V555.284H79.7195V560.212ZM79.7195 554.64H78.3195V547.556H79.7195V554.64ZM76.6395 554.36H75.1695L73.5875 549.264C73.5502 549.152 73.5128 549.077 73.4755 549.04C73.4475 548.993 73.3822 548.97 73.2795 548.97H72.3135C72.2108 548.97 72.1408 548.993 72.1035 549.04C72.0755 549.087 72.0428 549.161 72.0055 549.264L70.3395 554.36H68.8695L70.6335 548.97H68.9115V547.71H76.8355V548.97H74.9735L76.6395 554.36ZM88.711 551.098C88.5337 551.406 88.277 551.667 87.941 551.882C87.6143 552.097 87.2223 552.26 86.765 552.372C86.3077 552.484 85.8037 552.54 85.253 552.54C84.7023 552.54 84.1937 552.484 83.727 552.372C83.2697 552.26 82.8777 552.097 82.551 551.882C82.2243 551.667 81.9677 551.406 81.781 551.098C81.6037 550.781 81.515 550.417 81.515 550.006C81.515 549.605 81.6037 549.245 81.781 548.928C81.9677 548.611 82.2243 548.345 82.551 548.13C82.8777 547.915 83.2697 547.752 83.727 547.64C84.1937 547.528 84.7023 547.472 85.253 547.472C85.8037 547.472 86.3077 547.528 86.765 547.64C87.2223 547.752 87.6143 547.915 87.941 548.13C88.277 548.345 88.5337 548.611 88.711 548.928C88.8977 549.245 88.991 549.605 88.991 550.006C88.991 550.417 88.8977 550.781 88.711 551.098ZM91.847 557.888H90.447V556.558H87.325V555.326H90.447V547.556H91.847V557.888ZM91.931 560.212H81.865V556.712H83.265V558.952H91.931V560.212ZM89.537 554.43H85.729V556.642H84.329V554.43H81.179V553.17H89.537V554.43ZM86.933 550.986C87.3717 550.781 87.591 550.454 87.591 550.006C87.591 549.558 87.3717 549.236 86.933 549.04C86.5037 548.835 85.9437 548.732 85.253 548.732C84.5623 548.732 83.9977 548.835 83.559 549.04C83.1297 549.236 82.915 549.558 82.915 550.006C82.915 550.454 83.1297 550.781 83.559 550.986C83.9977 551.182 84.5623 551.28 85.253 551.28C85.9437 551.28 86.5037 551.182 86.933 550.986ZM108.255 559.372H96.4672V558.112H100.849V552.848H102.249V558.112H108.255V559.372ZM107.009 555.48H105.609L106.029 549.348C106.057 549.087 105.927 548.956 105.637 548.956H97.3492V547.696H106.799C107.042 547.696 107.224 547.766 107.345 547.906C107.476 548.046 107.532 548.233 107.513 548.466L107.009 555.48ZM120.523 554.864H108.735V553.604H111.605V552.316C110.877 552.26 110.307 552.027 109.897 551.616C109.495 551.205 109.295 550.641 109.295 549.922C109.295 549.147 109.528 548.555 109.995 548.144C110.461 547.724 111.119 547.514 111.969 547.514H117.289C118.138 547.514 118.796 547.729 119.263 548.158C119.729 548.578 119.963 549.166 119.963 549.922C119.963 550.622 119.757 551.182 119.347 551.602C118.945 552.013 118.381 552.251 117.653 552.316V553.604H120.523V554.864ZM117.289 555.634C118.138 555.634 118.796 555.835 119.263 556.236C119.729 556.637 119.963 557.207 119.963 557.944C119.963 558.681 119.729 559.251 119.263 559.652C118.796 560.053 118.138 560.254 117.289 560.254H111.969C111.119 560.254 110.461 560.053 109.995 559.652C109.528 559.251 109.295 558.681 109.295 557.944C109.295 557.207 109.528 556.637 109.995 556.236C110.461 555.835 111.119 555.634 111.969 555.634H117.289ZM117.107 551.07C117.601 551.07 117.965 550.967 118.199 550.762C118.441 550.557 118.563 550.277 118.563 549.922C118.563 549.567 118.441 549.287 118.199 549.082C117.965 548.877 117.601 548.774 117.107 548.774H112.151C111.656 548.774 111.287 548.877 111.045 549.082C110.811 549.287 110.695 549.567 110.695 549.922C110.695 550.277 110.811 550.557 111.045 550.762C111.287 550.967 111.656 551.07 112.151 551.07H117.107ZM117.107 558.994C117.601 558.994 117.965 558.896 118.199 558.7C118.441 558.513 118.563 558.261 118.563 557.944C118.563 557.627 118.441 557.375 118.199 557.188C117.965 556.992 117.601 556.894 117.107 556.894H112.151C111.656 556.894 111.287 556.992 111.045 557.188C110.811 557.375 110.695 557.627 110.695 557.944C110.695 558.261 110.811 558.513 111.045 558.7C111.287 558.896 111.656 558.994 112.151 558.994H117.107ZM116.253 553.604V552.33H113.005V553.604H116.253ZM132.006 555.06H130.606V553.17H129.052V551.882H130.606V550.454H129.052V549.404H127.736C127.988 549.516 128.189 549.721 128.338 550.02C128.488 550.319 128.562 550.627 128.562 550.944V551.868C128.562 553.688 127.442 554.598 125.202 554.598C124.11 554.598 123.275 554.374 122.696 553.926C122.127 553.469 121.842 552.783 121.842 551.868V550.944C121.842 550.617 121.917 550.309 122.066 550.02C122.216 549.721 122.416 549.516 122.668 549.404H121.17V548.144H124.502V546.842H125.902V548.144H129.234V549.166H130.606V547.556H132.006V555.06ZM129.584 555.508C130.434 555.508 131.092 555.713 131.558 556.124C132.025 556.525 132.258 557.104 132.258 557.86C132.258 558.616 132.025 559.195 131.558 559.596C131.092 560.007 130.434 560.212 129.584 560.212H124.698C123.849 560.212 123.191 560.007 122.724 559.596C122.258 559.195 122.024 558.616 122.024 557.86C122.024 557.104 122.258 556.525 122.724 556.124C123.191 555.713 123.849 555.508 124.698 555.508H129.584ZM129.402 558.952C129.897 558.952 130.261 558.854 130.494 558.658C130.737 558.462 130.858 558.196 130.858 557.86C130.858 557.524 130.737 557.258 130.494 557.062C130.261 556.866 129.897 556.768 129.402 556.768H124.88C124.386 556.768 124.017 556.866 123.774 557.062C123.541 557.258 123.424 557.524 123.424 557.86C123.424 558.196 123.541 558.462 123.774 558.658C124.017 558.854 124.386 558.952 124.88 558.952H129.402ZM127.162 550.874C127.162 550.417 127.008 550.034 126.7 549.726C126.402 549.418 125.902 549.264 125.202 549.264C124.502 549.264 123.998 549.418 123.69 549.726C123.392 550.034 123.242 550.417 123.242 550.874V551.84C123.242 552.335 123.392 552.727 123.69 553.016C123.998 553.305 124.502 553.45 125.202 553.45C125.902 553.45 126.402 553.305 126.7 553.016C127.008 552.727 127.162 552.335 127.162 551.84V550.874ZM144.624 560.212H143.224V553.548H141.586V560.212H140.2V547.556H141.586V552.26H143.224V547.556H144.624V560.212ZM139.36 558.98H133.718V548.55C133.718 548.251 133.783 548.037 133.914 547.906C134.044 547.775 134.259 547.71 134.558 547.71H139.01V548.942H135.104V552.414H138.912V553.618H135.104V557.748H139.36V558.98ZM160.542 555.592H155.348V560.212H153.948V555.592H148.754V554.332H160.542V555.592ZM159.296 553.492H157.896L158.316 549.348C158.344 549.087 158.213 548.956 157.924 548.956H149.636V547.696H159.086C159.329 547.696 159.511 547.766 159.632 547.906C159.763 548.046 159.819 548.233 159.8 548.466L159.296 553.492ZM164.717 560.212C163.868 560.212 163.21 559.993 162.743 559.554C162.277 559.125 162.043 558.513 162.043 557.72C162.043 556.927 162.277 556.315 162.743 555.886C163.21 555.447 163.868 555.228 164.717 555.228H169.603C170.453 555.228 171.111 555.447 171.577 555.886C172.044 556.315 172.277 556.927 172.277 557.72C172.277 558.513 172.044 559.125 171.577 559.554C171.111 559.993 170.453 560.212 169.603 560.212H164.717ZM172.025 554.78H170.625V551.574H168.399V554.36H166.999V548.97H165.767C165.469 548.97 165.254 549.031 165.123 549.152C165.002 549.264 164.89 549.432 164.787 549.656L162.701 554.36H161.147L163.359 549.334C163.481 549.073 163.593 548.839 163.695 548.634C163.798 548.429 163.919 548.261 164.059 548.13C164.209 547.99 164.386 547.887 164.591 547.822C164.797 547.747 165.058 547.71 165.375 547.71H168.399V550.286H170.625V547.556H172.025V554.78ZM169.421 558.952C169.916 558.952 170.28 558.835 170.513 558.602C170.756 558.378 170.877 558.084 170.877 557.72C170.877 557.356 170.756 557.062 170.513 556.838C170.28 556.605 169.916 556.488 169.421 556.488H164.899C164.405 556.488 164.036 556.605 163.793 556.838C163.56 557.062 163.443 557.356 163.443 557.72C163.443 558.084 163.56 558.378 163.793 558.602C164.036 558.835 164.405 558.952 164.899 558.952H169.421ZM184.164 558.07C184.164 558.434 184.08 558.7 183.912 558.868C183.744 559.036 183.478 559.12 183.114 559.12H177.066V547.64H178.466V551.798H182.764V547.64H184.164V558.07ZM182.764 557.86V553.058H178.466V557.86H182.764ZM187.51 560.212H186.11V547.556H187.51V560.212ZM199.889 560.254H189.585V556.908H198.349V556.068H189.557V554.808H191.643V553.688H188.773V552.428H200.561V553.688H197.691V554.808H199.749V557.3C199.749 557.599 199.684 557.813 199.553 557.944C199.422 558.075 199.208 558.14 198.909 558.14H190.985V558.994H199.889V560.254ZM197.327 547.514C198.176 547.514 198.834 547.696 199.301 548.06C199.768 548.415 200.001 548.933 200.001 549.614C200.001 550.295 199.768 550.818 199.301 551.182C198.834 551.537 198.176 551.714 197.327 551.714H192.007C191.158 551.714 190.5 551.541 190.033 551.196C189.566 550.841 189.333 550.314 189.333 549.614C189.333 548.914 189.566 548.391 190.033 548.046C190.5 547.691 191.158 547.514 192.007 547.514H197.327ZM197.145 550.454C198.116 550.454 198.601 550.174 198.601 549.614C198.601 549.054 198.116 548.774 197.145 548.774H192.189C191.218 548.774 190.733 549.054 190.733 549.614C190.733 550.174 191.218 550.454 192.189 550.454H197.145ZM196.291 554.808V553.688H193.043V554.808H196.291Z" fill="black"/>
<path d="M396 617C396 651.794 367.794 680 333 680C298.206 680 270 651.794 270 617C270 582.206 298.206 554 333 554C367.794 554 396 582.206 396 617ZM290.364 617C290.364 640.547 309.453 659.636 333 659.636C356.547 659.636 375.636 640.547 375.636 617C375.636 593.453 356.547 574.364 333 574.364C309.453 574.364 290.364 593.453 290.364 617Z" fill="#F5784B"/>
<path d="M333 554C319.278 554 305.931 558.48 294.988 566.759C284.045 575.039 276.105 586.665 272.374 599.87C268.643 613.075 269.325 627.137 274.317 639.919C279.309 652.7 288.337 663.503 300.03 670.684C311.723 677.865 325.441 681.032 339.098 679.704C352.756 678.376 365.606 672.625 375.696 663.325C385.787 654.025 392.564 641.686 395 628.181C397.435 614.677 395.395 600.747 389.189 588.509L371.026 597.718C375.226 606.001 376.607 615.428 374.959 624.567C373.311 633.706 368.724 642.057 361.895 648.351C355.067 654.644 346.37 658.537 337.127 659.435C327.884 660.334 318.601 658.191 310.687 653.331C302.774 648.471 296.664 641.16 293.286 632.51C289.907 623.86 289.446 614.343 291.971 605.407C294.496 596.47 299.87 588.602 307.275 582.999C314.681 577.396 323.714 574.364 333 574.364V554Z" fill="#FFC38F"/>
<path d="M333 554C323.598 554 314.316 556.104 305.833 560.158C297.35 564.213 289.883 570.114 283.978 577.43C278.072 584.746 273.879 593.29 271.706 602.437C269.533 611.584 269.435 621.102 271.418 630.292C273.402 639.482 277.417 648.112 283.17 655.548C288.922 662.984 296.267 669.039 304.664 673.268C313.061 677.496 322.298 679.792 331.697 679.987C341.097 680.181 350.421 678.269 358.986 674.391L350.586 655.84C344.79 658.464 338.48 659.758 332.118 659.627C325.757 659.495 319.506 657.941 313.823 655.08C308.14 652.218 303.17 648.12 299.277 643.088C295.384 638.055 292.666 632.215 291.324 625.995C289.982 619.776 290.048 613.335 291.519 607.145C292.99 600.954 295.827 595.172 299.824 590.221C303.82 585.27 308.874 581.276 314.615 578.532C320.355 575.788 326.637 574.364 333 574.364V554Z" fill="#61CDBB"/>
<path d="M61.9613 587.719C61.6022 588.629 61.0097 589.402 60.1837 590.04C59.3577 590.677 58.3163 591.171 57.0594 591.521L56.4983 590.408C57.818 590.049 58.8415 589.543 59.5687 588.891C60.2989 588.238 60.7209 587.478 60.8346 586.61H57.1043V585.461H62.3698C62.3698 585.859 62.3384 586.239 62.2756 586.601H64.5829V584.666H65.9924V591.368H64.5829V590.103H61.8491V588.962H64.5829V587.719H61.9613ZM62.1948 591.499C62.9669 591.499 63.6447 591.591 64.2282 591.777C64.8118 591.959 65.2637 592.223 65.5839 592.567C65.9071 592.908 66.0687 593.311 66.0687 593.775C66.0687 594.241 65.9071 594.648 65.5839 594.996C65.2637 595.34 64.8103 595.605 64.2238 595.79C63.6402 595.976 62.9639 596.068 62.1948 596.068C61.4167 596.068 60.7329 595.976 60.1433 595.79C59.5567 595.605 59.1034 595.34 58.7831 594.996C58.4629 594.648 58.3028 594.241 58.3028 593.775C58.3028 593.311 58.4629 592.908 58.7831 592.567C59.1034 592.223 59.5567 591.959 60.1433 591.777C60.7299 591.591 61.4137 591.499 62.1948 591.499ZM62.1948 594.946C62.7005 594.946 63.1374 594.901 63.5055 594.811C63.8736 594.722 64.1564 594.589 64.3539 594.412C64.5544 594.235 64.6562 594.023 64.6592 593.775C64.6562 593.523 64.5544 593.311 64.3539 593.137C64.1564 592.961 63.8736 592.827 63.5055 592.738C63.1374 592.648 62.7005 592.604 62.1948 592.607C61.68 592.604 61.2356 592.648 60.8615 592.738C60.4904 592.827 60.2061 592.961 60.0086 593.137C59.8111 593.311 59.7124 593.523 59.7124 593.775C59.7124 594.026 59.8111 594.24 60.0086 594.416C60.2061 594.59 60.4904 594.722 60.8615 594.811C61.2356 594.901 61.68 594.946 62.1948 594.946ZM75.4282 586.296V584.666H76.8378V591.723H75.4282V589.838H73.3992V588.706H75.4282V587.418H73.3992V586.296H75.4282ZM73.3409 591.063C72.6945 591.174 72.0346 591.247 71.3612 591.283C70.6879 591.316 69.7467 591.334 68.5377 591.337H67.6893V587.741H71.2984V586.453H67.6713V585.335H72.7034V588.796H69.0853V590.206C70.0579 590.203 70.842 590.183 71.4375 590.147C72.0331 590.109 72.6241 590.034 73.2107 589.923L73.3409 591.063ZM75.4282 593.402H68.9911V592.266H76.8378V596.131H75.4282V593.402ZM86.2107 591.575V584.657H87.6247V591.575H86.2107ZM81.7397 588.765C81.4734 589.369 81.0978 589.896 80.613 590.345C80.1282 590.791 79.5536 591.128 78.8893 591.355L78.1576 590.264C78.7561 590.064 79.2693 589.776 79.6973 589.402C80.1252 589.028 80.4484 588.603 80.6669 588.127C80.8853 587.652 80.9961 587.159 80.9991 586.651V586.507H78.5301V585.371H84.8461V586.507H82.431V586.651C82.431 587.129 82.5388 587.593 82.7542 588.042C82.9727 588.491 83.2914 588.892 83.7104 589.245C84.1323 589.595 84.6396 589.862 85.2321 590.044L84.5094 591.135C83.869 590.932 83.3139 590.625 82.844 590.215C82.3742 589.805 82.0061 589.321 81.7397 588.765ZM86.2107 593.245H79.8005V592.109H87.6247V596.122H86.2107V593.245Z" fill="#00AEAE"/>
<path d="M100.019 587.477V584.702H101.223V591.337H100.019V588.473H97.8827V587.477H100.019ZM95.2163 588.54C94.9619 589.175 94.5908 589.728 94.103 590.201C93.6152 590.674 93.0377 591.027 92.3703 591.261L91.7463 590.318C92.3179 590.121 92.8177 589.833 93.2456 589.456C93.6766 589.076 94.0073 588.642 94.2377 588.154C94.4711 587.667 94.5878 587.162 94.5878 586.642V586.372H92.1189V585.385H98.2598V586.372H95.8088V586.646C95.8088 587.119 95.9181 587.581 96.1365 588.033C96.358 588.485 96.6752 588.889 97.0882 589.245C97.5042 589.601 97.992 589.877 98.5516 590.071L97.9366 591.023C97.3051 590.804 96.756 590.48 96.2891 590.049C95.8253 589.618 95.4677 589.115 95.2163 588.54ZM101.223 595.934H93.7125V591.862H101.223V595.934ZM100.042 592.823H94.92V594.955H100.042V592.823ZM107.749 590.116C106.953 590.119 106.249 590.02 105.635 589.82C105.025 589.619 104.55 589.332 104.212 588.958C103.874 588.584 103.705 588.147 103.705 587.647C103.705 587.141 103.874 586.7 104.212 586.323C104.55 585.943 105.025 585.65 105.635 585.443C106.246 585.237 106.95 585.132 107.749 585.129C108.549 585.132 109.255 585.237 109.868 585.443C110.482 585.65 110.958 585.943 111.296 586.323C111.637 586.7 111.807 587.141 111.807 587.647C111.807 588.147 111.637 588.584 111.296 588.958C110.958 589.332 110.482 589.619 109.868 589.82C109.255 590.02 108.549 590.119 107.749 590.116ZM107.749 586.107C107.19 586.107 106.698 586.17 106.273 586.296C105.848 586.419 105.518 586.597 105.285 586.83C105.055 587.061 104.941 587.333 104.944 587.647C104.941 587.955 105.055 588.223 105.285 588.451C105.518 588.678 105.848 588.853 106.273 588.976C106.698 589.099 107.19 589.16 107.749 589.16C108.312 589.16 108.804 589.099 109.226 588.976C109.651 588.853 109.98 588.678 110.214 588.451C110.447 588.223 110.564 587.955 110.564 587.647C110.564 587.333 110.447 587.061 110.214 586.83C109.98 586.597 109.651 586.419 109.226 586.296C108.804 586.17 108.312 586.107 107.749 586.107ZM102.569 591.131H112.979V592.118H110.344V596.077H109.123V592.118H106.403V596.077H105.164V592.118H102.569V591.131ZM118.608 588.76C117.752 588.757 117.021 588.68 116.413 588.527C115.806 588.374 115.342 588.151 115.022 587.858C114.701 587.565 114.541 587.209 114.541 586.79C114.541 586.374 114.701 586.019 115.022 585.726C115.342 585.433 115.806 585.21 116.413 585.057C117.024 584.904 117.755 584.828 118.608 584.828C119.461 584.828 120.191 584.904 120.799 585.057C121.406 585.21 121.869 585.433 122.186 585.726C122.506 586.019 122.666 586.374 122.666 586.79C122.666 587.209 122.506 587.565 122.186 587.858C121.869 588.151 121.406 588.374 120.799 588.527C120.194 588.68 119.464 588.757 118.608 588.76ZM118.608 585.735C118.01 585.735 117.5 585.777 117.078 585.86C116.659 585.944 116.34 586.065 116.121 586.224C115.906 586.38 115.8 586.568 115.803 586.79C115.8 587.137 116.038 587.4 116.516 587.58C116.998 587.759 117.696 587.851 118.608 587.854C119.527 587.851 120.227 587.759 120.709 587.58C121.191 587.4 121.432 587.137 121.432 586.79C121.432 586.455 121.188 586.196 120.7 586.013C120.215 585.831 119.518 585.738 118.608 585.735ZM123.802 589.375V590.34H121.01V591.355H122.487V594.017H115.87V595.036H122.814V595.97H114.689V593.151H121.302V592.257H114.667V591.355H116.18V590.34H113.433V589.375H123.802ZM117.374 591.355H119.807V590.34H117.374V591.355ZM159.175 591.71V593.712H163.812V594.713H153.402V593.712H157.981V591.71H154.668V588.092H161.348V586.493H154.646V585.51H162.537V589.061H155.867V590.722H162.802V591.71H159.175ZM175.893 589.236H177.657V590.246H175.893V596.064H174.685V584.702H175.893V589.236ZM172.917 585.905C172.911 587.635 172.49 589.191 171.655 590.574C170.82 591.953 169.505 593.085 167.709 593.968L167.036 593.034C169.882 591.615 171.434 589.571 171.691 586.902H167.606V585.905H172.917ZM186.815 584.702V587.517H188.462V588.513H186.815V591.53H185.607V584.702H186.815ZM181.266 588.702C181.015 589.333 180.644 589.884 180.153 590.354C179.662 590.821 179.079 591.172 178.402 591.409L177.787 590.448C178.368 590.257 178.872 589.975 179.3 589.604C179.731 589.233 180.062 588.807 180.292 588.325C180.522 587.843 180.639 587.339 180.642 586.812V586.498H178.137V585.519H184.301V586.498H181.845V586.803C181.845 587.285 181.953 587.744 182.168 588.181C182.387 588.618 182.701 589.006 183.111 589.344C183.524 589.679 184.013 589.936 184.579 590.116L184.004 591.059C183.367 590.852 182.815 590.545 182.348 590.138C181.881 589.731 181.521 589.253 181.266 588.702ZM183.138 591.808C183.919 591.808 184.592 591.892 185.158 592.06C185.727 592.224 186.162 592.465 186.464 592.782C186.767 593.1 186.918 593.48 186.918 593.923C186.918 594.369 186.767 594.752 186.464 595.072C186.162 595.392 185.727 595.636 185.158 595.804C184.592 595.974 183.919 596.059 183.138 596.059C182.351 596.059 181.672 595.974 181.1 595.804C180.528 595.636 180.089 595.392 179.78 595.072C179.475 594.752 179.322 594.369 179.322 593.923C179.322 593.48 179.475 593.1 179.78 592.782C180.089 592.465 180.528 592.224 181.1 592.06C181.672 591.892 182.351 591.808 183.138 591.808ZM183.138 595.108C183.683 595.108 184.15 595.061 184.539 594.969C184.928 594.876 185.224 594.741 185.427 594.565C185.634 594.388 185.737 594.174 185.737 593.923C185.737 593.677 185.635 593.468 185.432 593.294C185.228 593.121 184.934 592.989 184.548 592.899C184.165 592.809 183.704 592.765 183.165 592.765C182.611 592.765 182.137 592.809 181.742 592.899C181.347 592.989 181.045 593.121 180.835 593.294C180.629 593.465 180.527 593.674 180.53 593.923C180.527 594.174 180.629 594.388 180.835 594.565C181.042 594.741 181.339 594.876 181.729 594.969C182.121 595.061 182.59 595.108 183.138 595.108ZM197.288 588.487V589.784H201.876V590.753H191.506V589.784H196.089V588.487H192.889V584.945H194.083V587.517H200.735V588.487H197.288ZM200.74 592.729H199.052V594.955H200.848V595.934H192.548V594.955H194.334V592.729H192.646V591.781H200.74V592.729ZM197.863 592.729H195.524V594.955H197.863V592.729ZM207.527 584.94C208.356 584.94 209.076 585.027 209.686 585.201C210.297 585.374 210.765 585.626 211.092 585.955C211.421 586.284 211.585 586.674 211.585 587.126C211.585 587.572 211.421 587.957 211.092 588.28C210.762 588.603 210.292 588.852 209.682 589.025C209.074 589.196 208.356 589.281 207.527 589.281C206.701 589.281 205.982 589.196 205.368 589.025C204.758 588.852 204.286 588.603 203.954 588.28C203.625 587.957 203.46 587.572 203.46 587.126C203.46 586.674 203.625 586.284 203.954 585.955C204.286 585.626 204.758 585.374 205.368 585.201C205.982 585.027 206.701 584.94 207.527 584.94ZM207.527 585.896C206.944 585.896 206.441 585.944 206.019 586.04C205.597 586.136 205.272 586.276 205.045 586.462C204.82 586.645 204.71 586.866 204.713 587.126C204.71 587.378 204.82 587.593 205.045 587.773C205.272 587.952 205.597 588.092 206.019 588.19C206.444 588.286 206.947 588.334 207.527 588.334C208.105 588.334 208.606 588.286 209.031 588.19C209.456 588.092 209.782 587.952 210.01 587.773C210.237 587.593 210.351 587.378 210.351 587.126C210.351 586.866 210.237 586.645 210.01 586.462C209.782 586.276 209.456 586.136 209.031 586.04C208.609 585.944 208.108 585.896 207.527 585.896ZM202.352 590.156H212.721V591.131H202.352V590.156ZM203.595 592.15H211.455V595.934H203.595V592.15ZM210.284 593.11H204.785V594.955H210.284V593.11Z" fill="#404040"/>
<path d="M130.767 595.126C130.085 595.126 129.464 594.979 128.904 594.686C128.344 594.39 127.893 593.906 127.548 593.236C127.204 592.562 127.032 591.689 127.032 590.614C127.035 589.594 127.191 588.712 127.499 587.97C127.81 587.228 128.25 586.661 128.819 586.269C129.387 585.877 130.053 585.681 130.816 585.681C131.418 585.681 131.958 585.798 132.437 586.031C132.916 586.265 133.3 586.585 133.59 586.992C133.881 587.399 134.057 587.855 134.12 588.361H132.239C132.161 588.038 131.997 587.783 131.746 587.598C131.494 587.412 131.184 587.319 130.816 587.319C130.406 587.319 130.058 587.438 129.77 587.674C129.486 587.907 129.271 588.244 129.124 588.684C128.98 589.121 128.907 589.642 128.904 590.246H128.985C129.197 589.842 129.515 589.526 129.936 589.299C130.358 589.069 130.827 588.953 131.342 588.953C131.886 588.953 132.377 589.081 132.814 589.335C133.254 589.589 133.598 589.942 133.846 590.394C134.095 590.846 134.219 591.355 134.219 591.921C134.219 592.537 134.074 593.089 133.784 593.577C133.496 594.062 133.091 594.442 132.567 594.717C132.043 594.99 131.443 595.126 130.767 595.126ZM130.736 593.622C131.044 593.622 131.322 593.55 131.57 593.406C131.819 593.26 132.013 593.061 132.154 592.809C132.295 592.558 132.365 592.28 132.365 591.974C132.365 591.672 132.295 591.397 132.154 591.148C132.016 590.9 131.825 590.704 131.579 590.56C131.334 590.417 131.057 590.345 130.749 590.345C130.444 590.345 130.165 590.418 129.914 590.565C129.663 590.712 129.464 590.911 129.317 591.162C129.173 591.41 129.1 591.684 129.097 591.983C129.097 592.28 129.167 592.554 129.308 592.805C129.452 593.056 129.648 593.255 129.896 593.402C130.147 593.549 130.427 593.622 130.736 593.622ZM138.717 595.198C137.951 595.198 137.291 595.009 136.737 594.632C136.184 594.252 135.759 593.704 135.462 592.989C135.169 592.271 135.024 591.412 135.027 590.412C135.027 589.419 135.175 588.567 135.471 587.858C135.768 587.149 136.191 586.609 136.742 586.238C137.295 585.866 137.954 585.681 138.717 585.681C139.48 585.681 140.138 585.868 140.692 586.242C141.246 586.613 141.669 587.153 141.962 587.863C142.259 588.572 142.407 589.422 142.407 590.412C142.407 591.415 142.259 592.275 141.962 592.993C141.669 593.709 141.246 594.255 140.692 594.632C140.138 595.009 139.48 595.198 138.717 595.198ZM138.717 593.608C139.076 593.608 139.386 593.489 139.646 593.249C139.907 593.01 140.107 592.652 140.248 592.176C140.391 591.698 140.463 591.11 140.463 590.412C140.463 589.724 140.391 589.143 140.248 588.671C140.104 588.198 139.902 587.843 139.642 587.607C139.381 587.37 139.073 587.252 138.717 587.252C138.358 587.252 138.047 587.372 137.783 587.611C137.523 587.851 137.322 588.208 137.182 588.684C137.041 589.16 136.971 589.743 136.971 590.435C136.971 591.126 137.041 591.71 137.182 592.185C137.325 592.658 137.527 593.014 137.788 593.254C138.051 593.49 138.361 593.608 138.717 593.608ZM143.632 587.53C143.632 587.156 143.713 586.815 143.874 586.507C144.036 586.196 144.268 585.949 144.57 585.766C144.876 585.584 145.235 585.492 145.648 585.492C146.073 585.492 146.436 585.584 146.738 585.766C147.044 585.946 147.274 586.191 147.43 586.502C147.585 586.811 147.663 587.153 147.663 587.53V588.015C147.663 588.389 147.584 588.73 147.425 589.039C147.27 589.347 147.039 589.591 146.734 589.77C146.429 589.95 146.067 590.04 145.648 590.04C145.226 590.04 144.862 589.95 144.557 589.77C144.255 589.588 144.024 589.342 143.866 589.034C143.71 588.726 143.632 588.386 143.632 588.015V587.53ZM145.387 595H144.22L150.541 585.807H151.708L145.387 595ZM144.934 588.015C144.934 588.267 144.991 588.478 145.104 588.648C145.218 588.819 145.399 588.904 145.648 588.904C145.902 588.904 146.085 588.82 146.195 588.653C146.306 588.482 146.361 588.27 146.361 588.015V587.53C146.361 587.27 146.307 587.055 146.2 586.884C146.092 586.713 145.908 586.628 145.648 586.628C145.399 586.628 145.218 586.716 145.104 586.893C144.991 587.07 144.934 587.282 144.934 587.53V588.015ZM148.35 592.791C148.35 592.42 148.429 592.081 148.588 591.772C148.746 591.461 148.977 591.214 149.279 591.032C149.584 590.846 149.945 590.753 150.361 590.753C150.786 590.753 151.15 590.845 151.452 591.027C151.757 591.207 151.988 591.452 152.143 591.763C152.299 592.072 152.377 592.414 152.377 592.791V593.276C152.377 593.647 152.297 593.988 152.139 594.3C151.98 594.608 151.748 594.853 151.443 595.036C151.141 595.221 150.78 595.314 150.361 595.314C149.939 595.314 149.577 595.221 149.275 595.036C148.972 594.853 148.742 594.608 148.583 594.3C148.428 593.988 148.35 593.647 148.35 593.276V592.791ZM149.638 593.276C149.638 593.525 149.695 593.736 149.809 593.909C149.926 594.08 150.11 594.165 150.361 594.165C150.612 594.165 150.795 594.08 150.909 593.909C151.022 593.739 151.079 593.528 151.079 593.276V592.791C151.079 592.534 151.024 592.32 150.913 592.15C150.805 591.976 150.621 591.889 150.361 591.889C150.11 591.889 149.926 591.977 149.809 592.154C149.695 592.328 149.638 592.54 149.638 592.791V593.276Z" fill="#191818"/>
<defs>
<linearGradient id="paint0_linear_266_1892" x1="98" y1="154" x2="98" y2="225" gradientUnits="userSpaceOnUse">
<stop stop-color="#5767C6"/>
<stop offset="1" stop-color="#0A339E"/>
</linearGradient>
<linearGradient id="paint1_linear_266_1892" x1="142" y1="171" x2="142" y2="225" gradientUnits="userSpaceOnUse">
<stop stop-color="#5767C6"/>
<stop offset="1" stop-color="#0A339E"/>
</linearGradient>
<linearGradient id="paint2_linear_266_1892" x1="186" y1="125" x2="186" y2="225" gradientUnits="userSpaceOnUse">
<stop stop-color="#5767C6"/>
<stop offset="1" stop-color="#0A339E"/>
</linearGradient>
<linearGradient id="paint3_linear_266_1892" x1="230" y1="154" x2="230" y2="225" gradientUnits="userSpaceOnUse">
<stop stop-color="#5767C6"/>
<stop offset="1" stop-color="#0A339E"/>
</linearGradient>
<linearGradient id="paint4_linear_266_1892" x1="274" y1="125" x2="274" y2="225" gradientUnits="userSpaceOnUse">
<stop stop-color="#5767C6"/>
<stop offset="1" stop-color="#0A339E"/>
</linearGradient>
<linearGradient id="paint5_linear_266_1892" x1="318" y1="125" x2="318" y2="225" gradientUnits="userSpaceOnUse">
<stop stop-color="#5767C6"/>
<stop offset="1" stop-color="#0A339E"/>
</linearGradient>
<linearGradient id="paint6_linear_266_1892" x1="362" y1="92" x2="362" y2="225" gradientUnits="userSpaceOnUse">
<stop stop-color="#5767C6"/>
<stop offset="1" stop-color="#0A339E"/>
</linearGradient>
</defs>
</svg>
