<svg xmlns="http://www.w3.org/2000/svg" width="420" height="210" fill="none"><path fill="#F4F6FC" d="M0 0h420v210H0z"/><path fill="#EEE" d="M30 77h368v1H30zM30 94h368v1H30zM30 111h368v1H30zM30 128h368v1H30zM30 145h368v1H30zM30 162h368v1H30zM30 179h368v1H30zM30 196h368v1H30z"/><path fill="url(#a)" d="M65 143a4 4 0 0 1 4-4h18a4 4 0 0 1 4 4v67H65z"/><path fill="url(#b)" d="M109 160a4 4 0 0 1 4-4h18a4 4 0 0 1 4 4v50h-26z"/><path fill="url(#c)" d="M153 114a4 4 0 0 1 4-4h18a4 4 0 0 1 4 4v96h-26z"/><path fill="url(#d)" d="M197 143a4 4 0 0 1 4-4h18a4 4 0 0 1 4 4v67h-26z"/><path fill="url(#e)" d="M241 114a4 4 0 0 1 4-4h18a4 4 0 0 1 4 4v96h-26z"/><path fill="url(#f)" d="M285 114a4 4 0 0 1 4-4h18a4 4 0 0 1 4 4v96h-26z"/><path fill="url(#g)" d="M329 81a4 4 0 0 1 4-4h18a4 4 0 0 1 4 4v129h-26z"/><path fill="#000" d="M39.002 35.774q1.274 0 1.974.574t.7 1.666-.7 1.666-1.974.574h-5.32q-1.274 0-1.974-.574t-.7-1.666.7-1.666 1.974-.574zm2.548-3.164h-1.512l-1.96-2.59a2.1 2.1 0 0 0-.378-.462q-.168-.14-.532-.14h-1.652q-.364 0-.532.14a2.1 2.1 0 0 0-.378.462l-1.96 2.59h-1.512l2.324-3.192H31.33v-1.26h4.312v-1.316h1.4v1.316h4.312v1.26h-2.128zm.686 2.31H30.448v-1.26h5.194v-2.114h1.4v2.114h5.194zm-3.416 4.074q.742 0 1.092-.266a.84.84 0 0 0 .364-.714.84.84 0 0 0-.364-.714q-.35-.266-1.092-.266h-4.956q-.742 0-1.106.266a.85.85 0 0 0-.35.714.85.85 0 0 0 .35.714q.364.266 1.106.266zm18.116-2.016h-1.4v-9.422h1.4zm.084 3.234h-9.786V35.76h1.4v3.192h8.386zm-3.22-8.386q0 .714-.266 1.288a2.9 2.9 0 0 1-.742.966 3.5 3.5 0 0 1-1.162.616q-.671.21-1.484.21-.825 0-1.498-.21a3.6 3.6 0 0 1-1.148-.616 2.9 2.9 0 0 1-.742-.966 3 3 0 0 1-.266-1.288v-1.274q0-.713.266-1.274a2.7 2.7 0 0 1 .742-.966q.477-.405 1.148-.616a4.7 4.7 0 0 1 1.498-.224q.813 0 1.484.224.687.21 1.162.616.477.391.742.966.267.56.266 1.274zm-1.4-1.204q0-.896-.63-1.386-.615-.504-1.624-.504-1.008 0-1.638.504-.615.49-.616 1.386v1.134q0 .896.616 1.4.63.49 1.638.49t1.624-.49q.63-.504.63-1.4zm14.004 3.836H58.76v-4.004h4.998v-1.512h-5.026V27.71h6.426v2.898q0 .546-.252.798t-.798.252H60.16v1.568h6.244zm2.8 5.754h-1.4v-3.388h-8.372v-1.26h9.772zm0-5.292h-1.4v-2.338h-2.086v-1.288h2.086v-1.33h-2.086v-1.288h2.086v-1.12h1.4zm15.484 2.198h-1.4v-3.682h-1.554v-1.288h1.554V30.58h-1.554v-1.176h-1.316q.378.168.602.616.225.448.224.924v1.512q0 2.73-3.36 2.73-1.638 0-2.506-.672-.855-.685-.854-2.058v-1.512q0-.49.224-.924.225-.448.602-.616h-1.498v-1.26h3.332v-1.302h1.4v1.302h3.332v1.148h1.372v-1.736h1.4zm-4.844-6.244q0-.686-.462-1.148-.448-.462-1.498-.462t-1.512.462q-.448.462-.448 1.148v1.554q0 .742.448 1.176.462.434 1.512.434t1.498-.434q.462-.434.462-1.176zm4.928 9.338h-9.786V36.04h1.4v2.912h8.386zm9.663-4.816h-8.288v-1.26h3.416v-.756q-2.59-.238-2.59-2.226v-.336q0-.49.224-.882a1.53 1.53 0 0 1 .616-.602H86.26v-1.26h3.304v-1.232h1.4v1.232h3.346v1.26h-1.554q.407.195.602.602.196.392.196.882v.336q0 1.988-2.59 2.226v.756h3.472zm-.322.84q1.275 0 1.974.49t.7 1.498q0 1.008-.7 1.498-.699.49-1.974.49h-4.886q-1.273 0-1.974-.49-.7-.49-.7-1.498t.7-1.498 1.974-.49zm2.422-.462h-1.4v-8.218h1.4v3.052h1.652v1.288h-1.652zm-2.604 3.178q1.456 0 1.456-.728t-1.456-.728H89.41q-1.455 0-1.456.728t1.456.728zm-1.778-8.302q0-.294-.112-.546a1.04 1.04 0 0 0-.322-.434 1.45 1.45 0 0 0-.588-.294 2.9 2.9 0 0 0-.868-.112q-.517 0-.882.112a1.45 1.45 0 0 0-.574.294q-.223.182-.336.434-.098.252-.098.546v.224q0 .686.42 1.036.435.35 1.47.35 1.036 0 1.456-.35.434-.35.434-1.036zM111.58 28.685h1.95V40h-2.044v-9.331h-.066l-2.647 1.69v-1.862zm8.234 11.47q-1.11 0-2.011-.415a3.5 3.5 0 0 1-1.42-1.149 2.94 2.94 0 0 1-.552-1.663h1.978q.033.453.309.818.276.36.718.563.447.2.978.2.624 0 1.122-.277.497-.282.773-.773.282-.498.282-1.122 0-.641-.293-1.144a2 2 0 0 0-.807-.79 2.4 2.4 0 0 0-1.16-.282q-1.337 0-1.856.967h-1.879l.674-6.403h6.685v1.702h-5.005l-.343 3.005h.1q.343-.38.928-.619.585-.237 1.271-.237 1.038 0 1.873.486.834.48 1.309 1.337.475.85.475 1.923 0 1.115-.53 2-.525.885-1.47 1.381-.939.492-2.149.492M133.692 34.95h-1.91v.714h-4.064v-3.926h4.064v.718h1.91V31.08h.925v5.166h-.925zm-5.055-.035h2.237v-2.434h-2.237zm5.055-.725v-.988h-1.91v.988zm-2.006 2.296q.915 0 1.578.2.666.198 1.022.574.359.376.359.9 0 .523-.359.895-.356.374-1.022.566-.663.195-1.578.194-.92 0-1.585-.194-.666-.192-1.022-.566a1.24 1.24 0 0 1-.349-.894q-.003-.525.352-.901.356-.377 1.022-.573.667-.2 1.582-.2m0 2.607q.635 0 1.091-.11.46-.111.704-.321a.64.64 0 0 0 .246-.501.66.66 0 0 0-.246-.518q-.241-.214-.701-.325a4.8 4.8 0 0 0-1.094-.114q-.643.004-1.102.114-.456.11-.697.325a.66.66 0 0 0-.239.518.64.64 0 0 0 .239.5q.242.211.701.322.459.11 1.098.11M235.596 34.21v-.756h1.678v-2.368h.925v6.409h-.925V34.21zm-2.013.104a3.67 3.67 0 0 1-2.193 2.11l-.48-.756a3.3 3.3 0 0 0 1.153-.653 3.1 3.1 0 0 0 .764-.994q.269-.563.269-1.164v-.345h-1.899v-.756h4.723v.756h-1.885v.345q0 .55.256 1.07.255.522.732.933.476.407 1.122.625l-.473.739a3.6 3.6 0 0 1-1.264-.75 3.45 3.45 0 0 1-.825-1.16m-.138 2.61v1.965h4.986v.76h-5.912v-2.724zm13.097.626h-.925v-2.973h-2.407v-.743h2.407v-.918h-2.407v-.74h2.407v-1.09h.925zm-2.244-1.564q-.968.179-1.872.245a29 29 0 0 1-1.992.069h-.674v-4.61h.922v3.836a26 26 0 0 0 1.785-.072 18 18 0 0 0 1.734-.232zm-2.521 1v1.904h4.993v.76h-5.929v-2.663zm14.579-2.437v-3.47h.881v8.75h-.881v-4.524h-1.132v4.075h-.857v-8.122h.857v3.291zm-5.4 2.393a21 21 0 0 0 1.502-.059q.645-.051 1.312-.18l.076.767q-.736.152-1.447.2t-1.792.056h-.58v-5.594h3.273v.753h-2.344zm13.435-5.863h.933v8.767h-.933zm-5.832.728h.926v2.248h2.361v-2.248h.916v5.947h-4.203zm.926 2.984v2.196h2.361V34.79zm15.404-3.712h.929v4.696h-.929zm-3.822.404q.663-.004 1.191.255.531.255.832.722.3.462.301 1.057 0 .585-.301 1.05a2 2 0 0 1-.832.714 2.7 2.7 0 0 1-1.191.256q-.667 0-1.199-.256a2.04 2.04 0 0 1-.832-.715q-.3-.462-.3-1.05 0-.593.3-1.056.304-.465.832-.722a2.7 2.7 0 0 1 1.199-.255m0 .78a1.6 1.6 0 0 0-.739.156q-.325.154-.508.442-.18.286-.176.656-.004.37.176.656.183.282.508.442.324.158.739.158.407 0 .728-.158.325-.16.504-.442.183-.287.183-.656t-.183-.657a1.17 1.17 0 0 0-.504-.441 1.6 1.6 0 0 0-.728-.156m-.978 3.937h.909v.98h3.898v-.98h.922v3.518h-5.729zm.909 1.712v1.05h3.898v-1.05zm12.721-3.342h1.402v.79h-1.402v4.469h-.929v-8.75h.929zm-3.785-1.264a4.3 4.3 0 0 0 .273 1.516q.279.75.78 1.343.504.594 1.143.908l-.57.743a3.8 3.8 0 0 1-1.246-1.06 5.2 5.2 0 0 1-.832-1.582 5.5 5.5 0 0 1-.857 1.685 3.9 3.9 0 0 1-1.295 1.122l-.576-.745q.66-.318 1.17-.936.514-.622.798-1.41a4.7 4.7 0 0 0 .29-1.584v-1.499h.922zm9.292.894q-.987-.003-1.688-.18-.701-.175-1.071-.514a1.07 1.07 0 0 1-.369-.822q0-.48.369-.818.37-.339 1.071-.514.704-.177 1.688-.177t1.685.177 1.067.514q.37.338.37.818 0 .485-.37.822-.365.338-1.067.515-.697.175-1.685.18m0-2.327q-.69 0-1.177.097-.484.096-.736.28-.248.179-.245.434-.003.4.549.608.556.208 1.609.21 1.06-.003 1.616-.21t.556-.608q0-.386-.563-.597-.56-.21-1.609-.214m3.995 2.8v.743h-2.147v.78h1.136v2.048h-5.09v.784h5.342v.718h-6.25v-2.169h5.086v-.687h-5.104v-.694h1.164v-.78h-2.113v-.743zm-4.944 1.523h1.871v-.78h-1.871zm27.48-2.186a5.8 5.8 0 0 0 1.44-.335q.653-.248 1.05-.614.4-.366.456-.788h-2.635v-.763h6.53v.763h-2.649q.052.418.449.784t1.053.618q.656.25 1.457.335l-.334.729a6.2 6.2 0 0 1-1.413-.321 4.2 4.2 0 0 1-1.129-.598 2.4 2.4 0 0 1-.711-.821q-.236.46-.708.821-.473.363-1.126.598a6.2 6.2 0 0 1-1.409.321zm-.418 1.944v-.756h7.977v.756zm3.978.674q.94 0 1.616.19.68.186 1.043.545t.366.864a1.17 1.17 0 0 1-.366.86q-.359.359-1.039.541-.677.187-1.62.187-.945 0-1.63-.186-.68-.184-1.042-.543a1.16 1.16 0 0 1-.363-.86q0-.503.363-.863.362-.36 1.042-.545.685-.19 1.63-.19m0 2.455q.998 0 1.547-.221.549-.222.553-.636-.004-.417-.553-.642-.548-.225-1.547-.231-1.008.008-1.554.231-.542.225-.538.642-.004.415.538.636.546.22 1.554.22m11.181-4.517h1.357v.777h-1.357v4.475h-.929v-8.74h.929zm-2.289-2.562q-.007 1.996-.97 3.591-.964 1.593-3.036 2.61l-.518-.717q3.284-1.638 3.581-4.717h-3.142v-.767z"/><path fill="#00AEAE" d="M297.642 31.928h1.219V39h-1.278v-5.832h-.041l-1.654 1.056v-1.163zM301.863 39h-1.323l3.07-5.956v-.052h-3.557v-1.064h4.876v1.091zm3.972-5.746q0-.417.176-.763.179-.35.518-.552.342-.204.801-.204.472 0 .808.204.338.203.511.549.172.345.172.766v.373q0 .418-.176.763-.172.345-.511.55a1.53 1.53 0 0 1-.804.203q-.47 0-.808-.204a1.34 1.34 0 0 1-.515-.549 1.7 1.7 0 0 1-.172-.763zM307.088 39h-.86l4.862-7.072h.86zm-.345-5.373q0 .31.141.521.142.21.446.211.307 0 .445-.207a.9.9 0 0 0 .142-.525v-.373a.94.94 0 0 0-.135-.525q-.135-.21-.452-.21-.301 0-.446.214a.93.93 0 0 0-.141.521zm2.686 3.674q0-.417.176-.763a1.34 1.34 0 0 1 .515-.552 1.53 1.53 0 0 1 .804-.204q.47 0 .808.204t.511.549.173.766v.373q0 .418-.176.767-.176.345-.515.549a1.5 1.5 0 0 1-.801.203q-.47 0-.808-.203a1.34 1.34 0 0 1-.514-.55 1.7 1.7 0 0 1-.173-.766zm.901.373q0 .31.142.521.141.21.452.211.308 0 .446-.21a.9.9 0 0 0 .141-.522v-.373a.93.93 0 0 0-.138-.525q-.134-.21-.449-.21-.303 0-.449.214a.9.9 0 0 0-.145.521z"/><path fill="#000" d="M350.524 39.846v-8.767h.925v8.767zm-2.922-2.562q1.316-.07 2.372-.221l.073.677q-.863.162-1.796.245-.929.082-1.736.107-.805.024-1.865.034l-.276.004-.114-.774q1.433 0 2.424-.03v-1.354h-1.775v-4.127h4.548v.753h-3.612v.936h3.435v.721h-3.435v.978h3.65v.739h-1.893zm11.772-2.714h1.402v.79h-1.402v4.469h-.929v-8.75h.929zm-3.785-1.264a4.3 4.3 0 0 0 .273 1.516q.28.75.78 1.343.504.594 1.143.908l-.569.743a3.8 3.8 0 0 1-1.247-1.06 5.2 5.2 0 0 1-.832-1.582 5.5 5.5 0 0 1-.857 1.685 3.86 3.86 0 0 1-1.294 1.122l-.577-.745q.66-.318 1.17-.936a4.7 4.7 0 0 0 .798-1.41 4.7 4.7 0 0 0 .29-1.584v-1.499h.922zm9.292.894q-.987-.003-1.688-.18-.701-.175-1.071-.514a1.07 1.07 0 0 1-.369-.822q0-.48.369-.818.37-.339 1.071-.514.704-.177 1.688-.177t1.685.177 1.067.514q.37.338.37.818 0 .485-.37.822-.366.338-1.067.515-.697.175-1.685.18m0-2.327q-.69 0-1.177.097-.483.096-.736.28-.248.179-.245.434-.003.4.549.608.556.208 1.609.21 1.06-.003 1.616-.21t.556-.608q0-.386-.563-.597-.559-.21-1.609-.214m3.995 2.8v.743h-2.147v.78h1.136v2.048h-5.09v.784h5.342v.718h-6.25v-2.169h5.086v-.687h-5.103v-.694h1.163v-.78H360.9v-.743zm-4.944 1.523h1.871v-.78h-1.871zm23.825-2.186a5.8 5.8 0 0 0 1.44-.335q.653-.248 1.05-.614.4-.366.456-.788h-2.635v-.763h6.53v.763h-2.649q.052.418.449.784t1.053.618q.656.25 1.457.335l-.334.729a6.2 6.2 0 0 1-1.413-.321 4.2 4.2 0 0 1-1.129-.598 2.4 2.4 0 0 1-.711-.821q-.236.46-.708.821-.473.363-1.126.598a6.2 6.2 0 0 1-1.409.321zm-.418 1.944v-.756h7.977v.756zm3.978.674q.94 0 1.616.19.68.186 1.043.545t.366.864a1.17 1.17 0 0 1-.366.86q-.359.359-1.039.541-.676.187-1.62.187t-1.63-.186q-.68-.184-1.042-.543a1.16 1.16 0 0 1-.363-.86q0-.503.363-.863.362-.36 1.042-.545.685-.19 1.63-.19m0 2.455q.998 0 1.547-.221.549-.222.553-.636-.004-.417-.553-.642-.548-.225-1.547-.231-1.008.008-1.554.231-.542.225-.538.642-.004.415.538.636.546.22 1.554.22m11.181-4.517h1.357v.777h-1.357v4.475h-.929v-8.74h.929zm-2.289-2.562q-.007 1.996-.97 3.591-.964 1.593-3.036 2.61l-.518-.717q3.284-1.638 3.581-4.717h-3.142v-.767z"/><path fill="#00AEAE" d="M374.212 39.097a3.6 3.6 0 0 1-1.392-.256q-.61-.259-.953-.711a1.65 1.65 0 0 1-.338-1.026 1.7 1.7 0 0 1 .197-.818 1.79 1.79 0 0 1 1.315-.943v-.045a1.5 1.5 0 0 1-.649-.3 1.6 1.6 0 0 1-.442-.556 1.7 1.7 0 0 1-.155-.715q0-.538.311-.97.314-.435.866-.68a3 3 0 0 1 1.24-.245q.687 0 1.236.245.553.245.867.68.314.432.314.97a1.6 1.6 0 0 1-.608 1.27q-.282.225-.642.301v.045q.418.066.763.314.35.25.553.629.204.38.203.818 0 .57-.345 1.026-.345.451-.96.711a3.6 3.6 0 0 1-1.381.256m0-4.21q.339 0 .604-.13.267-.132.418-.367a1 1 0 0 0 .152-.542q0-.3-.148-.532a1 1 0 0 0-.418-.359 1.36 1.36 0 0 0-.608-.131q-.349 0-.615.131a1 1 0 0 0-.414.36 1 1 0 0 0-.145.531q0 .304.148.542.153.236.418.366.27.131.608.131m0 3.229q.411 0 .722-.138a1.13 1.13 0 0 0 .483-.39q.17-.252.169-.574 0-.33-.179-.597a1.2 1.2 0 0 0-.491-.414 1.6 1.6 0 0 0-.704-.152q-.393 0-.708.152a1.17 1.17 0 0 0-.49.414 1.04 1.04 0 0 0-.173.597q-.003.322.162.574.17.248.48.39a1.8 1.8 0 0 0 .729.138m3.623-4.862q0-.417.176-.763.179-.35.518-.552.342-.204.801-.204.472 0 .808.204.338.203.511.549.172.345.172.766v.373q0 .418-.176.763-.172.345-.511.55a1.53 1.53 0 0 1-.804.203q-.47 0-.808-.204a1.34 1.34 0 0 1-.515-.549 1.7 1.7 0 0 1-.172-.763zM379.088 39h-.86l4.862-7.072h.86zm-.345-5.373q0 .31.141.521.142.21.446.211.307 0 .445-.207a.9.9 0 0 0 .142-.525v-.373a.94.94 0 0 0-.135-.525q-.135-.21-.452-.21-.301 0-.446.214a.93.93 0 0 0-.141.521zm2.686 3.674q0-.417.176-.763a1.34 1.34 0 0 1 .515-.552 1.53 1.53 0 0 1 .804-.204q.47 0 .808.204t.511.549.173.766v.373q0 .418-.176.767-.176.345-.515.549a1.5 1.5 0 0 1-.801.203q-.47 0-.808-.203a1.34 1.34 0 0 1-.514-.55 1.7 1.7 0 0 1-.173-.766zm.901.373q0 .31.142.521.141.21.452.211.308 0 .446-.21a.9.9 0 0 0 .141-.522v-.373a.93.93 0 0 0-.138-.525q-.134-.21-.449-.21-.303 0-.449.214a.9.9 0 0 0-.145.521z"/><defs><linearGradient id="a" x1="78" x2="78" y1="139" y2="210" gradientUnits="userSpaceOnUse"><stop stop-color="#5767C6"/><stop offset="1" stop-color="#0A339E"/></linearGradient><linearGradient id="b" x1="122" x2="122" y1="156" y2="210" gradientUnits="userSpaceOnUse"><stop stop-color="#5767C6"/><stop offset="1" stop-color="#0A339E"/></linearGradient><linearGradient id="c" x1="166" x2="166" y1="110" y2="210" gradientUnits="userSpaceOnUse"><stop stop-color="#5767C6"/><stop offset="1" stop-color="#0A339E"/></linearGradient><linearGradient id="d" x1="210" x2="210" y1="139" y2="210" gradientUnits="userSpaceOnUse"><stop stop-color="#5767C6"/><stop offset="1" stop-color="#0A339E"/></linearGradient><linearGradient id="e" x1="254" x2="254" y1="110" y2="210" gradientUnits="userSpaceOnUse"><stop stop-color="#5767C6"/><stop offset="1" stop-color="#0A339E"/></linearGradient><linearGradient id="f" x1="298" x2="298" y1="110" y2="210" gradientUnits="userSpaceOnUse"><stop stop-color="#5767C6"/><stop offset="1" stop-color="#0A339E"/></linearGradient><linearGradient id="g" x1="342" x2="342" y1="77" y2="210" gradientUnits="userSpaceOnUse"><stop stop-color="#5767C6"/><stop offset="1" stop-color="#0A339E"/></linearGradient></defs></svg>