<svg width="420" height="200" viewBox="0 0 420 200" fill="none" xmlns="http://www.w3.org/2000/svg">
<rect width="420" height="200" fill="#F4F6FC"/>
<path d="M44.232 35.004H42.762L41.18 29.264C41.152 29.152 41.1193 29.0773 41.082 29.04C41.0447 28.9933 40.9747 28.97 40.872 28.97H39.906C39.8033 28.97 39.7333 28.9933 39.696 29.04C39.6587 29.0867 39.626 29.1613 39.598 29.264L37.932 35.004H36.462L38.226 28.97H36.644V27.71H44.288V28.97H42.566L44.232 35.004ZM47.536 40.212H37.75V35.76H39.15V38.952H47.536V40.212ZM47.452 36.978H46.052V31.882H43.798V30.594H46.052V27.556H47.452V36.978ZM59.7195 40.212H58.3195V36.544H49.9475V35.284H59.7195V40.212ZM59.7195 34.64H58.3195V27.556H59.7195V34.64ZM56.6395 34.36H55.1695L53.5875 29.264C53.5502 29.152 53.5128 29.0773 53.4755 29.04C53.4475 28.9933 53.3822 28.97 53.2795 28.97H52.3135C52.2108 28.97 52.1408 28.9933 52.1035 29.04C52.0755 29.0867 52.0428 29.1613 52.0055 29.264L50.3395 34.36H48.8695L50.6335 28.97H48.9115V27.71H56.8355V28.97H54.9735L56.6395 34.36ZM68.711 31.098C68.5337 31.406 68.277 31.6673 67.941 31.882C67.6143 32.0967 67.2223 32.26 66.765 32.372C66.3077 32.484 65.8037 32.54 65.253 32.54C64.7023 32.54 64.1937 32.484 63.727 32.372C63.2697 32.26 62.8777 32.0967 62.551 31.882C62.2243 31.6673 61.9677 31.406 61.781 31.098C61.6037 30.7807 61.515 30.4167 61.515 30.006C61.515 29.6047 61.6037 29.2453 61.781 28.928C61.9677 28.6107 62.2243 28.3447 62.551 28.13C62.8777 27.9153 63.2697 27.752 63.727 27.64C64.1937 27.528 64.7023 27.472 65.253 27.472C65.8037 27.472 66.3077 27.528 66.765 27.64C67.2223 27.752 67.6143 27.9153 67.941 28.13C68.277 28.3447 68.5337 28.6107 68.711 28.928C68.8977 29.2453 68.991 29.6047 68.991 30.006C68.991 30.4167 68.8977 30.7807 68.711 31.098ZM71.847 37.888H70.447V36.558H67.325V35.326H70.447V27.556H71.847V37.888ZM71.931 40.212H61.865V36.712H63.265V38.952H71.931V40.212ZM69.537 34.43H65.729V36.642H64.329V34.43H61.179V33.17H69.537V34.43ZM66.933 30.986C67.3717 30.7807 67.591 30.454 67.591 30.006C67.591 29.558 67.3717 29.236 66.933 29.04C66.5037 28.8347 65.9437 28.732 65.253 28.732C64.5623 28.732 63.9977 28.8347 63.559 29.04C63.1297 29.236 62.915 29.558 62.915 30.006C62.915 30.454 63.1297 30.7807 63.559 30.986C63.9977 31.182 64.5623 31.28 65.253 31.28C65.9437 31.28 66.5037 31.182 66.933 30.986ZM88.2552 39.372H76.4672V38.112H80.8492V32.848H82.2492V38.112H88.2552V39.372ZM87.0092 35.48H85.6092L86.0292 29.348C86.0572 29.0867 85.9266 28.956 85.6372 28.956H77.3492V27.696H86.7992C87.0419 27.696 87.2239 27.766 87.3452 27.906C87.4759 28.046 87.5319 28.2327 87.5132 28.466L87.0092 35.48ZM100.523 34.864H88.7347V33.604H91.6047V32.316C90.8767 32.26 90.3074 32.0267 89.8967 31.616C89.4954 31.2053 89.2947 30.6407 89.2947 29.922C89.2947 29.1473 89.5281 28.5547 89.9947 28.144C90.4614 27.724 91.1194 27.514 91.9687 27.514H97.2887C98.1381 27.514 98.7961 27.7287 99.2627 28.158C99.7294 28.578 99.9627 29.166 99.9627 29.922C99.9627 30.622 99.7574 31.182 99.3467 31.602C98.9454 32.0127 98.3807 32.2507 97.6527 32.316V33.604H100.523V34.864ZM97.2887 35.634C98.1381 35.634 98.7961 35.8347 99.2627 36.236C99.7294 36.6373 99.9627 37.2067 99.9627 37.944C99.9627 38.6813 99.7294 39.2507 99.2627 39.652C98.7961 40.0533 98.1381 40.254 97.2887 40.254H91.9687C91.1194 40.254 90.4614 40.0533 89.9947 39.652C89.5281 39.2507 89.2947 38.6813 89.2947 37.944C89.2947 37.2067 89.5281 36.6373 89.9947 36.236C90.4614 35.8347 91.1194 35.634 91.9687 35.634H97.2887ZM97.1067 31.07C97.6014 31.07 97.9654 30.9673 98.1987 30.762C98.4414 30.5567 98.5627 30.2767 98.5627 29.922C98.5627 29.5673 98.4414 29.2873 98.1987 29.082C97.9654 28.8767 97.6014 28.774 97.1067 28.774H92.1507C91.6561 28.774 91.2874 28.8767 91.0447 29.082C90.8114 29.2873 90.6947 29.5673 90.6947 29.922C90.6947 30.2767 90.8114 30.5567 91.0447 30.762C91.2874 30.9673 91.6561 31.07 92.1507 31.07H97.1067ZM97.1067 38.994C97.6014 38.994 97.9654 38.896 98.1987 38.7C98.4414 38.5133 98.5627 38.2613 98.5627 37.944C98.5627 37.6267 98.4414 37.3747 98.1987 37.188C97.9654 36.992 97.6014 36.894 97.1067 36.894H92.1507C91.6561 36.894 91.2874 36.992 91.0447 37.188C90.8114 37.3747 90.6947 37.6267 90.6947 37.944C90.6947 38.2613 90.8114 38.5133 91.0447 38.7C91.2874 38.896 91.6561 38.994 92.1507 38.994H97.1067ZM96.2527 33.604V32.33H93.0047V33.604H96.2527ZM112.006 35.06H110.606V33.17H109.052V31.882H110.606V30.454H109.052V29.404H107.736C107.988 29.516 108.189 29.7213 108.338 30.02C108.488 30.3187 108.562 30.6267 108.562 30.944V31.868C108.562 33.688 107.442 34.598 105.202 34.598C104.11 34.598 103.275 34.374 102.696 33.926C102.127 33.4687 101.842 32.7827 101.842 31.868V30.944C101.842 30.6173 101.917 30.3093 102.066 30.02C102.216 29.7213 102.416 29.516 102.668 29.404H101.17V28.144H104.502V26.842H105.902V28.144H109.234V29.166H110.606V27.556H112.006V35.06ZM109.584 35.508C110.434 35.508 111.092 35.7133 111.558 36.124C112.025 36.5253 112.258 37.104 112.258 37.86C112.258 38.616 112.025 39.1947 111.558 39.596C111.092 40.0067 110.434 40.212 109.584 40.212H104.698C103.849 40.212 103.191 40.0067 102.724 39.596C102.258 39.1947 102.024 38.616 102.024 37.86C102.024 37.104 102.258 36.5253 102.724 36.124C103.191 35.7133 103.849 35.508 104.698 35.508H109.584ZM109.402 38.952C109.897 38.952 110.261 38.854 110.494 38.658C110.737 38.462 110.858 38.196 110.858 37.86C110.858 37.524 110.737 37.258 110.494 37.062C110.261 36.866 109.897 36.768 109.402 36.768H104.88C104.386 36.768 104.017 36.866 103.774 37.062C103.541 37.258 103.424 37.524 103.424 37.86C103.424 38.196 103.541 38.462 103.774 38.658C104.017 38.854 104.386 38.952 104.88 38.952H109.402ZM107.162 30.874C107.162 30.4167 107.008 30.034 106.7 29.726C106.402 29.418 105.902 29.264 105.202 29.264C104.502 29.264 103.998 29.418 103.69 29.726C103.392 30.034 103.242 30.4167 103.242 30.874V31.84C103.242 32.3347 103.392 32.7267 103.69 33.016C103.998 33.3053 104.502 33.45 105.202 33.45C105.902 33.45 106.402 33.3053 106.7 33.016C107.008 32.7267 107.162 32.3347 107.162 31.84V30.874ZM124.624 40.212H123.224V33.548H121.586V40.212H120.2V27.556H121.586V32.26H123.224V27.556H124.624V40.212ZM119.36 38.98H113.718V28.55C113.718 28.2513 113.783 28.0367 113.914 27.906C114.044 27.7753 114.259 27.71 114.558 27.71H119.01V28.942H115.104V32.414H118.912V33.618H115.104V37.748H119.36V38.98ZM140.542 35.592H135.348V40.212H133.948V35.592H128.754V34.332H140.542V35.592ZM139.296 33.492H137.896L138.316 29.348C138.344 29.0867 138.213 28.956 137.924 28.956H129.636V27.696H139.086C139.329 27.696 139.511 27.766 139.632 27.906C139.763 28.046 139.819 28.2327 139.8 28.466L139.296 33.492ZM144.717 40.212C143.868 40.212 143.21 39.9927 142.743 39.554C142.277 39.1247 142.043 38.5133 142.043 37.72C142.043 36.9267 142.277 36.3153 142.743 35.886C143.21 35.4473 143.868 35.228 144.717 35.228H149.603C150.453 35.228 151.111 35.4473 151.577 35.886C152.044 36.3153 152.277 36.9267 152.277 37.72C152.277 38.5133 152.044 39.1247 151.577 39.554C151.111 39.9927 150.453 40.212 149.603 40.212H144.717ZM152.025 34.78H150.625V31.574H148.399V34.36H146.999V28.97H145.767C145.469 28.97 145.254 29.0307 145.123 29.152C145.002 29.264 144.89 29.432 144.787 29.656L142.701 34.36H141.147L143.359 29.334C143.481 29.0727 143.593 28.8393 143.695 28.634C143.798 28.4287 143.919 28.2607 144.059 28.13C144.209 27.99 144.386 27.8873 144.591 27.822C144.797 27.7473 145.058 27.71 145.375 27.71H148.399V30.286H150.625V27.556H152.025V34.78ZM149.421 38.952C149.916 38.952 150.28 38.8353 150.513 38.602C150.756 38.378 150.877 38.084 150.877 37.72C150.877 37.356 150.756 37.062 150.513 36.838C150.28 36.6047 149.916 36.488 149.421 36.488H144.899C144.405 36.488 144.036 36.6047 143.793 36.838C143.56 37.062 143.443 37.356 143.443 37.72C143.443 38.084 143.56 38.378 143.793 38.602C144.036 38.8353 144.405 38.952 144.899 38.952H149.421ZM164.164 38.07C164.164 38.434 164.08 38.7 163.912 38.868C163.744 39.036 163.478 39.12 163.114 39.12H157.066V27.64H158.466V31.798H162.764V27.64H164.164V38.07ZM162.764 37.86V33.058H158.466V37.86H162.764ZM167.51 40.212H166.11V27.556H167.51V40.212ZM179.889 40.254H169.585V36.908H178.349V36.068H169.557V34.808H171.643V33.688H168.773V32.428H180.561V33.688H177.691V34.808H179.749V37.3C179.749 37.5987 179.684 37.8133 179.553 37.944C179.422 38.0747 179.208 38.14 178.909 38.14H170.985V38.994H179.889V40.254ZM177.327 27.514C178.176 27.514 178.834 27.696 179.301 28.06C179.768 28.4147 180.001 28.9327 180.001 29.614C180.001 30.2953 179.768 30.818 179.301 31.182C178.834 31.5367 178.176 31.714 177.327 31.714H172.007C171.158 31.714 170.5 31.5413 170.033 31.196C169.566 30.8413 169.333 30.314 169.333 29.614C169.333 28.914 169.566 28.3913 170.033 28.046C170.5 27.6913 171.158 27.514 172.007 27.514H177.327ZM177.145 30.454C178.116 30.454 178.601 30.174 178.601 29.614C178.601 29.054 178.116 28.774 177.145 28.774H172.189C171.218 28.774 170.733 29.054 170.733 29.614C170.733 30.174 171.218 30.454 172.189 30.454H177.145ZM176.291 34.808V33.688H173.043V34.808H176.291Z" fill="black"/>
<path d="M376 97C376 131.794 347.794 160 313 160C278.206 160 250 131.794 250 97C250 62.2061 278.206 34 313 34C347.794 34 376 62.2061 376 97ZM270.364 97C270.364 120.547 289.453 139.636 313 139.636C336.547 139.636 355.636 120.547 355.636 97C355.636 73.453 336.547 54.3643 313 54.3643C289.453 54.3643 270.364 73.453 270.364 97Z" fill="#F5784B"/>
<path d="M313 34C299.278 34 285.931 38.4802 274.988 46.7595C264.045 55.0388 256.105 66.6646 252.374 79.8696C248.643 93.0746 249.325 107.137 254.317 119.919C259.309 132.7 268.337 143.503 280.03 150.684C291.723 157.865 305.441 161.032 319.098 159.704C332.756 158.376 345.606 152.625 355.696 143.325C365.787 134.025 372.564 121.686 375 108.181C377.435 94.6772 375.395 80.7471 369.189 68.5085L351.026 77.7182C355.226 86.0007 356.607 95.428 354.959 104.567C353.311 113.706 348.724 122.057 341.895 128.351C335.067 134.644 326.37 138.537 317.127 139.435C307.884 140.334 298.601 138.191 290.687 133.331C282.774 128.471 276.664 121.16 273.286 112.51C269.907 103.86 269.446 94.3435 271.971 85.4069C274.496 76.4703 279.87 68.6025 287.275 62.9994C294.681 57.3963 303.714 54.3643 313 54.3643L313 34Z" fill="#FFC38F"/>
<path d="M313 34C303.598 34 294.316 36.1043 285.833 40.1585C277.35 44.2127 269.883 50.114 263.978 57.4298C258.072 64.7456 253.879 73.2903 251.706 82.4374C249.533 91.5845 249.435 101.102 251.418 110.292C253.402 119.482 257.417 128.112 263.17 135.548C268.922 142.984 276.267 149.039 284.664 153.268C293.061 157.496 302.298 159.792 311.697 159.987C321.097 160.181 330.421 158.269 338.986 154.391L330.586 135.84C324.79 138.464 318.48 139.758 312.118 139.627C305.757 139.495 299.506 137.941 293.823 135.08C288.14 132.218 283.17 128.12 279.277 123.088C275.384 118.055 272.666 112.215 271.324 105.995C269.982 99.776 270.048 93.335 271.519 87.1446C272.99 80.9543 275.827 75.1716 279.824 70.2206C283.82 65.2696 288.874 61.2758 294.615 58.5321C300.355 55.7884 306.637 54.3643 313 54.3643L313 34Z" fill="#61CDBB"/>
<path d="M41.9613 67.7189C41.6022 68.6287 41.0097 69.4023 40.1837 70.0397C39.3577 70.6771 38.3163 71.1709 37.0594 71.5211L36.4983 70.4078C37.818 70.0487 38.8415 69.5429 39.5687 68.8905C40.2989 68.2381 40.7209 67.478 40.8346 66.6102H37.1043V65.461H42.3698C42.3698 65.859 42.3384 66.2391 42.2756 66.6012H44.5829V64.6664H45.9924V71.3684H44.5829V70.1026H41.8491V68.9624H44.5829V67.7189H41.9613ZM42.1948 71.4986C42.9669 71.4986 43.6447 71.5914 44.2282 71.7769C44.8118 71.9595 45.2637 72.2228 45.5839 72.567C45.9071 72.9081 46.0687 73.3107 46.0687 73.7745C46.0687 74.2414 45.9071 74.6484 45.5839 74.9955C45.2637 75.3397 44.8103 75.6045 44.2238 75.7901C43.6402 75.9756 42.9639 76.0684 42.1948 76.0684C41.4167 76.0684 40.7329 75.9756 40.1433 75.7901C39.5567 75.6045 39.1034 75.3397 38.7831 74.9955C38.4629 74.6484 38.3028 74.2414 38.3028 73.7745C38.3028 73.3107 38.4629 72.9081 38.7831 72.567C39.1034 72.2228 39.5567 71.9595 40.1433 71.7769C40.7299 71.5914 41.4137 71.4986 42.1948 71.4986ZM42.1948 74.9461C42.7005 74.9461 43.1374 74.9012 43.5055 74.8115C43.8736 74.7217 44.1564 74.5885 44.3539 74.4119C44.5544 74.2354 44.6562 74.0229 44.6592 73.7745C44.6562 73.5231 44.5544 73.3107 44.3539 73.1371C44.1564 72.9605 43.8736 72.8273 43.5055 72.7376C43.1374 72.6478 42.7005 72.6044 42.1948 72.6074C41.68 72.6044 41.2356 72.6478 40.8615 72.7376C40.4904 72.8273 40.2061 72.9605 40.0086 73.1371C39.8111 73.3107 39.7124 73.5231 39.7124 73.7745C39.7124 74.0259 39.8111 74.2399 40.0086 74.4164C40.2061 74.59 40.4904 74.7217 40.8615 74.8115C41.2356 74.9012 41.68 74.9461 42.1948 74.9461ZM55.4282 66.2959V64.6664H56.8378V71.7231H55.4282V69.8377H53.3992V68.7065H55.4282V67.4182H53.3992V66.2959H55.4282ZM53.3409 71.0632C52.6945 71.1739 52.0346 71.2472 51.3612 71.2831C50.6879 71.3161 49.7467 71.334 48.5377 71.337H47.6893V67.7414H51.2984V66.453H47.6713V65.3353H52.7034V68.7963H49.0853V70.2058C50.0579 70.2028 50.842 70.1834 51.4375 70.1474C52.0331 70.1085 52.6241 70.0337 53.2107 69.923L53.3409 71.0632ZM55.4282 73.4019H48.9911V72.2662H56.8378V76.1312H55.4282V73.4019ZM66.2107 71.5749V64.6575H67.6247V71.5749H66.2107ZM61.7397 68.7648C61.4734 69.3694 61.0978 69.8961 60.613 70.345C60.1282 70.7909 59.5536 71.1275 58.8893 71.355L58.1576 70.2642C58.7561 70.0637 59.2693 69.7764 59.6973 69.4023C60.1252 69.0282 60.4484 68.6032 60.6669 68.1274C60.8853 67.6516 60.9961 67.1593 60.9991 66.6506V66.5069H58.5301V65.3712H64.8461V66.5069H62.431V66.6506C62.431 67.1294 62.5388 67.5932 62.7542 68.0421C62.9727 68.491 63.2914 68.892 63.7104 69.2452C64.1323 69.5953 64.6396 69.8616 65.2321 70.0442L64.5094 71.135C63.869 70.9315 63.3139 70.6248 62.844 70.2148C62.3742 69.8048 62.0061 69.3215 61.7397 68.7648ZM66.2107 73.2448H59.8005V72.1091H67.6247V76.1222H66.2107V73.2448Z" fill="#00AEAE"/>
<path d="M80.0195 67.4765V64.7023H81.2225V71.337H80.0195V68.4731H77.8827V67.4765H80.0195ZM75.2163 68.5404C74.9619 69.1748 74.5908 69.7285 74.103 70.2013C73.6152 70.6741 73.0377 71.0273 72.3703 71.2607L71.7463 70.318C72.3179 70.1205 72.8177 69.8332 73.2456 69.4561C73.6766 69.0761 74.0073 68.6421 74.2377 68.1544C74.4711 67.6666 74.5878 67.1623 74.5878 66.6416V66.3722H72.1189V65.3847H78.2598V66.3722H75.8088V66.6461C75.8088 67.1189 75.9181 67.5813 76.1365 68.0331C76.358 68.485 76.6752 68.889 77.0882 69.2452C77.5042 69.6013 77.992 69.8766 78.5516 70.0711L77.9366 71.0228C77.3051 70.8043 76.756 70.4796 76.2891 70.0487C75.8253 69.6177 75.4677 69.115 75.2163 68.5404ZM81.2225 75.9337H73.7125V71.8622H81.2225V75.9337ZM80.0419 72.8229H74.92V74.9551H80.0419V72.8229ZM87.7495 70.116C86.9534 70.119 86.2487 70.0203 85.6352 69.8198C85.0247 69.6192 84.5504 69.332 84.2122 68.9579C83.874 68.5838 83.7049 68.1469 83.7049 67.6471C83.7049 67.1413 83.874 66.6999 84.2122 66.3229C84.5504 65.9428 85.0247 65.6495 85.6352 65.443C86.2457 65.2365 86.9505 65.1318 87.7495 65.1288C88.5485 65.1318 89.2548 65.2365 89.8683 65.443C90.4818 65.6495 90.9576 65.9428 91.2958 66.3229C91.6369 66.6999 91.8075 67.1413 91.8075 67.6471C91.8075 68.1469 91.6369 68.5838 91.2958 68.9579C90.9576 69.332 90.4818 69.6192 89.8683 69.8198C89.2548 70.0203 88.5485 70.119 87.7495 70.116ZM87.7495 66.1074C87.1899 66.1074 86.6976 66.1702 86.2726 66.2959C85.8477 66.4186 85.5185 66.5967 85.2851 66.8301C85.0546 67.0605 84.9409 67.3329 84.9439 67.6471C84.9409 67.9553 85.0546 68.2232 85.2851 68.4506C85.5185 68.6781 85.8477 68.8531 86.2726 68.9758C86.6976 69.0985 87.1899 69.1599 87.7495 69.1599C88.3121 69.1599 88.8044 69.0985 89.2264 68.9758C89.6513 68.8531 89.9805 68.6781 90.2139 68.4506C90.4473 68.2232 90.5641 67.9553 90.5641 67.6471C90.5641 67.3329 90.4473 67.0605 90.2139 66.8301C89.9805 66.5967 89.6513 66.4186 89.2264 66.2959C88.8044 66.1702 88.3121 66.1074 87.7495 66.1074ZM82.5692 71.1305H92.9791V72.1181H90.3441V76.0773H89.1231V72.1181H86.4028V76.0773H85.1639V72.1181H82.5692V71.1305ZM98.6083 68.7604C97.7524 68.7574 97.0207 68.6796 96.4132 68.5269C95.8057 68.3743 95.3418 68.1514 95.0216 67.8581C94.7014 67.5648 94.5413 67.2087 94.5413 66.7897C94.5413 66.3737 94.7014 66.0191 95.0216 65.7258C95.3418 65.4326 95.8057 65.2096 96.4132 65.057C97.0237 64.9044 97.7554 64.828 98.6083 64.828C99.4612 64.828 100.191 64.9044 100.799 65.057C101.406 65.2096 101.869 65.4326 102.186 65.7258C102.506 66.0191 102.666 66.3737 102.666 66.7897C102.666 67.2087 102.506 67.5648 102.186 67.8581C101.869 68.1514 101.406 68.3743 100.799 68.5269C100.194 68.6796 99.4642 68.7574 98.6083 68.7604ZM98.6083 65.7348C98.0098 65.7348 97.4995 65.7767 97.0776 65.8605C96.6586 65.9443 96.3399 66.0655 96.1214 66.2241C95.906 66.3797 95.7997 66.5683 95.8027 66.7897C95.7997 67.1369 96.0376 67.4002 96.5165 67.5798C96.9983 67.7593 97.6956 67.8506 98.6083 67.8536C99.527 67.8506 100.227 67.7593 100.709 67.5798C101.191 67.4002 101.432 67.1369 101.432 66.7897C101.432 66.4545 101.188 66.1957 100.7 66.0131C100.215 65.8306 99.5181 65.7378 98.6083 65.7348ZM103.802 69.3753V70.3405H101.01V71.355H102.487V74.0169H95.87V75.0359H102.814V75.9696H94.6895V73.1506H101.302V72.2573H94.667V71.355H96.1798V70.3405H93.4325V69.3753H103.802ZM97.3738 71.355H99.8069V70.3405H97.3738V71.355ZM139.175 71.7096V73.7117H143.812V74.7127H133.402V73.7117H137.981V71.7096H134.668V68.0915H141.348V66.4934H134.646V65.5104H142.537V69.0611H135.867V70.722H142.802V71.7096H139.175ZM155.893 69.2362H157.657V70.2462H155.893V76.0639H154.685V64.7023H155.893V69.2362ZM152.917 65.9054C152.911 67.6351 152.49 69.1913 151.655 70.5739C150.82 71.9535 149.505 73.0847 147.709 73.9675L147.036 73.0338C149.882 71.6153 151.434 69.5714 151.691 66.9019H147.606V65.9054H152.917ZM166.815 64.7023V67.5169H168.462V68.5135H166.815V71.53H165.607V64.7023H166.815ZM161.266 68.702C161.015 69.3334 160.644 69.8841 160.153 70.3539C159.662 70.8208 159.079 71.1724 158.402 71.4088L157.787 70.4482C158.368 70.2567 158.872 69.9754 159.3 69.6043C159.731 69.2332 160.062 68.8067 160.292 68.3249C160.522 67.8431 160.639 67.3389 160.642 66.8122V66.4979H158.137V65.5193H164.301V66.4979H161.845V66.8032C161.845 67.285 161.953 67.7444 162.168 68.1813C162.387 68.6182 162.701 69.0058 163.111 69.3439C163.524 69.6791 164.013 69.9365 164.579 70.116L164.004 71.0587C163.367 70.8522 162.815 70.5455 162.348 70.1385C161.881 69.7315 161.521 69.2526 161.266 68.702ZM163.138 71.8084C163.919 71.8084 164.592 71.8922 165.158 72.0597C165.727 72.2243 166.162 72.4652 166.464 72.7825C166.767 73.0997 166.918 73.4797 166.918 73.9227C166.918 74.3686 166.767 74.7516 166.464 75.0718C166.162 75.392 165.727 75.6359 165.158 75.8035C164.592 75.9741 163.919 76.0594 163.138 76.0594C162.351 76.0594 161.672 75.9741 161.1 75.8035C160.528 75.6359 160.089 75.392 159.78 75.0718C159.475 74.7516 159.322 74.3686 159.322 73.9227C159.322 73.4797 159.475 73.0997 159.78 72.7825C160.089 72.4652 160.528 72.2243 161.1 72.0597C161.672 71.8922 162.351 71.8084 163.138 71.8084ZM163.138 75.1077C163.683 75.1077 164.15 75.0613 164.539 74.9686C164.928 74.8758 165.224 74.7411 165.427 74.5646C165.634 74.388 165.737 74.174 165.737 73.9227C165.737 73.6773 165.635 73.4678 165.432 73.2942C165.228 73.1206 164.934 72.989 164.548 72.8992C164.165 72.8094 163.704 72.7645 163.165 72.7645C162.611 72.7645 162.137 72.8094 161.742 72.8992C161.347 72.989 161.045 73.1206 160.835 73.2942C160.629 73.4648 160.527 73.6743 160.53 73.9227C160.527 74.174 160.629 74.388 160.835 74.5646C161.042 74.7411 161.339 74.8758 161.729 74.9686C162.121 75.0613 162.59 75.1077 163.138 75.1077ZM177.288 68.4865V69.7838H181.876V70.7535H171.506V69.7838H176.089V68.4865H172.889V64.9448H174.083V67.5169H180.735V68.4865H177.288ZM180.74 72.7286H179.052V74.9551H180.848V75.9337H172.548V74.9551H174.334V72.7286H172.646V71.7814H180.74V72.7286ZM177.863 72.7286H175.524V74.9551H177.863V72.7286ZM187.527 64.9403C188.356 64.9403 189.076 65.027 189.686 65.2006C190.297 65.3742 190.765 65.6256 191.092 65.9548C191.421 66.284 191.585 66.6745 191.585 67.1264C191.585 67.5723 191.421 67.9568 191.092 68.28C190.762 68.6032 190.292 68.8516 189.682 69.0252C189.074 69.1958 188.356 69.2811 187.527 69.2811C186.701 69.2811 185.982 69.1958 185.368 69.0252C184.758 68.8516 184.286 68.6032 183.954 68.28C183.625 67.9568 183.46 67.5723 183.46 67.1264C183.46 66.6745 183.625 66.284 183.954 65.9548C184.286 65.6256 184.758 65.3742 185.368 65.2006C185.982 65.027 186.701 64.9403 187.527 64.9403ZM187.527 65.8964C186.944 65.8964 186.441 65.9443 186.019 66.0401C185.597 66.1358 185.272 66.2765 185.045 66.462C184.82 66.6446 184.71 66.866 184.713 67.1264C184.71 67.3778 184.82 67.5932 185.045 67.7728C185.272 67.9523 185.597 68.0915 186.019 68.1903C186.444 68.286 186.947 68.3339 187.527 68.3339C188.105 68.3339 188.606 68.286 189.031 68.1903C189.456 68.0915 189.782 67.9523 190.01 67.7728C190.237 67.5932 190.351 67.3778 190.351 67.1264C190.351 66.866 190.237 66.6446 190.01 66.462C189.782 66.2765 189.456 66.1358 189.031 66.0401C188.609 65.9443 188.108 65.8964 187.527 65.8964ZM182.352 70.1564H192.721V71.1305H182.352V70.1564ZM183.595 72.1495H191.455V75.9337H183.595V72.1495ZM190.284 73.1102H184.785V74.9551H190.284V73.1102Z" fill="#404040"/>
<path d="M110.767 75.1257C110.085 75.1257 109.464 74.9791 108.904 74.6858C108.344 74.3895 107.893 73.9062 107.548 73.2358C107.204 72.5625 107.032 71.6887 107.032 70.6143C107.035 69.5938 107.191 68.7125 107.499 67.9703C107.81 67.2281 108.25 66.661 108.819 66.269C109.387 65.877 110.053 65.6809 110.816 65.6809C111.418 65.6809 111.958 65.7977 112.437 66.0311C112.916 66.2645 113.3 66.5847 113.59 66.9917C113.881 67.3987 114.057 67.8551 114.12 68.3608H112.239C112.161 68.0376 111.997 67.7833 111.746 67.5977C111.494 67.4122 111.184 67.3194 110.816 67.3194C110.406 67.3194 110.058 67.4376 109.77 67.674C109.486 67.9075 109.271 68.2441 109.124 68.684C108.98 69.121 108.907 69.6417 108.904 70.2462H108.985C109.197 69.8422 109.515 69.5265 109.936 69.299C110.358 69.0686 110.827 68.9534 111.342 68.9534C111.886 68.9534 112.377 69.0806 112.814 69.3349C113.254 69.5893 113.598 69.9424 113.846 70.3943C114.095 70.8462 114.219 71.355 114.219 71.9206C114.219 72.5371 114.074 73.0892 113.784 73.577C113.496 74.0618 113.091 74.4419 112.567 74.7172C112.043 74.9895 111.443 75.1257 110.767 75.1257ZM110.736 73.6219C111.044 73.6219 111.322 73.5501 111.57 73.4064C111.819 73.2598 112.013 73.0608 112.154 72.8094C112.295 72.558 112.365 72.2797 112.365 71.9744C112.365 71.6722 112.295 71.3969 112.154 71.1485C112.016 70.9001 111.825 70.7041 111.579 70.5604C111.334 70.4168 111.057 70.345 110.749 70.345C110.444 70.345 110.165 70.4183 109.914 70.5649C109.663 70.7116 109.464 70.9106 109.317 71.1619C109.173 71.4103 109.1 71.6842 109.097 71.9834C109.097 72.2797 109.167 72.5535 109.308 72.8049C109.452 73.0563 109.648 73.2553 109.896 73.4019C110.147 73.5486 110.427 73.6219 110.736 73.6219ZM118.717 75.1975C117.951 75.1975 117.291 75.009 116.737 74.6319C116.184 74.2518 115.759 73.7042 115.462 72.989C115.169 72.2707 115.024 71.4118 115.027 70.4123C115.027 69.4187 115.175 68.5673 115.471 67.8581C115.768 67.1488 116.191 66.6087 116.742 66.2376C117.295 65.8665 117.954 65.6809 118.717 65.6809C119.48 65.6809 120.138 65.868 120.692 66.2421C121.246 66.6131 121.669 67.1533 121.962 67.8626C122.259 68.5718 122.407 69.4217 122.407 70.4123C122.407 71.4148 122.259 72.2752 121.962 72.9934C121.669 73.7087 121.246 74.2548 120.692 74.6319C120.138 75.009 119.48 75.1975 118.717 75.1975ZM118.717 73.6084C119.076 73.6084 119.386 73.4887 119.646 73.2493C119.907 73.0099 120.107 72.6523 120.248 72.1765C120.391 71.6976 120.463 71.1096 120.463 70.4123C120.463 69.724 120.391 69.1434 120.248 68.6706C120.104 68.1977 119.902 67.8431 119.642 67.6067C119.381 67.3703 119.073 67.2521 118.717 67.2521C118.358 67.2521 118.047 67.3718 117.783 67.6112C117.523 67.8506 117.322 68.2082 117.182 68.684C117.041 69.1599 116.971 69.7434 116.971 70.4347C116.971 71.126 117.041 71.7096 117.182 72.1854C117.325 72.6583 117.527 73.0144 117.788 73.2538C118.051 73.4902 118.361 73.6084 118.717 73.6084ZM123.632 67.5304C123.632 67.1563 123.713 66.8151 123.874 66.5069C124.036 66.1957 124.268 65.9488 124.57 65.7662C124.876 65.5837 125.235 65.4924 125.648 65.4924C126.073 65.4924 126.436 65.5837 126.738 65.7662C127.044 65.9458 127.274 66.1912 127.43 66.5024C127.585 66.8107 127.663 67.1533 127.663 67.5304V68.0152C127.663 68.3893 127.584 68.7304 127.425 69.0387C127.27 69.3469 127.039 69.5908 126.734 69.7704C126.429 69.9499 126.067 70.0397 125.648 70.0397C125.226 70.0397 124.862 69.9499 124.557 69.7704C124.255 69.5878 124.024 69.3424 123.866 69.0342C123.71 68.7259 123.632 68.3863 123.632 68.0152V67.5304ZM125.387 75H124.22L130.541 65.8066H131.708L125.387 75ZM124.934 68.0152C124.934 68.2666 124.991 68.4776 125.104 68.6481C125.218 68.8187 125.399 68.904 125.648 68.904C125.902 68.904 126.085 68.8202 126.195 68.6526C126.306 68.482 126.361 68.2696 126.361 68.0152V67.5304C126.361 67.27 126.307 67.0546 126.2 66.884C126.092 66.7134 125.908 66.6281 125.648 66.6281C125.399 66.6281 125.218 66.7164 125.104 66.893C124.991 67.0695 124.934 67.282 124.934 67.5304V68.0152ZM128.35 72.7914C128.35 72.4203 128.429 72.0807 128.588 71.7724C128.746 71.4612 128.977 71.2143 129.279 71.0318C129.584 70.8462 129.945 70.7535 130.361 70.7535C130.786 70.7535 131.15 70.8447 131.452 71.0273C131.757 71.2068 131.988 71.4522 132.143 71.7635C132.299 72.0717 132.377 72.4144 132.377 72.7914V73.2762C132.377 73.6473 132.297 73.9885 132.139 74.2997C131.98 74.608 131.748 74.8534 131.443 75.0359C131.141 75.2215 130.78 75.3142 130.361 75.3142C129.939 75.3142 129.577 75.2215 129.275 75.0359C128.972 74.8534 128.742 74.608 128.583 74.2997C128.428 73.9885 128.35 73.6473 128.35 73.2762V72.7914ZM129.638 73.2762C129.638 73.5246 129.695 73.7356 129.809 73.9092C129.926 74.0798 130.11 74.1651 130.361 74.1651C130.612 74.1651 130.795 74.0798 130.909 73.9092C131.022 73.7386 131.079 73.5276 131.079 73.2762V72.7914C131.079 72.5341 131.024 72.3201 130.913 72.1495C130.805 71.9759 130.621 71.8892 130.361 71.8892C130.11 71.8892 129.926 71.9774 129.809 72.154C129.695 72.3276 129.638 72.5401 129.638 72.7914V73.2762Z" fill="#191818"/>
</svg>
