<svg width="420" height="210" viewBox="0 0 420 210" fill="none" xmlns="http://www.w3.org/2000/svg">
<rect width="420" height="210" fill="#F4F6FC"/>
<rect x="30" y="77" width="368" height="1" fill="#EEEEEE"/>
<rect x="30" y="94" width="368" height="1" fill="#EEEEEE"/>
<rect x="30" y="111" width="368" height="1" fill="#EEEEEE"/>
<rect x="30" y="128" width="368" height="1" fill="#EEEEEE"/>
<rect x="30" y="145" width="368" height="1" fill="#EEEEEE"/>
<rect x="30" y="162" width="368" height="1" fill="#EEEEEE"/>
<rect x="30" y="179" width="368" height="1" fill="#EEEEEE"/>
<rect x="30" y="196" width="368" height="1" fill="#EEEEEE"/>
<path d="M65 143C65 140.791 66.7909 139 69 139H87C89.2091 139 91 140.791 91 143V210H65V143Z" fill="url(#paint0_linear_191_904)"/>
<path d="M109 160C109 157.791 110.791 156 113 156H131C133.209 156 135 157.791 135 160V210H109V160Z" fill="url(#paint1_linear_191_904)"/>
<path d="M153 114C153 111.791 154.791 110 157 110H175C177.209 110 179 111.791 179 114V210H153V114Z" fill="url(#paint2_linear_191_904)"/>
<path d="M197 143C197 140.791 198.791 139 201 139H219C221.209 139 223 140.791 223 143V210H197V143Z" fill="url(#paint3_linear_191_904)"/>
<path d="M241 114C241 111.791 242.791 110 245 110H263C265.209 110 267 111.791 267 114V210H241V114Z" fill="url(#paint4_linear_191_904)"/>
<path d="M285 114C285 111.791 286.791 110 289 110H307C309.209 110 311 111.791 311 114V210H285V114Z" fill="url(#paint5_linear_191_904)"/>
<path d="M329 81C329 78.7909 330.791 77 333 77H351C353.209 77 355 78.7909 355 81V210H329V81Z" fill="url(#paint6_linear_191_904)"/>
<path d="M39.002 35.774C39.8513 35.774 40.5093 35.9653 40.976 36.348C41.4427 36.7307 41.676 37.286 41.676 38.014C41.676 38.742 41.4427 39.2973 40.976 39.68C40.5093 40.0627 39.8513 40.254 39.002 40.254H33.682C32.8327 40.254 32.1747 40.0627 31.708 39.68C31.2413 39.2973 31.008 38.742 31.008 38.014C31.008 37.286 31.2413 36.7307 31.708 36.348C32.1747 35.9653 32.8327 35.774 33.682 35.774H39.002ZM41.55 32.61H40.038L38.078 30.02C37.938 29.8053 37.812 29.6513 37.7 29.558C37.588 29.4647 37.4107 29.418 37.168 29.418H35.516C35.2733 29.418 35.096 29.4647 34.984 29.558C34.872 29.6513 34.746 29.8053 34.606 30.02L32.646 32.61H31.134L33.458 29.418H31.33V28.158H35.642V26.842H37.042V28.158H41.354V29.418H39.226L41.55 32.61ZM42.236 34.92H30.448V33.66H35.642V31.546H37.042V33.66H42.236V34.92ZM38.82 38.994C39.3147 38.994 39.6787 38.9053 39.912 38.728C40.1547 38.5507 40.276 38.3127 40.276 38.014C40.276 37.7153 40.1547 37.4773 39.912 37.3C39.6787 37.1227 39.3147 37.034 38.82 37.034H33.864C33.3693 37.034 33.0007 37.1227 32.758 37.3C32.5247 37.4773 32.408 37.7153 32.408 38.014C32.408 38.3127 32.5247 38.5507 32.758 38.728C33.0007 38.9053 33.3693 38.994 33.864 38.994H38.82ZM56.9362 36.978H55.5362V27.556H56.9362V36.978ZM57.0202 40.212H47.2342V35.76H48.6342V38.952H57.0202V40.212ZM53.8002 31.826C53.8002 32.302 53.7116 32.7313 53.5342 33.114C53.3569 33.4873 53.1096 33.8093 52.7922 34.08C52.4749 34.3413 52.0876 34.5467 51.6302 34.696C51.1822 34.836 50.6876 34.906 50.1462 34.906C49.5956 34.906 49.0962 34.836 48.6482 34.696C48.2002 34.5467 47.8176 34.3413 47.5002 34.08C47.1829 33.8093 46.9356 33.4873 46.7582 33.114C46.5809 32.7313 46.4922 32.302 46.4922 31.826V30.552C46.4922 30.076 46.5809 29.6513 46.7582 29.278C46.9356 28.8953 47.1829 28.5733 47.5002 28.312C47.8176 28.0413 48.2002 27.836 48.6482 27.696C49.0962 27.5467 49.5956 27.472 50.1462 27.472C50.6876 27.472 51.1822 27.5467 51.6302 27.696C52.0876 27.836 52.4749 28.0413 52.7922 28.312C53.1096 28.5733 53.3569 28.8953 53.5342 29.278C53.7116 29.6513 53.8002 30.076 53.8002 30.552V31.826ZM52.4002 30.622C52.4002 30.0247 52.1902 29.5627 51.7702 29.236C51.3596 28.9 50.8182 28.732 50.1462 28.732C49.4742 28.732 48.9282 28.9 48.5082 29.236C48.0976 29.5627 47.8922 30.0247 47.8922 30.622V31.756C47.8922 32.3533 48.0976 32.82 48.5082 33.156C48.9282 33.4827 49.4742 33.646 50.1462 33.646C50.8182 33.646 51.3596 33.4827 51.7702 33.156C52.1902 32.82 52.4002 32.3533 52.4002 31.756V30.622ZM66.4037 34.458H58.7597V30.454H63.7577V28.942H58.7317V27.71H65.1577V30.608C65.1577 30.972 65.0737 31.238 64.9057 31.406C64.7377 31.574 64.4717 31.658 64.1077 31.658H60.1597V33.226H66.4037V34.458ZM69.2037 40.212H67.8037V36.824H59.4317V35.564H69.2037V40.212ZM69.2037 34.92H67.8037V32.582H65.7177V31.294H67.8037V29.964H65.7177V28.676H67.8037V27.556H69.2037V34.92ZM84.6879 37.118H83.2879V33.436H81.7339V32.148H83.2879V30.58H81.7339V29.404H80.4179C80.6699 29.516 80.8706 29.7213 81.0199 30.02C81.1693 30.3187 81.2439 30.6267 81.2439 30.944V32.456C81.2439 34.276 80.1239 35.186 77.8839 35.186C76.7919 35.186 75.9566 34.962 75.3779 34.514C74.8086 34.0567 74.5239 33.3707 74.5239 32.456V30.944C74.5239 30.6173 74.5986 30.3093 74.7479 30.02C74.8973 29.7213 75.0979 29.516 75.3499 29.404H73.8519V28.144H77.1839V26.842H78.5839V28.144H81.9159V29.292H83.2879V27.556H84.6879V37.118ZM79.8439 30.874C79.8439 30.4167 79.6899 30.034 79.3819 29.726C79.0833 29.418 78.5839 29.264 77.8839 29.264C77.1839 29.264 76.6799 29.418 76.3719 29.726C76.0733 30.034 75.9239 30.4167 75.9239 30.874V32.428C75.9239 32.9227 76.0733 33.3147 76.3719 33.604C76.6799 33.8933 77.1839 34.038 77.8839 34.038C78.5839 34.038 79.0833 33.8933 79.3819 33.604C79.6899 33.3147 79.8439 32.9227 79.8439 32.428V30.874ZM84.7719 40.212H74.9859V36.04H76.3859V38.952H84.7719V40.212ZM94.4354 35.396H86.1474V34.136H89.5634V33.38C87.8368 33.2213 86.9734 32.4793 86.9734 31.154V30.818C86.9734 30.4913 87.0481 30.1973 87.1974 29.936C87.3468 29.6747 87.5521 29.474 87.8134 29.334H86.2594V28.074H89.5634V26.842H90.9634V28.074H94.3094V29.334H92.7554C93.0261 29.4647 93.2268 29.6653 93.3574 29.936C93.4881 30.1973 93.5534 30.4913 93.5534 30.818V31.154C93.5534 32.4793 92.6901 33.2213 90.9634 33.38V34.136H94.4354V35.396ZM94.1134 36.236C94.9628 36.236 95.6208 36.3993 96.0874 36.726C96.5541 37.0527 96.7874 37.552 96.7874 38.224C96.7874 38.896 96.5541 39.3953 96.0874 39.722C95.6208 40.0487 94.9628 40.212 94.1134 40.212H89.2274C88.3781 40.212 87.7201 40.0487 87.2534 39.722C86.7868 39.3953 86.5534 38.896 86.5534 38.224C86.5534 37.552 86.7868 37.0527 87.2534 36.726C87.7201 36.3993 88.3781 36.236 89.2274 36.236H94.1134ZM96.5354 35.774H95.1354V27.556H96.5354V30.608H98.1874V31.896H96.5354V35.774ZM93.9314 38.952C94.9021 38.952 95.3874 38.7093 95.3874 38.224C95.3874 37.7387 94.9021 37.496 93.9314 37.496H89.4094C88.4388 37.496 87.9534 37.7387 87.9534 38.224C87.9534 38.7093 88.4388 38.952 89.4094 38.952H93.9314ZM92.1534 30.65C92.1534 30.454 92.1161 30.272 92.0414 30.104C91.9761 29.936 91.8688 29.7913 91.7194 29.67C91.5701 29.5393 91.3741 29.4413 91.1314 29.376C90.8981 29.3013 90.6088 29.264 90.2634 29.264C89.9181 29.264 89.6241 29.3013 89.3814 29.376C89.1481 29.4413 88.9568 29.5393 88.8074 29.67C88.6581 29.7913 88.5461 29.936 88.4714 30.104C88.4061 30.272 88.3734 30.454 88.3734 30.65V30.874C88.3734 31.3313 88.5134 31.6767 88.7934 31.91C89.0828 32.1433 89.5728 32.26 90.2634 32.26C90.9541 32.26 91.4394 32.1433 91.7194 31.91C92.0088 31.6767 92.1534 31.3313 92.1534 30.874V30.65Z" fill="black"/>
<path d="M111.58 28.6851H113.53V40H111.486V30.6685H111.42L108.773 32.3591V30.4972L111.58 28.6851ZM119.814 40.1547C119.074 40.1547 118.403 40.0166 117.803 39.7403C117.206 39.4641 116.733 39.081 116.383 38.5912C116.033 38.1013 115.849 37.547 115.831 36.9282H117.809C117.831 37.2302 117.934 37.5028 118.118 37.7459C118.302 37.9853 118.541 38.1731 118.836 38.3094C119.134 38.442 119.46 38.5083 119.814 38.5083C120.23 38.5083 120.604 38.4162 120.936 38.232C121.267 38.0442 121.525 37.7864 121.709 37.4586C121.897 37.1271 121.991 36.7532 121.991 36.337C121.991 35.9098 121.893 35.5285 121.698 35.1934C121.506 34.8545 121.238 34.5912 120.891 34.4033C120.549 34.2155 120.162 34.1215 119.731 34.1215C118.84 34.1215 118.221 34.4438 117.875 35.0884H115.996L116.67 28.6851H123.355V30.3867H118.35L118.007 33.3923H118.107C118.335 33.1381 118.645 32.9319 119.035 32.7735C119.425 32.6151 119.849 32.5359 120.306 32.5359C120.998 32.5359 121.622 32.698 122.179 33.0221C122.735 33.3425 123.171 33.7882 123.488 34.3591C123.805 34.9263 123.963 35.5672 123.963 36.2818C123.963 37.0258 123.786 37.6924 123.433 38.2818C123.083 38.8711 122.593 39.3315 121.963 39.663C121.337 39.9908 120.621 40.1547 119.814 40.1547Z" fill="black"/>
<path d="M133.692 34.9496H131.782V35.6644H127.718V31.7383H131.782V32.4565H133.692V31.0787H134.617V36.2445H133.692V34.9496ZM128.637 34.9151H130.874V32.4807H128.637V34.9151ZM133.692 34.1899V33.2023H131.782V34.1899H133.692ZM131.686 36.4862C132.296 36.4862 132.822 36.5529 133.264 36.6865C133.708 36.8177 134.049 37.0087 134.286 37.2597C134.525 37.5106 134.645 37.811 134.645 38.1609C134.645 38.5085 134.525 38.8066 134.286 39.0552C134.049 39.3039 133.708 39.4926 133.264 39.6215C132.822 39.7505 132.296 39.8149 131.686 39.8149C131.073 39.8149 130.545 39.7505 130.101 39.6215C129.657 39.4926 129.316 39.3039 129.079 39.0552C128.844 38.8066 128.728 38.5085 128.73 38.1609C128.728 37.811 128.845 37.5106 129.082 37.2597C129.319 37.0087 129.66 36.8177 130.104 36.6865C130.549 36.5529 131.076 36.4862 131.686 36.4862ZM131.686 39.0932C132.109 39.0932 132.473 39.0564 132.777 38.9827C133.083 38.9091 133.318 38.802 133.481 38.6616C133.645 38.5212 133.727 38.3543 133.727 38.1609C133.727 37.9583 133.645 37.7857 133.481 37.643C133.32 37.5002 133.087 37.392 132.78 37.3184C132.477 37.2447 132.112 37.2067 131.686 37.2044C131.258 37.2067 130.89 37.2447 130.584 37.3184C130.28 37.392 130.048 37.5002 129.887 37.643C129.726 37.7857 129.646 37.9583 129.648 38.1609C129.646 38.3543 129.726 38.5212 129.887 38.6616C130.048 38.802 130.282 38.9091 130.588 38.9827C130.894 39.0564 131.26 39.0932 131.686 39.0932Z" fill="black"/>
<path d="M235.596 34.2106V33.4544H237.274V31.0856H238.199V37.4945H237.274V34.2106H235.596ZM233.583 34.3142C233.387 34.8046 233.1 35.2327 232.723 35.5988C232.348 35.9648 231.903 36.2399 231.39 36.424L230.91 35.6678C231.35 35.5205 231.734 35.3029 232.063 35.0152C232.395 34.7251 232.649 34.3936 232.827 34.0207C233.006 33.6455 233.096 33.2576 233.096 32.857V32.5117H231.197V31.7555H235.92V32.5117H234.035V32.857C234.035 33.2231 234.12 33.5799 234.291 33.9275C234.461 34.2751 234.705 34.5859 235.023 34.8598C235.34 35.1314 235.714 35.3398 236.145 35.4848L235.672 36.2238C235.188 36.0557 234.767 35.8059 234.408 35.4744C234.051 35.143 233.776 34.7562 233.583 34.3142ZM233.445 36.9247V38.8895H238.431V39.6492H232.519V36.9247H233.445ZM246.542 37.5497H245.617V34.5767H243.21V33.8343H245.617V32.9157H243.21V32.1768H245.617V31.0856H246.542V37.5497ZM244.298 35.9855C243.653 36.1052 243.029 36.1869 242.426 36.2307C241.825 36.2744 241.161 36.2974 240.434 36.2997H239.76V31.6899H240.682V35.5262C241.308 35.5216 241.903 35.4975 242.467 35.4537C243.031 35.4077 243.609 35.3306 244.201 35.2224L244.298 35.9855ZM241.777 36.9869V38.8895H246.77V39.6492H240.841V36.9869H241.777ZM256.356 34.549V31.0787H257.237V39.8287H256.356V35.3052H255.224V39.3798H254.367V31.2583H255.224V34.549H256.356ZM250.956 36.942C251.529 36.9374 252.029 36.9178 252.458 36.8833C252.888 36.8488 253.325 36.7889 253.77 36.7037L253.846 37.4703C253.355 37.5716 252.873 37.6384 252.399 37.6706C251.925 37.7028 251.327 37.7212 250.607 37.7258H250.027V32.1319H253.3V32.8847H250.956V36.942ZM264.391 31.0787H265.324V39.846H264.391V31.0787ZM258.559 31.8073H259.485V34.0552H261.846V31.8073H262.762V37.7535H258.559V31.8073ZM259.485 34.7907V36.9869H261.846V34.7907H259.485ZM274.889 31.0787H275.818V35.7749H274.889V31.0787ZM271.067 31.4827C271.509 31.4804 271.906 31.5656 272.258 31.7383C272.612 31.9086 272.89 32.1492 273.09 32.4599C273.29 32.7684 273.391 33.1206 273.391 33.5166C273.391 33.9079 273.29 34.2578 273.09 34.5663C272.89 34.8725 272.612 35.1107 272.258 35.2811C271.906 35.4514 271.509 35.5366 271.067 35.5366C270.622 35.5366 270.223 35.4514 269.868 35.2811C269.516 35.1107 269.239 34.8725 269.036 34.5663C268.836 34.2578 268.736 33.9079 268.736 33.5166C268.736 33.1206 268.836 32.7684 269.036 32.4599C269.239 32.1492 269.516 31.9086 269.868 31.7383C270.223 31.5656 270.622 31.4804 271.067 31.4827ZM271.067 32.2631C270.79 32.2608 270.544 32.3126 270.328 32.4185C270.111 32.5221 269.942 32.6694 269.82 32.8605C269.7 33.0516 269.642 33.2703 269.644 33.5166C269.642 33.7629 269.7 33.9816 269.82 34.1727C269.942 34.3614 270.111 34.5087 270.328 34.6146C270.544 34.7205 270.79 34.7735 271.067 34.7735C271.338 34.7735 271.581 34.7205 271.795 34.6146C272.012 34.5087 272.18 34.3614 272.299 34.1727C272.421 33.9816 272.482 33.7629 272.482 33.5166C272.482 33.2703 272.421 33.0516 272.299 32.8605C272.18 32.6694 272.012 32.5221 271.795 32.4185C271.581 32.3126 271.338 32.2608 271.067 32.2631ZM270.089 36.1996H270.998V37.1802H274.896V36.1996H275.818V39.7182H270.089V36.1996ZM270.998 37.9123V38.962H274.896V37.9123H270.998ZM283.719 34.5698H285.121V35.3605H283.719V39.8287H282.79V31.0787H283.719V34.5698ZM279.934 33.3059C279.932 33.817 280.023 34.3223 280.207 34.8218C280.393 35.3214 280.653 35.7691 280.987 36.1651C281.323 36.561 281.704 36.8637 282.13 37.0732L281.56 37.8156C281.089 37.5716 280.673 37.2182 280.314 36.7555C279.955 36.2928 279.677 35.7657 279.482 35.174C279.284 35.8048 278.998 36.3665 278.625 36.8591C278.252 37.3517 277.821 37.7258 277.33 37.9814L276.754 37.2355C277.194 37.0237 277.584 36.7118 277.924 36.2997C278.267 35.8854 278.533 35.4157 278.722 34.8909C278.913 34.366 279.01 33.8377 279.012 33.3059V31.8073H279.934V33.3059ZM289.226 34.2003C288.568 34.198 288.005 34.1381 287.538 34.0207C287.07 33.9033 286.714 33.7318 286.467 33.5062C286.221 33.2806 286.098 33.0067 286.098 32.6844C286.098 32.3644 286.221 32.0916 286.467 31.866C286.714 31.6404 287.07 31.4689 287.538 31.3515C288.007 31.2341 288.57 31.1754 289.226 31.1754C289.882 31.1754 290.444 31.2341 290.911 31.3515C291.379 31.4689 291.734 31.6404 291.978 31.866C292.225 32.0916 292.348 32.3644 292.348 32.6844C292.348 33.0067 292.225 33.2806 291.978 33.5062C291.734 33.7318 291.379 33.9033 290.911 34.0207C290.446 34.1381 289.885 34.198 289.226 34.2003ZM289.226 31.8729C288.766 31.8729 288.373 31.9052 288.049 31.9696C287.726 32.0341 287.481 32.1273 287.313 32.2493C287.148 32.369 287.066 32.514 287.068 32.6844C287.066 32.9514 287.249 33.154 287.617 33.2921C287.988 33.4302 288.524 33.5005 289.226 33.5028C289.933 33.5005 290.472 33.4302 290.842 33.2921C291.213 33.154 291.398 32.9514 291.398 32.6844C291.398 32.4266 291.211 32.2274 290.835 32.087C290.462 31.9466 289.926 31.8752 289.226 31.8729ZM293.221 34.6733V35.4157H291.074V36.1961H292.21V38.2438H287.12V39.0276H292.462V39.7459H286.212V37.5773H291.298V36.8902H286.194V36.1961H287.358V35.4157H285.245V34.6733H293.221ZM288.277 36.1961H290.148V35.4157H288.277V36.1961ZM315.757 34.0104C316.282 33.9528 316.762 33.8412 317.197 33.6754C317.632 33.5097 317.982 33.3048 318.247 33.0608C318.514 32.8168 318.666 32.5543 318.703 32.2735H316.068V31.5104H322.598V32.2735H319.949C319.984 32.552 320.133 32.8133 320.398 33.0573C320.663 33.3013 321.014 33.5074 321.451 33.6754C321.889 33.8412 322.374 33.9528 322.908 34.0104L322.574 34.739C322.067 34.6814 321.596 34.5744 321.161 34.4178C320.726 34.2613 320.35 34.0622 320.032 33.8204C319.714 33.5787 319.477 33.3048 319.321 32.9986C319.164 33.3048 318.928 33.5787 318.613 33.8204C318.298 34.0622 317.922 34.2613 317.487 34.4178C317.054 34.5744 316.585 34.6814 316.078 34.739L315.757 34.0104ZM315.339 35.9544V35.1982H323.316V35.9544H315.339ZM319.317 36.6278C319.943 36.6278 320.482 36.6911 320.933 36.8177C321.387 36.942 321.734 37.1238 321.976 37.3633C322.218 37.6027 322.34 37.8904 322.342 38.2265C322.34 38.5626 322.218 38.8492 321.976 39.0863C321.737 39.3257 321.39 39.5064 320.937 39.6285C320.486 39.7528 319.946 39.8149 319.317 39.8149C318.687 39.8149 318.143 39.7528 317.687 39.6285C317.234 39.5064 316.886 39.3257 316.645 39.0863C316.403 38.8492 316.282 38.5626 316.282 38.2265C316.282 37.8904 316.403 37.6027 316.645 37.3633C316.886 37.1238 317.234 36.942 317.687 36.8177C318.143 36.6911 318.687 36.6278 319.317 36.6278ZM319.317 39.0829C319.983 39.0829 320.498 39.0092 320.864 38.8619C321.23 38.7145 321.414 38.5028 321.417 38.2265C321.414 37.948 321.23 37.7339 320.864 37.5843C320.498 37.4346 319.983 37.3575 319.317 37.3529C318.645 37.3575 318.127 37.4346 317.763 37.5843C317.402 37.7339 317.222 37.948 317.225 38.2265C317.222 38.5028 317.402 38.7145 317.763 38.8619C318.127 39.0092 318.645 39.0829 319.317 39.0829ZM330.498 34.5663H331.855V35.3432H330.498V39.8184H329.569V31.0787H330.498V34.5663ZM328.209 32.0041C328.204 33.3347 327.881 34.5318 327.239 35.5953C326.596 36.6565 325.585 37.5267 324.203 38.2058L323.685 37.4876C325.875 36.3964 327.068 34.8241 327.266 32.7707H324.124V32.0041H328.209Z" fill="black"/>
<path d="M297.642 31.9282H298.861V39H297.583V33.1678H297.542L295.888 34.2244V33.0608L297.642 31.9282ZM301.863 39H300.54L303.61 33.0435V32.9917H300.053V31.9282H304.929V33.0193L301.863 39ZM305.835 33.2541C305.835 32.9756 305.893 32.7212 306.011 32.491C306.13 32.2585 306.303 32.0744 306.529 31.9385C306.757 31.8027 307.024 31.7348 307.33 31.7348C307.645 31.7348 307.914 31.8027 308.138 31.9385C308.363 32.0744 308.534 32.2574 308.649 32.4876C308.764 32.7178 308.821 32.9733 308.821 33.2541V33.6271C308.821 33.9056 308.763 34.16 308.645 34.3902C308.53 34.6204 308.36 34.8034 308.134 34.9392C307.909 35.075 307.64 35.143 307.33 35.143C307.017 35.143 306.747 35.075 306.522 34.9392C306.296 34.8034 306.125 34.6204 306.007 34.3902C305.892 34.16 305.835 33.9056 305.835 33.6271V33.2541ZM307.088 39H306.228L311.09 31.9282H311.95L307.088 39ZM306.743 33.6271C306.743 33.8343 306.79 34.0081 306.884 34.1485C306.979 34.2889 307.127 34.3591 307.33 34.3591C307.535 34.3591 307.683 34.2901 307.775 34.1519C307.87 34.0115 307.917 33.8366 307.917 33.6271V33.2541C307.917 33.0424 307.872 32.8674 307.782 32.7293C307.692 32.5889 307.541 32.5186 307.33 32.5186C307.129 32.5186 306.981 32.59 306.884 32.7327C306.79 32.8755 306.743 33.0493 306.743 33.2541V33.6271ZM309.429 37.3011C309.429 37.0226 309.488 36.7682 309.605 36.538C309.723 36.3055 309.894 36.1213 310.12 35.9855C310.345 35.8497 310.614 35.7818 310.924 35.7818C311.237 35.7818 311.507 35.8497 311.732 35.9855C311.958 36.1213 312.128 36.3043 312.243 36.5345C312.358 36.7647 312.416 37.0203 312.416 37.3011V37.674C312.416 37.9526 312.357 38.2081 312.24 38.4406C312.123 38.6708 311.951 38.8538 311.725 38.9896C311.5 39.1255 311.233 39.1934 310.924 39.1934C310.611 39.1934 310.342 39.1255 310.116 38.9896C309.891 38.8538 309.719 38.6708 309.602 38.4406C309.487 38.2081 309.429 37.9526 309.429 37.674V37.3011ZM310.33 37.674C310.33 37.8812 310.378 38.055 310.472 38.1954C310.566 38.3359 310.717 38.4061 310.924 38.4061C311.129 38.4061 311.278 38.3359 311.37 38.1954C311.464 38.055 311.511 37.8812 311.511 37.674V37.3011C311.511 37.0893 311.465 36.9144 311.373 36.7762C311.283 36.6358 311.134 36.5656 310.924 36.5656C310.722 36.5656 310.572 36.637 310.475 36.7797C310.379 36.9201 310.33 37.0939 310.33 37.3011V37.674Z" fill="#00AEAE"/>
<path d="M350.524 39.846V31.0787H351.449V39.846H350.524ZM347.602 37.2838C348.479 37.2378 349.27 37.1641 349.974 37.0628L350.047 37.7396C349.471 37.8478 348.873 37.9296 348.251 37.9848C347.632 38.0401 347.053 38.0757 346.515 38.0919C345.978 38.108 345.357 38.1195 344.65 38.1264L344.374 38.1298L344.26 37.3564C345.215 37.3564 346.023 37.346 346.684 37.3253V35.9717H344.909V31.8453H349.457V32.5981H345.845V33.5338H349.28V34.2555H345.845V35.2327H349.495V35.9717H347.602V37.2838ZM359.374 34.5698H360.776V35.3605H359.374V39.8287H358.445V31.0787H359.374V34.5698ZM355.589 33.3059C355.587 33.817 355.678 34.3223 355.862 34.8218C356.048 35.3214 356.309 35.7691 356.642 36.1651C356.978 36.561 357.359 36.8637 357.785 37.0732L357.216 37.8156C356.744 37.5716 356.328 37.2182 355.969 36.7555C355.61 36.2928 355.332 35.7657 355.137 35.174C354.939 35.8048 354.653 36.3665 354.28 36.8591C353.908 37.3517 353.476 37.7258 352.986 37.9814L352.409 37.2355C352.849 37.0237 353.239 36.7118 353.579 36.2997C353.923 35.8854 354.188 35.4157 354.377 34.8909C354.568 34.366 354.665 33.8377 354.667 33.3059V31.8073H355.589V33.3059ZM364.881 34.2003C364.223 34.198 363.66 34.1381 363.193 34.0207C362.725 33.9033 362.369 33.7318 362.122 33.5062C361.876 33.2806 361.753 33.0067 361.753 32.6844C361.753 32.3644 361.876 32.0916 362.122 31.866C362.369 31.6404 362.725 31.4689 363.193 31.3515C363.662 31.2341 364.225 31.1754 364.881 31.1754C365.537 31.1754 366.099 31.2341 366.566 31.3515C367.034 31.4689 367.389 31.6404 367.633 31.866C367.88 32.0916 368.003 32.3644 368.003 32.6844C368.003 33.0067 367.88 33.2806 367.633 33.5062C367.389 33.7318 367.034 33.9033 366.566 34.0207C366.101 34.1381 365.54 34.198 364.881 34.2003ZM364.881 31.8729C364.421 31.8729 364.028 31.9052 363.704 31.9696C363.382 32.0341 363.136 32.1273 362.968 32.2493C362.803 32.369 362.721 32.514 362.723 32.6844C362.721 32.9514 362.904 33.154 363.272 33.2921C363.643 33.4302 364.179 33.5005 364.881 33.5028C365.588 33.5005 366.127 33.4302 366.497 33.2921C366.868 33.154 367.053 32.9514 367.053 32.6844C367.053 32.4266 366.866 32.2274 366.49 32.087C366.118 31.9466 365.581 31.8752 364.881 31.8729ZM368.876 34.6733V35.4157H366.729V36.1961H367.865V38.2438H362.775V39.0276H368.117V39.7459H361.867V37.5773H366.953V36.8902H361.85V36.1961H363.013V35.4157H360.9V34.6733H368.876ZM363.932 36.1961H365.803V35.4157H363.932V36.1961ZM387.757 34.0104C388.282 33.9528 388.762 33.8412 389.197 33.6754C389.632 33.5097 389.982 33.3048 390.247 33.0608C390.514 32.8168 390.666 32.5543 390.703 32.2735H388.068V31.5104H394.598V32.2735H391.949C391.984 32.552 392.133 32.8133 392.398 33.0573C392.663 33.3013 393.014 33.5074 393.451 33.6754C393.889 33.8412 394.374 33.9528 394.908 34.0104L394.574 34.739C394.067 34.6814 393.596 34.5744 393.161 34.4178C392.726 34.2613 392.35 34.0622 392.032 33.8204C391.714 33.5787 391.477 33.3048 391.321 32.9986C391.164 33.3048 390.928 33.5787 390.613 33.8204C390.298 34.0622 389.922 34.2613 389.487 34.4178C389.054 34.5744 388.585 34.6814 388.078 34.739L387.757 34.0104ZM387.339 35.9544V35.1982H395.316V35.9544H387.339ZM391.317 36.6278C391.943 36.6278 392.482 36.6911 392.933 36.8177C393.387 36.942 393.734 37.1238 393.976 37.3633C394.218 37.6027 394.34 37.8904 394.342 38.2265C394.34 38.5626 394.218 38.8492 393.976 39.0863C393.737 39.3257 393.39 39.5064 392.937 39.6285C392.486 39.7528 391.946 39.8149 391.317 39.8149C390.687 39.8149 390.143 39.7528 389.687 39.6285C389.234 39.5064 388.886 39.3257 388.645 39.0863C388.403 38.8492 388.282 38.5626 388.282 38.2265C388.282 37.8904 388.403 37.6027 388.645 37.3633C388.886 37.1238 389.234 36.942 389.687 36.8177C390.143 36.6911 390.687 36.6278 391.317 36.6278ZM391.317 39.0829C391.983 39.0829 392.498 39.0092 392.864 38.8619C393.23 38.7145 393.414 38.5028 393.417 38.2265C393.414 37.948 393.23 37.7339 392.864 37.5843C392.498 37.4346 391.983 37.3575 391.317 37.3529C390.645 37.3575 390.127 37.4346 389.763 37.5843C389.402 37.7339 389.222 37.948 389.225 38.2265C389.222 38.5028 389.402 38.7145 389.763 38.8619C390.127 39.0092 390.645 39.0829 391.317 39.0829ZM402.498 34.5663H403.855V35.3432H402.498V39.8184H401.569V31.0787H402.498V34.5663ZM400.209 32.0041C400.204 33.3347 399.881 34.5318 399.239 35.5953C398.596 36.6565 397.585 37.5267 396.203 38.2058L395.685 37.4876C397.875 36.3964 399.068 34.8241 399.266 32.7707H396.124V32.0041H400.209Z" fill="black"/>
<path d="M374.212 39.0967C373.694 39.0967 373.23 39.0115 372.82 38.8412C372.413 38.6685 372.095 38.4314 371.867 38.1298C371.639 37.826 371.527 37.4841 371.529 37.1043C371.527 36.8119 371.592 36.5391 371.726 36.2859C371.859 36.0327 372.041 35.8232 372.271 35.6575C372.504 35.4917 372.761 35.387 373.041 35.3432V35.2983C372.797 35.2477 372.581 35.1476 372.392 34.9979C372.203 34.846 372.056 34.6607 371.95 34.442C371.847 34.221 371.795 33.9827 371.795 33.7272C371.795 33.3681 371.898 33.0447 372.106 32.7569C372.315 32.4669 372.604 32.2401 372.972 32.0767C373.341 31.9132 373.754 31.8315 374.212 31.8315C374.67 31.8315 375.082 31.9132 375.448 32.0767C375.817 32.2401 376.105 32.4669 376.315 32.7569C376.524 33.0447 376.629 33.3681 376.629 33.7272C376.629 33.9827 376.575 34.221 376.467 34.442C376.361 34.6607 376.212 34.846 376.021 34.9979C375.833 35.1476 375.619 35.2477 375.379 35.2983V35.3432C375.658 35.387 375.912 35.4917 376.142 35.6575C376.375 35.8232 376.559 36.0327 376.695 36.2859C376.831 36.5391 376.898 36.8119 376.898 37.1043C376.898 37.4841 376.783 37.826 376.553 38.1298C376.323 38.4314 376.003 38.6685 375.593 38.8412C375.186 39.0115 374.725 39.0967 374.212 39.0967ZM374.212 34.8874C374.438 34.8874 374.639 34.8437 374.816 34.7562C374.994 34.6687 375.133 34.5467 375.234 34.3902C375.335 34.2314 375.386 34.0506 375.386 33.8481C375.386 33.6478 375.337 33.4705 375.238 33.3163C375.139 33.1621 374.999 33.0424 374.82 32.9572C374.642 32.8697 374.44 32.826 374.212 32.826C373.979 32.826 373.775 32.8697 373.597 32.9572C373.42 33.0424 373.282 33.1621 373.183 33.3163C373.086 33.4705 373.038 33.6478 373.038 33.8481C373.038 34.0506 373.087 34.2314 373.186 34.3902C373.288 34.5467 373.427 34.6687 373.604 34.7562C373.784 34.8437 373.986 34.8874 374.212 34.8874ZM374.212 38.116C374.486 38.116 374.727 38.07 374.934 37.9779C375.143 37.8835 375.304 37.7535 375.417 37.5877C375.53 37.4197 375.586 37.2286 375.586 37.0145C375.586 36.7935 375.526 36.5944 375.407 36.4171C375.289 36.2399 375.126 36.1017 374.916 36.0028C374.707 35.9015 374.472 35.8508 374.212 35.8508C373.95 35.8508 373.714 35.9015 373.504 36.0028C373.295 36.1017 373.131 36.2399 373.014 36.4171C372.896 36.5944 372.839 36.7935 372.841 37.0145C372.839 37.2286 372.893 37.4197 373.003 37.5877C373.116 37.7535 373.276 37.8835 373.483 37.9779C373.693 38.07 373.936 38.116 374.212 38.116ZM377.835 33.2541C377.835 32.9756 377.893 32.7212 378.011 32.491C378.13 32.2585 378.303 32.0744 378.529 31.9385C378.757 31.8027 379.024 31.7348 379.33 31.7348C379.645 31.7348 379.914 31.8027 380.138 31.9385C380.363 32.0744 380.534 32.2574 380.649 32.4876C380.764 32.7178 380.821 32.9733 380.821 33.2541V33.6271C380.821 33.9056 380.763 34.16 380.645 34.3902C380.53 34.6204 380.36 34.8034 380.134 34.9392C379.909 35.075 379.64 35.143 379.33 35.143C379.017 35.143 378.747 35.075 378.522 34.9392C378.296 34.8034 378.125 34.6204 378.007 34.3902C377.892 34.16 377.835 33.9056 377.835 33.6271V33.2541ZM379.088 39H378.228L383.09 31.9282H383.95L379.088 39ZM378.743 33.6271C378.743 33.8343 378.79 34.0081 378.884 34.1485C378.979 34.2889 379.127 34.3591 379.33 34.3591C379.535 34.3591 379.683 34.2901 379.775 34.1519C379.87 34.0115 379.917 33.8366 379.917 33.6271V33.2541C379.917 33.0424 379.872 32.8674 379.782 32.7293C379.692 32.5889 379.541 32.5186 379.33 32.5186C379.129 32.5186 378.981 32.59 378.884 32.7327C378.79 32.8755 378.743 33.0493 378.743 33.2541V33.6271ZM381.429 37.3011C381.429 37.0226 381.488 36.7682 381.605 36.538C381.723 36.3055 381.894 36.1213 382.12 35.9855C382.345 35.8497 382.614 35.7818 382.924 35.7818C383.237 35.7818 383.507 35.8497 383.732 35.9855C383.958 36.1213 384.128 36.3043 384.243 36.5345C384.358 36.7647 384.416 37.0203 384.416 37.3011V37.674C384.416 37.9526 384.357 38.2081 384.24 38.4406C384.123 38.6708 383.951 38.8538 383.725 38.9896C383.5 39.1255 383.233 39.1934 382.924 39.1934C382.611 39.1934 382.342 39.1255 382.116 38.9896C381.891 38.8538 381.719 38.6708 381.602 38.4406C381.487 38.2081 381.429 37.9526 381.429 37.674V37.3011ZM382.33 37.674C382.33 37.8812 382.378 38.055 382.472 38.1954C382.566 38.3359 382.717 38.4061 382.924 38.4061C383.129 38.4061 383.278 38.3359 383.37 38.1954C383.464 38.055 383.511 37.8812 383.511 37.674V37.3011C383.511 37.0893 383.465 36.9144 383.373 36.7762C383.283 36.6358 383.134 36.5656 382.924 36.5656C382.722 36.5656 382.572 36.637 382.475 36.7797C382.379 36.9201 382.33 37.0939 382.33 37.3011V37.674Z" fill="#00AEAE"/>
<defs>
<linearGradient id="paint0_linear_191_904" x1="78" y1="139" x2="78" y2="210" gradientUnits="userSpaceOnUse">
<stop stop-color="#5767C6"/>
<stop offset="1" stop-color="#0A339E"/>
</linearGradient>
<linearGradient id="paint1_linear_191_904" x1="122" y1="156" x2="122" y2="210" gradientUnits="userSpaceOnUse">
<stop stop-color="#5767C6"/>
<stop offset="1" stop-color="#0A339E"/>
</linearGradient>
<linearGradient id="paint2_linear_191_904" x1="166" y1="110" x2="166" y2="210" gradientUnits="userSpaceOnUse">
<stop stop-color="#5767C6"/>
<stop offset="1" stop-color="#0A339E"/>
</linearGradient>
<linearGradient id="paint3_linear_191_904" x1="210" y1="139" x2="210" y2="210" gradientUnits="userSpaceOnUse">
<stop stop-color="#5767C6"/>
<stop offset="1" stop-color="#0A339E"/>
</linearGradient>
<linearGradient id="paint4_linear_191_904" x1="254" y1="110" x2="254" y2="210" gradientUnits="userSpaceOnUse">
<stop stop-color="#5767C6"/>
<stop offset="1" stop-color="#0A339E"/>
</linearGradient>
<linearGradient id="paint5_linear_191_904" x1="298" y1="110" x2="298" y2="210" gradientUnits="userSpaceOnUse">
<stop stop-color="#5767C6"/>
<stop offset="1" stop-color="#0A339E"/>
</linearGradient>
<linearGradient id="paint6_linear_191_904" x1="342" y1="77" x2="342" y2="210" gradientUnits="userSpaceOnUse">
<stop stop-color="#5767C6"/>
<stop offset="1" stop-color="#0A339E"/>
</linearGradient>
</defs>
</svg>
