<svg width="440" height="500" viewBox="0 0 440 500" fill="none" xmlns="http://www.w3.org/2000/svg">
<g clip-path="url(#clip0_191_984)">
<g filter="url(#filter0_d_191_984)">
<rect x="52" y="43" width="336" height="139" rx="11.6503" fill="white"/>
<path d="M93.3047 75.4777V76.7549H81.5529V75.4777H89.9607C90.0982 74.7804 90.187 74.1484 90.2272 73.5819C90.2675 73.012 90.2876 72.3935 90.2876 71.7263H83.0062V70.4541H91.8666V71.5151C91.8666 72.2627 91.8481 72.9298 91.8113 73.5165C91.7777 74.1032 91.6939 74.7569 91.5598 75.4777H93.3047ZM83.0665 77.9819H84.6304V81.0192H92.2387V82.3015H83.0665V77.9819ZM95.1201 70.3736H103.996V75.4877H95.1201V70.3736ZM96.6689 74.2507H102.422V71.6358H96.6689V74.2507ZM93.687 76.9913H105.439V78.2685H100.31V82.5479H98.7457V78.2685H93.687V76.9913ZM114.988 82.5579V69.7149H116.582V82.5579H114.988ZM112.75 71.0776C112.747 72.4153 112.553 73.6456 112.167 74.7686C111.785 75.8883 111.151 76.9158 110.266 77.8512C109.385 78.7865 108.218 79.5994 106.766 80.29L105.937 79.0228C107.05 78.4931 107.973 77.8981 108.707 77.2377C109.445 76.5739 110.012 75.838 110.407 75.0301C110.803 74.2188 111.047 73.3187 111.141 72.3298H106.59V71.0776H112.75ZM124.643 75.5933V76.6644H129.737V77.9417H117.985V76.6644H123.079V75.5933H119.474V72.189H126.705V71.2285H119.444V69.9915H128.284V73.3405H121.043V74.3663H128.535V75.5933H124.643ZM126.765 80.0084H119.298V78.7513H128.354V82.4825H126.765V80.0084ZM136.221 73.8383H143.633V75.1106H134.642V70.3183H136.221V73.8383ZM133.168 76.7298H144.92V78.0322H139.776V82.5579H138.192V78.0322H133.168V76.7298ZM155.46 72.8729H157.266V74.1702H155.46V77.5293H153.871V69.725H155.46V72.8729ZM152.991 76.5789C152.069 76.7398 151.149 76.8505 150.231 76.9108C149.315 76.9678 148.196 76.9963 146.871 76.9963H145.82V73.0438H150.13V71.7263H145.795V70.4541H151.679V74.2557H147.394V75.6989C148.551 75.6922 149.537 75.662 150.351 75.6084C151.166 75.5514 151.992 75.4525 152.83 75.3117L152.991 76.5789ZM153.871 79.4151H146.892V78.1428H155.46V82.5479H153.871V79.4151Z" fill="black"/>
<path d="M88.8202 139.976H88.0388V136.083H86.0676V135.428H88.0388V133.344H88.8202V139.976ZM84.1351 136.368C83.9474 136.901 83.6599 137.37 83.2727 137.776C82.8878 138.182 82.4349 138.488 81.914 138.695L81.4986 138.061C81.9351 137.902 82.3223 137.666 82.6602 137.354C83.0005 137.039 83.2657 136.677 83.4557 136.266C83.6458 135.855 83.742 135.426 83.7444 134.978V133.879H84.5117V135.006C84.5117 135.412 84.6033 135.806 84.7863 136.188C84.9717 136.569 85.2298 136.907 85.5607 137.202C85.8939 137.496 86.2741 137.718 86.7012 137.871L86.2647 138.483C85.7766 138.291 85.3472 138.011 84.9764 137.642C84.608 137.274 84.3275 136.849 84.1351 136.368ZM83.8852 139.216V141.342H89.0244V141.989H83.0967V139.216H83.8852ZM96.7614 135.653V133.344H97.5006V138.709H96.7614V136.294H95.5154V138.645H94.7832V133.513H95.5154V135.653H96.7614ZM94.2622 137.991C93.7624 138.089 93.2731 138.155 92.7944 138.188C92.318 138.221 91.6997 138.237 90.9393 138.237H90.3832V133.985H93.8187V134.633H91.1365V135.745H93.7201V136.364H91.1365V137.582C91.8076 137.58 92.3673 137.562 92.8155 137.53C93.2661 137.494 93.7201 137.432 94.1777 137.343L94.2622 137.991ZM96.7333 139.807H91.5377V139.166H97.5006V142.187H96.7333V139.807ZM105.005 133.344H105.787V139.962H105.005V133.344ZM104.322 138.512C102.781 138.723 100.889 138.828 98.6482 138.828L98.5285 138.188C99.4672 138.183 100.314 138.169 101.07 138.146V136.878H99.3381V133.915H103.569V134.562H100.127V136.238H103.64V136.878H101.851V138.114C102.767 138.072 103.572 138.012 104.266 137.934L104.322 138.512ZM100.824 139.504V141.342H106.082V141.989H100.042V139.504H100.824ZM115.776 133.337H116.558V137.878H115.776V133.337ZM114.052 135.625C114.049 136.005 113.95 136.343 113.752 136.639C113.555 136.935 113.282 137.165 112.932 137.329C112.585 137.493 112.193 137.575 111.757 137.575C111.315 137.575 110.92 137.493 110.57 137.329C110.221 137.165 109.947 136.935 109.75 136.639C109.553 136.343 109.455 136.005 109.455 135.625C109.455 135.245 109.553 134.907 109.75 134.611C109.947 134.313 110.221 134.081 110.57 133.915C110.92 133.748 111.315 133.663 111.757 133.661C112.193 133.663 112.585 133.748 112.932 133.915C113.282 134.081 113.555 134.313 113.752 134.611C113.95 134.907 114.049 135.245 114.052 135.625ZM110.222 135.625C110.22 135.879 110.284 136.105 110.415 136.305C110.549 136.504 110.732 136.659 110.965 136.769C111.199 136.88 111.463 136.935 111.757 136.935C112.048 136.935 112.309 136.88 112.542 136.769C112.776 136.659 112.959 136.504 113.091 136.305C113.224 136.105 113.291 135.879 113.291 135.625C113.291 135.374 113.224 135.149 113.091 134.949C112.959 134.75 112.776 134.595 112.542 134.485C112.309 134.374 112.048 134.32 111.757 134.323C111.463 134.32 111.199 134.374 110.965 134.485C110.732 134.595 110.549 134.75 110.415 134.949C110.284 135.149 110.22 135.374 110.222 135.625ZM111.588 140.441V141.433H116.875V142.067H110.827V139.849H115.784V138.941H110.799V138.307H116.558V140.441H111.588ZM122.521 136.294V135.646H124.309V133.337H125.09V138.61H124.309V136.294H122.521ZM120.455 136.266C120.265 136.785 119.972 137.241 119.578 137.635C119.186 138.029 118.726 138.326 118.198 138.526L117.79 137.906C118.224 137.749 118.612 137.519 118.955 137.216C119.298 136.914 119.564 136.566 119.754 136.174C119.947 135.782 120.043 135.379 120.043 134.963V134.633H118.043V133.985H122.809V134.633H120.831V134.956C120.831 135.337 120.923 135.706 121.106 136.065C121.289 136.422 121.546 136.74 121.877 137.019C122.208 137.296 122.587 137.507 123.014 137.653L122.605 138.279C122.113 138.101 121.68 137.836 121.306 137.484C120.933 137.132 120.649 136.726 120.455 136.266ZM122.155 138.885C122.765 138.885 123.292 138.95 123.735 139.082C124.181 139.211 124.523 139.399 124.76 139.645C124.999 139.892 125.119 140.187 125.119 140.532C125.119 140.877 124.999 141.172 124.76 141.416C124.523 141.662 124.182 141.85 123.739 141.979C123.295 142.11 122.767 142.177 122.155 142.18C121.54 142.177 121.01 142.11 120.564 141.979C120.12 141.85 119.78 141.662 119.543 141.416C119.306 141.172 119.189 140.877 119.191 140.532C119.189 140.187 119.306 139.892 119.543 139.645C119.78 139.399 120.121 139.211 120.567 139.082C121.013 138.95 121.542 138.885 122.155 138.885ZM122.155 141.553C122.603 141.555 122.991 141.515 123.32 141.433C123.648 141.353 123.901 141.236 124.077 141.081C124.255 140.926 124.344 140.743 124.344 140.532C124.344 140.319 124.255 140.134 124.077 139.98C123.901 139.822 123.648 139.703 123.32 139.62C122.991 139.538 122.603 139.497 122.155 139.497C121.704 139.497 121.313 139.538 120.983 139.62C120.654 139.703 120.402 139.822 120.226 139.98C120.05 140.134 119.963 140.319 119.965 140.532C119.963 140.743 120.05 140.926 120.226 141.081C120.402 141.236 120.654 141.353 120.983 141.433C121.313 141.515 121.704 141.555 122.155 141.553ZM133.088 142.187V133.337H133.841V142.187H133.088ZM131.314 136.787V133.527H132.067V141.736H131.314V137.435H130.173C130.148 138.005 130.053 138.501 129.888 138.924C129.726 139.344 129.506 139.667 129.227 139.895C128.947 140.12 128.627 140.232 128.266 140.229C127.885 140.232 127.552 140.107 127.266 139.856C126.982 139.605 126.761 139.247 126.604 138.783C126.449 138.318 126.372 137.775 126.372 137.153C126.372 136.533 126.449 135.993 126.604 135.53C126.761 135.066 126.982 134.709 127.266 134.46C127.552 134.209 127.885 134.083 128.266 134.083C128.622 134.083 128.938 134.193 129.212 134.411C129.489 134.629 129.71 134.942 129.874 135.351C130.038 135.757 130.137 136.235 130.17 136.787H131.314ZM128.266 139.49C128.505 139.493 128.714 139.399 128.892 139.209C129.07 139.019 129.208 138.748 129.304 138.395C129.4 138.041 129.448 137.627 129.448 137.153C129.448 136.679 129.4 136.266 129.304 135.914C129.208 135.562 129.07 135.291 128.892 135.101C128.714 134.911 128.505 134.816 128.266 134.816C128.031 134.816 127.826 134.911 127.65 135.101C127.474 135.291 127.337 135.562 127.241 135.914C127.147 136.266 127.102 136.679 127.104 137.153C127.102 137.627 127.147 138.041 127.241 138.395C127.337 138.748 127.474 139.019 127.65 139.209C127.826 139.399 128.031 139.493 128.266 139.49ZM145.119 137.406V138.061H137.016V137.406H143.042C143.118 137.029 143.172 136.674 143.204 136.343C143.24 136.01 143.261 135.716 143.268 135.46C143.277 135.202 143.282 134.9 143.282 134.555V134.513H138.044V133.872H144.056V134.555C144.056 134.898 144.052 135.199 144.042 135.46C144.035 135.718 144.015 136.014 143.982 136.347C143.949 136.68 143.897 137.033 143.824 137.406H145.119ZM138.086 139.054H138.868V141.328H144.324V141.982H138.086V139.054ZM146.555 133.83H152.561V137.273H146.555V133.83ZM147.323 136.66H151.786V134.471H147.323V136.66ZM145.506 138.483H153.61V139.124H149.921V142.18H149.153V139.124H145.506V138.483ZM160.699 134.105H163.874V134.724H156.7V134.105H159.924V133.203H160.699V134.105ZM160.699 138.364H164.345V138.997H156.278V138.364H159.924V137.632C159.122 137.606 158.506 137.485 158.076 137.269C157.647 137.053 157.432 136.752 157.432 136.364C157.432 136.088 157.544 135.853 157.767 135.66C157.992 135.468 158.318 135.323 158.745 135.224C159.175 135.125 159.694 135.076 160.305 135.076C160.915 135.076 161.433 135.125 161.86 135.224C162.29 135.323 162.616 135.468 162.839 135.66C163.064 135.853 163.177 136.088 163.177 136.364C163.177 136.749 162.962 137.051 162.533 137.269C162.106 137.485 161.494 137.606 160.699 137.632V138.364ZM158.235 136.364C158.232 136.597 158.411 136.775 158.77 136.899C159.129 137.022 159.64 137.083 160.305 137.083C160.969 137.083 161.48 137.022 161.839 136.899C162.198 136.775 162.379 136.597 162.381 136.364C162.379 136.212 162.297 136.082 162.135 135.974C161.973 135.866 161.737 135.784 161.427 135.727C161.118 135.669 160.743 135.639 160.305 135.639C159.866 135.639 159.49 135.669 159.178 135.727C158.868 135.784 158.632 135.866 158.471 135.974C158.311 136.082 158.232 136.212 158.235 136.364ZM162.487 140.328H157.144V139.716H163.268V142.187H162.487V140.328ZM168.809 137.167C168.173 137.167 167.619 137.097 167.147 136.956C166.676 136.815 166.312 136.612 166.056 136.347C165.803 136.079 165.676 135.764 165.676 135.4C165.676 135.036 165.803 134.722 166.056 134.457C166.312 134.191 166.676 133.99 167.147 133.851C167.619 133.713 168.173 133.645 168.809 133.647C169.443 133.645 169.994 133.713 170.463 133.851C170.935 133.99 171.298 134.191 171.551 134.457C171.807 134.722 171.935 135.036 171.935 135.4C171.935 135.764 171.807 136.079 171.551 136.347C171.298 136.612 170.935 136.815 170.463 136.956C169.994 137.097 169.443 137.167 168.809 137.167ZM168.809 134.281C168.337 134.281 167.925 134.326 167.573 134.418C167.224 134.507 166.954 134.636 166.764 134.805C166.576 134.974 166.483 135.172 166.486 135.4C166.483 135.632 166.576 135.833 166.764 136.002C166.954 136.171 167.224 136.301 167.573 136.393C167.925 136.482 168.337 136.526 168.809 136.526C169.281 136.526 169.691 136.482 170.041 136.393C170.393 136.301 170.664 136.171 170.854 136.002C171.044 135.833 171.139 135.632 171.139 135.4C171.139 135.172 171.044 134.974 170.854 134.805C170.664 134.636 170.393 134.507 170.041 134.418C169.691 134.326 169.281 134.281 168.809 134.281ZM164.782 138.638V138.005H172.85V138.638H164.782ZM165.824 139.42H166.612V141.342H171.949V141.989H165.824V139.42ZM179.953 134.323H183.135V134.956H175.961V134.323H179.179V133.288H179.953V134.323ZM179.566 138.392C178.963 138.392 178.444 138.336 178.01 138.223C177.578 138.108 177.247 137.941 177.017 137.723C176.79 137.503 176.677 137.237 176.68 136.928C176.677 136.616 176.79 136.35 177.017 136.132C177.247 135.914 177.578 135.748 178.01 135.636C178.444 135.521 178.963 135.463 179.566 135.463C180.167 135.463 180.683 135.521 181.115 135.636C181.547 135.748 181.877 135.914 182.107 136.132C182.337 136.35 182.452 136.616 182.452 136.928C182.452 137.237 182.337 137.503 182.107 137.723C181.877 137.941 181.547 138.108 181.115 138.223C180.683 138.336 180.167 138.392 179.566 138.392ZM179.566 136.062C179.127 136.064 178.752 136.099 178.44 136.167C178.13 136.235 177.893 136.334 177.728 136.463C177.567 136.592 177.487 136.747 177.489 136.928C177.487 137.108 177.567 137.263 177.728 137.392C177.893 137.519 178.131 137.616 178.443 137.684C178.755 137.753 179.129 137.787 179.566 137.787C180 137.787 180.372 137.753 180.682 137.684C180.994 137.616 181.232 137.519 181.396 137.392C181.563 137.263 181.647 137.108 181.65 136.928C181.647 136.747 181.564 136.592 181.4 136.463C181.236 136.334 180.997 136.235 180.685 136.167C180.376 136.099 180.002 136.064 179.566 136.062ZM175.539 138.99H183.642V139.638H181.502V142.201H180.72V139.638H178.432V142.201H177.651V139.638H175.539V138.99ZM190.893 136.935H192.33V137.596H190.893V142.18H190.112V133.337H190.893V136.935ZM188.605 134.288C188.603 135.149 188.46 135.962 188.176 136.727C187.894 137.492 187.451 138.196 186.845 138.839C186.242 139.482 185.473 140.035 184.536 140.497L184.1 139.884C185.238 139.319 186.118 138.618 186.74 137.783C187.364 136.945 187.721 135.998 187.81 134.942H184.515V134.288H188.605ZM201.334 142.187V133.337H202.115V142.187H201.334ZM199.496 134.302C199.491 135.635 199.154 136.834 198.482 137.899C197.814 138.962 196.765 139.838 195.335 140.525L194.913 139.884C196.093 139.326 196.998 138.629 197.627 137.794C198.256 136.958 198.614 136.005 198.701 134.935H195.321V134.302H199.496ZM207.726 137.273V138.209H211.394V138.857H203.291V138.209H206.959V137.273H204.347V135.111H209.57V134.196H204.319V133.563H210.352V135.703H205.121V136.646H210.542V137.273H207.726ZM209.613 140.173H204.199V139.532H210.401V142.102H209.613V140.173ZM218.321 133.337H219.103V142.201H218.321V133.337ZM214.4 134.02C214.836 134.022 215.225 134.15 215.565 134.404C215.908 134.657 216.175 135.017 216.368 135.484C216.562 135.949 216.66 136.489 216.66 137.104C216.66 137.721 216.562 138.263 216.368 138.73C216.175 139.197 215.908 139.557 215.565 139.811C215.222 140.062 214.834 140.187 214.4 140.187C213.961 140.187 213.57 140.062 213.228 139.811C212.885 139.557 212.618 139.198 212.425 138.733C212.235 138.266 212.14 137.723 212.14 137.104C212.14 136.486 212.235 135.946 212.425 135.481C212.618 135.016 212.885 134.657 213.228 134.404C213.57 134.15 213.961 134.022 214.4 134.02ZM214.4 134.717C214.107 134.719 213.845 134.82 213.615 135.02C213.387 135.217 213.21 135.496 213.083 135.858C212.957 136.217 212.893 136.632 212.893 137.104C212.893 137.578 212.957 137.995 213.083 138.357C213.21 138.718 213.387 138.997 213.615 139.195C213.845 139.392 214.107 139.49 214.4 139.49C214.693 139.49 214.953 139.392 215.178 139.195C215.406 138.997 215.583 138.718 215.709 138.357C215.836 137.995 215.9 137.578 215.9 137.104C215.9 136.632 215.836 136.217 215.709 135.858C215.583 135.496 215.406 135.217 215.178 135.02C214.953 134.82 214.693 134.719 214.4 134.717ZM229.487 133.33V136.027H230.817V136.688H229.487V139.863H228.705V133.33H229.487ZM227.382 136.139C227.379 136.559 227.277 136.936 227.075 137.269C226.874 137.6 226.596 137.858 226.241 138.043C225.889 138.229 225.495 138.322 225.058 138.322C224.622 138.322 224.225 138.229 223.869 138.043C223.514 137.856 223.236 137.596 223.034 137.266C222.833 136.935 222.733 136.559 222.735 136.139C222.733 135.719 222.833 135.345 223.034 135.016C223.236 134.685 223.514 134.427 223.869 134.242C224.223 134.056 224.62 133.964 225.058 133.964C225.495 133.964 225.889 134.056 226.241 134.242C226.596 134.425 226.874 134.682 227.075 135.013C227.277 135.344 227.379 135.719 227.382 136.139ZM223.503 136.139C223.5 136.425 223.567 136.682 223.703 136.91C223.839 137.135 224.026 137.313 224.263 137.442C224.502 137.568 224.767 137.632 225.058 137.632C225.352 137.632 225.617 137.568 225.854 137.442C226.091 137.313 226.278 137.135 226.414 136.91C226.55 136.682 226.619 136.425 226.621 136.139C226.619 135.853 226.55 135.597 226.414 135.372C226.278 135.144 226.091 134.967 225.854 134.84C225.617 134.711 225.352 134.647 225.058 134.647C224.767 134.647 224.502 134.711 224.263 134.84C224.026 134.967 223.839 135.144 223.703 135.372C223.567 135.597 223.5 135.853 223.503 136.139ZM223.946 139.188H224.721V141.342H229.895V141.989H223.946V139.188ZM237.583 133.344H238.364V139.962H237.583V133.344ZM236.9 138.512C235.358 138.723 233.467 138.828 231.226 138.828L231.106 138.188C232.045 138.183 232.892 138.169 233.647 138.146V136.878H231.915V133.915H236.147V134.562H232.704V136.238H236.217V136.878H234.429V138.114C235.344 138.072 236.149 138.012 236.844 137.934L236.9 138.512ZM233.401 139.504V141.342H238.66V141.989H232.619V139.504H233.401ZM89.5524 151.716V152.364H85.8916V156.201H85.1101V152.364H81.4845V151.716H87.4334C87.5178 151.322 87.58 150.95 87.6199 150.6C87.6598 150.251 87.6845 149.939 87.6938 149.664C87.7032 149.387 87.7079 149.062 87.7079 148.689V148.562H82.4983V147.915H88.4823V148.689C88.4823 149.067 88.4776 149.393 88.4682 149.667C88.4612 149.942 88.4389 150.254 88.4014 150.604C88.3638 150.951 88.3063 151.322 88.2289 151.716H89.5524ZM97.3246 152.582H96.5432V149.879H94.572V149.231H96.5432V147.337H97.3246V152.582ZM92.6606 150.136C92.4729 150.666 92.1831 151.129 91.7912 151.526C91.4016 151.923 90.9393 152.221 90.4043 152.42L89.9819 151.787C90.4325 151.627 90.829 151.397 91.1717 151.097C91.5143 150.794 91.7794 150.442 91.9672 150.041C92.1573 149.639 92.2535 149.212 92.2558 148.759V147.844H93.0302V148.731C93.0279 149.144 93.1182 149.538 93.3013 149.914C93.4867 150.289 93.746 150.618 94.0792 150.899C94.4124 151.181 94.7949 151.395 95.2267 151.54L94.7902 152.153C94.2998 151.97 93.8692 151.704 93.4984 151.357C93.13 151.007 92.8507 150.6 92.6606 150.136ZM94.389 152.836C94.9991 152.836 95.5259 152.901 95.9694 153.033C96.4153 153.164 96.7567 153.355 96.9938 153.606C97.2331 153.857 97.3528 154.159 97.3528 154.511C97.3528 154.858 97.2331 155.156 96.9938 155.405C96.7567 155.654 96.4165 155.843 95.973 155.972C95.5294 156.101 95.0014 156.165 94.389 156.165C93.7741 156.165 93.2438 156.101 92.7979 155.972C92.3544 155.843 92.0141 155.654 91.7771 155.405C91.5401 155.156 91.4227 154.858 91.4251 154.511C91.4227 154.159 91.5401 153.857 91.7771 153.606C92.0141 153.355 92.3556 153.164 92.8014 153.033C93.2473 152.901 93.7765 152.836 94.389 152.836ZM94.389 155.539C94.8372 155.539 95.2255 155.498 95.5541 155.416C95.8826 155.334 96.1349 155.215 96.3109 155.06C96.4892 154.905 96.5784 154.722 96.5784 154.511C96.5784 154.293 96.4892 154.105 96.3109 153.948C96.1349 153.788 95.8826 153.666 95.5541 153.582C95.2255 153.497 94.8372 153.455 94.389 153.455C93.9384 153.455 93.5477 153.497 93.2168 153.582C92.8882 153.666 92.636 153.788 92.46 153.948C92.284 154.105 92.1972 154.293 92.1995 154.511C92.1972 154.722 92.284 154.905 92.46 155.06C92.636 155.215 92.8882 155.334 93.2168 155.416C93.5477 155.498 93.9384 155.539 94.389 155.539ZM103.175 153.145V152.575H104.998V147.344H105.787V154.068H104.998V153.145H103.175ZM101.352 150.78C100.917 150.78 100.534 150.718 100.201 150.593C99.8697 150.469 99.6127 150.291 99.4297 150.058C99.2466 149.826 99.1551 149.555 99.1551 149.245C99.1551 148.94 99.2466 148.671 99.4297 148.439C99.6127 148.204 99.8708 148.024 100.204 147.897C100.537 147.768 100.92 147.703 101.352 147.703C101.779 147.703 102.158 147.768 102.489 147.897C102.819 148.024 103.076 148.204 103.259 148.439C103.445 148.671 103.539 148.94 103.541 149.245C103.539 149.555 103.445 149.826 103.259 150.058C103.076 150.288 102.819 150.467 102.489 150.593C102.16 150.718 101.781 150.78 101.352 150.78ZM101.352 148.295C101.065 148.292 100.812 148.331 100.591 148.411C100.371 148.491 100.199 148.603 100.077 148.749C99.9577 148.892 99.899 149.057 99.9013 149.245C99.899 149.435 99.9577 149.602 100.077 149.745C100.199 149.888 100.371 150 100.591 150.079C100.812 150.157 101.065 150.195 101.352 150.195C101.628 150.195 101.876 150.157 102.094 150.079C102.313 150 102.483 149.888 102.605 149.745C102.729 149.602 102.792 149.435 102.795 149.245C102.792 149.057 102.729 148.892 102.605 148.749C102.483 148.603 102.313 148.491 102.094 148.411C101.876 148.331 101.628 148.292 101.352 148.295ZM101.042 153.758V152.047C100.436 152.07 99.7488 152.082 98.9791 152.082H98.5496L98.444 151.442C99.6127 151.437 100.656 151.419 101.573 151.389C102.493 151.356 103.37 151.287 104.203 151.181L104.259 151.751C103.525 151.869 102.713 151.954 101.823 152.008V153.758H101.042ZM100.5 153.406V155.342H106.005V155.989H99.7183V153.406H100.5ZM113.51 147.337H114.291V156.201H113.51V147.337ZM109.588 148.02C110.025 148.022 110.413 148.15 110.754 148.404C111.096 148.657 111.364 149.017 111.556 149.484C111.751 149.949 111.848 150.489 111.848 151.104C111.848 151.721 111.751 152.263 111.556 152.73C111.364 153.197 111.096 153.557 110.754 153.811C110.411 154.062 110.023 154.187 109.588 154.187C109.15 154.187 108.759 154.062 108.416 153.811C108.074 153.557 107.806 153.198 107.614 152.733C107.424 152.266 107.329 151.723 107.329 151.104C107.329 150.486 107.424 149.946 107.614 149.481C107.806 149.016 108.074 148.657 108.416 148.404C108.759 148.15 109.15 148.022 109.588 148.02ZM109.588 148.717C109.295 148.719 109.033 148.82 108.803 149.02C108.576 149.217 108.399 149.496 108.272 149.858C108.145 150.217 108.082 150.632 108.082 151.104C108.082 151.578 108.145 151.995 108.272 152.357C108.399 152.718 108.576 152.997 108.803 153.195C109.033 153.392 109.295 153.49 109.588 153.49C109.882 153.49 110.141 153.392 110.366 153.195C110.594 152.997 110.771 152.718 110.898 152.357C111.025 151.995 111.088 151.578 111.088 151.104C111.088 150.632 111.025 150.217 110.898 149.858C110.771 149.496 110.594 149.217 110.366 149.02C110.141 148.82 109.882 148.719 109.588 148.717ZM122.331 156.187V147.337H123.084V156.187H122.331ZM120.557 150.787V147.527H121.31V155.736H120.557V151.435H119.416C119.391 152.005 119.296 152.501 119.131 152.924C118.969 153.344 118.749 153.667 118.469 153.895C118.19 154.12 117.87 154.232 117.509 154.229C117.128 154.232 116.795 154.107 116.509 153.856C116.225 153.605 116.004 153.247 115.847 152.783C115.692 152.318 115.615 151.775 115.615 151.153C115.615 150.533 115.692 149.993 115.847 149.53C116.004 149.066 116.225 148.709 116.509 148.46C116.795 148.209 117.128 148.083 117.509 148.083C117.865 148.083 118.181 148.193 118.455 148.411C118.732 148.629 118.953 148.942 119.117 149.351C119.281 149.757 119.38 150.235 119.413 150.787H120.557ZM117.509 153.49C117.748 153.493 117.957 153.399 118.135 153.209C118.313 153.019 118.451 152.748 118.547 152.395C118.643 152.041 118.691 151.627 118.691 151.153C118.691 150.679 118.643 150.266 118.547 149.914C118.451 149.562 118.313 149.291 118.135 149.101C117.957 148.911 117.748 148.816 117.509 148.816C117.274 148.816 117.069 148.911 116.893 149.101C116.717 149.291 116.58 149.562 116.484 149.914C116.39 150.266 116.345 150.679 116.347 151.153C116.345 151.627 116.39 152.041 116.484 152.395C116.58 152.748 116.717 153.019 116.893 153.209C117.069 153.399 117.274 153.493 117.509 153.49ZM130.096 154.391H132.11V155.046H124.007V154.391H126.013V152.005C125.63 151.803 125.332 151.546 125.119 151.234C124.908 150.919 124.802 150.566 124.802 150.174C124.802 149.724 124.939 149.327 125.214 148.985C125.488 148.64 125.871 148.372 126.361 148.182C126.852 147.992 127.409 147.896 128.033 147.893C128.66 147.896 129.218 147.992 129.709 148.182C130.202 148.372 130.585 148.64 130.86 148.985C131.135 149.327 131.272 149.724 131.272 150.174C131.272 150.562 131.169 150.91 130.962 151.22C130.758 151.527 130.469 151.782 130.096 151.984V154.391ZM125.555 150.174C125.555 150.498 125.66 150.786 125.869 151.037C126.08 151.286 126.373 151.479 126.749 151.618C127.126 151.754 127.555 151.822 128.033 151.822C128.512 151.822 128.939 151.754 129.315 151.618C129.693 151.479 129.987 151.286 130.198 151.037C130.412 150.786 130.519 150.498 130.519 150.174C130.519 149.848 130.412 149.561 130.198 149.312C129.987 149.063 129.693 148.871 129.315 148.735C128.939 148.599 128.512 148.532 128.033 148.534C127.555 148.532 127.126 148.599 126.749 148.735C126.373 148.871 126.08 149.063 125.869 149.312C125.66 149.561 125.555 149.848 125.555 150.174ZM126.78 154.391H129.308V152.29C128.916 152.391 128.491 152.441 128.033 152.441C127.592 152.441 127.175 152.392 126.78 152.293V154.391Z" fill="#999999"/>
<path d="M82.8453 119.873L82.8352 117.188L90.1066 110.178C90.8977 109.387 91.5079 108.736 91.937 108.227C92.3728 107.717 92.7047 107.218 92.9326 106.728C93.1673 106.232 93.2846 105.706 93.2846 105.149C93.2846 104.519 93.1304 103.966 92.822 103.49C92.5136 103.014 92.0878 102.648 91.5447 102.394C91.0084 102.139 90.4049 102.011 89.7344 102.011C89.0371 102.011 88.4237 102.152 87.894 102.434C87.371 102.709 86.9687 103.104 86.6871 103.621C86.4055 104.137 86.2647 104.74 86.2647 105.431H82.7447C82.738 104.15 83.033 103.024 83.6297 102.052C84.2265 101.08 85.0579 100.329 86.1239 99.7989C87.1967 99.2625 88.417 98.9943 89.7847 98.9943C91.1592 98.9943 92.3795 99.2525 93.4455 99.7687C94.5116 100.278 95.3397 100.986 95.9297 101.891C96.5264 102.796 96.8248 103.818 96.8248 104.958C96.8181 105.763 96.6639 106.534 96.3621 107.271C96.0604 108.002 95.5374 108.82 94.7932 109.725C94.0557 110.624 93.0064 111.713 91.6453 112.994L87.9946 116.625V116.775H97.1365V119.873H82.8453Z" fill="black"/>
<path d="M110.143 114.281H107.769V115.15H103.127V110.66H107.769V111.537H110.143V109.888H111.036V115.882H110.143V114.281ZM104.012 114.418H106.892V111.384H104.012V114.418ZM110.143 113.541V112.269H107.769V113.541H110.143ZM107.681 116.172C108.378 116.172 108.98 116.247 109.487 116.397C109.996 116.547 110.387 116.766 110.658 117.053C110.931 117.34 111.068 117.684 111.068 118.087C111.068 118.483 110.931 118.824 110.658 119.108C110.387 119.393 109.998 119.609 109.491 119.756C108.984 119.904 108.381 119.977 107.681 119.977C106.978 119.977 106.372 119.904 105.862 119.756C105.355 119.609 104.967 119.393 104.696 119.108C104.425 118.824 104.291 118.483 104.293 118.087C104.291 117.684 104.425 117.34 104.696 117.053C104.967 116.766 105.357 116.547 105.866 116.397C106.376 116.247 106.981 116.172 107.681 116.172ZM107.681 119.269C108.193 119.269 108.637 119.221 109.012 119.124C109.388 119.031 109.676 118.895 109.877 118.718C110.081 118.538 110.183 118.328 110.183 118.087C110.183 117.834 110.082 117.619 109.881 117.439C109.68 117.256 109.392 117.117 109.016 117.02C108.641 116.924 108.196 116.874 107.681 116.872C107.163 116.874 106.716 116.924 106.341 117.02C105.966 117.117 105.677 117.256 105.476 117.439C105.275 117.619 105.176 117.834 105.178 118.087C105.176 118.328 105.275 118.538 105.476 118.718C105.677 118.895 105.966 119.031 106.341 119.124C106.719 119.221 107.166 119.269 107.681 119.269Z" fill="black"/>
<rect x="52" y="195.44" width="336" height="124" rx="11.6503" fill="white"/>
<path d="M93.3047 227.918V229.195H81.5529V227.918H89.9607C90.0982 227.221 90.187 226.589 90.2272 226.022C90.2675 225.452 90.2876 224.834 90.2876 224.167H83.0062V222.895H91.8666V223.956C91.8666 224.703 91.8481 225.37 91.8113 225.957C91.7777 226.544 91.6939 227.197 91.5598 227.918H93.3047ZM83.0665 230.422H84.6304V233.46H92.2387V234.742H83.0665V230.422ZM95.1201 222.814H103.996V227.928H95.1201V222.814ZM96.6689 226.691H102.422V224.076H96.6689V226.691ZM93.687 229.432H105.439V230.709H100.31V234.988H98.7457V230.709H93.687V229.432ZM114.953 235.029V222.155H116.547V235.029H114.953ZM110.709 225.243C110.705 226.031 110.836 226.8 111.101 227.551C111.369 228.299 111.755 228.964 112.258 229.547C112.76 230.127 113.351 230.563 114.028 230.855L113.087 232.122C112.363 231.787 111.731 231.297 111.192 230.654C110.655 230.007 110.234 229.254 109.929 228.396C109.631 229.324 109.205 230.139 108.652 230.84C108.099 231.537 107.442 232.063 106.681 232.419L105.715 231.101C106.409 230.799 107.011 230.347 107.521 229.743C108.034 229.14 108.426 228.448 108.697 227.667C108.969 226.882 109.106 226.074 109.11 225.243V223.186H110.709V225.243ZM128.143 222.155V225.851H129.938V227.164H128.143V231.423H126.539V222.155H128.143ZM124.648 223.126C124.648 224.256 124.41 225.278 123.934 226.193C123.458 227.105 122.769 227.891 121.867 228.552C120.969 229.209 119.884 229.723 118.614 230.095L117.95 228.838C118.926 228.557 119.769 228.196 120.479 227.757C121.19 227.315 121.75 226.812 122.159 226.249C122.571 225.685 122.823 225.077 122.913 224.423H118.498V223.126H124.648ZM119.886 230.478H121.48V233.475H128.626V234.757H119.886V230.478ZM142.27 222.155H143.864V235.029H142.27V222.155ZM133.842 223.357H139.962V231.881H133.842V223.357ZM138.423 224.594H135.416V230.618H138.423V224.594ZM155.46 222.155V224.68H157.255V225.977H155.46V228.577H153.871V222.155H155.46ZM152.881 227.772C152.093 227.95 151.285 228.067 150.457 228.124C149.629 228.181 148.533 228.21 147.168 228.21H146.861H145.815V222.849H151.568V224.106H147.384V226.968C148.581 226.961 149.573 226.927 150.361 226.867C151.149 226.807 151.93 226.698 152.705 226.54L152.881 227.772ZM155.46 232.549H148.626V233.57H155.863V234.848H147.068V231.358H153.881V230.397H147.047V229.135H155.46V232.549Z" fill="black"/>
<path d="M85.4938 288.287C85.3061 288.698 85.0362 289.074 84.6842 289.414C84.3346 289.754 83.9392 290.039 83.498 290.269C83.0592 290.497 82.6109 290.659 82.1533 290.755L81.8013 290.107C82.327 290.016 82.8421 289.821 83.3466 289.523C83.8535 289.223 84.2689 288.855 84.5927 288.421C84.9165 287.987 85.0796 287.533 85.082 287.059V286.376H85.8986V287.059C85.8986 287.531 86.0617 287.984 86.3879 288.418C86.7141 288.852 87.1318 289.219 87.641 289.519C88.1503 289.82 88.6677 290.016 89.1934 290.107L88.8414 290.755C88.3838 290.659 87.9332 290.497 87.4897 290.269C87.0485 290.039 86.6519 289.754 86.2999 289.414C85.9479 289.074 85.6792 288.698 85.4938 288.287ZM85.8775 290.656V292.818H89.5876V293.465H81.4845V292.818H85.1101V290.656H85.8775ZM94.755 288.734V288.087H96.5432V285.778H97.3246V291.051H96.5432V288.734H94.755ZM92.6888 288.706C92.4987 289.225 92.2065 289.681 91.8123 290.076C91.4204 290.47 90.9605 290.767 90.4325 290.966L90.0241 290.347C90.4583 290.189 90.8466 289.959 91.1893 289.657C91.5319 289.354 91.7982 289.007 91.9883 288.615C92.1807 288.223 92.2769 287.819 92.2769 287.404V287.073H90.2776V286.425H95.0437V287.073H93.0654V287.397C93.0654 287.777 93.1569 288.147 93.34 288.506C93.523 288.862 93.78 289.18 94.1109 289.46C94.4418 289.737 94.8207 289.948 95.2478 290.093L94.8395 290.72C94.3467 290.541 93.9137 290.276 93.5406 289.924C93.1675 289.572 92.8836 289.166 92.6888 288.706ZM94.389 291.325C94.9991 291.325 95.5259 291.391 95.9694 291.522C96.4153 291.651 96.7567 291.839 96.9938 292.086C97.2331 292.332 97.3528 292.628 97.3528 292.973C97.3528 293.318 97.2331 293.612 96.9938 293.856C96.7567 294.103 96.4165 294.29 95.973 294.419C95.5294 294.551 95.0014 294.618 94.389 294.62C93.7741 294.618 93.2438 294.551 92.7979 294.419C92.3544 294.29 92.0141 294.103 91.7771 293.856C91.5401 293.612 91.4227 293.318 91.4251 292.973C91.4227 292.628 91.5401 292.332 91.7771 292.086C92.0141 291.839 92.3556 291.651 92.8014 291.522C93.2473 291.391 93.7765 291.325 94.389 291.325ZM94.389 293.993C94.8372 293.996 95.2255 293.956 95.5541 293.874C95.8826 293.794 96.1349 293.677 96.3109 293.522C96.4892 293.367 96.5784 293.184 96.5784 292.973C96.5784 292.759 96.4892 292.575 96.3109 292.42C96.1349 292.263 95.8826 292.143 95.5541 292.061C95.2255 291.979 94.8372 291.938 94.389 291.938C93.9384 291.938 93.5477 291.979 93.2168 292.061C92.8882 292.143 92.636 292.263 92.46 292.42C92.284 292.575 92.1972 292.759 92.1995 292.973C92.1972 293.184 92.284 293.367 92.46 293.522C92.636 293.677 92.8882 293.794 93.2168 293.874C93.5477 293.956 93.9384 293.996 94.389 293.993ZM108.849 289.847V290.502H100.746V289.847H106.772C106.847 289.469 106.901 289.115 106.934 288.784C106.969 288.451 106.99 288.156 106.998 287.9C107.007 287.642 107.012 287.341 107.012 286.996V286.953H101.774V286.313H107.786V286.996C107.786 287.338 107.781 287.64 107.772 287.9C107.765 288.158 107.745 288.454 107.712 288.787C107.679 289.121 107.626 289.474 107.554 289.847H108.849ZM101.816 291.494H102.597V293.768H108.054V294.423H101.816V291.494ZM110.285 286.27H116.29V289.713H110.285V286.27ZM111.053 289.101H115.516V286.911H111.053V289.101ZM109.236 290.924H117.339V291.565H113.65V294.62H112.883V291.565H109.236V290.924ZM126.519 294.641V285.778H127.301V294.641H126.519ZM123.154 288.157C123.152 288.681 123.259 289.2 123.475 289.717C123.69 290.233 123.981 290.692 124.348 291.093C124.716 291.492 125.116 291.79 125.548 291.987L125.069 292.606C124.736 292.442 124.42 292.222 124.122 291.945C123.824 291.665 123.559 291.343 123.327 290.977C123.094 290.611 122.909 290.22 122.771 289.805C122.634 290.246 122.45 290.661 122.218 291.051C121.988 291.438 121.722 291.78 121.419 292.078C121.116 292.377 120.794 292.611 120.451 292.782L119.958 292.128C120.395 291.926 120.797 291.619 121.165 291.206C121.534 290.79 121.826 290.315 122.042 289.78C122.26 289.245 122.37 288.704 122.373 288.157V286.545H123.154V288.157ZM135.432 285.778V288.467H136.763V289.129H135.432V292.254H134.644V285.778H135.432ZM133.039 286.461C133.039 287.209 132.87 287.896 132.532 288.52C132.194 289.142 131.711 289.681 131.085 290.139C130.461 290.597 129.72 290.959 128.864 291.227L128.526 290.6C129.235 290.379 129.854 290.097 130.384 289.752C130.915 289.404 131.335 289.008 131.645 288.562C131.954 288.114 132.136 287.632 132.19 287.115H128.892V286.461H133.039ZM129.885 291.593H130.666V293.782H135.833V294.43H129.885V291.593ZM143.528 285.778H144.31V294.641H143.528V285.778ZM139.607 286.461C140.043 286.463 140.432 286.591 140.772 286.844C141.115 287.098 141.382 287.458 141.575 287.925C141.769 288.39 141.867 288.929 141.867 289.544C141.867 290.161 141.769 290.703 141.575 291.17C141.382 291.637 141.115 291.998 140.772 292.251C140.429 292.502 140.041 292.628 139.607 292.628C139.168 292.628 138.777 292.502 138.435 292.251C138.092 291.998 137.825 291.638 137.632 291.174C137.442 290.707 137.347 290.164 137.347 289.544C137.347 288.927 137.442 288.386 137.632 287.921C137.825 287.457 138.092 287.098 138.435 286.844C138.777 286.591 139.168 286.463 139.607 286.461ZM139.607 287.158C139.314 287.16 139.052 287.261 138.822 287.46C138.594 287.657 138.417 287.937 138.29 288.298C138.164 288.657 138.1 289.072 138.1 289.544C138.1 290.018 138.164 290.436 138.29 290.797C138.417 291.159 138.594 291.438 138.822 291.635C139.052 291.832 139.314 291.931 139.607 291.931C139.9 291.931 140.16 291.832 140.385 291.635C140.612 291.438 140.79 291.159 140.916 290.797C141.043 290.436 141.106 290.018 141.106 289.544C141.106 289.072 141.043 288.657 140.916 288.298C140.79 287.937 140.612 287.657 140.385 287.46C140.16 287.261 139.9 287.16 139.607 287.158ZM154.285 285.778H155.067V294.641H154.285V285.778ZM148.287 286.651H152.377V292.402H148.287V286.651ZM151.617 287.277H149.062V291.762H151.617V287.277ZM163.198 285.778V287.65H164.529V288.305H163.198V290.241H162.417V285.778H163.198ZM161.544 289.586C160.971 289.708 160.4 289.79 159.829 289.833C159.261 289.875 158.544 289.896 157.679 289.896H157.369H156.686V286.292H160.614V286.932H157.453V289.262H157.587C158.439 289.262 159.151 289.241 159.724 289.199C160.296 289.155 160.87 289.075 161.445 288.96L161.544 289.586ZM163.198 292.86H158.34V293.867H163.522V294.507H157.573V292.247H162.424V291.318H157.552V290.685H163.198V292.86ZM167.83 286.869H170.076V287.51H164.803V286.869H167.056V285.785H167.83V286.869ZM171.702 285.785V288.699H173.033V289.361H171.702V292.416H170.921V285.785H171.702ZM169.569 289.65C169.567 289.976 169.477 290.262 169.298 290.509C169.12 290.755 168.87 290.946 168.548 291.082C168.229 291.216 167.861 291.283 167.443 291.283C167.018 291.283 166.644 291.216 166.32 291.082C165.999 290.949 165.749 290.758 165.57 290.512C165.394 290.263 165.308 289.976 165.31 289.65C165.308 289.319 165.394 289.029 165.57 288.78C165.749 288.529 165.999 288.336 166.32 288.199C166.644 288.063 167.018 287.995 167.443 287.995C167.861 287.995 168.229 288.063 168.548 288.199C168.87 288.336 169.12 288.529 169.298 288.78C169.477 289.029 169.567 289.319 169.569 289.65ZM166.056 289.65C166.054 289.854 166.11 290.033 166.225 290.188C166.34 290.341 166.502 290.459 166.711 290.544C166.922 290.626 167.166 290.666 167.443 290.663C167.715 290.666 167.956 290.626 168.165 290.544C168.374 290.459 168.536 290.341 168.65 290.188C168.768 290.033 168.828 289.854 168.83 289.65C168.828 289.441 168.768 289.258 168.65 289.101C168.536 288.943 168.374 288.822 168.165 288.738C167.956 288.651 167.715 288.608 167.443 288.608C167.166 288.608 166.922 288.651 166.711 288.738C166.502 288.822 166.34 288.943 166.225 289.101C166.11 289.258 166.054 289.441 166.056 289.65ZM166.162 291.881H166.936V293.782H172.111V294.43H166.162V291.881ZM183.607 290.157V290.804H179.946V294.641H179.165V290.804H175.539V290.157H181.488C181.572 289.762 181.635 289.39 181.674 289.041C181.714 288.691 181.739 288.379 181.748 288.104C181.758 287.827 181.762 287.502 181.762 287.129V287.003H176.553V286.355H182.537V287.129C182.537 287.507 182.532 287.833 182.523 288.108C182.516 288.382 182.493 288.695 182.456 289.044C182.418 289.392 182.361 289.762 182.283 290.157H183.607ZM191.379 291.022H190.598V288.319H188.626V287.671H190.598V285.778H191.379V291.022ZM186.715 288.576C186.527 289.106 186.238 289.57 185.846 289.966C185.456 290.363 184.994 290.661 184.459 290.861L184.036 290.227C184.487 290.067 184.884 289.837 185.226 289.537C185.569 289.234 185.834 288.882 186.022 288.481C186.212 288.08 186.308 287.653 186.31 287.2V286.285H187.085V287.172C187.082 287.585 187.173 287.979 187.356 288.354C187.541 288.73 187.8 289.058 188.134 289.34C188.467 289.622 188.849 289.835 189.281 289.981L188.845 290.593C188.354 290.41 187.924 290.145 187.553 289.798C187.184 289.448 186.905 289.041 186.715 288.576ZM188.443 291.276C189.054 291.276 189.58 291.342 190.024 291.473C190.47 291.604 190.811 291.796 191.048 292.047C191.288 292.298 191.407 292.599 191.407 292.951C191.407 293.299 191.288 293.597 191.048 293.846C190.811 294.094 190.471 294.283 190.027 294.412C189.584 294.541 189.056 294.606 188.443 294.606C187.829 294.606 187.298 294.541 186.852 294.412C186.409 294.283 186.069 294.094 185.832 293.846C185.595 293.597 185.477 293.299 185.48 292.951C185.477 292.599 185.595 292.298 185.832 292.047C186.069 291.796 186.41 291.604 186.856 291.473C187.302 291.342 187.831 291.276 188.443 291.276ZM188.443 293.979C188.892 293.979 189.28 293.938 189.609 293.856C189.937 293.774 190.189 293.655 190.365 293.501C190.544 293.346 190.633 293.163 190.633 292.951C190.633 292.733 190.544 292.545 190.365 292.388C190.189 292.229 189.937 292.107 189.609 292.022C189.28 291.938 188.892 291.895 188.443 291.895C187.993 291.895 187.602 291.938 187.271 292.022C186.943 292.107 186.69 292.229 186.514 292.388C186.338 292.545 186.252 292.733 186.254 292.951C186.252 293.163 186.338 293.346 186.514 293.501C186.69 293.655 186.943 293.774 187.271 293.856C187.602 293.938 187.993 293.979 188.443 293.979ZM197.229 291.586V291.015H199.053V285.785H199.841V292.508H199.053V291.586H197.229ZM195.406 289.22C194.972 289.22 194.588 289.158 194.255 289.034C193.924 288.909 193.667 288.731 193.484 288.499C193.301 288.266 193.21 287.995 193.21 287.686C193.21 287.38 193.301 287.112 193.484 286.879C193.667 286.645 193.925 286.464 194.259 286.337C194.592 286.208 194.974 286.144 195.406 286.144C195.833 286.144 196.212 286.208 196.543 286.337C196.874 286.464 197.131 286.645 197.314 286.879C197.499 287.112 197.593 287.38 197.596 287.686C197.593 287.995 197.499 288.266 197.314 288.499C197.131 288.729 196.874 288.907 196.543 289.034C196.215 289.158 195.836 289.22 195.406 289.22ZM195.406 286.735C195.12 286.733 194.866 286.771 194.646 286.851C194.425 286.931 194.254 287.044 194.132 287.189C194.012 287.332 193.953 287.498 193.956 287.686C193.953 287.876 194.012 288.042 194.132 288.185C194.254 288.329 194.425 288.44 194.646 288.52C194.866 288.597 195.12 288.636 195.406 288.636C195.683 288.636 195.931 288.597 196.149 288.52C196.367 288.44 196.537 288.329 196.659 288.185C196.784 288.042 196.847 287.876 196.849 287.686C196.847 287.498 196.784 287.332 196.659 287.189C196.537 287.044 196.367 286.931 196.149 286.851C195.931 286.771 195.683 286.733 195.406 286.735ZM195.096 292.198V290.487C194.491 290.511 193.803 290.523 193.034 290.523H192.604L192.499 289.882C193.667 289.877 194.71 289.86 195.628 289.829C196.548 289.796 197.424 289.727 198.257 289.622L198.314 290.192C197.579 290.309 196.767 290.395 195.878 290.449V292.198H195.096ZM194.554 291.846V293.782H200.06V294.43H193.773V291.846H194.554ZM207.564 285.778H208.346V294.641H207.564V285.778ZM203.643 286.461C204.079 286.463 204.468 286.591 204.808 286.844C205.151 287.098 205.418 287.458 205.611 287.925C205.805 288.39 205.903 288.929 205.903 289.544C205.903 290.161 205.805 290.703 205.611 291.17C205.418 291.637 205.151 291.998 204.808 292.251C204.465 292.502 204.077 292.628 203.643 292.628C203.204 292.628 202.813 292.502 202.471 292.251C202.128 291.998 201.861 291.638 201.668 291.174C201.478 290.707 201.383 290.164 201.383 289.544C201.383 288.927 201.478 288.386 201.668 287.921C201.861 287.457 202.128 287.098 202.471 286.844C202.813 286.591 203.204 286.463 203.643 286.461ZM203.643 287.158C203.35 287.16 203.088 287.261 202.858 287.46C202.63 287.657 202.453 287.937 202.326 288.298C202.2 288.657 202.136 289.072 202.136 289.544C202.136 290.018 202.2 290.436 202.326 290.797C202.453 291.159 202.63 291.438 202.858 291.635C203.088 291.832 203.35 291.931 203.643 291.931C203.936 291.931 204.196 291.832 204.421 291.635C204.649 291.438 204.826 291.159 204.952 290.797C205.079 290.436 205.142 290.018 205.142 289.544C205.142 289.072 205.079 288.657 204.952 288.298C204.826 287.937 204.649 287.657 204.421 287.46C204.196 287.261 203.936 287.16 203.643 287.158ZM216.385 294.627V285.778H217.139V294.627H216.385ZM214.611 289.227V285.968H215.365V294.176H214.611V289.875H213.471C213.445 290.445 213.35 290.942 213.186 291.364C213.024 291.784 212.803 292.108 212.524 292.335C212.245 292.561 211.924 292.672 211.563 292.67C211.183 292.672 210.85 292.548 210.563 292.297C210.279 292.046 210.059 291.688 209.902 291.223C209.747 290.758 209.669 290.215 209.669 289.593C209.669 288.974 209.747 288.433 209.902 287.971C210.059 287.506 210.279 287.149 210.563 286.901C210.85 286.649 211.183 286.524 211.563 286.524C211.92 286.524 212.235 286.633 212.51 286.851C212.787 287.07 213.007 287.383 213.172 287.791C213.336 288.197 213.435 288.676 213.467 289.227H214.611ZM211.563 291.931C211.802 291.933 212.011 291.839 212.19 291.649C212.368 291.459 212.505 291.188 212.601 290.836C212.698 290.482 212.746 290.067 212.746 289.593C212.746 289.119 212.698 288.706 212.601 288.354C212.505 288.002 212.368 287.731 212.19 287.541C212.011 287.351 211.802 287.256 211.563 287.256C211.328 287.256 211.123 287.351 210.947 287.541C210.771 287.731 210.635 288.002 210.539 288.354C210.445 288.706 210.399 289.119 210.401 289.593C210.399 290.067 210.445 290.482 210.539 290.836C210.635 291.188 210.771 291.459 210.947 291.649C211.123 291.839 211.328 291.933 211.563 291.931ZM224.151 292.832H226.164V293.487H218.061V292.832H220.067V290.445C219.685 290.243 219.387 289.986 219.173 289.674C218.962 289.36 218.857 289.007 218.857 288.615C218.857 288.164 218.994 287.768 219.268 287.425C219.543 287.08 219.925 286.813 220.416 286.622C220.906 286.432 221.464 286.336 222.088 286.334C222.714 286.336 223.273 286.432 223.763 286.622C224.256 286.813 224.64 287.08 224.914 287.425C225.189 287.768 225.326 288.164 225.326 288.615C225.326 289.002 225.223 289.35 225.017 289.66C224.812 289.968 224.524 290.222 224.151 290.424V292.832ZM219.61 288.615C219.61 288.939 219.714 289.226 219.923 289.477C220.134 289.726 220.428 289.92 220.803 290.058C221.181 290.194 221.609 290.262 222.088 290.262C222.567 290.262 222.994 290.194 223.369 290.058C223.747 289.92 224.042 289.726 224.253 289.477C224.466 289.226 224.573 288.939 224.573 288.615C224.573 288.289 224.466 288.001 224.253 287.752C224.042 287.504 223.747 287.311 223.369 287.175C222.994 287.039 222.567 286.972 222.088 286.974C221.609 286.972 221.181 287.039 220.803 287.175C220.428 287.311 220.134 287.504 219.923 287.752C219.714 288.001 219.61 288.289 219.61 288.615ZM220.835 292.832H223.362V290.73C222.97 290.831 222.546 290.882 222.088 290.882C221.647 290.882 221.229 290.832 220.835 290.734V292.832ZM227.502 293.874C227.387 293.874 227.279 293.846 227.178 293.789C227.079 293.731 227.001 293.652 226.942 293.553C226.886 293.455 226.859 293.348 226.861 293.233C226.859 293.118 226.886 293.011 226.942 292.913C227.001 292.814 227.079 292.737 227.178 292.68C227.279 292.622 227.387 292.592 227.502 292.592C227.617 292.592 227.724 292.622 227.822 292.68C227.921 292.737 227.998 292.814 228.054 292.913C228.113 293.011 228.142 293.118 228.142 293.233C228.142 293.348 228.113 293.455 228.054 293.553C227.998 293.652 227.921 293.731 227.822 293.789C227.724 293.846 227.617 293.874 227.502 293.874Z" fill="#999999"/>
<path d="M90.5893 272.595C89.1344 272.595 87.8001 272.277 86.5865 271.64C85.373 270.996 84.3907 269.933 83.6398 268.452C82.8888 266.963 82.5134 265.012 82.5134 262.598C82.5134 260.272 82.8486 258.27 83.5191 256.594C84.1896 254.918 85.145 253.641 86.3854 252.762C87.6258 251.877 89.0874 251.435 90.7703 251.435C92.0644 251.435 93.2243 251.686 94.2501 252.189C95.2827 252.692 96.1141 253.386 96.7443 254.271C97.3813 255.149 97.7768 256.145 97.9311 257.258H94.2702C94.0758 256.453 93.6735 255.816 93.0634 255.347C92.4532 254.878 91.6889 254.643 90.7703 254.643C89.7847 254.643 88.9433 254.925 88.246 255.488C87.5487 256.044 87.019 256.846 86.6569 257.891C86.2949 258.937 86.1105 260.185 86.1038 261.633H86.315C86.8313 260.741 87.5554 260.044 88.4874 259.541C89.426 259.038 90.4619 258.787 91.595 258.787C92.8153 258.787 93.9216 259.075 94.9139 259.651C95.9129 260.228 96.6974 261.026 97.2673 262.045C97.8439 263.064 98.1322 264.214 98.1322 265.495C98.1322 266.849 97.8171 268.066 97.1868 269.145C96.5633 270.218 95.6782 271.063 94.5317 271.68C93.3852 272.29 92.0711 272.595 90.5893 272.595ZM90.539 269.598C91.29 269.598 91.9705 269.42 92.5806 269.065C93.1908 268.71 93.6702 268.227 94.0188 267.617C94.3675 267 94.5418 266.323 94.5418 265.585C94.5418 264.854 94.3708 264.187 94.0289 263.584C93.6869 262.98 93.2142 262.504 92.6108 262.156C92.0141 261.8 91.3402 261.623 90.5893 261.623C89.8384 261.623 89.1511 261.804 88.5276 262.166C87.9107 262.528 87.4213 263.014 87.0592 263.624C86.7039 264.234 86.5228 264.895 86.5161 265.605C86.5161 266.323 86.6905 266.987 87.0391 267.597C87.3878 268.207 87.8672 268.693 88.4773 269.055C89.0941 269.417 89.7814 269.598 90.539 269.598Z" fill="black"/>
<path d="M110.143 266.721H107.769V267.59H103.127V263.101H107.769V263.978H110.143V262.328H111.036V268.322H110.143V266.721ZM104.012 266.858H106.892V263.825H104.012V266.858ZM110.143 265.981V264.71H107.769V265.981H110.143ZM107.681 268.612C108.378 268.612 108.98 268.687 109.487 268.837C109.996 268.988 110.387 269.206 110.658 269.493C110.931 269.78 111.068 270.125 111.068 270.527C111.068 270.924 110.931 271.265 110.658 271.549C110.387 271.833 109.998 272.049 109.491 272.196C108.984 272.344 108.381 272.418 107.681 272.418C106.978 272.418 106.372 272.344 105.862 272.196C105.355 272.049 104.967 271.833 104.696 271.549C104.425 271.265 104.291 270.924 104.293 270.527C104.291 270.125 104.425 269.78 104.696 269.493C104.967 269.206 105.357 268.988 105.866 268.837C106.376 268.687 106.981 268.612 107.681 268.612ZM107.681 271.71C108.193 271.71 108.637 271.661 109.012 271.565C109.388 271.471 109.676 271.336 109.877 271.159C110.081 270.979 110.183 270.768 110.183 270.527C110.183 270.275 110.082 270.059 109.881 269.879C109.68 269.697 109.392 269.557 109.016 269.461C108.641 269.364 108.196 269.315 107.681 269.312C107.163 269.315 106.716 269.364 106.341 269.461C105.966 269.557 105.677 269.697 105.476 269.879C105.275 270.059 105.176 270.275 105.178 270.527C105.176 270.768 105.275 270.979 105.476 271.159C105.677 271.336 105.966 271.471 106.341 271.565C106.719 271.661 107.166 271.71 107.681 271.71Z" fill="black"/>
<path d="M122.666 271.629C122.086 271.629 121.567 271.53 121.109 271.332C120.65 271.133 120.289 270.857 120.027 270.503C119.764 270.146 119.626 269.738 119.612 269.28H121.109C121.12 269.497 121.193 269.69 121.33 269.859C121.47 270.025 121.655 270.154 121.885 270.245C122.119 270.337 122.377 270.382 122.662 270.382C122.962 270.382 123.23 270.331 123.466 270.229C123.705 270.125 123.89 269.98 124.021 269.795C124.155 269.607 124.223 269.394 124.223 269.155C124.225 268.906 124.158 268.686 124.021 268.495C123.885 268.302 123.686 268.152 123.426 268.045C123.169 267.935 122.864 267.88 122.513 267.88H121.781V266.737H122.513C122.802 266.737 123.06 266.688 123.285 266.589C123.51 266.487 123.686 266.345 123.812 266.162C123.938 265.977 124.001 265.767 124.001 265.531C124.001 265.303 123.946 265.101 123.836 264.927C123.729 264.75 123.575 264.613 123.374 264.517C123.175 264.42 122.945 264.372 122.682 264.372C122.422 264.372 122.18 264.419 121.958 264.513C121.735 264.604 121.555 264.735 121.419 264.907C121.284 265.076 121.213 265.272 121.205 265.494H119.785C119.796 265.044 119.93 264.642 120.188 264.287C120.445 263.933 120.792 263.659 121.23 263.463C121.667 263.264 122.153 263.165 122.69 263.165C123.232 263.165 123.71 263.267 124.126 263.471C124.544 263.672 124.866 263.947 125.091 264.296C125.319 264.642 125.432 265.025 125.429 265.446C125.432 265.752 125.37 266.028 125.244 266.275C125.121 266.522 124.945 266.727 124.717 266.89C124.489 267.051 124.224 267.164 123.921 267.228V267.293C124.304 267.344 124.633 267.456 124.906 267.631C125.18 267.805 125.388 268.029 125.53 268.302C125.672 268.576 125.742 268.886 125.739 269.232C125.742 269.688 125.61 270.098 125.345 270.463C125.082 270.827 124.716 271.113 124.247 271.319C123.78 271.526 123.253 271.629 122.666 271.629Z" fill="#00AEAE"/>
<path d="M131.343 270.43L131.343 266.978L130.059 268.156C129.816 268.379 129.424 268.381 129.183 268.156C129.06 268.046 129 267.899 129 267.754C129 267.608 129.06 267.461 129.185 267.35L131.491 265.238C131.605 265.102 131.76 265 131.96 265C131.971 265 131.977 265.01 131.987 265.01C132.15 265.008 132.315 265.058 132.438 265.173L134.817 267.352C135.061 267.576 135.059 267.937 134.82 268.157C134.577 268.384 134.184 268.384 133.944 268.157L132.584 266.912L132.584 270.429C132.584 270.742 132.304 271 131.96 271C131.62 271.001 131.343 270.742 131.343 270.43Z" fill="#00AEAE"/>
<rect x="52" y="332.88" width="336" height="125" rx="11.6503" fill="white"/>
<path d="M82.0357 366.177C82.9408 366.06 83.7303 365.832 84.4041 365.493C85.0813 365.151 85.6076 364.741 85.9831 364.261C86.3586 363.779 86.5664 363.267 86.6067 362.728H82.5938V361.45H86.6318V359.796H88.1957V361.45H92.2437V362.728H88.2309C88.2678 363.267 88.4723 363.779 88.8444 364.261C89.2199 364.741 89.7462 365.15 90.4234 365.488C91.1005 365.827 91.89 366.057 92.7918 366.177L92.2085 367.414C91.1022 367.257 90.1334 366.942 89.302 366.469C88.4706 365.996 87.8403 365.408 87.4112 364.704C86.9855 365.411 86.3586 366.001 85.5305 366.474C84.7058 366.943 83.7387 367.257 82.629 367.414L82.0357 366.177ZM88.1957 366.967V369.627H93.3047V370.924H81.5529V369.627H86.6318V366.967H88.1957ZM103.784 364.825H105.645V366.162H103.784V372.438H102.19V359.595H103.784V364.825ZM98.967 366.69C99.1044 365.822 99.195 365.041 99.2385 364.347C99.2821 363.65 99.3073 362.932 99.314 362.195H94.2703V360.922H100.888V361.838V361.973C100.881 362.801 100.856 363.582 100.812 364.317C100.769 365.047 100.673 365.881 100.526 366.816L98.967 366.69ZM97.6344 368.395C99.1363 368.331 100.432 368.231 101.522 368.093L101.612 369.27C100.509 369.451 99.3475 369.577 98.1272 369.647C96.9103 369.714 95.6565 369.748 94.3658 369.748H93.7423L93.5864 368.47C94.6826 368.464 95.514 368.453 96.0806 368.44V364.603H97.6344V368.395ZM117.603 365.358V366.635H105.851V365.358H114.259C114.396 364.66 114.485 364.028 114.526 363.462C114.566 362.892 114.586 362.273 114.586 361.606H107.304V360.334H116.165V361.395C116.165 362.143 116.146 362.81 116.11 363.396C116.076 363.983 115.992 364.637 115.858 365.358H117.603ZM107.365 367.862H108.929V370.899H116.537V372.181H107.365V367.862ZM119.418 360.254H128.294V365.368H119.418V360.254ZM120.967 364.131H126.72V361.516H120.967V364.131ZM117.985 366.871H129.737V368.148H124.608V372.428H123.044V368.148H117.985V366.871Z" fill="black"/>
<path d="M85.4938 425.727C85.3061 426.138 85.0362 426.513 84.6842 426.853C84.3346 427.194 83.9392 427.479 83.498 427.709C83.0592 427.936 82.6109 428.098 82.1533 428.194L81.8013 427.547C82.327 427.455 82.8421 427.26 83.3466 426.962C83.8535 426.662 84.2689 426.295 84.5927 425.861C84.9165 425.427 85.0796 424.972 85.082 424.498V423.816H85.8986V424.498C85.8986 424.97 86.0617 425.423 86.3879 425.857C86.7141 426.291 87.1318 426.659 87.641 426.959C88.1503 427.259 88.6677 427.455 89.1934 427.547L88.8414 428.194C88.3838 428.098 87.9332 427.936 87.4897 427.709C87.0485 427.479 86.6519 427.194 86.2999 426.853C85.9479 426.513 85.6792 426.138 85.4938 425.727ZM85.8775 428.096V430.257H89.5876V430.905H81.4845V430.257H85.1101V428.096H85.8775ZM94.755 426.174V425.526H96.5432V423.217H97.3246V428.49H96.5432V426.174H94.755ZM92.6888 426.146C92.4987 426.664 92.2065 427.121 91.8123 427.515C91.4204 427.909 90.9605 428.206 90.4325 428.406L90.0241 427.786C90.4583 427.629 90.8466 427.399 91.1893 427.096C91.5319 426.793 91.7982 426.446 91.9883 426.054C92.1807 425.662 92.2769 425.259 92.2769 424.843V424.512H90.2776V423.865H95.0437V424.512H93.0654V424.836C93.0654 425.216 93.1569 425.586 93.34 425.945C93.523 426.302 93.78 426.62 94.1109 426.899C94.4418 427.176 94.8207 427.387 95.2478 427.533L94.8395 428.159C94.3467 427.981 93.9137 427.716 93.5406 427.364C93.1675 427.012 92.8836 426.606 92.6888 426.146ZM94.389 428.765C94.9991 428.765 95.5259 428.83 95.9694 428.962C96.4153 429.091 96.7567 429.279 96.9938 429.525C97.2331 429.771 97.3528 430.067 97.3528 430.412C97.3528 430.757 97.2331 431.052 96.9938 431.296C96.7567 431.542 96.4165 431.73 95.973 431.859C95.5294 431.99 95.0014 432.057 94.389 432.059C93.7741 432.057 93.2438 431.99 92.7979 431.859C92.3544 431.73 92.0141 431.542 91.7771 431.296C91.5401 431.052 91.4227 430.757 91.4251 430.412C91.4227 430.067 91.5401 429.771 91.7771 429.525C92.0141 429.279 92.3556 429.091 92.8014 428.962C93.2473 428.83 93.7765 428.765 94.389 428.765ZM94.389 431.433C94.8372 431.435 95.2255 431.395 95.5541 431.313C95.8826 431.233 96.1349 431.116 96.3109 430.961C96.4892 430.806 96.5784 430.623 96.5784 430.412C96.5784 430.198 96.4892 430.014 96.3109 429.859C96.1349 429.702 95.8826 429.582 95.5541 429.5C95.2255 429.418 94.8372 429.377 94.389 429.377C93.9384 429.377 93.5477 429.418 93.2168 429.5C92.8882 429.582 92.636 429.702 92.46 429.859C92.284 430.014 92.1972 430.198 92.1995 430.412C92.1972 430.623 92.284 430.806 92.46 430.961C92.636 431.116 92.8882 431.233 93.2168 431.313C93.5477 431.395 93.9384 431.435 94.389 431.433ZM108.849 427.286V427.941H100.746V427.286H106.772C106.847 426.908 106.901 426.554 106.934 426.223C106.969 425.89 106.99 425.595 106.998 425.34C107.007 425.082 107.012 424.78 107.012 424.435V424.393H101.774V423.752H107.786V424.435C107.786 424.778 107.781 425.079 107.772 425.34C107.765 425.598 107.745 425.894 107.712 426.227C107.679 426.56 107.626 426.913 107.554 427.286H108.849ZM101.816 428.934H102.597V431.208H108.054V431.862H101.816V428.934ZM110.285 423.71H116.29V427.152H110.285V423.71ZM111.053 426.54H115.516V424.351H111.053V426.54ZM109.236 428.363H117.339V429.004H113.65V432.059H112.883V429.004H109.236V428.363ZM126.519 432.081V423.217H127.301V432.081H126.519ZM123.154 425.597C123.152 426.12 123.259 426.64 123.475 427.156C123.69 427.672 123.981 428.131 124.348 428.532C124.716 428.931 125.116 429.229 125.548 429.426L125.069 430.046C124.736 429.882 124.42 429.661 124.122 429.384C123.824 429.105 123.559 428.782 123.327 428.416C123.094 428.05 122.909 427.659 122.771 427.244C122.634 427.685 122.45 428.101 122.218 428.49C121.988 428.877 121.722 429.22 121.419 429.518C121.116 429.816 120.794 430.051 120.451 430.222L119.958 429.567C120.395 429.365 120.797 429.058 121.165 428.645C121.534 428.23 121.826 427.754 122.042 427.219C122.26 426.684 122.37 426.143 122.373 425.597V423.984H123.154V425.597ZM135.432 423.217V425.906H136.763V426.568H135.432V429.694H134.644V423.217H135.432ZM133.039 423.9C133.039 424.649 132.87 425.335 132.532 425.959C132.194 426.581 131.711 427.121 131.085 427.578C130.461 428.036 129.72 428.399 128.864 428.666L128.526 428.04C129.235 427.819 129.854 427.536 130.384 427.191C130.915 426.844 131.335 426.447 131.645 426.001C131.954 425.553 132.136 425.071 132.19 424.555H128.892V423.9H133.039ZM129.885 429.032H130.666V431.222H135.833V431.869H129.885V429.032ZM141.043 426.448C140.386 426.446 139.823 426.385 139.353 426.265C138.886 426.146 138.529 425.971 138.28 425.741C138.033 425.511 137.91 425.231 137.91 424.9C137.91 424.573 138.033 424.297 138.28 424.069C138.529 423.841 138.886 423.669 139.353 423.552C139.823 423.432 140.386 423.372 141.043 423.372C141.7 423.372 142.262 423.431 142.729 423.548C143.196 423.665 143.553 423.839 143.799 424.069C144.046 424.297 144.169 424.573 144.169 424.9C144.169 425.231 144.046 425.511 143.799 425.741C143.553 425.971 143.196 426.146 142.729 426.265C142.262 426.385 141.7 426.446 141.043 426.448ZM141.043 423.963C140.56 423.963 140.143 424.001 139.793 424.076C139.446 424.151 139.181 424.259 138.998 424.4C138.815 424.538 138.725 424.705 138.727 424.9C138.725 425.101 138.814 425.274 138.994 425.417C139.177 425.558 139.443 425.666 139.79 425.741C140.137 425.814 140.555 425.85 141.043 425.85C141.534 425.85 141.952 425.814 142.3 425.741C142.649 425.666 142.916 425.558 143.099 425.417C143.282 425.274 143.373 425.101 143.373 424.9C143.373 424.705 143.281 424.538 143.095 424.4C142.912 424.259 142.646 424.151 142.296 424.076C141.947 424.001 141.529 423.963 141.043 423.963ZM137.016 427.68V427.047H145.084V427.68H137.016ZM144.042 430.426H138.783V431.348H144.31V431.968H138.016V429.849H143.275V429.046H137.995V428.448H144.042V430.426ZM148.224 427.962C148.801 427.868 149.333 427.696 149.818 427.445C150.304 427.194 150.691 426.88 150.98 426.505C151.271 426.129 151.418 425.719 151.42 425.273H148.526V424.625H151.427V423.407H152.194V424.625H155.095V425.273H152.208C152.208 425.719 152.353 426.129 152.641 426.505C152.93 426.88 153.316 427.194 153.799 427.445C154.285 427.696 154.816 427.868 155.391 427.962L155.088 428.575C154.607 428.49 154.151 428.355 153.722 428.17C153.295 427.982 152.915 427.747 152.582 427.466C152.251 427.182 151.994 426.86 151.811 426.501C151.63 426.86 151.373 427.182 151.04 427.466C150.709 427.747 150.329 427.982 149.899 428.17C149.47 428.355 149.015 428.49 148.534 428.575L148.224 427.962ZM152.194 428.265V430.292H155.876V430.947H147.773V430.292H151.427V428.265H152.194ZM163.106 426.92H164.543V427.596H163.106V432.066H162.325V423.217H163.106V426.92ZM160.143 428.103C160.248 427.446 160.317 426.857 160.35 426.336C160.385 425.815 160.403 425.315 160.403 424.836H156.686V424.196H161.185V424.66V424.755C161.18 425.3 161.161 425.834 161.128 426.357C161.098 426.88 161.03 427.483 160.924 428.166L160.143 428.103ZM158.868 429.416C159.999 429.371 160.966 429.3 161.769 429.201L161.811 429.793C160.424 430.008 158.684 430.116 156.591 430.116H156.285L156.186 429.462C157.019 429.457 157.655 429.449 158.094 429.437V426.723H158.868V429.416ZM167.83 424.308H170.076V424.949H164.803V424.308H167.056V423.224H167.83V424.308ZM171.702 423.224V426.139H173.033V426.8H171.702V429.856H170.921V423.224H171.702ZM169.569 427.089C169.567 427.415 169.477 427.702 169.298 427.948C169.12 428.194 168.87 428.386 168.548 428.522C168.229 428.656 167.861 428.722 167.443 428.722C167.018 428.722 166.644 428.656 166.32 428.522C165.999 428.388 165.749 428.198 165.57 427.952C165.394 427.703 165.308 427.415 165.31 427.089C165.308 426.758 165.394 426.468 165.57 426.22C165.749 425.969 165.999 425.775 166.32 425.639C166.644 425.503 167.018 425.435 167.443 425.435C167.861 425.435 168.229 425.503 168.548 425.639C168.87 425.775 169.12 425.969 169.298 426.22C169.477 426.468 169.567 426.758 169.569 427.089ZM166.056 427.089C166.054 427.293 166.11 427.473 166.225 427.628C166.34 427.78 166.502 427.899 166.711 427.983C166.922 428.065 167.166 428.105 167.443 428.103C167.715 428.105 167.956 428.065 168.165 427.983C168.374 427.899 168.536 427.78 168.65 427.628C168.768 427.473 168.828 427.293 168.83 427.089C168.828 426.88 168.768 426.697 168.65 426.54C168.536 426.383 168.374 426.262 168.165 426.177C167.956 426.091 167.715 426.047 167.443 426.047C167.166 426.047 166.922 426.091 166.711 426.177C166.502 426.262 166.34 426.383 166.225 426.54C166.11 426.697 166.054 426.88 166.056 427.089ZM166.162 429.321H166.936V431.222H172.111V431.869H166.162V429.321ZM183.607 427.596V428.244H179.946V432.081H179.165V428.244H175.539V427.596H181.488C181.572 427.202 181.635 426.83 181.674 426.48C181.714 426.131 181.739 425.818 181.748 425.544C181.758 425.267 181.762 424.942 181.762 424.569V424.442H176.553V423.794H182.537V424.569C182.537 424.947 182.532 425.273 182.523 425.547C182.516 425.822 182.493 426.134 182.456 426.484C182.418 426.831 182.361 427.202 182.283 427.596H183.607ZM191.379 428.462H190.598V425.759H188.626V425.111H190.598V423.217H191.379V428.462ZM186.715 426.016C186.527 426.546 186.238 427.009 185.846 427.406C185.456 427.803 184.994 428.101 184.459 428.3L184.036 427.666C184.487 427.507 184.884 427.277 185.226 426.976C185.569 426.674 185.834 426.322 186.022 425.92C186.212 425.519 186.308 425.092 186.31 424.639V423.724H187.085V424.611C187.082 425.024 187.173 425.418 187.356 425.794C187.541 426.169 187.8 426.498 188.134 426.779C188.467 427.061 188.849 427.275 189.281 427.42L188.845 428.032C188.354 427.849 187.924 427.584 187.553 427.237C187.184 426.887 186.905 426.48 186.715 426.016ZM188.443 428.715C189.054 428.715 189.58 428.781 190.024 428.913C190.47 429.044 190.811 429.235 191.048 429.486C191.288 429.737 191.407 430.039 191.407 430.391C191.407 430.738 191.288 431.036 191.048 431.285C190.811 431.534 190.471 431.723 190.027 431.852C189.584 431.981 189.056 432.045 188.443 432.045C187.829 432.045 187.298 431.981 186.852 431.852C186.409 431.723 186.069 431.534 185.832 431.285C185.595 431.036 185.477 430.738 185.48 430.391C185.477 430.039 185.595 429.737 185.832 429.486C186.069 429.235 186.41 429.044 186.856 428.913C187.302 428.781 187.831 428.715 188.443 428.715ZM188.443 431.419C188.892 431.419 189.28 431.378 189.609 431.296C189.937 431.213 190.189 431.095 190.365 430.94C190.544 430.785 190.633 430.602 190.633 430.391C190.633 430.173 190.544 429.985 190.365 429.828C190.189 429.668 189.937 429.546 189.609 429.462C189.28 429.377 188.892 429.335 188.443 429.335C187.993 429.335 187.602 429.377 187.271 429.462C186.943 429.546 186.69 429.668 186.514 429.828C186.338 429.985 186.252 430.173 186.254 430.391C186.252 430.602 186.338 430.785 186.514 430.94C186.69 431.095 186.943 431.213 187.271 431.296C187.602 431.378 187.993 431.419 188.443 431.419ZM197.229 429.025V428.455H199.053V423.224H199.841V429.947H199.053V429.025H197.229ZM195.406 426.66C194.972 426.66 194.588 426.598 194.255 426.473C193.924 426.349 193.667 426.17 193.484 425.938C193.301 425.706 193.21 425.435 193.21 425.125C193.21 424.82 193.301 424.551 193.484 424.319C193.667 424.084 193.925 423.904 194.259 423.777C194.592 423.648 194.974 423.583 195.406 423.583C195.833 423.583 196.212 423.648 196.543 423.777C196.874 423.904 197.131 424.084 197.314 424.319C197.499 424.551 197.593 424.82 197.596 425.125C197.593 425.435 197.499 425.706 197.314 425.938C197.131 426.168 196.874 426.346 196.543 426.473C196.215 426.598 195.836 426.66 195.406 426.66ZM195.406 424.175C195.12 424.172 194.866 424.211 194.646 424.291C194.425 424.371 194.254 424.483 194.132 424.629C194.012 424.772 193.953 424.937 193.956 425.125C193.953 425.315 194.012 425.482 194.132 425.625C194.254 425.768 194.425 425.879 194.646 425.959C194.866 426.037 195.12 426.075 195.406 426.075C195.683 426.075 195.931 426.037 196.149 425.959C196.367 425.879 196.537 425.768 196.659 425.625C196.784 425.482 196.847 425.315 196.849 425.125C196.847 424.937 196.784 424.772 196.659 424.629C196.537 424.483 196.367 424.371 196.149 424.291C195.931 424.211 195.683 424.172 195.406 424.175ZM195.096 429.638V427.927C194.491 427.95 193.803 427.962 193.034 427.962H192.604L192.499 427.321C193.667 427.317 194.71 427.299 195.628 427.269C196.548 427.236 197.424 427.167 198.257 427.061L198.314 427.631C197.579 427.749 196.767 427.834 195.878 427.888V429.638H195.096ZM194.554 429.286V431.222H200.06V431.869H193.773V429.286H194.554ZM207.564 423.217H208.346V432.081H207.564V423.217ZM203.643 423.9C204.079 423.902 204.468 424.03 204.808 424.284C205.151 424.537 205.418 424.897 205.611 425.364C205.805 425.829 205.903 426.369 205.903 426.984C205.903 427.601 205.805 428.143 205.611 428.61C205.418 429.077 205.151 429.437 204.808 429.69C204.465 429.942 204.077 430.067 203.643 430.067C203.204 430.067 202.813 429.942 202.471 429.69C202.128 429.437 201.861 429.078 201.668 428.613C201.478 428.146 201.383 427.603 201.383 426.984C201.383 426.366 201.478 425.825 201.668 425.361C201.861 424.896 202.128 424.537 202.471 424.284C202.813 424.03 203.204 423.902 203.643 423.9ZM203.643 424.597C203.35 424.599 203.088 424.7 202.858 424.9C202.63 425.097 202.453 425.376 202.326 425.737C202.2 426.096 202.136 426.512 202.136 426.984C202.136 427.458 202.2 427.875 202.326 428.237C202.453 428.598 202.63 428.877 202.858 429.074C203.088 429.272 203.35 429.37 203.643 429.37C203.936 429.37 204.196 429.272 204.421 429.074C204.649 428.877 204.826 428.598 204.952 428.237C205.079 427.875 205.142 427.458 205.142 426.984C205.142 426.512 205.079 426.096 204.952 425.737C204.826 425.376 204.649 425.097 204.421 424.9C204.196 424.7 203.936 424.599 203.643 424.597ZM216.385 432.066V423.217H217.139V432.066H216.385ZM214.611 426.667V423.407H215.365V431.616H214.611V427.314H213.471C213.445 427.885 213.35 428.381 213.186 428.803C213.024 429.223 212.803 429.547 212.524 429.775C212.245 430 211.924 430.112 211.563 430.109C211.183 430.112 210.85 429.987 210.563 429.736C210.279 429.485 210.059 429.127 209.902 428.663C209.747 428.198 209.669 427.655 209.669 427.033C209.669 426.413 209.747 425.872 209.902 425.41C210.059 424.945 210.279 424.589 210.563 424.34C210.85 424.089 211.183 423.963 211.563 423.963C211.92 423.963 212.235 424.072 212.51 424.291C212.787 424.509 213.007 424.822 213.172 425.231C213.336 425.637 213.435 426.115 213.467 426.667H214.611ZM211.563 429.37C211.802 429.372 212.011 429.279 212.19 429.089C212.368 428.898 212.505 428.627 212.601 428.275C212.698 427.921 212.746 427.507 212.746 427.033C212.746 426.559 212.698 426.146 212.601 425.794C212.505 425.442 212.368 425.171 212.19 424.981C212.011 424.791 211.802 424.696 211.563 424.696C211.328 424.696 211.123 424.791 210.947 424.981C210.771 425.171 210.635 425.442 210.539 425.794C210.445 426.146 210.399 426.559 210.401 427.033C210.399 427.507 210.445 427.921 210.539 428.275C210.635 428.627 210.771 428.898 210.947 429.089C211.123 429.279 211.328 429.372 211.563 429.37ZM224.151 430.271H226.164V430.926H218.061V430.271H220.067V427.885C219.685 427.683 219.387 427.426 219.173 427.114C218.962 426.799 218.857 426.446 218.857 426.054C218.857 425.604 218.994 425.207 219.268 424.864C219.543 424.52 219.925 424.252 220.416 424.062C220.906 423.872 221.464 423.776 222.088 423.773C222.714 423.776 223.273 423.872 223.763 424.062C224.256 424.252 224.64 424.52 224.914 424.864C225.189 425.207 225.326 425.604 225.326 426.054C225.326 426.441 225.223 426.79 225.017 427.1C224.812 427.407 224.524 427.662 224.151 427.864V430.271ZM219.61 426.054C219.61 426.378 219.714 426.666 219.923 426.917C220.134 427.165 220.428 427.359 220.803 427.497C221.181 427.634 221.609 427.702 222.088 427.702C222.567 427.702 222.994 427.634 223.369 427.497C223.747 427.359 224.042 427.165 224.253 426.917C224.466 426.666 224.573 426.378 224.573 426.054C224.573 425.728 224.466 425.441 224.253 425.192C224.042 424.943 223.747 424.751 223.369 424.615C222.994 424.478 222.567 424.412 222.088 424.414C221.609 424.412 221.181 424.478 220.803 424.615C220.428 424.751 220.134 424.943 219.923 425.192C219.714 425.441 219.61 425.728 219.61 426.054ZM220.835 430.271H223.362V428.17C222.97 428.271 222.546 428.321 222.088 428.321C221.647 428.321 221.229 428.272 220.835 428.173V430.271ZM227.502 431.313C227.387 431.313 227.279 431.285 227.178 431.229C227.079 431.17 227.001 431.091 226.942 430.993C226.886 430.894 226.859 430.788 226.861 430.673C226.859 430.558 226.886 430.451 226.942 430.352C227.001 430.254 227.079 430.176 227.178 430.12C227.279 430.061 227.387 430.032 227.502 430.032C227.617 430.032 227.724 430.061 227.822 430.12C227.921 430.176 227.998 430.254 228.054 430.352C228.113 430.451 228.142 430.558 228.142 430.673C228.142 430.788 228.113 430.894 228.054 430.993C227.998 431.091 227.921 431.17 227.822 431.229C227.724 431.285 227.617 431.313 227.502 431.313Z" fill="#999999"/>
<path d="M87.6425 389.156H91.1927V409.753H87.4716V392.766H87.3509L82.5335 395.844V392.455L87.6425 389.156Z" fill="black"/>
<path d="M103.901 404.161H101.527V405.03H96.885V400.54H101.527V401.417H103.901V399.768H104.794V405.762H103.901V404.161ZM97.7701 404.298H100.65V401.264H97.7701V404.298ZM103.901 403.421V402.149H101.527V403.421H103.901ZM101.439 406.052C102.136 406.052 102.738 406.127 103.245 406.277C103.755 406.427 104.145 406.646 104.416 406.933C104.689 407.22 104.826 407.564 104.826 407.966C104.826 408.363 104.689 408.704 104.416 408.988C104.145 409.273 103.756 409.488 103.249 409.636C102.742 409.783 102.139 409.857 101.439 409.857C100.736 409.857 100.13 409.783 99.6206 409.636C99.1137 409.488 98.7248 409.273 98.454 408.988C98.1831 408.704 98.049 408.363 98.0517 407.966C98.049 407.564 98.1831 407.22 98.454 406.933C98.7248 406.646 99.115 406.427 99.6246 406.277C100.134 406.127 100.739 406.052 101.439 406.052ZM101.439 409.149C101.951 409.149 102.395 409.101 102.771 409.004C103.146 408.91 103.434 408.775 103.635 408.598C103.839 408.418 103.941 408.208 103.941 407.966C103.941 407.714 103.841 407.498 103.639 407.319C103.438 407.136 103.15 406.997 102.775 406.9C102.399 406.804 101.954 406.754 101.439 406.752C100.921 406.754 100.475 406.804 100.099 406.9C99.7238 406.997 99.4355 407.136 99.2344 407.319C99.0332 407.498 98.934 407.714 98.9367 407.966C98.934 408.208 99.0332 408.418 99.2344 408.598C99.4355 408.775 99.7238 408.91 100.099 409.004C100.477 409.101 100.924 409.149 101.439 409.149Z" fill="black"/>
<path d="M115.732 403.758H119.437V404.953H115.732V403.758ZM123.413 408.589C122.834 408.589 122.315 408.49 121.856 408.292C121.398 408.093 121.037 407.817 120.774 407.463C120.511 407.106 120.373 406.698 120.36 406.24H121.856C121.867 406.457 121.941 406.65 122.077 406.819C122.217 406.985 122.402 407.114 122.633 407.205C122.866 407.297 123.125 407.342 123.409 407.342C123.709 407.342 123.978 407.291 124.214 407.189C124.452 407.085 124.637 406.94 124.769 406.755C124.903 406.567 124.97 406.354 124.97 406.115C124.973 405.866 124.905 405.646 124.769 405.455C124.632 405.262 124.433 405.112 124.173 405.005C123.916 404.895 123.611 404.84 123.26 404.84H122.528V403.697H123.26C123.55 403.697 123.807 403.648 124.033 403.549C124.258 403.447 124.433 403.304 124.56 403.122C124.686 402.937 124.749 402.727 124.749 402.491C124.749 402.263 124.694 402.061 124.584 401.887C124.476 401.71 124.322 401.573 124.121 401.477C123.923 401.38 123.692 401.332 123.429 401.332C123.169 401.332 122.928 401.379 122.705 401.473C122.482 401.564 122.303 401.695 122.166 401.867C122.032 402.036 121.961 402.232 121.953 402.454H120.533C120.543 402.004 120.677 401.601 120.935 401.247C121.192 400.893 121.54 400.619 121.977 400.423C122.414 400.224 122.901 400.125 123.437 400.125C123.979 400.125 124.458 400.227 124.873 400.431C125.292 400.632 125.614 400.907 125.839 401.255C126.067 401.601 126.179 401.985 126.177 402.406C126.179 402.712 126.118 402.988 125.992 403.235C125.868 403.481 125.693 403.687 125.465 403.85C125.237 404.011 124.971 404.124 124.668 404.188V404.253C125.052 404.303 125.38 404.416 125.654 404.59C125.927 404.765 126.135 404.989 126.277 405.262C126.419 405.536 126.489 405.846 126.486 406.192C126.489 406.647 126.358 407.058 126.092 407.423C125.829 407.787 125.463 408.073 124.994 408.279C124.527 408.486 124 408.589 123.413 408.589Z" fill="#F5784B"/>
<path d="M131.343 402.57L131.343 406.022L130.059 404.844C129.816 404.621 129.424 404.619 129.183 404.844C129.06 404.954 129 405.101 129 405.246C129 405.392 129.06 405.539 129.185 405.65L131.491 407.762C131.605 407.898 131.76 408 131.96 408C131.971 408 131.977 407.99 131.987 407.99C132.15 407.992 132.315 407.942 132.438 407.827L134.817 405.648C135.061 405.424 135.059 405.063 134.82 404.843C134.577 404.616 134.184 404.616 133.944 404.843L132.584 406.088L132.584 402.571C132.584 402.258 132.304 402 131.96 402C131.62 401.999 131.343 402.258 131.343 402.57Z" fill="#F5784B"/>
</g>
</g>
<defs>
<filter id="filter0_d_191_984" x="37.2" y="32.2" width="365.6" height="444.48" filterUnits="userSpaceOnUse" color-interpolation-filters="sRGB">
<feFlood flood-opacity="0" result="BackgroundImageFix"/>
<feColorMatrix in="SourceAlpha" type="matrix" values="0 0 0 0 0 0 0 0 0 0 0 0 0 0 0 0 0 0 127 0" result="hardAlpha"/>
<feOffset dy="4"/>
<feGaussianBlur stdDeviation="7.4"/>
<feComposite in2="hardAlpha" operator="out"/>
<feColorMatrix type="matrix" values="0 0 0 0 0 0 0 0 0 0.682353 0 0 0 0 0.682353 0 0 0 0.06 0"/>
<feBlend mode="normal" in2="BackgroundImageFix" result="effect1_dropShadow_191_984"/>
<feBlend mode="normal" in="SourceGraphic" in2="effect1_dropShadow_191_984" result="shape"/>
</filter>
<clipPath id="clip0_191_984">
<rect width="440" height="500" rx="16" fill="white"/>
</clipPath>
</defs>
</svg>
