<svg width="440" height="500" viewBox="0 0 440 500" fill="none" xmlns="http://www.w3.org/2000/svg">
<g clip-path="url(#clip0_191_942)">
<g opacity="0.12">
<g filter="url(#filter0_f_191_942)">
<rect x="579.123" y="147.93" width="461.823" height="670.249" rx="230.911" transform="rotate(30 579.123 147.93)" fill="#0F24FF" fill-opacity="0.86" style="mix-blend-mode:multiply"/>
</g>
</g>
<rect x="60" y="308" width="460" height="240" rx="16" fill="white"/>
<rect x="80" y="328" width="420" height="200" rx="12" fill="#F4F6FC"/>
<path d="M128.236 374.592H123.042V379.212H121.642V374.592H116.448V373.332H128.236V374.592ZM126.99 372.492H125.59L126.01 368.348C126.038 368.087 125.907 367.956 125.618 367.956H117.33V366.696H126.78C127.023 366.696 127.205 366.766 127.326 366.906C127.457 367.046 127.513 367.233 127.494 367.466L126.99 372.492ZM132.411 379.212C131.562 379.212 130.904 378.993 130.437 378.554C129.971 378.125 129.737 377.513 129.737 376.72C129.737 375.927 129.971 375.315 130.437 374.886C130.904 374.447 131.562 374.228 132.411 374.228H137.298C138.147 374.228 138.805 374.447 139.272 374.886C139.738 375.315 139.972 375.927 139.972 376.72C139.972 377.513 139.738 378.125 139.272 378.554C138.805 378.993 138.147 379.212 137.298 379.212H132.411ZM139.72 373.78H138.32V370.574H136.094V373.36H134.694V367.97H133.462C133.163 367.97 132.948 368.031 132.818 368.152C132.696 368.264 132.584 368.432 132.482 368.656L130.396 373.36H128.841L131.054 368.334C131.175 368.073 131.287 367.839 131.389 367.634C131.492 367.429 131.614 367.261 131.754 367.13C131.903 366.99 132.08 366.887 132.285 366.822C132.491 366.747 132.752 366.71 133.07 366.71H136.094V369.286H138.32V366.556H139.72V373.78ZM137.116 377.952C137.61 377.952 137.974 377.835 138.208 377.602C138.45 377.378 138.572 377.084 138.572 376.72C138.572 376.356 138.45 376.062 138.208 375.838C137.974 375.605 137.61 375.488 137.116 375.488H132.594C132.099 375.488 131.73 375.605 131.487 375.838C131.254 376.062 131.138 376.356 131.138 376.72C131.138 377.084 131.254 377.378 131.487 377.602C131.73 377.835 132.099 377.952 132.594 377.952H137.116ZM148.711 370.098C148.534 370.406 148.277 370.667 147.941 370.882C147.614 371.097 147.222 371.26 146.765 371.372C146.308 371.484 145.804 371.54 145.253 371.54C144.702 371.54 144.194 371.484 143.727 371.372C143.27 371.26 142.878 371.097 142.551 370.882C142.224 370.667 141.968 370.406 141.781 370.098C141.604 369.781 141.515 369.417 141.515 369.006C141.515 368.605 141.604 368.245 141.781 367.928C141.968 367.611 142.224 367.345 142.551 367.13C142.878 366.915 143.27 366.752 143.727 366.64C144.194 366.528 144.702 366.472 145.253 366.472C145.804 366.472 146.308 366.528 146.765 366.64C147.222 366.752 147.614 366.915 147.941 367.13C148.277 367.345 148.534 367.611 148.711 367.928C148.898 368.245 148.991 368.605 148.991 369.006C148.991 369.417 148.898 369.781 148.711 370.098ZM151.847 376.888H150.447V375.558H147.325V374.326H150.447V366.556H151.847V376.888ZM151.931 379.212H141.865V375.712H143.265V377.952H151.931V379.212ZM149.537 373.43H145.729V375.642H144.329V373.43H141.179V372.17H149.537V373.43ZM146.933 369.986C147.372 369.781 147.591 369.454 147.591 369.006C147.591 368.558 147.372 368.236 146.933 368.04C146.504 367.835 145.944 367.732 145.253 367.732C144.562 367.732 143.998 367.835 143.559 368.04C143.13 368.236 142.915 368.558 142.915 369.006C142.915 369.454 143.13 369.781 143.559 369.986C143.998 370.182 144.562 370.28 145.253 370.28C145.944 370.28 146.504 370.182 146.933 369.986Z" fill="black"/>
<path d="M123.359 406.248H125.016V407.253H123.359V410.131H122.152V403.711H123.359V406.248ZM121.196 408.851C120.295 409.031 119.411 409.158 118.543 409.233C117.675 409.308 116.783 409.346 115.867 409.349H114.938V404.272H116.15V408.348C117.823 408.333 119.456 408.169 121.048 407.855L121.196 408.851ZM123.359 414.925H116.074V410.723H123.359V414.925ZM122.183 411.666H117.25V413.96H122.183V411.666ZM134.748 410.418H133.545V407.011H131.148V406.019H133.545V403.702H134.748V410.418ZM128.733 407.455C128.484 408.113 128.115 408.687 127.624 409.174C127.136 409.659 126.551 410.024 125.869 410.27L125.222 409.3C125.818 409.097 126.331 408.803 126.762 408.42C127.196 408.034 127.527 407.587 127.754 407.078C127.985 406.569 128.101 406.031 128.104 405.462V404.335H129.307V405.413C129.304 405.939 129.412 406.441 129.631 406.916C129.852 407.392 130.169 407.81 130.582 408.169C130.998 408.525 131.489 408.796 132.055 408.981L131.399 409.924C130.777 409.7 130.238 409.376 129.783 408.954C129.331 408.529 128.981 408.03 128.733 407.455ZM130.937 410.732C131.73 410.732 132.414 410.819 132.988 410.992C133.566 411.163 134.009 411.411 134.317 411.738C134.628 412.064 134.784 412.454 134.784 412.909C134.784 413.361 134.628 413.749 134.317 414.072C134.009 414.395 133.566 414.64 132.988 414.808C132.414 414.976 131.73 415.059 130.937 415.059C130.141 415.059 129.454 414.976 128.876 414.808C128.299 414.64 127.856 414.395 127.548 414.072C127.242 413.749 127.091 413.361 127.094 412.909C127.091 412.454 127.244 412.064 127.552 411.738C127.86 411.411 128.303 411.163 128.881 410.992C129.458 410.819 130.144 410.732 130.937 410.732ZM130.937 414.108C131.488 414.108 131.962 414.061 132.36 413.969C132.758 413.873 133.062 413.735 133.271 413.556C133.484 413.376 133.59 413.161 133.59 412.909C133.59 412.649 133.484 412.427 133.271 412.245C133.062 412.059 132.758 411.919 132.36 411.823C131.965 411.727 131.49 411.679 130.937 411.679C130.383 411.679 129.907 411.727 129.509 411.823C129.111 411.919 128.808 412.059 128.598 412.245C128.389 412.427 128.285 412.649 128.288 412.909C128.285 413.161 128.389 413.376 128.598 413.556C128.808 413.735 129.111 413.873 129.509 413.969C129.907 414.061 130.383 414.108 130.937 414.108ZM147.107 403.702H148.319V415.1H147.107V403.702ZM139.525 404.65H140.728V407.572H143.798V404.65H144.988V412.379H139.525V404.65ZM140.728 408.528V411.383H143.798V408.528H140.728ZM154.918 407.76C154.062 407.757 153.33 407.68 152.723 407.527C152.115 407.374 151.651 407.151 151.331 406.858C151.011 406.565 150.851 406.209 150.851 405.79C150.851 405.374 151.011 405.019 151.331 404.726C151.651 404.433 152.115 404.21 152.723 404.057C153.333 403.904 154.065 403.828 154.918 403.828C155.771 403.828 156.501 403.904 157.108 404.057C157.716 404.21 158.178 404.433 158.495 404.726C158.816 405.019 158.976 405.374 158.976 405.79C158.976 406.209 158.816 406.565 158.495 406.858C158.178 407.151 157.716 407.374 157.108 407.527C156.504 407.68 155.773 407.757 154.918 407.76ZM154.918 404.735C154.319 404.735 153.809 404.777 153.387 404.86C152.968 404.944 152.649 405.065 152.431 405.224C152.215 405.38 152.109 405.568 152.112 405.79C152.109 406.137 152.347 406.4 152.826 406.58C153.308 406.759 154.005 406.851 154.918 406.854C155.836 406.851 156.537 406.759 157.018 406.58C157.5 406.4 157.741 406.137 157.741 405.79C157.741 405.455 157.497 405.196 157.009 405.013C156.525 404.831 155.827 404.738 154.918 404.735ZM160.111 408.375V409.34H157.319V410.355H158.796V413.017H152.179V414.036H159.124V414.97H150.999V412.151H157.611V411.257H150.976V410.355H152.489V409.34H149.742V408.375H160.111ZM153.683 410.355H156.116V409.34H153.683V410.355ZM168.797 403.702H170.01V415.1H168.797V403.702ZM163.918 404.555C164.484 404.555 164.988 404.72 165.431 405.049C165.877 405.378 166.225 405.845 166.477 406.45C166.728 407.051 166.854 407.75 166.854 408.546C166.854 409.348 166.728 410.051 166.477 410.656C166.225 411.26 165.877 411.727 165.431 412.056C164.988 412.382 164.484 412.546 163.918 412.546C163.349 412.546 162.842 412.382 162.396 412.056C161.95 411.727 161.602 411.26 161.35 410.656C161.102 410.051 160.978 409.348 160.978 408.546C160.978 407.747 161.102 407.047 161.35 406.445C161.602 405.841 161.95 405.375 162.396 405.049C162.842 404.72 163.349 404.555 163.918 404.555ZM163.918 405.633C163.568 405.636 163.258 405.757 162.989 405.996C162.722 406.233 162.514 406.571 162.365 407.011C162.215 407.448 162.14 407.959 162.14 408.546C162.14 409.138 162.215 409.655 162.365 410.095C162.514 410.535 162.722 410.873 162.989 411.109C163.258 411.346 163.568 411.464 163.918 411.464C164.268 411.464 164.576 411.346 164.843 411.109C165.109 410.873 165.316 410.535 165.462 410.095C165.612 409.655 165.687 409.138 165.687 408.546C165.687 407.956 165.612 407.443 165.462 407.006C165.316 406.566 165.109 406.228 164.843 405.992C164.576 405.755 164.268 405.636 163.918 405.633ZM210.693 407.769V403.702H211.896V415.1H210.693V408.766H207.532V407.769H210.693ZM204.175 411.302C205.195 411.296 206.057 411.269 206.76 411.221C207.464 411.17 208.173 411.078 208.888 410.943L209.023 411.931C208.242 412.077 207.47 412.177 206.706 412.231C205.946 412.282 204.995 412.308 203.851 412.308H202.958V404.762H208.17V405.758H204.175V411.302ZM221.812 407.487V408.784H226.4V409.753H216.031V408.784H220.614V407.487H217.413V403.945H218.607V406.517H225.26V407.487H221.812ZM225.264 411.729H223.577V413.955H225.372V414.934H217.072V413.955H218.859V411.729H217.171V410.781H225.264V411.729ZM222.387 411.729H220.048V413.955H222.387V411.729ZM232.052 404.385C232.845 404.385 233.56 404.518 234.198 404.784C234.838 405.051 235.341 405.425 235.706 405.906C236.074 406.385 236.258 406.937 236.258 407.563C236.258 408.191 236.074 408.746 235.706 409.228C235.341 409.71 234.838 410.083 234.198 410.346C233.56 410.609 232.845 410.74 232.052 410.737C231.262 410.74 230.548 410.609 229.911 410.346C229.273 410.083 228.772 409.71 228.407 409.228C228.042 408.746 227.859 408.191 227.859 407.563C227.859 406.937 228.042 406.385 228.407 405.906C228.772 405.425 229.273 405.051 229.911 404.784C230.548 404.518 231.262 404.385 232.052 404.385ZM232.052 405.368C231.474 405.365 230.955 405.456 230.494 405.642C230.033 405.824 229.671 406.083 229.408 406.418C229.147 406.75 229.017 407.132 229.017 407.563C229.017 407.997 229.147 408.38 229.408 408.712C229.668 409.041 230.029 409.297 230.49 409.48C230.953 409.659 231.474 409.749 232.052 409.749C232.629 409.749 233.149 409.659 233.609 409.48C234.07 409.297 234.431 409.041 234.691 408.712C234.952 408.38 235.082 407.997 235.082 407.563C235.082 407.132 234.95 406.75 234.687 406.418C234.426 406.083 234.066 405.824 233.605 405.642C233.147 405.456 232.629 405.365 232.052 405.368ZM226.876 412.608H237.286V413.605H226.876V412.608ZM246.012 406.382V403.702H247.207V415.1H246.012V410.476H243.44V412.236H238.166V404.793H243.44V406.382H246.012ZM239.36 411.275H242.264V405.74H239.36V411.275ZM243.44 407.365V409.502H246.012V407.365H243.44ZM124.791 430.291V431.274H120.177V436.095H118.969V431.274H114.422V430.291H121.932C122.037 429.788 122.113 429.314 122.161 428.868C122.212 428.422 122.243 428.024 122.255 427.674C122.267 427.321 122.273 426.903 122.273 426.422V426.399H115.683V425.421H123.472V426.422C123.469 426.918 123.461 427.34 123.449 427.688C123.44 428.032 123.413 428.427 123.368 428.873C123.324 429.315 123.253 429.788 123.157 430.291H124.791ZM134.748 431.418H133.545V428.011H131.148V427.019H133.545V424.702H134.748V431.418ZM128.733 428.455C128.484 429.113 128.115 429.687 127.624 430.174C127.136 430.659 126.551 431.024 125.869 431.27L125.222 430.3C125.818 430.097 126.331 429.803 126.762 429.42C127.196 429.034 127.527 428.587 127.754 428.078C127.985 427.569 128.101 427.031 128.104 426.462V425.335H129.307V426.413C129.304 426.939 129.412 427.441 129.631 427.916C129.852 428.392 130.169 428.81 130.582 429.169C130.998 429.525 131.489 429.796 132.055 429.981L131.399 430.924C130.777 430.7 130.238 430.376 129.783 429.954C129.331 429.529 128.981 429.03 128.733 428.455ZM130.937 431.732C131.73 431.732 132.414 431.819 132.988 431.992C133.566 432.163 134.009 432.411 134.317 432.738C134.628 433.064 134.784 433.454 134.784 433.909C134.784 434.361 134.628 434.749 134.317 435.072C134.009 435.395 133.566 435.64 132.988 435.808C132.414 435.976 131.73 436.059 130.937 436.059C130.141 436.059 129.454 435.976 128.876 435.808C128.299 435.64 127.856 435.395 127.548 435.072C127.242 434.749 127.091 434.361 127.094 433.909C127.091 433.454 127.244 433.064 127.552 432.738C127.86 432.411 128.303 432.163 128.881 431.992C129.458 431.819 130.144 431.732 130.937 431.732ZM130.937 435.108C131.488 435.108 131.962 435.061 132.36 434.969C132.758 434.873 133.062 434.735 133.271 434.556C133.484 434.376 133.59 434.161 133.59 433.909C133.59 433.649 133.484 433.427 133.271 433.245C133.062 433.059 132.758 432.919 132.36 432.823C131.965 432.727 131.49 432.679 130.937 432.679C130.383 432.679 129.907 432.727 129.509 432.823C129.111 432.919 128.808 433.059 128.598 433.245C128.389 433.427 128.285 433.649 128.288 433.909C128.285 434.161 128.389 434.376 128.598 434.556C128.808 434.735 129.111 434.873 129.509 434.969C129.907 435.061 130.383 435.108 130.937 435.108ZM142.074 432.248V431.395H144.363V424.711H145.575V433.339H144.363V432.248H142.074ZM139.78 429.133C139.221 429.133 138.725 429.052 138.294 428.891C137.866 428.729 137.534 428.499 137.298 428.199C137.061 427.9 136.943 427.55 136.943 427.149C136.943 426.754 137.061 426.405 137.298 426.103C137.537 425.801 137.871 425.566 138.299 425.398C138.73 425.231 139.224 425.147 139.78 425.147C140.328 425.147 140.814 425.231 141.239 425.398C141.667 425.566 142.001 425.801 142.24 426.103C142.479 426.405 142.601 426.754 142.604 427.149C142.601 427.547 142.479 427.897 142.24 428.199C142.004 428.499 141.671 428.729 141.244 428.891C140.819 429.052 140.331 429.133 139.78 429.133ZM139.78 426.045C139.445 426.045 139.149 426.089 138.891 426.179C138.637 426.269 138.439 426.398 138.299 426.565C138.158 426.733 138.088 426.927 138.088 427.149C138.088 427.37 138.158 427.565 138.299 427.732C138.439 427.897 138.637 428.024 138.891 428.114C139.149 428.204 139.445 428.249 139.78 428.249C140.103 428.249 140.391 428.204 140.642 428.114C140.893 428.024 141.091 427.897 141.235 427.732C141.378 427.565 141.452 427.37 141.455 427.149C141.452 426.927 141.378 426.733 141.235 426.565C141.091 426.398 140.892 426.269 140.638 426.179C140.386 426.089 140.1 426.045 139.78 426.045ZM139.295 432.984V430.83C138.514 430.86 137.628 430.875 136.638 430.875H136.207L136.054 429.905C137.557 429.896 138.893 429.871 140.063 429.829C141.236 429.787 142.355 429.699 143.421 429.564L143.501 430.435C142.592 430.584 141.591 430.694 140.498 430.762V432.984H139.295ZM138.833 432.495V434.856H145.845V435.844H137.63V432.495H138.833ZM159.223 431.701H158.019V429.725H156.273V428.747H158.019V427.652H156.273V426.682H158.019V424.702H159.223V431.701ZM156.471 430.718C155.495 430.873 154.454 430.976 153.346 431.027C152.242 431.078 151.093 431.104 149.899 431.104L149.755 430.103C149.974 430.103 150.197 430.103 150.424 430.103C150.655 430.1 150.891 430.097 151.133 430.094V426.507H150.065V425.524H156.107V426.507H155.025V429.945C155.522 429.907 155.986 429.862 156.417 429.811L156.471 430.718ZM152.305 426.507V430.071C152.646 430.065 153.167 430.047 153.867 430.017V426.507H152.305ZM155.411 431.916C156.21 431.916 156.897 431.998 157.472 432.163C158.049 432.325 158.491 432.561 158.796 432.872C159.104 433.183 159.258 433.558 159.258 433.994C159.258 434.425 159.104 434.795 158.796 435.103C158.488 435.414 158.045 435.651 157.467 435.812C156.893 435.977 156.207 436.059 155.411 436.059C154.615 436.059 153.929 435.977 153.351 435.812C152.773 435.651 152.33 435.414 152.022 435.103C151.717 434.795 151.566 434.425 151.569 433.994C151.566 433.558 151.717 433.183 152.022 432.872C152.327 432.561 152.769 432.325 153.346 432.163C153.924 431.998 154.612 431.916 155.411 431.916ZM155.411 435.121C155.968 435.121 156.444 435.078 156.839 434.991C157.237 434.904 157.541 434.777 157.75 434.609C157.96 434.439 158.064 434.234 158.064 433.994C158.064 433.752 157.958 433.546 157.746 433.375C157.536 433.204 157.232 433.074 156.834 432.984C156.439 432.895 155.965 432.85 155.411 432.85C154.855 432.85 154.377 432.895 153.979 432.984C153.581 433.074 153.278 433.204 153.068 433.375C152.862 433.546 152.76 433.752 152.763 433.994C152.76 434.234 152.862 434.439 153.068 434.609C153.278 434.777 153.58 434.904 153.975 434.991C154.373 435.078 154.852 435.121 155.411 435.121ZM170.997 429.537V430.52H168.187V433.182H167.015V430.52H165.215V433.182H164.039V430.52H160.587V429.537H168.214C168.331 428.932 168.404 428.386 168.434 427.898C168.464 427.411 168.479 426.865 168.479 426.26H161.876V425.299H169.677V426.197C169.677 426.826 169.662 427.388 169.632 427.885C169.605 428.379 169.535 428.929 169.421 429.537H170.997ZM161.808 432.235H163.011V434.856H169.978V435.844H161.808V432.235ZM179.661 430.143C179.392 430.466 179.057 430.718 178.656 430.897C178.258 431.077 177.825 431.166 177.359 431.166C176.793 431.166 176.283 431.044 175.828 430.798C175.376 430.553 175.021 430.212 174.764 429.775C174.507 429.338 174.379 428.844 174.382 428.294C174.379 427.743 174.507 427.249 174.764 426.812C175.021 426.372 175.376 426.03 175.828 425.784C176.283 425.536 176.793 425.41 177.359 425.407C177.822 425.41 178.253 425.501 178.651 425.681C179.049 425.86 179.385 426.11 179.657 426.431H182.494V424.711H183.697V433.088H182.494V430.143H179.661ZM175.527 428.294C175.527 428.647 175.605 428.961 175.761 429.236C175.916 429.512 176.133 429.725 176.411 429.878C176.69 430.028 177.006 430.103 177.359 430.103C177.7 430.103 178.008 430.026 178.283 429.874C178.559 429.721 178.774 429.509 178.93 429.236C179.088 428.961 179.168 428.647 179.168 428.294C179.168 427.943 179.088 427.632 178.93 427.36C178.774 427.084 178.559 426.871 178.283 426.718C178.008 426.562 177.7 426.483 177.359 426.48C177.006 426.483 176.69 426.561 176.411 426.713C176.133 426.866 175.916 427.08 175.761 427.355C175.605 427.628 175.527 427.94 175.527 428.294ZM182.494 427.414H180.191C180.278 427.707 180.321 428 180.321 428.294C180.321 428.59 180.279 428.877 180.196 429.155H182.494V427.414ZM177.516 432.226V434.856H183.998V435.844H176.313V432.226H177.516ZM194.542 431.705H193.335V429.717H191.216V428.733H193.335V427.391H191.216V426.408H193.335V424.711H194.542V431.705ZM191.176 430.875C190.535 430.988 189.89 431.065 189.241 431.104C188.595 431.14 187.727 431.157 186.637 431.157H186.355H185.533V427.696H189.281V426.314H185.511V425.335H190.475V428.63H186.727V430.174C187.766 430.171 188.593 430.152 189.21 430.116C189.829 430.077 190.445 430.002 191.059 429.892L191.176 430.875ZM190.745 431.898C191.538 431.898 192.223 431.982 192.801 432.15C193.378 432.317 193.821 432.561 194.129 432.881C194.438 433.201 194.592 433.583 194.592 434.026C194.592 434.469 194.438 434.847 194.129 435.162C193.821 435.479 193.378 435.72 192.801 435.884C192.226 436.049 191.541 436.131 190.745 436.131C189.946 436.131 189.256 436.049 188.675 435.884C188.098 435.72 187.655 435.479 187.347 435.162C187.038 434.847 186.886 434.469 186.889 434.026C186.886 433.583 187.038 433.201 187.347 432.881C187.655 432.561 188.099 432.317 188.68 432.15C189.26 431.982 189.949 431.898 190.745 431.898ZM190.745 435.193C191.298 435.193 191.774 435.148 192.172 435.058C192.57 434.969 192.874 434.837 193.083 434.663C193.296 434.49 193.402 434.277 193.402 434.026C193.402 433.772 193.296 433.556 193.083 433.379C192.874 433.2 192.57 433.065 192.172 432.975C191.774 432.883 191.298 432.836 190.745 432.836C190.185 432.836 189.708 432.883 189.313 432.975C188.918 433.065 188.617 433.2 188.41 433.379C188.204 433.556 188.102 433.772 188.105 434.026C188.102 434.403 188.33 434.692 188.788 434.892C189.248 435.093 189.901 435.193 190.745 435.193ZM222.771 436.077V424.702H223.93V436.077H222.771ZM218.66 428.702H220.433V424.922H221.568V435.516H220.433V429.703H218.66V428.702ZM217.614 427.809C217.614 428.431 217.699 429.045 217.87 429.649C218.043 430.251 218.302 430.801 218.646 431.301C218.99 431.798 219.408 432.196 219.899 432.495L219.221 433.429C218.706 433.118 218.266 432.694 217.901 432.158C217.536 431.623 217.252 431.014 217.048 430.331C216.833 431.074 216.529 431.735 216.137 432.316C215.748 432.893 215.284 433.347 214.745 433.676L213.991 432.778C214.512 432.467 214.956 432.051 215.324 431.53C215.695 431.009 215.975 430.433 216.164 429.802C216.352 429.167 216.447 428.521 216.447 427.863V425.739H217.614V427.809Z" fill="#404040"/>
<path d="M174.562 414L174.558 412.801L177.803 409.673C178.156 409.32 178.429 409.029 178.62 408.802C178.815 408.574 178.963 408.351 179.064 408.133C179.169 407.911 179.222 407.677 179.222 407.428C179.222 407.147 179.153 406.9 179.015 406.688C178.877 406.475 178.687 406.312 178.445 406.198C178.206 406.084 177.936 406.028 177.637 406.028C177.326 406.028 177.052 406.09 176.815 406.216C176.582 406.339 176.402 406.515 176.277 406.746C176.151 406.976 176.088 407.246 176.088 407.554H174.517C174.514 406.982 174.646 406.48 174.912 406.046C175.179 405.612 175.55 405.276 176.025 405.04C176.504 404.801 177.049 404.681 177.659 404.681C178.273 404.681 178.818 404.796 179.293 405.027C179.769 405.254 180.139 405.57 180.402 405.974C180.668 406.378 180.802 406.834 180.802 407.343C180.799 407.702 180.73 408.046 180.595 408.375C180.461 408.702 180.227 409.067 179.895 409.471C179.566 409.872 179.097 410.358 178.49 410.93L176.86 412.55V412.617H180.941V414H174.562ZM185.336 414.126C184.662 414.126 184.059 414.015 183.527 413.794C182.997 413.569 182.584 413.261 182.288 412.869C181.992 412.474 181.845 412.029 181.848 411.536C181.845 411.156 181.93 410.801 182.104 410.472C182.277 410.142 182.514 409.87 182.813 409.655C183.115 409.439 183.449 409.303 183.814 409.246V409.188C183.497 409.122 183.216 408.992 182.97 408.797C182.725 408.6 182.533 408.359 182.396 408.075C182.261 407.787 182.194 407.478 182.194 407.145C182.194 406.679 182.328 406.258 182.598 405.884C182.87 405.507 183.245 405.212 183.724 405C184.203 404.787 184.74 404.681 185.336 404.681C185.931 404.681 186.467 404.787 186.943 405C187.422 405.212 187.797 405.507 188.07 405.884C188.342 406.258 188.478 406.679 188.478 407.145C188.478 407.478 188.408 407.787 188.267 408.075C188.129 408.359 187.936 408.6 187.688 408.797C187.443 408.992 187.164 409.122 186.853 409.188V409.246C187.215 409.303 187.546 409.439 187.845 409.655C188.147 409.87 188.387 410.142 188.563 410.472C188.74 410.801 188.828 411.156 188.828 411.536C188.828 412.029 188.679 412.474 188.379 412.869C188.08 413.261 187.664 413.569 187.131 413.794C186.602 414.015 186.003 414.126 185.336 414.126ZM185.336 408.654C185.629 408.654 185.891 408.597 186.121 408.483C186.352 408.369 186.533 408.211 186.665 408.007C186.796 407.801 186.862 407.566 186.862 407.302C186.862 407.042 186.798 406.812 186.669 406.611C186.54 406.411 186.359 406.255 186.126 406.144C185.895 406.031 185.632 405.974 185.336 405.974C185.034 405.974 184.767 406.031 184.537 406.144C184.306 406.255 184.127 406.411 183.998 406.611C183.872 406.812 183.81 407.042 183.81 407.302C183.81 407.566 183.874 407.801 184.003 408.007C184.134 408.211 184.315 408.369 184.546 408.483C184.779 408.597 185.043 408.654 185.336 408.654ZM185.336 412.851C185.692 412.851 186.005 412.791 186.274 412.671C186.546 412.549 186.756 412.379 186.902 412.164C187.049 411.946 187.122 411.697 187.122 411.419C187.122 411.132 187.045 410.873 186.889 410.642C186.736 410.412 186.524 410.232 186.252 410.104C185.979 409.972 185.674 409.906 185.336 409.906C184.995 409.906 184.688 409.972 184.416 410.104C184.143 410.232 183.931 410.412 183.778 410.642C183.626 410.873 183.551 411.132 183.554 411.419C183.551 411.697 183.621 411.946 183.765 412.164C183.911 412.379 184.119 412.549 184.389 412.671C184.661 412.791 184.977 412.851 185.336 412.851ZM190.045 406.53C190.045 406.168 190.121 405.838 190.274 405.538C190.43 405.236 190.654 404.997 190.947 404.82C191.244 404.644 191.591 404.555 191.989 404.555C192.399 404.555 192.749 404.644 193.039 404.82C193.333 404.997 193.554 405.235 193.704 405.534C193.853 405.833 193.928 406.165 193.928 406.53V407.015C193.928 407.377 193.852 407.708 193.699 408.007C193.55 408.307 193.328 408.544 193.035 408.721C192.742 408.898 192.393 408.986 191.989 408.986C191.582 408.986 191.232 408.898 190.938 408.721C190.645 408.544 190.422 408.307 190.27 408.007C190.12 407.708 190.045 407.377 190.045 407.015V406.53ZM191.675 414H190.557L196.877 404.807H197.995L191.675 414ZM191.226 407.015C191.226 407.285 191.287 407.51 191.41 407.693C191.532 407.876 191.726 407.967 191.989 407.967C192.255 407.967 192.448 407.877 192.568 407.698C192.691 407.515 192.752 407.288 192.752 407.015V406.53C192.752 406.255 192.694 406.028 192.577 405.848C192.46 405.666 192.264 405.574 191.989 405.574C191.728 405.574 191.535 405.667 191.41 405.853C191.287 406.038 191.226 406.264 191.226 406.53V407.015ZM194.718 411.791C194.718 411.429 194.794 411.099 194.947 410.799C195.1 410.497 195.323 410.258 195.616 410.081C195.909 409.905 196.258 409.816 196.662 409.816C197.069 409.816 197.419 409.905 197.712 410.081C198.006 410.258 198.227 410.496 198.377 410.795C198.526 411.094 198.601 411.426 198.601 411.791V412.276C198.601 412.638 198.525 412.971 198.372 413.273C198.22 413.572 197.997 413.81 197.703 413.987C197.41 414.163 197.063 414.251 196.662 414.251C196.255 414.251 195.905 414.163 195.611 413.987C195.318 413.81 195.095 413.572 194.943 413.273C194.793 412.971 194.718 412.638 194.718 412.276V411.791ZM195.89 412.276C195.89 412.546 195.951 412.772 196.074 412.954C196.196 413.137 196.393 413.228 196.662 413.228C196.928 413.228 197.121 413.137 197.241 412.954C197.364 412.772 197.425 412.546 197.425 412.276V411.791C197.425 411.516 197.365 411.289 197.245 411.109C197.129 410.927 196.934 410.835 196.662 410.835C196.398 410.835 196.204 410.928 196.078 411.114C195.953 411.296 195.89 411.522 195.89 411.791V412.276ZM202.372 435.126C201.725 435.126 201.146 435.015 200.635 434.794C200.123 434.572 199.72 434.264 199.427 433.869C199.134 433.471 198.98 433.016 198.965 432.504H200.635C200.647 432.747 200.729 432.962 200.882 433.151C201.037 433.336 201.244 433.48 201.501 433.581C201.761 433.683 202.05 433.734 202.367 433.734C202.703 433.734 203.002 433.677 203.265 433.564C203.531 433.447 203.738 433.285 203.885 433.079C204.034 432.869 204.109 432.631 204.109 432.365C204.112 432.087 204.037 431.841 203.885 431.629C203.732 431.413 203.511 431.246 203.22 431.126C202.933 431.003 202.593 430.942 202.201 430.942H201.384V429.667H202.201C202.524 429.667 202.812 429.612 203.063 429.501C203.315 429.387 203.511 429.229 203.651 429.025C203.792 428.819 203.862 428.584 203.862 428.32C203.862 428.066 203.801 427.842 203.678 427.647C203.558 427.45 203.386 427.297 203.162 427.189C202.94 427.081 202.683 427.028 202.39 427.028C202.1 427.028 201.83 427.08 201.582 427.185C201.333 427.286 201.133 427.433 200.98 427.625C200.831 427.813 200.751 428.032 200.742 428.28H199.158C199.17 427.777 199.319 427.328 199.607 426.933C199.894 426.538 200.281 426.232 200.769 426.013C201.257 425.792 201.8 425.681 202.399 425.681C203.003 425.681 203.537 425.795 204.001 426.022C204.468 426.247 204.827 426.553 205.079 426.942C205.333 427.328 205.459 427.756 205.456 428.226C205.459 428.567 205.39 428.876 205.249 429.151C205.112 429.426 204.916 429.655 204.661 429.838C204.407 430.017 204.111 430.143 203.772 430.215V430.287C204.2 430.343 204.567 430.469 204.872 430.664C205.177 430.858 205.409 431.108 205.568 431.413C205.727 431.719 205.804 432.064 205.801 432.45C205.804 432.959 205.658 433.417 205.361 433.824C205.068 434.231 204.66 434.55 204.136 434.78C203.615 435.01 203.027 435.126 202.372 435.126ZM210.115 435.126C209.513 435.126 208.969 435.013 208.481 434.789C207.996 434.565 207.612 434.253 207.327 433.855C207.043 433.457 206.893 433.007 206.878 432.504H208.485C208.503 432.75 208.587 432.971 208.737 433.169C208.886 433.363 209.081 433.516 209.32 433.626C209.563 433.734 209.828 433.788 210.115 433.788C210.453 433.788 210.757 433.713 211.026 433.564C211.296 433.411 211.505 433.201 211.655 432.935C211.807 432.666 211.884 432.362 211.884 432.024C211.884 431.677 211.804 431.367 211.646 431.095C211.49 430.819 211.272 430.605 210.99 430.453C210.712 430.3 210.398 430.224 210.048 430.224C209.323 430.224 208.821 430.486 208.539 431.009H207.013L207.561 425.807H212.992V427.189H208.925L208.647 429.631H208.728C208.913 429.425 209.165 429.257 209.482 429.128C209.799 429 210.143 428.935 210.514 428.935C211.077 428.935 211.584 429.067 212.036 429.33C212.488 429.591 212.843 429.953 213.1 430.417C213.357 430.878 213.486 431.398 213.486 431.979C213.486 432.583 213.342 433.125 213.055 433.604C212.771 434.083 212.373 434.457 211.861 434.726C211.352 434.993 210.77 435.126 210.115 435.126Z" fill="#00AEAE"/>
<path d="M144.64 480.844H146.169V481.772H144.64V484.428H143.525V478.503H144.64V480.844ZM142.642 483.247C141.811 483.413 140.994 483.53 140.193 483.599C139.392 483.669 138.569 483.704 137.724 483.707H136.866V479.021H137.985V482.783C139.529 482.769 141.036 482.617 142.506 482.327L142.642 483.247ZM144.64 488.854H137.914V484.975H144.64V488.854ZM143.554 485.845H139V487.963H143.554V485.845ZM154.58 482.659H156.262V483.599H154.58V488.994H153.466V478.494H154.58V482.659ZM150.059 481.594C150.057 482.144 150.169 482.7 150.395 483.264C150.622 483.825 150.938 484.336 151.344 484.797C151.753 485.256 152.217 485.606 152.736 485.849L152.106 486.728C151.526 486.449 151.01 486.033 150.557 485.481C150.106 484.928 149.76 484.302 149.517 483.604C149.356 484.104 149.144 484.575 148.878 485.017C148.613 485.459 148.308 485.849 147.963 486.189C147.62 486.526 147.253 486.793 146.861 486.989L146.202 486.11C146.721 485.862 147.189 485.494 147.606 485.008C148.026 484.522 148.355 483.978 148.593 483.376C148.833 482.773 148.954 482.18 148.957 481.594V480.471H146.591V479.551H152.338V480.471H150.059V481.594Z" fill="black"/>
<path d="M205.043 478.494H206.145V489.015H205.043V484.988H202.519C202.296 485.518 201.985 485.93 201.587 486.222C201.192 486.512 200.742 486.657 200.236 486.657C199.714 486.657 199.251 486.507 198.848 486.206C198.445 485.902 198.13 485.472 197.903 484.917C197.68 484.359 197.569 483.709 197.572 482.965C197.569 482.228 197.68 481.581 197.903 481.026C198.13 480.468 198.445 480.039 198.848 479.738C199.251 479.434 199.714 479.282 200.236 479.282C200.714 479.285 201.142 479.416 201.521 479.675C201.902 479.932 202.209 480.3 202.441 480.778H205.043V478.494ZM200.236 485.659C200.551 485.659 200.829 485.55 201.069 485.331C201.312 485.113 201.5 484.801 201.633 484.395C201.768 483.989 201.836 483.512 201.836 482.965C201.836 482.424 201.768 481.952 201.633 481.548C201.5 481.142 201.312 480.83 201.069 480.612C200.829 480.391 200.551 480.279 200.236 480.276C199.919 480.279 199.638 480.39 199.395 480.608C199.155 480.826 198.967 481.138 198.831 481.544C198.699 481.948 198.633 482.421 198.633 482.965C198.633 483.512 198.699 483.989 198.831 484.395C198.967 484.801 199.155 485.113 199.395 485.331C199.638 485.55 199.919 485.659 200.236 485.659ZM205.043 484.08V481.693H202.756C202.844 482.086 202.888 482.51 202.888 482.965C202.888 483.341 202.855 483.713 202.789 484.08H205.043ZM215.58 482.659H217.262V483.599H215.58V488.994H214.466V478.494H215.58V482.659ZM211.059 481.594C211.057 482.144 211.169 482.7 211.395 483.264C211.622 483.825 211.938 484.336 212.344 484.797C212.753 485.256 213.217 485.606 213.736 485.849L213.106 486.728C212.526 486.449 212.01 486.033 211.557 485.481C211.106 484.928 210.76 484.302 210.517 483.604C210.356 484.104 210.144 484.575 209.878 485.017C209.613 485.459 209.308 485.849 208.963 486.189C208.62 486.526 208.253 486.793 207.861 486.989L207.202 486.11C207.721 485.862 208.189 485.494 208.606 485.008C209.026 484.522 209.355 483.978 209.593 483.376C209.833 482.773 209.954 482.18 209.957 481.594V480.471H207.591V479.551H213.338V480.471H211.059V481.594Z" fill="black"/>
<rect x="114" y="480" width="14" height="8" fill="#61CDBB"/>
<rect x="175" y="480" width="14" height="8" fill="#FFC38F"/>
<path d="M457 428C457 462.794 428.794 491 394 491C359.206 491 331 462.794 331 428C331 393.206 359.206 365 394 365C428.794 365 457 393.206 457 428ZM351.364 428C351.364 451.547 370.453 470.636 394 470.636C417.547 470.636 436.636 451.547 436.636 428C436.636 404.453 417.547 385.364 394 385.364C370.453 385.364 351.364 404.453 351.364 428Z" fill="#FFC38F"/>
<path d="M394 365C380.324 365 367.02 369.45 356.096 377.678C345.172 385.906 337.223 397.466 333.448 410.61C329.673 423.755 330.277 437.771 335.171 450.541C340.064 463.312 348.98 474.143 360.572 481.4C372.163 488.656 385.802 491.944 399.427 490.766C413.052 489.588 425.924 484.008 436.098 474.87C446.272 465.731 453.197 453.53 455.825 440.109C458.454 426.688 456.644 412.777 450.669 400.475L432.351 409.372C436.395 417.697 437.62 427.112 435.841 436.195C434.062 445.278 429.376 453.535 422.49 459.719C415.604 465.904 406.893 469.68 397.673 470.477C388.452 471.274 379.222 469.05 371.377 464.139C363.532 459.228 357.498 451.897 354.187 443.255C350.875 434.612 350.466 425.127 353.021 416.231C355.575 407.336 360.955 399.513 368.348 393.944C375.741 388.376 384.745 385.364 394 385.364L394 365Z" fill="#61CDBB"/>
<rect x="60" y="50" width="460" height="240" rx="16" fill="white"/>
<rect x="76" y="65" width="428" height="210" rx="12" fill="#F4F6FC"/>
<rect x="106" y="142" width="368" height="1" fill="#EEEEEE"/>
<rect x="106" y="159" width="368" height="1" fill="#EEEEEE"/>
<rect x="106" y="176" width="368" height="1" fill="#EEEEEE"/>
<rect x="106" y="193" width="368" height="1" fill="#EEEEEE"/>
<rect x="106" y="210" width="368" height="1" fill="#EEEEEE"/>
<rect x="106" y="227" width="368" height="1" fill="#EEEEEE"/>
<rect x="106" y="244" width="368" height="1" fill="#EEEEEE"/>
<rect x="106" y="261" width="368" height="1" fill="#EEEEEE"/>
<path d="M145 208C145 205.791 146.791 204 149 204H167C169.209 204 171 205.791 171 208V275H145V208Z" fill="url(#paint0_linear_191_942)"/>
<path d="M189 225C189 222.791 190.791 221 193 221H211C213.209 221 215 222.791 215 225V275H189V225Z" fill="url(#paint1_linear_191_942)"/>
<path d="M233 179C233 176.791 234.791 175 237 175H255C257.209 175 259 176.791 259 179V275H233V179Z" fill="url(#paint2_linear_191_942)"/>
<path d="M277 208C277 205.791 278.791 204 281 204H299C301.209 204 303 205.791 303 208V275H277V208Z" fill="url(#paint3_linear_191_942)"/>
<path d="M321 179C321 176.791 322.791 175 325 175H343C345.209 175 347 176.791 347 179V275H321V179Z" fill="url(#paint4_linear_191_942)"/>
<path d="M365 179C365 176.791 366.791 175 369 175H387C389.209 175 391 176.791 391 179V275H365V179Z" fill="url(#paint5_linear_191_942)"/>
<path d="M409 146C409 143.791 410.791 142 413 142H431C433.209 142 435 143.791 435 146V275H409V146Z" fill="url(#paint6_linear_191_942)"/>
<path d="M115.002 100.774C115.851 100.774 116.509 100.965 116.976 101.348C117.443 101.731 117.676 102.286 117.676 103.014C117.676 103.742 117.443 104.297 116.976 104.68C116.509 105.063 115.851 105.254 115.002 105.254H109.682C108.833 105.254 108.175 105.063 107.708 104.68C107.241 104.297 107.008 103.742 107.008 103.014C107.008 102.286 107.241 101.731 107.708 101.348C108.175 100.965 108.833 100.774 109.682 100.774H115.002ZM117.55 97.61H116.038L114.078 95.02C113.938 94.8053 113.812 94.6513 113.7 94.558C113.588 94.4647 113.411 94.418 113.168 94.418H111.516C111.273 94.418 111.096 94.4647 110.984 94.558C110.872 94.6513 110.746 94.8053 110.606 95.02L108.646 97.61H107.134L109.458 94.418H107.33V93.158H111.642V91.842H113.042V93.158H117.354V94.418H115.226L117.55 97.61ZM118.236 99.92H106.448V98.66H111.642V96.546H113.042V98.66H118.236V99.92ZM114.82 103.994C115.315 103.994 115.679 103.905 115.912 103.728C116.155 103.551 116.276 103.313 116.276 103.014C116.276 102.715 116.155 102.477 115.912 102.3C115.679 102.123 115.315 102.034 114.82 102.034H109.864C109.369 102.034 109.001 102.123 108.758 102.3C108.525 102.477 108.408 102.715 108.408 103.014C108.408 103.313 108.525 103.551 108.758 103.728C109.001 103.905 109.369 103.994 109.864 103.994H114.82ZM132.936 101.978H131.536V92.556H132.936V101.978ZM133.02 105.212H123.234V100.76H124.634V103.952H133.02V105.212ZM129.8 96.826C129.8 97.302 129.712 97.7313 129.534 98.114C129.357 98.4873 129.11 98.8093 128.792 99.08C128.475 99.3413 128.088 99.5467 127.63 99.696C127.182 99.836 126.688 99.906 126.146 99.906C125.596 99.906 125.096 99.836 124.648 99.696C124.2 99.5467 123.818 99.3413 123.5 99.08C123.183 98.8093 122.936 98.4873 122.758 98.114C122.581 97.7313 122.492 97.302 122.492 96.826V95.552C122.492 95.076 122.581 94.6513 122.758 94.278C122.936 93.8953 123.183 93.5733 123.5 93.312C123.818 93.0413 124.2 92.836 124.648 92.696C125.096 92.5467 125.596 92.472 126.146 92.472C126.688 92.472 127.182 92.5467 127.63 92.696C128.088 92.836 128.475 93.0413 128.792 93.312C129.11 93.5733 129.357 93.8953 129.534 94.278C129.712 94.6513 129.8 95.076 129.8 95.552V96.826ZM128.4 95.622C128.4 95.0247 128.19 94.5627 127.77 94.236C127.36 93.9 126.818 93.732 126.146 93.732C125.474 93.732 124.928 93.9 124.508 94.236C124.098 94.5627 123.892 95.0247 123.892 95.622V96.756C123.892 97.3533 124.098 97.82 124.508 98.156C124.928 98.4827 125.474 98.646 126.146 98.646C126.818 98.646 127.36 98.4827 127.77 98.156C128.19 97.82 128.4 97.3533 128.4 96.756V95.622ZM142.404 99.458H134.76V95.454H139.758V93.942H134.732V92.71H141.158V95.608C141.158 95.972 141.074 96.238 140.906 96.406C140.738 96.574 140.472 96.658 140.108 96.658H136.16V98.226H142.404V99.458ZM145.204 105.212H143.804V101.824H135.432V100.564H145.204V105.212ZM145.204 99.92H143.804V97.582H141.718V96.294H143.804V94.964H141.718V93.676H143.804V92.556H145.204V99.92ZM160.688 102.118H159.288V98.436H157.734V97.148H159.288V95.58H157.734V94.404H156.418C156.67 94.516 156.871 94.7213 157.02 95.02C157.169 95.3187 157.244 95.6267 157.244 95.944V97.456C157.244 99.276 156.124 100.186 153.884 100.186C152.792 100.186 151.957 99.962 151.378 99.514C150.809 99.0567 150.524 98.3707 150.524 97.456V95.944C150.524 95.6173 150.599 95.3093 150.748 95.02C150.897 94.7213 151.098 94.516 151.35 94.404H149.852V93.144H153.184V91.842H154.584V93.144H157.916V94.292H159.288V92.556H160.688V102.118ZM155.844 95.874C155.844 95.4167 155.69 95.034 155.382 94.726C155.083 94.418 154.584 94.264 153.884 94.264C153.184 94.264 152.68 94.418 152.372 94.726C152.073 95.034 151.924 95.4167 151.924 95.874V97.428C151.924 97.9227 152.073 98.3147 152.372 98.604C152.68 98.8933 153.184 99.038 153.884 99.038C154.584 99.038 155.083 98.8933 155.382 98.604C155.69 98.3147 155.844 97.9227 155.844 97.428V95.874ZM160.772 105.212H150.986V101.04H152.386V103.952H160.772V105.212ZM170.435 100.396H162.147V99.136H165.563V98.38C163.837 98.2213 162.973 97.4793 162.973 96.154V95.818C162.973 95.4913 163.048 95.1973 163.197 94.936C163.347 94.6747 163.552 94.474 163.813 94.334H162.259V93.074H165.563V91.842H166.963V93.074H170.309V94.334H168.755C169.026 94.4647 169.227 94.6653 169.357 94.936C169.488 95.1973 169.553 95.4913 169.553 95.818V96.154C169.553 97.4793 168.69 98.2213 166.963 98.38V99.136H170.435V100.396ZM170.113 101.236C170.963 101.236 171.621 101.399 172.087 101.726C172.554 102.053 172.787 102.552 172.787 103.224C172.787 103.896 172.554 104.395 172.087 104.722C171.621 105.049 170.963 105.212 170.113 105.212H165.227C164.378 105.212 163.72 105.049 163.253 104.722C162.787 104.395 162.553 103.896 162.553 103.224C162.553 102.552 162.787 102.053 163.253 101.726C163.72 101.399 164.378 101.236 165.227 101.236H170.113ZM172.535 100.774H171.135V92.556H172.535V95.608H174.187V96.896H172.535V100.774ZM169.931 103.952C170.902 103.952 171.387 103.709 171.387 103.224C171.387 102.739 170.902 102.496 169.931 102.496H165.409C164.439 102.496 163.953 102.739 163.953 103.224C163.953 103.709 164.439 103.952 165.409 103.952H169.931ZM168.153 95.65C168.153 95.454 168.116 95.272 168.041 95.104C167.976 94.936 167.869 94.7913 167.719 94.67C167.57 94.5393 167.374 94.4413 167.131 94.376C166.898 94.3013 166.609 94.264 166.263 94.264C165.918 94.264 165.624 94.3013 165.381 94.376C165.148 94.4413 164.957 94.5393 164.807 94.67C164.658 94.7913 164.546 94.936 164.471 95.104C164.406 95.272 164.373 95.454 164.373 95.65V95.874C164.373 96.3313 164.513 96.6767 164.793 96.91C165.083 97.1433 165.573 97.26 166.263 97.26C166.954 97.26 167.439 97.1433 167.719 96.91C168.009 96.6767 168.153 96.3313 168.153 95.874V95.65Z" fill="black"/>
<path d="M187.58 93.6851H189.53V105H187.486V95.6685H187.42L184.773 97.3591V95.4972L187.58 93.6851ZM195.814 105.155C195.074 105.155 194.403 105.017 193.803 104.74C193.206 104.464 192.733 104.081 192.383 103.591C192.033 103.101 191.849 102.547 191.831 101.928H193.809C193.831 102.23 193.934 102.503 194.118 102.746C194.302 102.985 194.541 103.173 194.836 103.309C195.134 103.442 195.46 103.508 195.814 103.508C196.23 103.508 196.604 103.416 196.936 103.232C197.267 103.044 197.525 102.786 197.709 102.459C197.897 102.127 197.991 101.753 197.991 101.337C197.991 100.91 197.893 100.529 197.698 100.193C197.506 99.8545 197.238 99.5912 196.891 99.4033C196.549 99.2155 196.162 99.1215 195.731 99.1215C194.84 99.1215 194.221 99.4438 193.875 100.088H191.996L192.67 93.6851H199.355V95.3867H194.35L194.007 98.3923H194.107C194.335 98.1381 194.645 97.9319 195.035 97.7735C195.425 97.6151 195.849 97.5359 196.306 97.5359C196.998 97.5359 197.622 97.698 198.179 98.0221C198.735 98.3425 199.171 98.7882 199.488 99.3591C199.805 99.9263 199.963 100.567 199.963 101.282C199.963 102.026 199.786 102.692 199.433 103.282C199.083 103.871 198.593 104.331 197.963 104.663C197.337 104.991 196.621 105.155 195.814 105.155Z" fill="black"/>
<path d="M209.692 99.9496H207.782V100.664H203.718V96.7383H207.782V97.4565H209.692V96.0787H210.617V101.244H209.692V99.9496ZM204.637 99.9151H206.874V97.4807H204.637V99.9151ZM209.692 99.1899V98.2023H207.782V99.1899H209.692ZM207.686 101.486C208.296 101.486 208.822 101.553 209.264 101.686C209.708 101.818 210.049 102.009 210.286 102.26C210.525 102.511 210.645 102.811 210.645 103.161C210.645 103.509 210.525 103.807 210.286 104.055C210.049 104.304 209.708 104.493 209.264 104.622C208.822 104.75 208.296 104.815 207.686 104.815C207.073 104.815 206.545 104.75 206.101 104.622C205.657 104.493 205.316 104.304 205.079 104.055C204.844 103.807 204.728 103.509 204.73 103.161C204.728 102.811 204.845 102.511 205.082 102.26C205.319 102.009 205.66 101.818 206.104 101.686C206.549 101.553 207.076 101.486 207.686 101.486ZM207.686 104.093C208.109 104.093 208.473 104.056 208.777 103.983C209.083 103.909 209.318 103.802 209.481 103.662C209.645 103.521 209.727 103.354 209.727 103.161C209.727 102.958 209.645 102.786 209.481 102.643C209.32 102.5 209.087 102.392 208.78 102.318C208.477 102.245 208.112 102.207 207.686 102.204C207.258 102.207 206.89 102.245 206.584 102.318C206.28 102.392 206.048 102.5 205.887 102.643C205.726 102.786 205.646 102.958 205.648 103.161C205.646 103.354 205.726 103.521 205.887 103.662C206.048 103.802 206.282 103.909 206.588 103.983C206.894 104.056 207.26 104.093 207.686 104.093Z" fill="black"/>
<path d="M311.596 99.2106V98.4544H313.274V96.0856H314.199V102.494H313.274V99.2106H311.596ZM309.583 99.3142C309.387 99.8046 309.1 100.233 308.723 100.599C308.348 100.965 307.903 101.24 307.39 101.424L306.91 100.668C307.35 100.52 307.734 100.303 308.063 100.015C308.395 99.7251 308.649 99.3936 308.827 99.0207C309.006 98.6455 309.096 98.2576 309.096 97.857V97.5117H307.197V96.7555H311.92V97.5117H310.035V97.857C310.035 98.2231 310.12 98.5799 310.291 98.9275C310.461 99.2751 310.705 99.5859 311.023 99.8598C311.34 100.131 311.714 100.34 312.145 100.485L311.672 101.224C311.188 101.056 310.767 100.806 310.408 100.474C310.051 100.143 309.776 99.7562 309.583 99.3142ZM309.445 101.925V103.89H314.431V104.649H308.519V101.925H309.445ZM322.542 102.55H321.617V99.5767H319.21V98.8343H321.617V97.9157H319.21V97.1768H321.617V96.0856H322.542V102.55ZM320.298 100.985C319.653 101.105 319.029 101.187 318.426 101.231C317.825 101.274 317.161 101.297 316.434 101.3H315.76V96.6899H316.682V100.526C317.308 100.522 317.903 100.497 318.467 100.454C319.031 100.408 319.609 100.331 320.201 100.222L320.298 100.985ZM317.777 101.987V103.89H322.77V104.649H316.841V101.987H317.777ZM332.356 99.549V96.0787H333.237V104.829H332.356V100.305H331.224V104.38H330.367V96.2583H331.224V99.549H332.356ZM326.956 101.942C327.529 101.937 328.029 101.918 328.458 101.883C328.888 101.849 329.325 101.789 329.77 101.704L329.846 102.47C329.355 102.572 328.873 102.638 328.399 102.671C327.925 102.703 327.327 102.721 326.607 102.726H326.027V97.1319H329.3V97.8847H326.956V101.942ZM340.391 96.0787H341.324V104.846H340.391V96.0787ZM334.559 96.8073H335.485V99.0552H337.846V96.8073H338.762V102.753H334.559V96.8073ZM335.485 99.7907V101.987H337.846V99.7907H335.485ZM350.889 96.0787H351.818V100.775H350.889V96.0787ZM347.067 96.4827C347.509 96.4804 347.906 96.5656 348.258 96.7383C348.612 96.9086 348.89 97.1492 349.09 97.4599C349.29 97.7684 349.391 98.1206 349.391 98.5166C349.391 98.9079 349.29 99.2578 349.09 99.5663C348.89 99.8725 348.612 100.111 348.258 100.281C347.906 100.451 347.509 100.537 347.067 100.537C346.622 100.537 346.223 100.451 345.868 100.281C345.516 100.111 345.239 99.8725 345.036 99.5663C344.836 99.2578 344.736 98.9079 344.736 98.5166C344.736 98.1206 344.836 97.7684 345.036 97.4599C345.239 97.1492 345.516 96.9086 345.868 96.7383C346.223 96.5656 346.622 96.4804 347.067 96.4827ZM347.067 97.2631C346.79 97.2608 346.544 97.3126 346.328 97.4185C346.111 97.5221 345.942 97.6694 345.82 97.8605C345.7 98.0516 345.642 98.2703 345.644 98.5166C345.642 98.7629 345.7 98.9816 345.82 99.1727C345.942 99.3614 346.111 99.5087 346.328 99.6146C346.544 99.7205 346.79 99.7735 347.067 99.7735C347.338 99.7735 347.581 99.7205 347.795 99.6146C348.012 99.5087 348.18 99.3614 348.299 99.1727C348.421 98.9816 348.482 98.7629 348.482 98.5166C348.482 98.2703 348.421 98.0516 348.299 97.8605C348.18 97.6694 348.012 97.5221 347.795 97.4185C347.581 97.3126 347.338 97.2608 347.067 97.2631ZM346.089 101.2H346.998V102.18H350.896V101.2H351.818V104.718H346.089V101.2ZM346.998 102.912V103.962H350.896V102.912H346.998ZM359.719 99.5698H361.121V100.36H359.719V104.829H358.79V96.0787H359.719V99.5698ZM355.934 98.3059C355.932 98.817 356.023 99.3223 356.207 99.8218C356.393 100.321 356.653 100.769 356.987 101.165C357.323 101.561 357.704 101.864 358.13 102.073L357.56 102.816C357.089 102.572 356.673 102.218 356.314 101.756C355.955 101.293 355.677 100.766 355.482 100.174C355.284 100.805 354.998 101.366 354.625 101.859C354.252 102.352 353.821 102.726 353.33 102.981L352.754 102.235C353.194 102.024 353.584 101.712 353.924 101.3C354.267 100.885 354.533 100.416 354.722 99.8909C354.913 99.366 355.01 98.8377 355.012 98.3059V96.8073H355.934V98.3059ZM365.226 99.2003C364.568 99.198 364.005 99.1381 363.538 99.0207C363.07 98.9033 362.714 98.7318 362.467 98.5062C362.221 98.2806 362.098 98.0067 362.098 97.6844C362.098 97.3644 362.221 97.0916 362.467 96.866C362.714 96.6404 363.07 96.4689 363.538 96.3515C364.007 96.2341 364.57 96.1754 365.226 96.1754C365.882 96.1754 366.444 96.2341 366.911 96.3515C367.379 96.4689 367.734 96.6404 367.978 96.866C368.225 97.0916 368.348 97.3644 368.348 97.6844C368.348 98.0067 368.225 98.2806 367.978 98.5062C367.734 98.7318 367.379 98.9033 366.911 99.0207C366.446 99.1381 365.885 99.198 365.226 99.2003ZM365.226 96.8729C364.766 96.8729 364.373 96.9052 364.049 96.9696C363.726 97.0341 363.481 97.1273 363.313 97.2493C363.148 97.369 363.066 97.514 363.068 97.6844C363.066 97.9514 363.249 98.154 363.617 98.2921C363.988 98.4302 364.524 98.5005 365.226 98.5028C365.933 98.5005 366.472 98.4302 366.842 98.2921C367.213 98.154 367.398 97.9514 367.398 97.6844C367.398 97.4266 367.211 97.2274 366.835 97.087C366.462 96.9466 365.926 96.8752 365.226 96.8729ZM369.221 99.6733V100.416H367.074V101.196H368.21V103.244H363.12V104.028H368.462V104.746H362.212V102.577H367.298V101.89H362.194V101.196H363.358V100.416H361.245V99.6733H369.221ZM364.277 101.196H366.148V100.416H364.277V101.196ZM391.757 99.0104C392.282 98.9528 392.762 98.8412 393.197 98.6754C393.632 98.5097 393.982 98.3048 394.247 98.0608C394.514 97.8168 394.666 97.5543 394.703 97.2735H392.068V96.5104H398.598V97.2735H395.949C395.984 97.552 396.133 97.8133 396.398 98.0573C396.663 98.3013 397.014 98.5074 397.451 98.6754C397.889 98.8412 398.374 98.9528 398.908 99.0104L398.574 99.739C398.067 99.6814 397.596 99.5744 397.161 99.4178C396.726 99.2613 396.35 99.0622 396.032 98.8204C395.714 98.5787 395.477 98.3048 395.321 97.9986C395.164 98.3048 394.928 98.5787 394.613 98.8204C394.298 99.0622 393.922 99.2613 393.487 99.4178C393.054 99.5744 392.585 99.6814 392.078 99.739L391.757 99.0104ZM391.339 100.954V100.198H399.316V100.954H391.339ZM395.317 101.628C395.943 101.628 396.482 101.691 396.933 101.818C397.387 101.942 397.734 102.124 397.976 102.363C398.218 102.603 398.34 102.89 398.342 103.227C398.34 103.563 398.218 103.849 397.976 104.086C397.737 104.326 397.39 104.506 396.937 104.628C396.486 104.753 395.946 104.815 395.317 104.815C394.687 104.815 394.143 104.753 393.687 104.628C393.234 104.506 392.886 104.326 392.645 104.086C392.403 103.849 392.282 103.563 392.282 103.227C392.282 102.89 392.403 102.603 392.645 102.363C392.886 102.124 393.234 101.942 393.687 101.818C394.143 101.691 394.687 101.628 395.317 101.628ZM395.317 104.083C395.983 104.083 396.498 104.009 396.864 103.862C397.23 103.715 397.414 103.503 397.417 103.227C397.414 102.948 397.23 102.734 396.864 102.584C396.498 102.435 395.983 102.358 395.317 102.353C394.645 102.358 394.127 102.435 393.763 102.584C393.402 102.734 393.222 102.948 393.225 103.227C393.222 103.503 393.402 103.715 393.763 103.862C394.127 104.009 394.645 104.083 395.317 104.083ZM406.498 99.5663H407.855V100.343H406.498V104.818H405.569V96.0787H406.498V99.5663ZM404.209 97.0041C404.204 98.3347 403.881 99.5318 403.239 100.595C402.596 101.657 401.585 102.527 400.203 103.206L399.685 102.488C401.875 101.396 403.068 99.8241 403.266 97.7707H400.124V97.0041H404.209Z" fill="black"/>
<path d="M373.642 96.9282H374.861V104H373.583V98.1678H373.542L371.888 99.2244V98.0608L373.642 96.9282ZM377.863 104H376.54L379.61 98.0435V97.9917H376.053V96.9282H380.929V98.0193L377.863 104ZM381.835 98.2541C381.835 97.9756 381.893 97.7212 382.011 97.491C382.13 97.2585 382.303 97.0744 382.529 96.9385C382.757 96.8027 383.024 96.7348 383.33 96.7348C383.645 96.7348 383.914 96.8027 384.138 96.9385C384.363 97.0744 384.534 97.2574 384.649 97.4876C384.764 97.7178 384.821 97.9733 384.821 98.2541V98.6271C384.821 98.9056 384.763 99.16 384.645 99.3902C384.53 99.6204 384.36 99.8034 384.134 99.9392C383.909 100.075 383.64 100.143 383.33 100.143C383.017 100.143 382.747 100.075 382.522 99.9392C382.296 99.8034 382.125 99.6204 382.007 99.3902C381.892 99.16 381.835 98.9056 381.835 98.6271V98.2541ZM383.088 104H382.228L387.09 96.9282H387.95L383.088 104ZM382.743 98.6271C382.743 98.8343 382.79 99.0081 382.884 99.1485C382.979 99.2889 383.127 99.3591 383.33 99.3591C383.535 99.3591 383.683 99.2901 383.775 99.1519C383.87 99.0115 383.917 98.8366 383.917 98.6271V98.2541C383.917 98.0424 383.872 97.8674 383.782 97.7293C383.692 97.5889 383.541 97.5186 383.33 97.5186C383.129 97.5186 382.981 97.59 382.884 97.7327C382.79 97.8755 382.743 98.0493 382.743 98.2541V98.6271ZM385.429 102.301C385.429 102.023 385.488 101.768 385.605 101.538C385.723 101.305 385.894 101.121 386.12 100.985C386.345 100.85 386.614 100.782 386.924 100.782C387.237 100.782 387.507 100.85 387.732 100.985C387.958 101.121 388.128 101.304 388.243 101.535C388.358 101.765 388.416 102.02 388.416 102.301V102.674C388.416 102.953 388.357 103.208 388.24 103.441C388.123 103.671 387.951 103.854 387.725 103.99C387.5 104.125 387.233 104.193 386.924 104.193C386.611 104.193 386.342 104.125 386.116 103.99C385.891 103.854 385.719 103.671 385.602 103.441C385.487 103.208 385.429 102.953 385.429 102.674V102.301ZM386.33 102.674C386.33 102.881 386.378 103.055 386.472 103.195C386.566 103.336 386.717 103.406 386.924 103.406C387.129 103.406 387.278 103.336 387.37 103.195C387.464 103.055 387.511 102.881 387.511 102.674V102.301C387.511 102.089 387.465 101.914 387.373 101.776C387.283 101.636 387.134 101.566 386.924 101.566C386.722 101.566 386.572 101.637 386.475 101.78C386.379 101.92 386.33 102.094 386.33 102.301V102.674Z" fill="#00AEAE"/>
<path d="M426.524 104.846V96.0787H427.449V104.846H426.524ZM423.602 102.284C424.479 102.238 425.27 102.164 425.974 102.063L426.047 102.74C425.471 102.848 424.873 102.93 424.251 102.985C423.632 103.04 423.053 103.076 422.515 103.092C421.978 103.108 421.357 103.119 420.65 103.126L420.374 103.13L420.26 102.356C421.215 102.356 422.023 102.346 422.684 102.325V100.972H420.909V96.8453H425.457V97.5981H421.845V98.5338H425.28V99.2555H421.845V100.233H425.495V100.972H423.602V102.284ZM435.374 99.5698H436.776V100.36H435.374V104.829H434.445V96.0787H435.374V99.5698ZM431.589 98.3059C431.587 98.817 431.678 99.3223 431.862 99.8218C432.048 100.321 432.309 100.769 432.642 101.165C432.978 101.561 433.359 101.864 433.785 102.073L433.216 102.816C432.744 102.572 432.328 102.218 431.969 101.756C431.61 101.293 431.332 100.766 431.137 100.174C430.939 100.805 430.653 101.366 430.28 101.859C429.908 102.352 429.476 102.726 428.986 102.981L428.409 102.235C428.849 102.024 429.239 101.712 429.579 101.3C429.923 100.885 430.188 100.416 430.377 99.8909C430.568 99.366 430.665 98.8377 430.667 98.3059V96.8073H431.589V98.3059ZM440.881 99.2003C440.223 99.198 439.66 99.1381 439.193 99.0207C438.725 98.9033 438.369 98.7318 438.122 98.5062C437.876 98.2806 437.753 98.0067 437.753 97.6844C437.753 97.3644 437.876 97.0916 438.122 96.866C438.369 96.6404 438.725 96.4689 439.193 96.3515C439.662 96.2341 440.225 96.1754 440.881 96.1754C441.537 96.1754 442.099 96.2341 442.566 96.3515C443.034 96.4689 443.389 96.6404 443.633 96.866C443.88 97.0916 444.003 97.3644 444.003 97.6844C444.003 98.0067 443.88 98.2806 443.633 98.5062C443.389 98.7318 443.034 98.9033 442.566 99.0207C442.101 99.1381 441.54 99.198 440.881 99.2003ZM440.881 96.8729C440.421 96.8729 440.028 96.9052 439.704 96.9696C439.382 97.0341 439.136 97.1273 438.968 97.2493C438.803 97.369 438.721 97.514 438.723 97.6844C438.721 97.9514 438.904 98.154 439.272 98.2921C439.643 98.4302 440.179 98.5005 440.881 98.5028C441.588 98.5005 442.127 98.4302 442.497 98.2921C442.868 98.154 443.053 97.9514 443.053 97.6844C443.053 97.4266 442.866 97.2274 442.49 97.087C442.118 96.9466 441.581 96.8752 440.881 96.8729ZM444.876 99.6733V100.416H442.729V101.196H443.865V103.244H438.775V104.028H444.117V104.746H437.867V102.577H442.953V101.89H437.85V101.196H439.013V100.416H436.9V99.6733H444.876ZM439.932 101.196H441.803V100.416H439.932V101.196ZM463.757 99.0104C464.282 98.9528 464.762 98.8412 465.197 98.6754C465.632 98.5097 465.982 98.3048 466.247 98.0608C466.514 97.8168 466.666 97.5543 466.703 97.2735H464.068V96.5104H470.598V97.2735H467.949C467.984 97.552 468.133 97.8133 468.398 98.0573C468.663 98.3013 469.014 98.5074 469.451 98.6754C469.889 98.8412 470.374 98.9528 470.908 99.0104L470.574 99.739C470.067 99.6814 469.596 99.5744 469.161 99.4178C468.726 99.2613 468.35 99.0622 468.032 98.8204C467.714 98.5787 467.477 98.3048 467.321 97.9986C467.164 98.3048 466.928 98.5787 466.613 98.8204C466.298 99.0622 465.922 99.2613 465.487 99.4178C465.054 99.5744 464.585 99.6814 464.078 99.739L463.757 99.0104ZM463.339 100.954V100.198H471.316V100.954H463.339ZM467.317 101.628C467.943 101.628 468.482 101.691 468.933 101.818C469.387 101.942 469.734 102.124 469.976 102.363C470.218 102.603 470.34 102.89 470.342 103.227C470.34 103.563 470.218 103.849 469.976 104.086C469.737 104.326 469.39 104.506 468.937 104.628C468.486 104.753 467.946 104.815 467.317 104.815C466.687 104.815 466.143 104.753 465.687 104.628C465.234 104.506 464.886 104.326 464.645 104.086C464.403 103.849 464.282 103.563 464.282 103.227C464.282 102.89 464.403 102.603 464.645 102.363C464.886 102.124 465.234 101.942 465.687 101.818C466.143 101.691 466.687 101.628 467.317 101.628ZM467.317 104.083C467.983 104.083 468.498 104.009 468.864 103.862C469.23 103.715 469.414 103.503 469.417 103.227C469.414 102.948 469.23 102.734 468.864 102.584C468.498 102.435 467.983 102.358 467.317 102.353C466.645 102.358 466.127 102.435 465.763 102.584C465.402 102.734 465.222 102.948 465.225 103.227C465.222 103.503 465.402 103.715 465.763 103.862C466.127 104.009 466.645 104.083 467.317 104.083ZM478.498 99.5663H479.855V100.343H478.498V104.818H477.569V96.0787H478.498V99.5663ZM476.209 97.0041C476.204 98.3347 475.881 99.5318 475.239 100.595C474.596 101.657 473.585 102.527 472.203 103.206L471.685 102.488C473.875 101.396 475.068 99.8241 475.266 97.7707H472.124V97.0041H476.209Z" fill="black"/>
<path d="M450.212 104.097C449.694 104.097 449.23 104.012 448.82 103.841C448.413 103.669 448.095 103.431 447.867 103.13C447.639 102.826 447.527 102.484 447.529 102.104C447.527 101.812 447.592 101.539 447.726 101.286C447.859 101.033 448.041 100.823 448.271 100.657C448.504 100.492 448.761 100.387 449.041 100.343V100.298C448.797 100.248 448.581 100.148 448.392 99.9979C448.203 99.846 448.056 99.6607 447.95 99.442C447.847 99.221 447.795 98.9827 447.795 98.7272C447.795 98.3681 447.898 98.0447 448.106 97.7569C448.315 97.4669 448.604 97.2401 448.972 97.0767C449.341 96.9132 449.754 96.8315 450.212 96.8315C450.67 96.8315 451.082 96.9132 451.448 97.0767C451.817 97.2401 452.105 97.4669 452.315 97.7569C452.524 98.0447 452.629 98.3681 452.629 98.7272C452.629 98.9827 452.575 99.221 452.467 99.442C452.361 99.6607 452.212 99.846 452.021 99.9979C451.833 100.148 451.619 100.248 451.379 100.298V100.343C451.658 100.387 451.912 100.492 452.142 100.657C452.375 100.823 452.559 101.033 452.695 101.286C452.831 101.539 452.898 101.812 452.898 102.104C452.898 102.484 452.783 102.826 452.553 103.13C452.323 103.431 452.003 103.669 451.593 103.841C451.186 104.012 450.725 104.097 450.212 104.097ZM450.212 99.8874C450.438 99.8874 450.639 99.8437 450.816 99.7562C450.994 99.6687 451.133 99.5467 451.234 99.3902C451.335 99.2314 451.386 99.0506 451.386 98.8481C451.386 98.6478 451.337 98.4705 451.238 98.3163C451.139 98.1621 450.999 98.0424 450.82 97.9572C450.642 97.8697 450.44 97.826 450.212 97.826C449.979 97.826 449.775 97.8697 449.597 97.9572C449.42 98.0424 449.282 98.1621 449.183 98.3163C449.086 98.4705 449.038 98.6478 449.038 98.8481C449.038 99.0506 449.087 99.2314 449.186 99.3902C449.288 99.5467 449.427 99.6687 449.604 99.7562C449.784 99.8437 449.986 99.8874 450.212 99.8874ZM450.212 103.116C450.486 103.116 450.727 103.07 450.934 102.978C451.143 102.884 451.304 102.753 451.417 102.588C451.53 102.42 451.586 102.229 451.586 102.015C451.586 101.794 451.526 101.594 451.407 101.417C451.289 101.24 451.126 101.102 450.916 101.003C450.707 100.901 450.472 100.851 450.212 100.851C449.95 100.851 449.714 100.901 449.504 101.003C449.295 101.102 449.131 101.24 449.014 101.417C448.896 101.594 448.839 101.794 448.841 102.015C448.839 102.229 448.893 102.42 449.003 102.588C449.116 102.753 449.276 102.884 449.483 102.978C449.693 103.07 449.936 103.116 450.212 103.116ZM453.835 98.2541C453.835 97.9756 453.893 97.7212 454.011 97.491C454.13 97.2585 454.303 97.0744 454.529 96.9385C454.757 96.8027 455.024 96.7348 455.33 96.7348C455.645 96.7348 455.914 96.8027 456.138 96.9385C456.363 97.0744 456.534 97.2574 456.649 97.4876C456.764 97.7178 456.821 97.9733 456.821 98.2541V98.6271C456.821 98.9056 456.763 99.16 456.645 99.3902C456.53 99.6204 456.36 99.8034 456.134 99.9392C455.909 100.075 455.64 100.143 455.33 100.143C455.017 100.143 454.747 100.075 454.522 99.9392C454.296 99.8034 454.125 99.6204 454.007 99.3902C453.892 99.16 453.835 98.9056 453.835 98.6271V98.2541ZM455.088 104H454.228L459.09 96.9282H459.95L455.088 104ZM454.743 98.6271C454.743 98.8343 454.79 99.0081 454.884 99.1485C454.979 99.2889 455.127 99.3591 455.33 99.3591C455.535 99.3591 455.683 99.2901 455.775 99.1519C455.87 99.0115 455.917 98.8366 455.917 98.6271V98.2541C455.917 98.0424 455.872 97.8674 455.782 97.7293C455.692 97.5889 455.541 97.5186 455.33 97.5186C455.129 97.5186 454.981 97.59 454.884 97.7327C454.79 97.8755 454.743 98.0493 454.743 98.2541V98.6271ZM457.429 102.301C457.429 102.023 457.488 101.768 457.605 101.538C457.723 101.305 457.894 101.121 458.12 100.985C458.345 100.85 458.614 100.782 458.924 100.782C459.237 100.782 459.507 100.85 459.732 100.985C459.958 101.121 460.128 101.304 460.243 101.535C460.358 101.765 460.416 102.02 460.416 102.301V102.674C460.416 102.953 460.357 103.208 460.24 103.441C460.123 103.671 459.951 103.854 459.725 103.99C459.5 104.125 459.233 104.193 458.924 104.193C458.611 104.193 458.342 104.125 458.116 103.99C457.891 103.854 457.719 103.671 457.602 103.441C457.487 103.208 457.429 102.953 457.429 102.674V102.301ZM458.33 102.674C458.33 102.881 458.378 103.055 458.472 103.195C458.566 103.336 458.717 103.406 458.924 103.406C459.129 103.406 459.278 103.336 459.37 103.195C459.464 103.055 459.511 102.881 459.511 102.674V102.301C459.511 102.089 459.465 101.914 459.373 101.776C459.283 101.636 459.134 101.566 458.924 101.566C458.722 101.566 458.572 101.637 458.475 101.78C458.379 101.92 458.33 102.094 458.33 102.301V102.674Z" fill="#00AEAE"/>
</g>
<defs>
<filter id="filter0_f_191_942" x="28.479" y="-67.5898" width="1166.11" height="1242.4" filterUnits="userSpaceOnUse" color-interpolation-filters="sRGB">
<feFlood flood-opacity="0" result="BackgroundImageFix"/>
<feBlend mode="normal" in="SourceGraphic" in2="BackgroundImageFix" result="shape"/>
<feGaussianBlur stdDeviation="150" result="effect1_foregroundBlur_191_942"/>
</filter>
<linearGradient id="paint0_linear_191_942" x1="158" y1="204" x2="158" y2="275" gradientUnits="userSpaceOnUse">
<stop stop-color="#5767C6"/>
<stop offset="1" stop-color="#0A339E"/>
</linearGradient>
<linearGradient id="paint1_linear_191_942" x1="202" y1="221" x2="202" y2="275" gradientUnits="userSpaceOnUse">
<stop stop-color="#5767C6"/>
<stop offset="1" stop-color="#0A339E"/>
</linearGradient>
<linearGradient id="paint2_linear_191_942" x1="246" y1="175" x2="246" y2="275" gradientUnits="userSpaceOnUse">
<stop stop-color="#5767C6"/>
<stop offset="1" stop-color="#0A339E"/>
</linearGradient>
<linearGradient id="paint3_linear_191_942" x1="290" y1="204" x2="290" y2="275" gradientUnits="userSpaceOnUse">
<stop stop-color="#5767C6"/>
<stop offset="1" stop-color="#0A339E"/>
</linearGradient>
<linearGradient id="paint4_linear_191_942" x1="334" y1="175" x2="334" y2="275" gradientUnits="userSpaceOnUse">
<stop stop-color="#5767C6"/>
<stop offset="1" stop-color="#0A339E"/>
</linearGradient>
<linearGradient id="paint5_linear_191_942" x1="378" y1="175" x2="378" y2="275" gradientUnits="userSpaceOnUse">
<stop stop-color="#5767C6"/>
<stop offset="1" stop-color="#0A339E"/>
</linearGradient>
<linearGradient id="paint6_linear_191_942" x1="422" y1="142" x2="422" y2="275" gradientUnits="userSpaceOnUse">
<stop stop-color="#5767C6"/>
<stop offset="1" stop-color="#0A339E"/>
</linearGradient>
<clipPath id="clip0_191_942">
<rect width="440" height="500" rx="16" fill="white"/>
</clipPath>
</defs>
</svg>
