<svg width="420" height="200" viewBox="0 0 420 200" fill="none" xmlns="http://www.w3.org/2000/svg">
<rect width="420" height="200" fill="#F4F6FC"/>
<path d="M48.236 46.592H43.042V51.212H41.642V46.592H36.448V45.332H48.236V46.592ZM46.99 44.492H45.59L46.01 40.348C46.038 40.0867 45.9073 39.956 45.618 39.956H37.33V38.696H46.78C47.0227 38.696 47.2047 38.766 47.326 38.906C47.4567 39.046 47.5127 39.2327 47.494 39.466L46.99 44.492ZM52.4115 51.212C51.5622 51.212 50.9042 50.9927 50.4375 50.554C49.9708 50.1247 49.7375 49.5133 49.7375 48.72C49.7375 47.9267 49.9708 47.3153 50.4375 46.886C50.9042 46.4473 51.5622 46.228 52.4115 46.228H57.2975C58.1468 46.228 58.8048 46.4473 59.2715 46.886C59.7382 47.3153 59.9715 47.9267 59.9715 48.72C59.9715 49.5133 59.7382 50.1247 59.2715 50.554C58.8048 50.9927 58.1468 51.212 57.2975 51.212H52.4115ZM59.7195 45.78H58.3195V42.574H56.0935V45.36H54.6935V39.97H53.4615C53.1628 39.97 52.9482 40.0307 52.8175 40.152C52.6962 40.264 52.5842 40.432 52.4815 40.656L50.3955 45.36H48.8415L51.0535 40.334C51.1748 40.0727 51.2868 39.8393 51.3895 39.634C51.4922 39.4287 51.6135 39.2607 51.7535 39.13C51.9028 38.99 52.0802 38.8873 52.2855 38.822C52.4908 38.7473 52.7522 38.71 53.0695 38.71H56.0935V41.286H58.3195V38.556H59.7195V45.78ZM57.1155 49.952C57.6102 49.952 57.9742 49.8353 58.2075 49.602C58.4502 49.378 58.5715 49.084 58.5715 48.72C58.5715 48.356 58.4502 48.062 58.2075 47.838C57.9742 47.6047 57.6102 47.488 57.1155 47.488H52.5935C52.0988 47.488 51.7302 47.6047 51.4875 47.838C51.2542 48.062 51.1375 48.356 51.1375 48.72C51.1375 49.084 51.2542 49.378 51.4875 49.602C51.7302 49.8353 52.0988 49.952 52.5935 49.952H57.1155ZM68.711 42.098C68.5337 42.406 68.277 42.6673 67.941 42.882C67.6143 43.0967 67.2223 43.26 66.765 43.372C66.3077 43.484 65.8037 43.54 65.253 43.54C64.7023 43.54 64.1937 43.484 63.727 43.372C63.2697 43.26 62.8777 43.0967 62.551 42.882C62.2243 42.6673 61.9677 42.406 61.781 42.098C61.6037 41.7807 61.515 41.4167 61.515 41.006C61.515 40.6047 61.6037 40.2453 61.781 39.928C61.9677 39.6107 62.2243 39.3447 62.551 39.13C62.8777 38.9153 63.2697 38.752 63.727 38.64C64.1937 38.528 64.7023 38.472 65.253 38.472C65.8037 38.472 66.3077 38.528 66.765 38.64C67.2223 38.752 67.6143 38.9153 67.941 39.13C68.277 39.3447 68.5337 39.6107 68.711 39.928C68.8977 40.2453 68.991 40.6047 68.991 41.006C68.991 41.4167 68.8977 41.7807 68.711 42.098ZM71.847 48.888H70.447V47.558H67.325V46.326H70.447V38.556H71.847V48.888ZM71.931 51.212H61.865V47.712H63.265V49.952H71.931V51.212ZM69.537 45.43H65.729V47.642H64.329V45.43H61.179V44.17H69.537V45.43ZM66.933 41.986C67.3717 41.7807 67.591 41.454 67.591 41.006C67.591 40.558 67.3717 40.236 66.933 40.04C66.5037 39.8347 65.9437 39.732 65.253 39.732C64.5623 39.732 63.9977 39.8347 63.559 40.04C63.1297 40.236 62.915 40.558 62.915 41.006C62.915 41.454 63.1297 41.7807 63.559 41.986C63.9977 42.182 64.5623 42.28 65.253 42.28C65.9437 42.28 66.5037 42.182 66.933 41.986Z" fill="black"/>
<path d="M43.3595 78.2476H45.0159V79.2531H43.3595V82.1305H42.1519V75.7113H43.3595V78.2476ZM41.1958 80.8512C40.295 81.0307 39.4107 81.1579 38.5428 81.2327C37.675 81.3076 36.7831 81.3465 35.8674 81.3494H34.9382V76.2724H36.1502V80.3484C37.8231 80.3334 39.4556 80.1689 41.0477 79.8546L41.1958 80.8512ZM43.3595 86.9247H36.0739V82.7231H43.3595V86.9247ZM42.1834 83.6657H37.25V85.9596H42.1834V83.6657ZM54.748 82.4178H53.5449V79.0107H51.1478V78.0186H53.5449V75.7023H54.748V82.4178ZM48.7328 79.4551C48.4844 80.1135 48.1148 80.6866 47.624 81.1744C47.1362 81.6592 46.5512 82.0243 45.8688 82.2697L45.2224 81.3001C45.818 81.0966 46.3312 80.8033 46.7621 80.4202C47.1961 80.0342 47.5268 79.5868 47.7542 79.078C47.9846 78.5693 48.1013 78.0306 48.1043 77.462V76.3353H49.3074V77.4126C49.3044 77.9393 49.4121 78.4406 49.6306 78.9164C49.852 79.3923 50.1692 79.8097 50.5822 80.1689C50.9982 80.525 51.489 80.7958 52.0546 80.9814L51.3992 81.924C50.7768 81.6996 50.2381 81.3764 49.7832 80.9544C49.3313 80.5295 48.9812 80.0297 48.7328 79.4551ZM50.9369 82.732C51.7299 82.732 52.4137 82.8188 52.9883 82.9924C53.5659 83.163 54.0088 83.4114 54.317 83.7376C54.6283 84.0638 54.7839 84.4543 54.7839 84.9092C54.7839 85.3611 54.6283 85.7486 54.317 86.0718C54.0088 86.395 53.5659 86.6404 52.9883 86.808C52.4137 86.9756 51.7299 87.0594 50.9369 87.0594C50.1408 87.0594 49.454 86.9756 48.8764 86.808C48.2989 86.6404 47.8559 86.395 47.5477 86.0718C47.2425 85.7486 47.0913 85.3611 47.0943 84.9092C47.0913 84.4543 47.2439 84.0638 47.5522 83.7376C47.8604 83.4114 48.3033 83.163 48.8809 82.9924C49.4585 82.8188 50.1438 82.732 50.9369 82.732ZM50.9369 86.1077C51.4875 86.1077 51.9618 86.0613 52.3599 85.9686C52.7579 85.8728 53.0616 85.7352 53.2711 85.5556C53.4836 85.376 53.5898 85.1606 53.5898 84.9092C53.5898 84.6488 53.4836 84.4274 53.2711 84.2448C53.0616 84.0593 52.7579 83.9186 52.3599 83.8229C51.9648 83.7271 51.4905 83.6792 50.9369 83.6792C50.3832 83.6792 49.9074 83.7271 49.5094 83.8229C49.1114 83.9186 48.8076 84.0593 48.5981 84.2448C48.3886 84.4274 48.2854 84.6488 48.2884 84.9092C48.2854 85.1606 48.3886 85.376 48.5981 85.5556C48.8076 85.7352 49.1114 85.8728 49.5094 85.9686C49.9074 86.0613 50.3832 86.1077 50.9369 86.1077ZM67.1068 75.7023H68.3188V87.0998H67.1068V75.7023ZM59.5249 76.6495H60.728V79.5718H63.7984V76.6495H64.988V84.3795H59.5249V76.6495ZM60.728 80.528V83.3829H63.7984V80.528H60.728ZM74.9176 79.7604C74.0617 79.7574 73.33 79.6796 72.7225 79.5269C72.115 79.3743 71.6511 79.1514 71.3309 78.8581C71.0107 78.5648 70.8506 78.2087 70.8506 77.7897C70.8506 77.3737 71.0107 77.0191 71.3309 76.7258C71.6511 76.4326 72.115 76.2096 72.7225 76.057C73.333 75.9044 74.0647 75.828 74.9176 75.828C75.7705 75.828 76.5007 75.9044 77.1082 76.057C77.7157 76.2096 78.1781 76.4326 78.4953 76.7258C78.8155 77.0191 78.9756 77.3737 78.9756 77.7897C78.9756 78.2087 78.8155 78.5648 78.4953 78.8581C78.1781 79.1514 77.7157 79.3743 77.1082 79.5269C76.5037 79.6796 75.7735 79.7574 74.9176 79.7604ZM74.9176 76.7348C74.3191 76.7348 73.8088 76.7767 73.3869 76.8605C72.9679 76.9443 72.6492 77.0655 72.4307 77.2241C72.2153 77.3797 72.109 77.5683 72.112 77.7897C72.109 78.1369 72.3469 78.4002 72.8258 78.5798C73.3076 78.7593 74.0048 78.8506 74.9176 78.8536C75.8363 78.8506 76.5366 78.7593 77.0184 78.5798C77.5002 78.4002 77.7412 78.1369 77.7412 77.7897C77.7412 77.4545 77.4973 77.1957 77.0095 77.0131C76.5246 76.8306 75.8274 76.7378 74.9176 76.7348ZM80.1113 80.3753V81.3405H77.3192V82.355H78.7961V85.0169H72.1793V86.0359H79.1237V86.9696H70.9987V84.1506H77.611V83.2573H70.9763V82.355H72.4891V81.3405H69.7418V80.3753H80.1113ZM73.6831 82.355H76.1162V81.3405H73.6831V82.355ZM88.7975 75.7023H90.0095V87.0998H88.7975V75.7023ZM83.918 76.5552C84.4836 76.5552 84.9879 76.7198 85.4308 77.049C85.8767 77.3782 86.2253 77.8451 86.4767 78.4496C86.7281 79.0511 86.8538 79.7499 86.8538 80.5459C86.8538 81.348 86.7281 82.0512 86.4767 82.6557C86.2253 83.2602 85.8767 83.7271 85.4308 84.0563C84.9879 84.3825 84.4836 84.5456 83.918 84.5456C83.3494 84.5456 82.8421 84.3825 82.3962 84.0563C81.9503 83.7271 81.6017 83.2602 81.3503 82.6557C81.1019 82.0512 80.9777 81.348 80.9777 80.5459C80.9777 79.7469 81.1019 79.0466 81.3503 78.4451C81.6017 77.8406 81.9503 77.3752 82.3962 77.049C82.8421 76.7198 83.3494 76.5552 83.918 76.5552ZM83.918 77.6326C83.5679 77.6356 83.2581 77.7568 82.9888 77.9962C82.7224 78.2326 82.5145 78.5708 82.3648 79.0107C82.2152 79.4476 82.1404 79.9594 82.1404 80.5459C82.1404 81.1385 82.2152 81.6547 82.3648 82.0946C82.5145 82.5345 82.7224 82.8727 82.9888 83.1091C83.2581 83.3455 83.5679 83.4637 83.918 83.4637C84.2681 83.4637 84.5764 83.3455 84.8427 83.1091C85.1091 82.8727 85.3156 82.5345 85.4622 82.0946C85.6118 81.6547 85.6866 81.1385 85.6866 80.5459C85.6866 79.9564 85.6118 79.4431 85.4622 79.0062C85.3156 78.5663 85.1091 78.2281 84.8427 77.9917C84.5764 77.7553 84.2681 77.6356 83.918 77.6326ZM130.693 79.7693V75.7023H131.896V87.0998H130.693V80.7659H127.532V79.7693H130.693ZM124.175 83.3021C125.195 83.2962 126.057 83.2692 126.76 83.2213C127.464 83.1705 128.173 83.0777 128.888 82.943L129.023 83.9306C128.242 84.0772 127.47 84.1775 126.706 84.2314C125.946 84.2822 124.995 84.3077 123.851 84.3077H122.958V76.7617H128.17V77.7583H124.175V83.3021ZM141.812 79.4865V80.7838H146.4V81.7535H136.031V80.7838H140.614V79.4865H137.413V75.9448H138.607V78.5169H145.26V79.4865H141.812ZM145.264 83.7286H143.577V85.9551H145.372V86.9337H137.072V85.9551H138.859V83.7286H137.171V82.7814H145.264V83.7286ZM142.387 83.7286H140.048V85.9551H142.387V83.7286ZM152.052 76.3847C152.845 76.3847 153.56 76.5178 154.198 76.7842C154.838 77.0505 155.341 77.4246 155.706 77.9064C156.074 78.3852 156.258 78.9374 156.258 79.5628C156.258 80.1913 156.074 80.7464 155.706 81.2282C155.341 81.7101 154.838 82.0826 154.198 82.346C153.56 82.6093 152.845 82.7395 152.052 82.7365C151.262 82.7395 150.548 82.6093 149.911 82.346C149.273 82.0826 148.772 81.7101 148.407 81.2282C148.042 80.7464 147.859 80.1913 147.859 79.5628C147.859 78.9374 148.042 78.3852 148.407 77.9064C148.772 77.4246 149.273 77.0505 149.911 76.7842C150.548 76.5178 151.262 76.3847 152.052 76.3847ZM152.052 77.3677C151.474 77.3648 150.955 77.456 150.494 77.6416C150.033 77.8241 149.671 78.083 149.408 78.4182C149.147 78.7503 149.017 79.1319 149.017 79.5628C149.017 79.9968 149.147 80.3798 149.408 80.712C149.668 81.0412 150.029 81.2971 150.49 81.4796C150.953 81.6592 151.474 81.749 152.052 81.749C152.629 81.749 153.149 81.6592 153.609 81.4796C154.07 81.2971 154.431 81.0412 154.691 80.712C154.952 80.3798 155.082 79.9968 155.082 79.5628C155.082 79.1319 154.95 78.7503 154.687 78.4182C154.426 78.083 154.066 77.8241 153.605 77.6416C153.147 77.456 152.629 77.3648 152.052 77.3677ZM146.876 84.6084H157.286V85.605H146.876V84.6084ZM166.012 78.3823V75.7023H167.207V87.0998H166.012V82.4762H163.44V84.2358H158.166V76.7932H163.44V78.3823H166.012ZM159.36 83.2752H162.264V77.7403H159.36V83.2752ZM163.44 79.3653V81.5021H166.012V79.3653H163.44ZM44.7914 102.291V103.274H40.1768V108.095H38.9693V103.274H34.422V102.291H41.932C42.0367 101.788 42.113 101.314 42.1609 100.868C42.2118 100.422 42.2432 100.024 42.2552 99.674C42.2672 99.3209 42.2731 98.9034 42.2731 98.4216V98.3992H35.6834V97.4206H43.4717V98.4216C43.4687 98.9184 43.4612 99.3404 43.4492 99.6875C43.4403 100.032 43.4133 100.427 43.3684 100.873C43.3236 101.315 43.2532 101.788 43.1575 102.291H44.7914ZM54.748 103.418H53.5449V100.011H51.1478V99.0186H53.5449V96.7023H54.748V103.418ZM48.7328 100.455C48.4844 101.113 48.1148 101.687 47.624 102.174C47.1362 102.659 46.5512 103.024 45.8688 103.27L45.2224 102.3C45.818 102.097 46.3312 101.803 46.7621 101.42C47.1961 101.034 47.5268 100.587 47.7542 100.078C47.9846 99.5693 48.1013 99.0306 48.1043 98.462V97.3353H49.3074V98.4126C49.3044 98.9393 49.4121 99.4406 49.6306 99.9164C49.852 100.392 50.1692 100.81 50.5822 101.169C50.9982 101.525 51.489 101.796 52.0546 101.981L51.3992 102.924C50.7768 102.7 50.2381 102.376 49.7832 101.954C49.3313 101.529 48.9812 101.03 48.7328 100.455ZM50.9369 103.732C51.7299 103.732 52.4137 103.819 52.9883 103.992C53.5659 104.163 54.0088 104.411 54.317 104.738C54.6283 105.064 54.7839 105.454 54.7839 105.909C54.7839 106.361 54.6283 106.749 54.317 107.072C54.0088 107.395 53.5659 107.64 52.9883 107.808C52.4137 107.976 51.7299 108.059 50.9369 108.059C50.1408 108.059 49.454 107.976 48.8764 107.808C48.2989 107.64 47.8559 107.395 47.5477 107.072C47.2425 106.749 47.0913 106.361 47.0943 105.909C47.0913 105.454 47.2439 105.064 47.5522 104.738C47.8604 104.411 48.3033 104.163 48.8809 103.992C49.4585 103.819 50.1438 103.732 50.9369 103.732ZM50.9369 107.108C51.4875 107.108 51.9618 107.061 52.3599 106.969C52.7579 106.873 53.0616 106.735 53.2711 106.556C53.4836 106.376 53.5898 106.161 53.5898 105.909C53.5898 105.649 53.4836 105.427 53.2711 105.245C53.0616 105.059 52.7579 104.919 52.3599 104.823C51.9648 104.727 51.4905 104.679 50.9369 104.679C50.3832 104.679 49.9074 104.727 49.5094 104.823C49.1114 104.919 48.8076 105.059 48.5981 105.245C48.3886 105.427 48.2854 105.649 48.2884 105.909C48.2854 106.161 48.3886 106.376 48.5981 106.556C48.8076 106.735 49.1114 106.873 49.5094 106.969C49.9074 107.061 50.3832 107.108 50.9369 107.108ZM62.074 104.248V103.395H64.3634V96.7113H65.5754V105.339H64.3634V104.248H62.074ZM59.7801 101.133C59.2205 101.133 58.7252 101.052 58.2943 100.891C57.8663 100.729 57.5342 100.499 57.2977 100.199C57.0613 99.9 56.9431 99.5498 56.9431 99.1488C56.9431 98.7538 57.0613 98.4052 57.2977 98.1029C57.5372 97.8006 57.8708 97.5657 58.2988 97.3981C58.7297 97.2305 59.2235 97.1468 59.7801 97.1468C60.3278 97.1468 60.8141 97.2305 61.239 97.3981C61.667 97.5657 62.0007 97.8006 62.2401 98.1029C62.4795 98.4052 62.6007 98.7538 62.6037 99.1488C62.6007 99.5468 62.4795 99.897 62.2401 100.199C62.0037 100.499 61.6715 100.729 61.2435 100.891C60.8186 101.052 60.3308 101.133 59.7801 101.133ZM59.7801 98.0445C59.445 98.0445 59.1487 98.0894 58.8913 98.1792C58.637 98.269 58.4394 98.3977 58.2988 98.5653C58.1581 98.7328 58.0878 98.9274 58.0878 99.1488C58.0878 99.3703 58.1581 99.5648 58.2988 99.7324C58.4394 99.897 58.637 100.024 58.8913 100.114C59.1487 100.204 59.445 100.249 59.7801 100.249C60.1033 100.249 60.3906 100.204 60.642 100.114C60.8934 100.024 61.0909 99.897 61.2346 99.7324C61.3782 99.5648 61.4515 99.3703 61.4545 99.1488C61.4515 98.9274 61.3782 98.7328 61.2346 98.5653C61.0909 98.3977 60.8919 98.269 60.6375 98.1792C60.3861 98.0894 60.1003 98.0445 59.7801 98.0445ZM59.2953 104.984V102.83C58.5143 102.86 57.6284 102.875 56.6379 102.875H56.2069L56.0543 101.905C57.5566 101.896 58.8928 101.871 60.0629 101.829C61.2361 101.787 62.3553 101.699 63.4207 101.564L63.5015 102.435C62.5917 102.584 61.5907 102.694 60.4984 102.762V104.984H59.2953ZM58.833 104.495V106.856H65.8447V107.844H57.6299V104.495H58.833ZM79.2225 103.701H78.0195V101.725H76.2733V100.747H78.0195V99.6516H76.2733V98.682H78.0195V96.7023H79.2225V103.701ZM76.4708 102.718C75.4952 102.873 74.4537 102.976 73.3465 103.027C72.2422 103.078 71.093 103.104 69.899 103.104L69.7553 102.103C69.9738 102.103 70.1967 102.103 70.4242 102.103C70.6546 102.1 70.891 102.097 71.1334 102.094V98.5069H70.065V97.5238H76.1072V98.5069H75.0253V101.945C75.5221 101.907 75.986 101.862 76.4169 101.811L76.4708 102.718ZM72.305 98.5069V102.071C72.6462 102.065 73.1669 102.047 73.8672 102.017V98.5069H72.305ZM75.4114 103.916C76.2104 103.916 76.8972 103.998 77.4718 104.163C78.0494 104.325 78.4908 104.561 78.7961 104.872C79.1043 105.183 79.2584 105.558 79.2584 105.994C79.2584 106.425 79.1043 106.795 78.7961 107.103C78.4878 107.414 78.0449 107.651 77.4673 107.812C76.8927 107.977 76.2074 108.059 75.4114 108.059C74.6153 108.059 73.9285 107.977 73.351 107.812C72.7734 107.651 72.3305 107.414 72.0222 107.103C71.717 106.795 71.5659 106.425 71.5688 105.994C71.5659 105.558 71.717 105.183 72.0222 104.872C72.3275 104.561 72.7689 104.325 73.3465 104.163C73.924 103.998 74.6124 103.916 75.4114 103.916ZM75.4114 107.121C75.968 107.121 76.4438 107.078 76.8389 106.991C77.2369 106.904 77.5406 106.777 77.7501 106.609C77.9596 106.439 78.0644 106.234 78.0644 105.994C78.0644 105.752 77.9581 105.546 77.7456 105.375C77.5362 105.204 77.2324 105.074 76.8344 104.984C76.4394 104.895 75.965 104.85 75.4114 104.85C74.8548 104.85 74.3774 104.895 73.9794 104.984C73.5814 105.074 73.2776 105.204 73.0682 105.375C72.8617 105.546 72.7599 105.752 72.7629 105.994C72.7599 106.234 72.8617 106.439 73.0682 106.609C73.2776 106.777 73.5799 106.904 73.9749 106.991C74.3729 107.078 74.8518 107.121 75.4114 107.121ZM90.9971 101.537V102.52H88.187V105.182H87.0154V102.52H85.2153V105.182H84.0392V102.52H80.5872V101.537H88.2139C88.3306 100.932 88.404 100.386 88.4339 99.8985C88.4638 99.4107 88.4788 98.8645 88.4788 98.26H81.8755V97.2994H89.6773V98.1972C89.6773 98.8256 89.6624 99.3882 89.6324 99.885C89.6055 100.379 89.5352 100.929 89.4214 101.537H90.9971ZM81.8082 104.235H83.0112V106.856H89.9781V107.844H81.8082V104.235ZM99.6615 102.143C99.3921 102.466 99.057 102.718 98.6559 102.897C98.2579 103.077 97.8255 103.166 97.3586 103.166C96.793 103.166 96.2828 103.044 95.8279 102.798C95.376 102.553 95.0214 102.212 94.764 101.775C94.5067 101.338 94.3795 100.844 94.3825 100.294C94.3795 99.7429 94.5067 99.2491 94.764 98.8122C95.0214 98.3722 95.376 98.0296 95.8279 97.7842C96.2828 97.5358 96.793 97.4101 97.3586 97.4071C97.8225 97.4101 98.2534 97.5014 98.6515 97.6809C99.0495 97.8605 99.3847 98.1104 99.657 98.4306H102.494V96.7113H103.697V105.088H102.494V102.143H99.6615ZM95.5271 100.294C95.5271 100.647 95.605 100.961 95.7606 101.236C95.9162 101.512 96.1332 101.725 96.4115 101.878C96.6898 102.028 97.0055 102.103 97.3586 102.103C97.6998 102.103 98.008 102.026 98.2834 101.874C98.5587 101.721 98.7742 101.509 98.9298 101.236C99.0884 100.961 99.1677 100.647 99.1677 100.294C99.1677 99.9434 99.0884 99.6321 98.9298 99.3598C98.7742 99.0845 98.5587 98.8705 98.2834 98.7179C98.008 98.5623 97.6998 98.483 97.3586 98.48C97.0055 98.483 96.6898 98.5608 96.4115 98.7134C96.1332 98.866 95.9162 99.08 95.7606 99.3553C95.605 99.6276 95.5271 99.9404 95.5271 100.294ZM102.494 99.4137H100.191C100.278 99.707 100.321 100 100.321 100.294C100.321 100.59 100.279 100.877 100.196 101.155H102.494V99.4137ZM97.5158 104.226V106.856H103.998V107.844H96.3127V104.226H97.5158ZM114.542 103.705H113.335V101.717H111.216V100.733H113.335V99.3912H111.216V98.4081H113.335V96.7113H114.542V103.705ZM111.176 102.875C110.535 102.988 109.89 103.065 109.241 103.104C108.595 103.14 107.727 103.157 106.637 103.157H106.355H105.533V99.6965H109.281V98.3139H105.511V97.3353H110.475V100.63H106.727V102.174C107.766 102.171 108.593 102.152 109.21 102.116C109.829 102.077 110.445 102.002 111.059 101.892L111.176 102.875ZM110.745 103.898C111.538 103.898 112.223 103.982 112.801 104.15C113.378 104.317 113.821 104.561 114.129 104.881C114.438 105.201 114.592 105.583 114.592 106.026C114.592 106.469 114.438 106.847 114.129 107.162C113.821 107.479 113.378 107.72 112.801 107.884C112.226 108.049 111.541 108.131 110.745 108.131C109.946 108.131 109.256 108.049 108.675 107.884C108.098 107.72 107.655 107.479 107.347 107.162C107.038 106.847 106.886 106.469 106.889 106.026C106.886 105.583 107.038 105.201 107.347 104.881C107.655 104.561 108.099 104.317 108.68 104.15C109.26 103.982 109.949 103.898 110.745 103.898ZM110.745 107.193C111.298 107.193 111.774 107.148 112.172 107.058C112.57 106.969 112.874 106.837 113.083 106.663C113.296 106.49 113.402 106.277 113.402 106.026C113.402 105.772 113.296 105.556 113.083 105.379C112.874 105.2 112.57 105.065 112.172 104.975C111.774 104.883 111.298 104.836 110.745 104.836C110.185 104.836 109.708 104.883 109.313 104.975C108.918 105.065 108.617 105.2 108.41 105.379C108.204 105.556 108.102 105.772 108.105 106.026C108.102 106.403 108.33 106.692 108.788 106.892C109.248 107.093 109.901 107.193 110.745 107.193ZM142.771 108.077V96.7023H143.93V108.077H142.771ZM138.66 100.702H140.433V96.9223H141.568V107.516H140.433V101.703H138.66V100.702ZM137.614 99.8087C137.614 100.431 137.699 101.045 137.87 101.649C138.043 102.251 138.302 102.801 138.646 103.301C138.99 103.798 139.408 104.196 139.899 104.495L139.221 105.429C138.706 105.118 138.266 104.694 137.901 104.158C137.536 103.623 137.252 103.014 137.048 102.331C136.833 103.074 136.529 103.735 136.137 104.316C135.748 104.893 135.284 105.347 134.745 105.676L133.991 104.778C134.512 104.467 134.956 104.051 135.324 103.53C135.695 103.009 135.975 102.433 136.164 101.802C136.352 101.167 136.447 100.521 136.447 99.8626V97.7393H137.614V99.8087Z" fill="#404040"/>
<path d="M94.562 86L94.5575 84.8015L97.803 81.6727C98.1562 81.3195 98.4285 81.0292 98.62 80.8018C98.8146 80.5744 98.9627 80.3514 99.0644 80.1329C99.1692 79.9115 99.2216 79.6766 99.2216 79.4282C99.2216 79.1469 99.1527 78.9 99.0151 78.6875C98.8774 78.475 98.6874 78.3119 98.445 78.1982C98.2056 78.0845 97.9362 78.0276 97.637 78.0276C97.3257 78.0276 97.0519 78.0905 96.8155 78.2162C96.5821 78.3389 96.4025 78.5154 96.2768 78.7459C96.1511 78.9763 96.0883 79.2456 96.0883 79.5539H94.5171C94.5141 78.9823 94.6458 78.4795 94.9122 78.0456C95.1785 77.6116 95.5496 77.2765 96.0254 77.0401C96.5042 76.8006 97.0489 76.6809 97.6594 76.6809C98.2729 76.6809 98.8176 76.7962 99.2934 77.0266C99.7692 77.254 100.139 77.5698 100.402 77.9738C100.668 78.3778 100.802 78.8341 100.802 79.3429C100.799 79.702 100.73 80.0462 100.595 80.3753C100.461 80.7015 100.227 81.0666 99.8949 81.4706C99.5657 81.8717 99.0974 82.358 98.4899 82.9296L96.8604 84.5501V84.6174H100.941V86H94.562ZM105.336 86.1257C104.662 86.1257 104.059 86.015 103.527 85.7935C102.997 85.5691 102.584 85.2608 102.288 84.8688C101.992 84.4738 101.845 84.0294 101.848 83.5356C101.845 83.1555 101.93 82.8009 102.104 82.4717C102.277 82.1425 102.514 81.8702 102.813 81.6547C103.115 81.4392 103.449 81.3031 103.814 81.2462V81.1878C103.497 81.122 103.216 80.9918 102.97 80.7973C102.725 80.5998 102.533 80.3589 102.396 80.0746C102.261 79.7873 102.194 79.4776 102.194 79.1454C102.194 78.6785 102.328 78.2581 102.598 77.884C102.87 77.5069 103.245 77.2121 103.724 76.9997C104.203 76.7872 104.74 76.6809 105.336 76.6809C105.931 76.6809 106.467 76.7872 106.943 76.9997C107.422 77.2121 107.797 77.5069 108.07 77.884C108.342 78.2581 108.478 78.6785 108.478 79.1454C108.478 79.4776 108.408 79.7873 108.267 80.0746C108.129 80.3589 107.936 80.5998 107.688 80.7973C107.443 80.9918 107.164 81.122 106.853 81.1878V81.2462C107.215 81.3031 107.546 81.4392 107.845 81.6547C108.147 81.8702 108.387 82.1425 108.563 82.4717C108.74 82.8009 108.828 83.1555 108.828 83.5356C108.828 84.0294 108.679 84.4738 108.379 84.8688C108.08 85.2608 107.664 85.5691 107.131 85.7935C106.602 86.015 106.003 86.1257 105.336 86.1257ZM105.336 80.6537C105.629 80.6537 105.891 80.5968 106.121 80.4831C106.352 80.3694 106.533 80.2108 106.665 80.0073C106.796 79.8008 106.862 79.5658 106.862 79.3025C106.862 79.0421 106.798 78.8117 106.669 78.6112C106.54 78.4107 106.359 78.2551 106.126 78.1443C105.895 78.0306 105.632 77.9738 105.336 77.9738C105.034 77.9738 104.767 78.0306 104.537 78.1443C104.306 78.2551 104.127 78.4107 103.998 78.6112C103.872 78.8117 103.81 79.0421 103.81 79.3025C103.81 79.5658 103.874 79.8008 104.003 80.0073C104.134 80.2108 104.315 80.3694 104.546 80.4831C104.779 80.5968 105.043 80.6537 105.336 80.6537ZM105.336 84.8508C105.692 84.8508 106.005 84.791 106.274 84.6713C106.546 84.5486 106.756 84.3795 106.902 84.164C107.049 83.9456 107.122 83.6972 107.122 83.4189C107.122 83.1316 107.045 82.8727 106.889 82.6423C106.736 82.4118 106.524 82.2323 106.252 82.1036C105.979 81.9719 105.674 81.9061 105.336 81.9061C104.995 81.9061 104.688 81.9719 104.416 82.1036C104.143 82.2323 103.931 82.4118 103.778 82.6423C103.626 82.8727 103.551 83.1316 103.554 83.4189C103.551 83.6972 103.621 83.9456 103.765 84.164C103.911 84.3795 104.119 84.5486 104.389 84.6713C104.661 84.791 104.977 84.8508 105.336 84.8508ZM110.045 78.5304C110.045 78.1683 110.121 77.8376 110.274 77.5383C110.43 77.2361 110.654 76.9967 110.947 76.8201C111.244 76.6435 111.591 76.5552 111.989 76.5552C112.399 76.5552 112.749 76.6435 113.039 76.8201C113.333 76.9967 113.554 77.2346 113.704 77.5338C113.853 77.8331 113.928 78.1653 113.928 78.5304V79.0152C113.928 79.3773 113.852 79.708 113.699 80.0073C113.55 80.3065 113.328 80.5444 113.035 80.721C112.742 80.8976 112.393 80.9858 111.989 80.9858C111.582 80.9858 111.232 80.8976 110.938 80.721C110.645 80.5444 110.422 80.3065 110.27 80.0073C110.12 79.708 110.045 79.3773 110.045 79.0152V78.5304ZM111.675 86H110.557L116.877 76.8066H117.995L111.675 86ZM111.226 79.0152C111.226 79.2845 111.287 79.5105 111.41 79.693C111.532 79.8756 111.726 79.9669 111.989 79.9669C112.255 79.9669 112.448 79.8771 112.568 79.6975C112.691 79.515 112.752 79.2875 112.752 79.0152V78.5304C112.752 78.2551 112.694 78.0276 112.577 77.8481C112.46 77.6655 112.264 77.5742 111.989 77.5742C111.728 77.5742 111.535 77.667 111.41 77.8526C111.287 78.0381 111.226 78.264 111.226 78.5304V79.0152ZM114.718 83.7914C114.718 83.4293 114.794 83.0986 114.947 82.7994C115.1 82.4971 115.323 82.2577 115.616 82.0811C115.909 81.9046 116.258 81.8163 116.662 81.8163C117.069 81.8163 117.419 81.9046 117.712 82.0811C118.006 82.2577 118.227 82.4956 118.377 82.7949C118.526 83.0942 118.601 83.4263 118.601 83.7914V84.2762C118.601 84.6384 118.525 84.9705 118.372 85.2728C118.22 85.5721 117.997 85.81 117.703 85.9865C117.41 86.1631 117.063 86.2514 116.662 86.2514C116.255 86.2514 115.905 86.1631 115.611 85.9865C115.318 85.81 115.095 85.5721 114.943 85.2728C114.793 84.9705 114.718 84.6384 114.718 84.2762V83.7914ZM115.89 84.2762C115.89 84.5456 115.951 84.7715 116.074 84.9541C116.196 85.1366 116.393 85.2279 116.662 85.2279C116.928 85.2279 117.121 85.1366 117.241 84.9541C117.364 84.7715 117.425 84.5456 117.425 84.2762V83.7914C117.425 83.5161 117.365 83.2887 117.245 83.1091C117.129 82.9266 116.934 82.8353 116.662 82.8353C116.398 82.8353 116.204 82.9281 116.078 83.1136C115.953 83.2962 115.89 83.5221 115.89 83.7914V84.2762ZM122.372 107.126C121.725 107.126 121.146 107.015 120.635 106.794C120.123 106.572 119.72 106.264 119.427 105.869C119.134 105.471 118.98 105.016 118.965 104.504H120.635C120.647 104.747 120.729 104.962 120.882 105.151C121.037 105.336 121.244 105.48 121.501 105.581C121.761 105.683 122.05 105.734 122.367 105.734C122.703 105.734 123.002 105.677 123.265 105.564C123.531 105.447 123.738 105.285 123.885 105.079C124.034 104.869 124.109 104.631 124.109 104.365C124.112 104.087 124.037 103.841 123.885 103.629C123.732 103.413 123.511 103.246 123.22 103.126C122.933 103.003 122.593 102.942 122.201 102.942H121.384V101.667H122.201C122.524 101.667 122.812 101.612 123.063 101.501C123.315 101.387 123.511 101.229 123.651 101.025C123.792 100.819 123.862 100.584 123.862 100.32C123.862 100.066 123.801 99.8416 123.678 99.6471C123.558 99.4496 123.386 99.297 123.162 99.1892C122.94 99.0815 122.683 99.0276 122.39 99.0276C122.1 99.0276 121.83 99.08 121.582 99.1847C121.333 99.2865 121.133 99.4331 120.98 99.6247C120.831 99.8132 120.751 100.032 120.742 100.28H119.158C119.17 99.7773 119.319 99.3284 119.607 98.9334C119.894 98.5383 120.281 98.2316 120.769 98.0131C121.257 97.7917 121.8 97.6809 122.399 97.6809C123.003 97.6809 123.537 97.7947 124.001 98.0221C124.468 98.2465 124.827 98.5533 125.079 98.9423C125.333 99.3284 125.459 99.7563 125.456 100.226C125.459 100.567 125.39 100.876 125.249 101.151C125.112 101.426 124.916 101.655 124.661 101.838C124.407 102.017 124.111 102.143 123.772 102.215V102.287C124.2 102.343 124.567 102.469 124.872 102.664C125.177 102.858 125.409 103.108 125.568 103.413C125.727 103.719 125.804 104.064 125.801 104.45C125.804 104.959 125.658 105.417 125.361 105.824C125.068 106.231 124.66 106.55 124.136 106.78C123.615 107.01 123.027 107.126 122.372 107.126ZM130.115 107.126C129.513 107.126 128.969 107.013 128.481 106.789C127.996 106.565 127.612 106.253 127.327 105.855C127.043 105.457 126.893 105.007 126.878 104.504H128.485C128.503 104.75 128.587 104.971 128.737 105.169C128.886 105.363 129.081 105.516 129.32 105.626C129.563 105.734 129.828 105.788 130.115 105.788C130.453 105.788 130.757 105.713 131.026 105.564C131.296 105.411 131.505 105.201 131.655 104.935C131.807 104.666 131.884 104.362 131.884 104.024C131.884 103.677 131.804 103.367 131.646 103.095C131.49 102.819 131.272 102.605 130.99 102.453C130.712 102.3 130.398 102.224 130.048 102.224C129.323 102.224 128.821 102.486 128.539 103.009H127.013L127.561 97.8066H132.992V99.1892H128.925L128.647 101.631H128.728C128.913 101.425 129.165 101.257 129.482 101.128C129.799 101 130.143 100.935 130.514 100.935C131.077 100.935 131.584 101.067 132.036 101.33C132.488 101.591 132.843 101.953 133.1 102.417C133.357 102.878 133.486 103.398 133.486 103.979C133.486 104.583 133.342 105.125 133.055 105.604C132.771 106.083 132.373 106.457 131.861 106.726C131.352 106.993 130.77 107.126 130.115 107.126Z" fill="#00AEAE"/>
<path d="M64.6395 152.844H66.1685V153.772H64.6395V156.428H63.5249V150.503H64.6395V152.844ZM62.6423 155.247C61.8108 155.413 60.9945 155.53 60.1934 155.599C59.3923 155.669 58.5691 155.704 57.7238 155.707H56.866V151.021H57.9848V154.783C59.529 154.769 61.0359 154.617 62.5055 154.327L62.6423 155.247ZM64.6395 160.854H57.9144V156.975H64.6395V160.854ZM63.5539 157.845H59V159.963H63.5539V157.845ZM74.5802 154.659H76.2625V155.599H74.5802V160.994H73.4655V150.494H74.5802V154.659ZM70.0594 153.594C70.0567 154.144 70.1686 154.7 70.3951 155.264C70.6216 155.825 70.9379 156.336 71.344 156.797C71.7528 157.256 72.2169 157.606 72.7362 157.849L72.1064 158.728C71.5263 158.449 71.0097 158.033 70.5567 157.481C70.1064 156.928 69.7597 156.302 69.5166 155.604C69.3564 156.104 69.1437 156.575 68.8785 157.017C68.6133 157.459 68.3081 157.849 67.9628 158.189C67.6202 158.526 67.2528 158.793 66.8605 158.989L66.2017 158.11C66.721 157.862 67.1893 157.494 67.6064 157.008C68.0263 156.522 68.355 155.978 68.5926 155.376C68.8329 154.773 68.9545 154.18 68.9572 153.594V152.471H66.5912V151.551H72.3384V152.471H70.0594V153.594Z" fill="black"/>
<path d="M125.043 150.494H126.145V161.015H125.043V156.988H122.519C122.296 157.518 121.985 157.93 121.587 158.222C121.192 158.512 120.742 158.657 120.236 158.657C119.714 158.657 119.251 158.507 118.848 158.206C118.445 157.902 118.13 157.472 117.903 156.917C117.68 156.359 117.569 155.709 117.572 154.965C117.569 154.228 117.68 153.581 117.903 153.026C118.13 152.468 118.445 152.039 118.848 151.738C119.251 151.434 119.714 151.282 120.236 151.282C120.714 151.285 121.142 151.416 121.521 151.675C121.902 151.932 122.209 152.3 122.441 152.778H125.043V150.494ZM120.236 157.659C120.551 157.659 120.829 157.55 121.069 157.331C121.312 157.113 121.5 156.801 121.633 156.395C121.768 155.989 121.836 155.512 121.836 154.965C121.836 154.424 121.768 153.952 121.633 153.548C121.5 153.142 121.312 152.83 121.069 152.612C120.829 152.391 120.551 152.279 120.236 152.276C119.919 152.279 119.638 152.39 119.395 152.608C119.155 152.826 118.967 153.138 118.831 153.544C118.699 153.948 118.633 154.421 118.633 154.965C118.633 155.512 118.699 155.989 118.831 156.395C118.967 156.801 119.155 157.113 119.395 157.331C119.638 157.55 119.919 157.659 120.236 157.659ZM125.043 156.08V153.693H122.756C122.844 154.086 122.888 154.51 122.888 154.965C122.888 155.341 122.855 155.713 122.789 156.08H125.043ZM135.58 154.659H137.262V155.599H135.58V160.994H134.466V150.494H135.58V154.659ZM131.059 153.594C131.057 154.144 131.169 154.7 131.395 155.264C131.622 155.825 131.938 156.336 132.344 156.797C132.753 157.256 133.217 157.606 133.736 157.849L133.106 158.728C132.526 158.449 132.01 158.033 131.557 157.481C131.106 156.928 130.76 156.302 130.517 155.604C130.356 156.104 130.144 156.575 129.878 157.017C129.613 157.459 129.308 157.849 128.963 158.189C128.62 158.526 128.253 158.793 127.861 158.989L127.202 158.11C127.721 157.862 128.189 157.494 128.606 157.008C129.026 156.522 129.355 155.978 129.593 155.376C129.833 154.773 129.954 154.18 129.957 153.594V152.471H127.591V151.551H133.338V152.471H131.059V153.594Z" fill="black"/>
<rect x="34" y="152" width="14" height="8" fill="#61CDBB"/>
<rect x="95" y="152" width="14" height="8" fill="#FFC38F"/>
<path d="M377 100C377 134.794 348.794 163 314 163C279.206 163 251 134.794 251 100C251 65.2061 279.206 37 314 37C348.794 37 377 65.2061 377 100ZM271.364 100C271.364 123.547 290.453 142.636 314 142.636C337.547 142.636 356.636 123.547 356.636 100C356.636 76.453 337.547 57.3643 314 57.3643C290.453 57.3643 271.364 76.453 271.364 100Z" fill="#FFC38F"/>
<path d="M314 37C300.324 37 287.02 41.4501 276.096 49.6782C265.172 57.9063 257.223 69.4656 253.448 82.6101C249.673 95.7547 250.277 109.771 255.171 122.541C260.064 135.312 268.98 146.143 280.572 153.4C292.163 160.656 305.802 163.944 319.427 162.766C333.052 161.588 345.924 156.008 356.098 146.87C366.272 137.731 373.197 125.53 375.825 112.109C378.454 98.6884 376.644 84.7766 370.669 72.4751L352.351 81.3723C356.395 89.6975 357.62 99.1124 355.841 108.195C354.062 117.278 349.376 125.535 342.49 131.719C335.604 137.904 326.893 141.68 317.673 142.477C308.452 143.274 299.222 141.05 291.377 136.139C283.532 131.228 277.498 123.897 274.187 115.255C270.875 106.612 270.466 97.127 273.021 88.2313C275.575 79.3356 280.955 71.5128 288.348 65.9444C295.741 60.376 304.745 57.3643 314 57.3643L314 37Z" fill="#61CDBB"/>
</svg>
