<svg width="440" height="500" viewBox="0 0 440 500" fill="none" xmlns="http://www.w3.org/2000/svg">
<g clip-path="url(#clip0_279_651)">
<g clip-path="url(#clip1_279_651)">
<rect x="60" y="60" width="482.979" height="681" rx="22" fill="white"/>
<rect x="100" y="100" width="432" height="345" rx="13" fill="#F7F9FC"/>
<g clip-path="url(#clip2_279_651)">
<path d="M151.5 172C163.926 172 174 161.926 174 149.5C174 137.074 163.926 127 151.5 127C139.074 127 129 137.074 129 149.5C129 161.926 139.074 172 151.5 172Z" fill="#D0DEF7"/>
<path d="M158.86 138.938H143.772C141.951 138.938 140.475 140.414 140.475 142.235V157.322C140.475 159.143 141.951 160.619 143.772 160.619H158.86C160.681 160.619 162.157 159.143 162.157 157.322V142.235C162.157 140.414 160.681 138.938 158.86 138.938Z" fill="white"/>
<path d="M144.711 139.993V137.88C144.711 137.217 145.249 136.681 145.91 136.681C146.57 136.681 147.108 137.219 147.108 137.88V139.993C147.108 140.655 146.57 141.191 145.91 141.191C145.249 141.191 144.711 140.653 144.711 139.993Z" fill="#6270F4"/>
<path d="M150.117 139.993V137.88C150.117 137.217 150.655 136.681 151.316 136.681C151.977 136.681 152.515 137.219 152.515 137.88V139.993C152.515 140.655 151.977 141.191 151.316 141.191C150.655 141.191 150.117 140.653 150.117 139.993Z" fill="#6270F4"/>
<path d="M155.523 139.993V137.88C155.523 137.217 156.061 136.681 156.722 136.681C157.383 136.681 157.921 137.219 157.921 137.88V139.993C157.921 140.655 157.383 141.191 156.722 141.191C156.061 141.191 155.523 140.653 155.523 139.993Z" fill="#6270F4"/>
<path d="M145.186 146.183H144.918C144.451 146.183 144.075 145.804 144.075 145.34C144.075 144.875 144.453 144.497 144.918 144.497H145.186C145.652 144.497 146.028 144.875 146.028 145.34C146.028 145.804 145.65 146.183 145.186 146.183Z" fill="#5767C6"/>
<path d="M148.305 146.183H148.035C147.569 146.183 147.192 145.804 147.192 145.34C147.192 144.875 147.571 144.497 148.035 144.497H148.305C148.771 144.497 149.148 144.875 149.148 145.34C149.148 145.804 148.769 146.183 148.305 146.183Z" fill="#5767C6"/>
<path d="M151.449 146.183H151.181C150.714 146.183 150.338 145.804 150.338 145.34C150.338 144.875 150.717 144.497 151.181 144.497H151.449C151.915 144.497 152.292 144.875 152.292 145.34C152.292 145.804 151.913 146.183 151.449 146.183Z" fill="#5767C6"/>
<path d="M154.566 146.183H154.296C153.83 146.183 153.453 145.804 153.453 145.34C153.453 144.875 153.832 144.497 154.296 144.497H154.566C155.032 144.497 155.409 144.875 155.409 145.34C155.409 145.804 155.03 146.183 154.566 146.183Z" fill="#D0DEF7"/>
<path d="M157.81 146.183H157.54C157.074 146.183 156.697 145.804 156.697 145.34C156.697 144.875 157.076 144.497 157.54 144.497H157.81C158.277 144.497 158.653 144.875 158.653 145.34C158.653 145.804 158.274 146.183 157.81 146.183Z" fill="#D0DEF7"/>
<path d="M145.186 149.257H144.918C144.451 149.257 144.075 148.878 144.075 148.414C144.075 147.95 144.453 147.571 144.918 147.571H145.186C145.652 147.571 146.028 147.95 146.028 148.414C146.028 148.878 145.65 149.257 145.186 149.257Z" fill="#D0DEF7"/>
<path d="M148.305 149.257H148.035C147.569 149.257 147.192 148.878 147.192 148.414C147.192 147.95 147.571 147.571 148.035 147.571H148.305C148.771 147.571 149.148 147.95 149.148 148.414C149.148 148.878 148.769 149.257 148.305 149.257Z" fill="#D0DEF7"/>
<path d="M151.449 149.257H151.181C150.714 149.257 150.338 148.878 150.338 148.414C150.338 147.95 150.717 147.571 151.181 147.571H151.449C151.915 147.571 152.292 147.95 152.292 148.414C152.292 148.878 151.913 149.257 151.449 149.257Z" fill="#D0DEF7"/>
<path d="M154.566 149.257H154.296C153.83 149.257 153.453 148.878 153.453 148.414C153.453 147.95 153.832 147.571 154.296 147.571H154.566C155.032 147.571 155.409 147.95 155.409 148.414C155.409 148.878 155.03 149.257 154.566 149.257Z" fill="#D0DEF7"/>
<path d="M157.81 149.257H157.54C157.074 149.257 156.697 148.878 156.697 148.414C156.697 147.95 157.076 147.571 157.54 147.571H157.81C158.277 147.571 158.653 147.95 158.653 148.414C158.653 148.878 158.274 149.257 157.81 149.257Z" fill="#D0DEF7"/>
<path d="M145.186 152.501H144.918C144.451 152.501 144.075 152.122 144.075 151.658C144.075 151.194 144.453 150.815 144.918 150.815H145.186C145.652 150.815 146.028 151.194 146.028 151.658C146.028 152.122 145.65 152.501 145.186 152.501Z" fill="#D0DEF7"/>
<path d="M148.305 152.501H148.035C147.569 152.501 147.192 152.122 147.192 151.658C147.192 151.194 147.571 150.815 148.035 150.815H148.305C148.771 150.815 149.148 151.194 149.148 151.658C149.148 152.122 148.769 152.501 148.305 152.501Z" fill="#D0DEF7"/>
<path d="M151.449 152.501H151.181C150.714 152.501 150.338 152.122 150.338 151.658C150.338 151.194 150.717 150.815 151.181 150.815H151.449C151.915 150.815 152.292 151.194 152.292 151.658C152.292 152.122 151.913 152.501 151.449 152.501Z" fill="#D0DEF7"/>
<path d="M154.566 152.501H154.296C153.83 152.501 153.453 152.122 153.453 151.658C153.453 151.194 153.832 150.815 154.296 150.815H154.566C155.032 150.815 155.409 151.194 155.409 151.658C155.409 152.122 155.03 152.501 154.566 152.501Z" fill="#D0DEF7"/>
<path d="M157.81 152.501H157.54C157.074 152.501 156.697 152.122 156.697 151.658C156.697 151.194 157.076 150.815 157.54 150.815H157.81C158.277 150.815 158.653 151.194 158.653 151.658C158.653 152.122 158.274 152.501 157.81 152.501Z" fill="#D0DEF7"/>
<path d="M145.186 155.8H144.918C144.451 155.8 144.075 155.422 144.075 154.957C144.075 154.493 144.453 154.115 144.918 154.115H145.186C145.652 154.115 146.028 154.493 146.028 154.957C146.028 155.422 145.65 155.8 145.186 155.8Z" fill="#D0DEF7"/>
<path d="M148.305 155.8H148.035C147.569 155.8 147.192 155.422 147.192 154.957C147.192 154.493 147.571 154.115 148.035 154.115H148.305C148.771 154.115 149.148 154.493 149.148 154.957C149.148 155.422 148.769 155.8 148.305 155.8Z" fill="#D0DEF7"/>
<path d="M151.449 155.8H151.181C150.714 155.8 150.338 155.422 150.338 154.957C150.338 154.493 150.717 154.115 151.181 154.115H151.449C151.915 154.115 152.292 154.493 152.292 154.957C152.292 155.422 151.913 155.8 151.449 155.8Z" fill="#D0DEF7"/>
<path d="M159.839 162.43C162.776 162.43 165.157 160.089 165.157 157.201C165.157 154.314 162.776 151.973 159.839 151.973C156.902 151.973 154.521 154.314 154.521 157.201C154.521 160.089 156.902 162.43 159.839 162.43Z" fill="#6270F4"/>
<path d="M159.246 159.785C159.019 159.777 158.806 159.67 158.655 159.501L157.129 157.782C156.894 157.519 156.835 157.126 157.017 156.823C157.319 156.316 157.984 156.283 158.342 156.684L159.228 157.68L161.228 155.046C161.443 154.763 161.815 154.63 162.149 154.749C162.705 154.949 162.865 155.594 162.539 156.021L159.933 159.449C159.786 159.644 159.561 159.769 159.318 159.783C159.293 159.783 159.269 159.783 159.244 159.783L159.246 159.785Z" fill="white"/>
</g>
<path d="M139.082 184.626V193.074H137.466V190.336H134.818C134.261 190.924 133.462 191.279 132.564 191.279C130.814 191.279 129.48 190.013 129.489 188.294C129.48 186.556 130.814 185.295 132.564 185.295C133.462 185.295 134.266 185.65 134.822 186.242H137.466V184.626H139.082ZM131.025 188.294C131.025 189.263 131.662 189.842 132.564 189.847C133.417 189.842 134.073 189.263 134.081 188.294C134.073 187.319 133.417 186.736 132.564 186.736C131.662 186.736 131.025 187.319 131.025 188.294ZM131.415 195.97V192.226H133.031V194.663H139.356V195.97H131.415ZM135.527 187.539C135.59 187.777 135.621 188.029 135.621 188.294C135.621 188.549 135.59 188.801 135.531 189.034H137.466V187.539H135.527ZM144.456 188.235C144.451 189.878 145.304 191.732 147.145 192.598L146.242 193.824C145.008 193.263 144.15 192.176 143.666 190.893C143.167 192.28 142.256 193.451 140.945 194.021L140.057 192.769C141.946 191.939 142.844 189.968 142.849 188.235V187.786H140.461V186.498H142.84V184.873H144.469V186.498H146.817V187.786H144.456V188.235ZM147.773 196.172V184.608H149.394V189.102H151.099V190.457H149.394V196.172H147.773ZM158.163 187.23C158.155 189.299 159.039 191.386 160.893 192.284L159.914 193.573C158.68 192.962 157.84 191.822 157.36 190.43C156.857 191.925 155.964 193.146 154.653 193.797L153.661 192.482C155.614 191.584 156.538 189.375 156.543 187.23V185.501H158.163V187.23ZM161.405 196.172V184.608H163.025V189.066H164.731V190.435H163.025V196.172H161.405ZM175.388 190.094V191.386H164.848V190.094H167.218V188.702C166.379 188.329 165.898 187.75 165.903 187.01C165.898 185.618 167.541 184.783 170.109 184.779C172.668 184.783 174.306 185.618 174.311 187.01C174.306 187.764 173.817 188.343 172.955 188.715V190.094H175.388ZM166.051 194.066C166.051 192.729 167.568 191.983 170.095 191.988C172.596 191.983 174.113 192.729 174.122 194.066C174.113 195.422 172.596 196.158 170.095 196.154C167.568 196.158 166.051 195.422 166.051 194.066ZM167.586 187.01C167.577 187.652 168.479 187.97 170.109 187.97C171.725 187.97 172.641 187.652 172.641 187.01C172.641 186.363 171.725 186.027 170.109 186.027C168.479 186.027 167.577 186.363 167.586 187.01ZM167.703 194.066C167.694 194.65 168.497 194.951 170.095 194.946C171.667 194.951 172.492 194.65 172.497 194.066C172.492 193.487 171.667 193.218 170.095 193.209C168.497 193.218 167.694 193.487 167.703 194.066ZM168.856 190.094H171.343V189.119C170.962 189.169 170.549 189.191 170.109 189.191C169.66 189.191 169.242 189.169 168.856 189.119V190.094ZM188.184 184.608V196.172H186.546V184.608H188.184ZM178.515 192.899C181.496 191.485 182.811 189.663 183.071 187.095H179.135V185.825H184.723C184.719 189.326 183.489 192.239 179.359 194.188L178.515 192.899ZM199.003 185.111V186.386H195.811C196 187.328 197.198 188.294 199.479 188.549L198.882 189.82C196.718 189.582 195.277 188.68 194.667 187.485C194.056 188.675 192.624 189.582 190.469 189.82L189.886 188.549C192.166 188.294 193.351 187.324 193.54 186.386H190.371V185.111H199.003ZM189.401 191.665V190.367H199.968V191.665H195.623V193.653H194.02V191.665H189.401ZM190.64 195.97V192.63H192.256V194.663H198.805V195.97H190.64Z" fill="#5767C6"/>
<path d="M138.28 211.755V215.17H139.981V216.008H138.28V220.045H137.29V211.755H138.28ZM138.801 221.949V222.787H131.222V219.232H132.199V221.949H138.801ZM130.917 212.567V214.472H134.205V212.567H135.195V218.141H129.939V212.567H130.917ZM130.917 217.328H134.205V215.259H130.917V217.328ZM144.15 215.424C144.15 217.227 145.331 219.08 146.969 219.867L146.385 220.642C145.14 220.032 144.157 218.801 143.693 217.341C143.198 218.909 142.151 220.223 140.862 220.845L140.291 220.07C141.941 219.296 143.173 217.366 143.185 215.424V214.522H140.596V213.71H143.173V211.958H144.176V213.71H146.715V214.522H144.15V215.424ZM149.127 211.742V216.376H151.018V217.227H149.127V223.028H148.137V211.742H149.127ZM152.521 220.781C152.077 220.781 151.696 220.413 151.709 219.956C151.696 219.512 152.077 219.144 152.521 219.144C152.965 219.144 153.334 219.512 153.334 219.956C153.334 220.413 152.965 220.781 152.521 220.781ZM152.521 215.678C152.077 215.678 151.696 215.31 151.709 214.853C151.696 214.408 152.077 214.04 152.521 214.04C152.965 214.04 153.334 214.408 153.334 214.853C153.334 215.31 152.965 215.678 152.521 215.678ZM157.469 220.121V219.182L161.608 212.809H163.017V219.118H164.299V220.121H163.017V222H161.925V220.121H157.469ZM158.7 219.118H161.925V214.256H161.811L158.7 219.042V219.118ZM169.115 214.776C169.103 216.833 170.512 218.915 172.175 219.664L171.565 220.451C170.283 219.823 169.172 218.496 168.633 216.884C168.106 218.591 166.995 220.013 165.675 220.68L165.04 219.842C166.716 219.067 168.112 216.922 168.125 214.776V212.72H169.115V214.776ZM174.409 211.742V223.054H173.406V211.742H174.409ZM184.862 211.742V215.183H186.563V216.021H184.862V220.007H183.859V211.742H184.862ZM181.815 212.618C181.815 215.525 179.733 217.684 176.483 218.699L176.052 217.899C178.756 217.055 180.52 215.443 180.736 213.456H176.521V212.618H181.815ZM185.383 221.949V222.787H177.791V219.169H178.781V221.949H185.383ZM138.28 229.755V233.17H139.981V234.008H138.28V238.045H137.29V229.755H138.28ZM138.801 239.949V240.787H131.222V237.232H132.199V239.949H138.801ZM130.917 230.567V232.472H134.205V230.567H135.195V236.141H129.939V230.567H130.917ZM130.917 235.328H134.205V233.259H130.917V235.328ZM149.216 229.755V233.17H150.917V234.008H149.216V238.045H148.225V229.755H149.216ZM149.736 239.949V240.787H142.157V237.232H143.135V239.949H149.736ZM141.852 230.567V232.472H145.14V230.567H146.131V236.141H140.875V230.567H141.852ZM141.852 235.328H145.14V233.259H141.852V235.328ZM155.086 233.424C155.086 235.227 156.266 237.08 157.904 237.867L157.32 238.642C156.076 238.032 155.092 236.801 154.629 235.341C154.133 236.909 153.086 238.223 151.797 238.845L151.226 238.07C152.877 237.296 154.108 235.366 154.121 233.424V232.522H151.531V231.71H154.108V229.958H155.111V231.71H157.65V232.522H155.086V233.424ZM160.062 229.742V234.376H161.954V235.227H160.062V241.028H159.072V229.742H160.062ZM162.961 236.496C162.974 234.097 163.621 232.104 164.789 230.415H165.754C164.891 231.672 164.091 234.236 164.091 236.496C164.091 238.756 164.891 241.333 165.754 242.59H164.789C163.621 240.889 162.974 238.896 162.961 236.496ZM170.405 232.776C170.393 234.833 171.802 236.915 173.465 237.664L172.856 238.451C171.573 237.823 170.463 236.496 169.923 234.884C169.396 236.591 168.285 238.013 166.965 238.68L166.33 237.842C168.006 237.067 169.403 234.922 169.415 232.776V230.72H170.405V232.776ZM175.699 229.742V241.054H174.696V229.742H175.699ZM186.152 229.742V233.183H187.854V234.021H186.152V238.007H185.149V229.742H186.152ZM183.105 230.618C183.105 233.525 181.023 235.684 177.773 236.699L177.342 235.899C180.046 235.055 181.811 233.443 182.026 231.456H177.812V230.618H183.105ZM186.673 239.949V240.787H179.081V237.169H180.071V239.949H186.673ZM191.083 236.496C191.07 238.896 190.423 240.889 189.255 242.59H188.29C189.153 241.333 189.953 238.756 189.953 236.496C189.953 234.236 189.153 231.672 188.29 230.415H189.255C190.423 232.104 191.07 234.097 191.083 236.496ZM193.588 238.781C193.144 238.781 192.763 238.413 192.776 237.956C192.763 237.512 193.144 237.144 193.588 237.144C194.033 237.144 194.401 237.512 194.401 237.956C194.401 238.413 194.033 238.781 193.588 238.781ZM193.588 233.678C193.144 233.678 192.763 233.31 192.776 232.853C192.763 232.408 193.144 232.04 193.588 232.04C194.033 232.04 194.401 232.408 194.401 232.853C194.401 233.31 194.033 233.678 193.588 233.678ZM202.142 232.776C202.142 234.77 203.462 236.813 205.062 237.601L204.452 238.4C203.208 237.747 202.167 236.414 201.672 234.846C201.164 236.515 200.098 237.937 198.828 238.616L198.194 237.816C199.844 237.004 201.152 234.833 201.164 232.776V230.72H202.142V232.776ZM207.093 229.742V234.325H208.985V235.188H207.093V241.028H206.103V229.742H207.093ZM219.577 235.328V236.153H209.294V235.328H211.846V233.741C210.944 233.392 210.437 232.814 210.437 232.053C210.437 230.72 211.96 229.958 214.436 229.958C216.886 229.958 218.422 230.72 218.422 232.053C218.422 232.808 217.92 233.386 217.025 233.729V235.328H219.577ZM214.436 237.017C216.86 237.017 218.308 237.715 218.32 239.01C218.308 240.292 216.86 241.003 214.436 241.003C211.985 241.003 210.538 240.292 210.538 239.01C210.538 237.715 211.985 237.017 214.436 237.017ZM214.436 237.778C212.62 237.791 211.541 238.235 211.554 239.01C211.541 239.771 212.62 240.229 214.436 240.229C216.226 240.229 217.317 239.771 217.317 239.01C217.317 238.235 216.226 237.791 214.436 237.778ZM214.436 230.745C212.595 230.745 211.452 231.24 211.465 232.053C211.452 232.878 212.595 233.36 214.436 233.36C216.264 233.36 217.406 232.878 217.406 232.053C217.406 231.24 216.264 230.745 214.436 230.745ZM212.836 235.328H216.035V234.008C215.559 234.09 215.026 234.135 214.436 234.135C213.845 234.135 213.312 234.09 212.836 234.008V235.328ZM228.964 229.742V234.401H230.855V235.227H228.964V241.028H227.973V229.742H228.964ZM226.882 231.558V232.383H220.166V231.558H223.073V229.882H224.063V231.558H226.882ZM223.581 233.322C225.18 233.322 226.336 234.389 226.348 235.912C226.336 237.436 225.18 238.502 223.581 238.502C221.969 238.502 220.801 237.436 220.813 235.912C220.801 234.389 221.969 233.322 223.581 233.322ZM223.581 234.16C222.527 234.16 221.753 234.896 221.765 235.912C221.753 236.94 222.527 237.664 223.581 237.651C224.622 237.664 225.384 236.94 225.396 235.912C225.384 234.896 224.622 234.16 223.581 234.16ZM235.202 233.208C235.202 235.125 236.598 237.067 238.261 237.791L237.703 238.578C236.382 237.975 235.24 236.674 234.719 235.112C234.186 236.769 233.05 238.21 231.761 238.857L231.165 238.07C232.777 237.296 234.186 235.163 234.199 233.208V231.735H231.533V230.91H237.893V231.735H235.202V233.208ZM240.47 229.742V241.028H239.467V229.742H240.47ZM248.211 230.39C249.9 230.39 251.144 231.469 251.144 232.992C251.144 234.528 249.9 235.595 248.211 235.607C246.523 235.595 245.266 234.528 245.279 232.992C245.266 231.469 246.523 230.39 248.211 230.39ZM248.211 231.228C247.107 231.228 246.243 231.977 246.256 232.992C246.243 234.033 247.107 234.782 248.211 234.782C249.328 234.782 250.166 234.033 250.166 232.992C250.166 231.977 249.328 231.228 248.211 231.228ZM253.886 229.742V232.294H255.587V233.119H253.886V235.392H252.896V229.742H253.886ZM247.234 236.61V239.898C247.887 239.879 248.757 239.784 249.557 239.518L249.709 240.317C248.605 240.686 247.538 240.724 246.802 240.724H246.269V236.61H247.234ZM255.016 236.661V237.436H249.316V236.661H251.69V235.658H252.667V236.661H255.016ZM252.159 237.816C253.391 237.816 254.267 238.438 254.279 239.416C254.267 240.394 253.391 241.003 252.159 241.003C250.915 241.003 250.052 240.394 250.065 239.416C250.052 238.438 250.915 237.816 252.159 237.816ZM252.159 238.54C251.461 238.54 250.953 238.896 250.953 239.416C250.953 239.949 251.461 240.292 252.159 240.292C252.87 240.292 253.365 239.949 253.365 239.416C253.365 238.896 252.87 238.54 252.159 238.54ZM261.14 229.996C263.59 229.996 265.126 230.783 265.126 232.142C265.126 233.475 263.59 234.249 261.14 234.249C258.689 234.249 257.141 233.475 257.141 232.142C257.141 230.783 258.689 229.996 261.14 229.996ZM261.14 230.796C259.312 230.796 258.156 231.304 258.169 232.142C258.156 232.967 259.312 233.449 261.14 233.462C262.942 233.449 264.11 232.967 264.11 232.142C264.11 231.304 262.942 230.796 261.14 230.796ZM265.024 237.169V240.876H257.255V237.169H265.024ZM258.245 237.969V240.063H264.047V237.969H258.245ZM266.281 235.227V236.052H255.998V235.227H266.281ZM132.656 248.161C134.345 248.174 135.576 249.189 135.576 250.662C135.576 252.135 134.345 253.15 132.656 253.15C130.942 253.15 129.724 252.135 129.724 250.662C129.724 249.189 130.942 248.174 132.656 248.161ZM132.656 248.999C131.526 248.999 130.688 249.685 130.701 250.662C130.688 251.652 131.526 252.338 132.656 252.338C133.773 252.338 134.611 251.652 134.611 250.662C134.611 249.685 133.773 248.999 132.656 248.999ZM138.775 247.742V253.544H137.785V247.742H138.775ZM138.775 254.09V256.807H132.44V258.076H139.182V258.876H131.463V256.058H137.785V254.89H131.438V254.09H138.775ZM141.586 256.781C141.141 256.781 140.761 256.413 140.773 255.956C140.761 255.512 141.141 255.144 141.586 255.144C142.03 255.144 142.398 255.512 142.398 255.956C142.398 256.413 142.03 256.781 141.586 256.781ZM141.586 251.678C141.141 251.678 140.761 251.31 140.773 250.853C140.761 250.408 141.141 250.04 141.586 250.04C142.03 250.04 142.398 250.408 142.398 250.853C142.398 251.31 142.03 251.678 141.586 251.678ZM155.331 248.428V249.304C155.331 250.25 155.331 251.398 155.039 252.935H156.69V253.772H146.356V252.935H154.037C154.341 251.373 154.341 250.269 154.341 249.304V249.24H147.663V248.428H155.331ZM155.674 257.937V258.774H147.727V255.042H148.717V257.937H155.674ZM167.612 254.306V255.131H162.903V259.028H161.925V255.131H157.279V254.306H167.612ZM166.267 248.377V252.77H158.612V248.377H166.267ZM159.589 249.189V251.982H165.277V249.189H159.589ZM172.238 250.776C172.226 252.833 173.635 254.915 175.298 255.664L174.688 256.451C173.406 255.823 172.295 254.496 171.756 252.884C171.229 254.591 170.118 256.013 168.798 256.68L168.163 255.842C169.839 255.067 171.235 252.922 171.248 250.776V248.72H172.238V250.776ZM177.532 247.742V259.054H176.529V247.742H177.532ZM187.985 247.742V251.183H189.686V252.021H187.985V256.007H186.982V247.742H187.985ZM184.938 248.618C184.938 251.525 182.856 253.684 179.606 254.699L179.175 253.899C181.879 253.055 183.643 251.443 183.859 249.456H179.644V248.618H184.938ZM188.506 257.949V258.787H180.914V255.169H181.904V257.949H188.506Z" fill="black"/>
<mask id="path-31-inside-1_279_651" fill="white">
<path d="M325.5 127H503V262H325.5V127Z"/>
</mask>
<path d="M503 127H502V262H503H504V127H503Z" fill="#EEEEEE" mask="url(#path-31-inside-1_279_651)"/>
<g clip-path="url(#clip3_279_651)">
<path d="M348 172C360.426 172 370.5 161.926 370.5 149.5C370.5 137.074 360.426 127 348 127C335.574 127 325.5 137.074 325.5 149.5C325.5 161.926 335.574 172 348 172Z" fill="#D0DEF7"/>
<path d="M355.36 138.938H340.272C338.451 138.938 336.975 140.414 336.975 142.235V157.322C336.975 159.143 338.451 160.619 340.272 160.619H355.36C357.181 160.619 358.657 159.143 358.657 157.322V142.235C358.657 140.414 357.181 138.938 355.36 138.938Z" fill="white"/>
<path d="M341.211 139.993V137.88C341.211 137.217 341.749 136.681 342.41 136.681C343.07 136.681 343.608 137.219 343.608 137.88V139.993C343.608 140.655 343.07 141.191 342.41 141.191C341.749 141.191 341.211 140.653 341.211 139.993Z" fill="#6270F4"/>
<path d="M346.617 139.993V137.88C346.617 137.217 347.155 136.681 347.816 136.681C348.477 136.681 349.015 137.219 349.015 137.88V139.993C349.015 140.655 348.477 141.191 347.816 141.191C347.155 141.191 346.617 140.653 346.617 139.993Z" fill="#6270F4"/>
<path d="M352.023 139.993V137.88C352.023 137.217 352.561 136.681 353.222 136.681C353.883 136.681 354.421 137.219 354.421 137.88V139.993C354.421 140.655 353.883 141.191 353.222 141.191C352.561 141.191 352.023 140.653 352.023 139.993Z" fill="#6270F4"/>
<path d="M341.686 146.183H341.418C340.951 146.183 340.575 145.804 340.575 145.34C340.575 144.875 340.953 144.497 341.418 144.497H341.686C342.152 144.497 342.528 144.875 342.528 145.34C342.528 145.804 342.15 146.183 341.686 146.183Z" fill="#D0DEF7"/>
<path d="M344.805 146.183H344.535C344.069 146.183 343.692 145.804 343.692 145.34C343.692 144.875 344.071 144.497 344.535 144.497H344.805C345.271 144.497 345.648 144.875 345.648 145.34C345.648 145.804 345.269 146.183 344.805 146.183Z" fill="#D0DEF7"/>
<path d="M347.949 146.183H347.681C347.215 146.183 346.838 145.804 346.838 145.34C346.838 144.875 347.217 144.497 347.681 144.497H347.949C348.415 144.497 348.792 144.875 348.792 145.34C348.792 145.804 348.413 146.183 347.949 146.183Z" fill="#D0DEF7"/>
<path d="M351.066 146.183H350.796C350.33 146.183 349.953 145.804 349.953 145.34C349.953 144.875 350.332 144.497 350.796 144.497H351.066C351.533 144.497 351.909 144.875 351.909 145.34C351.909 145.804 351.53 146.183 351.066 146.183Z" fill="#D0DEF7"/>
<path d="M354.31 146.183H354.04C353.574 146.183 353.198 145.804 353.198 145.34C353.198 144.875 353.576 144.497 354.04 144.497H354.31C354.777 144.497 355.153 144.875 355.153 145.34C355.153 145.804 354.775 146.183 354.31 146.183Z" fill="#D0DEF7"/>
<path d="M341.686 149.257H341.418C340.951 149.257 340.575 148.878 340.575 148.414C340.575 147.95 340.953 147.571 341.418 147.571H341.686C342.152 147.571 342.528 147.95 342.528 148.414C342.528 148.878 342.15 149.257 341.686 149.257Z" fill="#D0DEF7"/>
<path d="M344.805 149.257H344.535C344.069 149.257 343.692 148.878 343.692 148.414C343.692 147.95 344.071 147.571 344.535 147.571H344.805C345.271 147.571 345.648 147.95 345.648 148.414C345.648 148.878 345.269 149.257 344.805 149.257Z" fill="#D0DEF7"/>
<path d="M347.949 149.257H347.681C347.215 149.257 346.838 148.878 346.838 148.414C346.838 147.95 347.217 147.571 347.681 147.571H347.949C348.415 147.571 348.792 147.95 348.792 148.414C348.792 148.878 348.413 149.257 347.949 149.257Z" fill="#D0DEF7"/>
<path d="M351.066 149.257H350.796C350.33 149.257 349.953 148.878 349.953 148.414C349.953 147.95 350.332 147.571 350.796 147.571H351.066C351.533 147.571 351.909 147.95 351.909 148.414C351.909 148.878 351.53 149.257 351.066 149.257Z" fill="#D0DEF7"/>
<path d="M354.31 149.257H354.04C353.574 149.257 353.198 148.878 353.198 148.414C353.198 147.95 353.576 147.571 354.04 147.571H354.31C354.777 147.571 355.153 147.95 355.153 148.414C355.153 148.878 354.775 149.257 354.31 149.257Z" fill="#D0DEF7"/>
<path d="M341.686 152.501H341.418C340.951 152.501 340.575 152.122 340.575 151.658C340.575 151.194 340.953 150.815 341.418 150.815H341.686C342.152 150.815 342.528 151.194 342.528 151.658C342.528 152.122 342.15 152.501 341.686 152.501Z" fill="#D0DEF7"/>
<path d="M344.805 152.501H344.535C344.069 152.501 343.692 152.122 343.692 151.658C343.692 151.194 344.071 150.815 344.535 150.815H344.805C345.271 150.815 345.648 151.194 345.648 151.658C345.648 152.122 345.269 152.501 344.805 152.501Z" fill="#D0DEF7"/>
<path d="M347.949 152.501H347.681C347.215 152.501 346.838 152.122 346.838 151.658C346.838 151.194 347.217 150.815 347.681 150.815H347.949C348.415 150.815 348.792 151.194 348.792 151.658C348.792 152.122 348.413 152.501 347.949 152.501Z" fill="#D0DEF7"/>
<path d="M351.066 152.501H350.796C350.33 152.501 349.953 152.122 349.953 151.658C349.953 151.194 350.332 150.815 350.796 150.815H351.066C351.533 150.815 351.909 151.194 351.909 151.658C351.909 152.122 351.53 152.501 351.066 152.501Z" fill="#D0DEF7"/>
<path d="M354.31 152.501H354.04C353.574 152.501 353.198 152.122 353.198 151.658C353.198 151.194 353.576 150.815 354.04 150.815H354.31C354.777 150.815 355.153 151.194 355.153 151.658C355.153 152.122 354.775 152.501 354.31 152.501Z" fill="#D0DEF7"/>
<path d="M341.686 155.8H341.418C340.951 155.8 340.575 155.422 340.575 154.957C340.575 154.493 340.953 154.115 341.418 154.115H341.686C342.152 154.115 342.528 154.493 342.528 154.957C342.528 155.422 342.15 155.8 341.686 155.8Z" fill="#D0DEF7"/>
<path d="M344.805 155.8H344.535C344.069 155.8 343.692 155.422 343.692 154.957C343.692 154.493 344.071 154.115 344.535 154.115H344.805C345.271 154.115 345.648 154.493 345.648 154.957C345.648 155.422 345.269 155.8 344.805 155.8Z" fill="#D0DEF7"/>
<path d="M347.949 155.8H347.681C347.215 155.8 346.838 155.422 346.838 154.957C346.838 154.493 347.217 154.115 347.681 154.115H347.949C348.415 154.115 348.792 154.493 348.792 154.957C348.792 155.422 348.413 155.8 347.949 155.8Z" fill="#D0DEF7"/>
<path d="M355.875 163C359.189 163 361.875 160.314 361.875 157C361.875 153.687 359.189 151 355.875 151C352.561 151 349.875 153.687 349.875 157C349.875 160.314 352.561 163 355.875 163Z" fill="#27C590"/>
<path d="M358.607 156.581C358.25 156.247 357.667 156.247 357.306 156.581L356.794 157.057V153.353C356.794 152.882 356.383 152.5 355.876 152.5C355.369 152.5 354.958 152.882 354.958 153.353V157.116L354.446 156.64C354.088 156.306 353.505 156.306 353.145 156.64C352.785 156.975 352.785 157.514 353.145 157.848L355.194 159.751C355.374 159.918 355.61 160 355.843 160C356.077 160 356.315 159.918 356.492 159.751L358.605 157.789C358.965 157.455 358.965 156.916 358.605 156.581H358.607Z" fill="white"/>
</g>
<path d="M335.582 184.626V193.074H333.966V190.336H331.318C330.761 190.924 329.962 191.279 329.064 191.279C327.314 191.279 325.98 190.013 325.989 188.294C325.98 186.556 327.314 185.295 329.064 185.295C329.962 185.295 330.766 185.65 331.322 186.242H333.966V184.626H335.582ZM327.525 188.294C327.525 189.263 328.162 189.842 329.064 189.847C329.917 189.842 330.573 189.263 330.581 188.294C330.573 187.319 329.917 186.736 329.064 186.736C328.162 186.736 327.525 187.319 327.525 188.294ZM327.915 195.97V192.226H329.531V194.663H335.856V195.97H327.915ZM332.027 187.539C332.09 187.777 332.121 188.029 332.121 188.294C332.121 188.549 332.09 188.801 332.031 189.034H333.966V187.539H332.027ZM340.956 188.235C340.951 189.878 341.804 191.732 343.645 192.598L342.742 193.824C341.508 193.263 340.65 192.176 340.166 190.893C339.667 192.28 338.756 193.451 337.445 194.021L336.557 192.769C338.446 191.939 339.344 189.968 339.349 188.235V187.786H336.961V186.498H339.34V184.873H340.969V186.498H343.317V187.786H340.956V188.235ZM344.273 196.172V184.608H345.894V189.102H347.599V190.457H345.894V196.172H344.273ZM354.883 187.759C354.883 189.631 355.849 191.629 357.783 192.432L356.912 193.703C355.548 193.128 354.61 191.979 354.089 190.578C353.568 192.1 352.612 193.366 351.247 193.99L350.327 192.72C352.239 191.862 353.232 189.721 353.236 187.759V187.05H350.781V185.726H357.303V187.05H354.883V187.759ZM358.443 196.172V184.608H360.082V196.172H358.443ZM364.203 191.189V192.423H369.015V191.189H370.617V196.041H362.609V191.189H364.203ZM361.348 190.426V189.137H368.786C369.01 188.015 369.042 187.153 369.051 186.377H362.641V185.079H370.667V186.009C370.667 186.884 370.667 187.822 370.393 189.137H371.915V190.426H361.348ZM364.203 194.731H369.015V193.658H364.203V194.731ZM384.684 184.608V196.172H383.046V184.608H384.684ZM375.015 192.899C377.996 191.485 379.311 189.663 379.571 187.095H375.635V185.825H381.223C381.219 189.326 379.989 192.239 375.859 194.188L375.015 192.899ZM395.503 185.111V186.386H392.311C392.5 187.328 393.698 188.294 395.979 188.549L395.382 189.82C393.218 189.582 391.777 188.68 391.167 187.485C390.556 188.675 389.124 189.582 386.969 189.82L386.386 188.549C388.666 188.294 389.851 187.324 390.04 186.386H386.871V185.111H395.503ZM385.901 191.665V190.367H396.468V191.665H392.123V193.653H390.52V191.665H385.901ZM387.14 195.97V192.63H388.756V194.663H395.305V195.97H387.14Z" fill="#5767C6"/>
<path d="M335.212 211.742V223.028H334.222V211.742H335.212ZM326.021 220.02C326.985 220.013 328.09 220.007 329.232 219.969V218.737C327.88 218.591 326.998 217.823 327.011 216.693C326.998 215.424 328.09 214.599 329.715 214.599C331.34 214.599 332.444 215.424 332.444 216.693C332.444 217.811 331.568 218.579 330.235 218.725V219.931C331.327 219.886 332.432 219.804 333.473 219.664L333.549 220.426C331.035 220.832 328.268 220.87 326.173 220.87L326.021 220.02ZM333.181 213.139V213.951H326.262V213.139H329.232V211.755H330.235V213.139H333.181ZM329.715 215.373C328.674 215.373 327.938 215.906 327.938 216.693C327.938 217.48 328.674 217.988 329.715 217.976C330.769 217.988 331.492 217.48 331.492 216.693C331.492 215.906 330.769 215.373 329.715 215.373ZM346.554 211.742V223.028H345.601V211.742H346.554ZM344.268 212.047V222.457H343.316V218.547H341.221V217.722H343.316V215.716H341.412C340.86 217.626 339.622 219.315 337.489 220.591L336.88 219.867C339.336 218.414 340.568 216.376 340.764 214.015H337.387V213.189H341.755C341.755 213.767 341.704 214.338 341.602 214.891H343.316V212.047H344.268ZM351.027 212.161C352.715 212.174 353.947 213.189 353.947 214.662C353.947 216.135 352.715 217.15 351.027 217.15C349.313 217.15 348.094 216.135 348.094 214.662C348.094 213.189 349.313 212.174 351.027 212.161ZM351.027 212.999C349.897 212.999 349.059 213.685 349.072 214.662C349.059 215.652 349.897 216.338 351.027 216.338C352.144 216.338 352.982 215.652 352.982 214.662C352.982 213.685 352.144 212.999 351.027 212.999ZM357.146 211.742V217.544H356.156V211.742H357.146ZM357.146 218.09V220.807H350.811V222.076H357.552V222.876H349.834V220.058H356.156V218.89H349.808V218.09H357.146ZM329.613 230.809V240H328.458V232.002H328.407L326.173 233.487V232.332L328.458 230.809H329.613ZM340.714 229.755V238.108H339.711V234.198H336.461V233.398H339.711V232.04H336.461V231.24H339.711V229.755H340.714ZM341.018 239.949V240.787H333.439V237.397H334.442V239.949H341.018ZM333.033 230.567V235.582C334.588 235.576 336.086 235.493 337.806 235.176L337.908 236.001C336.067 236.344 334.531 236.42 332.881 236.433H332.03V230.567H333.033ZM351.133 230.859V238.197H345.915V230.859H351.133ZM346.893 231.659V237.385H350.156V231.659H346.893ZM354.561 229.742V241.054H353.558V229.742H354.561ZM361.891 230.771V235.963H356.673V230.771H361.891ZM357.651 231.583V235.163H360.926V231.583H357.651ZM365.014 229.742V233.183H366.715V234.021H365.014V238.02H364.024V229.742H365.014ZM365.534 239.949V240.787H357.955V237.232H358.933V239.949H365.534ZM368.319 238.781C367.875 238.781 367.494 238.413 367.507 237.956C367.494 237.512 367.875 237.144 368.319 237.144C368.764 237.144 369.132 237.512 369.132 237.956C369.132 238.413 368.764 238.781 368.319 238.781ZM368.319 233.678C367.875 233.678 367.494 233.31 367.507 232.853C367.494 232.408 367.875 232.04 368.319 232.04C368.764 232.04 369.132 232.408 369.132 232.853C369.132 233.31 368.764 233.678 368.319 233.678ZM381.925 229.742V232.688H383.614V233.525H381.925V236.483H380.922V229.742H381.925ZM378.295 236.699C380.592 236.699 382.014 237.499 382.014 238.845C382.014 240.216 380.592 241.003 378.295 241.003C375.984 241.003 374.549 240.216 374.549 238.845C374.549 237.499 375.984 236.699 378.295 236.699ZM378.295 237.524C376.593 237.512 375.527 238.02 375.527 238.845C375.527 239.683 376.593 240.203 378.295 240.203C379.983 240.203 381.049 239.683 381.049 238.845C381.049 238.02 379.983 237.512 378.295 237.524ZM378.625 230.605V231.431H374.588V234.744C376.873 234.731 378.193 234.662 379.704 234.351L379.805 235.176C378.231 235.493 376.873 235.557 374.486 235.557H373.61V230.605H378.625ZM393.33 229.755V236.407H392.328V235.785H390.042V235.125H392.328V229.755H393.33ZM383.987 234.008C386.17 234.021 388.963 233.995 391.401 233.729L391.464 234.376C390.36 234.535 389.211 234.63 388.087 234.681V236.445H387.11V234.719C386.043 234.757 385.021 234.763 384.101 234.757L383.987 234.008ZM393.33 236.813V239.149H386.742V240.165H393.699V240.901H385.764V238.451H392.34V237.537H385.713V236.813H393.33ZM387.668 229.971C389.344 229.971 390.461 230.631 390.474 231.672C390.461 232.726 389.344 233.36 387.668 233.36C385.967 233.36 384.863 232.726 384.863 231.672C384.863 230.631 385.967 229.971 387.668 229.971ZM387.668 230.669C386.526 230.669 385.789 231.062 385.802 231.672C385.789 232.269 386.526 232.675 387.668 232.675C388.798 232.675 389.535 232.269 389.535 231.672C389.535 231.062 388.798 230.669 387.668 230.669ZM407.559 229.742V241.028H406.581V235.125H405.02V240.47H404.067V230.047H405.02V234.3H406.581V229.742H407.559ZM402.785 231.215C402.772 234.084 401.77 236.801 398.52 238.604L397.936 237.905C400.557 236.445 401.643 234.376 401.808 232.04H398.367V231.215H402.785ZM417.834 230.428V231.304C417.834 232.25 417.834 233.398 417.542 234.935H419.192V235.772H408.858V234.935H416.539C416.844 233.373 416.844 232.269 416.844 231.304V231.24H410.166V230.428H417.834ZM418.177 239.937V240.774H410.229V237.042H411.22V239.937H418.177ZM426.768 232.776C426.755 234.833 428.164 236.915 429.828 237.664L429.218 238.451C427.936 237.823 426.825 236.496 426.286 234.884C425.759 236.591 424.648 238.013 423.328 238.68L422.693 237.842C424.369 237.067 425.765 234.922 425.778 232.776V230.72H426.768V232.776ZM432.062 229.742V241.054H431.059V229.742H432.062ZM440.311 230.809V240H439.155V232.002H439.104L436.87 233.487V232.332L439.155 230.809H440.311ZM445.254 230.161C446.942 230.174 448.174 231.189 448.174 232.662C448.174 234.135 446.942 235.15 445.254 235.15C443.54 235.15 442.321 234.135 442.321 232.662C442.321 231.189 443.54 230.174 445.254 230.161ZM445.254 230.999C444.124 230.999 443.286 231.685 443.299 232.662C443.286 233.652 444.124 234.338 445.254 234.338C446.371 234.338 447.209 233.652 447.209 232.662C447.209 231.685 446.371 230.999 445.254 230.999ZM451.373 229.742V235.544H450.383V229.742H451.373ZM451.373 236.09V238.807H445.038V240.076H451.779V240.876H444.06V238.058H450.383V236.89H444.035V236.09H451.373ZM466.274 236.445V237.258H461.564V241.028H460.586V237.258H455.94V236.445H466.274ZM458.25 230.212V231.773H463.938V230.212H464.941V235.074H457.26V230.212H458.25ZM458.25 234.262H463.938V232.586H458.25V234.262ZM469.922 230.618C470.957 230.625 471.795 231.228 472.283 232.269H475.254V229.742H476.244V241.054H475.254V236.674H472.36C471.883 237.816 471.014 238.477 469.922 238.477C468.259 238.477 467.091 236.953 467.091 234.554C467.091 232.154 468.259 230.631 469.922 230.618ZM469.922 231.507C468.805 231.52 468.043 232.713 468.043 234.554C468.043 236.395 468.805 237.588 469.922 237.588C471.027 237.588 471.801 236.395 471.801 234.554C471.801 232.713 471.027 231.52 469.922 231.507ZM472.575 233.106C472.677 233.544 472.74 234.027 472.74 234.554C472.74 235.017 472.69 235.455 472.613 235.849H475.254V233.106H472.575ZM329.613 248.809V258H328.458V250.002H328.407L326.173 251.487V250.332L328.458 248.809H329.613ZM340.714 247.755V256.108H339.711V252.198H336.461V251.398H339.711V250.04H336.461V249.24H339.711V247.755H340.714ZM341.018 257.949V258.787H333.439V255.397H334.442V257.949H341.018ZM333.033 248.567V253.582C334.588 253.576 336.086 253.493 337.806 253.176L337.908 254.001C336.067 254.344 334.531 254.42 332.881 254.433H332.03V248.567H333.033ZM354.561 247.742V259.054H353.558V247.742H354.561ZM348.556 248.618C350.232 248.631 351.438 250.154 351.438 252.554C351.438 254.953 350.232 256.477 348.556 256.477C346.868 256.477 345.674 254.953 345.674 252.554C345.674 250.154 346.868 248.631 348.556 248.618ZM348.556 249.507C347.426 249.52 346.639 250.713 346.639 252.554C346.639 254.395 347.426 255.588 348.556 255.588C349.686 255.588 350.473 254.395 350.473 252.554C350.473 250.713 349.686 249.52 348.556 249.507ZM359.961 249.57C359.961 251.106 361.129 252.516 362.767 253.074L362.221 253.861C360.97 253.404 359.987 252.471 359.491 251.297C359.009 252.624 358.006 253.671 356.686 254.179L356.153 253.379C357.841 252.744 358.971 251.233 358.984 249.494V248.326H359.961V249.57ZM365.014 247.742V250.688H366.715V251.525H365.014V254.61H364.024V247.742H365.014ZM361.396 254.902C363.719 254.902 365.115 255.651 365.115 256.946C365.115 258.267 363.719 259.003 361.396 259.003C359.072 259.003 357.651 258.267 357.651 256.946C357.651 255.651 359.072 254.902 361.396 254.902ZM361.396 255.702C359.695 255.702 358.641 256.172 358.654 256.946C358.641 257.746 359.695 258.203 361.396 258.216C363.11 258.203 364.151 257.746 364.151 256.946C364.151 256.172 363.11 255.702 361.396 255.702ZM368.319 256.781C367.875 256.781 367.494 256.413 367.507 255.956C367.494 255.512 367.875 255.144 368.319 255.144C368.764 255.144 369.132 255.512 369.132 255.956C369.132 256.413 368.764 256.781 368.319 256.781ZM368.319 251.678C367.875 251.678 367.494 251.31 367.507 250.853C367.494 250.408 367.875 250.04 368.319 250.04C368.764 250.04 369.132 250.408 369.132 250.853C369.132 251.31 368.764 251.678 368.319 251.678ZM382.344 247.742V259.028H381.354V247.742H382.344ZM373.153 256.02C374.118 256.013 375.222 256.007 376.365 255.969V254.737C375.013 254.591 374.13 253.823 374.143 252.693C374.13 251.424 375.222 250.599 376.847 250.599C378.472 250.599 379.577 251.424 379.577 252.693C379.577 253.811 378.701 254.579 377.368 254.725V255.931C378.46 255.886 379.564 255.804 380.605 255.664L380.681 256.426C378.168 256.832 375.4 256.87 373.305 256.87L373.153 256.02ZM380.313 249.139V249.951H373.394V249.139H376.365V247.755H377.368V249.139H380.313ZM376.847 251.373C375.806 251.373 375.07 251.906 375.07 252.693C375.07 253.48 375.806 253.988 376.847 253.976C377.901 253.988 378.625 253.48 378.625 252.693C378.625 251.906 377.901 251.373 376.847 251.373ZM393.686 247.742V259.028H392.734V247.742H393.686ZM391.401 248.047V258.457H390.449V254.547H388.354V253.722H390.449V251.716H388.544C387.992 253.626 386.754 255.315 384.621 256.591L384.012 255.867C386.469 254.414 387.7 252.376 387.897 250.015H384.52V249.189H388.887C388.887 249.767 388.836 250.338 388.735 250.891H390.449V248.047H391.401ZM398.159 248.161C399.848 248.174 401.079 249.189 401.079 250.662C401.079 252.135 399.848 253.15 398.159 253.15C396.446 253.15 395.227 252.135 395.227 250.662C395.227 249.189 396.446 248.174 398.159 248.161ZM398.159 248.999C397.029 248.999 396.192 249.685 396.204 250.662C396.192 251.652 397.029 252.338 398.159 252.338C399.277 252.338 400.114 251.652 400.114 250.662C400.114 249.685 399.277 248.999 398.159 248.999ZM404.279 247.742V253.544H403.288V247.742H404.279ZM404.279 254.09V256.807H397.944V258.076H404.685V258.876H396.966V256.058H403.288V254.89H396.941V254.09H404.279ZM418.189 247.742V259.028H417.186V247.742H418.189ZM414.85 248.974C414.838 252.224 413.327 255.093 409.544 256.908L408.998 256.096C412.051 254.648 413.606 252.484 413.835 249.786H409.518V248.974H414.85ZM425.583 249.151C425.57 250.535 427.474 251.665 429.467 251.944L429.074 252.731C427.252 252.471 425.551 251.557 424.935 250.23C424.326 251.557 422.631 252.471 420.796 252.731L420.428 251.944C422.421 251.665 424.288 250.535 424.288 249.151V249.126H420.733V248.313H429.163V249.126H425.583V249.151ZM430.115 253.557V254.382H425.519V256.692H424.529V254.382H419.781V253.557H430.115ZM428.96 257.949V258.787H421.101V255.562H422.104V257.949H428.96ZM437.348 248.809V258H436.193V250.002H436.142L433.907 251.487V250.332L436.193 248.809H437.348ZM442.494 258.127C440.831 258.127 439.574 257.099 439.511 255.689H440.615C440.704 256.515 441.504 257.124 442.494 257.124C443.688 257.124 444.551 256.248 444.551 255.093C444.551 253.899 443.649 253.023 442.418 253.011C441.644 252.998 441.047 253.239 440.704 253.836H439.6L440.247 248.809H445.224V249.824H441.199L440.856 252.516H440.945C441.352 252.198 441.974 251.982 442.621 251.982C444.373 251.982 445.668 253.277 445.668 255.067C445.668 256.845 444.322 258.127 442.494 258.127ZM449.748 248.161C451.436 248.174 452.668 249.189 452.668 250.662C452.668 252.135 451.436 253.15 449.748 253.15C448.034 253.15 446.815 252.135 446.815 250.662C446.815 249.189 448.034 248.174 449.748 248.161ZM449.748 248.999C448.618 248.999 447.78 249.685 447.793 250.662C447.78 251.652 448.618 252.338 449.748 252.338C450.865 252.338 451.703 251.652 451.703 250.662C451.703 249.685 450.865 248.999 449.748 248.999ZM455.867 247.742V253.544H454.877V247.742H455.867ZM455.867 254.09V256.807H449.532V258.076H456.273V258.876H448.554V256.058H454.877V254.89H448.529V254.09H455.867ZM470.768 254.445V255.258H466.058V259.028H465.08V255.258H460.434V254.445H470.768ZM462.745 248.212V249.773H468.432V248.212H469.435V253.074H461.754V248.212H462.745ZM462.745 252.262H468.432V250.586H462.745V252.262ZM474.416 248.618C475.451 248.625 476.289 249.228 476.778 250.269H479.748V247.742H480.738V259.054H479.748V254.674H476.854C476.378 255.816 475.508 256.477 474.416 256.477C472.753 256.477 471.585 254.953 471.585 252.554C471.585 250.154 472.753 248.631 474.416 248.618ZM474.416 249.507C473.299 249.52 472.537 250.713 472.537 252.554C472.537 254.395 473.299 255.588 474.416 255.588C475.521 255.588 476.295 254.395 476.295 252.554C476.295 250.713 475.521 249.52 474.416 249.507ZM477.07 251.106C477.171 251.544 477.235 252.027 477.235 252.554C477.235 253.017 477.184 253.455 477.108 253.849H479.748V251.106H477.07Z" fill="black"/>
<g clip-path="url(#clip4_279_651)">
<path d="M151.5 340.5C163.926 340.5 174 330.426 174 318C174 305.574 163.926 295.5 151.5 295.5C139.074 295.5 129 305.574 129 318C129 330.426 139.074 340.5 151.5 340.5Z" fill="#D0DEF7"/>
<path d="M158.86 307.438H143.772C141.951 307.438 140.475 308.914 140.475 310.735V325.822C140.475 327.643 141.951 329.119 143.772 329.119H158.86C160.681 329.119 162.157 327.643 162.157 325.822V310.735C162.157 308.914 160.681 307.438 158.86 307.438Z" fill="white"/>
<path d="M144.711 308.493V306.38C144.711 305.717 145.249 305.181 145.91 305.181C146.57 305.181 147.108 305.719 147.108 306.38V308.493C147.108 309.155 146.57 309.691 145.91 309.691C145.249 309.691 144.711 309.153 144.711 308.493Z" fill="#6270F4"/>
<path d="M150.117 308.493V306.38C150.117 305.717 150.655 305.181 151.316 305.181C151.977 305.181 152.515 305.719 152.515 306.38V308.493C152.515 309.155 151.977 309.691 151.316 309.691C150.655 309.691 150.117 309.153 150.117 308.493Z" fill="#6270F4"/>
<path d="M155.523 308.493V306.38C155.523 305.717 156.061 305.181 156.722 305.181C157.383 305.181 157.921 305.719 157.921 306.38V308.493C157.921 309.155 157.383 309.691 156.722 309.691C156.061 309.691 155.523 309.153 155.523 308.493Z" fill="#6270F4"/>
<path d="M145.186 314.683H144.918C144.451 314.683 144.075 314.304 144.075 313.84C144.075 313.375 144.453 312.997 144.918 312.997H145.186C145.652 312.997 146.028 313.375 146.028 313.84C146.028 314.304 145.65 314.683 145.186 314.683Z" fill="#D0DEF7"/>
<path d="M148.305 314.683H148.035C147.569 314.683 147.192 314.304 147.192 313.84C147.192 313.375 147.571 312.997 148.035 312.997H148.305C148.771 312.997 149.148 313.375 149.148 313.84C149.148 314.304 148.769 314.683 148.305 314.683Z" fill="#D0DEF7"/>
<path d="M151.449 314.683H151.181C150.714 314.683 150.338 314.304 150.338 313.84C150.338 313.375 150.717 312.997 151.181 312.997H151.449C151.915 312.997 152.292 313.375 152.292 313.84C152.292 314.304 151.913 314.683 151.449 314.683Z" fill="#D0DEF7"/>
<path d="M154.566 314.683H154.296C153.83 314.683 153.453 314.304 153.453 313.84C153.453 313.375 153.832 312.997 154.296 312.997H154.566C155.032 312.997 155.409 313.375 155.409 313.84C155.409 314.304 155.03 314.683 154.566 314.683Z" fill="#D0DEF7"/>
<path d="M157.81 314.683H157.54C157.074 314.683 156.697 314.304 156.697 313.84C156.697 313.375 157.076 312.997 157.54 312.997H157.81C158.277 312.997 158.653 313.375 158.653 313.84C158.653 314.304 158.274 314.683 157.81 314.683Z" fill="#D0DEF7"/>
<path d="M145.186 317.757H144.918C144.451 317.757 144.075 317.378 144.075 316.914C144.075 316.45 144.453 316.071 144.918 316.071H145.186C145.652 316.071 146.028 316.45 146.028 316.914C146.028 317.378 145.65 317.757 145.186 317.757Z" fill="#D0DEF7"/>
<path d="M148.305 317.757H148.035C147.569 317.757 147.192 317.378 147.192 316.914C147.192 316.45 147.571 316.071 148.035 316.071H148.305C148.771 316.071 149.148 316.45 149.148 316.914C149.148 317.378 148.769 317.757 148.305 317.757Z" fill="#D0DEF7"/>
<path d="M151.449 317.757H151.181C150.714 317.757 150.338 317.378 150.338 316.914C150.338 316.45 150.717 316.071 151.181 316.071H151.449C151.915 316.071 152.292 316.45 152.292 316.914C152.292 317.378 151.913 317.757 151.449 317.757Z" fill="#D0DEF7"/>
<path d="M154.566 317.757H154.296C153.83 317.757 153.453 317.378 153.453 316.914C153.453 316.45 153.832 316.071 154.296 316.071H154.566C155.032 316.071 155.409 316.45 155.409 316.914C155.409 317.378 155.03 317.757 154.566 317.757Z" fill="#D0DEF7"/>
<path d="M157.81 317.757H157.54C157.074 317.757 156.697 317.378 156.697 316.914C156.697 316.45 157.076 316.071 157.54 316.071H157.81C158.277 316.071 158.653 316.45 158.653 316.914C158.653 317.378 158.274 317.757 157.81 317.757Z" fill="#D0DEF7"/>
<path d="M145.186 321.001H144.918C144.451 321.001 144.075 320.622 144.075 320.158C144.075 319.694 144.453 319.315 144.918 319.315H145.186C145.652 319.315 146.028 319.694 146.028 320.158C146.028 320.622 145.65 321.001 145.186 321.001Z" fill="#D0DEF7"/>
<path d="M148.305 321.001H148.035C147.569 321.001 147.192 320.622 147.192 320.158C147.192 319.694 147.571 319.315 148.035 319.315H148.305C148.771 319.315 149.148 319.694 149.148 320.158C149.148 320.622 148.769 321.001 148.305 321.001Z" fill="#D0DEF7"/>
<path d="M151.449 321.001H151.181C150.714 321.001 150.338 320.622 150.338 320.158C150.338 319.694 150.717 319.315 151.181 319.315H151.449C151.915 319.315 152.292 319.694 152.292 320.158C152.292 320.622 151.913 321.001 151.449 321.001Z" fill="#D0DEF7"/>
<path d="M154.566 321.001H154.296C153.83 321.001 153.453 320.622 153.453 320.158C153.453 319.694 153.832 319.315 154.296 319.315H154.566C155.032 319.315 155.409 319.694 155.409 320.158C155.409 320.622 155.03 321.001 154.566 321.001Z" fill="#D0DEF7"/>
<path d="M157.81 321.001H157.54C157.074 321.001 156.697 320.622 156.697 320.158C156.697 319.694 157.076 319.315 157.54 319.315H157.81C158.277 319.315 158.653 319.694 158.653 320.158C158.653 320.622 158.274 321.001 157.81 321.001Z" fill="#D0DEF7"/>
<path d="M145.186 324.3H144.918C144.451 324.3 144.075 323.922 144.075 323.457C144.075 322.993 144.453 322.615 144.918 322.615H145.186C145.652 322.615 146.028 322.993 146.028 323.457C146.028 323.922 145.65 324.3 145.186 324.3Z" fill="#D0DEF7"/>
<path d="M148.305 324.3H148.035C147.569 324.3 147.192 323.922 147.192 323.457C147.192 322.993 147.571 322.615 148.035 322.615H148.305C148.771 322.615 149.148 322.993 149.148 323.457C149.148 323.922 148.769 324.3 148.305 324.3Z" fill="#D0DEF7"/>
<path d="M151.449 324.3H151.181C150.714 324.3 150.338 323.922 150.338 323.457C150.338 322.993 150.717 322.615 151.181 322.615H151.449C151.915 322.615 152.292 322.993 152.292 323.457C152.292 323.922 151.913 324.3 151.449 324.3Z" fill="#D0DEF7"/>
<path d="M162.715 321.987C160.586 319.857 157.135 319.857 155.008 321.987C152.879 324.116 152.879 327.567 155.008 329.694C157.137 331.823 160.588 331.823 162.715 329.694C164.845 327.565 164.845 324.114 162.715 321.987ZM156.524 323.502C157.54 322.486 159.054 322.273 160.283 322.858L155.879 327.262C155.294 326.033 155.507 324.519 156.524 323.502ZM161.2 328.178C160.183 329.195 158.669 329.408 157.44 328.823L161.844 324.419C162.429 325.648 162.216 327.162 161.2 328.178Z" fill="#EF6250"/>
</g>
<path d="M139.082 353.126V361.574H137.466V358.836H134.818C134.261 359.424 133.462 359.779 132.564 359.779C130.814 359.779 129.48 358.513 129.489 356.794C129.48 355.056 130.814 353.795 132.564 353.795C133.462 353.795 134.266 354.15 134.822 354.742H137.466V353.126H139.082ZM131.025 356.794C131.025 357.763 131.662 358.342 132.564 358.347C133.417 358.342 134.073 357.763 134.081 356.794C134.073 355.819 133.417 355.236 132.564 355.236C131.662 355.236 131.025 355.819 131.025 356.794ZM131.415 364.47V360.726H133.031V363.163H139.356V364.47H131.415ZM135.527 356.039C135.59 356.277 135.621 356.529 135.621 356.794C135.621 357.049 135.59 357.301 135.531 357.534H137.466V356.039H135.527ZM144.456 356.735C144.451 358.378 145.304 360.232 147.145 361.098L146.242 362.324C145.008 361.763 144.15 360.676 143.666 359.393C143.167 360.78 142.256 361.951 140.945 362.521L140.057 361.269C141.946 360.439 142.844 358.468 142.849 356.735V356.286H140.461V354.998H142.84V353.373H144.469V354.998H146.817V356.286H144.456V356.735ZM147.773 364.672V353.108H149.394V357.602H151.099V358.957H149.394V364.672H147.773ZM164.479 361.992V363.289H153.912V361.992H158.334V359.379H159.941V361.992H164.479ZM154.159 358.396C156.781 357.992 158.253 356.232 158.262 354.598V353.777H159.99V354.598C159.986 356.25 161.472 357.992 164.12 358.396L163.429 359.747C161.396 359.375 159.887 358.288 159.129 356.847C158.365 358.284 156.866 359.384 154.851 359.747L154.159 358.396ZM170.845 353.651V354.45H172.968V353.108H174.58V358.908H172.968V357.777H170.845V358.535H165.319V353.651H170.845ZM166.89 360.641V359.397H174.58V362.517H168.529V363.267H174.921V364.541H166.904V361.332H172.968V360.641H166.89ZM166.917 357.26H169.242V354.913H166.917V357.26ZM170.845 356.547H172.968V355.658H170.845V356.547ZM188.184 353.108V364.672H186.546V353.108H188.184ZM178.515 361.399C181.496 359.985 182.811 358.163 183.071 355.595H179.135V354.325H184.723C184.719 357.826 183.489 360.739 179.359 362.688L178.515 361.399ZM199.003 353.611V354.886H195.811C196 355.828 197.198 356.794 199.479 357.049L198.882 358.32C196.718 358.082 195.277 357.18 194.667 355.985C194.056 357.175 192.624 358.082 190.469 358.32L189.886 357.049C192.166 356.794 193.351 355.824 193.54 354.886H190.371V353.611H199.003ZM189.401 360.165V358.867H199.968V360.165H195.623V362.153H194.02V360.165H189.401ZM190.64 364.47V361.13H192.256V363.163H198.805V364.47H190.64Z" fill="#5767C6"/>
<path d="M133.113 381.309V390.5H131.958V382.502H131.907L129.673 383.987V382.832L131.958 381.309H133.113ZM144.214 380.255V388.608H143.211V384.698H139.961V383.898H143.211V382.54H139.961V381.74H143.211V380.255H144.214ZM144.518 390.449V391.287H136.939V387.897H137.942V390.449H144.518ZM136.533 381.067V386.082C138.088 386.076 139.586 385.993 141.306 385.676L141.408 386.501C139.567 386.844 138.031 386.92 136.381 386.933H135.53V381.067H136.533ZM154.633 381.359V388.697H149.415V381.359H154.633ZM150.393 382.159V387.885H153.656V382.159H150.393ZM158.061 380.242V391.554H157.058V380.242H158.061ZM165.391 381.271V386.463H160.173V381.271H165.391ZM161.151 382.083V385.663H164.426V382.083H161.151ZM168.514 380.242V383.683H170.215V384.521H168.514V388.52H167.524V380.242H168.514ZM169.034 390.449V391.287H161.455V387.732H162.433V390.449H169.034ZM171.819 389.281C171.375 389.281 170.994 388.913 171.007 388.456C170.994 388.012 171.375 387.644 171.819 387.644C172.264 387.644 172.632 388.012 172.632 388.456C172.632 388.913 172.264 389.281 171.819 389.281ZM171.819 384.178C171.375 384.178 170.994 383.81 171.007 383.353C170.994 382.908 171.375 382.54 171.819 382.54C172.264 382.54 172.632 382.908 172.632 383.353C172.632 383.81 172.264 384.178 171.819 384.178ZM180.246 381.309V390.5H179.09V382.502H179.04L176.805 383.987V382.832L179.09 381.309H180.246ZM191.346 380.255V388.608H190.343V384.698H187.093V383.898H190.343V382.54H187.093V381.74H190.343V380.255H191.346ZM191.651 390.449V391.287H184.072V387.897H185.075V390.449H191.651ZM183.665 381.067V386.082C185.221 386.076 186.719 385.993 188.439 385.676L188.54 386.501C186.7 386.844 185.163 386.92 183.513 386.933H182.662V381.067H183.665ZM205.574 381.537V382.362H196.421V381.537H200.534V380.179H201.512V381.537H205.574ZM206.222 387.555V388.38H201.512V391.554H200.534V388.38H195.888V387.555H206.222ZM201.029 383.01C203.327 383.01 204.711 383.683 204.711 384.901C204.711 386.095 203.327 386.768 201.029 386.78C198.719 386.768 197.335 386.095 197.348 384.901C197.335 383.683 198.719 383.01 201.029 383.01ZM201.029 383.771C199.341 383.771 198.363 384.19 198.376 384.901C198.363 385.6 199.341 386.006 201.029 386.006C202.692 386.006 203.67 385.6 203.683 384.901C203.67 384.19 202.692 383.771 201.029 383.771ZM220.12 389.23V390.056H209.786V389.23H214.407V386.463H215.384V389.23H220.12ZM215.41 381.88C215.41 383.771 217.644 385.422 219.612 385.765L219.168 386.59C217.447 386.241 215.632 385.073 214.902 383.441C214.159 385.066 212.357 386.241 210.636 386.59L210.192 385.765C212.16 385.422 214.369 383.771 214.369 381.88V381.017H215.41V381.88ZM226.497 380.852V381.766H229.075V380.242H230.065V386.044H229.075V384.584H226.497V385.46H221.254V380.852H226.497ZM222.245 381.651V384.66H225.52V381.651H222.245ZM230.065 386.615V389.319H223.768V390.576H230.496V391.376H222.778V388.558H229.075V387.415H222.752V386.615H230.065ZM226.497 383.784H229.075V382.54H226.497V383.784ZM133.113 399.309V408.5H131.958V400.502H131.907L129.673 401.987V400.832L131.958 399.309H133.113ZM144.214 398.255V406.608H143.211V402.698H139.961V401.898H143.211V400.54H139.961V399.74H143.211V398.255H144.214ZM144.518 408.449V409.287H136.939V405.897H137.942V408.449H144.518ZM136.533 399.067V404.082C138.088 404.076 139.586 403.993 141.306 403.676L141.408 404.501C139.567 404.844 138.031 404.92 136.381 404.933H135.53V399.067H136.533ZM158.061 398.242V409.554H157.058V398.242H158.061ZM152.056 399.118C153.732 399.131 154.938 400.654 154.938 403.054C154.938 405.453 153.732 406.977 152.056 406.977C150.368 406.977 149.174 405.453 149.174 403.054C149.174 400.654 150.368 399.131 152.056 399.118ZM152.056 400.007C150.926 400.02 150.139 401.213 150.139 403.054C150.139 404.895 150.926 406.088 152.056 406.088C153.186 406.088 153.973 404.895 153.973 403.054C153.973 401.213 153.186 400.02 152.056 400.007ZM163.461 400.07C163.461 401.606 164.629 403.016 166.267 403.574L165.721 404.361C164.47 403.904 163.487 402.971 162.991 401.797C162.509 403.124 161.506 404.171 160.186 404.679L159.653 403.879C161.341 403.244 162.471 401.733 162.484 399.994V398.826H163.461V400.07ZM168.514 398.242V401.188H170.215V402.025H168.514V405.11H167.524V398.242H168.514ZM164.896 405.402C167.219 405.402 168.615 406.151 168.615 407.446C168.615 408.767 167.219 409.503 164.896 409.503C162.572 409.503 161.151 408.767 161.151 407.446C161.151 406.151 162.572 405.402 164.896 405.402ZM164.896 406.202C163.195 406.202 162.141 406.672 162.154 407.446C162.141 408.246 163.195 408.703 164.896 408.716C166.61 408.703 167.651 408.246 167.651 407.446C167.651 406.672 166.61 406.202 164.896 406.202ZM171.819 407.281C171.375 407.281 170.994 406.913 171.007 406.456C170.994 406.012 171.375 405.644 171.819 405.644C172.264 405.644 172.632 406.012 172.632 406.456C172.632 406.913 172.264 407.281 171.819 407.281ZM171.819 402.178C171.375 402.178 170.994 401.81 171.007 401.353C170.994 400.908 171.375 400.54 171.819 400.54C172.264 400.54 172.632 400.908 172.632 401.353C172.632 401.81 172.264 402.178 171.819 402.178ZM182.467 399.359V406.697H177.25V399.359H182.467ZM178.227 400.159V405.885H181.49V400.159H178.227ZM185.895 398.242V409.554H184.892V398.242H185.895ZM197.859 407.23V408.056H187.525V407.23H192.146V404.463H193.123V407.23H197.859ZM193.149 399.88C193.149 401.771 195.383 403.422 197.351 403.765L196.907 404.59C195.186 404.241 193.371 403.073 192.641 401.441C191.898 403.066 190.096 404.241 188.375 404.59L187.931 403.765C189.899 403.422 192.108 401.771 192.108 399.88V399.017H193.149V399.88ZM204.237 398.852V399.766H206.814V398.242H207.804V404.044H206.814V402.584H204.237V403.46H198.993V398.852H204.237ZM199.984 399.651V402.66H203.259V399.651H199.984ZM207.804 404.615V407.319H201.507V408.576H208.236V409.376H200.517V406.558H206.814V405.415H200.491V404.615H207.804ZM204.237 401.784H206.814V400.54H204.237V401.784ZM210.094 404.996C210.106 402.597 210.754 400.604 211.922 398.915H212.887C212.023 400.172 211.224 402.736 211.224 404.996C211.224 407.256 212.023 409.833 212.887 411.09H211.922C210.754 409.389 210.106 407.396 210.094 404.996ZM222.832 398.242V409.554H221.829V398.242H222.832ZM216.827 399.118C218.503 399.131 219.709 400.654 219.709 403.054C219.709 405.453 218.503 406.977 216.827 406.977C215.138 406.977 213.945 405.453 213.945 403.054C213.945 400.654 215.138 399.131 216.827 399.118ZM216.827 400.007C215.697 400.02 214.91 401.213 214.91 403.054C214.91 404.895 215.697 406.088 216.827 406.088C217.957 406.088 218.744 404.895 218.744 403.054C218.744 401.213 217.957 400.02 216.827 400.007ZM233.767 398.255V404.907H232.764V404.285H230.479V403.625H232.764V398.255H233.767ZM224.423 402.508C226.607 402.521 229.4 402.495 231.838 402.229L231.901 402.876C230.796 403.035 229.648 403.13 228.524 403.181V404.945H227.546V403.219C226.48 403.257 225.458 403.263 224.538 403.257L224.423 402.508ZM233.767 405.313V407.649H227.178V408.665H234.135V409.401H226.201V406.951H232.777V406.037H226.15V405.313H233.767ZM228.105 398.471C229.781 398.471 230.898 399.131 230.911 400.172C230.898 401.226 229.781 401.86 228.105 401.86C226.404 401.86 225.299 401.226 225.299 400.172C225.299 399.131 226.404 398.471 228.105 398.471ZM228.105 399.169C226.963 399.169 226.226 399.562 226.239 400.172C226.226 400.769 226.963 401.175 228.105 401.175C229.235 401.175 229.971 400.769 229.971 400.172C229.971 399.562 229.235 399.169 228.105 399.169ZM238.215 404.996C238.203 407.396 237.555 409.389 236.387 411.09H235.422C236.286 409.833 237.085 407.256 237.085 404.996C237.085 402.736 236.286 400.172 235.422 398.915H236.387C237.555 400.604 238.203 402.597 238.215 404.996Z" fill="black"/>
<g clip-path="url(#clip5_279_651)">
<path d="M348 340.5C360.426 340.5 370.5 330.426 370.5 318C370.5 305.574 360.426 295.5 348 295.5C335.574 295.5 325.5 305.574 325.5 318C325.5 330.426 335.574 340.5 348 340.5Z" fill="#D0DEF7"/>
<path d="M355.36 307.438H340.272C338.451 307.438 336.975 308.914 336.975 310.735V325.822C336.975 327.643 338.451 329.119 340.272 329.119H355.36C357.181 329.119 358.657 327.643 358.657 325.822V310.735C358.657 308.914 357.181 307.438 355.36 307.438Z" fill="white"/>
<path d="M341.211 308.493V306.38C341.211 305.717 341.749 305.181 342.41 305.181C343.07 305.181 343.608 305.719 343.608 306.38V308.493C343.608 309.155 343.07 309.691 342.41 309.691C341.749 309.691 341.211 309.153 341.211 308.493Z" fill="#6270F4"/>
<path d="M346.617 308.493V306.38C346.617 305.717 347.155 305.181 347.816 305.181C348.477 305.181 349.015 305.719 349.015 306.38V308.493C349.015 309.155 348.477 309.691 347.816 309.691C347.155 309.691 346.617 309.153 346.617 308.493Z" fill="#6270F4"/>
<path d="M352.023 308.493V306.38C352.023 305.717 352.561 305.181 353.222 305.181C353.883 305.181 354.421 305.719 354.421 306.38V308.493C354.421 309.155 353.883 309.691 353.222 309.691C352.561 309.691 352.023 309.153 352.023 308.493Z" fill="#6270F4"/>
<path d="M341.686 314.683H341.418C340.951 314.683 340.575 314.304 340.575 313.84C340.575 313.375 340.953 312.997 341.418 312.997H341.686C342.152 312.997 342.528 313.375 342.528 313.84C342.528 314.304 342.15 314.683 341.686 314.683Z" fill="#D0DEF7"/>
<path d="M344.805 314.683H344.535C344.069 314.683 343.692 314.304 343.692 313.84C343.692 313.375 344.071 312.997 344.535 312.997H344.805C345.271 312.997 345.648 313.375 345.648 313.84C345.648 314.304 345.269 314.683 344.805 314.683Z" fill="#D0DEF7"/>
<path d="M347.949 314.683H347.681C347.215 314.683 346.838 314.304 346.838 313.84C346.838 313.375 347.217 312.997 347.681 312.997H347.949C348.415 312.997 348.792 313.375 348.792 313.84C348.792 314.304 348.413 314.683 347.949 314.683Z" fill="#D0DEF7"/>
<path d="M351.066 314.683H350.796C350.33 314.683 349.953 314.304 349.953 313.84C349.953 313.375 350.332 312.997 350.796 312.997H351.066C351.533 312.997 351.909 313.375 351.909 313.84C351.909 314.304 351.53 314.683 351.066 314.683Z" fill="#D0DEF7"/>
<path d="M354.31 314.683H354.04C353.574 314.683 353.198 314.304 353.198 313.84C353.198 313.375 353.576 312.997 354.04 312.997H354.31C354.777 312.997 355.153 313.375 355.153 313.84C355.153 314.304 354.775 314.683 354.31 314.683Z" fill="#D0DEF7"/>
<path d="M341.686 317.757H341.418C340.951 317.757 340.575 317.378 340.575 316.914C340.575 316.45 340.953 316.071 341.418 316.071H341.686C342.152 316.071 342.528 316.45 342.528 316.914C342.528 317.378 342.15 317.757 341.686 317.757Z" fill="#D0DEF7"/>
<path d="M344.805 317.757H344.535C344.069 317.757 343.692 317.378 343.692 316.914C343.692 316.45 344.071 316.071 344.535 316.071H344.805C345.271 316.071 345.648 316.45 345.648 316.914C345.648 317.378 345.269 317.757 344.805 317.757Z" fill="#D0DEF7"/>
<path d="M347.949 317.757H347.681C347.215 317.757 346.838 317.378 346.838 316.914C346.838 316.45 347.217 316.071 347.681 316.071H347.949C348.415 316.071 348.792 316.45 348.792 316.914C348.792 317.378 348.413 317.757 347.949 317.757Z" fill="#D0DEF7"/>
<path d="M351.066 317.757H350.796C350.33 317.757 349.953 317.378 349.953 316.914C349.953 316.45 350.332 316.071 350.796 316.071H351.066C351.533 316.071 351.909 316.45 351.909 316.914C351.909 317.378 351.53 317.757 351.066 317.757Z" fill="#D0DEF7"/>
<path d="M354.31 317.757H354.04C353.574 317.757 353.198 317.378 353.198 316.914C353.198 316.45 353.576 316.071 354.04 316.071H354.31C354.777 316.071 355.153 316.45 355.153 316.914C355.153 317.378 354.775 317.757 354.31 317.757Z" fill="#D0DEF7"/>
<path d="M341.686 321.001H341.418C340.951 321.001 340.575 320.622 340.575 320.158C340.575 319.694 340.953 319.315 341.418 319.315H341.686C342.152 319.315 342.528 319.694 342.528 320.158C342.528 320.622 342.15 321.001 341.686 321.001Z" fill="#D0DEF7"/>
<path d="M344.805 321.001H344.535C344.069 321.001 343.692 320.622 343.692 320.158C343.692 319.694 344.071 319.315 344.535 319.315H344.805C345.271 319.315 345.648 319.694 345.648 320.158C345.648 320.622 345.269 321.001 344.805 321.001Z" fill="#D0DEF7"/>
<path d="M347.949 321.001H347.681C347.215 321.001 346.838 320.622 346.838 320.158C346.838 319.694 347.217 319.315 347.681 319.315H347.949C348.415 319.315 348.792 319.694 348.792 320.158C348.792 320.622 348.413 321.001 347.949 321.001Z" fill="#D0DEF7"/>
<path d="M351.066 321.001H350.796C350.33 321.001 349.953 320.622 349.953 320.158C349.953 319.694 350.332 319.315 350.796 319.315H351.066C351.533 319.315 351.909 319.694 351.909 320.158C351.909 320.622 351.53 321.001 351.066 321.001Z" fill="#D0DEF7"/>
<path d="M354.31 321.001H354.04C353.574 321.001 353.198 320.622 353.198 320.158C353.198 319.694 353.576 319.315 354.04 319.315H354.31C354.777 319.315 355.153 319.694 355.153 320.158C355.153 320.622 354.775 321.001 354.31 321.001Z" fill="#D0DEF7"/>
<path d="M341.686 324.3H341.418C340.951 324.3 340.575 323.922 340.575 323.457C340.575 322.993 340.953 322.615 341.418 322.615H341.686C342.152 322.615 342.528 322.993 342.528 323.457C342.528 323.922 342.15 324.3 341.686 324.3Z" fill="#D0DEF7"/>
<path d="M344.805 324.3H344.535C344.069 324.3 343.692 323.922 343.692 323.457C343.692 322.993 344.071 322.615 344.535 322.615H344.805C345.271 322.615 345.648 322.993 345.648 323.457C345.648 323.922 345.269 324.3 344.805 324.3Z" fill="#D0DEF7"/>
<path d="M347.949 324.3H347.681C347.215 324.3 346.838 323.922 346.838 323.457C346.838 322.993 347.217 322.615 347.681 322.615H347.949C348.415 322.615 348.792 322.993 348.792 323.457C348.792 323.922 348.413 324.3 347.949 324.3Z" fill="#D0DEF7"/>
<path d="M358.745 318.246H351.747C350.815 318.246 350.058 319.003 350.058 319.935V325.266C350.058 326.198 350.815 326.955 351.747 326.955H353.887C353.977 326.955 354.063 326.986 354.132 327.039L357.012 329.297C357.272 329.502 357.644 329.265 357.569 328.941L357.215 327.442C357.155 327.193 357.346 326.953 357.601 326.953H358.743C359.675 326.953 360.432 326.196 360.432 325.264V319.933C360.432 319 359.675 318.244 358.743 318.244L358.745 318.246Z" fill="#EF6250"/>
<path d="M354.494 323.975H353.067C352.78 323.975 352.547 324.208 352.547 324.494C352.547 324.781 352.78 325.014 353.067 325.014H354.494C354.781 325.014 355.014 324.781 355.014 324.494C355.014 324.208 354.781 323.975 354.494 323.975Z" fill="white"/>
<path d="M357.158 322.144H353.067C352.78 322.144 352.547 322.377 352.547 322.664C352.547 322.95 352.78 323.183 353.067 323.183H357.158C357.444 323.183 357.677 322.95 357.677 322.664C357.677 322.377 357.444 322.144 357.158 322.144Z" fill="white"/>
<path d="M357.158 320.313H353.067C352.78 320.313 352.547 320.547 352.547 320.833C352.547 321.119 352.78 321.353 353.067 321.353H357.158C357.444 321.353 357.677 321.119 357.677 320.833C357.677 320.547 357.444 320.313 357.158 320.313Z" fill="white"/>
</g>
<path d="M336.38 359.095V360.377H325.843V359.095H330.299V357.901H331.898V359.095H336.38ZM335.098 361.151V364.668H333.485V362.434H327.011V361.151H335.098ZM331.898 353.128V354.156H335.364V355.438H332.025C332.197 356.289 333.371 357.051 335.91 357.203L335.415 358.435C333.295 358.282 331.822 357.66 331.099 356.721C330.369 357.66 328.896 358.282 326.782 358.435L326.287 357.203C328.813 357.051 329.988 356.289 330.172 355.438H326.858V354.156H330.299V353.128H331.898ZM341.285 355.4C341.285 356.784 342.136 358.193 344.04 358.765L343.215 360.034C341.92 359.628 341.006 358.796 340.485 357.749C339.958 358.885 339.019 359.799 337.667 360.25L336.829 358.98C338.746 358.358 339.635 356.86 339.635 355.4V355.235H337.261V353.94H343.608V355.235H341.285V355.4ZM346.452 353.128V361.481H344.827V353.128H346.452ZM346.757 363.17V364.465H338.708V360.72H340.346V363.17H346.757ZM360.147 353.128V361.57H358.535V358.828H355.894C355.335 359.418 354.529 359.78 353.634 359.78C351.882 359.78 350.549 358.511 350.562 356.797C350.549 355.058 351.882 353.801 353.634 353.788C354.529 353.794 355.329 354.15 355.894 354.74H358.535V353.128H360.147ZM360.426 363.17V364.465H352.479V360.72H354.104V363.17H360.426ZM353.634 355.235C352.733 355.235 352.085 355.819 352.098 356.797C352.085 357.762 352.733 358.346 353.634 358.346C354.485 358.346 355.145 357.762 355.145 356.797C355.145 355.819 354.485 355.235 353.634 355.235ZM356.592 356.035C356.649 356.276 356.681 356.53 356.681 356.797C356.681 357.051 356.649 357.298 356.592 357.533H358.535V356.035H356.592ZM365.522 356.733C365.522 358.371 366.372 360.237 368.213 361.101L367.312 362.319C366.08 361.767 365.223 360.675 364.735 359.387C364.239 360.777 363.325 361.951 362.018 362.522L361.129 361.266C363.008 360.44 363.909 358.473 363.922 356.733V356.289H361.535V354.994H363.909V353.369H365.534V354.994H367.883V356.289H365.522V356.733ZM370.46 353.115V357.597H372.161V358.955H370.46V364.668H368.835V353.115H370.46ZM384.968 353.115V364.668H383.431V353.115H384.968ZM382.606 353.306V364.135H381.083V358.384H379.559V357.076H381.083V353.306H382.606ZM378.633 356.213C378.633 358.13 379.229 360.072 380.918 361.037L379.966 362.23C378.937 361.621 378.258 360.586 377.871 359.349C377.471 360.694 376.773 361.837 375.713 362.484L374.735 361.291C376.436 360.25 377.071 358.168 377.071 356.213V355.591H375.179V354.296H380.385V355.591H378.633V356.213ZM395.332 358.282V359.564H391.98V362.027H396.487V363.348H385.912V362.027H390.368V359.564H387.156V353.928H395.243V355.223H388.781V358.282H395.332Z" fill="#5767C6"/>
<path d="M329.881 381.33C329.881 382.794 331.012 384.194 332.664 384.769L332.144 385.55C330.869 385.096 329.886 384.154 329.396 382.991C328.912 384.288 327.866 385.325 326.523 385.819L326.003 385.029C327.673 384.436 328.876 382.928 328.876 381.339V380.845H326.326V380.028H332.404V380.845H329.881V381.33ZM327.718 387.426V386.609H335.313V390.532H334.316V387.426H327.718ZM332.045 383.036V382.201H334.316V379.247H335.313V386.008H334.316V383.036H332.045ZM347.182 384.831V385.648H336.893V384.831H339.443V383.238C338.541 382.888 338.033 382.313 338.033 381.555C338.033 380.226 339.56 379.463 342.029 379.463C344.489 379.463 346.015 380.226 346.015 381.555C346.015 382.309 345.512 382.883 344.623 383.229V384.831H347.182ZM338.132 388.503C338.132 387.22 339.587 386.51 342.029 386.519C344.453 386.51 345.907 387.22 345.916 388.503C345.907 389.796 344.453 390.506 342.029 390.506C339.587 390.506 338.132 389.796 338.132 388.503ZM339.066 381.555C339.057 382.381 340.188 382.856 342.029 382.856C343.86 382.856 345 382.381 345 381.555C345 380.738 343.86 380.244 342.029 380.244C340.188 380.244 339.057 380.738 339.066 381.555ZM339.147 388.503C339.138 389.276 340.224 389.733 342.029 389.724C343.824 389.733 344.91 389.276 344.919 388.503C344.91 387.74 343.824 387.291 342.029 387.282C340.224 387.291 339.138 387.74 339.147 388.503ZM340.439 384.831H343.636V383.498C343.16 383.584 342.621 383.628 342.029 383.628C341.445 383.628 340.911 383.588 340.439 383.503V384.831Z" fill="black"/>
<path d="M100 470C100 467.239 102.239 465 105 465H935C937.761 465 940 467.239 940 470V527H100V470Z" fill="#F7F9FC"/>
<path d="M129.997 490.468V494.142H131.825V495.051H129.997V499.392H128.924V490.468H129.997ZM121.015 497.343V491.338H122.069V493.388H125.608V491.338H126.671V497.343H121.015ZM122.069 496.472H125.608V494.239H122.069V496.472ZM122.388 502.341V498.522H123.452V501.452H130.558V502.341H122.388ZM136.344 494.413C136.344 496.366 137.61 498.358 139.37 499.209L138.742 500.03C137.407 499.378 136.349 498.053 135.836 496.487C135.309 498.174 134.178 499.586 132.795 500.253L132.177 499.421C133.965 498.59 135.29 496.511 135.3 494.413V493.446H132.515V492.576H135.29V490.681H136.363V492.576H139.099V493.446H136.344V494.413ZM140.627 502.612V490.459H141.7V495.448H143.731V496.366H141.7V502.612H140.627Z" fill="black"/>
<rect x="220" y="484" width="40" height="24" rx="12" fill="#00AEAE"/>
<circle cx="232" cy="496" r="8" fill="#00AEAE"/>
<g filter="url(#filter0_d_279_651)">
<circle cx="248" cy="496" r="8" fill="white"/>
</g>
</g>
</g>
<defs>
<filter id="filter0_d_279_651" x="238" y="488" width="20" height="20" filterUnits="userSpaceOnUse" color-interpolation-filters="sRGB">
<feFlood flood-opacity="0" result="BackgroundImageFix"/>
<feColorMatrix in="SourceAlpha" type="matrix" values="0 0 0 0 0 0 0 0 0 0 0 0 0 0 0 0 0 0 127 0" result="hardAlpha"/>
<feOffset dy="2"/>
<feGaussianBlur stdDeviation="1"/>
<feComposite in2="hardAlpha" operator="out"/>
<feColorMatrix type="matrix" values="0 0 0 0 0 0 0 0 0 0 0 0 0 0 0 0 0 0 0.1 0"/>
<feBlend mode="normal" in2="BackgroundImageFix" result="effect1_dropShadow_279_651"/>
<feBlend mode="normal" in="SourceGraphic" in2="effect1_dropShadow_279_651" result="shape"/>
</filter>
<clipPath id="clip0_279_651">
<rect width="440" height="500" rx="16" fill="white"/>
</clipPath>
<clipPath id="clip1_279_651">
<rect x="60" y="60" width="482.979" height="681" rx="22" fill="white"/>
</clipPath>
<clipPath id="clip2_279_651">
<rect width="45" height="45" fill="white" transform="translate(129 127)"/>
</clipPath>
<clipPath id="clip3_279_651">
<rect width="45" height="45" fill="white" transform="translate(325.5 127)"/>
</clipPath>
<clipPath id="clip4_279_651">
<rect width="45" height="45" fill="white" transform="translate(129 295.5)"/>
</clipPath>
<clipPath id="clip5_279_651">
<rect width="45" height="45" fill="white" transform="translate(325.5 295.5)"/>
</clipPath>
</defs>
</svg>
