<svg width="440" height="500" viewBox="0 0 440 500" fill="none" xmlns="http://www.w3.org/2000/svg">
<g clip-path="url(#clip0_279_2298)">
<g filter="url(#filter0_d_279_2298)">
<g clip-path="url(#clip1_279_2298)">
<rect x="60" y="60" width="600" height="468" rx="22.1071" fill="white"/>
<path d="M102.976 96.672C102.976 97.088 102.88 97.392 102.688 97.584C102.496 97.776 102.192 97.872 101.776 97.872H91.52V93.056C91.52 92.7147 91.5947 92.4693 91.744 92.32C91.8933 92.1707 92.1387 92.096 92.48 92.096H102.976V96.672ZM103.984 100.656H98.368V103.712H96.768V100.656H90.512V99.216H103.984V100.656ZM101.376 96.432V93.536H93.12V96.432H101.376ZM103.056 106.576H91.6V102.08H93.2V105.136H103.056V106.576ZM117.588 106.528H115.988V98.864H113.444V105.376H111.844V93.68H110.596C110.255 93.68 110.015 93.7493 109.876 93.888C109.737 94.016 109.636 94.208 109.572 94.464L106.852 105.376H105.156L107.892 94.336C107.967 94.0267 108.052 93.744 108.148 93.488C108.255 93.232 108.388 93.0133 108.548 92.832C108.719 92.64 108.927 92.496 109.172 92.4C109.417 92.2933 109.727 92.24 110.1 92.24H113.444V97.392H115.988V92.064H117.588V106.528ZM132.2 100.96H130.44L128.152 94.432C128.056 94.1547 127.933 93.9573 127.784 93.84C127.635 93.7227 127.411 93.664 127.112 93.664H125.384C125.085 93.664 124.861 93.7227 124.712 93.84C124.563 93.9573 124.44 94.1547 124.344 94.432L122.056 100.96H120.296L122.952 93.664H120.52V92.224H131.976V93.664H129.544L132.2 100.96ZM132.984 105.568H119.512V104.128H125.448V99.52H127.048V104.128H132.984V105.568ZM144.028 105.28H134.236V103.84H138.3V102.08C137.329 101.952 136.593 101.595 136.092 101.008C135.591 100.421 135.34 99.6427 135.34 98.672V97.008C135.34 96.464 135.425 95.9893 135.596 95.584C135.777 95.168 136.033 94.8373 136.364 94.592H134.524V93.152H138.3V91.408H139.9V93.152H143.724V94.592H141.884C142.225 94.8267 142.471 95.152 142.62 95.568C142.78 95.984 142.86 96.464 142.86 97.008V98.672C142.86 99.6427 142.609 100.421 142.108 101.008C141.607 101.595 140.871 101.952 139.9 102.08V103.84H144.028V105.28ZM141.26 96.736C141.26 96.0533 141.095 95.5147 140.764 95.12C140.444 94.7147 139.889 94.512 139.1 94.512C138.311 94.512 137.751 94.7147 137.42 95.12C137.1 95.5147 136.94 96.0533 136.94 96.736V98.592C136.94 99.2747 137.1 99.8187 137.42 100.224C137.751 100.619 138.311 100.816 139.1 100.816C139.889 100.816 140.444 100.619 140.764 100.224C141.095 99.8187 141.26 99.2747 141.26 98.592V96.736ZM146.428 106.528H144.828V92.064H146.428V106.528Z" fill="black"/>
<g filter="url(#filter1_d_279_2298)">
<rect x="89" y="140" width="476" height="425" rx="11" fill="white"/>
<rect x="89.5" y="140.5" width="475" height="424" rx="10.5" stroke="#EEEEEE"/>
</g>
<rect x="128.5" y="397.5" width="379" height="127" fill="white"/>
<rect x="128.5" y="397.5" width="379" height="127" stroke="#DDDDDD"/>
<path d="M153.669 449.288V458.913H152.691V453.972H151.542V458.44H150.575V449.471H151.542V453.112H152.691V449.288H153.669ZM148.276 451.834C148.276 453.563 148.932 455.132 150.328 455.852L149.727 456.636C148.781 456.125 148.147 455.229 147.804 454.111C147.476 455.379 146.837 456.389 145.859 456.969L145.226 456.195C146.633 455.4 147.288 453.746 147.288 451.834V451.211H145.483V450.384H149.952V451.211H148.276V451.834ZM158.719 449.976V450.803H155.936V451.877H158.611V452.661H155.936V453.832C157.225 453.821 158.074 453.773 159.062 453.585L159.159 454.423C158.031 454.638 157.118 454.681 155.582 454.67H154.959V449.976H158.719ZM162.768 449.299V455.143H161.802V452.575H160.62V455.067H159.664V449.471H160.62V451.748H161.802V449.299H162.768ZM162.768 455.604V458.913H161.759V456.432H156.226V455.604H162.768ZM173.845 449.857V450.62C173.845 451.437 173.845 452.393 173.609 453.66H174.962V454.498H166.154V453.66H172.578C172.83 452.409 172.835 451.496 172.835 450.685H167.26V449.857H173.845ZM174.135 457.871V458.709H167.303V455.497H168.313V457.871H174.135ZM184.158 454.81V455.637H180.227V458.902H179.228V455.637H175.35V454.81H184.158ZM183.052 449.804V453.585H176.456V449.804H183.052ZM177.455 450.62V452.79H182.031V450.62H177.455ZM188.102 451.737C188.091 453.499 189.154 455.261 190.647 455.927L190.035 456.732C188.929 456.206 188.053 455.126 187.607 453.811C187.156 455.218 186.27 456.383 185.115 456.947L184.492 456.088C186.007 455.411 187.07 453.574 187.07 451.737V450.094H188.102V451.737ZM192.538 449.288V458.935H191.518V449.288H192.538ZM202.056 449.288V458.913H201.079V449.288H202.056ZM200.101 449.471V458.44H199.124V453.8H198.039C197.953 455.68 197.147 456.851 195.955 456.84C194.698 456.851 193.882 455.529 193.882 453.445C193.882 451.361 194.698 450.051 195.955 450.062C197.126 450.051 197.921 451.163 198.039 452.973H199.124V449.471H200.101ZM195.955 451.018C195.257 451.018 194.827 451.909 194.827 453.445C194.827 454.981 195.257 455.873 195.955 455.873C196.664 455.873 197.104 454.981 197.104 453.445C197.104 451.909 196.664 451.018 195.955 451.018ZM213.327 449.288V458.913H212.306V449.288H213.327ZM205.42 456.292C206.21 456.287 207.118 456.281 208.063 456.249V455.293C206.935 455.148 206.204 454.487 206.215 453.542C206.204 452.457 207.15 451.737 208.546 451.737C209.954 451.737 210.92 452.457 210.92 453.542C210.92 454.477 210.19 455.132 209.073 455.282V456.217C209.964 456.179 210.867 456.109 211.715 456.002L211.79 456.765C209.653 457.119 207.322 457.141 205.56 457.141L205.42 456.292ZM211.5 450.438V451.254H205.624V450.438H208.063V449.31H209.083V450.438H211.5ZM208.546 452.532C207.741 452.532 207.171 452.93 207.182 453.542C207.171 454.154 207.741 454.53 208.546 454.53C209.373 454.53 209.943 454.154 209.943 453.542C209.943 452.93 209.373 452.532 208.546 452.532ZM217.914 451.737C217.904 453.445 218.892 455.186 220.331 455.884L219.697 456.7C218.65 456.158 217.839 455.078 217.42 453.789C216.985 455.164 216.142 456.313 215.046 456.883L214.412 456.056C215.895 455.347 216.894 453.499 216.894 451.737V450.094H217.914V451.737ZM222.071 449.288V453.123H223.618V453.993H222.071V458.913H221.051V449.288H222.071ZM232.062 449.288V458.913H231.085V449.288H232.062ZM230.107 449.471V458.44H229.13V453.8H228.045C227.959 455.68 227.153 456.851 225.961 456.84C224.704 456.851 223.888 455.529 223.888 453.445C223.888 451.361 224.704 450.051 225.961 450.062C227.132 450.051 227.927 451.163 228.045 452.973H229.13V449.471H230.107ZM225.961 451.018C225.263 451.018 224.833 451.909 224.833 453.445C224.833 454.981 225.263 455.873 225.961 455.873C226.67 455.873 227.11 454.981 227.11 453.445C227.11 451.909 226.67 451.018 225.961 451.018ZM236.457 451.737C236.457 453.499 237.445 455.25 238.917 455.916L238.294 456.732C237.198 456.185 236.376 455.094 235.952 453.778C235.528 455.164 234.684 456.335 233.578 456.915L232.933 456.088C234.427 455.379 235.426 453.521 235.426 451.737V450.094H236.457V451.737ZM241.012 449.288V458.935H240.002V453.316H237.853V452.489H240.002V449.288H241.012ZM252.84 449.288V458.913H251.863V449.288H252.84ZM250.885 449.492V458.43H249.918V453.531H248.425V452.693H249.918V449.492H250.885ZM247.48 451.974C247.48 453.617 248.146 455.261 249.499 456.045L248.887 456.797C247.969 456.249 247.335 455.277 247.007 454.111C246.658 455.368 246.003 456.437 245.063 457.022L244.44 456.26C245.804 455.433 246.502 453.682 246.502 451.974V451.2H244.73V450.373H249.134V451.2H247.48V451.974ZM258.126 455.336C260.21 455.336 261.521 455.991 261.531 457.119C261.521 458.236 260.21 458.902 258.126 458.892C256.064 458.902 254.742 458.236 254.742 457.119C254.742 455.991 256.064 455.336 258.126 455.336ZM258.126 456.109C256.665 456.109 255.752 456.485 255.763 457.119C255.752 457.742 256.665 458.107 258.126 458.107C259.598 458.107 260.511 457.742 260.522 457.119C260.511 456.485 259.598 456.109 258.126 456.109ZM261.456 449.761V450.566C261.456 451.34 261.456 452.135 261.188 453.123L260.189 453.016C260.446 452.033 260.446 451.324 260.446 450.577H254.818V449.761H261.456ZM262.552 453.714V454.541H253.797V453.714H257.31V451.909H258.309V453.714H262.552ZM270.491 449.288V453.188H272.038V454.036H270.491V458.913H269.481V449.288H270.491ZM268.644 450.792V451.63H262.939V450.792H265.313V449.417H266.334V450.792H268.644ZM265.829 452.339C267.204 452.339 268.214 453.263 268.225 454.573C268.214 455.895 267.204 456.808 265.829 456.818C264.443 456.808 263.434 455.895 263.434 454.573C263.434 453.263 264.443 452.339 265.829 452.339ZM265.829 453.177C265.013 453.177 264.4 453.746 264.411 454.573C264.4 455.411 265.013 455.97 265.829 455.959C266.646 455.97 267.247 455.411 267.247 454.573C267.247 453.746 266.646 453.177 265.829 453.177ZM279.988 452.103V452.919H273.36V449.632H274.37V452.103H279.988ZM280.998 454.133V454.949H272.189V454.133H280.998ZM280.053 457.85V458.688H273.285V455.862H274.305V457.85H280.053ZM291.484 449.857V450.62C291.484 451.437 291.484 452.393 291.247 453.66H292.601V454.498H283.792V453.66H290.216C290.469 452.409 290.474 451.496 290.474 450.685H284.899V449.857H291.484ZM291.774 457.871V458.709H284.942V455.497H285.952V457.871H291.774ZM297.221 450.362V451.179H294.342V452.897H297.06V453.703H294.342V455.733C295.642 455.728 296.501 455.674 297.522 455.508L297.608 456.346C296.48 456.55 295.545 456.593 294.009 456.593H293.364V450.362H297.221ZM301.281 449.288V458.913H300.304V453.939H299.144V458.44H298.166V449.471H299.144V453.112H300.304V449.288H301.281ZM307.566 450.019V450.556C307.556 451.2 307.556 452.156 307.319 453.402L306.31 453.306C306.519 452.237 306.551 451.463 306.567 450.856H302.711V450.019H307.566ZM305.106 452.178V454.165C306.138 454.133 307.201 454.058 308.168 453.918L308.232 454.659C306.224 455.014 303.925 455.046 302.228 455.057L302.131 454.229C302.722 454.224 303.393 454.219 304.097 454.197V452.178H305.106ZM309.822 449.288V452.35H311.144V453.209H309.822V456.518H308.78V449.288H309.822ZM310.134 457.882V458.709H303.592V455.862H304.612V457.882H310.134ZM319.405 449.288V458.935H318.385V449.288H319.405ZM316.462 450.158V453.671H313.003V455.776C314.56 455.771 315.925 455.701 317.536 455.433L317.633 456.271C315.925 456.561 314.474 456.625 312.777 456.625H311.961V452.854H315.42V450.985H311.95V450.158H316.462ZM324.154 451.737C324.143 453.499 325.207 455.261 326.7 455.927L326.087 456.732C324.981 456.206 324.106 455.126 323.66 453.811C323.209 455.218 322.322 456.383 321.168 456.947L320.545 456.088C322.059 455.411 323.123 453.574 323.123 451.737V450.094H324.154V451.737ZM328.59 449.288V458.935H327.57V449.288H328.59ZM334.714 450.652C334.714 452.221 336.39 453.703 338.238 454.036L337.765 454.885C336.229 454.552 334.811 453.542 334.188 452.188C333.554 453.531 332.142 454.541 330.6 454.885L330.149 454.036C331.975 453.692 333.64 452.221 333.64 450.652V449.922H334.714V450.652ZM338.635 456.797V457.646H329.827V456.797H338.635ZM343.126 449.9V450.738H340.441V451.78H342.75V452.575H340.441V453.725C341.708 453.714 342.551 453.666 343.534 453.488L343.631 454.294C342.525 454.498 341.612 454.541 340.086 454.541H339.463V449.9H343.126ZM347.24 449.288V455.067H346.274V449.288H347.24ZM345.35 449.449V454.992H344.383V452.5H343.191V451.673H344.383V449.449H345.35ZM347.24 455.497V458.795H340.806V455.497H347.24ZM341.826 456.303V457.968H346.241V456.303H341.826ZM352.623 449.449C354.793 449.449 356.061 450.029 356.061 451.104C356.061 452.178 354.793 452.769 352.623 452.769C350.453 452.769 349.186 452.178 349.186 451.104C349.186 450.029 350.453 449.449 352.623 449.449ZM352.623 450.201C351.087 450.201 350.238 450.534 350.249 451.104C350.238 451.694 351.087 452.006 352.623 452.006C354.159 452.006 355.008 451.694 355.008 451.104C355.008 450.534 354.159 450.201 352.623 450.201ZM357.017 453.359V454.176H348.24V453.359H357.017ZM355.91 454.917V457.173H350.303V458.032H356.179V458.816H349.304V456.432H354.9V455.68H349.293V454.917H355.91ZM363.173 451.737C363.163 453.445 364.151 455.186 365.59 455.884L364.957 456.7C363.909 456.158 363.098 455.078 362.679 453.789C362.244 455.164 361.401 456.313 360.305 456.883L359.671 456.056C361.154 455.347 362.153 453.499 362.153 451.737V450.094H363.173V451.737ZM367.331 449.288V453.123H368.878V453.993H367.331V458.913H366.31V449.288H367.331ZM377.816 453.982V454.81H369.039V453.982H371.145V452.683C370.404 452.382 369.985 451.898 369.985 451.265C369.985 450.126 371.306 449.46 373.422 449.46C375.528 449.46 376.86 450.126 376.86 451.265C376.86 451.898 376.435 452.387 375.689 452.683V453.982H377.816ZM373.422 455.465C375.496 455.465 376.742 456.077 376.742 457.173C376.742 458.29 375.496 458.892 373.422 458.892C371.328 458.892 370.081 458.29 370.081 457.173C370.081 456.077 371.328 455.465 373.422 455.465ZM373.422 456.249C371.951 456.249 371.113 456.582 371.113 457.173C371.113 457.774 371.951 458.118 373.422 458.107C374.872 458.118 375.721 457.774 375.721 457.173C375.721 456.582 374.872 456.249 373.422 456.249ZM373.422 450.244C371.929 450.244 371.027 450.62 371.038 451.265C371.027 451.909 371.929 452.274 373.422 452.274C374.915 452.274 375.807 451.909 375.807 451.265C375.807 450.62 374.915 450.244 373.422 450.244ZM372.176 453.982H374.679V452.951C374.303 453.016 373.879 453.048 373.422 453.048C372.971 453.048 372.552 453.016 372.176 452.962V453.982ZM385.809 449.256V451.512H387.216V452.35H385.809V454.552H384.788V449.256H385.809ZM385.809 455.003V457.237H380.61V458.043H386.142V458.816H379.611V456.518H384.799V455.766H379.589V455.003H385.809ZM383.993 450.104V450.91H378.257V450.104H380.62V449.202H381.641V450.104H383.993ZM381.125 451.275C382.532 451.275 383.456 451.877 383.456 452.854C383.456 453.832 382.532 454.423 381.125 454.423C379.707 454.423 378.783 453.832 378.783 452.854C378.783 451.877 379.707 451.275 381.125 451.275ZM381.125 452.006C380.298 452.006 379.761 452.339 379.772 452.854C379.761 453.37 380.298 453.682 381.125 453.682C381.952 453.682 382.489 453.37 382.5 452.854C382.489 452.339 381.952 452.006 381.125 452.006ZM397.863 449.299V455.766H396.843V452.79H394.877V451.952H396.843V449.299H397.863ZM394.812 450.04C394.812 452.554 393.255 454.315 390.429 455.207L389.978 454.401C392.24 453.719 393.529 452.473 393.727 450.867H390.472V450.04H394.812ZM395.199 455.368C395.199 456.668 396.563 457.742 398.368 458.054L397.949 458.859C396.488 458.602 395.269 457.866 394.694 456.808C394.103 457.871 392.868 458.607 391.396 458.881L390.999 458.064C392.814 457.774 394.179 456.679 394.189 455.368V454.971H395.199V455.368ZM403.428 449.449C405.598 449.449 406.866 450.029 406.866 451.104C406.866 452.178 405.598 452.769 403.428 452.769C401.258 452.769 399.991 452.178 399.991 451.104C399.991 450.029 401.258 449.449 403.428 449.449ZM403.428 450.201C401.892 450.201 401.044 450.534 401.054 451.104C401.044 451.694 401.892 452.006 403.428 452.006C404.964 452.006 405.813 451.694 405.813 451.104C405.813 450.534 404.964 450.201 403.428 450.201ZM407.822 453.359V454.176H399.046V453.359H407.822ZM406.715 454.917V457.173H401.108V458.032H406.984V458.816H400.109V456.432H405.706V455.68H400.098V454.917H406.715ZM414.108 451.737C414.108 453.499 415.096 455.25 416.568 455.916L415.945 456.732C414.849 456.185 414.027 455.094 413.603 453.778C413.178 455.164 412.335 456.335 411.229 456.915L410.584 456.088C412.077 455.379 413.076 453.521 413.076 451.737V450.094H414.108V451.737ZM418.662 449.288V458.935H417.653V453.316H415.504V452.489H417.653V449.288H418.662ZM428.771 450.695V451.533H427.407V452.758H428.771V453.617H427.407V454.992H426.387V449.288H427.407V450.695H428.771ZM427.407 455.422V458.913H426.387V456.249H421.048V455.422H427.407ZM422.552 449.847C424.023 449.847 425.108 450.792 425.119 452.146C425.108 453.499 424.023 454.444 422.552 454.444C421.08 454.444 419.984 453.499 419.995 452.146C419.984 450.792 421.08 449.847 422.552 449.847ZM422.552 450.717C421.649 450.717 420.983 451.286 420.994 452.146C420.983 453.016 421.649 453.585 422.552 453.574C423.454 453.585 424.12 453.016 424.12 452.146C424.12 451.286 423.454 450.717 422.552 450.717ZM436.55 449.288V453.188H438.096V454.036H436.55V458.913H435.54V449.288H436.55ZM434.702 450.792V451.63H428.998V450.792H431.372V449.417H432.392V450.792H434.702ZM431.888 452.339C433.263 452.339 434.272 453.263 434.283 454.573C434.272 455.895 433.263 456.808 431.888 456.818C430.502 456.808 429.492 455.895 429.492 454.573C429.492 453.263 430.502 452.339 431.888 452.339ZM431.888 453.177C431.071 453.177 430.459 453.746 430.47 454.573C430.459 455.411 431.071 455.97 431.888 455.959C432.704 455.97 433.305 455.411 433.305 454.573C433.305 453.746 432.704 453.177 431.888 453.177ZM443.103 450.212V451.555H445.273V449.288H446.283V458.935H445.273V455.024H443.103V456.507H438.634V450.212H443.103ZM439.644 451.007V455.69H442.104V451.007H439.644ZM443.103 454.197H445.273V452.393H443.103V454.197ZM449.195 457.259L448.335 460.224H447.422L447.992 457.259H449.195ZM149.071 465.146C149.071 466.06 149.931 466.844 151.338 467.145L150.919 467.939C149.812 467.692 149.001 467.139 148.577 466.403C148.164 467.204 147.336 467.805 146.192 468.068L145.763 467.273C147.181 466.973 148.051 466.103 148.051 465.146H145.978V464.341H148.051V463.31H149.071V464.341H151.134V465.146H149.071ZM153.357 463.299V472.913H152.348V463.299H153.357ZM145.344 468.659C147.17 468.659 149.587 468.648 151.682 468.38L151.757 469.121C150.876 469.266 149.968 469.357 149.082 469.411V472.623H148.062V469.465C147.138 469.502 146.257 469.508 145.483 469.508L145.344 468.659ZM157.225 463.729C158.493 463.718 159.471 464.454 159.685 465.533H161.565V463.288H162.586V468.455H161.565V466.371H159.696C159.487 467.478 158.504 468.219 157.225 468.219C155.754 468.219 154.701 467.295 154.701 465.963C154.701 464.652 155.754 463.718 157.225 463.729ZM157.225 464.577C156.312 464.577 155.679 465.136 155.679 465.963C155.679 466.79 156.312 467.359 157.225 467.359C158.117 467.359 158.751 466.79 158.751 465.963C158.751 465.136 158.117 464.577 157.225 464.577ZM157.322 468.917V470.034H161.565V468.917H162.586V472.795H156.312V468.917H157.322ZM157.322 471.957H161.565V470.84H157.322V471.957ZM171.352 463.879V464.577C171.352 465.431 171.352 466.521 171.094 468.058H172.545V468.896H170.299V472.902H169.29V468.896H166.98V472.902H165.96V468.896H163.768V468.058H170.063C170.348 466.607 170.364 465.539 170.364 464.717H164.864V463.879H171.352ZM176.552 465.404C176.552 466.575 177.508 467.671 178.98 468.101L178.496 468.896C177.358 468.562 176.509 467.848 176.069 466.93C175.634 467.934 174.785 468.713 173.63 469.078L173.125 468.272C174.629 467.8 175.532 466.65 175.532 465.404V465.232H173.394V464.405H175.532V463.245H176.563V464.405H178.679V465.232H176.552V465.404ZM180.956 463.288V469.196H179.936V463.288H180.956ZM180.956 469.669V472.913H179.936V470.496H174.436V469.669H180.956ZM190.464 463.288V472.913H189.487V463.288H190.464ZM188.509 463.471V472.44H187.531V467.8H186.446C186.361 469.68 185.555 470.851 184.362 470.84C183.106 470.851 182.289 469.529 182.289 467.445C182.289 465.361 183.106 464.051 184.362 464.062C185.533 464.051 186.328 465.163 186.446 466.973H187.531V463.471H188.509ZM184.362 465.018C183.664 465.018 183.235 465.909 183.235 467.445C183.235 468.981 183.664 469.873 184.362 469.873C185.071 469.873 185.512 468.981 185.512 467.445C185.512 465.909 185.071 465.018 184.362 465.018ZM196.932 463.729C198.383 463.729 199.435 464.534 199.435 465.727C199.435 466.908 198.383 467.725 196.932 467.714C195.482 467.725 194.451 466.908 194.451 465.727C194.451 464.534 195.482 463.729 196.932 463.729ZM196.932 464.556C196.062 464.556 195.429 465.018 195.439 465.727C195.429 466.425 196.062 466.887 196.932 466.876C197.824 466.887 198.458 466.425 198.458 465.727C198.458 465.018 197.824 464.556 196.932 464.556ZM201.777 463.299V472.913H200.767V463.299H201.777ZM193.763 468.466C195.536 468.466 197.996 468.423 200.101 468.111L200.177 468.874C199.301 469.041 198.388 469.143 197.502 469.207V472.612H196.481V469.261C195.547 469.304 194.666 469.309 193.903 469.314L193.763 468.466ZM204.27 464.18V466.479H206.107V464.18H207.052V470.539H203.303V464.18H204.27ZM204.27 469.712H206.107V467.284H204.27V469.712ZM211.263 463.288V472.913H210.286V467.896H209.093V472.44H208.127V463.471H209.093V467.059H210.286V463.288H211.263ZM217.924 467.359V468.197H215.894V469.98C216.786 469.938 217.683 469.878 218.526 469.787L218.601 470.539C216.485 470.861 214.197 470.883 212.371 470.894L212.242 470.045C213.053 470.045 213.95 470.04 214.873 470.013V468.197H212.94V464.18H217.881V465.007H213.95V467.359H217.924ZM220.148 463.288V472.935H219.127V463.288H220.148ZM229.183 466.103V466.919H222.555V463.632H223.565V466.103H229.183ZM230.193 468.133V468.949H221.384V468.133H230.193ZM229.247 471.85V472.688H222.48V469.862H223.5V471.85H229.247ZM241.269 464.319V465.136H233.438V464.319H236.865V463.245H237.875V464.319H241.269ZM241.796 469.443V470.271H239.572V472.924H238.541V470.271H236.221V472.924H235.2V470.271H232.987V469.443H241.796ZM237.37 465.63C239.368 465.63 240.571 466.199 240.571 467.241C240.571 468.272 239.368 468.853 237.37 468.853C235.361 468.853 234.158 468.272 234.169 467.241C234.158 466.199 235.361 465.63 237.37 465.63ZM237.37 466.403C235.984 466.414 235.221 466.693 235.221 467.241C235.221 467.778 235.984 468.068 237.37 468.068C238.745 468.068 239.508 467.778 239.518 467.241C239.508 466.693 238.745 466.414 237.37 466.403ZM250.465 463.288V472.913H249.499V463.288H250.465ZM248.435 463.535V472.44H247.468V467.972H245.588C245.014 469.089 244.101 470.066 242.742 470.861L242.162 470.131C244.203 468.917 245.186 467.3 245.363 465.318H242.613V464.48H246.373C246.367 465.42 246.238 466.317 245.943 467.155H247.468V463.535H248.435ZM254.935 465.737C254.924 467.499 255.988 469.261 257.481 469.927L256.869 470.732C255.762 470.206 254.887 469.126 254.441 467.811C253.99 469.218 253.103 470.383 251.949 470.947L251.326 470.088C252.84 469.411 253.904 467.574 253.904 465.737V464.094H254.935V465.737ZM259.371 463.288V472.935H258.351V463.288H259.371ZM268.17 463.288V466.135H269.567V466.983H268.17V470.281H267.139V463.288H268.17ZM265.56 464.019C265.56 466.543 263.841 468.38 261.027 469.229L260.597 468.412C262.847 467.735 264.249 466.457 264.453 464.867H261.005V464.019H265.56ZM268.568 471.882V472.709H262.058V469.562H263.089V471.882H268.568ZM277.281 463.9V467.854H272.705V463.9H277.281ZM273.704 464.717V467.059H276.271V464.717H273.704ZM280.171 463.288V468.788H279.161V463.288H280.171ZM280.396 469.411V470.185H277.582C277.652 471.022 278.989 471.898 280.74 472.097L280.396 472.881C278.887 472.704 277.646 472.054 277.066 471.205C276.475 472.064 275.208 472.693 273.693 472.881L273.339 472.097C275.09 471.93 276.459 471.044 276.529 470.185H273.725V469.411H276.551V468.509H277.56V469.411H280.396ZM291.484 463.857V464.62C291.484 465.437 291.484 466.393 291.247 467.66H292.601V468.498H283.792V467.66H290.216C290.469 466.409 290.474 465.496 290.474 464.685H284.899V463.857H291.484ZM291.774 471.871V472.709H284.942V469.497H285.952V471.871H291.774ZM301.797 468.81V469.637H297.865V472.902H296.866V469.637H292.988V468.81H301.797ZM300.691 463.804V467.585H294.095V463.804H300.691ZM295.094 464.62V466.79H299.67V464.62H295.094ZM306.751 463.438V464.276H311.209V463.438H312.229V466.629H305.741V463.438H306.751ZM306.751 465.855H311.209V465.028H306.751V465.855ZM313.368 467.327V468.154H309.479V468.981H312.262V471.227H306.654V472.032H312.53V472.816H305.655V470.496H311.252V469.744H305.644V468.981H308.459V468.154H304.592V467.327H313.368ZM321.769 463.288V472.935H320.749V463.288H321.769ZM316.624 464.008C318.052 464.008 319.105 465.318 319.105 467.381C319.105 469.454 318.052 470.765 316.624 470.765C315.173 470.765 314.131 469.454 314.131 467.381C314.131 465.318 315.173 464.008 316.624 464.008ZM316.624 464.921C315.732 464.921 315.12 465.866 315.12 467.381C315.12 468.906 315.732 469.852 316.624 469.852C317.504 469.852 318.117 468.906 318.117 467.381C318.117 465.866 317.504 464.921 316.624 464.921ZM331.212 463.288V469.357H330.246V466.672H329.128V469.024H328.172V463.471H329.128V465.834H330.246V463.288H331.212ZM327.818 464.384V465.189H322.952V464.384H324.896V463.363H325.906V464.384H327.818ZM325.39 465.641C326.615 465.641 327.474 466.296 327.474 467.295C327.474 468.294 326.615 468.949 325.39 468.949C324.187 468.949 323.328 468.294 323.328 467.295C323.328 466.296 324.187 465.641 325.39 465.641ZM325.39 466.393C324.713 466.393 324.241 466.747 324.241 467.295C324.241 467.843 324.713 468.208 325.39 468.208C326.088 468.208 326.55 467.843 326.55 467.295C326.55 466.747 326.088 466.393 325.39 466.393ZM327.99 469.497C330.031 469.497 331.255 470.109 331.266 471.205C331.255 472.279 330.031 472.902 327.99 472.892C325.949 472.902 324.724 472.279 324.735 471.205C324.724 470.109 325.949 469.497 327.99 469.497ZM327.99 470.281C326.561 470.281 325.734 470.604 325.745 471.205C325.734 471.785 326.561 472.118 327.99 472.107C329.429 472.118 330.235 471.785 330.246 471.205C330.235 470.604 329.429 470.281 327.99 470.281ZM335.746 465.737C335.736 467.499 336.799 469.261 338.292 469.927L337.68 470.732C336.573 470.206 335.698 469.126 335.252 467.811C334.801 469.218 333.915 470.383 332.76 470.947L332.137 470.088C333.652 469.411 334.715 467.574 334.715 465.737V464.094H335.746V465.737ZM340.183 463.288V472.935H339.162V463.288H340.183ZM345.964 463.438V464.276H350.422V463.438H351.442V466.629H344.954V463.438H345.964ZM345.964 465.855H350.422V465.028H345.964V465.855ZM352.581 467.327V468.154H348.692V468.981H351.474V471.227H345.867V472.032H351.743V472.816H344.868V470.496H350.465V469.744H344.857V468.981H347.672V468.154H343.804V467.327H352.581ZM360.982 463.288V472.935H359.962V463.288H360.982ZM355.837 464.008C357.265 464.008 358.318 465.318 358.318 467.381C358.318 469.454 357.265 470.765 355.837 470.765C354.386 470.765 353.344 469.454 353.344 467.381C353.344 465.318 354.386 464.008 355.837 464.008ZM355.837 464.921C354.945 464.921 354.333 465.866 354.333 467.381C354.333 468.906 354.945 469.852 355.837 469.852C356.717 469.852 357.33 468.906 357.33 467.381C357.33 465.866 356.717 464.921 355.837 464.921ZM370.2 469.486V472.913H369.179V470.313H363.679V469.486H370.2ZM370.2 463.288V468.992H369.179V463.288H370.2ZM364.979 463.847C366.451 463.847 367.536 464.792 367.536 466.146C367.536 467.499 366.451 468.444 364.979 468.444C363.507 468.444 362.412 467.499 362.412 466.146C362.412 464.792 363.507 463.847 364.979 463.847ZM364.979 464.717C364.066 464.717 363.411 465.286 363.411 466.146C363.411 467.016 364.066 467.585 364.979 467.574C365.881 467.585 366.537 467.016 366.537 466.146C366.537 465.286 365.881 464.717 364.979 464.717ZM375.808 463.449C377.978 463.449 379.245 464.029 379.245 465.104C379.245 466.178 377.978 466.769 375.808 466.769C373.638 466.769 372.37 466.178 372.37 465.104C372.37 464.029 373.638 463.449 375.808 463.449ZM375.808 464.201C374.272 464.201 373.423 464.534 373.434 465.104C373.423 465.694 374.272 466.006 375.808 466.006C377.344 466.006 378.193 465.694 378.193 465.104C378.193 464.534 377.344 464.201 375.808 464.201ZM380.201 467.359V468.176H371.425V467.359H380.201ZM379.095 468.917V471.173H373.488V472.032H379.363V472.816H372.488V470.432H378.085V469.68H372.478V468.917H379.095ZM390.58 463.288V465.565H391.976V466.414H390.58V468.906H389.559V463.288H390.58ZM384.392 463.836V465.232H386.917V463.836H387.927V468.348H383.393V463.836H384.392ZM384.392 467.542H386.917V466.038H384.392V467.542ZM390.655 469.411V470.228H385.467V471.968H390.827V472.773H384.446V469.411H390.655ZM396.607 463.449C398.777 463.449 400.045 464.029 400.045 465.104C400.045 466.178 398.777 466.769 396.607 466.769C394.437 466.769 393.17 466.178 393.17 465.104C393.17 464.029 394.437 463.449 396.607 463.449ZM396.607 464.201C395.071 464.201 394.222 464.534 394.233 465.104C394.222 465.694 395.071 466.006 396.607 466.006C398.143 466.006 398.992 465.694 398.992 465.104C398.992 464.534 398.143 464.201 396.607 464.201ZM401.001 467.359V468.176H392.224V467.359H401.001ZM399.894 468.917V471.173H394.287V472.032H400.163V472.816H393.288V470.432H398.884V469.68H393.277V468.917H399.894ZM408.747 464.137C408.737 465.415 410.305 466.618 412.195 466.865L411.798 467.703C410.224 467.451 408.839 466.634 408.221 465.501C407.587 466.64 406.207 467.451 404.644 467.703L404.236 466.865C406.126 466.618 407.673 465.426 407.684 464.137V463.61H408.747V464.137ZM412.593 468.648V469.486H408.683V472.913H407.684V469.486H403.817V468.648H412.593ZM418.75 469.647C418.75 470.475 419.158 471.35 420.028 471.871C420.914 471.307 421.349 470.383 421.349 469.647V469.186H422.348V469.647C422.348 470.646 423.004 471.613 424.261 472.021L423.756 472.773C422.805 472.446 422.16 471.807 421.822 471.012C421.516 471.791 420.941 472.494 420.06 472.859C419.137 472.51 418.551 471.828 418.256 471.044C417.907 471.801 417.273 472.44 416.365 472.773L415.849 472.021C417.085 471.581 417.751 470.582 417.762 469.647V469.186H418.75V469.647ZM423.39 463.299V468.777H422.37V463.299H423.39ZM418.17 463.825C419.641 463.825 420.726 464.76 420.726 466.103C420.726 467.435 419.641 468.358 418.17 468.358C416.698 468.358 415.602 467.435 415.602 466.103C415.602 464.76 416.698 463.825 418.17 463.825ZM418.17 464.695C417.257 464.685 416.601 465.254 416.601 466.103C416.601 466.94 417.257 467.51 418.17 467.51C419.072 467.51 419.727 466.94 419.727 466.103C419.727 465.254 419.072 464.685 418.17 464.695ZM426.711 469.057V470.077H431.233V469.057H432.254V472.795H425.701V469.057H426.711ZM426.711 471.979H431.233V470.872H426.711V471.979ZM433.392 467.606V468.455H424.616V467.606H433.392ZM429.525 463.804C429.525 464.91 431.061 465.984 432.909 466.21L432.544 467.016C430.981 466.795 429.622 466.06 429.009 465.039C428.381 466.065 427.017 466.795 425.475 467.016L425.088 466.21C426.958 465.974 428.483 464.942 428.483 463.804V463.396H429.525V463.804ZM441.815 463.288V472.913H440.794V463.288H441.815ZM435.423 464.223V469.583C436.825 469.572 438.302 469.459 439.849 469.143L439.989 470.002C438.281 470.346 436.734 470.464 435.219 470.464H434.413V464.223H435.423ZM450.528 463.288V467.016H452.074V467.854H450.528V472.935H449.507V463.288H450.528ZM447.939 464.212V465.039H444.458V469.69C446.075 469.685 447.289 469.615 448.658 469.368L448.787 470.228C447.283 470.496 446.005 470.55 444.211 470.539H443.438V464.212H447.939ZM453.332 472.075C452.913 472.075 452.559 471.731 452.569 471.312C452.559 470.894 452.913 470.55 453.332 470.55C453.74 470.55 454.095 470.894 454.095 471.312C454.095 471.731 453.74 472.075 453.332 472.075Z" fill="black" fill-opacity="0.63"/>
<rect x="128.5" y="229.5" width="126" height="33" fill="#F4F4F6"/>
<rect x="128.5" y="229.5" width="126" height="33" stroke="#DDDDDD"/>
<path d="M174.742 241.152V242.078C174.742 243.074 174.742 244.152 174.449 245.652H175.961V246.566H171.707V251.008H170.582V246.566H166.387V245.652H173.324C173.641 244.158 173.641 243.057 173.641 242.078V242.066H167.559V241.152H174.742ZM180.184 242.066C180.184 243.543 181.134 244.855 182.727 245.371L182.118 246.238C180.964 245.822 180.114 245.014 179.657 243.965C179.2 245.166 178.286 246.098 177.02 246.555L176.423 245.664C178.098 245.09 179.071 243.695 179.083 242.113V241.082H180.184V242.066ZM185.212 240.496V246.695H184.098V243.543H181.884V242.629H184.098V240.496H185.212ZM181.696 246.988C183.899 246.988 185.247 247.715 185.247 248.992C185.247 250.258 183.899 250.984 181.696 250.973C179.493 250.984 178.134 250.258 178.145 248.992C178.134 247.715 179.493 246.988 181.696 246.988ZM181.696 247.855C180.161 247.855 179.247 248.266 179.247 248.992C179.247 249.695 180.161 250.094 181.696 250.094C183.231 250.094 184.145 249.695 184.145 248.992C184.145 248.266 183.231 247.855 181.696 247.855ZM195.259 240.508V248.465H194.146V247.457H192.037V246.672H194.146V240.508H195.259ZM195.517 249.871V250.773H187.935V247.691H189.037V249.871H195.517ZM186.482 245.301C188.427 245.289 191.041 245.266 193.279 244.984L193.349 245.781C192.453 245.928 191.509 246.027 190.584 246.086V248.137H189.47V246.145C188.451 246.191 187.472 246.197 186.623 246.191L186.482 245.301ZM189.916 240.906C191.451 240.906 192.517 241.645 192.517 242.758C192.517 243.871 191.451 244.586 189.916 244.586C188.357 244.586 187.302 243.871 187.302 242.758C187.302 241.645 188.357 240.906 189.916 240.906ZM189.916 241.738C188.978 241.727 188.345 242.125 188.357 242.758C188.345 243.379 188.978 243.766 189.916 243.766C190.818 243.766 191.451 243.379 191.462 242.758C191.451 242.125 190.818 241.727 189.916 241.738ZM205.354 240.496V246.742H204.241V244.082H202.284V243.168H204.241V240.496H205.354ZM201.838 247.035C204.041 247.035 205.389 247.762 205.389 249.016C205.389 250.27 204.041 250.984 201.838 250.996C199.635 250.984 198.276 250.27 198.288 249.016C198.276 247.762 199.635 247.035 201.838 247.035ZM201.838 247.902C200.303 247.902 199.389 248.301 199.389 249.016C199.389 249.719 200.303 250.129 201.838 250.117C203.373 250.129 204.288 249.719 204.288 249.016C204.288 248.301 203.373 247.902 201.838 247.902ZM200.362 242.348C200.362 243.684 201.311 244.973 202.893 245.512L202.319 246.391C201.141 245.98 200.274 245.143 199.823 244.105C199.36 245.283 198.44 246.227 197.186 246.684L196.6 245.793C198.229 245.23 199.225 243.812 199.225 242.359V242.125H196.952V241.223H202.612V242.125H200.362V242.348ZM216.28 248.77V249.695H206.671V248.77H210.902V246.613H207.773V241.211H208.886V243.016H214.042V241.211H215.144V246.613H212.003V248.77H216.28ZM208.886 245.711H214.042V243.918H208.886V245.711Z" fill="black"/>
<rect x="128.5" y="262.5" width="126" height="33" fill="#F4F4F6"/>
<rect x="128.5" y="262.5" width="126" height="33" stroke="#DDDDDD"/>
<path d="M180.961 279.414V280.316H176.695V283.984H175.605V280.316H171.387V279.414H180.961ZM180.059 274.117V275.008H176.812C176.83 276.309 178.447 277.469 180.434 277.738L180.023 278.617C178.301 278.348 176.812 277.498 176.18 276.297C175.529 277.498 174.047 278.348 172.348 278.617L171.926 277.738C173.889 277.469 175.506 276.309 175.547 275.008H172.277V274.117H180.059ZM191.067 281.758V282.684H181.458V281.758H183.755V279.016C182.893 278.541 182.372 277.785 182.372 276.848C182.372 275.195 183.989 274.105 186.239 274.105C188.501 274.105 190.118 275.195 190.118 276.848C190.118 277.773 189.614 278.518 188.77 278.992V281.758H191.067ZM186.239 274.996C184.587 274.996 183.45 275.711 183.45 276.848C183.45 277.973 184.587 278.711 186.239 278.711C187.88 278.711 189.04 277.973 189.04 276.848C189.04 275.711 187.88 274.996 186.239 274.996ZM184.856 281.758H187.645V279.414C187.218 279.525 186.743 279.578 186.239 279.578C185.747 279.578 185.278 279.525 184.856 279.426V281.758ZM194.435 273.977C195.818 273.965 196.884 274.768 197.119 275.945H199.17V273.496H200.283V279.133H199.17V276.859H197.13C196.902 278.066 195.83 278.875 194.435 278.875C192.83 278.875 191.681 277.867 191.681 276.414C191.681 274.984 192.83 273.965 194.435 273.977ZM194.435 274.902C193.439 274.902 192.748 275.512 192.748 276.414C192.748 277.316 193.439 277.938 194.435 277.938C195.408 277.938 196.099 277.316 196.099 276.414C196.099 275.512 195.408 274.902 194.435 274.902ZM194.541 279.637V280.855H199.17V279.637H200.283V283.867H193.439V279.637H194.541ZM194.541 282.953H199.17V281.734H194.541V282.953ZM211.198 279.52V280.422H206.909V283.984H205.819V280.422H201.588V279.52H211.198ZM209.991 274.059V278.184H202.795V274.059H209.991ZM203.885 274.949V277.316H208.877V274.949H203.885Z" fill="black"/>
<rect x="128.5" y="295.5" width="126" height="33" fill="#F4F4F6"/>
<rect x="128.5" y="295.5" width="126" height="33" stroke="#DDDDDD"/>
<path d="M159.484 312.426V313.34H157.047V316.996H155.922V313.34H153.414V316.996H152.266V313.34H149.875V312.426H159.484ZM154.656 306.895C156.871 306.895 158.395 307.797 158.395 309.215C158.395 310.609 156.871 311.5 154.656 311.488C152.43 311.5 150.918 310.609 150.918 309.215C150.918 307.797 152.43 306.895 154.656 306.895ZM154.656 307.785C153.098 307.797 152.055 308.336 152.066 309.215C152.055 310.07 153.098 310.609 154.656 310.609C156.215 310.609 157.258 310.07 157.258 309.215C157.258 308.336 156.215 307.797 154.656 307.785ZM168.348 307.117V307.949C168.348 308.84 168.348 309.883 168.091 311.266H169.567V312.18H159.958V311.266H166.966C167.241 309.9 167.247 308.904 167.247 308.02H161.165V307.117H168.348ZM168.665 315.859V316.773H161.212V313.27H162.313V315.859H168.665ZM178.42 307.117V307.949C178.42 308.84 178.42 309.883 178.162 311.266H179.638V312.18H170.029V311.266H177.037C177.312 309.9 177.318 308.904 177.318 308.02H171.236V307.117H178.42ZM178.736 315.859V316.773H171.283V313.27H172.384V315.859H178.736ZM189.698 312.52V313.422H185.409V316.984H184.319V313.422H180.088V312.52H189.698ZM188.491 307.059V311.184H181.295V307.059H188.491ZM182.385 307.949V310.316H187.377V307.949H182.385ZM201.508 306.508V314.195H200.395V306.508H201.508ZM201.824 315.871V316.773H194.641V313.469H195.766V315.871H201.824ZM196.621 308.125C196.609 309.66 197.594 311.066 199.211 311.629L198.637 312.52C197.424 312.068 196.527 311.178 196.059 310.035C195.596 311.254 194.688 312.232 193.457 312.707L192.859 311.828C194.512 311.219 195.484 309.707 195.484 308.125V307.082H196.621V308.125ZM206.552 308.734C206.552 309.965 207.571 311.125 209.165 311.57L208.638 312.438C207.425 312.092 206.505 311.342 206.024 310.375C205.567 311.459 204.653 312.314 203.399 312.707L202.872 311.852C204.466 311.336 205.45 310.082 205.45 308.734V308.605H203.165V307.715H205.45V306.449H206.563V307.715H208.837V308.605H206.552V308.734ZM211.626 306.496V312.859H210.513V310.352H208.509V309.438H210.513V306.496H211.626ZM208.11 313.094C210.302 313.094 211.661 313.797 211.661 315.027C211.661 316.27 210.302 316.984 208.11 316.973C205.907 316.984 204.548 316.27 204.559 315.027C204.548 313.797 205.907 313.094 208.11 313.094ZM208.11 313.961C206.575 313.961 205.661 314.348 205.661 315.027C205.661 315.707 206.575 316.117 208.11 316.117C209.657 316.117 210.559 315.707 210.559 315.027C210.559 314.348 209.657 313.961 208.11 313.961ZM218.275 310.234V311.652H222.517V312.566H212.943V311.652H217.173V310.234H218.275ZM217.724 313.328C219.998 313.328 221.345 313.973 221.345 315.156C221.345 316.328 219.998 316.984 217.724 316.973C215.439 316.984 214.08 316.328 214.08 315.156C214.08 313.973 215.439 313.328 217.724 313.328ZM217.724 314.184C216.107 314.184 215.205 314.523 215.205 315.156C215.205 315.789 216.107 316.129 217.724 316.129C219.318 316.129 220.232 315.789 220.232 315.156C220.232 314.523 219.318 314.184 217.724 314.184ZM221.662 306.977V307.867H218.474C218.632 308.869 220.121 309.719 222.025 309.906L221.627 310.785C219.798 310.574 218.298 309.824 217.724 308.711C217.15 309.824 215.65 310.574 213.834 310.785L213.435 309.906C215.328 309.719 216.816 308.881 216.974 307.867H213.822V306.977H221.662ZM232.612 312.73V313.609H230.198V316.996H229.073V313.609H226.541V316.996H225.428V313.609H223.002V312.73H232.612ZM231.475 306.871V309.684H225.287V310.844H231.698V311.746H224.174V308.852H230.338V307.785H224.139V306.871H231.475Z" fill="black"/>
<rect x="128.5" y="328.5" width="126" height="33" fill="#F4F4F6"/>
<rect x="128.5" y="328.5" width="126" height="33" stroke="#DDDDDD"/>
<path d="M179.777 340.117V340.949C179.777 341.84 179.777 342.883 179.52 344.266H180.996V345.18H171.387V344.266H178.395C178.67 342.9 178.676 341.904 178.676 341.02H172.594V340.117H179.777ZM180.094 348.859V349.773H172.641V346.27H173.742V348.859H180.094ZM191.055 345.52V346.422H186.766V349.984H185.677V346.422H181.446V345.52H191.055ZM189.848 340.059V344.184H182.653V340.059H189.848ZM183.743 340.949V343.316H188.735V340.949H183.743ZM201.127 345.426V346.34H198.689V349.996H197.564V346.34H195.056V349.996H193.908V346.34H191.517V345.426H201.127ZM196.298 339.895C198.513 339.895 200.037 340.797 200.037 342.215C200.037 343.609 198.513 344.5 196.298 344.488C194.072 344.5 192.56 343.609 192.56 342.215C192.56 340.797 194.072 339.895 196.298 339.895ZM196.298 340.785C194.74 340.797 193.697 341.336 193.709 342.215C193.697 343.07 194.74 343.609 196.298 343.609C197.857 343.609 198.9 343.07 198.9 342.215C198.9 341.336 197.857 340.797 196.298 340.785ZM207.518 340.598V341.488H201.612V340.598H204.073V339.402H205.174V340.598H207.518ZM204.612 341.969C206.03 341.969 207.026 342.754 207.038 343.926C207.026 345.098 206.03 345.871 204.612 345.871C203.182 345.871 202.198 345.098 202.198 343.926C202.198 342.754 203.182 341.969 204.612 341.969ZM204.612 342.812C203.78 342.812 203.241 343.246 203.241 343.926C203.241 344.605 203.78 345.027 204.612 345.027C205.432 345.027 205.995 344.605 206.006 343.926C205.995 343.246 205.432 342.812 204.612 342.812ZM210.354 339.496V346.258H209.241V344.91H207.541V344.008H209.241V342.848H207.553V341.945H209.241V339.496H210.354ZM206.862 346.363C209.065 346.363 210.413 347.02 210.413 348.168C210.413 349.305 209.065 349.984 206.862 349.973C204.647 349.984 203.299 349.305 203.299 348.168C203.299 347.02 204.647 346.363 206.862 346.363ZM206.862 347.219C205.35 347.219 204.459 347.547 204.459 348.168C204.459 348.777 205.35 349.129 206.862 349.117C208.338 349.129 209.229 348.777 209.229 348.168C209.229 347.547 208.338 347.219 206.862 347.219Z" fill="black"/>
<rect x="128.5" y="361.5" width="126" height="33" fill="#F4F4F6"/>
<rect x="128.5" y="361.5" width="126" height="33" stroke="#DDDDDD"/>
<path d="M180.094 372.508V380.195H178.98V372.508H180.094ZM180.41 381.871V382.773H173.227V379.469H174.352V381.871H180.41ZM175.207 374.125C175.195 375.66 176.18 377.066 177.797 377.629L177.223 378.52C176.01 378.068 175.113 377.178 174.645 376.035C174.182 377.254 173.273 378.232 172.043 378.707L171.445 377.828C173.098 377.219 174.07 375.707 174.07 374.125V373.082H175.207V374.125ZM185.137 374.734C185.137 375.965 186.157 377.125 187.751 377.57L187.223 378.438C186.011 378.092 185.091 377.342 184.61 376.375C184.153 377.459 183.239 378.314 181.985 378.707L181.458 377.852C183.052 377.336 184.036 376.082 184.036 374.734V374.605H181.751V373.715H184.036V372.449H185.149V373.715H187.423V374.605H185.137V374.734ZM190.212 372.496V378.859H189.098V376.352H187.095V375.438H189.098V372.496H190.212ZM186.696 379.094C188.887 379.094 190.247 379.797 190.247 381.027C190.247 382.27 188.887 382.984 186.696 382.973C184.493 382.984 183.134 382.27 183.145 381.027C183.134 379.797 184.493 379.094 186.696 379.094ZM186.696 379.961C185.161 379.961 184.247 380.348 184.247 381.027C184.247 381.707 185.161 382.117 186.696 382.117C188.243 382.117 189.145 381.707 189.145 381.027C189.145 380.348 188.243 379.961 186.696 379.961ZM200.259 372.496V382.996H199.134V372.496H200.259ZM197.13 373.621C197.13 376.691 195.818 379.363 192.22 381.086L191.634 380.184C194.429 378.854 195.789 376.961 196.005 374.512H192.138V373.621H197.13ZM209.85 372.496V375.602H211.373V376.527H209.85V380.125H208.725V372.496H209.85ZM207.002 373.293C207.002 376.047 205.127 378.051 202.057 378.977L201.588 378.086C204.043 377.348 205.573 375.953 205.795 374.219H202.034V373.293H207.002ZM210.284 381.871V382.773H203.182V379.34H204.307V381.871H210.284Z" fill="black"/>
<rect x="128.5" y="394.5" width="126" height="33" fill="#F4F4F6"/>
<rect x="128.5" y="394.5" width="126" height="33" stroke="#DDDDDD"/>
<path d="M178.957 405.496V415.996H177.891V410.605H176.637V415.48H175.582V405.695H176.637V409.668H177.891V405.496H178.957ZM173.074 408.273C173.074 410.16 173.789 411.871 175.312 412.656L174.656 413.512C173.625 412.955 172.934 411.977 172.559 410.758C172.201 412.141 171.504 413.242 170.438 413.875L169.746 413.031C171.281 412.164 171.996 410.359 171.996 408.273V407.594H170.027V406.691H174.902V407.594H173.074V408.273ZM184.493 406.246V407.148H181.458V408.32H184.376V409.176H181.458V410.453C182.864 410.441 183.79 410.389 184.868 410.184L184.973 411.098C183.743 411.332 182.747 411.379 181.071 411.367H180.391V406.246H184.493ZM188.911 405.508V411.883H187.856V409.082H186.567V411.801H185.524V405.695H186.567V408.18H187.856V405.508H188.911ZM188.911 412.387V415.996H187.809V413.289H181.774V412.387H188.911ZM202.268 413.758V414.684H192.659V413.758H194.955V411.016C194.094 410.541 193.573 409.785 193.573 408.848C193.573 407.195 195.19 406.105 197.44 406.105C199.702 406.105 201.319 407.195 201.319 408.848C201.319 409.773 200.815 410.518 199.971 410.992V413.758H202.268ZM197.44 406.996C195.788 406.996 194.651 407.711 194.651 408.848C194.651 409.973 195.788 410.711 197.44 410.711C199.08 410.711 200.241 409.973 200.241 408.848C200.241 407.711 199.08 406.996 197.44 406.996ZM196.057 413.758H198.846V411.414C198.418 411.525 197.944 411.578 197.44 411.578C196.948 411.578 196.479 411.525 196.057 411.426V413.758ZM205.706 405.848C207.288 405.859 208.448 406.832 208.46 408.203C208.448 409.586 207.288 410.547 205.706 410.547C204.112 410.547 202.941 409.586 202.941 408.203C202.941 406.832 204.112 405.859 205.706 405.848ZM205.706 406.785C204.734 406.773 204.019 407.348 204.03 408.203C204.019 409.07 204.734 409.645 205.706 409.645C206.667 409.645 207.382 409.07 207.382 408.203C207.382 407.348 206.667 406.773 205.706 406.785ZM211.437 405.496V410.84H210.323V405.496H211.437ZM211.437 411.32V413.969H205.648V414.977H211.788V415.867H204.57V413.137H210.335V412.211H204.534V411.32H211.437Z" fill="black"/>
<path d="M268.422 189.125V190.734H265.375V195.438H263.344V190.734H260.438V195.438H258.391V190.734H255.406V189.125H268.422ZM261.875 181.688C264.922 181.688 267.062 182.953 267.062 184.906C267.062 186.828 264.922 188.031 261.875 188.031C258.828 188.031 256.703 186.828 256.719 184.906C256.703 182.953 258.828 181.688 261.875 181.688ZM261.875 183.281C259.969 183.281 258.75 183.859 258.766 184.906C258.75 185.906 259.969 186.469 261.875 186.469C263.797 186.469 265 185.906 265 184.906C265 183.859 263.797 183.281 261.875 183.281ZM280.934 181.234V191.625H278.95V188.25H275.7C275.012 188.977 274.02 189.422 272.919 189.422C270.762 189.422 269.122 187.859 269.137 185.75C269.122 183.609 270.762 182.062 272.919 182.047C274.02 182.055 275.005 182.492 275.7 183.219H278.95V181.234H280.934ZM281.278 193.594V195.188H271.497V190.578H273.497V193.594H281.278ZM272.919 183.828C271.809 183.828 271.012 184.547 271.028 185.75C271.012 186.938 271.809 187.656 272.919 187.656C273.966 187.656 274.778 186.938 274.778 185.75C274.778 184.547 273.966 183.828 272.919 183.828ZM276.559 184.812C276.63 185.109 276.669 185.422 276.669 185.75C276.669 186.062 276.63 186.367 276.559 186.656H278.95V184.812H276.559ZM293.947 182.016V183.219C293.947 184.422 293.947 185.773 293.634 187.516H295.494V189.109H282.478V187.516H291.603C291.923 185.922 291.962 184.734 291.962 183.609H284.072V182.016H293.947ZM294.353 193.578V195.172H284.134V190.359H286.103V193.578H294.353ZM309.006 189.172V190.766H303.444V195.422H301.475V190.766H295.991V189.172H309.006ZM307.444 181.906V187.641H297.522V181.906H307.444ZM299.491 183.484V186.078H305.459V183.484H299.491ZM313.75 189.688C313.75 186.75 314.656 184.312 316.156 182.203H318.359C317.281 183.766 316.156 186.891 316.156 189.688C316.156 192.5 317.281 195.625 318.359 197.188H316.156C314.656 195.078 313.75 192.625 313.75 189.688ZM331.263 181.219V195.438H329.356V188.312H328.153V194.781H326.263V190.703L325.138 192.203C323.817 191.508 322.966 190.328 322.466 188.859C321.989 190.547 321.145 191.914 319.794 192.719L318.559 191.188C320.716 189.969 321.45 187.453 321.45 184.734V184.281H319.044V182.688H325.559V184.281H323.388V184.734C323.388 187.211 324.122 189.57 326.263 190.672V181.422H328.153V186.688H329.356V181.219H331.263ZM338.509 182.172V183.766H334.791V184.938H338.369V186.453H334.791V187.703C336.369 187.695 337.541 187.633 338.853 187.406L339.056 189C337.384 189.297 335.994 189.344 333.853 189.344H332.884V182.172H338.509ZM344.603 181.234V189.906H342.713V186.297H341.478V189.797H339.619V181.484H341.478V184.703H342.713V181.234H344.603ZM344.603 190.5V195.438H342.619V192.094H334.775V190.5H344.603ZM351.287 182.156L347.631 195.703H345.647L349.287 182.156H351.287ZM363.597 181.234V191.969H361.597V190.844H358.878V189.484H361.597V181.234H363.597ZM363.909 193.594V195.188H353.316V190.938H355.3V189.047C354.027 189.102 352.816 189.109 351.738 189.109L351.503 187.531C354.113 187.516 357.628 187.484 360.628 187.109L360.738 188.531C359.613 188.719 358.448 188.852 357.3 188.938V191.641H355.3V193.594H363.909ZM356.128 181.719C358.191 181.703 359.675 182.75 359.675 184.266C359.675 185.781 358.191 186.766 356.128 186.766C354.019 186.766 352.55 185.781 352.55 184.266C352.55 182.75 354.003 181.703 356.128 181.719ZM356.128 183.172C355.113 183.172 354.425 183.562 354.441 184.266C354.425 184.953 355.113 185.328 356.128 185.328C357.081 185.328 357.769 184.953 357.784 184.266C357.769 183.562 357.081 183.172 356.128 183.172ZM372.688 182.109C372.688 182.602 372.648 183.078 372.578 183.531H375.078V181.234H377.062V189.672H375.078V188.125H371.844V186.531H375.078V185.094H372.109C371.148 187.297 369.047 188.844 365.984 189.656L365.234 188.062C368.438 187.242 370.234 185.648 370.547 183.719H366.047V182.109H372.688ZM377.062 190.25V195.406H375.078V191.812H367.297V190.25H377.062ZM390.075 182.016V183.219C390.075 184.422 390.075 185.773 389.762 187.516H391.622V189.109H378.606V187.516H387.731C388.052 185.922 388.091 184.734 388.091 183.609H380.2V182.016H390.075ZM390.481 193.578V195.172H380.262V190.359H382.231V193.578H390.481ZM405.134 189.172V190.766H399.572V195.422H397.603V190.766H392.119V189.172H405.134ZM403.572 181.906V187.641H393.65V181.906H403.572ZM395.619 183.484V186.078H401.587V183.484H395.619ZM410.225 189.688C410.225 192.625 409.319 195.078 407.819 197.188H405.616C406.694 195.625 407.819 192.5 407.819 189.688C407.819 186.891 406.694 183.766 405.616 182.203H407.819C409.319 184.312 410.225 186.75 410.225 189.688ZM426.891 181.234V191.609H424.891V181.234H426.891ZM427.266 193.594V195.188H417.359V190.609H419.375V193.594H427.266ZM420.438 183.391C420.422 185.266 421.422 187.109 423.766 187.859L422.75 189.422C421.148 188.891 420.039 187.828 419.406 186.469C418.773 187.93 417.633 189.102 415.969 189.672L414.938 188.094C417.328 187.297 418.359 185.312 418.359 183.391V182.016H420.438V183.391ZM436.622 182.703V184.266H433.747C433.762 185.727 434.841 187.211 437.122 187.797L436.2 189.328C434.583 188.922 433.442 188.023 432.794 186.859C432.177 188.188 431.036 189.227 429.356 189.703L428.419 188.156C430.7 187.508 431.747 185.883 431.762 184.266H428.903V182.703H431.762V181.156H433.778V182.703H436.622ZM440.497 181.219V189.812H438.512V186.625H436.2V185.031H438.512V181.219H440.497ZM435.637 190.047C438.669 190.062 440.528 191.016 440.544 192.719C440.528 194.438 438.669 195.438 435.637 195.438C432.622 195.438 430.747 194.438 430.747 192.719C430.747 191.016 432.622 190.062 435.637 190.047ZM435.637 191.578C433.747 191.578 432.731 191.953 432.731 192.719C432.731 193.5 433.747 193.922 435.637 193.922C437.559 193.922 438.559 193.5 438.559 192.719C438.559 191.953 437.559 191.578 435.637 191.578ZM447.416 184.438C447.416 187.109 448.494 189.703 450.869 190.734L449.65 192.328C448.072 191.555 447.017 190.141 446.431 188.391C445.806 190.25 444.712 191.773 443.087 192.578L441.837 190.953C444.275 189.859 445.384 187.109 445.4 184.438V182.312H447.416V184.438ZM454.041 181.219V195.469H452.072V187.297H449.275V185.688H452.072V181.219H454.041Z" fill="black"/>
<rect x="254.5" y="229.5" width="289" height="33" fill="white"/>
<rect x="254.5" y="229.5" width="289" height="33" stroke="#DDDDDD"/>
<path d="M279.742 241.152V242.078C279.742 243.074 279.742 244.152 279.449 245.652H280.961V246.566H276.707V251.008H275.582V246.566H271.387V245.652H278.324C278.641 244.158 278.641 243.057 278.641 242.078V242.066H272.559V241.152H279.742ZM285.184 242.066C285.184 243.543 286.134 244.855 287.727 245.371L287.118 246.238C285.964 245.822 285.114 245.014 284.657 243.965C284.2 245.166 283.286 246.098 282.02 246.555L281.423 245.664C283.098 245.09 284.071 243.695 284.083 242.113V241.082H285.184V242.066ZM290.212 240.496V246.695H289.098V243.543H286.884V242.629H289.098V240.496H290.212ZM286.696 246.988C288.899 246.988 290.247 247.715 290.247 248.992C290.247 250.258 288.899 250.984 286.696 250.973C284.493 250.984 283.134 250.258 283.145 248.992C283.134 247.715 284.493 246.988 286.696 246.988ZM286.696 247.855C285.161 247.855 284.247 248.266 284.247 248.992C284.247 249.695 285.161 250.094 286.696 250.094C288.231 250.094 289.145 249.695 289.145 248.992C289.145 248.266 288.231 247.855 286.696 247.855ZM300.259 240.508V248.465H299.146V247.457H297.037V246.672H299.146V240.508H300.259ZM300.517 249.871V250.773H292.935V247.691H294.037V249.871H300.517ZM291.482 245.301C293.427 245.289 296.041 245.266 298.279 244.984L298.349 245.781C297.453 245.928 296.509 246.027 295.584 246.086V248.137H294.47V246.145C293.451 246.191 292.472 246.197 291.623 246.191L291.482 245.301ZM294.916 240.906C296.451 240.906 297.517 241.645 297.517 242.758C297.517 243.871 296.451 244.586 294.916 244.586C293.357 244.586 292.302 243.871 292.302 242.758C292.302 241.645 293.357 240.906 294.916 240.906ZM294.916 241.738C293.978 241.727 293.345 242.125 293.357 242.758C293.345 243.379 293.978 243.766 294.916 243.766C295.818 243.766 296.451 243.379 296.462 242.758C296.451 242.125 295.818 241.727 294.916 241.738ZM310.354 240.496V246.742H309.241V244.082H307.284V243.168H309.241V240.496H310.354ZM306.838 247.035C309.041 247.035 310.389 247.762 310.389 249.016C310.389 250.27 309.041 250.984 306.838 250.996C304.635 250.984 303.276 250.27 303.288 249.016C303.276 247.762 304.635 247.035 306.838 247.035ZM306.838 247.902C305.303 247.902 304.389 248.301 304.389 249.016C304.389 249.719 305.303 250.129 306.838 250.117C308.373 250.129 309.288 249.719 309.288 249.016C309.288 248.301 308.373 247.902 306.838 247.902ZM305.362 242.348C305.362 243.684 306.311 244.973 307.893 245.512L307.319 246.391C306.141 245.98 305.274 245.143 304.823 244.105C304.36 245.283 303.44 246.227 302.186 246.684L301.6 245.793C303.229 245.23 304.225 243.812 304.225 242.359V242.125H301.952V241.223H307.612V242.125H305.362V242.348ZM321.28 248.77V249.695H311.671V248.77H315.902V246.613H312.773V241.211H313.886V243.016H319.042V241.211H320.144V246.613H317.003V248.77H321.28ZM313.886 245.711H319.042V243.918H313.886V245.711Z" fill="black"/>
<rect x="254.5" y="262.5" width="289" height="33" fill="white"/>
<rect x="254.5" y="262.5" width="289" height="33" stroke="#DDDDDD"/>
<rect x="254.5" y="295.5" width="289" height="33" fill="white"/>
<rect x="254.5" y="295.5" width="289" height="33" stroke="#DDDDDD"/>
<path d="M280.117 306.508V314.465H279.004V313.457H276.895V312.672H279.004V306.508H280.117ZM280.375 315.871V316.773H272.793V313.691H273.895V315.871H280.375ZM271.34 311.301C273.285 311.289 275.898 311.266 278.137 310.984L278.207 311.781C277.311 311.928 276.367 312.027 275.441 312.086V314.137H274.328V312.145C273.309 312.191 272.33 312.197 271.48 312.191L271.34 311.301ZM274.773 306.906C276.309 306.906 277.375 307.645 277.375 308.758C277.375 309.871 276.309 310.586 274.773 310.586C273.215 310.586 272.16 309.871 272.16 308.758C272.16 307.645 273.215 306.906 274.773 306.906ZM274.773 307.738C273.836 307.727 273.203 308.125 273.215 308.758C273.203 309.379 273.836 309.766 274.773 309.766C275.676 309.766 276.309 309.379 276.32 308.758C276.309 308.125 275.676 307.727 274.773 307.738ZM287.024 307.188C287.024 307.586 286.983 307.961 286.907 308.324H289.098V306.508H290.212V312.754H289.098V311.441H286.45V310.539H289.098V309.215H286.626C285.917 310.861 284.305 312.039 282.032 312.648L281.61 311.77C284.106 311.096 285.624 309.76 285.829 308.09H282.161V307.188H287.024ZM290.212 313.211V316.973H289.098V314.09H283.098V313.211H290.212ZM299.92 307.117V307.949C299.92 308.84 299.92 309.883 299.662 311.266H301.138V312.18H291.529V311.266H298.537C298.812 309.9 298.818 308.904 298.818 308.02H292.736V307.117H299.92ZM300.236 315.859V316.773H292.783V313.27H293.884V315.859H300.236ZM311.198 312.52V313.422H306.909V316.984H305.819V313.422H301.588V312.52H311.198ZM309.991 307.059V311.184H302.795V307.059H309.991ZM303.885 307.949V310.316H308.877V307.949H303.885Z" fill="black"/>
<rect x="254.5" y="328.5" width="289" height="33" fill="white"/>
<rect x="254.5" y="328.5" width="289" height="33" stroke="#DDDDDD"/>
<path d="M280.117 339.496V349.996H278.992V339.496H280.117ZM276.988 340.621C276.988 343.691 275.676 346.363 272.078 348.086L271.492 347.184C274.287 345.854 275.646 343.961 275.863 341.512H271.996V340.621H276.988ZM283.813 339.895V341.137H288.677V339.895H289.79V344.137H286.79V345.168H291.032V346.082H281.458V345.168H285.688V344.137H282.712V339.895H283.813ZM283.813 343.234H288.677V342.004H283.813V343.234ZM289.954 348.871V349.773H282.665V346.832H283.79V348.871H289.954ZM302.549 340.117V340.949C302.549 341.84 302.549 342.883 302.291 344.266H303.768V345.18H294.159V344.266H301.166C301.442 342.9 301.448 341.904 301.448 341.02H295.366V340.117H302.549ZM302.866 348.859V349.773H295.413V346.27H296.514V348.859H302.866ZM313.827 345.52V346.422H309.538V349.984H308.448V346.422H304.218V345.52H313.827ZM312.62 340.059V344.184H305.425V340.059H312.62ZM306.515 340.949V343.316H311.507V340.949H306.515ZM325.661 339.496V349.996H324.536V339.496H325.661ZM322.532 340.621C322.532 343.691 321.22 346.363 317.622 348.086L317.036 347.184C319.831 345.854 321.19 343.961 321.407 341.512H317.54V340.621H322.532ZM335.72 340V340.891H332.521C332.586 342.033 334.097 343.041 336.048 343.281L335.627 344.16C333.828 343.926 332.351 343.088 331.783 341.91C331.214 343.082 329.744 343.926 327.951 344.16L327.529 343.281C329.492 343.041 330.986 342.033 331.045 340.891H327.88V340H335.72ZM336.599 344.84V345.742H332.427V347.781H331.326V345.742H326.99V344.84H336.599ZM335.533 348.871V349.773H328.185V346.773H329.298V348.871H335.533Z" fill="black"/>
<rect x="254.5" y="361.5" width="289" height="33" fill="white"/>
<rect x="254.5" y="361.5" width="289" height="33" stroke="#DDDDDD"/>
<path d="M271.75 382V381.062L274.691 378.098C275.617 377.125 276.086 376.586 276.086 375.848C276.086 375.016 275.406 374.477 274.516 374.477C273.578 374.477 272.969 375.074 272.969 375.977H271.75C271.738 374.43 272.922 373.398 274.539 373.398C276.18 373.398 277.305 374.43 277.316 375.812C277.305 376.762 276.859 377.512 275.266 379.082L273.543 380.828V380.898H277.457V382H271.75ZM281.54 382.117C279.571 382.117 278.423 380.535 278.423 377.758C278.423 375.004 279.595 373.398 281.54 373.398C283.485 373.398 284.657 375.004 284.657 377.758C284.657 380.535 283.497 382.117 281.54 382.117ZM281.54 381.004C282.688 381.004 283.368 379.879 283.368 377.758C283.368 375.648 282.677 374.488 281.54 374.488C280.403 374.488 279.712 375.648 279.712 377.758C279.712 379.879 280.391 381.004 281.54 381.004ZM285.693 382V381.062L288.634 378.098C289.56 377.125 290.029 376.586 290.029 375.848C290.029 375.016 289.349 374.477 288.459 374.477C287.521 374.477 286.912 375.074 286.912 375.977H285.693C285.681 374.43 286.865 373.398 288.482 373.398C290.123 373.398 291.248 374.43 291.259 375.812C291.248 376.762 290.802 377.512 289.209 379.082L287.486 380.828V380.898H291.4V382H285.693ZM295.413 382.117C293.807 382.117 292.6 381.133 292.541 379.785H293.795C293.866 380.512 294.557 381.039 295.413 381.039C296.444 381.039 297.182 380.289 297.182 379.281C297.182 378.25 296.42 377.5 295.354 377.488C294.674 377.488 294.159 377.711 293.866 378.238H292.647L293.198 373.516H298.002V374.617H294.264L293.983 376.996H294.065C294.416 376.656 295.014 376.422 295.659 376.422C297.252 376.422 298.436 377.605 298.436 379.246C298.436 380.922 297.182 382.117 295.413 382.117ZM303.269 377.219V378.297H299.507V377.219H303.269ZM307.422 382.117C305.453 382.117 304.305 380.535 304.305 377.758C304.305 375.004 305.477 373.398 307.422 373.398C309.367 373.398 310.539 375.004 310.539 377.758C310.539 380.535 309.379 382.117 307.422 382.117ZM307.422 381.004C308.57 381.004 309.25 379.879 309.25 377.758C309.25 375.648 308.559 374.488 307.422 374.488C306.285 374.488 305.594 375.648 305.594 377.758C305.594 379.879 306.273 381.004 307.422 381.004ZM311.634 382L315.419 374.688V374.617H311.048V373.516H316.755V374.664L312.981 382H311.634ZM321.517 377.219V378.297H317.755V377.219H321.517ZM322.377 382V381.062L325.319 378.098C326.245 377.125 326.713 376.586 326.713 375.848C326.713 375.016 326.034 374.477 325.143 374.477C324.205 374.477 323.596 375.074 323.596 375.977H322.377C322.366 374.43 323.549 373.398 325.166 373.398C326.807 373.398 327.932 374.43 327.944 375.812C327.932 376.762 327.487 377.512 325.893 379.082L324.17 380.828V380.898H328.084V382H322.377ZM332.437 373.516V382H331.136V374.805H331.089L329.062 376.129V374.898L331.171 373.516H332.437ZM337.298 377.535C337.684 377.102 338.165 376.879 338.692 376.879C339.606 376.879 340.415 377.547 341.305 377.547C341.845 377.547 342.313 377.312 342.677 376.844V377.969C342.278 378.402 341.809 378.625 341.282 378.625C340.368 378.625 339.548 377.957 338.657 377.957C338.13 377.957 337.673 378.191 337.298 378.66V377.535ZM346.881 382V381.062L349.823 378.098C350.748 377.125 351.217 376.586 351.217 375.848C351.217 375.016 350.537 374.477 349.647 374.477C348.709 374.477 348.1 375.074 348.1 375.977H346.881C346.87 374.43 348.053 373.398 349.67 373.398C351.311 373.398 352.436 374.43 352.448 375.812C352.436 376.762 351.991 377.512 350.397 379.082L348.674 380.828V380.898H352.588V382H346.881ZM356.671 382.117C354.702 382.117 353.554 380.535 353.554 377.758C353.554 375.004 354.726 373.398 356.671 373.398C358.616 373.398 359.788 375.004 359.788 377.758C359.788 380.535 358.628 382.117 356.671 382.117ZM356.671 381.004C357.82 381.004 358.499 379.879 358.499 377.758C358.499 375.648 357.808 374.488 356.671 374.488C355.534 374.488 354.843 375.648 354.843 377.758C354.843 379.879 355.523 381.004 356.671 381.004ZM360.824 382V381.062L363.766 378.098C364.691 377.125 365.16 376.586 365.16 375.848C365.16 375.016 364.48 374.477 363.59 374.477C362.652 374.477 362.043 375.074 362.043 375.977H360.824C360.812 374.43 361.996 373.398 363.613 373.398C365.254 373.398 366.379 374.43 366.391 375.812C366.379 376.762 365.934 377.512 364.34 379.082L362.617 380.828V380.898H366.531V382H360.824ZM370.544 382.117C368.938 382.117 367.731 381.133 367.673 379.785H368.927C368.997 380.512 369.688 381.039 370.544 381.039C371.575 381.039 372.313 380.289 372.313 379.281C372.313 378.25 371.552 377.5 370.485 377.488C369.805 377.488 369.29 377.711 368.997 378.238H367.778L368.329 373.516H373.134V374.617H369.395L369.114 376.996H369.196C369.548 376.656 370.145 376.422 370.79 376.422C372.384 376.422 373.567 377.605 373.567 379.246C373.567 380.922 372.313 382.117 370.544 382.117ZM378.4 377.219V378.297H374.638V377.219H378.4ZM382.553 382.117C380.584 382.117 379.436 380.535 379.436 377.758C379.436 375.004 380.608 373.398 382.553 373.398C384.498 373.398 385.67 375.004 385.67 377.758C385.67 380.535 384.51 382.117 382.553 382.117ZM382.553 381.004C383.702 381.004 384.381 379.879 384.381 377.758C384.381 375.648 383.69 374.488 382.553 374.488C381.416 374.488 380.725 375.648 380.725 377.758C380.725 379.879 381.405 381.004 382.553 381.004ZM386.765 382L390.55 374.688V374.617H386.179V373.516H391.886V374.664L388.113 382H386.765ZM396.648 377.219V378.297H392.887V377.219H396.648ZM397.509 382V381.062L400.45 378.098C401.376 377.125 401.845 376.586 401.845 375.848C401.845 375.016 401.165 374.477 400.274 374.477C399.337 374.477 398.727 375.074 398.727 375.977H397.509C397.497 374.43 398.68 373.398 400.298 373.398C401.938 373.398 403.063 374.43 403.075 375.812C403.063 376.762 402.618 377.512 401.024 379.082L399.302 380.828V380.898H403.216V382H397.509ZM407.228 382.117C405.623 382.117 404.416 381.133 404.357 379.785H405.611C405.681 380.512 406.373 381.039 407.228 381.039C408.259 381.039 408.998 380.289 408.998 379.281C408.998 378.25 408.236 377.5 407.17 377.488C406.49 377.488 405.974 377.711 405.681 378.238H404.462L405.013 373.516H409.818V374.617H406.08L405.798 376.996H405.88C406.232 376.656 406.83 376.422 407.474 376.422C409.068 376.422 410.252 377.605 410.252 379.246C410.252 380.922 408.998 382.117 407.228 382.117Z" fill="black"/>
<rect x="254.5" y="394.5" width="289" height="33" fill="white"/>
<rect x="254.5" y="394.5" width="289" height="33" stroke="#DDDDDD"/>
<path d="M280.117 405.508V411.66H279.004V411.156H276.953V410.453H279.004V405.508H280.117ZM271.363 409.375C273.391 409.387 275.969 409.363 278.23 409.117L278.289 409.832C277.299 409.967 276.273 410.049 275.266 410.102V411.684H274.164V410.148C273.215 410.172 272.312 410.178 271.492 410.172L271.363 409.375ZM280.117 412.012V414.273H274.07V415.082H280.434V415.891H272.98V413.535H279.016V412.785H272.934V412.012H280.117ZM274.773 405.684C276.332 405.684 277.387 406.305 277.398 407.266C277.387 408.25 276.332 408.836 274.773 408.836C273.18 408.836 272.137 408.25 272.148 407.266C272.137 406.305 273.18 405.684 274.773 405.684ZM274.773 406.434C273.801 406.434 273.191 406.762 273.191 407.266C273.191 407.77 273.801 408.086 274.773 408.086C275.723 408.086 276.344 407.77 276.344 407.266C276.344 406.762 275.723 406.434 274.773 406.434ZM283.345 414.191L282.407 417.426H281.411L282.032 414.191H283.345ZM295.213 405.93V409.527H292.19V410.746H296.432V411.648H286.858V410.746H291.088V409.527H288.077V405.93H295.213ZM289.166 406.809V408.637H294.112V406.809H289.166ZM295.26 412.645V415.996H294.135V413.523H287.924V412.645H295.26Z" fill="black"/>
<rect x="128.5" y="229.5" width="426" height="341" stroke="black"/>
</g>
</g>
</g>
<defs>
<filter id="filter0_d_279_2298" x="13.1329" y="8.71143" width="693.734" height="561.734" filterUnits="userSpaceOnUse" color-interpolation-filters="sRGB">
<feFlood flood-opacity="0" result="BackgroundImageFix"/>
<feColorMatrix in="SourceAlpha" type="matrix" values="0 0 0 0 0 0 0 0 0 0 0 0 0 0 0 0 0 0 127 0" result="hardAlpha"/>
<feOffset dy="-4.42143"/>
<feGaussianBlur stdDeviation="23.4336"/>
<feComposite in2="hardAlpha" operator="out"/>
<feColorMatrix type="matrix" values="0 0 0 0 0.142104 0 0 0 0 0.54285 0 0 0 0 0.557692 0 0 0 0.03 0"/>
<feBlend mode="normal" in2="BackgroundImageFix" result="effect1_dropShadow_279_2298"/>
<feBlend mode="normal" in="SourceGraphic" in2="effect1_dropShadow_279_2298" result="shape"/>
</filter>
<filter id="filter1_d_279_2298" x="67.8" y="139.8" width="518.4" height="467.4" filterUnits="userSpaceOnUse" color-interpolation-filters="sRGB">
<feFlood flood-opacity="0" result="BackgroundImageFix"/>
<feColorMatrix in="SourceAlpha" type="matrix" values="0 0 0 0 0 0 0 0 0 0 0 0 0 0 0 0 0 0 127 0" result="hardAlpha"/>
<feOffset dy="21"/>
<feGaussianBlur stdDeviation="10.6"/>
<feComposite in2="hardAlpha" operator="out"/>
<feColorMatrix type="matrix" values="0 0 0 0 0 0 0 0 0 0 0 0 0 0 0 0 0 0 0.06 0"/>
<feBlend mode="normal" in2="BackgroundImageFix" result="effect1_dropShadow_279_2298"/>
<feBlend mode="normal" in="SourceGraphic" in2="effect1_dropShadow_279_2298" result="shape"/>
</filter>
<clipPath id="clip0_279_2298">
<rect width="440" height="500" rx="16" fill="white"/>
</clipPath>
<clipPath id="clip1_279_2298">
<rect x="60" y="60" width="600" height="468" rx="22.1071" fill="white"/>
</clipPath>
</defs>
</svg>
