<svg width="440" height="500" viewBox="0 0 440 500" fill="none" xmlns="http://www.w3.org/2000/svg">
<g clip-path="url(#clip0_279_747)">
<g filter="url(#filter0_d_279_747)">
<rect x="60" y="122" width="619" height="568.154" rx="22.1071" fill="white"/>
<path d="M101.754 200.155V201.205C101.754 202.299 101.754 203.497 101.443 205.155H103.062V206.321H98.4119V211.166H96.9612V206.321H92.3886V205.155H99.9793C100.303 203.562 100.316 202.37 100.316 201.321H93.6451V200.155H101.754ZM114.141 205.505V206.658H109.62V208.679H108.195V206.658H103.441V205.505H114.141ZM112.962 209.754V210.92H104.737V207.694H106.162V209.754H112.962ZM106.265 199.819V201.14H111.317V199.819H112.742V204.585H104.84V199.819H106.265ZM106.265 203.446H111.317V202.215H106.265V203.446Z" fill="#999999"/>
<rect x="92.5527" y="225.817" width="194.895" height="36.4768" rx="4.88199" fill="white"/>
<rect x="92.5527" y="225.817" width="194.895" height="36.4768" rx="4.88199" stroke="#DDDDDD" stroke-width="1.10536"/>
<path d="M117.14 238.511V247.099H115.702V244.198H112.917C112.353 244.826 111.524 245.208 110.585 245.208C108.824 245.208 107.489 243.939 107.489 242.216C107.489 240.467 108.824 239.211 110.585 239.211C111.518 239.211 112.34 239.586 112.904 240.208H115.702V238.511H117.14ZM117.438 248.809V249.975H109.458V246.218H110.896V248.809H117.438ZM110.585 240.493C109.575 240.493 108.862 241.167 108.862 242.216C108.862 243.252 109.575 243.926 110.585 243.926C111.544 243.926 112.269 243.252 112.282 242.216C112.269 241.167 111.544 240.493 110.585 240.493ZM113.539 241.374C113.61 241.639 113.655 241.918 113.655 242.216C113.655 242.501 113.616 242.773 113.552 243.032H115.702V241.374H113.539ZM122.519 242.216C122.519 243.952 123.503 245.843 125.304 246.698L124.501 247.786C123.238 247.196 122.318 246.037 121.832 244.664C121.314 246.141 120.349 247.391 119.009 247.993L118.218 246.879C120.058 246.05 121.094 244.055 121.094 242.216V241.607H118.594V240.454H121.094V238.744H122.532V240.454H124.993V241.607H122.519V242.216ZM127.571 238.498V243.135H129.371V244.34H127.571V250.208H126.133V238.498H127.571Z" fill="#2A2929"/>
<path d="M325.143 199.456V208.005H323.692V199.456H325.143ZM325.466 209.754V210.92H317.396V207.189H318.847V209.754H325.466ZM319.754 201.243C319.754 202.876 320.712 204.417 322.565 205.039L321.826 206.179C320.492 205.712 319.54 204.78 319.029 203.588C318.497 204.864 317.532 205.887 316.153 206.386L315.402 205.246C317.306 204.573 318.264 202.927 318.264 201.243V200.104H319.754V201.243ZM330.664 201.943C330.664 203.225 331.662 204.495 333.501 204.987L332.828 206.101C331.474 205.732 330.502 204.942 329.965 203.925C329.46 205.078 328.482 205.984 327.089 206.399L326.416 205.285C328.242 204.728 329.226 203.355 329.226 201.943V201.878H326.778V200.738H329.226V199.391H330.677V200.738H333.112V201.878H330.664V201.943ZM336.26 199.443V206.528H334.822V203.821H332.763V202.655H334.822V199.443H336.26ZM332.296 206.762C334.771 206.762 336.299 207.552 336.299 208.938C336.299 210.337 334.771 211.14 332.296 211.14C329.835 211.14 328.307 210.337 328.32 208.938C328.307 207.552 329.835 206.762 332.296 206.762ZM332.296 207.863C330.664 207.876 329.745 208.238 329.745 208.938C329.745 209.637 330.664 210.026 332.296 210.026C333.954 210.026 334.861 209.637 334.861 208.938C334.861 208.238 333.954 207.876 332.296 207.863ZM340.836 199.819C342.611 199.819 343.932 200.92 343.945 202.461C343.932 204.016 342.611 205.104 340.836 205.104C339.049 205.104 337.728 204.016 337.728 202.461C337.728 200.92 339.049 199.819 340.836 199.819ZM340.836 201.01C339.852 201.01 339.126 201.567 339.126 202.461C339.126 203.368 339.852 203.938 340.836 203.938C341.821 203.938 342.546 203.368 342.546 202.461C342.546 201.567 341.821 201.01 340.836 201.01ZM347.274 199.443V205.363H345.823V199.443H347.274ZM347.274 205.868V208.925H340.94V209.87H347.624V211.01H339.528V207.863H345.836V206.995H339.502V205.868H347.274ZM352.783 202.772C352.783 204.585 353.858 206.645 355.71 207.5L354.907 208.64C353.586 208.018 352.608 206.762 352.084 205.298C351.552 206.904 350.529 208.277 349.182 208.925L348.34 207.798C350.205 206.917 351.332 204.715 351.345 202.772V201.788H348.793V200.596H355.231V201.788H352.783V202.772ZM357.757 199.443V204.003H359.558V205.207H357.757V211.153H356.319V199.443H357.757Z" fill="#999999"/>
<rect x="315.553" y="225.817" width="194.895" height="36.4768" rx="4.88199" fill="white"/>
<rect x="315.553" y="225.817" width="194.895" height="36.4768" rx="4.88199" stroke="#DDDDDD" stroke-width="1.10536"/>
<path d="M330.723 249.055V247.838L334.039 244.638C334.984 243.692 335.476 243.135 335.476 242.345C335.476 241.477 334.79 240.92 333.87 240.92C332.899 240.92 332.277 241.529 332.29 242.475H330.684C330.671 240.7 332.005 239.547 333.883 239.547C335.8 239.547 337.096 240.687 337.096 242.268C337.096 243.33 336.577 244.185 334.738 245.92L333.067 247.578V247.643H337.238V249.055H330.723ZM341.775 249.185C339.522 249.185 338.174 247.436 338.174 244.366C338.174 241.309 339.522 239.547 341.775 239.547C344.016 239.547 345.376 241.309 345.376 244.366C345.376 247.436 344.029 249.185 341.775 249.185ZM341.775 247.773C342.954 247.773 343.68 246.62 343.68 244.366C343.68 242.125 342.941 240.946 341.775 240.946C340.61 240.946 339.871 242.125 339.871 244.366C339.871 246.62 340.597 247.773 341.775 247.773ZM346.39 249.055V247.838L349.707 244.638C350.652 243.692 351.144 243.135 351.144 242.345C351.144 241.477 350.458 240.92 349.538 240.92C348.567 240.92 347.945 241.529 347.958 242.475H346.352C346.339 240.7 347.673 239.547 349.551 239.547C351.468 239.547 352.764 240.687 352.764 242.268C352.764 243.33 352.245 244.185 350.406 245.92L348.735 247.578V247.643H352.906V249.055H346.39ZM357.314 249.185C355.436 249.185 354.063 248.071 354.011 246.516H355.656C355.708 247.281 356.42 247.825 357.314 247.825C358.363 247.825 359.114 247.06 359.114 246.024C359.114 244.949 358.337 244.185 357.262 244.185C356.537 244.172 356.006 244.431 355.708 244.988H354.14L354.71 239.677H360.254V241.089H356.096L355.811 243.576H355.902C356.265 243.161 356.951 242.863 357.715 242.863C359.464 242.863 360.746 244.172 360.746 245.972C360.746 247.851 359.335 249.185 357.314 249.185ZM366.048 243.692V245.053H361.825V243.692H366.048ZM370.715 249.185C368.461 249.185 367.114 247.436 367.114 244.366C367.114 241.309 368.461 239.547 370.715 239.547C372.956 239.547 374.316 241.309 374.316 244.366C374.316 247.436 372.969 249.185 370.715 249.185ZM370.715 247.773C371.894 247.773 372.619 246.62 372.619 244.366C372.619 242.125 371.881 240.946 370.715 240.946C369.549 240.946 368.811 242.125 368.811 244.366C368.811 246.62 369.536 247.773 370.715 247.773ZM375.421 249.055L379.488 241.154V241.089H374.773V239.677H381.237V241.115L377.169 249.055H375.421ZM386.473 243.692V245.053H382.251V243.692H386.473ZM387.358 249.055V247.838L390.674 244.638C391.62 243.692 392.112 243.135 392.112 242.345C392.112 241.477 391.425 240.92 390.506 240.92C389.534 240.92 388.912 241.529 388.925 242.475H387.319C387.306 240.7 388.64 239.547 390.519 239.547C392.436 239.547 393.731 240.687 393.731 242.268C393.731 243.33 393.213 244.185 391.373 245.92L389.703 247.578V247.643H393.874V249.055H387.358ZM394.952 249.055V247.838L398.268 244.638C399.214 243.692 399.706 243.135 399.706 242.345C399.706 241.477 399.02 240.92 398.1 240.92C397.128 240.92 396.507 241.529 396.52 242.475H394.913C394.9 240.7 396.235 239.547 398.113 239.547C400.03 239.547 401.325 240.687 401.325 242.268C401.325 243.33 400.807 244.185 398.968 245.92L397.297 247.578V247.643H401.468V249.055H394.952Z" fill="#2A2929"/>
<path d="M96.6797 296.254C96.6667 298.339 97.716 300.464 99.5294 301.332L98.6486 302.484C97.3792 301.843 96.466 300.606 95.9673 299.117C95.4556 300.71 94.497 302.031 93.1564 302.705L92.2755 301.552C94.1538 300.658 95.2289 298.417 95.2419 296.254V294.389H96.6797V296.254ZM101.667 293.443V298.028H103.467V299.259H101.667V305.153H100.229V293.443H101.667ZM114.248 300.01V301.176H111.645V305.153H110.181V301.176H107.59V305.153H106.113V301.176H103.549V300.01H114.248ZM108.872 293.857C111.36 293.87 113.095 294.881 113.095 296.474C113.095 298.041 111.36 299.039 108.872 299.039C106.372 299.039 104.663 298.041 104.676 296.474C104.663 294.881 106.372 293.87 108.872 293.857ZM108.872 295.023C107.214 295.023 106.139 295.554 106.152 296.474C106.139 297.368 107.214 297.899 108.872 297.899C110.531 297.899 111.606 297.368 111.606 296.474C111.606 295.554 110.531 295.023 108.872 295.023Z" fill="#999999"/>
<rect x="92.5527" y="320.553" width="484.895" height="35.8946" rx="4.88199" fill="white"/>
<rect x="92.5527" y="320.553" width="484.895" height="35.8946" rx="4.88199" stroke="#DDDDDD" stroke-width="1.10536"/>
<path d="M109.303 334.209V335.893H111.92V334.209H113.345V335.297H115.702V333.497H117.14V340.53H115.702V338.846H113.345V339.779H107.865V334.209H109.303ZM109.303 338.652H111.92V337.02H109.303V338.652ZM113.176 340.738C115.663 340.738 117.179 341.554 117.179 342.979C117.179 344.378 115.663 345.194 113.176 345.194C110.702 345.194 109.187 344.378 109.2 342.979C109.187 341.554 110.702 340.738 113.176 340.738ZM113.176 341.839C111.544 341.839 110.625 342.227 110.625 342.979C110.625 343.691 111.544 344.08 113.176 344.08C114.808 344.08 115.741 343.691 115.741 342.979C115.741 342.227 114.808 341.839 113.176 341.839ZM113.345 337.681H115.702V336.437H113.345V337.681ZM128.219 333.51V342.37H126.768V341.346H124.475V340.336H126.768V333.51H128.219ZM128.491 343.808V344.973H119.903V341.515H121.341V343.808H128.491ZM118.348 338.769C120.512 338.756 123.413 338.73 125.9 338.419L125.978 339.455C125.013 339.617 124.015 339.727 123.025 339.792V342.046H121.587V339.87C120.492 339.915 119.449 339.922 118.53 339.922L118.348 338.769ZM122.17 333.937C123.879 333.937 125.071 334.779 125.084 336.01C125.071 337.266 123.879 338.069 122.17 338.069C120.434 338.069 119.242 337.266 119.242 336.01C119.242 334.779 120.434 333.937 122.17 333.937ZM122.17 334.999C121.237 334.999 120.602 335.375 120.602 336.01C120.602 336.644 121.237 337.02 122.17 337.02C123.063 337.02 123.698 336.644 123.711 336.01C123.698 335.375 123.063 334.999 122.17 334.999ZM142.021 333.497V340.453H140.584V337.59H138.589V336.411H140.584V333.497H142.021ZM138.058 340.751C140.545 340.751 142.06 341.567 142.06 342.979C142.06 344.39 140.545 345.207 138.058 345.207C135.584 345.207 134.068 344.39 134.081 342.979C134.068 341.567 135.584 340.751 138.058 340.751ZM138.058 341.852C136.426 341.852 135.506 342.24 135.506 342.979C135.506 343.704 136.426 344.093 138.058 344.093C139.69 344.093 140.623 343.704 140.623 342.979C140.623 342.24 139.69 341.852 138.058 341.852ZM136.516 335.504C136.516 336.929 137.462 338.367 139.275 338.976L138.55 340.116C137.248 339.675 136.322 338.782 135.817 337.681C135.299 338.931 134.321 339.928 132.928 340.427L132.177 339.287C134.055 338.639 135.053 337.059 135.053 335.517V335.427H132.617V334.261H138.939V335.427H136.516V335.504ZM153.061 333.497V345.207H151.611V333.497H153.061ZM149.564 334.74C149.564 338.225 148.217 341.191 144.111 343.134L143.359 341.981C146.423 340.524 147.848 338.542 148.1 335.88H143.955V334.74H149.564ZM160.41 334.209C160.397 337.227 158.415 339.339 155.008 340.297L154.425 339.17C157.048 338.451 158.603 337.085 158.868 335.375H155.06V334.209H160.41ZM164.153 333.51V340.103H162.715V337.551H160.461V336.372H162.715V333.51H164.153ZM164.153 340.569V345.051H156.446V340.569H164.153ZM157.858 341.709V343.911H162.728V341.709H157.858ZM169.856 335.88C169.856 337.331 170.854 338.756 172.719 339.339L171.981 340.466C170.653 340.032 169.688 339.157 169.157 338.043C168.626 339.254 167.635 340.22 166.242 340.699L165.504 339.559C167.382 338.937 168.393 337.422 168.406 335.88V335.543H165.88V334.39H172.317V335.543H169.856V335.88ZM175.167 333.51V342.007H173.716V333.51H175.167ZM175.491 343.808V344.973H167.421V341.23H168.872V343.808H175.491ZM181.803 334.157C184.277 334.157 186.168 335.466 186.168 337.46C186.168 339.481 184.277 340.789 181.803 340.789C179.342 340.789 177.451 339.481 177.464 337.46C177.451 335.466 179.342 334.157 181.803 334.157ZM181.803 335.323C180.106 335.31 178.85 336.165 178.85 337.46C178.85 338.782 180.106 339.611 181.803 339.611C183.513 339.611 184.756 338.782 184.756 337.46C184.756 336.165 183.513 335.31 181.803 335.323ZM187.179 342.551V343.73H176.479V342.551H187.179ZM198.244 342.655V343.846H187.545V342.655H192.156V340.751H188.814V336.916H195.55V335.466H188.788V334.3H196.975V338.056H190.252V339.572H197.247V340.751H193.581V342.655H198.244ZM211.114 333.51V341.968H209.664V333.51H211.114ZM211.438 343.808V344.973H203.368V341.113H204.819V343.808H211.438ZM204.728 334.274C206.503 334.274 207.876 335.504 207.876 337.201C207.876 338.937 206.503 340.142 204.728 340.142C202.941 340.142 201.568 338.937 201.568 337.201C201.568 335.504 202.941 334.274 204.728 334.274ZM204.728 335.53C203.731 335.53 202.967 336.191 202.98 337.201C202.967 338.238 203.731 338.885 204.728 338.885C205.7 338.885 206.464 338.238 206.464 337.201C206.464 336.191 205.7 335.53 204.728 335.53ZM221.662 333.51V337.188H223.294V338.38H221.662V342.253H220.224V333.51H221.662ZM219.382 334.805V335.958H212.439V334.805H215.198V333.497H216.636V334.805H219.382ZM215.911 336.437C217.595 336.437 218.761 337.331 218.774 338.678C218.761 340.012 217.595 340.893 215.911 340.893C214.214 340.893 213.035 340.012 213.035 338.678C213.035 337.331 214.214 336.437 215.911 336.437ZM215.911 337.551C215.017 337.551 214.434 337.966 214.434 338.678C214.434 339.378 215.017 339.792 215.911 339.779C216.805 339.792 217.4 339.378 217.4 338.678C217.4 337.966 216.805 337.551 215.911 337.551ZM222.128 343.808V344.973H214.162V341.567H215.6V343.808H222.128ZM236.048 333.51V342.098H234.61V339.196H231.825C231.261 339.824 230.432 340.207 229.493 340.207C227.732 340.207 226.397 338.937 226.397 337.214C226.397 335.466 227.732 334.209 229.493 334.209C230.426 334.209 231.248 334.585 231.812 335.207H234.61V333.51H236.048ZM236.346 343.808V344.973H228.366V341.217H229.804V343.808H236.346ZM229.493 335.492C228.483 335.492 227.77 336.165 227.77 337.214C227.77 338.251 228.483 338.924 229.493 338.924C230.452 338.924 231.177 338.251 231.19 337.214C231.177 336.165 230.452 335.492 229.493 335.492ZM232.447 336.372C232.518 336.638 232.563 336.916 232.563 337.214C232.563 337.499 232.524 337.771 232.46 338.03H234.61V336.372H232.447ZM241.427 337.214C241.427 338.95 242.411 340.841 244.212 341.696L243.409 342.784C242.146 342.195 241.226 341.036 240.74 339.663C240.222 341.139 239.257 342.389 237.917 342.992L237.126 341.878C238.966 341.049 240.002 339.054 240.002 337.214V336.606H237.502V335.453H240.002V333.743H241.44V335.453H243.901V336.606H241.427V337.214ZM246.479 333.497V338.134H248.279V339.339H246.479V345.207H245.041V333.497H246.479ZM255.307 336.308C255.294 338.393 256.344 340.517 258.157 341.385L257.276 342.538C256.007 341.897 255.094 340.66 254.595 339.17C254.083 340.764 253.125 342.085 251.784 342.758L250.903 341.606C252.781 340.712 253.857 338.471 253.869 336.308V334.442H255.307V336.308ZM260.294 333.497V338.082H262.095V339.313H260.294V345.207H258.857V333.497H260.294ZM272.863 339.131V340.284H262.189V339.131H264.676V337.642C263.795 337.273 263.29 336.683 263.29 335.919C263.29 334.52 264.935 333.691 267.513 333.691C270.091 333.691 271.723 334.52 271.736 335.919C271.729 336.69 271.224 337.279 270.337 337.642V339.131H272.863ZM267.513 340.997C270.039 340.984 271.554 341.735 271.567 343.082C271.554 344.442 270.039 345.181 267.513 345.181C264.961 345.181 263.433 344.442 263.433 343.082C263.433 341.735 264.961 340.984 267.513 340.997ZM267.513 342.085C265.803 342.085 264.883 342.422 264.896 343.082C264.883 343.743 265.803 344.093 267.513 344.093C269.184 344.093 270.117 343.743 270.13 343.082C270.117 342.422 269.184 342.085 267.513 342.085ZM267.513 334.805C265.777 334.805 264.78 335.194 264.793 335.919C264.78 336.631 265.777 337.007 267.513 337.007C269.236 337.007 270.246 336.631 270.246 335.919C270.246 335.194 269.236 334.805 267.513 334.805ZM266.127 339.131H268.899V338.017C268.478 338.076 268.012 338.108 267.513 338.108C267.014 338.108 266.548 338.076 266.127 338.017V339.131Z" fill="#2A2929"/>
<path d="M95.7471 387.961C97.2626 387.948 98.4543 388.823 98.7522 390.111H100.864V387.443H102.301V393.725H100.864V391.277H98.7652C98.4737 392.592 97.2691 393.479 95.7471 393.479C93.9465 393.479 92.6512 392.326 92.6512 390.707C92.6512 389.114 93.9465 387.948 95.7471 387.961ZM95.7471 389.166C94.7367 389.166 94.0242 389.762 94.0242 390.707C94.0242 391.64 94.7367 392.262 95.7471 392.262C96.7315 392.262 97.431 391.64 97.4439 390.707C97.431 389.762 96.7315 389.166 95.7471 389.166ZM96.0061 394.269V395.513H100.864V394.269H102.301V399.01H94.5812V394.269H96.0061ZM96.0061 397.845H100.864V396.627H96.0061V397.845ZM114.248 394.075V395.241H109.585V399.14H108.16V395.241H103.549V394.075H114.248ZM112.94 388.039V392.702H104.857V388.039H112.94ZM106.269 389.192V391.575H111.502V389.192H106.269ZM124.705 387.443V399.153H123.332V393.181H122.011V398.557H120.69V387.663H122.011V392.028H123.332V387.443H124.705ZM119.368 388.829V389.995H116.441V395.202C117.717 395.189 118.766 395.124 119.951 394.904L120.055 396.083C118.643 396.368 117.412 396.407 115.78 396.42H114.99V388.829H119.368ZM135.706 387.443V394.801H134.333V391.614H133.193V394.412H131.846V387.676H133.193V390.448H134.333V387.443H135.706ZM131.458 388.712V389.839H125.628V388.712H127.844V387.547H129.268V388.712H131.458ZM128.556 390.319C130.046 390.319 131.095 391.122 131.108 392.339C131.095 393.557 130.046 394.36 128.556 394.36C127.092 394.36 126.03 393.557 126.043 392.339C126.03 391.122 127.092 390.319 128.556 390.319ZM128.556 391.355C127.831 391.355 127.325 391.731 127.325 392.339C127.325 392.948 127.818 393.324 128.556 393.324C129.294 393.324 129.799 392.948 129.799 392.339C129.799 391.731 129.294 391.355 128.556 391.355ZM131.755 394.943C134.255 394.943 135.758 395.707 135.771 397.054C135.758 398.376 134.255 399.14 131.755 399.14C129.255 399.14 127.74 398.376 127.74 397.054C127.74 395.707 129.255 394.943 131.755 394.943ZM131.755 396.044C130.084 396.031 129.178 396.368 129.178 397.054C129.178 397.702 130.084 398.039 131.755 398.039C133.413 398.039 134.32 397.702 134.32 397.054C134.32 396.368 133.413 396.031 131.755 396.044ZM140.956 390.772C140.956 392.585 142.031 394.645 143.883 395.5L143.08 396.64C141.759 396.018 140.781 394.762 140.257 393.298C139.725 394.904 138.702 396.277 137.355 396.925L136.513 395.798C138.378 394.917 139.505 392.715 139.518 390.772V389.788H136.966V388.596H143.404V389.788H140.956V390.772ZM145.93 387.443V392.003H147.731V393.207H145.93V399.153H144.492V387.443H145.93Z" fill="#999999"/>
<rect x="92.6598" y="414.081" width="194.543" height="36.4768" rx="4.88199" fill="white"/>
<rect x="92.6598" y="414.081" width="194.543" height="36.4768" rx="4.88199" stroke="#DDDDDD" stroke-width="1.10536"/>
<path d="M112.053 433.295V435.186C113.07 435.134 114.093 435.044 115.058 434.901L115.175 435.963C112.545 436.443 109.734 436.469 107.675 436.469L107.493 435.303C108.407 435.296 109.482 435.29 110.615 435.251V433.295H112.053ZM114.579 428.463V429.629H112.079C112.144 430.879 113.135 432.006 114.903 432.453L114.242 433.58C112.856 433.204 111.865 432.395 111.34 431.352C110.822 432.453 109.844 433.295 108.452 433.671L107.765 432.583C109.533 432.097 110.505 430.944 110.589 429.629H108.115V428.463H110.615V427.129H112.053V428.463H114.579ZM117.195 427.025V438.748H115.758V427.025H117.195ZM129.194 433.593V434.759H126.59V438.735H125.127V434.759H122.536V438.735H121.059V434.759H118.494V433.593H129.194ZM123.818 427.44C126.305 427.453 128.041 428.463 128.041 430.057C128.041 431.624 126.305 432.621 123.818 432.621C121.318 432.621 119.608 431.624 119.621 430.057C119.608 428.463 121.318 427.453 123.818 427.44ZM123.818 428.606C122.16 428.606 121.085 429.137 121.098 430.057C121.085 430.95 122.16 431.481 123.818 431.481C125.476 431.481 126.551 430.95 126.551 430.057C126.551 429.137 125.476 428.606 123.818 428.606ZM131.594 427.867V429.642H134.379V427.867H135.817V433.735H130.169V427.867H131.594ZM131.594 432.595H134.379V430.756H131.594V432.595ZM139.327 427.038V435.652H137.876V427.038H139.327ZM139.599 437.336V438.502H131.529V434.772H132.98V437.336H139.599ZM153.466 427.025V438.735H152.093V432.764H150.772V438.14H149.451V427.246H150.772V431.611H152.093V427.025H153.466ZM148.13 428.412V429.577H145.202V434.785C146.478 434.772 147.527 434.707 148.713 434.487L148.816 435.665C147.404 435.95 146.174 435.989 144.542 436.002H143.751V428.412H148.13ZM164.208 427.025V438.748H162.784V427.025H164.208ZM160.607 428.049V432.44H156.579V434.798C158.425 434.785 160.018 434.694 161.838 434.383L161.968 435.562C159.973 435.912 158.224 435.976 156.126 435.976H155.102V431.3H159.144V429.215H155.089V428.049H160.607Z" fill="#2A2929"/>
<g clip-path="url(#clip1_279_747)">
<path d="M264.543 430.009C264.543 429.725 264.693 429.442 264.984 429.243C265.512 428.885 266.302 428.937 266.749 429.36L269.517 431.973L272.283 429.359C272.73 428.936 273.521 428.884 274.05 429.242C274.575 429.601 274.642 430.236 274.194 430.659L270.472 434.177C270.233 434.402 269.885 434.531 269.517 434.531C269.15 434.531 268.801 434.402 268.562 434.177L264.84 430.659C264.64 430.47 264.543 430.239 264.543 430.009Z" fill="#222222"/>
</g>
<path d="M325.117 387.456V395.953H323.666V387.456H325.117ZM321.71 388.324C321.697 391.446 319.637 393.687 316.127 394.723L315.57 393.57C318.264 392.78 319.883 391.316 320.143 389.503H316.218V388.324H321.71ZM325.389 397.754V398.92H317.358V395.228H318.808V397.754H325.389ZM329.188 394.114V395.461H334.382V394.114H335.807V399.01H327.776V394.114H329.188ZM329.188 397.845H334.382V396.575H329.188V397.845ZM335.846 387.948V388.855C335.846 389.742 335.846 390.72 335.561 392.093H337.154V393.246H326.454V392.093H334.136C334.382 390.856 334.408 389.924 334.408 389.101H327.776V387.948H335.846ZM347.326 387.456V396.044H345.888V393.142H343.103C342.54 393.771 341.711 394.153 340.772 394.153C339.01 394.153 337.676 392.883 337.676 391.161C337.676 389.412 339.01 388.155 340.772 388.155C341.704 388.155 342.527 388.531 343.09 389.153H345.888V387.456H347.326ZM347.624 397.754V398.92H339.645V395.163H341.082V397.754H347.624ZM340.772 389.438C339.761 389.438 339.049 390.111 339.049 391.161C339.049 392.197 339.761 392.87 340.772 392.87C341.73 392.87 342.456 392.197 342.468 391.161C342.456 390.111 341.73 389.438 340.772 389.438ZM343.725 390.319C343.796 390.584 343.842 390.863 343.842 391.161C343.842 391.446 343.803 391.718 343.738 391.977H345.888V390.319H343.725ZM354.376 388.117V391.588H350.477V392.896C352.466 392.89 353.826 392.825 355.426 392.547L355.581 393.699C353.832 393.997 352.317 394.075 349.998 394.075H349.039V390.474H352.964V389.282H349.027V388.117H354.376ZM357.822 387.456V390.319H359.467V391.51H357.822V394.567H356.384V387.456H357.822ZM357.822 395.124V399.14H356.384V396.277H350.024V395.124H357.822ZM369.471 387.443V399.166H368.033V393.181H365.766V392.016H368.033V387.443H369.471ZM363.927 391.161C363.914 392.935 364.976 394.826 366.828 395.642L366.051 396.744C364.71 396.174 363.739 395.001 363.227 393.596C362.709 395.085 361.744 396.335 360.403 396.938L359.626 395.824C361.452 394.995 362.489 393 362.489 391.161V390.552H359.976V389.399H362.502V387.689H363.94V389.399H366.388V390.552H363.927V391.161Z" fill="#999999"/>
<rect x="315.553" y="414.081" width="194.543" height="36.4768" rx="4.88199" fill="white"/>
<rect x="315.553" y="414.081" width="194.543" height="36.4768" rx="4.88199" stroke="#DDDDDD" stroke-width="1.10536"/>
<path d="M334.182 437.712C331.928 437.712 330.58 435.963 330.58 432.893C330.58 429.836 331.928 428.075 334.182 428.075C336.422 428.075 337.783 429.836 337.783 432.893C337.783 435.963 336.435 437.712 334.182 437.712ZM334.182 436.3C335.36 436.3 336.086 435.147 336.086 432.893C336.086 430.652 335.347 429.474 334.182 429.474C333.016 429.474 332.277 430.652 332.277 432.893C332.277 435.147 333.003 436.3 334.182 436.3ZM342.605 428.204V437.583H340.908V429.849H340.856L338.667 431.248V429.707L340.986 428.204H342.605ZM347.945 437.712C345.691 437.712 344.344 435.963 344.344 432.893C344.344 429.836 345.691 428.075 347.945 428.075C350.186 428.075 351.546 429.836 351.546 432.893C351.546 435.963 350.199 437.712 347.945 437.712ZM347.945 436.3C349.124 436.3 349.849 435.147 349.849 432.893C349.849 430.652 349.111 429.474 347.945 429.474C346.779 429.474 346.041 430.652 346.041 432.893C346.041 435.147 346.767 436.3 347.945 436.3ZM356.835 432.22V433.58H352.612V432.22H356.835ZM361.502 437.712C359.248 437.712 357.901 435.963 357.901 432.893C357.901 429.836 359.248 428.075 361.502 428.075C363.743 428.075 365.103 429.836 365.103 432.893C365.103 435.963 363.756 437.712 361.502 437.712ZM361.502 436.3C362.681 436.3 363.406 435.147 363.406 432.893C363.406 430.652 362.668 429.474 361.502 429.474C360.336 429.474 359.598 430.652 359.598 432.893C359.598 435.147 360.323 436.3 361.502 436.3ZM369.575 437.712C367.321 437.712 365.974 435.963 365.974 432.893C365.974 429.836 367.321 428.075 369.575 428.075C371.816 428.075 373.176 429.836 373.176 432.893C373.176 435.963 371.829 437.712 369.575 437.712ZM369.575 436.3C370.754 436.3 371.48 435.147 371.48 432.893C371.48 430.652 370.741 429.474 369.575 429.474C368.41 429.474 367.671 430.652 367.671 432.893C367.671 435.147 368.397 436.3 369.575 436.3ZM377.649 437.712C375.395 437.712 374.048 435.963 374.048 432.893C374.048 429.836 375.395 428.075 377.649 428.075C379.89 428.075 381.25 429.836 381.25 432.893C381.25 435.963 379.903 437.712 377.649 437.712ZM377.649 436.3C378.828 436.3 379.553 435.147 379.553 432.893C379.553 430.652 378.815 429.474 377.649 429.474C376.483 429.474 375.745 430.652 375.745 432.893C375.745 435.147 376.47 436.3 377.649 436.3ZM385.723 437.712C383.469 437.712 382.122 435.963 382.122 432.893C382.122 429.836 383.469 428.075 385.723 428.075C387.964 428.075 389.324 429.836 389.324 432.893C389.324 435.963 387.976 437.712 385.723 437.712ZM385.723 436.3C386.901 436.3 387.627 435.147 387.627 432.893C387.627 430.652 386.888 429.474 385.723 429.474C384.557 429.474 383.818 430.652 383.818 432.893C383.818 435.147 384.544 436.3 385.723 436.3ZM394.612 432.22V433.58H390.389V432.22H394.612ZM399.279 437.712C397.025 437.712 395.678 435.963 395.678 432.893C395.678 429.836 397.025 428.075 399.279 428.075C401.52 428.075 402.88 429.836 402.88 432.893C402.88 435.963 401.533 437.712 399.279 437.712ZM399.279 436.3C400.458 436.3 401.183 435.147 401.183 432.893C401.183 430.652 400.445 429.474 399.279 429.474C398.113 429.474 397.375 430.652 397.375 432.893C397.375 435.147 398.1 436.3 399.279 436.3ZM407.353 437.712C405.099 437.712 403.752 435.963 403.752 432.893C403.752 429.836 405.099 428.075 407.353 428.075C409.594 428.075 410.954 429.836 410.954 432.893C410.954 435.963 409.607 437.712 407.353 437.712ZM407.353 436.3C408.531 436.3 409.257 435.147 409.257 432.893C409.257 430.652 408.518 429.474 407.353 429.474C406.187 429.474 405.449 430.652 405.449 432.893C405.449 435.147 406.174 436.3 407.353 436.3ZM415.426 437.712C413.172 437.712 411.825 435.963 411.825 432.893C411.825 429.836 413.172 428.075 415.426 428.075C417.667 428.075 419.027 429.836 419.027 432.893C419.027 435.963 417.68 437.712 415.426 437.712ZM415.426 436.3C416.605 436.3 417.33 435.147 417.33 432.893C417.33 430.652 416.592 429.474 415.426 429.474C414.26 429.474 413.522 430.652 413.522 432.893C413.522 435.147 414.248 436.3 415.426 436.3ZM423.5 437.712C421.246 437.712 419.899 435.963 419.899 432.893C419.899 429.836 421.246 428.075 423.5 428.075C425.741 428.075 427.101 429.836 427.101 432.893C427.101 435.963 425.754 437.712 423.5 437.712ZM423.5 436.3C424.679 436.3 425.404 435.147 425.404 432.893C425.404 430.652 424.666 429.474 423.5 429.474C422.334 429.474 421.596 430.652 421.596 432.893C421.596 435.147 422.321 436.3 423.5 436.3Z" fill="#2A2929"/>
<path d="M101.452 164.978H100.052V161.31H97.686C97.4153 161.814 97.0047 162.206 96.454 162.486C95.9127 162.766 95.2687 162.906 94.522 162.906C93.99 162.906 93.5093 162.836 93.08 162.696C92.6507 162.547 92.282 162.341 91.974 162.08C91.666 161.809 91.428 161.487 91.26 161.114C91.092 160.731 91.008 160.302 91.008 159.826V158.552C91.008 158.076 91.092 157.651 91.26 157.278C91.428 156.895 91.666 156.573 91.974 156.312C92.282 156.041 92.6507 155.836 93.08 155.696C93.5093 155.547 93.99 155.472 94.522 155.472C95.2313 155.472 95.8473 155.598 96.37 155.85C96.902 156.102 97.3127 156.461 97.602 156.928H100.052V155.556H101.452V164.978ZM96.636 158.622C96.636 158.025 96.4447 157.563 96.062 157.236C95.6793 156.9 95.166 156.732 94.522 156.732C93.878 156.732 93.3647 156.9 92.982 157.236C92.5993 157.563 92.408 158.025 92.408 158.622V159.756C92.408 160.353 92.5993 160.82 92.982 161.156C93.3647 161.483 93.878 161.646 94.522 161.646C95.166 161.646 95.6793 161.483 96.062 161.156C96.4447 160.82 96.636 160.353 96.636 159.756V158.622ZM101.536 168.212H91.75V163.76H93.15V166.952H101.536V168.212ZM100.052 160.022V158.216H98.022C98.022 158.272 98.022 158.328 98.022 158.384C98.0313 158.44 98.036 158.496 98.036 158.552V159.826V160.022H100.052ZM110.303 167.204H108.904L107.322 158.202C107.266 157.866 107.121 157.698 106.888 157.698H106.02C105.777 157.698 105.628 157.866 105.572 158.202L103.92 167.204H102.519L104.27 157.698H102.743V156.438H105.754V154.982H107.154V156.438H110.29V157.698H108.624L110.303 167.204ZM113.16 168.212H111.76V155.556H113.16V160.54H114.812V161.828H113.16V168.212ZM129.204 164.978H127.804V155.556H129.204V164.978ZM129.288 168.212H119.502V163.76H120.902V166.952H129.288V168.212ZM125.858 163.004H124.458V156.97H122.946C122.647 156.97 122.432 157.026 122.302 157.138C122.171 157.25 122.059 157.423 121.966 157.656L119.88 163.004H118.326L120.538 157.334C120.64 157.063 120.743 156.825 120.846 156.62C120.948 156.415 121.074 156.247 121.224 156.116C121.373 155.976 121.55 155.873 121.756 155.808C121.97 155.743 122.236 155.71 122.554 155.71H125.858V163.004ZM139.049 163.508C139.899 163.508 140.557 163.713 141.023 164.124C141.49 164.525 141.723 165.104 141.723 165.86C141.723 166.616 141.49 167.195 141.023 167.596C140.557 168.007 139.899 168.212 139.049 168.212H134.163C133.314 168.212 132.656 168.007 132.189 167.596C131.723 167.195 131.489 166.616 131.489 165.86C131.489 165.104 131.723 164.525 132.189 164.124C132.656 163.713 133.314 163.508 134.163 163.508H139.049ZM138.251 162.64H136.781L135.199 157.824C135.162 157.712 135.125 157.637 135.087 157.6C135.059 157.553 134.994 157.53 134.891 157.53H133.925C133.823 157.53 133.753 157.553 133.715 157.6C133.687 157.647 133.655 157.721 133.617 157.824L131.951 162.64H130.481L132.245 157.53H130.663V156.27H133.715V154.842H135.115V156.27H138.307V157.53H136.585L138.251 162.64ZM138.867 166.952C139.362 166.952 139.726 166.854 139.959 166.658C140.202 166.462 140.323 166.196 140.323 165.86C140.323 165.524 140.202 165.258 139.959 165.062C139.726 164.866 139.362 164.768 138.867 164.768H134.345C133.851 164.768 133.482 164.866 133.239 165.062C133.006 165.258 132.889 165.524 132.889 165.86C132.889 166.196 133.006 166.462 133.239 166.658C133.482 166.854 133.851 166.952 134.345 166.952H138.867ZM141.471 163.06H140.071V160.008H137.957V158.72H140.071V155.556H141.471V163.06ZM153.739 168.212H152.339V161.506H150.113V167.204H148.713V156.97H147.621C147.322 156.97 147.112 157.031 146.991 157.152C146.869 157.264 146.781 157.432 146.725 157.656L144.345 167.204H142.861L145.255 157.544C145.32 157.273 145.395 157.026 145.479 156.802C145.572 156.578 145.689 156.387 145.829 156.228C145.978 156.06 146.16 155.934 146.375 155.85C146.589 155.757 146.86 155.71 147.187 155.71H150.113V160.218H152.339V155.556H153.739V168.212Z" fill="black"/>
</g>
<g filter="url(#filter1_d_279_747)">
<rect x="60" y="57.1265" width="216" height="47.7474" rx="5.68421" fill="#5767C6" shape-rendering="crispEdges"/>
<g clip-path="url(#clip2_279_747)">
<path d="M79.0348 70.7686H89.5759L95.2401 76.2602V89.3099C95.2401 90.3662 94.3474 91.2317 93.2579 91.2317H79.0348C77.9453 91.2317 77.0526 90.3662 77.0526 89.3099V72.6903C77.0526 71.634 77.9453 70.7686 79.0348 70.7686Z" fill="white"/>
<path d="M89.5759 70.7686V74.3384C89.5759 75.3947 90.4686 76.2602 91.5581 76.2602H95.2401L89.5759 70.7686Z" fill="#5767C6"/>
<path d="M82.4624 85.8501H81.2575C80.842 85.8501 80.504 86.1778 80.504 86.5806C80.504 86.9835 80.842 87.3112 81.2575 87.3112H82.4624C82.8779 87.3112 83.2159 86.9835 83.2159 86.5806C83.2159 86.1778 82.8779 85.8501 82.4624 85.8501Z" fill="#EEEEEE"/>
<path d="M91.069 85.8501H84.7487C84.3332 85.8501 83.9952 86.1778 83.9952 86.5806C83.9952 86.9835 84.3332 87.3112 84.7487 87.3112H91.069C91.4845 87.3112 91.8225 86.9835 91.8225 86.5806C91.8225 86.1778 91.4845 85.8501 91.069 85.8501Z" fill="#EEEEEE"/>
<path d="M84.4823 83.2095H81.2575C80.842 83.2095 80.504 83.5372 80.504 83.94C80.504 84.3429 80.842 84.6706 81.2575 84.6706H84.4823C84.8978 84.6706 85.2358 84.3429 85.2358 83.94C85.2358 83.5372 84.8978 83.2095 84.4823 83.2095Z" fill="#EEEEEE"/>
<path d="M87.1782 83.2095H86.7687C86.3531 83.2095 86.0152 83.5372 86.0152 83.94C86.0152 84.3429 86.3531 84.6706 86.7687 84.6706H87.1782C87.5937 84.6706 87.9317 84.3429 87.9317 83.94C87.9317 83.5372 87.5937 83.2095 87.1782 83.2095Z" fill="#EEEEEE"/>
<path d="M88.8721 80.5703H81.2575C80.842 80.5703 80.504 80.898 80.504 81.3009C80.504 81.7037 80.842 82.0314 81.2575 82.0314H88.8721C89.2876 82.0314 89.6256 81.7037 89.6256 81.3009C89.6256 80.898 89.2876 80.5703 88.8721 80.5703Z" fill="#EEEEEE"/>
<path d="M86.4148 74.271H81.3351C80.875 74.271 80.502 74.6326 80.502 75.0787V77.2819C80.502 77.7279 80.875 78.0895 81.3351 78.0895H86.4148C86.8748 78.0895 87.2478 77.7279 87.2478 77.2819V75.0787C87.2478 74.6326 86.8748 74.271 86.4148 74.271Z" fill="#EEEEEE"/>
</g>
<path d="M118.07 74.2086V83.8062H116.237V80.6888H113.235C112.6 81.3599 111.684 81.7713 110.666 81.7713C108.674 81.7713 107.159 80.328 107.173 78.3796C107.159 76.4023 108.674 74.9735 110.666 74.9591C111.684 74.9663 112.593 75.3704 113.235 76.0415H116.237V74.2086H118.07ZM118.388 85.6248V87.0969H109.353V82.8393H111.2V85.6248H118.388ZM110.666 76.6044C109.641 76.6044 108.905 77.2683 108.92 78.3796C108.905 79.4765 109.641 80.1404 110.666 80.1404C111.633 80.1404 112.384 79.4765 112.384 78.3796C112.384 77.2683 111.633 76.6044 110.666 76.6044ZM114.029 77.5137C114.094 77.7879 114.13 78.0765 114.13 78.3796C114.13 78.6683 114.094 78.9497 114.029 79.2167H116.237V77.5137H114.029ZM124.18 78.3074C124.18 80.1692 125.147 82.2908 127.24 83.2722L126.215 84.6578C124.815 84.03 123.841 82.7888 123.285 81.3238C122.723 82.9042 121.683 84.2392 120.197 84.8887L119.187 83.4599C121.323 82.5218 122.347 80.2847 122.362 78.3074V77.8023H119.648V76.3302H122.347V74.4828H124.195V76.3302H126.865V77.8023H124.18V78.3074ZM129.795 74.1942V79.2889H131.729V80.8331H129.795V87.3278H127.947V74.1942H129.795ZM142.861 74.2086V83.7918H141.014V74.2086H142.861ZM143.208 85.6248V87.0969H134.057V82.8681H135.919V85.6248H143.208ZM136.901 76.2003C136.886 77.9322 137.81 79.6352 139.975 80.328L139.037 81.7713C137.557 81.2806 136.533 80.2991 135.948 79.0435C135.364 80.3929 134.31 81.4754 132.773 82.0022L131.82 80.5445C134.029 79.8084 134.981 77.9755 134.981 76.2003V74.9302H136.901V76.2003ZM151.786 75.5653V77.0085H149.13C149.145 78.358 150.141 79.729 152.248 80.2703L151.396 81.6847C149.903 81.3094 148.849 80.4795 148.25 79.4043C147.68 80.6311 146.626 81.5909 145.075 82.031L144.209 80.6022C146.316 80.0033 147.283 78.5023 147.297 77.0085H144.656V75.5653H147.297V74.1364H149.159V75.5653H151.786ZM155.365 74.1942V82.1321H153.532V79.1878H151.396V77.7157H153.532V74.1942H155.365ZM150.877 82.3486C153.677 82.363 155.394 83.2434 155.409 84.8165C155.394 86.4041 153.677 87.3278 150.877 87.3278C148.091 87.3278 146.359 86.4041 146.359 84.8165C146.359 83.2434 148.091 82.363 150.877 82.3486ZM150.877 83.763C149.13 83.763 148.192 84.1093 148.192 84.8165C148.192 85.5382 149.13 85.9278 150.877 85.9278C152.652 85.9278 153.576 85.5382 153.576 84.8165C153.576 84.1093 152.652 83.763 150.877 83.763ZM161.692 77.1673C161.692 79.6352 162.688 82.031 164.882 82.9836L163.756 84.4557C162.298 83.7413 161.324 82.4352 160.783 80.8187C160.206 82.5362 159.195 83.9434 157.694 84.6866L156.54 83.1856C158.791 82.1754 159.816 79.6352 159.83 77.1673V75.2044H161.692V77.1673ZM167.811 74.1942V87.3567H165.993V79.8084H163.41V78.3219H165.993V74.1942H167.811Z" fill="white"/>
</g>
<rect x="282" y="60" width="190" height="42" rx="5" fill="#F7F9FC"/>
<g clip-path="url(#clip3_279_747)">
<path d="M298.744 72H308.016L312.998 76.8306V88.3095C312.998 89.2387 312.213 90 311.255 90H298.744C297.785 90 297 89.2387 297 88.3095V73.6905C297 72.7613 297.785 72 298.744 72Z" fill="white"/>
<path d="M308.016 72V75.1402C308.016 76.0693 308.801 76.8306 309.759 76.8306H312.998L308.016 72Z" fill="#5767C6"/>
<path d="M301.759 85.2661H300.699C300.333 85.2661 300.036 85.5544 300.036 85.9087C300.036 86.2631 300.333 86.5513 300.699 86.5513H301.759C302.124 86.5513 302.421 86.2631 302.421 85.9087C302.421 85.5544 302.124 85.2661 301.759 85.2661Z" fill="#EEEEEE"/>
<path d="M309.329 85.2661H303.77C303.404 85.2661 303.107 85.5544 303.107 85.9087C303.107 86.2631 303.404 86.5513 303.77 86.5513H309.329C309.695 86.5513 309.992 86.2631 309.992 85.9087C309.992 85.5544 309.695 85.2661 309.329 85.2661Z" fill="#EEEEEE"/>
<path d="M303.535 82.9434H300.699C300.333 82.9434 300.036 83.2316 300.036 83.586C300.036 83.9403 300.333 84.2286 300.699 84.2286H303.535C303.901 84.2286 304.198 83.9403 304.198 83.586C304.198 83.2316 303.901 82.9434 303.535 82.9434Z" fill="#EEEEEE"/>
<path d="M305.907 82.9434H305.547C305.181 82.9434 304.884 83.2316 304.884 83.586C304.884 83.9403 305.181 84.2286 305.547 84.2286H305.907C306.272 84.2286 306.57 83.9403 306.57 83.586C306.57 83.2316 306.272 82.9434 305.907 82.9434Z" fill="#EEEEEE"/>
<path d="M307.397 80.6221H300.699C300.333 80.6221 300.036 80.9103 300.036 81.2647C300.036 81.6191 300.333 81.9073 300.699 81.9073H307.397C307.762 81.9073 308.06 81.6191 308.06 81.2647C308.06 80.9103 307.762 80.6221 307.397 80.6221Z" fill="#EEEEEE"/>
<path d="M305.235 75.0811H300.767C300.362 75.0811 300.034 75.3991 300.034 75.7915V77.7295C300.034 78.1219 300.362 78.4399 300.767 78.4399H305.235C305.64 78.4399 305.968 78.1219 305.968 77.7295V75.7915C305.968 75.3991 305.64 75.0811 305.235 75.0811Z" fill="#EEEEEE"/>
</g>
<path d="M333.854 82.0898V83.2324H331.303V87.1299H329.868V83.2324H327.329V87.1299H325.882V83.2324H323.368V82.0898H333.854ZM328.586 76.0596C331.023 76.0723 332.725 77.0625 332.725 78.624C332.725 80.1602 331.023 81.1377 328.586 81.1377C326.136 81.1377 324.46 80.1602 324.473 78.624C324.46 77.0625 326.136 76.0723 328.586 76.0596ZM328.586 77.2021C326.961 77.2021 325.907 77.7227 325.92 78.624C325.907 79.5 326.961 80.0205 328.586 80.0205C330.211 80.0205 331.265 79.5 331.265 78.624C331.265 77.7227 330.211 77.2021 328.586 77.2021ZM343.927 75.666V84.083H342.517V81.2393H339.788C339.236 81.855 338.423 82.2295 337.503 82.2295C335.776 82.2295 334.469 80.9854 334.469 79.2969C334.469 77.583 335.776 76.3516 337.503 76.3516C338.417 76.3516 339.223 76.7197 339.775 77.3291H342.517V75.666H343.927ZM344.219 85.7588V86.9014H336.398V83.2197H337.807V85.7588H344.219ZM337.503 77.6084C336.512 77.6084 335.814 78.2686 335.814 79.2969C335.814 80.3125 336.512 80.9727 337.503 80.9727C338.442 80.9727 339.153 80.3125 339.166 79.2969C339.153 78.2686 338.442 77.6084 337.503 77.6084ZM340.397 78.4717C340.467 78.7319 340.512 79.0049 340.512 79.2969C340.512 79.5762 340.473 79.8428 340.41 80.0967H342.517V78.4717H340.397ZM354.456 76.3135V77.2656C354.456 78.2305 354.456 79.3413 354.202 80.7949H355.738V81.9502H345.252V80.7949H352.767C353.027 79.4111 353.046 78.3828 353.046 77.4561H346.546V76.3135H354.456ZM354.786 85.7461V86.8887H346.61V83.042H348.006V85.7461H354.786ZM366.661 82.1533V83.2959H362.09V87.1172H360.694V83.2959H356.174V82.1533H366.661ZM365.378 76.2373V80.8076H357.456V76.2373H365.378ZM358.84 77.3672V79.7031H363.969V77.3672H358.84ZM379.467 75.666V84.0449H378.045V75.666H379.467ZM379.784 85.7588V86.9014H371.875V83.2451H373.297V85.7588H379.784ZM374.186 77.418C374.186 79.0176 375.125 80.5283 376.94 81.1377L376.217 82.2549C374.909 81.7979 373.976 80.8838 373.475 79.7158C372.954 80.9663 372.008 81.9692 370.656 82.458L369.92 81.3408C371.786 80.6807 372.726 79.0684 372.726 77.418V76.3008H374.186V77.418ZM384.969 78.1035C384.969 79.3604 385.946 80.6045 387.749 81.0869L387.089 82.1787C385.762 81.8169 384.81 81.0425 384.283 80.0459C383.788 81.1758 382.829 82.0645 381.465 82.4707L380.804 81.3789C382.595 80.833 383.559 79.4873 383.559 78.1035V78.04H381.16V76.9229H383.559V75.6025H384.981V76.9229H387.368V78.04H384.969V78.1035ZM390.453 75.6533V82.5977H389.044V79.9443H387.025V78.8018H389.044V75.6533H390.453ZM386.568 82.8262C388.993 82.8262 390.491 83.6006 390.491 84.959C390.491 86.3301 388.993 87.1172 386.568 87.1172C384.156 87.1172 382.658 86.3301 382.671 84.959C382.658 83.6006 384.156 82.8262 386.568 82.8262ZM386.568 83.9053C384.969 83.918 384.067 84.2734 384.067 84.959C384.067 85.6445 384.969 86.0254 386.568 86.0254C388.193 86.0254 389.082 85.6445 389.082 84.959C389.082 84.2734 388.193 83.918 386.568 83.9053ZM396.018 78.4082C396.018 80.541 397.034 82.6357 398.862 83.4355L398.011 84.5654C396.71 83.9307 395.796 82.7119 395.307 81.2139C394.806 82.7944 393.873 84.1084 392.552 84.7812L391.664 83.6387C393.53 82.7627 394.571 80.5537 394.584 78.4082V76.5801H396.018V78.4082ZM401.401 75.6533V87.1426H400.004V80.5029H397.592V79.3604H400.004V75.6533H401.401Z" fill="#222222"/>
</g>
<defs>
<filter id="filter0_d_279_747" x="13.1329" y="70.7114" width="712.734" height="661.888" filterUnits="userSpaceOnUse" color-interpolation-filters="sRGB">
<feFlood flood-opacity="0" result="BackgroundImageFix"/>
<feColorMatrix in="SourceAlpha" type="matrix" values="0 0 0 0 0 0 0 0 0 0 0 0 0 0 0 0 0 0 127 0" result="hardAlpha"/>
<feOffset dy="-4.42143"/>
<feGaussianBlur stdDeviation="23.4336"/>
<feComposite in2="hardAlpha" operator="out"/>
<feColorMatrix type="matrix" values="0 0 0 0 0.142104 0 0 0 0 0.54285 0 0 0 0 0.557692 0 0 0 0.03 0"/>
<feBlend mode="normal" in2="BackgroundImageFix" result="effect1_dropShadow_279_747"/>
<feBlend mode="normal" in="SourceGraphic" in2="effect1_dropShadow_279_747" result="shape"/>
</filter>
<filter id="filter1_d_279_747" x="51" y="51.1265" width="236" height="67.7476" filterUnits="userSpaceOnUse" color-interpolation-filters="sRGB">
<feFlood flood-opacity="0" result="BackgroundImageFix"/>
<feColorMatrix in="SourceAlpha" type="matrix" values="0 0 0 0 0 0 0 0 0 0 0 0 0 0 0 0 0 0 127 0" result="hardAlpha"/>
<feOffset dx="1" dy="4"/>
<feGaussianBlur stdDeviation="5"/>
<feComposite in2="hardAlpha" operator="out"/>
<feColorMatrix type="matrix" values="0 0 0 0 0 0 0 0 0 0.281784 0 0 0 0 0.338141 0 0 0 0.15 0"/>
<feBlend mode="normal" in2="BackgroundImageFix" result="effect1_dropShadow_279_747"/>
<feBlend mode="normal" in="SourceGraphic" in2="effect1_dropShadow_279_747" result="shape"/>
</filter>
<clipPath id="clip0_279_747">
<rect width="440" height="500" rx="16" fill="white"/>
</clipPath>
<clipPath id="clip1_279_747">
<rect width="9.94821" height="5.52679" fill="white" transform="translate(264.543 429.004)"/>
</clipPath>
<clipPath id="clip2_279_747">
<rect width="18.1895" height="20.4632" fill="white" transform="translate(77.0526 70.7686)"/>
</clipPath>
<clipPath id="clip3_279_747">
<rect width="16" height="18" fill="white" transform="translate(297 72)"/>
</clipPath>
</defs>
</svg>
