<svg width="440" height="500" viewBox="0 0 440 500" fill="none" xmlns="http://www.w3.org/2000/svg">
<g clip-path="url(#clip0_279_2470)">
<g filter="url(#filter0_d_279_2470)">
<g clip-path="url(#clip1_279_2470)">
<rect x="60" y="60" width="600" height="468" rx="22.1071" fill="white"/>
<path d="M103.088 102.832H101.488V98.64H98.784C98.4747 99.216 98.0053 99.664 97.376 99.984C96.7573 100.304 96.0213 100.464 95.168 100.464C94.56 100.464 94.0107 100.384 93.52 100.224C93.0293 100.053 92.608 99.8187 92.256 99.52C91.904 99.2107 91.632 98.8427 91.44 98.416C91.248 97.9787 91.152 97.488 91.152 96.944V95.488C91.152 94.944 91.248 94.4587 91.44 94.032C91.632 93.5947 91.904 93.2267 92.256 92.928C92.608 92.6187 93.0293 92.384 93.52 92.224C94.0107 92.0533 94.56 91.968 95.168 91.968C95.9787 91.968 96.6827 92.112 97.28 92.4C97.888 92.688 98.3573 93.0987 98.688 93.632H101.488V92.064H103.088V102.832ZM97.584 95.568C97.584 94.8853 97.3653 94.3573 96.928 93.984C96.4907 93.6 95.904 93.408 95.168 93.408C94.432 93.408 93.8453 93.6 93.408 93.984C92.9707 94.3573 92.752 94.8853 92.752 95.568V96.864C92.752 97.5467 92.9707 98.08 93.408 98.464C93.8453 98.8373 94.432 99.024 95.168 99.024C95.904 99.024 96.4907 98.8373 96.928 98.464C97.3653 98.08 97.584 97.5467 97.584 96.864V95.568ZM103.184 106.528H92V101.44H93.6V105.088H103.184V106.528ZM101.488 97.168V95.104H99.168C99.168 95.168 99.168 95.232 99.168 95.296C99.1787 95.36 99.184 95.424 99.184 95.488V96.944V97.168H101.488ZM113.684 105.376H112.084L110.276 95.088C110.212 94.704 110.047 94.512 109.78 94.512H108.788C108.511 94.512 108.34 94.704 108.276 95.088L106.388 105.376H104.788L106.788 94.512H105.044V93.072H108.484V91.408H110.084V93.072H113.668V94.512H111.764L113.684 105.376ZM116.948 106.528H115.348V92.064H116.948V97.76H118.836V99.232H116.948V106.528Z" fill="black"/>
<path opacity="0.88" d="M100.778 133.217V134.055H96.0684V138.028H95.0908V134.055H90.4443V133.217H100.778ZM95.5859 127.199C97.96 127.199 99.5596 128.151 99.5596 129.688C99.5596 131.186 97.96 132.138 95.5859 132.138C93.2119 132.138 91.6123 131.186 91.6123 129.688C91.6123 128.151 93.2119 127.199 95.5859 127.199ZM95.5859 128.012C93.8213 128.012 92.6279 128.672 92.6406 129.688C92.6279 130.69 93.8213 131.338 95.5859 131.338C97.3379 131.338 98.5439 130.69 98.5439 129.688C98.5439 128.672 97.3379 128.012 95.5859 128.012ZM110.711 126.742V138.054H109.721V126.742H110.711ZM107.283 127.796V131.808H103.068V134.474C104.941 134.474 106.61 134.391 108.629 134.067L108.73 134.905C106.648 135.235 104.934 135.312 102.992 135.312H102.053V130.995H106.28V128.621H102.027V127.796H107.283ZM124.545 126.742V138.028H123.555V126.742H124.545ZM115.354 135.02C116.319 135.013 117.423 135.007 118.566 134.969V133.737C117.214 133.591 116.331 132.823 116.344 131.693C116.331 130.424 117.423 129.599 119.048 129.599C120.673 129.599 121.778 130.424 121.778 131.693C121.778 132.811 120.902 133.579 119.569 133.725V134.931C120.661 134.886 121.765 134.804 122.806 134.664L122.882 135.426C120.369 135.832 117.601 135.87 115.506 135.87L115.354 135.02ZM122.514 128.139V128.951H115.595V128.139H118.566V126.755H119.569V128.139H122.514ZM119.048 130.373C118.007 130.373 117.271 130.906 117.271 131.693C117.271 132.48 118.007 132.988 119.048 132.976C120.102 132.988 120.826 132.48 120.826 131.693C120.826 130.906 120.102 130.373 119.048 130.373ZM130.009 129.776C130.009 131.77 131.329 133.813 132.929 134.601L132.32 135.4C131.075 134.747 130.034 133.414 129.539 131.846C129.031 133.515 127.965 134.937 126.696 135.616L126.061 134.816C127.711 134.004 129.019 131.833 129.031 129.776V127.72H130.009V129.776ZM134.96 126.742V131.325H136.852V132.188H134.96V138.028H133.97V126.742H134.96ZM149.049 127.479V128.469C149.049 129.542 149.049 130.703 148.731 132.328H150.407V133.153H145.748V138.054H144.745V133.153H140.124V132.328H147.716C148.058 130.703 148.058 129.516 148.058 128.469V128.304H141.419V127.479H149.049ZM154.944 128.52C154.931 130.132 156.074 131.554 157.737 132.112L157.178 132.887C155.934 132.417 154.957 131.503 154.474 130.31C153.985 131.662 152.951 132.715 151.592 133.229L151.046 132.417C152.786 131.808 153.941 130.31 153.954 128.558V127.39H154.944V128.52ZM160.416 126.742V133.433H159.413V129.992H156.899V129.167H159.413V126.742H160.416ZM156.671 133.763C159.019 133.763 160.454 134.537 160.454 135.896C160.454 137.241 159.019 138.003 156.671 138.003C154.322 138.003 152.887 137.241 152.887 135.896C152.887 134.537 154.322 133.763 156.671 133.763ZM156.671 134.55C154.944 134.55 153.865 135.058 153.878 135.896C153.865 136.708 154.944 137.203 156.671 137.203C158.397 137.203 159.463 136.708 159.463 135.896C159.463 135.058 158.397 134.55 156.671 134.55ZM171.3 126.755V135.324H170.297V134.156H167.961V133.433H170.297V126.755H171.3ZM171.579 136.949V137.787H163.556V134.486H164.559V136.949H171.579ZM161.931 131.985C164.038 131.973 166.857 131.96 169.282 131.655L169.345 132.379C168.336 132.538 167.282 132.639 166.247 132.696V134.931H165.245V132.747C164.102 132.798 163.017 132.804 162.071 132.798L161.931 131.985ZM165.638 127.212C167.288 127.212 168.418 127.999 168.431 129.18C168.418 130.386 167.288 131.135 165.638 131.135C163.975 131.135 162.845 130.386 162.845 129.18C162.845 127.999 163.975 127.212 165.638 127.212ZM165.638 127.974C164.534 127.961 163.785 128.456 163.797 129.18C163.785 129.916 164.534 130.398 165.638 130.398C166.704 130.398 167.466 129.916 167.479 129.18C167.466 128.456 166.704 127.961 165.638 127.974ZM183.226 131.49V132.29H172.93V131.49H183.226ZM181.994 129.751V130.563H174.301V127.136H181.88V127.936H175.304V129.751H181.994ZM181.893 133.306V135.921H175.19V137.089H182.236V137.901H174.199V135.172H180.915V134.08H174.174V133.306H181.893ZM187.56 127.567C189.337 127.567 190.594 128.646 190.594 130.221C190.594 131.795 189.337 132.874 187.56 132.874C185.782 132.874 184.5 131.795 184.513 130.221C184.5 128.646 185.782 127.567 187.56 127.567ZM187.56 128.443C186.354 128.443 185.478 129.167 185.49 130.221C185.478 131.274 186.354 131.998 187.56 131.998C188.753 131.998 189.616 131.274 189.616 130.221C189.616 129.167 188.753 128.443 187.56 128.443ZM193.12 126.742V138.054H192.13V126.742H193.12ZM183.929 134.715C186.011 134.715 188.88 134.702 191.381 134.334L191.457 135.07C188.88 135.553 186.1 135.565 184.068 135.565L183.929 134.715ZM207.12 126.755V135.096H206.117V132.049H203.197C202.676 132.715 201.838 133.115 200.874 133.115C199.185 133.115 197.941 131.947 197.941 130.297C197.941 128.646 199.185 127.479 200.874 127.466C201.832 127.472 202.651 127.866 203.184 128.52H206.117V126.755H207.12ZM207.437 136.949V137.787H199.871V134.22H200.874V136.949H207.437ZM200.874 128.354C199.718 128.367 198.893 129.167 198.893 130.297C198.893 131.427 199.718 132.227 200.874 132.227C201.978 132.227 202.829 131.427 202.829 130.297C202.829 129.167 201.978 128.367 200.874 128.354ZM203.641 129.345C203.736 129.637 203.794 129.954 203.794 130.297C203.794 130.627 203.736 130.938 203.641 131.224H206.117V129.345H203.641ZM212.456 130.424C212.456 132.227 213.637 134.08 215.275 134.867L214.691 135.642C213.447 135.032 212.463 133.801 211.999 132.341C211.504 133.909 210.457 135.223 209.168 135.845L208.597 135.07C210.247 134.296 211.479 132.366 211.492 130.424V129.522H208.902V128.71H211.479V126.958H212.482V128.71H215.021V129.522H212.456V130.424ZM217.433 126.742V131.376H219.325V132.227H217.433V138.028H216.443V126.742H217.433ZM232.931 135.756V136.581H222.597V135.756H227.243V133.318H223.815V127.542H224.818V129.586H230.684V127.542H231.661V133.318H228.221V135.756H232.931ZM224.818 132.506H230.684V130.398H224.818V132.506ZM243.853 133.179V134.004H241.124V138.028H240.121V134.004H237.226V138.028H236.198V134.004H233.519V133.179H243.853ZM238.661 127.199C241.035 127.199 242.635 128.151 242.635 129.662C242.635 131.16 241.035 132.112 238.661 132.1C236.287 132.112 234.687 131.16 234.687 129.662C234.687 128.151 236.287 127.199 238.661 127.199ZM238.661 128.012C236.896 128.012 235.703 128.659 235.716 129.662C235.703 130.665 236.896 131.3 238.661 131.3C240.413 131.3 241.619 130.665 241.619 129.662C241.619 128.659 240.413 128.012 238.661 128.012ZM256.787 126.755V135.362H255.784V132.938H253.829V132.125H255.784V130.589H253.829V129.764H255.784V126.755H256.787ZM253.829 128.139V128.951H247.443V128.139H250.185V126.742H251.175V128.139H253.829ZM250.667 129.573C252.178 129.573 253.245 130.437 253.245 131.731C253.245 133.014 252.178 133.89 250.667 133.89C249.157 133.89 248.103 133.014 248.116 131.731C248.103 130.437 249.157 129.573 250.667 129.573ZM250.667 130.36C249.703 130.373 249.042 130.919 249.042 131.731C249.042 132.544 249.703 133.09 250.667 133.09C251.632 133.09 252.292 132.544 252.305 131.731C252.292 130.919 251.632 130.373 250.667 130.36ZM257.04 136.949V137.787H249.487V134.601H250.49V136.949H257.04ZM267.176 126.742V130.703H268.864V131.541H267.176V135.578H266.173V126.742H267.176ZM267.582 136.949V137.787H260.003V134.981H261.006V136.949H267.582ZM258.315 133.458C259.21 133.458 260.27 133.452 261.374 133.407V132.544C260.06 132.423 259.216 131.795 259.216 130.843C259.216 129.751 260.27 129.104 261.857 129.104C263.456 129.104 264.497 129.751 264.51 130.843C264.497 131.789 263.672 132.417 262.364 132.544V133.356C263.425 133.306 264.491 133.204 265.475 133.052L265.564 133.763C263.139 134.22 260.409 134.258 258.429 134.271L258.315 133.458ZM265.132 127.859V128.608H258.594V127.859H261.374V126.717H262.364V127.859H265.132ZM261.857 129.814C260.816 129.814 260.168 130.208 260.168 130.843C260.168 131.465 260.816 131.858 261.857 131.858C262.898 131.858 263.558 131.465 263.558 130.843C263.558 130.208 262.898 129.814 261.857 129.814ZM274.442 126.945C276.956 126.945 278.429 127.631 278.429 128.888C278.429 130.17 276.956 130.855 274.442 130.868C271.929 130.855 270.443 130.17 270.443 128.888C270.443 127.631 271.929 126.945 274.442 126.945ZM274.442 127.694C272.563 127.694 271.472 128.151 271.484 128.888C271.472 129.675 272.563 130.106 274.442 130.106C276.309 130.106 277.413 129.675 277.413 128.888C277.413 128.151 276.309 127.694 274.442 127.694ZM279.584 131.63V132.442H269.301V131.63H279.584ZM278.264 133.42V135.946H271.561V137.114H278.606V137.901H270.57V135.21H277.286V134.182H270.545V133.42H278.264ZM293.533 135.743V136.581H283.199V135.743H287.858V133.001H288.861V135.743H293.533ZM288.861 128.888C288.861 130.69 291.095 132.239 293.038 132.557L292.631 133.344C290.905 133.007 289.083 131.909 288.366 130.335C287.636 131.916 285.82 133.039 284.126 133.395L283.707 132.595C285.611 132.265 287.833 130.69 287.833 128.888V128.608H284.049V127.771H292.644V128.608H288.861V128.888ZM303.389 126.742V138.028H302.399V126.742H303.389ZM294.198 135.02C295.163 135.013 296.267 135.007 297.41 134.969V133.737C296.058 133.591 295.175 132.823 295.188 131.693C295.175 130.424 296.267 129.599 297.892 129.599C299.517 129.599 300.621 130.424 300.621 131.693C300.621 132.811 299.746 133.579 298.413 133.725V134.931C299.504 134.886 300.609 134.804 301.65 134.664L301.726 135.426C299.212 135.832 296.445 135.87 294.35 135.87L294.198 135.02ZM301.358 128.139V128.951H294.439V128.139H297.41V126.755H298.413V128.139H301.358ZM297.892 130.373C296.851 130.373 296.115 130.906 296.115 131.693C296.115 132.48 296.851 132.988 297.892 132.976C298.946 132.988 299.669 132.48 299.669 131.693C299.669 130.906 298.946 130.373 297.892 130.373ZM313.893 126.704V129.446H315.607V130.271H313.893V132.95H312.903V126.704H313.893ZM313.893 133.534V136.035H307.697V137.14H314.312V137.901H306.72V135.299H312.903V134.283H306.695V133.534H313.893ZM311.823 127.771V128.57H305.095V127.771H307.964V126.628H308.954V127.771H311.823ZM308.459 129.078C310.097 129.078 311.163 129.789 311.176 130.932C311.163 132.074 310.097 132.785 308.459 132.785C306.809 132.785 305.73 132.074 305.742 130.932C305.73 129.789 306.809 129.078 308.459 129.078ZM308.459 129.814C307.393 129.814 306.682 130.259 306.695 130.932C306.682 131.617 307.393 132.036 308.459 132.036C309.526 132.036 310.224 131.617 310.237 130.932C310.224 130.259 309.526 129.814 308.459 129.814ZM324.63 127.796C324.63 129.383 326.712 130.767 328.743 131.046L328.337 131.858C326.585 131.566 324.852 130.595 324.122 129.205C323.398 130.602 321.659 131.566 319.907 131.858L319.501 131.046C321.532 130.767 323.601 129.408 323.601 127.796V127.148H324.63V127.796ZM329.251 133.103V133.94H324.579V138.028H323.601V133.94H318.968V133.103H329.251ZM336.687 134.321C336.687 135.318 337.22 136.378 338.299 136.987C339.366 136.321 339.937 135.197 339.937 134.321V133.699H340.914V134.321C340.914 135.477 341.765 136.645 343.212 137.14L342.717 137.876C341.587 137.476 340.794 136.689 340.407 135.743C340.058 136.657 339.366 137.521 338.325 137.965C337.226 137.546 336.528 136.714 336.192 135.769C335.792 136.683 335.011 137.47 333.932 137.876L333.424 137.14C334.846 136.606 335.709 135.4 335.722 134.321V133.699H336.687V134.321ZM342.184 126.755V133.204H341.194V126.755H342.184ZM336.09 127.415C337.804 127.415 339.048 128.481 339.048 130.056C339.048 131.604 337.804 132.671 336.09 132.671C334.376 132.671 333.132 131.604 333.132 130.056C333.132 128.481 334.376 127.415 336.09 127.415ZM336.09 128.266C334.935 128.253 334.097 129.002 334.11 130.056C334.097 131.097 334.935 131.833 336.09 131.846C337.233 131.833 338.071 131.097 338.071 130.056C338.071 129.002 337.233 128.253 336.09 128.266ZM346.835 127.618C348.371 127.631 349.476 128.945 349.641 131.059H352.167V126.742H353.157V138.054H352.167V131.884H349.654C349.533 134.093 348.409 135.477 346.835 135.477C345.172 135.477 344.004 133.953 344.004 131.554C344.004 129.154 345.172 127.631 346.835 127.618ZM346.835 128.507C345.718 128.52 344.956 129.713 344.956 131.554C344.956 133.395 345.718 134.588 346.835 134.588C347.94 134.588 348.714 133.395 348.714 131.554C348.714 129.713 347.94 128.52 346.835 128.507ZM365.07 135.743V136.581H354.736V135.743H357.301V132.696C356.336 132.195 355.752 131.382 355.752 130.36C355.752 128.608 357.466 127.466 359.878 127.453C362.29 127.466 364.004 128.608 364.004 130.36C364.004 131.363 363.439 132.169 362.506 132.671V135.743H365.07ZM359.878 128.278C358.024 128.266 356.717 129.104 356.717 130.36C356.717 131.617 358.024 132.468 359.878 132.468C361.719 132.468 363.039 131.617 363.039 130.36C363.039 129.104 361.719 128.266 359.878 128.278ZM358.278 135.743H361.503V133.052C361.014 133.185 360.468 133.255 359.878 133.255C359.3 133.255 358.761 133.191 358.278 133.064V135.743ZM366.865 137.076C366.421 137.076 366.04 136.708 366.053 136.251C366.04 135.807 366.421 135.438 366.865 135.438C367.309 135.438 367.678 135.807 367.678 136.251C367.678 136.708 367.309 137.076 366.865 137.076Z" fill="#888888"/>
<rect x="90.5" y="161.5" width="519" height="31" rx="5.5" stroke="#EEEEEE"/>
<rect x="94" y="165" width="58" height="24" rx="5" fill="#00AFAE"/>
<path d="M112.454 171.756V178.878H111.262V176.472H108.952C108.485 176.993 107.797 177.31 107.019 177.31C105.558 177.31 104.451 176.257 104.451 174.828C104.451 173.378 105.558 172.336 107.019 172.336C107.792 172.336 108.474 172.647 108.941 173.163H111.262V171.756H112.454ZM112.701 180.296V181.263H106.084V178.147H107.276V180.296H112.701ZM107.019 173.399C106.181 173.399 105.59 173.958 105.59 174.828C105.59 175.688 106.181 176.246 107.019 176.246C107.813 176.246 108.415 175.688 108.426 174.828C108.415 173.958 107.813 173.399 107.019 173.399ZM109.468 174.13C109.527 174.35 109.564 174.581 109.564 174.828C109.564 175.064 109.532 175.29 109.479 175.505H111.262V174.13H109.468ZM116.915 174.828C116.915 176.268 117.732 177.836 119.225 178.545L118.559 179.447C117.511 178.958 116.749 177.997 116.346 176.858C115.916 178.083 115.116 179.12 114.004 179.619L113.349 178.695C114.874 178.008 115.733 176.354 115.733 174.828V174.323H113.66V173.367H115.733V171.949H116.926V173.367H118.967V174.323H116.915V174.828ZM121.105 171.745V175.591H122.598V176.59H121.105V181.456H119.912V171.745H121.105ZM131.528 176.815V177.761H122.676V176.815H126.5V175.741H127.682V176.815H131.528ZM130.443 178.502V181.456H129.25V179.458H123.653V178.502H130.443ZM127.682 171.734V172.658H130.657V173.604H127.768C127.881 174.441 129.019 175.129 131.087 175.269L130.711 176.192C128.982 176.042 127.698 175.5 127.091 174.656C126.484 175.5 125.195 176.042 123.471 176.192L123.095 175.269C125.141 175.129 126.291 174.441 126.414 173.604H123.546V172.658H126.5V171.734H127.682ZM135.537 173.722C135.537 174.925 136.364 176.106 137.911 176.59L137.299 177.524C136.198 177.165 135.398 176.439 134.957 175.516C134.517 176.52 133.695 177.32 132.54 177.718L131.928 176.772C133.486 176.257 134.323 175 134.334 173.722V173.442H132.239V172.486H137.578V173.442H135.537V173.722ZM139.942 171.756V178.803H138.739V171.756H139.942ZM140.21 180.296V181.263H133.518V178.158H134.721V180.296H140.21Z" fill="white"/>
<path d="M169.792 174.076C169.781 175.806 170.651 177.567 172.155 178.287L171.425 179.243C170.372 178.711 169.615 177.686 169.201 176.45C168.777 177.771 167.982 178.867 166.87 179.426L166.14 178.47C167.697 177.729 168.589 175.87 168.6 174.076V172.529H169.792V174.076ZM173.928 171.745V175.548H175.421V176.568H173.928V181.456H172.735V171.745H173.928ZM184.351 176.418V177.374H175.499V176.418H177.562V175.183C176.831 174.876 176.412 174.388 176.412 173.754C176.412 172.594 177.776 171.906 179.914 171.906C182.052 171.906 183.405 172.594 183.416 173.754C183.411 174.393 182.992 174.882 182.256 175.183V176.418H184.351ZM179.914 177.965C182.009 177.954 183.266 178.577 183.276 179.694C183.266 180.822 182.009 181.435 179.914 181.435C177.798 181.435 176.53 180.822 176.53 179.694C176.53 178.577 177.798 177.954 179.914 177.965ZM179.914 178.867C178.496 178.867 177.733 179.146 177.744 179.694C177.733 180.242 178.496 180.532 179.914 180.532C181.3 180.532 182.073 180.242 182.084 179.694C182.073 179.146 181.3 178.867 179.914 178.867ZM179.914 172.83C178.475 172.83 177.648 173.152 177.658 173.754C177.648 174.345 178.475 174.656 179.914 174.656C181.343 174.656 182.181 174.345 182.181 173.754C182.181 173.152 181.343 172.83 179.914 172.83ZM178.765 176.418H181.064V175.494C180.714 175.542 180.328 175.569 179.914 175.569C179.501 175.569 179.114 175.542 178.765 175.494V176.418ZM192.808 171.756V179.146H191.615V177.234H190.176V176.278H191.615V175.193H190.176V174.227H191.615V171.756H192.808ZM190.122 172.83V173.786H184.697V172.83H186.867V171.745H188.06V172.83H190.122ZM187.447 174.184C188.769 174.184 189.714 174.957 189.725 176.074C189.714 177.191 188.769 177.965 187.447 177.965C186.137 177.965 185.192 177.191 185.202 176.074C185.192 174.957 186.137 174.184 187.447 174.184ZM187.447 175.118C186.781 175.129 186.309 175.483 186.319 176.074C186.309 176.687 186.781 177.041 187.447 177.041C188.113 177.041 188.597 176.687 188.597 176.074C188.597 175.483 188.113 175.129 187.447 175.118ZM193.023 180.296V181.263H186.405V178.513H187.619V180.296H193.023ZM201.544 171.756V174.57H202.855V175.548H201.544V178.319H200.352V171.756H201.544ZM198.332 178.405C200.395 178.405 201.587 178.953 201.598 179.941C201.587 180.93 200.395 181.456 198.332 181.456C196.238 181.456 195.056 180.93 195.056 179.941C195.056 178.953 196.238 178.405 198.332 178.405ZM198.332 179.286C196.936 179.275 196.248 179.501 196.248 179.941C196.248 180.35 196.936 180.575 198.332 180.575C199.707 180.575 200.384 180.35 200.395 179.941C200.384 179.501 199.707 179.275 198.332 179.286ZM193.767 177.073C194.503 177.073 195.341 177.073 196.216 177.041V176.407C195.126 176.284 194.454 175.79 194.454 175.054C194.454 174.194 195.367 173.668 196.796 173.668C198.225 173.668 199.138 174.194 199.138 175.054C199.138 175.784 198.483 176.273 197.408 176.396V176.998C198.236 176.96 199.068 176.891 199.847 176.783L199.944 177.61C197.87 177.965 195.614 177.997 193.896 177.997L193.767 177.073ZM199.589 172.497V173.378H194.014V172.497H196.216V171.67H197.408V172.497H199.589ZM196.796 174.463C196.044 174.463 195.593 174.688 195.604 175.054C195.593 175.44 196.044 175.655 196.796 175.655C197.548 175.655 197.999 175.44 197.999 175.054C197.999 174.688 197.548 174.463 196.796 174.463Z" fill="#575757" fill-opacity="0.68"/>
<path d="M236.411 171.756V178.846H235.208V171.756H236.411ZM236.68 180.296V181.263H229.987V178.169H231.19V180.296H236.68ZM231.942 173.238C231.942 174.592 232.737 175.87 234.273 176.386L233.661 177.331C232.555 176.944 231.765 176.171 231.341 175.183C230.9 176.241 230.1 177.089 228.956 177.503L228.333 176.558C229.912 175.999 230.707 174.635 230.707 173.238V172.293H231.942V173.238ZM240.99 173.818C240.99 174.882 241.817 175.935 243.343 176.343L242.784 177.267C241.662 176.96 240.856 176.305 240.41 175.462C239.991 176.418 239.18 177.17 238.025 177.514L237.467 176.59C238.982 176.128 239.798 174.989 239.798 173.818V173.765H237.768V172.819H239.798V171.702H241.001V172.819H243.021V173.765H240.99V173.818ZM245.631 171.745V177.621H244.439V175.376H242.731V174.409H244.439V171.745H245.631ZM242.344 177.814C244.396 177.814 245.663 178.47 245.663 179.619C245.663 180.779 244.396 181.445 242.344 181.445C240.303 181.445 239.035 180.779 239.046 179.619C239.035 178.47 240.303 177.814 242.344 177.814ZM242.344 178.728C240.99 178.738 240.228 179.039 240.228 179.619C240.228 180.199 240.99 180.521 242.344 180.521C243.719 180.521 244.471 180.199 244.471 179.619C244.471 179.039 243.719 178.738 242.344 178.728ZM255.012 171.745V181.456H253.862V176.547H252.788V180.962H251.671V171.928H252.788V175.569H253.862V171.745H255.012ZM248.298 172.862V177.986C249.136 177.97 250.054 177.9 251.069 177.696L251.188 178.738C249.877 178.975 248.771 179.039 247.739 179.039H247.095V172.862H248.298ZM263.985 177.943V181.456H262.792V178.889H257.367V177.943H263.985ZM263.985 171.745V177.481H262.792V176.192H260.515C260.053 176.708 259.355 177.02 258.549 177.02C257.088 177.02 255.982 176.031 255.982 174.635C255.982 173.26 257.088 172.271 258.549 172.282C259.349 172.277 260.048 172.578 260.504 173.088H262.792V171.745H263.985ZM258.549 173.292C257.711 173.292 257.12 173.829 257.12 174.635C257.12 175.473 257.711 175.999 258.549 176.01C259.344 175.999 259.946 175.473 259.956 174.635C259.946 173.829 259.344 173.292 258.549 173.292ZM261.02 175.226H262.792V174.065H261.031C261.068 174.248 261.095 174.436 261.095 174.635C261.095 174.839 261.068 175.038 261.02 175.226Z" fill="#575757" fill-opacity="0.68"/>
<path d="M299.195 179.308V180.285H290.322V179.308H294.146V177.417H291.3V172.39H292.492V173.979H296.993V172.39H298.186V177.417H295.328V179.308H299.195ZM292.492 176.45H296.993V174.936H292.492V176.45ZM308.361 177.191V178.158H306.202V181.456H304.988V178.158H302.84V181.456H301.615V178.158H299.488V177.191H308.361ZM303.903 172.089C305.966 172.1 307.405 172.938 307.405 174.259C307.405 175.559 305.966 176.386 303.903 176.386C301.83 176.386 300.412 175.559 300.423 174.259C300.412 172.938 301.83 172.1 303.903 172.089ZM303.903 173.056C302.528 173.056 301.637 173.496 301.648 174.259C301.637 175 302.528 175.44 303.903 175.44C305.278 175.44 306.17 175 306.17 174.259C306.17 173.496 305.278 173.056 303.903 173.056ZM316.808 171.756V179.146H315.615V177.234H314.176V176.278H315.615V175.193H314.176V174.227H315.615V171.756H316.808ZM314.122 172.83V173.786H308.697V172.83H310.867V171.745H312.06V172.83H314.122ZM311.447 174.184C312.769 174.184 313.714 174.957 313.725 176.074C313.714 177.191 312.769 177.965 311.447 177.965C310.137 177.965 309.192 177.191 309.202 176.074C309.192 174.957 310.137 174.184 311.447 174.184ZM311.447 175.118C310.781 175.129 310.309 175.483 310.319 176.074C310.309 176.687 310.781 177.041 311.447 177.041C312.113 177.041 312.597 176.687 312.597 176.074C312.597 175.483 312.113 175.129 311.447 175.118ZM317.023 180.296V181.263H310.405V178.513H311.619V180.296H317.023ZM325.544 171.756V174.57H326.855V175.548H325.544V178.319H324.352V171.756H325.544ZM322.332 178.405C324.395 178.405 325.587 178.953 325.598 179.941C325.587 180.93 324.395 181.456 322.332 181.456C320.238 181.456 319.056 180.93 319.056 179.941C319.056 178.953 320.238 178.405 322.332 178.405ZM322.332 179.286C320.936 179.275 320.248 179.501 320.248 179.941C320.248 180.35 320.936 180.575 322.332 180.575C323.707 180.575 324.384 180.35 324.395 179.941C324.384 179.501 323.707 179.275 322.332 179.286ZM317.767 177.073C318.503 177.073 319.341 177.073 320.216 177.041V176.407C319.126 176.284 318.454 175.79 318.454 175.054C318.454 174.194 319.367 173.668 320.796 173.668C322.225 173.668 323.138 174.194 323.138 175.054C323.138 175.784 322.483 176.273 321.408 176.396V176.998C322.236 176.96 323.068 176.891 323.847 176.783L323.944 177.61C321.87 177.965 319.614 177.997 317.896 177.997L317.767 177.073ZM323.589 172.497V173.378H318.014V172.497H320.216V171.67H321.408V172.497H323.589ZM320.796 174.463C320.044 174.463 319.593 174.688 319.604 175.054C319.593 175.44 320.044 175.655 320.796 175.655C321.548 175.655 321.999 175.44 321.999 175.054C321.999 174.688 321.548 174.463 320.796 174.463Z" fill="#575757" fill-opacity="0.68"/>
<g filter="url(#filter1_d_279_2470)">
<rect x="90" y="243" width="476" height="48" rx="10" fill="white" shape-rendering="crispEdges"/>
<rect x="90.5" y="243.5" width="475" height="47" rx="9.5" stroke="#EEEEEE" shape-rendering="crispEdges"/>
<rect x="109.5" y="260.5" width="15" height="15" rx="2.5" fill="white" stroke="#00AEAE"/>
<path d="M113 266.667L116.2 270L121 265" stroke="#00AEAE" stroke-width="2"/>
<path d="M149.588 266.8C149.588 267.112 149.516 267.34 149.372 267.484C149.228 267.628 149 267.7 148.688 267.7H143.624V262.12H144.824V263.872H148.388V262.12H149.588V266.8ZM152.336 272.896H151.136V269.752H144.08V268.672H152.336V272.896ZM152.336 268.12H151.136V262.048H152.336V264.244H153.752V265.348H152.336V268.12ZM148.388 266.62V264.952H144.824V266.62H148.388ZM163.667 272.932H155.075V269.56H156.275V271.852H163.667V272.932ZM164.363 268.588H154.259V267.508H164.363V268.588ZM161.591 262.012C162.319 262.012 162.883 262.216 163.283 262.624C163.683 263.032 163.883 263.584 163.883 264.28C163.883 264.976 163.683 265.528 163.283 265.936C162.883 266.344 162.319 266.548 161.591 266.548H157.031C156.303 266.548 155.739 266.348 155.339 265.948C154.939 265.548 154.739 264.992 154.739 264.28C154.739 263.568 154.939 263.012 155.339 262.612C155.739 262.212 156.303 262.012 157.031 262.012H161.591ZM161.435 265.468C161.859 265.468 162.171 265.36 162.371 265.144C162.579 264.92 162.683 264.632 162.683 264.28C162.683 263.928 162.579 263.644 162.371 263.428C162.171 263.204 161.859 263.092 161.435 263.092H157.187C156.763 263.092 156.447 263.204 156.239 263.428C156.039 263.644 155.939 263.928 155.939 264.28C155.939 264.632 156.039 264.92 156.239 265.144C156.447 265.36 156.763 265.468 157.187 265.468H161.435ZM174.65 267.376H173.33L171.614 263.764C171.518 263.564 171.418 263.42 171.314 263.332C171.218 263.236 171.058 263.188 170.834 263.188H169.538C169.314 263.188 169.15 263.236 169.046 263.332C168.95 263.42 168.854 263.564 168.758 263.764L167.042 267.376H165.722L167.714 263.188H165.89V262.108H174.482V263.188H172.658L174.65 267.376ZM175.238 269.296H170.786V272.896H169.586V269.296H165.134V268.216H175.238V269.296Z" fill="black"/>
<path opacity="0.88" d="M197.359 265.307C197.35 266.859 198.248 268.441 199.557 269.076L198.98 269.818C198.028 269.325 197.291 268.344 196.91 267.172C196.515 268.422 195.748 269.467 194.752 269.984L194.176 269.232C195.523 268.588 196.432 266.908 196.432 265.307V263.812H197.359V265.307ZM201.139 263.08V266.566H202.545V267.357H201.139V271.83H200.211V263.08H201.139ZM209.96 263.09V269.555H209.032V266.254H207.118V268.1H203.085V263.666H204.012V265.15H206.2V263.666H207.118V265.502H209.032V263.09H209.96ZM210.155 270.893V271.645H204.247V268.92H205.184V270.893H210.155ZM204.012 267.348H206.2V265.863H204.012V267.348Z" fill="#888888"/>
<path opacity="0.88" d="M217.723 271V263.93H218.797V266.996H222.312V263.93H223.387V271H222.312V267.914H218.797V271H217.723ZM224.532 271V263.93H227.052C228.692 263.93 229.503 264.848 229.503 266.146C229.503 267.099 229.073 267.821 228.214 268.139L229.776 271H228.555L227.12 268.334H227.052H225.606V271H224.532ZM225.606 267.406H226.944C227.989 267.406 228.419 266.947 228.419 266.146C228.419 265.346 227.989 264.848 226.944 264.848H225.606V267.406ZM232.757 271.098C231.117 271.098 230.16 269.779 230.16 267.465C230.16 265.17 231.136 263.832 232.757 263.832C234.379 263.832 235.355 265.17 235.355 267.465C235.355 269.779 234.388 271.098 232.757 271.098ZM232.757 270.17C233.714 270.17 234.281 269.232 234.281 267.465C234.281 265.707 233.705 264.74 232.757 264.74C231.81 264.74 231.234 265.707 231.234 267.465C231.234 269.232 231.8 270.17 232.757 270.17ZM238.629 271.098C236.989 271.098 236.032 269.779 236.032 267.465C236.032 265.17 237.008 263.832 238.629 263.832C240.25 263.832 241.227 265.17 241.227 267.465C241.227 269.779 240.26 271.098 238.629 271.098ZM238.629 270.17C239.586 270.17 240.153 269.232 240.153 267.465C240.153 265.707 239.577 264.74 238.629 264.74C237.682 264.74 237.106 265.707 237.106 267.465C237.106 269.232 237.672 270.17 238.629 270.17ZM244.501 271.098C242.861 271.098 241.904 269.779 241.904 267.465C241.904 265.17 242.88 263.832 244.501 263.832C246.122 263.832 247.099 265.17 247.099 267.465C247.099 269.779 246.132 271.098 244.501 271.098ZM244.501 270.17C245.458 270.17 246.025 269.232 246.025 267.465C246.025 265.707 245.448 264.74 244.501 264.74C243.554 264.74 242.978 265.707 242.978 267.465C242.978 269.232 243.544 270.17 244.501 270.17ZM250.598 263.93V271H249.514V265.004H249.475L247.785 266.107V265.082L249.543 263.93H250.598Z" fill="#353535"/>
<path opacity="0.88" d="M270.33 269.955V270.717H262.322V269.955H265.828V267.875H266.746V269.955H270.33ZM266.766 264.301C266.766 265.688 268.289 266.986 269.979 267.27L269.578 268.031C268.162 267.748 266.858 266.874 266.277 265.668C265.701 266.869 264.412 267.758 263.006 268.031L262.596 267.27C264.275 266.986 265.789 265.688 265.789 264.301V263.637H266.766V264.301ZM278.663 267.426V268.188H270.665V267.426H274.19V266.146H275.108V267.426H278.663ZM275.118 263.588C275.118 264.701 276.485 265.678 278.175 265.893L277.813 266.625C276.422 266.405 275.196 265.727 274.649 264.76C274.088 265.727 272.862 266.405 271.466 266.625L271.124 265.893C272.804 265.678 274.171 264.691 274.18 263.588V263.217H275.118V263.588ZM277.667 268.959V271.83H276.729V269.691H271.554V268.959H277.667Z" fill="#888888"/>
<path opacity="0.88" d="M292.568 263.08V271.85H291.641V263.08H292.568ZM290.068 263.891V264.662H286.816V268.91C288.477 268.905 289.536 268.861 290.771 268.637L290.869 269.408C289.561 269.643 288.418 269.701 286.602 269.701H285.879V263.891H290.068ZM296.712 265.658C296.712 267.045 297.62 268.588 298.948 269.213L298.421 269.936C297.439 269.462 296.663 268.476 296.272 267.328C295.867 268.583 295.047 269.662 294.046 270.16L293.499 269.428C294.827 268.793 295.794 267.143 295.794 265.658V264.73H293.821V263.959H298.616V264.73H296.712V265.658ZM300.481 263.08V266.547H301.887V267.328H300.481V271.83H299.554V263.08H300.481ZM309.263 263.09V269.447H308.336V263.09H309.263ZM309.527 270.893V271.645H303.541V268.803H304.478V270.893H309.527ZM304.517 263.676C305.836 263.676 306.841 264.574 306.841 265.844C306.841 267.133 305.836 268.021 304.517 268.021C303.199 268.021 302.183 267.133 302.183 265.844C302.183 264.574 303.199 263.676 304.517 263.676ZM304.517 264.486C303.697 264.486 303.091 265.043 303.091 265.844C303.091 266.664 303.697 267.211 304.517 267.211C305.318 267.211 305.933 266.664 305.933 265.844C305.933 265.043 305.318 264.486 304.517 264.486ZM313.338 263.93V271H312.254V265.004H312.215L310.526 266.107V265.082L312.284 263.93H313.338ZM319.239 263.598V264.359H315.968V265.316H318.995V266.039H315.968V267.055C317.721 267.055 318.741 267.025 319.923 266.82L320.021 267.562C318.751 267.777 317.667 267.807 315.753 267.797H315.03V263.598H319.239ZM321.788 263.09V268.295H320.861V263.09H321.788ZM321.788 268.705V271.723H316.036V268.705H321.788ZM316.954 269.428V270.971H320.88V269.428H316.954Z" fill="#353535"/>
<path opacity="0.88" d="M336.564 264.652C336.564 265.775 337.404 266.85 338.752 267.279L338.273 268.002C337.268 267.67 336.506 266.977 336.115 266.098C335.72 267.05 334.943 267.802 333.898 268.168L333.42 267.455C334.777 266.986 335.617 265.844 335.627 264.652V264.408H333.664V263.656H338.488V264.408H336.564V264.652ZM340.578 263.08V268.363H339.65V263.08H340.578ZM340.578 268.803V271.83H339.65V269.555H334.65V268.803H340.578ZM343.598 268.07V269.164H347.729V268.07H348.637V271.723H342.68V268.07H343.598ZM343.598 270.961H347.729V269.887H343.598V270.961ZM348.657 263.461V264.125C348.657 264.794 348.657 265.546 348.432 266.605H349.673V267.357H341.665V266.605H347.524C347.729 265.6 347.739 264.862 347.739 264.223H342.671V263.461H348.657Z" fill="#888888"/>
<path opacity="0.88" d="M364.32 268.227V268.959H360.746V271.83H359.838V268.959H356.312V268.227H364.32ZM358.227 263.432V264.574H362.387V263.432H363.314V267.23H357.309V263.432H358.227ZM358.227 266.488H362.387V265.316H358.227V266.488ZM367.721 264.691C367.721 265.805 368.493 266.82 369.821 267.24L369.382 267.963C368.386 267.646 367.658 266.986 367.272 266.156C366.891 267.113 366.125 267.87 365.075 268.236L364.596 267.494C365.964 267.045 366.784 265.912 366.794 264.701V264.457H364.87V263.705H369.606V264.457H367.721V264.691ZM371.54 263.08V265.248H372.809V266.01H371.54V268.334H370.612V263.08H371.54ZM368.718 268.549C370.524 268.549 371.618 269.145 371.618 270.17C371.618 271.205 370.524 271.82 368.718 271.811C366.891 271.82 365.778 271.205 365.778 270.17C365.778 269.145 366.891 268.549 368.718 268.549ZM368.718 269.281C367.448 269.281 366.696 269.604 366.706 270.17C366.696 270.756 367.448 271.078 368.718 271.078C369.977 271.078 370.71 270.756 370.71 270.17C370.71 269.604 369.977 269.281 368.718 269.281Z" fill="#353535"/>
</g>
<rect x="90.5" y="297.5" width="475" height="47" rx="9.5" stroke="#EEEEEE"/>
<rect x="109.5" y="314.5" width="15" height="15" rx="2.5" fill="white" stroke="#DDDDDD"/>
<path d="M152.816 326.896H151.616V316.048H152.816V326.896ZM150.128 323.56C150.128 323.976 150.052 324.348 149.9 324.676C149.756 325.004 149.548 325.28 149.276 325.504C149.004 325.736 148.676 325.912 148.292 326.032C147.908 326.16 147.476 326.224 146.996 326.224C146.516 326.224 146.084 326.16 145.7 326.032C145.316 325.912 144.988 325.736 144.716 325.504C144.444 325.28 144.232 325.004 144.08 324.676C143.936 324.348 143.864 323.976 143.864 323.56V318.7C143.864 318.284 143.936 317.912 144.08 317.584C144.232 317.256 144.444 316.98 144.716 316.756C144.988 316.524 145.316 316.348 145.7 316.228C146.084 316.1 146.516 316.036 146.996 316.036C147.476 316.036 147.908 316.1 148.292 316.228C148.676 316.348 149.004 316.524 149.276 316.756C149.548 316.98 149.756 317.256 149.9 317.584C150.052 317.912 150.128 318.284 150.128 318.7V323.56ZM145.064 323.212C145.064 323.836 145.208 324.316 145.496 324.652C145.784 324.98 146.284 325.144 146.996 325.144C147.708 325.144 148.208 324.98 148.496 324.652C148.784 324.316 148.928 323.836 148.928 323.212V319.048C148.928 318.424 148.784 317.948 148.496 317.62C148.208 317.284 147.708 317.116 146.996 317.116C146.284 317.116 145.784 317.284 145.496 317.62C145.208 317.948 145.064 318.424 145.064 319.048V323.212ZM163.691 326.896H162.491V321.148H160.583V326.032H159.383V317.26H158.447C158.191 317.26 158.011 317.312 157.907 317.416C157.803 317.512 157.727 317.656 157.679 317.848L155.639 326.032H154.367L156.419 317.752C156.475 317.52 156.539 317.308 156.611 317.116C156.691 316.924 156.791 316.76 156.911 316.624C157.039 316.48 157.195 316.372 157.379 316.3C157.563 316.22 157.795 316.18 158.075 316.18H160.583V320.044H162.491V316.048H163.691V326.896ZM172.466 316.012C173.194 316.012 173.758 316.216 174.158 316.624C174.558 317.032 174.758 317.584 174.758 318.28C174.758 318.976 174.558 319.528 174.158 319.936C173.758 320.344 173.194 320.548 172.466 320.548H167.906C167.178 320.548 166.614 320.348 166.214 319.948C165.814 319.548 165.614 318.992 165.614 318.28C165.614 317.568 165.814 317.012 166.214 316.612C166.614 316.212 167.178 316.012 167.906 316.012H172.466ZM175.238 322.492H172.91V324.784H171.71V322.492H170.054V324.784H168.854V322.492H165.134V321.412H175.238V322.492ZM172.31 319.468C172.734 319.468 173.046 319.36 173.246 319.144C173.454 318.92 173.558 318.632 173.558 318.28C173.558 317.928 173.454 317.644 173.246 317.428C173.046 317.204 172.734 317.092 172.31 317.092H168.062C167.638 317.092 167.322 317.204 167.114 317.428C166.914 317.644 166.814 317.928 166.814 318.28C166.814 318.632 166.914 318.92 167.114 319.144C167.322 319.36 167.638 319.468 168.062 319.468H172.31ZM174.542 326.932H165.95V323.56H167.15V325.852H174.542V326.932Z" fill="black"/>
<path opacity="0.88" d="M197.359 319.307C197.35 320.859 198.248 322.441 199.557 323.076L198.98 323.818C198.028 323.325 197.291 322.344 196.91 321.172C196.515 322.422 195.748 323.467 194.752 323.984L194.176 323.232C195.523 322.588 196.432 320.908 196.432 319.307V317.812H197.359V319.307ZM201.139 317.08V320.566H202.545V321.357H201.139V325.83H200.211V317.08H201.139ZM209.96 317.09V323.555H209.032V320.254H207.118V322.1H203.085V317.666H204.012V319.15H206.2V317.666H207.118V319.502H209.032V317.09H209.96ZM210.155 324.893V325.645H204.247V322.92H205.184V324.893H210.155ZM204.012 321.348H206.2V319.863H204.012V321.348Z" fill="#888888"/>
<path opacity="0.88" d="M217.723 325V317.93H218.797V320.996H222.312V317.93H223.387V325H222.312V321.914H218.797V325H217.723ZM224.532 325V317.93H227.052C228.692 317.93 229.503 318.848 229.503 320.146C229.503 321.099 229.073 321.821 228.214 322.139L229.776 325H228.555L227.12 322.334H227.052H225.606V325H224.532ZM225.606 321.406H226.944C227.989 321.406 228.419 320.947 228.419 320.146C228.419 319.346 227.989 318.848 226.944 318.848H225.606V321.406ZM232.757 325.098C231.117 325.098 230.16 323.779 230.16 321.465C230.16 319.17 231.136 317.832 232.757 317.832C234.379 317.832 235.355 319.17 235.355 321.465C235.355 323.779 234.388 325.098 232.757 325.098ZM232.757 324.17C233.714 324.17 234.281 323.232 234.281 321.465C234.281 319.707 233.705 318.74 232.757 318.74C231.81 318.74 231.234 319.707 231.234 321.465C231.234 323.232 231.8 324.17 232.757 324.17ZM238.629 325.098C236.989 325.098 236.032 323.779 236.032 321.465C236.032 319.17 237.008 317.832 238.629 317.832C240.25 317.832 241.227 319.17 241.227 321.465C241.227 323.779 240.26 325.098 238.629 325.098ZM238.629 324.17C239.586 324.17 240.153 323.232 240.153 321.465C240.153 319.707 239.577 318.74 238.629 318.74C237.682 318.74 237.106 319.707 237.106 321.465C237.106 323.232 237.672 324.17 238.629 324.17ZM244.501 325.098C242.861 325.098 241.904 323.779 241.904 321.465C241.904 319.17 242.88 317.832 244.501 317.832C246.122 317.832 247.099 319.17 247.099 321.465C247.099 323.779 246.132 325.098 244.501 325.098ZM244.501 324.17C245.458 324.17 246.025 323.232 246.025 321.465C246.025 319.707 245.448 318.74 244.501 318.74C243.554 318.74 242.978 319.707 242.978 321.465C242.978 323.232 243.544 324.17 244.501 324.17ZM247.912 325V324.219L250.363 321.748C251.135 320.938 251.525 320.488 251.525 319.873C251.525 319.18 250.959 318.73 250.217 318.73C249.436 318.73 248.928 319.229 248.928 319.98H247.912C247.902 318.691 248.889 317.832 250.236 317.832C251.604 317.832 252.541 318.691 252.551 319.844C252.541 320.635 252.17 321.26 250.842 322.568L249.406 324.023V324.082H252.668V325H247.912Z" fill="#353535"/>
<path opacity="0.88" d="M272.33 323.955V324.717H264.322V323.955H267.828V321.875H268.746V323.955H272.33ZM268.766 318.301C268.766 319.688 270.289 320.986 271.979 321.27L271.578 322.031C270.162 321.748 268.858 320.874 268.277 319.668C267.701 320.869 266.412 321.758 265.006 322.031L264.596 321.27C266.275 320.986 267.789 319.688 267.789 318.301V317.637H268.766V318.301ZM280.663 321.426V322.188H272.665V321.426H276.19V320.146H277.108V321.426H280.663ZM277.118 317.588C277.118 318.701 278.485 319.678 280.175 319.893L279.813 320.625C278.422 320.405 277.196 319.727 276.649 318.76C276.088 319.727 274.862 320.405 273.466 320.625L273.124 319.893C274.804 319.678 276.171 318.691 276.18 317.588V317.217H277.118V317.588ZM279.667 322.959V325.83H278.729V323.691H273.554V322.959H279.667Z" fill="#888888"/>
<path opacity="0.88" d="M294.568 317.08V325.85H293.641V317.08H294.568ZM292.068 317.891V318.662H288.816V322.91C290.477 322.905 291.536 322.861 292.771 322.637L292.869 323.408C291.561 323.643 290.418 323.701 288.602 323.701H287.879V317.891H292.068ZM298.712 319.658C298.712 321.045 299.62 322.588 300.948 323.213L300.421 323.936C299.439 323.462 298.663 322.476 298.272 321.328C297.867 322.583 297.047 323.662 296.046 324.16L295.499 323.428C296.827 322.793 297.794 321.143 297.794 319.658V318.73H295.821V317.959H300.616V318.73H298.712V319.658ZM302.481 317.08V320.547H303.887V321.328H302.481V325.83H301.554V317.08H302.481ZM311.263 317.09V323.447H310.336V317.09H311.263ZM311.527 324.893V325.645H305.541V322.803H306.478V324.893H311.527ZM306.517 317.676C307.836 317.676 308.841 318.574 308.841 319.844C308.841 321.133 307.836 322.021 306.517 322.021C305.199 322.021 304.183 321.133 304.183 319.844C304.183 318.574 305.199 317.676 306.517 317.676ZM306.517 318.486C305.697 318.486 305.091 319.043 305.091 319.844C305.091 320.664 305.697 321.211 306.517 321.211C307.318 321.211 307.933 320.664 307.933 319.844C307.933 319.043 307.318 318.486 306.517 318.486ZM315.338 317.93V325H314.254V319.004H314.215L312.526 320.107V319.082L314.284 317.93H315.338ZM321.239 317.598V318.359H317.968V319.316H320.995V320.039H317.968V321.055C319.721 321.055 320.741 321.025 321.923 320.82L322.021 321.562C320.751 321.777 319.667 321.807 317.753 321.797H317.03V317.598H321.239ZM323.788 317.09V322.295H322.861V317.09H323.788ZM323.788 322.705V325.723H318.036V322.705H323.788ZM318.954 323.428V324.971H322.88V323.428H318.954Z" fill="#353535"/>
<path opacity="0.88" d="M338.564 318.652C338.564 319.775 339.404 320.85 340.752 321.279L340.273 322.002C339.268 321.67 338.506 320.977 338.115 320.098C337.72 321.05 336.943 321.802 335.898 322.168L335.42 321.455C336.777 320.986 337.617 319.844 337.627 318.652V318.408H335.664V317.656H340.488V318.408H338.564V318.652ZM342.578 317.08V322.363H341.65V317.08H342.578ZM342.578 322.803V325.83H341.65V323.555H336.65V322.803H342.578ZM345.598 322.07V323.164H349.729V322.07H350.637V325.723H344.68V322.07H345.598ZM345.598 324.961H349.729V323.887H345.598V324.961ZM350.657 317.461V318.125C350.657 318.794 350.657 319.546 350.432 320.605H351.673V321.357H343.665V320.605H349.524C349.729 319.6 349.739 318.862 349.739 318.223H344.671V317.461H350.657Z" fill="#888888"/>
<path opacity="0.88" d="M363.029 317.598V318.359H359.758V319.316H362.785V320.039H359.758V321.055C361.511 321.055 362.531 321.025 363.713 320.82L363.811 321.562C362.541 321.777 361.457 321.807 359.543 321.797H358.82V317.598H363.029ZM365.578 317.09V322.295H364.65V317.09H365.578ZM365.578 322.705V325.723H359.826V322.705H365.578ZM360.744 323.428V324.971H364.67V323.428H360.744ZM369.721 318.691C369.721 319.805 370.493 320.82 371.821 321.24L371.382 321.963C370.386 321.646 369.658 320.986 369.272 320.156C368.891 321.113 368.125 321.87 367.075 322.236L366.596 321.494C367.964 321.045 368.784 319.912 368.794 318.701V318.457H366.87V317.705H371.606V318.457H369.721V318.691ZM373.54 317.08V319.248H374.809V320.01H373.54V322.334H372.612V317.08H373.54ZM370.718 322.549C372.524 322.549 373.618 323.145 373.618 324.17C373.618 325.205 372.524 325.82 370.718 325.811C368.891 325.82 367.778 325.205 367.778 324.17C367.778 323.145 368.891 322.549 370.718 322.549ZM370.718 323.281C369.448 323.281 368.696 323.604 368.706 324.17C368.696 324.756 369.448 325.078 370.718 325.078C371.977 325.078 372.71 324.756 372.71 324.17C372.71 323.604 371.977 323.281 370.718 323.281Z" fill="#353535"/>
<rect x="90.5" y="351.5" width="475" height="47" rx="9.5" stroke="#EEEEEE"/>
<rect x="109.5" y="368.5" width="15" height="15" rx="2.5" fill="white" stroke="#DDDDDD"/>
<path d="M149.588 374.8C149.588 375.112 149.516 375.34 149.372 375.484C149.228 375.628 149 375.7 148.688 375.7H143.624V370.12H144.824V371.872H148.388V370.12H149.588V374.8ZM152.336 380.896H151.136V377.752H144.08V376.672H152.336V380.896ZM152.336 376.12H151.136V370.048H152.336V372.244H153.752V373.348H152.336V376.12ZM148.388 374.62V372.952H144.824V374.62H148.388ZM163.691 380.896H162.491V370.048H163.691V380.896ZM161.063 380.032H159.803L158.447 371.692C158.399 371.404 158.275 371.26 158.075 371.26H157.451C157.243 371.26 157.115 371.404 157.067 371.692L155.651 380.032H154.391L155.891 371.26H154.523V370.18H161.111V371.26H159.623L161.063 380.032ZM168.47 376.348C167.598 376.348 166.93 376.168 166.466 375.808C166.01 375.448 165.782 374.936 165.782 374.272C165.782 373.608 166.01 373.096 166.466 372.736C166.93 372.376 167.598 372.196 168.47 372.196H171.902C172.774 372.196 173.438 372.376 173.894 372.736C174.358 373.096 174.59 373.608 174.59 374.272C174.59 374.936 174.358 375.448 173.894 375.808C173.438 376.168 172.774 376.348 171.902 376.348H168.47ZM175.238 378.196H170.786V380.896H169.586V378.196H165.134V377.116H175.238V378.196ZM171.746 375.268C172.322 375.268 172.738 375.18 172.994 375.004C173.258 374.82 173.39 374.576 173.39 374.272C173.39 373.968 173.258 373.728 172.994 373.552C172.738 373.368 172.322 373.276 171.746 373.276H168.626C168.05 373.276 167.63 373.368 167.366 373.552C167.11 373.728 166.982 373.968 166.982 374.272C166.982 374.576 167.11 374.82 167.366 375.004C167.63 375.18 168.05 375.268 168.626 375.268H171.746ZM174.818 371.62H165.542V370.54H169.586V369.46H170.786V370.54H174.818V371.62Z" fill="black"/>
<path opacity="0.88" d="M197.359 373.307C197.35 374.859 198.248 376.441 199.557 377.076L198.98 377.818C198.028 377.325 197.291 376.344 196.91 375.172C196.515 376.422 195.748 377.467 194.752 377.984L194.176 377.232C195.523 376.588 196.432 374.908 196.432 373.307V371.812H197.359V373.307ZM201.139 371.08V374.566H202.545V375.357H201.139V379.83H200.211V371.08H201.139ZM209.96 371.09V377.555H209.032V374.254H207.118V376.1H203.085V371.666H204.012V373.15H206.2V371.666H207.118V373.502H209.032V371.09H209.96ZM210.155 378.893V379.645H204.247V376.92H205.184V378.893H210.155ZM204.012 375.348H206.2V373.863H204.012V375.348Z" fill="#888888"/>
<path opacity="0.88" d="M217.723 379V371.93H218.797V374.996H222.312V371.93H223.387V379H222.312V375.914H218.797V379H217.723ZM224.532 379V371.93H227.052C228.692 371.93 229.503 372.848 229.503 374.146C229.503 375.099 229.073 375.821 228.214 376.139L229.776 379H228.555L227.12 376.334H227.052H225.606V379H224.532ZM225.606 375.406H226.944C227.989 375.406 228.419 374.947 228.419 374.146C228.419 373.346 227.989 372.848 226.944 372.848H225.606V375.406ZM232.757 379.098C231.117 379.098 230.16 377.779 230.16 375.465C230.16 373.17 231.136 371.832 232.757 371.832C234.379 371.832 235.355 373.17 235.355 375.465C235.355 377.779 234.388 379.098 232.757 379.098ZM232.757 378.17C233.714 378.17 234.281 377.232 234.281 375.465C234.281 373.707 233.705 372.74 232.757 372.74C231.81 372.74 231.234 373.707 231.234 375.465C231.234 377.232 231.8 378.17 232.757 378.17ZM238.629 379.098C236.989 379.098 236.032 377.779 236.032 375.465C236.032 373.17 237.008 371.832 238.629 371.832C240.25 371.832 241.227 373.17 241.227 375.465C241.227 377.779 240.26 379.098 238.629 379.098ZM238.629 378.17C239.586 378.17 240.153 377.232 240.153 375.465C240.153 373.707 239.577 372.74 238.629 372.74C237.682 372.74 237.106 373.707 237.106 375.465C237.106 377.232 237.672 378.17 238.629 378.17ZM244.501 379.098C242.861 379.098 241.904 377.779 241.904 375.465C241.904 373.17 242.88 371.832 244.501 371.832C246.122 371.832 247.099 373.17 247.099 375.465C247.099 377.779 246.132 379.098 244.501 379.098ZM244.501 378.17C245.458 378.17 246.025 377.232 246.025 375.465C246.025 373.707 245.448 372.74 244.501 372.74C243.554 372.74 242.978 373.707 242.978 375.465C242.978 377.232 243.544 378.17 244.501 378.17ZM250.422 379.098C248.957 379.098 247.912 378.307 247.873 377.154H248.967C249.006 377.779 249.621 378.17 250.412 378.17C251.262 378.17 251.887 377.701 251.887 377.018C251.887 376.324 251.301 375.816 250.295 375.816H249.689V374.938H250.295C251.096 374.938 251.662 374.488 251.662 373.814C251.662 373.17 251.184 372.73 250.432 372.73C249.719 372.73 249.094 373.121 249.064 373.766H248.029C248.059 372.613 249.123 371.832 250.441 371.832C251.828 371.832 252.707 372.711 252.697 373.756C252.707 374.557 252.209 375.143 251.447 375.328V375.377C252.414 375.514 252.971 376.158 252.971 377.057C252.971 378.238 251.887 379.098 250.422 379.098Z" fill="#353535"/>
<path opacity="0.88" d="M272.33 377.955V378.717H264.322V377.955H267.828V375.875H268.746V377.955H272.33ZM268.766 372.301C268.766 373.688 270.289 374.986 271.979 375.27L271.578 376.031C270.162 375.748 268.858 374.874 268.277 373.668C267.701 374.869 266.412 375.758 265.006 376.031L264.596 375.27C266.275 374.986 267.789 373.688 267.789 372.301V371.637H268.766V372.301ZM280.663 375.426V376.188H272.665V375.426H276.19V374.146H277.108V375.426H280.663ZM277.118 371.588C277.118 372.701 278.485 373.678 280.175 373.893L279.813 374.625C278.422 374.405 277.196 373.727 276.649 372.76C276.088 373.727 274.862 374.405 273.466 374.625L273.124 373.893C274.804 373.678 276.171 372.691 276.18 371.588V371.217H277.118V371.588ZM279.667 376.959V379.83H278.729V377.691H273.554V376.959H279.667Z" fill="#888888"/>
<path opacity="0.88" d="M294.568 371.08V379.85H293.641V371.08H294.568ZM292.068 371.891V372.662H288.816V376.91C290.477 376.905 291.536 376.861 292.771 376.637L292.869 377.408C291.561 377.643 290.418 377.701 288.602 377.701H287.879V371.891H292.068ZM298.712 373.658C298.712 375.045 299.62 376.588 300.948 377.213L300.421 377.936C299.439 377.462 298.663 376.476 298.272 375.328C297.867 376.583 297.047 377.662 296.046 378.16L295.499 377.428C296.827 376.793 297.794 375.143 297.794 373.658V372.73H295.821V371.959H300.616V372.73H298.712V373.658ZM302.481 371.08V374.547H303.887V375.328H302.481V379.83H301.554V371.08H302.481ZM311.263 371.09V377.447H310.336V371.09H311.263ZM311.527 378.893V379.645H305.541V376.803H306.478V378.893H311.527ZM306.517 371.676C307.836 371.676 308.841 372.574 308.841 373.844C308.841 375.133 307.836 376.021 306.517 376.021C305.199 376.021 304.183 375.133 304.183 373.844C304.183 372.574 305.199 371.676 306.517 371.676ZM306.517 372.486C305.697 372.486 305.091 373.043 305.091 373.844C305.091 374.664 305.697 375.211 306.517 375.211C307.318 375.211 307.933 374.664 307.933 373.844C307.933 373.043 307.318 372.486 306.517 372.486ZM315.338 371.93V379H314.254V373.004H314.215L312.526 374.107V373.082L314.284 371.93H315.338ZM321.239 371.598V372.359H317.968V373.316H320.995V374.039H317.968V375.055C319.721 375.055 320.741 375.025 321.923 374.82L322.021 375.562C320.751 375.777 319.667 375.807 317.753 375.797H317.03V371.598H321.239ZM323.788 371.09V376.295H322.861V371.09H323.788ZM323.788 376.705V379.723H318.036V376.705H323.788ZM318.954 377.428V378.971H322.88V377.428H318.954Z" fill="#353535"/>
<path opacity="0.88" d="M338.564 372.652C338.564 373.775 339.404 374.85 340.752 375.279L340.273 376.002C339.268 375.67 338.506 374.977 338.115 374.098C337.72 375.05 336.943 375.802 335.898 376.168L335.42 375.455C336.777 374.986 337.617 373.844 337.627 372.652V372.408H335.664V371.656H340.488V372.408H338.564V372.652ZM342.578 371.08V376.363H341.65V371.08H342.578ZM342.578 376.803V379.83H341.65V377.555H336.65V376.803H342.578ZM345.598 376.07V377.164H349.729V376.07H350.637V379.723H344.68V376.07H345.598ZM345.598 378.961H349.729V377.887H345.598V378.961ZM350.657 371.461V372.125C350.657 372.794 350.657 373.546 350.432 374.605H351.673V375.357H343.665V374.605H349.524C349.729 373.6 349.739 372.862 349.739 372.223H344.671V371.461H350.657Z" fill="#888888"/>
<path opacity="0.88" d="M361.359 373.307C361.35 374.859 362.248 376.441 363.557 377.076L362.98 377.818C362.028 377.325 361.291 376.344 360.91 375.172C360.515 376.422 359.748 377.467 358.752 377.984L358.176 377.232C359.523 376.588 360.432 374.908 360.432 373.307V371.812H361.359V373.307ZM365.139 371.08V374.566H366.545V375.357H365.139V379.83H364.211V371.08H365.139ZM373.94 371.09V377.721H373.012V376.881H371.255V376.227H373.012V371.09H373.94ZM374.155 378.893V379.645H367.837V377.076H368.755V378.893H374.155ZM366.626 375.084C368.247 375.074 370.425 375.055 372.29 374.82L372.348 375.484C371.601 375.606 370.815 375.689 370.044 375.738V377.447H369.116V375.787C368.266 375.826 367.451 375.831 366.743 375.826L366.626 375.084ZM369.487 371.422C370.766 371.422 371.655 372.037 371.655 372.965C371.655 373.893 370.766 374.488 369.487 374.488C368.188 374.488 367.309 373.893 367.309 372.965C367.309 372.037 368.188 371.422 369.487 371.422ZM369.487 372.115C368.706 372.105 368.179 372.438 368.188 372.965C368.179 373.482 368.706 373.805 369.487 373.805C370.239 373.805 370.766 373.482 370.776 372.965C370.766 372.438 370.239 372.105 369.487 372.115Z" fill="#353535"/>
<rect x="90.5" y="405.5" width="475" height="47" rx="9.5" stroke="#EEEEEE"/>
<rect x="109.5" y="422.5" width="15" height="15" rx="2.5" fill="white" stroke="#DDDDDD"/>
<path d="M150.38 430.96H149.12L147.884 426.136C147.86 426.04 147.832 425.976 147.8 425.944C147.768 425.904 147.708 425.884 147.62 425.884H146.792C146.704 425.884 146.644 425.904 146.612 425.944C146.58 425.984 146.552 426.048 146.528 426.136L145.22 430.96H143.96L145.352 425.884H144.008V424.804H146.612V423.556H147.812V424.804H150.536V425.884H149.072L150.38 430.96ZM152.696 434.896H151.496V424.048H152.696V434.896ZM150.896 433.96H143.552V432.88H146.564V430.6H147.764V432.88H150.896V433.96ZM161.711 434.896H160.523V431.464H159.467V431.56C159.467 432.4 159.275 433.052 158.891 433.516C158.507 433.988 157.895 434.224 157.055 434.224C156.215 434.224 155.603 433.988 155.219 433.516C154.835 433.052 154.643 432.4 154.643 431.56V426.7C154.643 425.86 154.835 425.208 155.219 424.744C155.603 424.272 156.215 424.036 157.055 424.036C157.855 424.036 158.443 424.248 158.819 424.672C159.203 425.088 159.415 425.68 159.455 426.448H160.523V424.048H161.711V434.896ZM155.831 431.32C155.831 431.92 155.919 432.376 156.095 432.688C156.279 432.992 156.599 433.144 157.055 433.144C157.511 433.144 157.827 432.992 158.003 432.688C158.187 432.376 158.279 431.92 158.279 431.32V426.94C158.279 426.34 158.187 425.888 158.003 425.584C157.827 425.272 157.511 425.116 157.055 425.116C156.599 425.116 156.279 425.272 156.095 425.584C155.919 425.888 155.831 426.34 155.831 426.94V431.32ZM163.991 434.896H162.791V424.048H163.991V434.896ZM160.523 430.36V427.552H159.467V430.36H160.523ZM174.638 434.896H166.25V431.32H167.45V433.816H174.638V434.896ZM174.566 432.244H173.366V424.048H174.566V432.244ZM172.406 430.492H165.614V426.772H170.498V425.236H165.59V424.18H171.698V426.904C171.698 427.216 171.626 427.444 171.482 427.588C171.338 427.732 171.11 427.804 170.798 427.804H166.814V429.436H172.406V430.492Z" fill="black"/>
<path opacity="0.88" d="M197.359 427.307C197.35 428.859 198.248 430.441 199.557 431.076L198.98 431.818C198.028 431.325 197.291 430.344 196.91 429.172C196.515 430.422 195.748 431.467 194.752 431.984L194.176 431.232C195.523 430.588 196.432 428.908 196.432 427.307V425.812H197.359V427.307ZM201.139 425.08V428.566H202.545V429.357H201.139V433.83H200.211V425.08H201.139ZM209.96 425.09V431.555H209.032V428.254H207.118V430.1H203.085V425.666H204.012V427.15H206.2V425.666H207.118V427.502H209.032V425.09H209.96ZM210.155 432.893V433.645H204.247V430.92H205.184V432.893H210.155ZM204.012 429.348H206.2V427.863H204.012V429.348Z" fill="#888888"/>
<path opacity="0.88" d="M217.723 433V425.93H218.797V428.996H222.312V425.93H223.387V433H222.312V429.914H218.797V433H217.723ZM224.532 433V425.93H227.052C228.692 425.93 229.503 426.848 229.503 428.146C229.503 429.099 229.073 429.821 228.214 430.139L229.776 433H228.555L227.12 430.334H227.052H225.606V433H224.532ZM225.606 429.406H226.944C227.989 429.406 228.419 428.947 228.419 428.146C228.419 427.346 227.989 426.848 226.944 426.848H225.606V429.406ZM232.757 433.098C231.117 433.098 230.16 431.779 230.16 429.465C230.16 427.17 231.136 425.832 232.757 425.832C234.379 425.832 235.355 427.17 235.355 429.465C235.355 431.779 234.388 433.098 232.757 433.098ZM232.757 432.17C233.714 432.17 234.281 431.232 234.281 429.465C234.281 427.707 233.705 426.74 232.757 426.74C231.81 426.74 231.234 427.707 231.234 429.465C231.234 431.232 231.8 432.17 232.757 432.17ZM238.629 433.098C236.989 433.098 236.032 431.779 236.032 429.465C236.032 427.17 237.008 425.832 238.629 425.832C240.25 425.832 241.227 427.17 241.227 429.465C241.227 431.779 240.26 433.098 238.629 433.098ZM238.629 432.17C239.586 432.17 240.153 431.232 240.153 429.465C240.153 427.707 239.577 426.74 238.629 426.74C237.682 426.74 237.106 427.707 237.106 429.465C237.106 431.232 237.672 432.17 238.629 432.17ZM244.501 433.098C242.861 433.098 241.904 431.779 241.904 429.465C241.904 427.17 242.88 425.832 244.501 425.832C246.122 425.832 247.099 427.17 247.099 429.465C247.099 431.779 246.132 433.098 244.501 433.098ZM244.501 432.17C245.458 432.17 246.025 431.232 246.025 429.465C246.025 427.707 245.448 426.74 244.501 426.74C243.554 426.74 242.978 427.707 242.978 429.465C242.978 431.232 243.544 432.17 244.501 432.17ZM247.756 431.623V430.754L250.881 425.93H252.209V430.715H253.176V431.623H252.209V433H251.193V431.623H247.756ZM248.889 430.715H251.193V427.209H251.115L248.889 430.656V430.715Z" fill="#353535"/>
<path opacity="0.88" d="M272.33 431.955V432.717H264.322V431.955H267.828V429.875H268.746V431.955H272.33ZM268.766 426.301C268.766 427.688 270.289 428.986 271.979 429.27L271.578 430.031C270.162 429.748 268.858 428.874 268.277 427.668C267.701 428.869 266.412 429.758 265.006 430.031L264.596 429.27C266.275 428.986 267.789 427.688 267.789 426.301V425.637H268.766V426.301ZM280.663 429.426V430.188H272.665V429.426H276.19V428.146H277.108V429.426H280.663ZM277.118 425.588C277.118 426.701 278.485 427.678 280.175 427.893L279.813 428.625C278.422 428.405 277.196 427.727 276.649 426.76C276.088 427.727 274.862 428.405 273.466 428.625L273.124 427.893C274.804 427.678 276.171 426.691 276.18 425.588V425.217H277.118V425.588ZM279.667 430.959V433.83H278.729V431.691H273.554V430.959H279.667Z" fill="#888888"/>
<path opacity="0.88" d="M294.568 425.08V433.85H293.641V425.08H294.568ZM292.068 425.891V426.662H288.816V430.91C290.477 430.905 291.536 430.861 292.771 430.637L292.869 431.408C291.561 431.643 290.418 431.701 288.602 431.701H287.879V425.891H292.068ZM298.712 427.658C298.712 429.045 299.62 430.588 300.948 431.213L300.421 431.936C299.439 431.462 298.663 430.476 298.272 429.328C297.867 430.583 297.047 431.662 296.046 432.16L295.499 431.428C296.827 430.793 297.794 429.143 297.794 427.658V426.73H295.821V425.959H300.616V426.73H298.712V427.658ZM302.481 425.08V428.547H303.887V429.328H302.481V433.83H301.554V425.08H302.481ZM311.263 425.09V431.447H310.336V425.09H311.263ZM311.527 432.893V433.645H305.541V430.803H306.478V432.893H311.527ZM306.517 425.676C307.836 425.676 308.841 426.574 308.841 427.844C308.841 429.133 307.836 430.021 306.517 430.021C305.199 430.021 304.183 429.133 304.183 427.844C304.183 426.574 305.199 425.676 306.517 425.676ZM306.517 426.486C305.697 426.486 305.091 427.043 305.091 427.844C305.091 428.664 305.697 429.211 306.517 429.211C307.318 429.211 307.933 428.664 307.933 427.844C307.933 427.043 307.318 426.486 306.517 426.486ZM315.338 425.93V433H314.254V427.004H314.215L312.526 428.107V427.082L314.284 425.93H315.338ZM321.239 425.598V426.359H317.968V427.316H320.995V428.039H317.968V429.055C319.721 429.055 320.741 429.025 321.923 428.82L322.021 429.562C320.751 429.777 319.667 429.807 317.753 429.797H317.03V425.598H321.239ZM323.788 425.09V430.295H322.861V425.09H323.788ZM323.788 430.705V433.723H318.036V430.705H323.788ZM318.954 431.428V432.971H322.88V431.428H318.954Z" fill="#353535"/>
<path opacity="0.88" d="M338.564 426.652C338.564 427.775 339.404 428.85 340.752 429.279L340.273 430.002C339.268 429.67 338.506 428.977 338.115 428.098C337.72 429.05 336.943 429.802 335.898 430.168L335.42 429.455C336.777 428.986 337.617 427.844 337.627 426.652V426.408H335.664V425.656H340.488V426.408H338.564V426.652ZM342.578 425.08V430.363H341.65V425.08H342.578ZM342.578 430.803V433.83H341.65V431.555H336.65V430.803H342.578ZM345.598 430.07V431.164H349.729V430.07H350.637V433.723H344.68V430.07H345.598ZM345.598 432.961H349.729V431.887H345.598V432.961ZM350.657 425.461V426.125C350.657 426.794 350.657 427.546 350.432 428.605H351.673V429.357H343.665V428.605H349.524C349.729 427.6 349.739 426.862 349.739 426.223H344.671V425.461H350.657Z" fill="#888888"/>
<path opacity="0.88" d="M361.359 427.307C361.35 428.859 362.248 430.441 363.557 431.076L362.98 431.818C362.028 431.325 361.291 430.344 360.91 429.172C360.515 430.422 359.748 431.467 358.752 431.984L358.176 431.232C359.523 430.588 360.432 428.908 360.432 427.307V425.812H361.359V427.307ZM365.139 425.08V428.566H366.545V429.357H365.139V433.83H364.211V425.08H365.139ZM373.94 425.09V431.721H373.012V430.881H371.255V430.227H373.012V425.09H373.94ZM374.155 432.893V433.645H367.837V431.076H368.755V432.893H374.155ZM366.626 429.084C368.247 429.074 370.425 429.055 372.29 428.82L372.348 429.484C371.601 429.606 370.815 429.689 370.044 429.738V431.447H369.116V429.787C368.266 429.826 367.451 429.831 366.743 429.826L366.626 429.084ZM369.487 425.422C370.766 425.422 371.655 426.037 371.655 426.965C371.655 427.893 370.766 428.488 369.487 428.488C368.188 428.488 367.309 427.893 367.309 426.965C367.309 426.037 368.188 425.422 369.487 425.422ZM369.487 426.115C368.706 426.105 368.179 426.438 368.188 426.965C368.179 427.482 368.706 427.805 369.487 427.805C370.239 427.805 370.766 427.482 370.776 426.965C370.766 426.438 370.239 426.105 369.487 426.115Z" fill="#353535"/>
<rect x="90.5" y="459.5" width="475" height="47" rx="9.5" stroke="#EEEEEE"/>
<rect x="109.5" y="476.5" width="15" height="15" rx="2.5" fill="white" stroke="#DDDDDD"/>
<path d="M152.9 484.72H151.58L149.864 479.824C149.792 479.616 149.7 479.468 149.588 479.38C149.476 479.292 149.308 479.248 149.084 479.248H147.788C147.564 479.248 147.396 479.292 147.284 479.38C147.172 479.468 147.08 479.616 147.008 479.824L145.292 484.72H143.972L145.964 479.248H144.14V478.168H152.732V479.248H150.908L152.9 484.72ZM153.488 488.176H143.384V487.096H147.836V483.64H149.036V487.096H153.488V488.176ZM163.691 486.124H162.491V478.048H163.691V486.124ZM159.623 483.148V479.26H155.939V483.148H159.623ZM160.823 483.328C160.823 483.64 160.751 483.868 160.607 484.012C160.463 484.156 160.235 484.228 159.923 484.228H154.739V478.9C154.739 478.644 154.795 478.46 154.907 478.348C155.019 478.236 155.203 478.18 155.459 478.18H160.823V483.328ZM163.763 488.896H155.375V485.08H156.575V487.816H163.763V488.896ZM174.566 488.896H173.366V483.148H171.458V488.032H170.258V479.26H169.322C169.066 479.26 168.886 479.312 168.782 479.416C168.678 479.512 168.602 479.656 168.554 479.848L166.514 488.032H165.242L167.294 479.752C167.35 479.52 167.414 479.308 167.486 479.116C167.566 478.924 167.666 478.76 167.786 478.624C167.914 478.48 168.07 478.372 168.254 478.3C168.438 478.22 168.67 478.18 168.95 478.18H171.458V482.044H173.366V478.048H174.566V488.896Z" fill="black"/>
<path opacity="0.88" d="M197.359 481.307C197.35 482.859 198.248 484.441 199.557 485.076L198.98 485.818C198.028 485.325 197.291 484.344 196.91 483.172C196.515 484.422 195.748 485.467 194.752 485.984L194.176 485.232C195.523 484.588 196.432 482.908 196.432 481.307V479.812H197.359V481.307ZM201.139 479.08V482.566H202.545V483.357H201.139V487.83H200.211V479.08H201.139ZM209.96 479.09V485.555H209.032V482.254H207.118V484.1H203.085V479.666H204.012V481.15H206.2V479.666H207.118V481.502H209.032V479.09H209.96ZM210.155 486.893V487.645H204.247V484.92H205.184V486.893H210.155ZM204.012 483.348H206.2V481.863H204.012V483.348Z" fill="#888888"/>
<path opacity="0.88" d="M217.723 487V479.93H218.797V482.996H222.312V479.93H223.387V487H222.312V483.914H218.797V487H217.723ZM224.532 487V479.93H227.052C228.692 479.93 229.503 480.848 229.503 482.146C229.503 483.099 229.073 483.821 228.214 484.139L229.776 487H228.555L227.12 484.334H227.052H225.606V487H224.532ZM225.606 483.406H226.944C227.989 483.406 228.419 482.947 228.419 482.146C228.419 481.346 227.989 480.848 226.944 480.848H225.606V483.406ZM232.757 487.098C231.117 487.098 230.16 485.779 230.16 483.465C230.16 481.17 231.136 479.832 232.757 479.832C234.379 479.832 235.355 481.17 235.355 483.465C235.355 485.779 234.388 487.098 232.757 487.098ZM232.757 486.17C233.714 486.17 234.281 485.232 234.281 483.465C234.281 481.707 233.705 480.74 232.757 480.74C231.81 480.74 231.234 481.707 231.234 483.465C231.234 485.232 231.8 486.17 232.757 486.17ZM238.629 487.098C236.989 487.098 236.032 485.779 236.032 483.465C236.032 481.17 237.008 479.832 238.629 479.832C240.25 479.832 241.227 481.17 241.227 483.465C241.227 485.779 240.26 487.098 238.629 487.098ZM238.629 486.17C239.586 486.17 240.153 485.232 240.153 483.465C240.153 481.707 239.577 480.74 238.629 480.74C237.682 480.74 237.106 481.707 237.106 483.465C237.106 485.232 237.672 486.17 238.629 486.17ZM244.501 487.098C242.861 487.098 241.904 485.779 241.904 483.465C241.904 481.17 242.88 479.832 244.501 479.832C246.122 479.832 247.099 481.17 247.099 483.465C247.099 485.779 246.132 487.098 244.501 487.098ZM244.501 486.17C245.458 486.17 246.025 485.232 246.025 483.465C246.025 481.707 245.448 480.74 244.501 480.74C243.554 480.74 242.978 481.707 242.978 483.465C242.978 485.232 243.544 486.17 244.501 486.17ZM250.314 487.098C248.977 487.098 247.971 486.277 247.922 485.154H248.967C249.025 485.76 249.602 486.199 250.314 486.199C251.174 486.199 251.789 485.574 251.789 484.734C251.789 483.875 251.154 483.25 250.266 483.24C249.699 483.24 249.27 483.426 249.025 483.865H248.01L248.469 479.93H252.473V480.848H249.357L249.123 482.83H249.191C249.484 482.547 249.982 482.352 250.52 482.352C251.848 482.352 252.834 483.338 252.834 484.705C252.834 486.102 251.789 487.098 250.314 487.098Z" fill="#353535"/>
<path opacity="0.88" d="M272.33 485.955V486.717H264.322V485.955H267.828V483.875H268.746V485.955H272.33ZM268.766 480.301C268.766 481.688 270.289 482.986 271.979 483.27L271.578 484.031C270.162 483.748 268.858 482.874 268.277 481.668C267.701 482.869 266.412 483.758 265.006 484.031L264.596 483.27C266.275 482.986 267.789 481.688 267.789 480.301V479.637H268.766V480.301ZM280.663 483.426V484.188H272.665V483.426H276.19V482.146H277.108V483.426H280.663ZM277.118 479.588C277.118 480.701 278.485 481.678 280.175 481.893L279.813 482.625C278.422 482.405 277.196 481.727 276.649 480.76C276.088 481.727 274.862 482.405 273.466 482.625L273.124 481.893C274.804 481.678 276.171 480.691 276.18 479.588V479.217H277.118V479.588ZM279.667 484.959V487.83H278.729V485.691H273.554V484.959H279.667Z" fill="#888888"/>
<path opacity="0.88" d="M294.568 479.08V487.85H293.641V479.08H294.568ZM292.068 479.891V480.662H288.816V484.91C290.477 484.905 291.536 484.861 292.771 484.637L292.869 485.408C291.561 485.643 290.418 485.701 288.602 485.701H287.879V479.891H292.068ZM298.712 481.658C298.712 483.045 299.62 484.588 300.948 485.213L300.421 485.936C299.439 485.462 298.663 484.476 298.272 483.328C297.867 484.583 297.047 485.662 296.046 486.16L295.499 485.428C296.827 484.793 297.794 483.143 297.794 481.658V480.73H295.821V479.959H300.616V480.73H298.712V481.658ZM302.481 479.08V482.547H303.887V483.328H302.481V487.83H301.554V479.08H302.481ZM311.263 479.09V485.447H310.336V479.09H311.263ZM311.527 486.893V487.645H305.541V484.803H306.478V486.893H311.527ZM306.517 479.676C307.836 479.676 308.841 480.574 308.841 481.844C308.841 483.133 307.836 484.021 306.517 484.021C305.199 484.021 304.183 483.133 304.183 481.844C304.183 480.574 305.199 479.676 306.517 479.676ZM306.517 480.486C305.697 480.486 305.091 481.043 305.091 481.844C305.091 482.664 305.697 483.211 306.517 483.211C307.318 483.211 307.933 482.664 307.933 481.844C307.933 481.043 307.318 480.486 306.517 480.486ZM315.338 479.93V487H314.254V481.004H314.215L312.526 482.107V481.082L314.284 479.93H315.338ZM321.239 479.598V480.359H317.968V481.316H320.995V482.039H317.968V483.055C319.721 483.055 320.741 483.025 321.923 482.82L322.021 483.562C320.751 483.777 319.667 483.807 317.753 483.797H317.03V479.598H321.239ZM323.788 479.09V484.295H322.861V479.09H323.788ZM323.788 484.705V487.723H318.036V484.705H323.788ZM318.954 485.428V486.971H322.88V485.428H318.954Z" fill="#353535"/>
<path opacity="0.88" d="M338.564 480.652C338.564 481.775 339.404 482.85 340.752 483.279L340.273 484.002C339.268 483.67 338.506 482.977 338.115 482.098C337.72 483.05 336.943 483.802 335.898 484.168L335.42 483.455C336.777 482.986 337.617 481.844 337.627 480.652V480.408H335.664V479.656H340.488V480.408H338.564V480.652ZM342.578 479.08V484.363H341.65V479.08H342.578ZM342.578 484.803V487.83H341.65V485.555H336.65V484.803H342.578ZM345.598 484.07V485.164H349.729V484.07H350.637V487.723H344.68V484.07H345.598ZM345.598 486.961H349.729V485.887H345.598V486.961ZM350.657 479.461V480.125C350.657 480.794 350.657 481.546 350.432 482.605H351.673V483.357H343.665V482.605H349.524C349.729 481.6 349.739 480.862 349.739 480.223H344.671V479.461H350.657Z" fill="#888888"/>
<path opacity="0.88" d="M361.359 481.307C361.35 482.859 362.248 484.441 363.557 485.076L362.98 485.818C362.028 485.325 361.291 484.344 360.91 483.172C360.515 484.422 359.748 485.467 358.752 485.984L358.176 485.232C359.523 484.588 360.432 482.908 360.432 481.307V479.812H361.359V481.307ZM365.139 479.08V482.566H366.545V483.357H365.139V487.83H364.211V479.08H365.139ZM373.94 479.09V485.721H373.012V484.881H371.255V484.227H373.012V479.09H373.94ZM374.155 486.893V487.645H367.837V485.076H368.755V486.893H374.155ZM366.626 483.084C368.247 483.074 370.425 483.055 372.29 482.82L372.348 483.484C371.601 483.606 370.815 483.689 370.044 483.738V485.447H369.116V483.787C368.266 483.826 367.451 483.831 366.743 483.826L366.626 483.084ZM369.487 479.422C370.766 479.422 371.655 480.037 371.655 480.965C371.655 481.893 370.766 482.488 369.487 482.488C368.188 482.488 367.309 481.893 367.309 480.965C367.309 480.037 368.188 479.422 369.487 479.422ZM369.487 480.115C368.706 480.105 368.179 480.438 368.188 480.965C368.179 481.482 368.706 481.805 369.487 481.805C370.239 481.805 370.766 481.482 370.776 480.965C370.766 480.438 370.239 480.105 369.487 480.115Z" fill="#353535"/>
<path d="M90 210.584C90 208.471 91.7127 206.758 93.8255 206.758H204.239C206.352 206.758 208.065 208.471 208.065 210.584V227.416C208.065 229.529 206.352 231.242 204.239 231.242H93.8255C91.7127 231.242 90 229.529 90 227.416V210.584Z" fill="#5767C5"/>
<path d="M109.265 213.985V220.92H108.103V218.577H105.855C105.399 219.085 104.73 219.393 103.972 219.393C102.549 219.393 101.472 218.368 101.472 216.977C101.472 215.565 102.549 214.55 103.972 214.55C104.725 214.55 105.389 214.853 105.844 215.356H108.103V213.985H109.265ZM109.505 222.301V223.243H103.062V220.209H104.223V222.301H109.505ZM103.972 215.586C103.156 215.586 102.58 216.13 102.58 216.977C102.58 217.814 103.156 218.358 103.972 218.358C104.746 218.358 105.331 217.814 105.342 216.977C105.331 216.13 104.746 215.586 103.972 215.586ZM106.357 216.297C106.414 216.511 106.451 216.736 106.451 216.977C106.451 217.207 106.419 217.427 106.367 217.636H108.103V216.297H106.357ZM113.709 216.977C113.709 218.379 114.504 219.906 115.958 220.596L115.31 221.475C114.29 220.999 113.547 220.063 113.155 218.954C112.736 220.146 111.957 221.156 110.875 221.642L110.236 220.743C111.722 220.073 112.559 218.462 112.559 216.977V216.485H110.54V215.554H112.559V214.174H113.72V215.554H115.707V216.485H113.709V216.977ZM117.789 213.975V217.72H119.243V218.692H117.789V223.431H116.628V213.975H117.789ZM122.798 216.245C122.788 217.929 123.635 219.644 125.1 220.345L124.388 221.276C123.363 220.758 122.626 219.759 122.223 218.556C121.81 219.843 121.036 220.91 119.953 221.454L119.242 220.523C120.759 219.801 121.627 217.992 121.637 216.245V214.738H122.798V216.245ZM126.826 213.975V217.678H128.28V218.672H126.826V223.431H125.664V213.975H126.826ZM137.076 218.525V219.456H128.456V218.525H130.465V217.322C129.754 217.024 129.346 216.548 129.346 215.931C129.346 214.801 130.674 214.132 132.756 214.132C134.837 214.132 136.155 214.801 136.166 215.931C136.16 216.553 135.753 217.029 135.036 217.322V218.525H137.076ZM132.756 220.031C134.795 220.021 136.019 220.628 136.03 221.715C136.019 222.814 134.795 223.41 132.756 223.41C130.695 223.41 129.461 222.814 129.461 221.715C129.461 220.628 130.695 220.021 132.756 220.031ZM132.756 220.91C131.375 220.91 130.632 221.182 130.643 221.715C130.632 222.249 131.375 222.531 132.756 222.531C134.105 222.531 134.858 222.249 134.869 221.715C134.858 221.182 134.105 220.91 132.756 220.91ZM132.756 215.031C131.354 215.031 130.548 215.345 130.559 215.931C130.548 216.506 131.354 216.81 132.756 216.81C134.147 216.81 134.963 216.506 134.963 215.931C134.963 215.345 134.147 215.031 132.756 215.031ZM131.636 218.525H133.875V217.625C133.535 217.673 133.158 217.699 132.756 217.699C132.353 217.699 131.976 217.673 131.636 217.625V218.525ZM148.434 218.912V219.833H139.814V218.912H143.538V217.866H144.689V218.912H148.434ZM147.377 220.554V223.431H146.216V221.485H140.766V220.554H147.377ZM144.689 213.964V214.864H147.586V215.784H144.773C144.882 216.6 145.991 217.27 148.005 217.406L147.639 218.305C145.955 218.159 144.705 217.631 144.114 216.81C143.523 217.631 142.267 218.159 140.588 218.305L140.222 217.406C142.215 217.27 143.334 216.6 143.455 215.784H140.662V214.864H143.538V213.964H144.689ZM152.439 215.9C152.439 217.071 153.245 218.222 154.751 218.692L154.155 219.602C153.082 219.252 152.303 218.546 151.874 217.646C151.445 218.624 150.645 219.404 149.521 219.791L148.924 218.87C150.441 218.368 151.257 217.144 151.268 215.9V215.628H149.228V214.697H154.427V215.628H152.439V215.9ZM156.728 213.985V220.847H155.556V213.985H156.728ZM156.989 222.301V223.243H150.473V220.22H151.644V222.301H156.989ZM168.849 221.328V222.28H160.209V221.328H162.207V218.933C161.454 218.504 160.999 217.829 161.004 216.987C160.994 215.481 162.479 214.487 164.508 214.487C166.548 214.487 168.034 215.481 168.034 216.987C168.034 217.814 167.594 218.478 166.862 218.912V221.328H168.849ZM164.508 215.408C163.096 215.408 162.134 216.004 162.144 216.987C162.134 217.96 163.096 218.567 164.508 218.567C165.921 218.567 166.893 217.96 166.893 216.987C166.893 216.004 165.921 215.408 164.508 215.408ZM163.358 221.328H165.68V219.351C165.319 219.435 164.927 219.477 164.508 219.477C164.1 219.477 163.713 219.435 163.358 219.362V221.328ZM172.646 215.994C172.646 217.029 173.451 218.054 174.936 218.452L174.392 219.351C173.299 219.053 172.515 218.415 172.081 217.594C171.673 218.525 170.883 219.257 169.759 219.592L169.215 218.692C170.69 218.243 171.484 217.134 171.484 215.994V215.941H169.507V215.021H171.484V213.933H172.656V215.021H174.623V215.941H172.646V215.994ZM177.164 213.975V219.697H176.003V217.51H174.34V216.569H176.003V213.975H177.164ZM173.964 219.885C175.962 219.885 177.196 220.523 177.196 221.642C177.196 222.772 175.962 223.421 173.964 223.421C171.976 223.421 170.742 222.772 170.752 221.642C170.742 220.523 171.976 219.885 173.964 219.885ZM173.964 220.774C172.646 220.785 171.903 221.077 171.903 221.642C171.903 222.207 172.646 222.521 173.964 222.521C175.303 222.521 176.035 222.207 176.035 221.642C176.035 221.077 175.303 220.785 173.964 220.774ZM185.689 213.975V217.741H187.143V218.703H185.689V223.431H184.538V213.975H185.689ZM183.806 215.429V216.36H178.23V215.429H180.469V214.111H181.63V215.429H183.806ZM181.055 216.977C182.415 216.977 183.429 217.897 183.429 219.205C183.429 220.513 182.415 221.423 181.055 221.423C179.674 221.423 178.659 220.513 178.67 219.205C178.659 217.897 179.674 216.977 181.055 216.977ZM181.055 217.929C180.312 217.929 179.779 218.431 179.779 219.205C179.779 219.979 180.312 220.471 181.055 220.46C181.777 220.471 182.31 219.979 182.32 219.205C182.31 218.431 181.777 217.929 181.055 217.929ZM195.217 213.975V223.431H194.046V213.975H195.217ZM192.393 214.979C192.393 217.793 191.305 220.188 187.989 221.757L187.382 220.826C189.856 219.65 191.007 218.049 191.211 215.9H187.863V214.979H192.393Z" fill="white"/>
</g>
</g>
</g>
<defs>
<filter id="filter0_d_279_2470" x="13.1329" y="8.71143" width="693.734" height="561.734" filterUnits="userSpaceOnUse" color-interpolation-filters="sRGB">
<feFlood flood-opacity="0" result="BackgroundImageFix"/>
<feColorMatrix in="SourceAlpha" type="matrix" values="0 0 0 0 0 0 0 0 0 0 0 0 0 0 0 0 0 0 127 0" result="hardAlpha"/>
<feOffset dy="-4.42143"/>
<feGaussianBlur stdDeviation="23.4336"/>
<feComposite in2="hardAlpha" operator="out"/>
<feColorMatrix type="matrix" values="0 0 0 0 0.142104 0 0 0 0 0.54285 0 0 0 0 0.557692 0 0 0 0.03 0"/>
<feBlend mode="normal" in2="BackgroundImageFix" result="effect1_dropShadow_279_2470"/>
<feBlend mode="normal" in="SourceGraphic" in2="effect1_dropShadow_279_2470" result="shape"/>
</filter>
<filter id="filter1_d_279_2470" x="86" y="243" width="484" height="62" filterUnits="userSpaceOnUse" color-interpolation-filters="sRGB">
<feFlood flood-opacity="0" result="BackgroundImageFix"/>
<feColorMatrix in="SourceAlpha" type="matrix" values="0 0 0 0 0 0 0 0 0 0 0 0 0 0 0 0 0 0 127 0" result="hardAlpha"/>
<feOffset dy="10"/>
<feGaussianBlur stdDeviation="2"/>
<feComposite in2="hardAlpha" operator="out"/>
<feColorMatrix type="matrix" values="0 0 0 0 0 0 0 0 0 0 0 0 0 0 0 0 0 0 0.03 0"/>
<feBlend mode="normal" in2="BackgroundImageFix" result="effect1_dropShadow_279_2470"/>
<feBlend mode="normal" in="SourceGraphic" in2="effect1_dropShadow_279_2470" result="shape"/>
</filter>
<clipPath id="clip0_279_2470">
<rect width="440" height="500" rx="16" fill="white"/>
</clipPath>
<clipPath id="clip1_279_2470">
<rect x="60" y="60" width="600" height="468" rx="22.1071" fill="white"/>
</clipPath>
</defs>
</svg>
