<svg width="440" height="500" viewBox="0 0 440 500" fill="none" xmlns="http://www.w3.org/2000/svg">
<g clip-path="url(#clip0_283_2394)">
<rect x="60" y="60" width="560" height="502" rx="22" fill="white"/>
<path d="M101.452 106.212H91.61V102.53H99.912V101.522H91.582V100.262H101.312V102.922C101.312 103.221 101.247 103.435 101.116 103.566C100.985 103.697 100.771 103.762 100.472 103.762H93.01V104.952H101.452V106.212ZM96.594 99.45H95.194L95.978 95.292C95.9967 95.1613 95.9873 95.0773 95.95 95.04C95.9127 94.9933 95.8287 94.97 95.698 94.97H90.868V93.71H97C97.2333 93.71 97.3967 93.7707 97.49 93.892C97.5927 94.004 97.6207 94.1673 97.574 94.382L96.594 99.45ZM101.312 99.66H99.912V98.456H97.728V97.168H99.912V95.922H97.882V94.634H99.912V93.556H101.312V99.66ZM114.07 106.212H112.67V99.548H111.102V106.212H109.715V93.556H111.102V98.26H112.67V93.556H114.07V106.212ZM108.708 105.204H107.252L106.313 95.46C106.295 95.2733 106.258 95.1473 106.202 95.082C106.155 95.0073 106.071 94.97 105.95 94.97H105.572C105.441 94.97 105.348 95.0073 105.292 95.082C105.245 95.1473 105.212 95.2733 105.194 95.46L104.06 105.204H102.603L103.85 94.97H102.743V93.71H108.904V94.97H107.658L108.708 105.204ZM125.511 106.212H115.725V102.25H117.125V104.952H125.511V106.212ZM125.427 103.328H124.027V93.556H125.427V96.958H127.079V98.246H125.427V103.328ZM122.431 98.988H121.031L121.353 95.292C121.362 95.1613 121.348 95.0773 121.311 95.04C121.283 94.9933 121.204 94.97 121.073 94.97H115.515V93.71H122.235C122.468 93.71 122.627 93.7707 122.711 93.892C122.795 94.004 122.828 94.1673 122.809 94.382L122.431 98.988ZM123.327 101.172H115.039V99.912H117.573V97.154H118.973V99.912H123.327V101.172ZM138.255 106.212H136.855V93.556H138.255V106.212ZM135.735 104.98H127.811V98.414H133.509V94.942H127.783V93.71H134.909V98.568C134.909 98.932 134.825 99.198 134.657 99.366C134.489 99.534 134.223 99.618 133.859 99.618H129.211V103.748H135.735V104.98Z" fill="black"/>
<rect x="90.5" y="153.5" width="519" height="31" rx="5.5" stroke="#EEEEEE"/>
<rect x="94" y="157" width="78" height="24" rx="5" fill="#00AFAE"/>
<path d="M112.454 163.745V168.665H111.262V167.816H108.92V166.903H111.262V165.947H109.049C108.437 167.43 107.019 168.396 104.87 168.88L104.451 167.902C106.734 167.43 107.873 166.425 108.039 165.131H104.988V164.164H109.371C109.371 164.47 109.344 164.76 109.307 165.034H111.262V163.745H112.454ZM112.454 169.041V171.598H107.266V172.403H112.712V173.359H106.073V170.706H111.262V169.986H106.062V169.041H112.454ZM121.921 163.745V173.456H120.782V168.536H119.783V172.983H118.655V163.917H119.783V167.548H120.782V163.745H121.921ZM116.518 166.227C116.518 167.956 117.098 169.546 118.537 170.287L117.839 171.2C116.915 170.706 116.308 169.852 115.97 168.794C115.637 170.002 115.03 170.975 114.068 171.544L113.338 170.631C114.777 169.814 115.358 168.117 115.358 166.227V165.765H113.628V164.809H118.108V165.765H116.518V166.227ZM126.79 164.798V167.322H127.918V163.917H129.057V172.983H127.918V168.289H126.79V170.953H122.977V164.798H126.79ZM124.094 165.743V170.008H125.673V165.743H124.094ZM131.055 163.745V173.456H129.905V163.745H131.055ZM139.695 166.882V167.849H132.948V164.207H134.141V166.882H139.695ZM140.704 169.041V170.008H138.577V173.456H137.374V170.008H135.183V173.456H133.99V170.008H131.853V169.041H140.704ZM148.735 164.465V165.045C148.724 165.711 148.724 166.667 148.498 167.902L147.317 167.795C147.505 166.791 147.542 166.049 147.564 165.453H143.783V164.465H148.735ZM146.286 166.678V168.611C147.29 168.574 148.321 168.499 149.261 168.364L149.326 169.224C147.306 169.589 145.018 169.621 143.31 169.632L143.203 168.676C143.777 168.67 144.422 168.665 145.104 168.654V166.678H146.286ZM151.055 163.745V166.774H152.312V167.773H151.055V171.018H149.83V163.745H151.055ZM151.367 172.296V173.263H144.653V170.373H145.856V172.296H151.367ZM160.576 163.745V173.467H159.394V163.745H160.576ZM157.589 164.594V168.235H154.249V170.19C155.779 170.18 157.101 170.104 158.61 169.847L158.717 170.824C157.063 171.114 155.613 171.168 153.873 171.168H153.024V167.29H156.375V165.561H153.013V164.594H157.589Z" fill="white"/>
<path d="M194.454 163.745V168.665H193.262V167.816H190.92V166.903H193.262V165.947H191.049C190.437 167.43 189.019 168.396 186.87 168.88L186.451 167.902C188.734 167.43 189.873 166.425 190.039 165.131H186.988V164.164H191.371C191.371 164.47 191.344 164.76 191.307 165.034H193.262V163.745H194.454ZM194.454 169.041V171.598H189.266V172.403H194.712V173.359H188.073V170.706H193.262V169.986H188.062V169.041H194.454ZM203.921 163.745V173.456H202.782V168.536H201.783V172.983H200.655V163.917H201.783V167.548H202.782V163.745H203.921ZM198.518 166.227C198.518 167.956 199.098 169.546 200.537 170.287L199.839 171.2C198.915 170.706 198.308 169.852 197.97 168.794C197.637 170.002 197.03 170.975 196.068 171.544L195.338 170.631C196.777 169.814 197.358 168.117 197.358 166.227V165.765H195.628V164.809H200.108V165.765H198.518V166.227ZM212.281 163.745V167.473H213.775V168.472H212.281V173.467H211.1V163.745H212.281ZM209.531 164.594V168.257H206.266V170.19C207.802 170.18 209 170.115 210.359 169.879L210.466 170.846C208.973 171.114 207.641 171.179 205.879 171.179H205.084V167.301H208.339V165.561H205.063V164.594H209.531ZM221.942 163.756V170.771H220.739V163.756H221.942ZM222.21 172.296V173.263H215.518V170.062H216.721V172.296H222.21ZM216.646 164.39C218.117 164.39 219.256 165.41 219.256 166.817C219.256 168.257 218.117 169.256 216.646 169.256C215.163 169.256 214.025 168.257 214.025 166.817C214.025 165.41 215.163 164.39 216.646 164.39ZM216.646 165.432C215.819 165.432 215.185 165.979 215.196 166.817C215.185 167.677 215.819 168.214 216.646 168.214C217.451 168.214 218.085 167.677 218.085 166.817C218.085 165.979 217.451 165.432 216.646 165.432ZM230.735 164.465V165.045C230.724 165.711 230.724 166.667 230.498 167.902L229.317 167.795C229.505 166.791 229.542 166.049 229.564 165.453H225.783V164.465H230.735ZM228.286 166.678V168.611C229.29 168.574 230.321 168.499 231.261 168.364L231.326 169.224C229.306 169.589 227.018 169.621 225.31 169.632L225.203 168.676C225.777 168.67 226.422 168.665 227.104 168.654V166.678H228.286ZM233.055 163.745V166.774H234.312V167.773H233.055V171.018H231.83V163.745H233.055ZM233.367 172.296V173.263H226.653V170.373H227.856V172.296H233.367ZM242.576 163.745V173.467H241.394V163.745H242.576ZM239.589 164.594V168.235H236.249V170.19C237.779 170.18 239.101 170.104 240.61 169.847L240.717 170.824C239.063 171.114 237.613 171.168 235.873 171.168H235.024V167.29H238.375V165.561H235.013V164.594H239.589Z" fill="#575757" fill-opacity="0.68"/>
<rect x="90" y="199" width="520" height="32" rx="6" fill="#F6F5FB"/>
<path d="M115.437 210.298V212.822H116.564V209.417H117.703V218.483H116.564V213.789H115.437V216.453H111.623V210.298H115.437ZM112.74 211.243V215.508H114.319V211.243H112.74ZM119.701 209.245V218.956H118.552V209.245H119.701ZM128.341 212.382V213.349H121.595V209.707H122.787V212.382H128.341ZM129.351 214.541V215.508H127.224V218.956H126.021V215.508H123.829V218.956H122.637V215.508H120.499V214.541H129.351ZM137.808 209.245V214.96H136.615V213.617H134.66V214.369H130.095V209.976H134.66V210.728H136.615V209.245H137.808ZM131.287 210.921V213.413H133.479V210.921H131.287ZM134.521 215.218C136.583 215.218 137.84 215.905 137.84 217.087C137.84 218.269 136.583 218.945 134.521 218.945C132.469 218.945 131.212 218.269 131.223 217.087C131.212 215.905 132.469 215.218 134.521 215.218ZM134.521 216.131C133.167 216.131 132.404 216.464 132.404 217.087C132.404 217.688 133.167 218.021 134.521 218.021C135.874 218.021 136.648 217.688 136.648 217.087C136.648 216.464 135.874 216.131 134.521 216.131ZM134.66 212.65H136.615V211.673H134.66V212.65Z" fill="black"/>
<path d="M320.454 209.256V216.346H319.262V212.79H317.543V211.823H319.262V209.256H320.454ZM320.701 217.796V218.763H314.084V215.723H315.276V217.796H320.701ZM315.889 211.189C315.889 212.36 316.673 213.563 318.177 214.058L317.575 215.014C316.49 214.643 315.722 213.907 315.298 212.983C314.868 214.009 314.057 214.82 312.913 215.218L312.301 214.251C313.848 213.746 314.675 212.468 314.675 211.179V210.921H312.655V209.954H317.897V210.921H315.889V211.189ZM324.98 212.006C324.98 213.51 325.871 215.218 327.407 215.927L326.741 216.872C325.646 216.356 324.835 215.314 324.399 214.101C323.959 215.433 323.11 216.571 321.993 217.108L321.295 216.174C322.842 215.443 323.776 213.617 323.787 212.006V211.189H321.671V210.201H327.01V211.189H324.98V212.006ZM329.105 209.245V213.026H330.598V214.025H329.105V218.956H327.912V209.245H329.105ZM338.808 209.245V214.165H337.615V213.316H335.274V212.403H337.615V211.447H335.403C334.79 212.93 333.372 213.896 331.224 214.38L330.805 213.402C333.088 212.93 334.226 211.925 334.393 210.631H331.342V209.664H335.725C335.725 209.97 335.698 210.26 335.66 210.534H337.615V209.245H338.808ZM338.808 214.541V217.098H333.619V217.903H339.066V218.859H332.427V216.206H337.615V215.486H332.416V214.541H338.808ZM348.275 209.245V218.956H347.136V214.036H346.137V218.483H345.009V209.417H346.137V213.048H347.136V209.245H348.275ZM342.871 211.727C342.871 213.456 343.451 215.046 344.891 215.787L344.193 216.7C343.269 216.206 342.662 215.352 342.323 214.294C341.99 215.502 341.384 216.475 340.422 217.044L339.692 216.131C341.131 215.314 341.711 213.617 341.711 211.727V211.265H339.982V210.309H344.461V211.265H342.871V211.727ZM353.963 209.954C354.844 209.954 355.569 210.443 356.004 211.297H358.271V209.245H359.453V218.967H358.271V215.293H356.09C355.671 216.26 354.903 216.818 353.963 216.818C352.502 216.818 351.471 215.497 351.471 213.381C351.471 211.286 352.502 209.954 353.963 209.954ZM353.963 211.028C353.158 211.028 352.61 211.898 352.621 213.381C352.61 214.874 353.158 215.744 353.963 215.744C354.769 215.744 355.306 214.874 355.317 213.381C355.306 211.898 354.769 211.028 353.963 211.028ZM356.337 212.274C356.407 212.613 356.445 212.983 356.445 213.381C356.445 213.719 356.418 214.031 356.37 214.326H358.271V212.274H356.337ZM369.349 214.896V215.841H365.482V218.956H364.3V215.841H360.476V214.896H369.349ZM362.732 209.632V210.824H367.072V209.632H368.275V213.886H361.55V209.632H362.732ZM362.732 212.919H367.072V211.77H362.732V212.919Z" fill="black"/>
<rect x="90.5" y="239.5" width="519" height="47" rx="5.5" fill="white"/>
<rect x="90.5" y="239.5" width="519" height="47" rx="5.5" stroke="#EEEEEE"/>
<rect x="317" y="255" width="26.6667" height="16" rx="8" fill="#00AEAE"/>
<circle cx="325" cy="263" r="5.33333" fill="#00AEAE"/>
<g filter="url(#filter0_d_283_2394)">
<circle cx="335.667" cy="263" r="5.33333" fill="white"/>
</g>
<path d="M120.195 265.829V266.807H111.322V265.829H115.157V263.82H116.339V265.829H120.195ZM119.4 259.652V260.619H116.371C116.452 261.828 117.714 262.939 119.809 263.219L119.368 264.153C117.687 263.917 116.393 263.17 115.748 262.102C115.104 263.17 113.82 263.917 112.139 264.153L111.688 263.219C113.793 262.939 115.05 261.828 115.146 260.619H112.106V259.652H115.157V258.396H116.339V259.652H119.4ZM125.924 259.255V259.942C125.924 260.812 125.924 262.026 125.655 263.702L124.474 263.605C124.705 262.134 124.732 261.049 124.742 260.211H120.929V259.255H125.924ZM123.475 262.026V264.895C124.463 264.857 125.478 264.787 126.407 264.669L126.472 265.561C124.463 265.883 122.239 265.926 120.531 265.915L120.413 264.959C120.988 264.954 121.627 264.948 122.293 264.927V262.026H123.475ZM128.115 258.245V262.198H129.523V263.208H128.115V267.956H126.912V258.245H128.115ZM137.464 258.804V259.609C137.464 260.426 137.464 261.366 137.249 262.596H138.549V263.573H129.676V262.596H136.035C136.256 261.425 136.272 260.555 136.272 259.771H130.772V258.804H137.464ZM137.743 266.785V267.752H130.825V264.497H132.007V266.785H137.743ZM147.715 263.745V264.712H143.848V267.945H142.666V264.712H138.842V263.745H147.715ZM146.63 258.739V262.606H139.927V258.739H146.63ZM141.098 259.695V261.672H145.438V259.695H141.098ZM158.399 258.256V265.346H157.196V258.256H158.399ZM158.667 266.796V267.763H151.975V264.669H153.178V266.796H158.667ZM153.93 259.738C153.93 261.092 154.725 262.37 156.261 262.886L155.649 263.831C154.542 263.444 153.753 262.671 153.329 261.683C152.888 262.741 152.088 263.589 150.944 264.003L150.321 263.058C151.9 262.499 152.695 261.135 152.695 259.738V258.793H153.93V259.738ZM162.978 260.318C162.978 261.382 163.805 262.435 165.331 262.843L164.772 263.767C163.649 263.46 162.844 262.805 162.398 261.962C161.979 262.918 161.168 263.67 160.013 264.014L159.455 263.09C160.969 262.628 161.786 261.489 161.786 260.318V260.265H159.755V259.319H161.786V258.202H162.989V259.319H165.008V260.265H162.978V260.318ZM167.619 258.245V264.121H166.426V261.876H164.718V260.909H166.426V258.245H167.619ZM164.332 264.314C166.383 264.314 167.651 264.97 167.651 266.119C167.651 267.279 166.383 267.945 164.332 267.945C162.291 267.945 161.023 267.279 161.034 266.119C161.023 264.97 162.291 264.314 164.332 264.314ZM164.332 265.228C162.978 265.238 162.215 265.539 162.215 266.119C162.215 266.699 162.978 267.021 164.332 267.021C165.707 267.021 166.458 266.699 166.458 266.119C166.458 265.539 165.707 265.238 164.332 265.228ZM172.166 258.857L169.663 268.171H168.46L170.973 258.857H172.166ZM178.109 259.266V260.2H176.1C176.122 261.038 176.89 261.785 178.324 262.069L177.851 262.993C176.739 262.762 175.95 262.241 175.52 261.543C175.096 262.306 174.301 262.88 173.157 263.122L172.652 262.198C174.108 261.914 174.881 261.092 174.897 260.2H172.899V259.266H174.908V258.267H176.1V259.266H178.109ZM180.397 258.256V267.945H179.215V258.256H180.397ZM172.287 263.627C174.091 263.627 176.508 263.616 178.582 263.358L178.668 264.218C177.83 264.363 176.96 264.454 176.111 264.508V267.655H174.908V264.572C174.022 264.61 173.178 264.615 172.437 264.615L172.287 263.627ZM190.326 265.786V266.753H181.453V265.786H185.256V263.541H186.437V265.786H190.326ZM186.469 259.545C186.469 261.017 187.941 262.467 189.982 262.789L189.467 263.777C187.823 263.466 186.48 262.526 185.836 261.253C185.191 262.521 183.859 263.477 182.226 263.777L181.711 262.789C183.741 262.467 185.191 261.006 185.202 259.545V258.836H186.469V259.545Z" fill="black"/>
<rect x="90.5" y="293.5" width="519" height="47" rx="5.5" fill="white"/>
<rect x="90.5" y="293.5" width="519" height="47" rx="5.5" stroke="#EEEEEE"/>
<rect x="317" y="309" width="26.6667" height="16" rx="8" fill="#00AEAE"/>
<circle cx="325" cy="317" r="5.33333" fill="#00AEAE"/>
<g filter="url(#filter1_d_283_2394)">
<circle cx="335.667" cy="317" r="5.33333" fill="white"/>
</g>
<path d="M120.185 317.691V318.658H118.025V321.956H116.812V318.658H114.663V321.956H113.438V318.658H111.312V317.691H120.185ZM115.727 312.589C117.789 312.6 119.229 313.438 119.229 314.759C119.229 316.059 117.789 316.886 115.727 316.886C113.653 316.886 112.235 316.059 112.246 314.759C112.235 313.438 113.653 312.6 115.727 312.589ZM115.727 313.556C114.352 313.556 113.46 313.996 113.471 314.759C113.46 315.5 114.352 315.94 115.727 315.94C117.102 315.94 117.993 315.5 117.993 314.759C117.993 313.996 117.102 313.556 115.727 313.556ZM128.631 312.256V319.378H127.439V316.972H125.129C124.662 317.493 123.974 317.81 123.195 317.81C121.734 317.81 120.628 316.757 120.628 315.328C120.628 313.878 121.734 312.836 123.195 312.836C123.969 312.836 124.651 313.147 125.118 313.663H127.439V312.256H128.631ZM128.878 320.796V321.763H122.261V318.647H123.453V320.796H128.878ZM123.195 313.899C122.358 313.899 121.767 314.458 121.767 315.328C121.767 316.188 122.358 316.746 123.195 316.746C123.99 316.746 124.592 316.188 124.603 315.328C124.592 314.458 123.99 313.899 123.195 313.899ZM125.645 314.63C125.704 314.85 125.741 315.081 125.741 315.328C125.741 315.564 125.709 315.79 125.655 316.005H127.439V314.63H125.645ZM137.464 312.804V313.609C137.464 314.426 137.464 315.366 137.249 316.596H138.549V317.573H129.676V316.596H136.035C136.256 315.425 136.272 314.555 136.272 313.771H130.772V312.804H137.464ZM137.743 320.785V321.752H130.825V318.497H132.007V320.785H137.743ZM147.715 317.745V318.712H143.848V321.945H142.666V318.712H138.842V317.745H147.715ZM146.63 312.739V316.606H139.927V312.739H146.63ZM141.098 313.695V315.672H145.438V313.695H141.098ZM150.89 318.035C150.89 316.016 151.492 314.329 152.501 312.89H153.79C153.049 313.953 152.308 316.112 152.308 318.035C152.308 319.958 153.049 322.117 153.79 323.191H152.501C151.492 321.741 150.89 320.065 150.89 318.035ZM162.516 312.245V321.956H161.377V317.036H160.378V321.483H159.25V312.417H160.378V316.048H161.377V312.245H162.516ZM157.113 314.727C157.113 316.456 157.693 318.046 159.132 318.787L158.434 319.7C157.51 319.206 156.903 318.352 156.565 317.294C156.232 318.502 155.625 319.475 154.664 320.044L153.933 319.131C155.373 318.314 155.953 316.617 155.953 314.727V314.265H154.223V313.309H158.703V314.265H157.113V314.727ZM167.45 312.922V313.878H164.786V314.823H167.353V315.736H164.786V316.757C165.973 316.746 166.794 316.698 167.74 316.521L167.869 317.487C166.73 317.702 165.785 317.734 164.281 317.734H163.636V312.922H167.45ZM171.575 312.256V318.164H170.436V315.64H169.426V318.089H168.309V312.438H169.426V314.684H170.436V312.256H171.575ZM171.575 318.594V321.956H170.382V319.561H164.925V318.594H171.575ZM175.95 312.857L173.447 322.171H172.244L174.757 312.857H175.95ZM184.203 312.256V319.604H183V318.755H181.098V317.917H183V312.256H184.203ZM184.428 320.796V321.763H177.306V318.895H178.499V320.796H184.428ZM176.017 316.617C177.811 316.606 180.217 316.585 182.28 316.327L182.344 317.187C181.544 317.321 180.717 317.412 179.895 317.466V319.335H178.703V317.53C177.795 317.568 176.93 317.573 176.168 317.573L176.017 316.617ZM179.186 312.61C180.604 312.61 181.592 313.309 181.603 314.329C181.592 315.371 180.604 316.037 179.186 316.037C177.747 316.037 176.759 315.371 176.759 314.329C176.759 313.309 177.747 312.61 179.186 312.61ZM179.186 313.491C178.413 313.491 177.886 313.803 177.886 314.329C177.886 314.855 178.413 315.167 179.186 315.167C179.927 315.167 180.454 314.855 180.465 314.329C180.454 313.803 179.927 313.491 179.186 313.491ZM190.404 312.868C190.404 313.223 190.372 313.556 190.318 313.878H192.177V312.256H193.369V318.024H192.177V316.896H189.846V315.93H192.177V314.834H190.017C189.362 316.343 187.907 317.412 185.817 317.971L185.366 317.015C187.606 316.424 188.922 315.269 189.126 313.846H185.892V312.868H190.404ZM193.369 318.433V321.924H192.177V319.378H186.752V318.433H193.369ZM202.202 312.804V313.609C202.202 314.426 202.202 315.366 201.987 316.596H203.287V317.573H194.414V316.596H200.773C200.994 315.425 201.01 314.555 201.01 313.771H195.51V312.804H202.202ZM202.481 320.785V321.752H195.563V318.497H196.745V320.785H202.481ZM212.453 317.745V318.712H208.586V321.945H207.404V318.712H203.58V317.745H212.453ZM211.368 312.739V316.606H204.665V312.739H211.368ZM205.836 313.695V315.672H210.176V313.695H205.836ZM215.657 318.035C215.657 320.065 215.056 321.741 214.046 323.191H212.757C213.498 322.117 214.239 319.958 214.239 318.035C214.239 316.112 213.498 313.953 212.757 312.89H214.046C215.056 314.329 215.657 316.016 215.657 318.035ZM226.921 312.256V319.346H225.718V312.256H226.921ZM227.19 320.796V321.763H220.497V318.669H221.7V320.796H227.19ZM222.452 313.738C222.452 315.092 223.247 316.37 224.783 316.886L224.171 317.831C223.065 317.444 222.275 316.671 221.851 315.683C221.41 316.741 220.61 317.589 219.466 318.003L218.843 317.058C220.422 316.499 221.217 315.135 221.217 313.738V312.793H222.452V313.738ZM231.5 314.318C231.5 315.382 232.327 316.435 233.853 316.843L233.294 317.767C232.172 317.46 231.366 316.805 230.92 315.962C230.501 316.918 229.69 317.67 228.535 318.014L227.977 317.09C229.491 316.628 230.308 315.489 230.308 314.318V314.265H228.278V313.319H230.308V312.202H231.511V313.319H233.531V314.265H231.5V314.318ZM236.141 312.245V318.121H234.949V315.876H233.241V314.909H234.949V312.245H236.141ZM232.854 318.314C234.906 318.314 236.173 318.97 236.173 320.119C236.173 321.279 234.906 321.945 232.854 321.945C230.813 321.945 229.545 321.279 229.556 320.119C229.545 318.97 230.813 318.314 232.854 318.314ZM232.854 319.228C231.5 319.238 230.738 319.539 230.738 320.119C230.738 320.699 231.5 321.021 232.854 321.021C234.229 321.021 234.981 320.699 234.981 320.119C234.981 319.539 234.229 319.238 232.854 319.228ZM240.688 312.857L238.185 322.171H236.982L239.495 312.857H240.688ZM246.631 313.266V314.2H244.622C244.644 315.038 245.412 315.785 246.846 316.069L246.373 316.993C245.262 316.762 244.472 316.241 244.042 315.543C243.618 316.306 242.823 316.88 241.679 317.122L241.174 316.198C242.63 315.914 243.403 315.092 243.419 314.2H241.421V313.266H243.43V312.267H244.622V313.266H246.631ZM248.919 312.256V321.945H247.738V312.256H248.919ZM240.809 317.627C242.614 317.627 245.031 317.616 247.104 317.358L247.19 318.218C246.352 318.363 245.482 318.454 244.633 318.508V321.655H243.43V318.572C242.544 318.61 241.701 318.615 240.959 318.615L240.809 317.627ZM258.848 319.786V320.753H249.975V319.786H253.778V317.541H254.959V319.786H258.848ZM254.992 313.545C254.992 315.017 256.463 316.467 258.504 316.789L257.989 317.777C256.345 317.466 255.002 316.526 254.358 315.253C253.713 316.521 252.381 317.477 250.749 317.777L250.233 316.789C252.263 316.467 253.713 315.006 253.724 313.545V312.836H254.992V313.545Z" fill="black"/>
<rect x="90.5" y="347.5" width="519" height="47" rx="5.5" fill="white"/>
<rect x="90.5" y="347.5" width="519" height="47" rx="5.5" stroke="#EEEEEE"/>
<rect x="317" y="363" width="26.6667" height="16" rx="8" fill="#00AEAE"/>
<circle cx="325" cy="371" r="5.33333" fill="#00AEAE"/>
<g filter="url(#filter2_d_283_2394)">
<circle cx="335.667" cy="371" r="5.33333" fill="white"/>
</g>
<path d="M120.185 371.691V372.658H118.025V375.956H116.812V372.658H114.663V375.956H113.438V372.658H111.312V371.691H120.185ZM115.727 366.589C117.789 366.6 119.229 367.438 119.229 368.759C119.229 370.059 117.789 370.886 115.727 370.886C113.653 370.886 112.235 370.059 112.246 368.759C112.235 367.438 113.653 366.6 115.727 366.589ZM115.727 367.556C114.352 367.556 113.46 367.996 113.471 368.759C113.46 369.5 114.352 369.94 115.727 369.94C117.102 369.94 117.993 369.5 117.993 368.759C117.993 367.996 117.102 367.556 115.727 367.556ZM128.631 366.256V373.378H127.439V370.972H125.129C124.662 371.493 123.974 371.81 123.195 371.81C121.734 371.81 120.628 370.757 120.628 369.328C120.628 367.878 121.734 366.836 123.195 366.836C123.969 366.836 124.651 367.147 125.118 367.663H127.439V366.256H128.631ZM128.878 374.796V375.763H122.261V372.647H123.453V374.796H128.878ZM123.195 367.899C122.358 367.899 121.767 368.458 121.767 369.328C121.767 370.188 122.358 370.746 123.195 370.746C123.99 370.746 124.592 370.188 124.603 369.328C124.592 368.458 123.99 367.899 123.195 367.899ZM125.645 368.63C125.704 368.85 125.741 369.081 125.741 369.328C125.741 369.564 125.709 369.79 125.655 370.005H127.439V368.63H125.645ZM137.464 366.804V367.609C137.464 368.426 137.464 369.366 137.249 370.596H138.549V371.573H129.676V370.596H136.035C136.256 369.425 136.272 368.555 136.272 367.771H130.772V366.804H137.464ZM137.743 374.785V375.752H130.825V372.497H132.007V374.785H137.743ZM147.715 371.745V372.712H143.848V375.945H142.666V372.712H138.842V371.745H147.715ZM146.63 366.739V370.606H139.927V366.739H146.63ZM141.098 367.695V369.672H145.438V367.695H141.098ZM150.89 372.035C150.89 370.016 151.492 368.329 152.501 366.89H153.79C153.049 367.953 152.308 370.112 152.308 372.035C152.308 373.958 153.049 376.117 153.79 377.191H152.501C151.492 375.741 150.89 374.065 150.89 372.035ZM157.768 368.576C157.757 370.359 158.692 372.143 160.271 372.819L159.562 373.775C158.445 373.26 157.623 372.229 157.177 370.961C156.731 372.331 155.899 373.448 154.717 374.001L153.987 373.002C155.609 372.304 156.554 370.445 156.554 368.576V367.029H157.768V368.576ZM162.172 366.245V375.967H160.969V366.245H162.172ZM166.687 369.328C166.687 370.768 167.503 372.336 168.997 373.045L168.331 373.947C167.283 373.458 166.521 372.497 166.118 371.358C165.688 372.583 164.888 373.62 163.776 374.119L163.121 373.195C164.646 372.508 165.505 370.854 165.505 369.328V368.823H163.432V367.867H165.505V366.449H166.698V367.867H168.739V368.823H166.687V369.328ZM170.877 366.245V370.091H172.37V371.09H170.877V375.956H169.684V366.245H170.877ZM181.278 370.445V371.326H177.454V372.035H180.193V374.312H174.672V374.979H180.462V375.87H173.501V373.496H179.022V372.895H173.49V372.035H176.272V371.326H172.469V370.445H181.278ZM177.454 366.224V367.04H180.429V367.932H177.583C177.814 368.619 178.942 369.135 180.881 369.231L180.526 370.123C178.786 370.016 177.475 369.543 176.863 368.759C176.251 369.543 174.945 370.016 173.189 370.123L172.856 369.231C174.774 369.135 175.902 368.619 176.154 367.932H173.318V367.04H176.272V366.224H177.454ZM187.458 370.778V371.724H185.449V373.066C186.292 373.018 187.141 372.943 187.941 372.83L188.038 373.689C185.857 374.119 183.526 374.119 181.818 374.13L181.668 373.152C182.425 373.147 183.317 373.142 184.257 373.109V371.724H182.377V367.072H187.426V368.028H183.58V368.931H187.232V369.854H183.58V370.778H187.458ZM189.714 366.245V375.967H188.521V366.245H189.714ZM198.59 366.804V367.609C198.59 368.426 198.59 369.366 198.375 370.596H199.675V371.573H190.802V370.596H197.161C197.381 369.425 197.397 368.555 197.397 367.771H191.897V366.804H198.59ZM198.869 374.785V375.752H191.951V372.497H193.133V374.785H198.869ZM202.868 372.035C202.868 374.065 202.266 375.741 201.257 377.191H199.968C200.709 376.117 201.45 373.958 201.45 372.035C201.45 370.112 200.709 367.953 199.968 366.89H201.257C202.266 368.329 202.868 370.016 202.868 372.035ZM214.132 366.256V373.346H212.929V366.256H214.132ZM214.4 374.796V375.763H207.708V372.669H208.911V374.796H214.4ZM209.663 367.738C209.663 369.092 210.458 370.37 211.994 370.886L211.382 371.831C210.275 371.444 209.486 370.671 209.062 369.683C208.621 370.741 207.821 371.589 206.677 372.003L206.054 371.058C207.633 370.499 208.428 369.135 208.428 367.738V366.793H209.663V367.738ZM218.711 368.318C218.711 369.382 219.538 370.435 221.064 370.843L220.505 371.767C219.382 371.46 218.577 370.805 218.131 369.962C217.712 370.918 216.901 371.67 215.746 372.014L215.188 371.09C216.702 370.628 217.519 369.489 217.519 368.318V368.265H215.488V367.319H217.519V366.202H218.722V367.319H220.741V368.265H218.711V368.318ZM223.352 366.245V372.121H222.159V369.876H220.451V368.909H222.159V366.245H223.352ZM220.065 372.314C222.116 372.314 223.384 372.97 223.384 374.119C223.384 375.279 222.116 375.945 220.065 375.945C218.024 375.945 216.756 375.279 216.767 374.119C216.756 372.97 218.024 372.314 220.065 372.314ZM220.065 373.228C218.711 373.238 217.948 373.539 217.948 374.119C217.948 374.699 218.711 375.021 220.065 375.021C221.44 375.021 222.192 374.699 222.192 374.119C222.192 373.539 221.44 373.238 220.065 373.228ZM227.899 366.857L225.396 376.171H224.193L226.706 366.857H227.899ZM233.842 367.266V368.2H231.833C231.855 369.038 232.623 369.785 234.057 370.069L233.584 370.993C232.472 370.762 231.683 370.241 231.253 369.543C230.829 370.306 230.034 370.88 228.89 371.122L228.385 370.198C229.841 369.914 230.614 369.092 230.63 368.2H228.632V367.266H230.641V366.267H231.833V367.266H233.842ZM236.13 366.256V375.945H234.949V366.256H236.13ZM228.02 371.627C229.824 371.627 232.241 371.616 234.315 371.358L234.401 372.218C233.563 372.363 232.693 372.454 231.844 372.508V375.655H230.641V372.572C229.755 372.61 228.911 372.615 228.17 372.615L228.02 371.627ZM246.059 373.786V374.753H237.186V373.786H240.989V371.541H242.17V373.786H246.059ZM242.202 367.545C242.202 369.017 243.674 370.467 245.715 370.789L245.2 371.777C243.556 371.466 242.213 370.526 241.569 369.253C240.924 370.521 239.592 371.477 237.959 371.777L237.444 370.789C239.474 370.467 240.924 369.006 240.935 367.545V366.836H242.202V367.545Z" fill="black"/>
<rect x="90.5" y="401.5" width="519" height="47" rx="5.5" fill="white"/>
<rect x="90.5" y="401.5" width="519" height="47" rx="5.5" stroke="#EEEEEE"/>
<rect x="317" y="417" width="26.6667" height="16" rx="8" fill="#00AEAE"/>
<circle cx="325" cy="425" r="5.33333" fill="#00AEAE"/>
<g filter="url(#filter3_d_283_2394)">
<circle cx="335.667" cy="425" r="5.33333" fill="white"/>
</g>
<path d="M120.185 425.691V426.658H118.025V429.956H116.812V426.658H114.663V429.956H113.438V426.658H111.312V425.691H120.185ZM115.727 420.589C117.789 420.6 119.229 421.438 119.229 422.759C119.229 424.059 117.789 424.886 115.727 424.886C113.653 424.886 112.235 424.059 112.246 422.759C112.235 421.438 113.653 420.6 115.727 420.589ZM115.727 421.556C114.352 421.556 113.46 421.996 113.471 422.759C113.46 423.5 114.352 423.94 115.727 423.94C117.102 423.94 117.993 423.5 117.993 422.759C117.993 421.996 117.102 421.556 115.727 421.556ZM128.631 420.256V427.378H127.439V424.972H125.129C124.662 425.493 123.974 425.81 123.195 425.81C121.734 425.81 120.628 424.757 120.628 423.328C120.628 421.878 121.734 420.836 123.195 420.836C123.969 420.836 124.651 421.147 125.118 421.663H127.439V420.256H128.631ZM128.878 428.796V429.763H122.261V426.647H123.453V428.796H128.878ZM123.195 421.899C122.358 421.899 121.767 422.458 121.767 423.328C121.767 424.188 122.358 424.746 123.195 424.746C123.99 424.746 124.592 424.188 124.603 423.328C124.592 422.458 123.99 421.899 123.195 421.899ZM125.645 422.63C125.704 422.85 125.741 423.081 125.741 423.328C125.741 423.564 125.709 423.79 125.655 424.005H127.439V422.63H125.645ZM137.464 420.804V421.609C137.464 422.426 137.464 423.366 137.249 424.596H138.549V425.573H129.676V424.596H136.035C136.256 423.425 136.272 422.555 136.272 421.771H130.772V420.804H137.464ZM137.743 428.785V429.752H130.825V426.497H132.007V428.785H137.743ZM147.715 425.745V426.712H143.848V429.945H142.666V426.712H138.842V425.745H147.715ZM146.63 420.739V424.606H139.927V420.739H146.63ZM141.098 421.695V423.672H145.438V421.695H141.098ZM150.89 426.035C150.89 424.016 151.492 422.329 152.501 420.89H153.79C153.049 421.953 152.308 424.112 152.308 426.035C152.308 427.958 153.049 430.117 153.79 431.191H152.501C151.492 429.741 150.89 428.065 150.89 426.035ZM161.882 420.804V421.609C161.882 422.426 161.882 423.366 161.667 424.596H162.967V425.573H154.094V424.596H160.454C160.674 423.425 160.69 422.555 160.69 421.771H155.19V420.804H161.882ZM162.162 428.785V429.752H155.244V426.497H156.425V428.785H162.162ZM172.144 427.84V428.828H163.271V427.84H167.095V426.261H164.324V423.081H169.91V421.878H164.302V420.911H171.091V424.026H165.516V425.283H171.317V426.261H168.277V427.84H172.144ZM176.122 422.576C176.111 424.359 177.046 426.143 178.625 426.819L177.916 427.775C176.798 427.26 175.977 426.229 175.531 424.961C175.085 426.331 174.253 427.448 173.071 428.001L172.34 427.002C173.963 426.304 174.908 424.445 174.908 422.576V421.029H176.122V422.576ZM180.526 420.245V429.967H179.323V420.245H180.526ZM189.284 420.245V423.038H190.637V424.037H189.284V427.249H188.07V420.245H189.284ZM186.641 420.986C186.641 423.564 184.966 425.401 182.087 426.239L181.592 425.294C183.811 424.655 185.132 423.446 185.342 421.964H182.001V420.986H186.641ZM189.649 428.796V429.763H183.043V426.529H184.257V428.796H189.649ZM198.461 420.245V422.974H199.825V423.962H198.461V427.271H197.268V420.245H198.461ZM195.56 421.051V422.007H192.391V424.649C194.218 424.655 195.233 424.59 196.387 424.349L196.516 425.315C195.249 425.562 194.11 425.627 191.994 425.627H191.21V421.051H195.56ZM198.847 428.796V429.763H192.241V426.529H193.433V428.796H198.847ZM208.83 425.058V426.014H204.984V426.938H207.745V429.935H206.553V427.894H200.956V426.938H203.803V426.014H199.978V425.058H208.83ZM204.984 420.234V421.158H207.96V422.093H205.07C205.199 422.92 206.338 423.597 208.39 423.747L208.014 424.649C206.284 424.504 205 423.967 204.393 423.124C203.787 423.967 202.497 424.504 200.773 424.649L200.397 423.747C202.428 423.597 203.577 422.92 203.717 422.093H200.849V421.158H203.803V420.234H204.984ZM212.045 426.035C212.045 428.065 211.443 429.741 210.434 431.191H209.144C209.886 430.117 210.627 427.958 210.627 426.035C210.627 424.112 209.886 421.953 209.144 420.89H210.434C211.443 422.329 212.045 424.016 212.045 426.035ZM223.309 420.256V427.346H222.106V420.256H223.309ZM223.577 428.796V429.763H216.885V426.669H218.088V428.796H223.577ZM218.84 421.738C218.84 423.092 219.635 424.37 221.171 424.886L220.559 425.831C219.452 425.444 218.663 424.671 218.238 423.683C217.798 424.741 216.998 425.589 215.854 426.003L215.231 425.058C216.81 424.499 217.605 423.135 217.605 421.738V420.793H218.84V421.738ZM227.888 422.318C227.888 423.382 228.715 424.435 230.24 424.843L229.682 425.767C228.559 425.46 227.754 424.805 227.308 423.962C226.889 424.918 226.078 425.67 224.923 426.014L224.364 425.09C225.879 424.628 226.696 423.489 226.696 422.318V422.265H224.665V421.319H226.696V420.202H227.899V421.319H229.918V422.265H227.888V422.318ZM232.529 420.245V426.121H231.336V423.876H229.628V422.909H231.336V420.245H232.529ZM229.241 426.314C231.293 426.314 232.561 426.97 232.561 428.119C232.561 429.279 231.293 429.945 229.241 429.945C227.2 429.945 225.933 429.279 225.944 428.119C225.933 426.97 227.2 426.314 229.241 426.314ZM229.241 427.228C227.888 427.238 227.125 427.539 227.125 428.119C227.125 428.699 227.888 429.021 229.241 429.021C230.616 429.021 231.368 428.699 231.368 428.119C231.368 427.539 230.616 427.238 229.241 427.228ZM237.075 420.857L234.573 430.171H233.369L235.883 420.857H237.075ZM243.019 421.266V422.2H241.01C241.032 423.038 241.8 423.785 243.234 424.069L242.761 424.993C241.649 424.762 240.86 424.241 240.43 423.543C240.006 424.306 239.211 424.88 238.067 425.122L237.562 424.198C239.017 423.914 239.791 423.092 239.807 422.2H237.809V421.266H239.818V420.267H241.01V421.266H243.019ZM245.307 420.256V429.945H244.125V420.256H245.307ZM237.197 425.627C239.001 425.627 241.418 425.616 243.492 425.358L243.577 426.218C242.74 426.363 241.869 426.454 241.021 426.508V429.655H239.818V426.572C238.932 426.61 238.088 426.615 237.347 426.615L237.197 425.627ZM255.236 427.786V428.753H246.363V427.786H250.165V425.541H251.347V427.786H255.236ZM251.379 421.545C251.379 423.017 252.851 424.467 254.892 424.789L254.376 425.777C252.733 425.466 251.39 424.526 250.746 423.253C250.101 424.521 248.769 425.477 247.136 425.777L246.621 424.789C248.651 424.467 250.101 423.006 250.112 421.545V420.836H251.379V421.545Z" fill="black"/>
<rect x="90.5" y="455.5" width="519" height="47" rx="5.5" fill="white"/>
<rect x="90.5" y="455.5" width="519" height="47" rx="5.5" stroke="#EEEEEE"/>
<rect x="317" y="471" width="26.6667" height="16" rx="8" fill="#00AEAE"/>
<circle cx="325" cy="479" r="5.33333" fill="#00AEAE"/>
<g filter="url(#filter4_d_283_2394)">
<circle cx="335.667" cy="479" r="5.33333" fill="white"/>
</g>
<path d="M120.152 478.445V479.326H116.328V480.035H119.067V482.312H113.546V482.979H119.336V483.87H112.375V481.496H117.896V480.895H112.364V480.035H115.146V479.326H111.344V478.445H120.152ZM116.328 474.224V475.04H119.304V475.932H116.457C116.688 476.619 117.816 477.135 119.755 477.231L119.4 478.123C117.66 478.016 116.35 477.543 115.737 476.759C115.125 477.543 113.82 478.016 112.063 478.123L111.73 477.231C113.648 477.135 114.776 476.619 115.028 475.932H112.192V475.04H115.146V474.224H116.328ZM123.98 475.996C123.98 477.188 124.753 478.306 126.268 478.768L125.698 479.702C124.608 479.364 123.835 478.671 123.41 477.79C122.981 478.811 122.159 479.622 120.993 480.014L120.392 479.068C121.96 478.553 122.776 477.296 122.776 476.007V475.889H120.725V474.922H125.999V475.889H123.98V475.996ZM128.158 474.245V476.576H129.512V477.554H128.158V480.035H126.966V474.245H128.158ZM125 480.25C127.009 480.25 128.244 480.927 128.255 482.087C128.244 483.258 127.009 483.945 125 483.945C122.97 483.945 121.713 483.258 121.713 482.087C121.713 480.927 122.97 480.25 125 480.25ZM125 481.185C123.668 481.185 122.905 481.496 122.905 482.087C122.905 482.688 123.668 483.011 125 483.011C126.332 483.011 127.073 482.688 127.073 482.087C127.073 481.496 126.332 481.185 125 481.185ZM133.178 474.857L130.675 484.171H129.472L131.986 474.857H133.178ZM136.436 474.847C137.972 474.847 139.1 475.813 139.111 477.188C139.1 478.386 138.257 479.262 137.037 479.477V480.895C137.902 480.852 138.778 480.776 139.605 480.658L139.701 481.518C137.521 481.926 135.19 481.947 133.482 481.947L133.331 480.97C134.073 480.97 134.937 480.97 135.845 480.938V479.477C134.626 479.267 133.772 478.386 133.772 477.188C133.772 475.813 134.91 474.847 136.436 474.847ZM136.436 475.878C135.587 475.878 134.953 476.372 134.953 477.188C134.953 477.994 135.587 478.51 136.436 478.51C137.295 478.51 137.94 477.994 137.94 477.188C137.94 476.372 137.295 475.878 136.436 475.878ZM141.377 474.245V483.967H140.185V474.245H141.377ZM150.253 474.804V475.609C150.253 476.426 150.253 477.366 150.038 478.596H151.338V479.573H142.465V478.596H148.825C149.045 477.425 149.061 476.555 149.061 475.771H143.561V474.804H150.253ZM150.533 482.785V483.752H143.615V480.497H144.796V482.785H150.533ZM162.011 474.256V481.346H160.808V474.256H162.011ZM162.28 482.796V483.763H155.587V480.669H156.791V482.796H162.28ZM157.542 475.738C157.542 477.092 158.337 478.37 159.874 478.886L159.261 479.831C158.155 479.444 157.365 478.671 156.941 477.683C156.5 478.741 155.7 479.589 154.556 480.003L153.933 479.058C155.512 478.499 156.307 477.135 156.307 475.738V474.793H157.542V475.738ZM166.59 476.318C166.59 477.382 167.418 478.435 168.943 478.843L168.384 479.767C167.262 479.46 166.456 478.805 166.01 477.962C165.591 478.918 164.78 479.67 163.626 480.014L163.067 479.09C164.582 478.628 165.398 477.489 165.398 476.318V476.265H163.368V475.319H165.398V474.202H166.601V475.319H168.621V476.265H166.59V476.318ZM171.231 474.245V480.121H170.039V477.876H168.331V476.909H170.039V474.245H171.231ZM167.944 480.314C169.996 480.314 171.263 480.97 171.263 482.119C171.263 483.279 169.996 483.945 167.944 483.945C165.903 483.945 164.635 483.279 164.646 482.119C164.635 480.97 165.903 480.314 167.944 480.314ZM167.944 481.228C166.59 481.238 165.828 481.539 165.828 482.119C165.828 482.699 166.59 483.021 167.944 483.021C169.319 483.021 170.071 482.699 170.071 482.119C170.071 481.539 169.319 481.238 167.944 481.228ZM175.778 474.857L173.275 484.171H172.072L174.586 474.857H175.778ZM181.721 475.266V476.2H179.713C179.734 477.038 180.502 477.785 181.936 478.069L181.464 478.993C180.352 478.762 179.562 478.241 179.133 477.543C178.708 478.306 177.913 478.88 176.769 479.122L176.264 478.198C177.72 477.914 178.493 477.092 178.509 476.2H176.511V475.266H178.52V474.267H179.713V475.266H181.721ZM184.009 474.256V483.945H182.828V474.256H184.009ZM175.899 479.627C177.704 479.627 180.121 479.616 182.194 479.358L182.28 480.218C181.442 480.363 180.572 480.454 179.723 480.508V483.655H178.52V480.572C177.634 480.61 176.791 480.615 176.05 480.615L175.899 479.627ZM193.938 481.786V482.753H185.065V481.786H188.868V479.541H190.05V481.786H193.938ZM190.082 475.545C190.082 477.017 191.554 478.467 193.595 478.789L193.079 479.777C191.435 479.466 190.093 478.526 189.448 477.253C188.804 478.521 187.471 479.477 185.839 479.777L185.323 478.789C187.353 478.467 188.804 477.006 188.814 475.545V474.836H190.082V475.545Z" fill="black"/>
<path d="M99.0586 118.543V126.184H98.1328V122.188H95.9883V121.426H98.1328V118.543H99.0586ZM99.3516 127.953V128.727H92.3672V125.492H93.293V127.953H99.3516ZM94.043 120.688C94.043 122.035 95.0859 123.348 96.6094 123.863L96.1289 124.602C94.9512 124.18 94.043 123.301 93.5977 122.223C93.1465 123.424 92.1855 124.385 90.9492 124.848L90.4688 124.098C92.0039 123.559 93.1172 122.188 93.1172 120.688V120.148H90.7617V119.387H96.375V120.148H94.043V120.688ZM103.96 121.73C103.949 123.406 105.156 125.246 106.667 125.961L106.14 126.688C104.968 126.119 103.978 124.877 103.515 123.465C103.035 125 101.986 126.348 100.82 126.945L100.257 126.219C101.757 125.492 103.046 123.512 103.058 121.73V120.371H100.632V119.609H106.304V120.371H103.96V121.73ZM108.495 118.531V122.75H110.242V123.535H108.495V128.949H107.581V118.531H108.495ZM119.081 118.531V123.863H118.155V122.773H115.378V122.047H118.155V120.793H115.53C114.874 122.439 113.257 123.547 110.948 124.098L110.62 123.336C113.175 122.744 114.663 121.496 114.839 119.82H111.147V119.059H115.846C115.846 119.404 115.811 119.738 115.753 120.055H118.155V118.531H119.081ZM119.081 124.332V126.875H113.268V128.094H119.432V128.855H112.354V126.172H118.155V125.082H112.331V124.332H119.081ZM129.408 118.531V128.949H128.518V123.535H127.1V128.422H126.221V118.754H127.1V122.75H128.518V118.531H129.408ZM123.537 121.379C123.537 123.289 124.322 124.965 125.811 125.727L125.26 126.441C124.205 125.867 123.484 124.836 123.115 123.559C122.758 125.012 122.025 126.148 120.924 126.793L120.35 126.09C121.85 125.27 122.647 123.488 122.647 121.379V120.547H120.596V119.773H125.471V120.547H123.537V121.379ZM139.419 118.531V128.949H138.529V123.535H137.111V128.422H136.232V118.754H137.111V122.75H138.529V118.531H139.419ZM133.548 121.379C133.548 123.289 134.333 124.965 135.822 125.727L135.271 126.441C134.216 125.867 133.496 124.836 133.126 123.559C132.769 125.012 132.037 126.148 130.935 126.793L130.361 126.09C131.861 125.27 132.658 123.488 132.658 121.379V120.547H130.607V119.773H135.482V120.547H133.548V121.379ZM150.005 123.371V124.098H140.466V123.371H150.005ZM148.809 124.93V127.145H142.552V128.141H149.149V128.809H141.626V126.512H147.895V125.621H141.614V124.93H148.809ZM148.774 118.848V121.004H142.622V121.918H148.962V122.586H141.708V120.371H147.848V119.516H141.673V118.848H148.774ZM156.761 120.453C156.761 121.812 157.804 123.102 159.328 123.629L158.847 124.355C157.669 123.934 156.761 123.061 156.316 121.988C155.865 123.189 154.904 124.15 153.667 124.602L153.187 123.875C154.722 123.324 155.835 121.93 155.835 120.465V120.008H153.48V119.258H159.093V120.008H156.761V120.453ZM161.777 125.328V128.949H160.851V126.09H154.769V125.328H161.777ZM161.777 118.531V124.777H160.851V122.035H158.765V121.262H160.851V118.531H161.777ZM172.643 123.688V124.449H163.151V123.688H165.507V122.223C164.675 121.9 164.206 121.367 164.206 120.664C164.206 119.434 165.612 118.73 167.897 118.73C170.159 118.73 171.577 119.434 171.577 120.664C171.577 121.361 171.114 121.895 170.288 122.211V123.688H172.643ZM167.897 125.246C170.136 125.246 171.472 125.891 171.483 127.086C171.472 128.27 170.136 128.926 167.897 128.926C165.636 128.926 164.3 128.27 164.3 127.086C164.3 125.891 165.636 125.246 167.897 125.246ZM167.897 125.949C166.222 125.961 165.225 126.371 165.237 127.086C165.225 127.789 166.222 128.211 167.897 128.211C169.55 128.211 170.558 127.789 170.558 127.086C170.558 126.371 169.55 125.961 167.897 125.949ZM167.897 119.457C166.198 119.457 165.143 119.914 165.155 120.664C165.143 121.426 166.198 121.871 167.897 121.871C169.585 121.871 170.64 121.426 170.64 120.664C170.64 119.914 169.585 119.457 167.897 119.457ZM166.421 123.688H169.374V122.469C168.934 122.545 168.442 122.586 167.897 122.586C167.352 122.586 166.86 122.545 166.421 122.469V123.688ZM181.307 118.496V121.027H182.889V121.789H181.307V124.262H180.393V118.496H181.307ZM181.307 124.801V127.109H175.588V128.129H181.694V128.832H174.686V126.43H180.393V125.492H174.662V124.801H181.307ZM179.397 119.48V120.219H173.186V119.48H175.834V118.426H176.748V119.48H179.397ZM176.291 120.688C177.803 120.688 178.787 121.344 178.799 122.398C178.787 123.453 177.803 124.109 176.291 124.109C174.768 124.109 173.772 123.453 173.783 122.398C173.772 121.344 174.768 120.688 176.291 120.688ZM176.291 121.367C175.307 121.367 174.651 121.777 174.662 122.398C174.651 123.031 175.307 123.418 176.291 123.418C177.276 123.418 177.92 123.031 177.932 122.398C177.92 121.777 177.276 121.367 176.291 121.367ZM188.696 119.023C190.097 119.012 191.157 119.826 191.356 121.027H193.536V118.531H194.462V124.121H193.536V121.789H191.368C191.181 123.02 190.108 123.84 188.696 123.84C187.114 123.84 185.989 122.855 185.989 121.426C185.989 120.008 187.114 119.012 188.696 119.023ZM188.696 119.809C187.63 119.797 186.868 120.465 186.868 121.426C186.868 122.375 187.63 123.066 188.696 123.066C189.751 123.066 190.501 122.375 190.501 121.426C190.501 120.465 189.751 119.797 188.696 119.809ZM188.673 124.648V125.973H193.536V124.648H194.462V128.809H187.747V124.648H188.673ZM188.673 128.059H193.536V126.711H188.673V128.059ZM205.364 124.59V125.352H201.016V128.949H200.114V125.352H195.825V124.59H205.364ZM204.121 119.117V123.172H197.055V119.117H204.121ZM197.957 119.867V122.445H203.207V119.867H197.957ZM215.375 123.371V124.098H205.836V123.371H215.375ZM214.179 124.93V127.145H207.922V128.141H214.519V128.809H206.996V126.512H213.265V125.621H206.984V124.93H214.179ZM214.144 118.848V121.004H207.992V121.918H214.332V122.586H207.078V120.371H213.218V119.516H207.043V118.848H214.144ZM222.237 121.73C222.237 123.5 223.526 125.293 225.061 125.961L224.545 126.688C223.327 126.131 222.272 124.93 221.791 123.488C221.299 125.018 220.25 126.348 219.061 126.945L218.51 126.219C219.998 125.504 221.299 123.535 221.311 121.73V120.371H218.85V119.609H224.721V120.371H222.237V121.73ZM227.1 118.531V128.949H226.174V118.531H227.1ZM237.158 118.531V124.742H236.232V122.012H234.135V121.25H236.232V118.531H237.158ZM233.701 125.07C235.869 125.07 237.193 125.773 237.193 127.004C237.193 128.234 235.869 128.938 233.701 128.949C231.533 128.938 230.209 128.234 230.209 127.004C230.209 125.773 231.533 125.07 233.701 125.07ZM233.701 125.785C232.107 125.785 231.111 126.242 231.123 127.004C231.111 127.754 232.107 128.211 233.701 128.211C235.295 128.211 236.279 127.754 236.279 127.004C236.279 126.242 235.295 125.785 233.701 125.785ZM232.142 120.441C232.142 121.801 233.185 123.09 234.709 123.617L234.228 124.355C233.056 123.934 232.148 123.061 231.709 121.977C231.252 123.201 230.285 124.18 229.049 124.648L228.568 123.91C230.115 123.348 231.217 121.941 231.217 120.453V120.066H228.861V119.293H234.474V120.066H232.142V120.441ZM246.677 118.496V121.027H248.259V121.789H246.677V124.262H245.763V118.496H246.677ZM246.677 124.801V127.109H240.958V128.129H247.064V128.832H240.056V126.43H245.763V125.492H240.032V124.801H246.677ZM244.767 119.48V120.219H238.556V119.48H241.204V118.426H242.118V119.48H244.767ZM241.661 120.688C243.173 120.688 244.157 121.344 244.169 122.398C244.157 123.453 243.173 124.109 241.661 124.109C240.138 124.109 239.142 123.453 239.153 122.398C239.142 121.344 240.138 120.688 241.661 120.688ZM241.661 121.367C240.677 121.367 240.021 121.777 240.032 122.398C240.021 123.031 240.677 123.418 241.661 123.418C242.646 123.418 243.29 123.031 243.302 122.398C243.29 121.777 242.646 121.367 241.661 121.367ZM256.422 119.504C256.422 120.969 258.344 122.246 260.219 122.504L259.844 123.254C258.226 122.984 256.627 122.088 255.953 120.805C255.285 122.094 253.68 122.984 252.062 123.254L251.687 122.504C253.562 122.246 255.473 120.992 255.473 119.504V118.906H256.422V119.504ZM260.687 124.402V125.176H256.375V128.949H255.473V125.176H251.195V124.402H260.687ZM267.385 125.527C267.385 126.447 267.878 127.426 268.874 127.988C269.858 127.373 270.385 126.336 270.385 125.527V124.953H271.288V125.527C271.288 126.594 272.073 127.672 273.409 128.129L272.952 128.809C271.909 128.439 271.176 127.713 270.819 126.84C270.497 127.684 269.858 128.48 268.897 128.891C267.883 128.504 267.239 127.736 266.928 126.863C266.559 127.707 265.838 128.434 264.842 128.809L264.374 128.129C265.686 127.637 266.483 126.523 266.495 125.527V124.953H267.385V125.527ZM272.46 118.543V124.496H271.545V118.543H272.46ZM266.835 119.152C268.417 119.152 269.565 120.137 269.565 121.59C269.565 123.02 268.417 124.004 266.835 124.004C265.253 124.004 264.104 123.02 264.104 121.59C264.104 120.137 265.253 119.152 266.835 119.152ZM266.835 119.938C265.768 119.926 264.995 120.617 265.006 121.59C264.995 122.551 265.768 123.23 266.835 123.242C267.889 123.23 268.663 122.551 268.663 121.59C268.663 120.617 267.889 119.926 266.835 119.938ZM276.67 119.34C278.088 119.352 279.107 120.564 279.26 122.516H281.592V118.531H282.506V128.973H281.592V123.277H279.271C279.16 125.316 278.123 126.594 276.67 126.594C275.135 126.594 274.057 125.188 274.057 122.973C274.057 120.758 275.135 119.352 276.67 119.34ZM276.67 120.16C275.639 120.172 274.935 121.273 274.935 122.973C274.935 124.672 275.639 125.773 276.67 125.773C277.689 125.773 278.404 124.672 278.404 122.973C278.404 121.273 277.689 120.172 276.67 120.16ZM293.419 126.84V127.613H283.88V126.84H286.247V124.027C285.357 123.564 284.818 122.814 284.818 121.871C284.818 120.254 286.4 119.199 288.626 119.188C290.853 119.199 292.435 120.254 292.435 121.871C292.435 122.797 291.913 123.541 291.052 124.004V126.84H293.419ZM288.626 119.949C286.915 119.938 285.708 120.711 285.708 121.871C285.708 123.031 286.915 123.816 288.626 123.816C290.325 123.816 291.544 123.031 291.544 121.871C291.544 120.711 290.325 119.938 288.626 119.949ZM287.15 126.84H290.126V124.355C289.675 124.479 289.171 124.543 288.626 124.543C288.093 124.543 287.595 124.484 287.15 124.367V126.84ZM294.993 128.07C294.583 128.07 294.231 127.73 294.243 127.309C294.231 126.898 294.583 126.559 294.993 126.559C295.403 126.559 295.743 126.898 295.743 127.309C295.743 127.73 295.403 128.07 294.993 128.07Z" fill="black" fill-opacity="0.54"/>
</g>
<defs>
<filter id="filter0_d_283_2394" x="329" y="257.667" width="13.3332" height="13.3332" filterUnits="userSpaceOnUse" color-interpolation-filters="sRGB">
<feFlood flood-opacity="0" result="BackgroundImageFix"/>
<feColorMatrix in="SourceAlpha" type="matrix" values="0 0 0 0 0 0 0 0 0 0 0 0 0 0 0 0 0 0 127 0" result="hardAlpha"/>
<feOffset dy="1.33333"/>
<feGaussianBlur stdDeviation="0.666667"/>
<feComposite in2="hardAlpha" operator="out"/>
<feColorMatrix type="matrix" values="0 0 0 0 0 0 0 0 0 0 0 0 0 0 0 0 0 0 0.1 0"/>
<feBlend mode="normal" in2="BackgroundImageFix" result="effect1_dropShadow_283_2394"/>
<feBlend mode="normal" in="SourceGraphic" in2="effect1_dropShadow_283_2394" result="shape"/>
</filter>
<filter id="filter1_d_283_2394" x="329" y="311.667" width="13.3332" height="13.3332" filterUnits="userSpaceOnUse" color-interpolation-filters="sRGB">
<feFlood flood-opacity="0" result="BackgroundImageFix"/>
<feColorMatrix in="SourceAlpha" type="matrix" values="0 0 0 0 0 0 0 0 0 0 0 0 0 0 0 0 0 0 127 0" result="hardAlpha"/>
<feOffset dy="1.33333"/>
<feGaussianBlur stdDeviation="0.666667"/>
<feComposite in2="hardAlpha" operator="out"/>
<feColorMatrix type="matrix" values="0 0 0 0 0 0 0 0 0 0 0 0 0 0 0 0 0 0 0.1 0"/>
<feBlend mode="normal" in2="BackgroundImageFix" result="effect1_dropShadow_283_2394"/>
<feBlend mode="normal" in="SourceGraphic" in2="effect1_dropShadow_283_2394" result="shape"/>
</filter>
<filter id="filter2_d_283_2394" x="329" y="365.667" width="13.3332" height="13.3332" filterUnits="userSpaceOnUse" color-interpolation-filters="sRGB">
<feFlood flood-opacity="0" result="BackgroundImageFix"/>
<feColorMatrix in="SourceAlpha" type="matrix" values="0 0 0 0 0 0 0 0 0 0 0 0 0 0 0 0 0 0 127 0" result="hardAlpha"/>
<feOffset dy="1.33333"/>
<feGaussianBlur stdDeviation="0.666667"/>
<feComposite in2="hardAlpha" operator="out"/>
<feColorMatrix type="matrix" values="0 0 0 0 0 0 0 0 0 0 0 0 0 0 0 0 0 0 0.1 0"/>
<feBlend mode="normal" in2="BackgroundImageFix" result="effect1_dropShadow_283_2394"/>
<feBlend mode="normal" in="SourceGraphic" in2="effect1_dropShadow_283_2394" result="shape"/>
</filter>
<filter id="filter3_d_283_2394" x="329" y="419.667" width="13.3332" height="13.3332" filterUnits="userSpaceOnUse" color-interpolation-filters="sRGB">
<feFlood flood-opacity="0" result="BackgroundImageFix"/>
<feColorMatrix in="SourceAlpha" type="matrix" values="0 0 0 0 0 0 0 0 0 0 0 0 0 0 0 0 0 0 127 0" result="hardAlpha"/>
<feOffset dy="1.33333"/>
<feGaussianBlur stdDeviation="0.666667"/>
<feComposite in2="hardAlpha" operator="out"/>
<feColorMatrix type="matrix" values="0 0 0 0 0 0 0 0 0 0 0 0 0 0 0 0 0 0 0.1 0"/>
<feBlend mode="normal" in2="BackgroundImageFix" result="effect1_dropShadow_283_2394"/>
<feBlend mode="normal" in="SourceGraphic" in2="effect1_dropShadow_283_2394" result="shape"/>
</filter>
<filter id="filter4_d_283_2394" x="329" y="473.667" width="13.3332" height="13.3332" filterUnits="userSpaceOnUse" color-interpolation-filters="sRGB">
<feFlood flood-opacity="0" result="BackgroundImageFix"/>
<feColorMatrix in="SourceAlpha" type="matrix" values="0 0 0 0 0 0 0 0 0 0 0 0 0 0 0 0 0 0 127 0" result="hardAlpha"/>
<feOffset dy="1.33333"/>
<feGaussianBlur stdDeviation="0.666667"/>
<feComposite in2="hardAlpha" operator="out"/>
<feColorMatrix type="matrix" values="0 0 0 0 0 0 0 0 0 0 0 0 0 0 0 0 0 0 0.1 0"/>
<feBlend mode="normal" in2="BackgroundImageFix" result="effect1_dropShadow_283_2394"/>
<feBlend mode="normal" in="SourceGraphic" in2="effect1_dropShadow_283_2394" result="shape"/>
</filter>
<clipPath id="clip0_283_2394">
<rect width="440" height="500" rx="16" fill="white"/>
</clipPath>
</defs>
</svg>
