<svg width="440" height="500" viewBox="0 0 440 500" fill="none" xmlns="http://www.w3.org/2000/svg">
<g clip-path="url(#clip0_283_2503)">
<rect x="60" y="60" width="560" height="502" rx="22" fill="white"/>
<path d="M101.452 106.212H91.61V102.53H99.912V101.522H91.582V100.262H101.312V102.922C101.312 103.221 101.247 103.435 101.116 103.566C100.985 103.697 100.771 103.762 100.472 103.762H93.01V104.952H101.452V106.212ZM96.594 99.45H95.194L95.978 95.292C95.9967 95.1613 95.9873 95.0773 95.95 95.04C95.9127 94.9933 95.8287 94.97 95.698 94.97H90.868V93.71H97C97.2333 93.71 97.3967 93.7707 97.49 93.892C97.5927 94.004 97.6207 94.1673 97.574 94.382L96.594 99.45ZM101.312 99.66H99.912V98.456H97.728V97.168H99.912V95.922H97.882V94.634H99.912V93.556H101.312V99.66ZM114.07 106.212H112.67V99.548H111.102V106.212H109.715V93.556H111.102V98.26H112.67V93.556H114.07V106.212ZM108.708 105.204H107.252L106.313 95.46C106.295 95.2733 106.258 95.1473 106.202 95.082C106.155 95.0073 106.071 94.97 105.95 94.97H105.572C105.441 94.97 105.348 95.0073 105.292 95.082C105.245 95.1473 105.212 95.2733 105.194 95.46L104.06 105.204H102.603L103.85 94.97H102.743V93.71H108.904V94.97H107.658L108.708 105.204ZM129.988 105.372H118.2V104.112H121.07V101.76H122.47V104.112H125.718V101.76H127.118V104.112H129.988V105.372ZM121.896 100.934C121.392 100.934 120.944 100.845 120.552 100.668C120.16 100.481 119.828 100.229 119.558 99.912C119.296 99.5853 119.096 99.198 118.956 98.75C118.825 98.302 118.76 97.812 118.76 97.28C118.76 96.748 118.825 96.258 118.956 95.81C119.096 95.362 119.296 94.9793 119.558 94.662C119.828 94.3353 120.16 94.0833 120.552 93.906C120.944 93.7193 121.392 93.626 121.896 93.626H126.292C126.796 93.626 127.244 93.7193 127.636 93.906C128.028 94.0833 128.354 94.3353 128.616 94.662C128.886 94.9793 129.087 95.362 129.218 95.81C129.358 96.258 129.428 96.748 129.428 97.28C129.428 97.812 129.358 98.302 129.218 98.75C129.087 99.198 128.886 99.5853 128.616 99.912C128.354 100.229 128.028 100.481 127.636 100.668C127.244 100.845 126.796 100.934 126.292 100.934H121.896ZM126.11 99.674C126.446 99.674 126.73 99.6133 126.964 99.492C127.206 99.3613 127.407 99.1887 127.566 98.974C127.724 98.75 127.841 98.4933 127.916 98.204C127.99 97.9147 128.028 97.6067 128.028 97.28C128.028 96.9533 127.99 96.6453 127.916 96.356C127.841 96.0667 127.724 95.8147 127.566 95.6C127.407 95.376 127.206 95.2033 126.964 95.082C126.73 94.9513 126.446 94.886 126.11 94.886H122.078C121.742 94.886 121.452 94.9513 121.21 95.082C120.976 95.2033 120.78 95.376 120.622 95.6C120.463 95.8147 120.346 96.0667 120.272 96.356C120.197 96.6453 120.16 96.9533 120.16 97.28C120.16 97.6067 120.197 97.9147 120.272 98.204C120.346 98.4933 120.463 98.75 120.622 98.974C120.78 99.1887 120.976 99.3613 121.21 99.492C121.452 99.6133 121.742 99.674 122.078 99.674H126.11ZM139.049 101.508C139.899 101.508 140.557 101.713 141.023 102.124C141.49 102.525 141.723 103.104 141.723 103.86C141.723 104.616 141.49 105.195 141.023 105.596C140.557 106.007 139.899 106.212 139.049 106.212H134.163C133.314 106.212 132.656 106.007 132.189 105.596C131.723 105.195 131.489 104.616 131.489 103.86C131.489 103.104 131.723 102.525 132.189 102.124C132.656 101.713 133.314 101.508 134.163 101.508H139.049ZM138.251 100.64H136.781L135.199 95.824C135.162 95.712 135.125 95.6373 135.087 95.6C135.059 95.5533 134.994 95.53 134.891 95.53H133.925C133.823 95.53 133.753 95.5533 133.715 95.6C133.687 95.6467 133.655 95.7213 133.617 95.824L131.951 100.64H130.481L132.245 95.53H130.663V94.27H133.715V92.842H135.115V94.27H138.307V95.53H136.585L138.251 100.64ZM138.867 104.952C139.362 104.952 139.726 104.854 139.959 104.658C140.202 104.462 140.323 104.196 140.323 103.86C140.323 103.524 140.202 103.258 139.959 103.062C139.726 102.866 139.362 102.768 138.867 102.768H134.345C133.851 102.768 133.482 102.866 133.239 103.062C133.006 103.258 132.889 103.524 132.889 103.86C132.889 104.196 133.006 104.462 133.239 104.658C133.482 104.854 133.851 104.952 134.345 104.952H138.867ZM141.471 101.06H140.071V98.008H137.957V96.72H140.071V93.556H141.471V101.06ZM154.089 106.212H152.689V99.408H150.981V106.212H149.595V93.556H150.981V98.12H152.689V93.556H154.089V106.212ZM148.755 104.98H143.183V93.64H144.569V103.72H148.755V104.98ZM166.006 100.64H164.606V98.89H162.114C161.825 99.338 161.419 99.6833 160.896 99.926C160.383 100.169 159.776 100.29 159.076 100.29C158.544 100.29 158.064 100.22 157.634 100.08C157.205 99.9307 156.836 99.7253 156.528 99.464C156.22 99.1933 155.982 98.8713 155.814 98.498C155.646 98.1153 155.562 97.686 155.562 97.21V96.552C155.562 96.076 155.646 95.6513 155.814 95.278C155.982 94.8953 156.22 94.5733 156.528 94.312C156.836 94.0413 157.205 93.836 157.634 93.696C158.064 93.5467 158.544 93.472 159.076 93.472C159.767 93.472 160.369 93.5933 160.882 93.836C161.405 94.0693 161.811 94.4053 162.1 94.844H164.606V93.556H166.006V100.64ZM166.006 106.212H164.606V102.544H156.234V101.284H166.006V106.212ZM161.19 96.622C161.19 96.0247 160.999 95.5627 160.616 95.236C160.234 94.9 159.72 94.732 159.076 94.732C158.432 94.732 157.919 94.9 157.536 95.236C157.154 95.5627 156.962 96.0247 156.962 96.622V97.14C156.962 97.7373 157.154 98.204 157.536 98.54C157.919 98.8667 158.432 99.03 159.076 99.03C159.72 99.03 160.234 98.8667 160.616 98.54C160.999 98.204 161.19 97.7373 161.19 97.14V96.622ZM164.606 97.602V96.132H162.562C162.572 96.2067 162.576 96.2767 162.576 96.342C162.586 96.4073 162.59 96.4773 162.59 96.552V97.21C162.59 97.2847 162.586 97.3547 162.576 97.42C162.576 97.476 162.572 97.5367 162.562 97.602H164.606Z" fill="black"/>
<path d="M95.168 118.742C97.4297 118.742 98.8945 119.562 98.8945 120.863C98.8945 122.164 97.4297 122.973 95.168 122.973C92.918 122.973 91.4297 122.164 91.4297 120.863C91.4297 119.562 92.918 118.742 95.168 118.742ZM95.168 119.633C93.6328 119.633 92.6133 120.102 92.625 120.863C92.6133 121.625 93.6328 122.082 95.168 122.094C96.7148 122.082 97.7227 121.625 97.7227 120.863C97.7227 120.102 96.7148 119.633 95.168 119.633ZM99.9727 123.699V124.602H97.5938V126.688H96.4805V124.602H94.8281V126.688H93.7031V124.602H90.3867V123.699H99.9727ZM99 127.871V128.773H91.5352V125.785H92.6602V127.871H99ZM103.21 119.281C104.781 119.281 105.894 120.711 105.906 122.961C105.894 125.223 104.781 126.652 103.21 126.652C101.64 126.652 100.515 125.223 100.527 122.961C100.515 120.711 101.64 119.281 103.21 119.281ZM103.21 120.277C102.249 120.277 101.593 121.309 101.593 122.961C101.593 124.625 102.249 125.656 103.21 125.656C104.183 125.656 104.839 124.625 104.839 122.961C104.839 121.309 104.183 120.277 103.21 120.277ZM108.578 118.496V122.609H110.265V123.547H108.578V128.996H107.464V118.496H108.578ZM119.104 118.508V126.23H118.003V118.508H119.104ZM119.397 127.871V128.773H112.167V125.621H113.28V127.871H119.397ZM115.764 119.234V122.363H112.05V123.875C113.983 123.869 115.296 123.805 116.854 123.523L116.971 124.438C115.319 124.73 113.925 124.789 111.839 124.789H110.96V121.52H114.663V120.125H110.936V119.234H115.764Z" fill="#00AEAE"/>
<path d="M131.697 118.531V124.449H130.794V118.531H131.697ZM124.689 119.152V122.867C126.412 122.861 127.958 122.744 129.611 122.387L129.751 123.16C127.994 123.512 126.412 123.641 124.607 123.652H123.763V119.152H124.689ZM131.697 124.93V128.809H124.935V124.93H131.697ZM125.837 125.668V128.059H130.794V125.668H125.837ZM141.708 118.531V128.973H140.782V118.531H141.708ZM136.165 119.34C137.712 119.352 138.825 120.758 138.825 122.973C138.825 125.188 137.712 126.594 136.165 126.594C134.606 126.594 133.505 125.188 133.505 122.973C133.505 120.758 134.606 119.352 136.165 119.34ZM136.165 120.16C135.122 120.172 134.395 121.273 134.395 122.973C134.395 124.672 135.122 125.773 136.165 125.773C137.208 125.773 137.934 124.672 137.934 122.973C137.934 121.273 137.208 120.172 136.165 120.16ZM155.32 126.84V127.613H145.781V126.84H148.148V124.027C147.257 123.564 146.718 122.814 146.718 121.871C146.718 120.254 148.3 119.199 150.527 119.188C152.753 119.199 154.335 120.254 154.335 121.871C154.335 122.797 153.814 123.541 152.953 124.004V126.84H155.32ZM150.527 119.949C148.816 119.938 147.609 120.711 147.609 121.871C147.609 123.031 148.816 123.816 150.527 123.816C152.226 123.816 153.445 123.031 153.445 121.871C153.445 120.711 152.226 119.938 150.527 119.949ZM149.05 126.84H152.027V124.355C151.576 124.479 151.072 124.543 150.527 124.543C149.994 124.543 149.496 124.484 149.05 124.367V126.84ZM159.343 120.77C159.343 122.07 160.468 123.23 162.003 123.688L161.558 124.402C160.35 124.045 159.384 123.254 158.921 122.223C158.464 123.365 157.515 124.262 156.272 124.672L155.827 123.969C157.362 123.453 158.44 122.188 158.44 120.77V120.547H156.085V119.809H158.44V118.484H159.366V119.809H161.698V120.547H159.343V120.77ZM164.429 118.531V124.848H163.503V122.281H161.37V121.52H163.503V118.531H164.429ZM160.972 125.129C163.14 125.129 164.464 125.809 164.464 127.027C164.464 128.234 163.14 128.926 160.972 128.926C158.804 128.926 157.479 128.234 157.479 127.027C157.479 125.809 158.804 125.129 160.972 125.129ZM160.972 125.844C159.378 125.855 158.382 126.289 158.393 127.027C158.382 127.754 159.378 128.199 160.972 128.199C162.577 128.199 163.55 127.754 163.55 127.027C163.55 126.289 162.577 125.855 160.972 125.844ZM173.865 118.531V122.832H175.612V123.594H173.865V128.949H172.951V118.531H173.865ZM171.944 120.207V120.969H165.744V120.207H168.428V118.66H169.342V120.207H171.944ZM168.897 121.836C170.373 121.836 171.44 122.82 171.451 124.227C171.44 125.633 170.373 126.617 168.897 126.617C167.408 126.617 166.33 125.633 166.342 124.227C166.33 122.82 167.408 121.836 168.897 121.836ZM168.897 122.609C167.924 122.609 167.209 123.289 167.221 124.227C167.209 125.176 167.924 125.844 168.897 125.832C169.858 125.844 170.561 125.176 170.573 124.227C170.561 123.289 169.858 122.609 168.897 122.609ZM184.416 118.543V126.184H183.502V118.543H184.416ZM184.744 127.953V128.727H177.689V125.48H178.603V127.953H184.744ZM179.505 120.172C179.494 121.754 180.584 123.184 182.13 123.746L181.65 124.484C180.443 124.021 179.505 123.084 179.048 121.883C178.586 123.16 177.636 124.186 176.423 124.672L175.92 123.957C177.502 123.348 178.568 121.812 178.568 120.172V119.129H179.505V120.172ZM197.114 118.543V126.184H196.188V122.188H194.043V121.426H196.188V118.543H197.114ZM197.407 127.953V128.727H190.422V125.492H191.348V127.953H197.407ZM192.098 120.688C192.098 122.035 193.141 123.348 194.664 123.863L194.184 124.602C193.006 124.18 192.098 123.301 191.653 122.223C191.201 123.424 190.241 124.385 189.004 124.848L188.524 124.098C190.059 123.559 191.172 122.188 191.172 120.688V120.148H188.817V119.387H194.43V120.148H192.098V120.688ZM202.015 121.73C202.004 123.406 203.211 125.246 204.722 125.961L204.195 126.688C203.023 126.119 202.033 124.877 201.57 123.465C201.09 125 200.041 126.348 198.875 126.945L198.312 126.219C199.812 125.492 201.101 123.512 201.113 121.73V120.371H198.687V119.609H204.359V120.371H202.015V121.73ZM206.55 118.531V122.75H208.297V123.535H206.55V128.949H205.636V118.531H206.55ZM217.136 118.531V123.863H216.21V122.773H213.433V122.047H216.21V120.793H213.585C212.929 122.439 211.312 123.547 209.003 124.098L208.675 123.336C211.23 122.744 212.718 121.496 212.894 119.82H209.202V119.059H213.901C213.901 119.404 213.866 119.738 213.808 120.055H216.21V118.531H217.136ZM217.136 124.332V126.875H211.323V128.094H217.487V128.855H210.409V126.172H216.21V125.082H210.386V124.332H217.136ZM227.463 118.531V128.949H226.573V123.535H225.155V128.422H224.276V118.754H225.155V122.75H226.573V118.531H227.463ZM221.592 121.379C221.592 123.289 222.377 124.965 223.866 125.727L223.315 126.441C222.26 125.867 221.539 124.836 221.17 123.559C220.813 125.012 220.08 126.148 218.979 126.793L218.405 126.09C219.905 125.27 220.702 123.488 220.702 121.379V120.547H218.651V119.773H223.526V120.547H221.592V121.379ZM240.068 118.531V128.949H239.165V123.559H237.665V128.41H236.798V118.766H237.665V122.773H239.165V118.531H240.068ZM232.614 119.809V125.434C233.651 125.422 234.753 125.352 236.025 125.094L236.142 125.914C234.689 126.172 233.493 126.254 232.345 126.254H231.7V119.809H232.614ZM249.821 125.246V128.949H248.895V125.984H242.813V125.246H249.821ZM249.821 118.531V124.672H248.895V123.172H246.211C245.725 123.764 244.958 124.115 244.055 124.109C242.497 124.121 241.348 123.09 241.348 121.613C241.348 120.16 242.497 119.129 244.055 119.129C244.952 119.129 245.719 119.48 246.211 120.066H248.895V118.531H249.821ZM244.055 119.914C242.989 119.914 242.227 120.629 242.227 121.613C242.227 122.633 242.989 123.336 244.055 123.336C245.075 123.336 245.86 122.633 245.86 121.613C245.86 120.629 245.075 119.914 244.055 119.914ZM246.622 122.41H248.895V120.828H246.622C246.704 121.074 246.75 121.332 246.75 121.613C246.75 121.895 246.704 122.164 246.622 122.41ZM255.941 118.719C258.262 118.719 259.621 119.352 259.621 120.512C259.621 121.695 258.262 122.328 255.941 122.34C253.621 122.328 252.25 121.695 252.25 120.512C252.25 119.352 253.621 118.719 255.941 118.719ZM255.941 119.41C254.207 119.41 253.199 119.832 253.211 120.512C253.199 121.238 254.207 121.637 255.941 121.637C257.664 121.637 258.683 121.238 258.683 120.512C258.683 119.832 257.664 119.41 255.941 119.41ZM260.687 123.043V123.793H251.195V123.043H260.687ZM259.469 124.695V127.027H253.281V128.105H259.785V128.832H252.367V126.348H258.566V125.398H252.344V124.695H259.469ZM273.397 126.84V127.613H263.858V126.84H268.159V124.309H269.085V126.84H273.397ZM269.085 120.512C269.085 122.176 271.147 123.605 272.94 123.898L272.565 124.625C270.971 124.314 269.29 123.301 268.628 121.848C267.954 123.307 266.278 124.344 264.713 124.672L264.327 123.934C266.085 123.629 268.135 122.176 268.135 120.512V120.254H264.643V119.48H272.577V120.254H269.085V120.512ZM282.412 118.531V128.949H281.498V118.531H282.412ZM273.928 126.172C274.818 126.166 275.838 126.16 276.893 126.125V124.988C275.644 124.854 274.83 124.145 274.842 123.102C274.83 121.93 275.838 121.168 277.338 121.168C278.838 121.168 279.857 121.93 279.857 123.102C279.857 124.133 279.049 124.842 277.818 124.977V126.09C278.826 126.049 279.846 125.973 280.807 125.844L280.877 126.547C278.557 126.922 276.002 126.957 274.068 126.957L273.928 126.172ZM280.537 119.82V120.57H274.15V119.82H276.893V118.543H277.818V119.82H280.537ZM277.338 121.883C276.377 121.883 275.697 122.375 275.697 123.102C275.697 123.828 276.377 124.297 277.338 124.285C278.31 124.297 278.978 123.828 278.978 123.102C278.978 122.375 278.31 121.883 277.338 121.883ZM292.025 118.496V121.027H293.607V121.789H292.025V124.262H291.111V118.496H292.025ZM292.025 124.801V127.109H286.306V128.129H292.411V128.832H285.404V126.43H291.111V125.492H285.38V124.801H292.025ZM290.115 119.48V120.219H283.904V119.48H286.552V118.426H287.466V119.48H290.115ZM287.009 120.688C288.521 120.688 289.505 121.344 289.517 122.398C289.505 123.453 288.521 124.109 287.009 124.109C285.486 124.109 284.49 123.453 284.501 122.398C284.49 121.344 285.486 120.688 287.009 120.688ZM287.009 121.367C286.025 121.367 285.368 121.777 285.38 122.398C285.368 123.031 286.025 123.418 287.009 123.418C287.993 123.418 288.638 123.031 288.65 122.398C288.638 121.777 287.993 121.367 287.009 121.367ZM301.77 119.504C301.77 120.969 303.691 122.246 305.566 122.504L305.191 123.254C303.574 122.984 301.975 122.088 301.301 120.805C300.633 122.094 299.027 122.984 297.41 123.254L297.035 122.504C298.91 122.246 300.82 120.992 300.82 119.504V118.906H301.77V119.504ZM306.035 124.402V125.176H301.723V128.949H300.82V125.176H296.543V124.402H306.035ZM312.733 125.527C312.733 126.447 313.225 127.426 314.221 127.988C315.206 127.373 315.733 126.336 315.733 125.527V124.953H316.635V125.527C316.635 126.594 317.421 127.672 318.757 128.129L318.3 128.809C317.257 128.439 316.524 127.713 316.167 126.84C315.844 127.684 315.206 128.48 314.245 128.891C313.231 128.504 312.587 127.736 312.276 126.863C311.907 127.707 311.186 128.434 310.19 128.809L309.721 128.129C311.034 127.637 311.831 126.523 311.842 125.527V124.953H312.733V125.527ZM317.807 118.543V124.496H316.893V118.543H317.807ZM312.182 119.152C313.764 119.152 314.913 120.137 314.913 121.59C314.913 123.02 313.764 124.004 312.182 124.004C310.6 124.004 309.452 123.02 309.452 121.59C309.452 120.137 310.6 119.152 312.182 119.152ZM312.182 119.938C311.116 119.926 310.342 120.617 310.354 121.59C310.342 122.551 311.116 123.23 312.182 123.242C313.237 123.23 314.01 122.551 314.01 121.59C314.01 120.617 313.237 119.926 312.182 119.938ZM322.018 119.34C323.436 119.352 324.455 120.564 324.607 122.516H326.94V118.531H327.854V128.973H326.94V123.277H324.619C324.508 125.316 323.471 126.594 322.018 126.594C320.482 126.594 319.404 125.188 319.404 122.973C319.404 120.758 320.482 119.352 322.018 119.34ZM322.018 120.16C320.986 120.172 320.283 121.273 320.283 122.973C320.283 124.672 320.986 125.773 322.018 125.773C323.037 125.773 323.752 124.672 323.752 122.973C323.752 121.273 323.037 120.172 322.018 120.16ZM338.767 126.84V127.613H329.228V126.84H331.595V124.027C330.705 123.564 330.165 122.814 330.165 121.871C330.165 120.254 331.747 119.199 333.974 119.188C336.201 119.199 337.783 120.254 337.783 121.871C337.783 122.797 337.261 123.541 336.4 124.004V126.84H338.767ZM333.974 119.949C332.263 119.938 331.056 120.711 331.056 121.871C331.056 123.031 332.263 123.816 333.974 123.816C335.673 123.816 336.892 123.031 336.892 121.871C336.892 120.711 335.673 119.938 333.974 119.949ZM332.497 126.84H335.474V124.355C335.023 124.479 334.519 124.543 333.974 124.543C333.441 124.543 332.943 124.484 332.497 124.367V126.84ZM340.341 128.07C339.93 128.07 339.579 127.73 339.591 127.309C339.579 126.898 339.93 126.559 340.341 126.559C340.751 126.559 341.091 126.898 341.091 127.309C341.091 127.73 340.751 128.07 340.341 128.07Z" fill="black" fill-opacity="0.54"/>
<rect x="89.5" y="337.5" width="475" height="171" rx="10.5" fill="white" stroke="#EEEEEE"/>
<path d="M134.488 402.528H132.888V394.912H131.096V402.528H129.512V388.064H131.096V393.44H132.888V388.064H134.488V402.528ZM128.36 401.376H126.696L125.624 390.24C125.603 390.027 125.56 389.883 125.496 389.808C125.443 389.723 125.347 389.68 125.208 389.68H124.776C124.627 389.68 124.52 389.723 124.456 389.808C124.403 389.883 124.365 390.027 124.344 390.24L123.048 401.376H121.384L122.808 389.68H121.544V388.24H128.584V389.68H127.16L128.36 401.376ZM142.972 395.952H136.524V389.2C136.524 388.859 136.599 388.613 136.748 388.464C136.897 388.315 137.143 388.24 137.484 388.24H142.572V389.648H138.108V391.376H142.46V392.752H138.108V394.544H142.972V395.952ZM148.988 396.48H147.388V392.624H145.516V396.48H143.932V388.064H145.516V391.152H147.388V388.064H148.988V396.48ZM148.988 402.528H147.388V398.656H137.66V397.216H148.988V402.528ZM163.056 402.576H151.6V397.776H153.2V401.136H163.056V402.576ZM162.688 393.968H161.088L161.392 389.984C161.424 389.685 161.275 389.536 160.944 389.536H151.52V388.096H162.32C162.597 388.096 162.805 388.176 162.944 388.336C163.093 388.496 163.157 388.709 163.136 388.976L162.688 393.968ZM163.984 396.336H150.512V394.896H163.984V396.336ZM177.476 393.648C177.476 394.064 177.38 394.368 177.188 394.56C176.996 394.752 176.692 394.848 176.276 394.848H166.02V389.104C166.02 388.763 166.095 388.517 166.244 388.368C166.393 388.219 166.639 388.144 166.98 388.144H177.476V393.648ZM175.876 393.408V389.584H167.62V393.408H175.876ZM178.484 397.728H172.548V402.528H170.948V397.728H165.012V396.288H178.484V397.728ZM196.244 398.832H194.644V388.064H196.244V398.832ZM196.34 402.528H185.156V397.44H186.756V401.088H196.34V402.528ZM192.42 396.576H190.82V389.68H189.092C188.751 389.68 188.506 389.744 188.356 389.872C188.207 390 188.079 390.197 187.972 390.464L185.588 396.576H183.812L186.34 390.096C186.458 389.787 186.575 389.515 186.692 389.28C186.81 389.045 186.954 388.853 187.124 388.704C187.295 388.544 187.498 388.427 187.732 388.352C187.978 388.277 188.282 388.24 188.644 388.24H192.42V396.576ZM207.976 397.152C208.947 397.152 209.699 397.387 210.232 397.856C210.766 398.315 211.032 398.976 211.032 399.84C211.032 400.704 210.766 401.365 210.232 401.824C209.699 402.293 208.947 402.528 207.976 402.528H202.392C201.422 402.528 200.67 402.293 200.136 401.824C199.603 401.365 199.336 400.704 199.336 399.84C199.336 398.976 199.603 398.315 200.136 397.856C200.67 397.387 201.422 397.152 202.392 397.152H207.976ZM207.064 396.16H205.384L203.576 390.656C203.534 390.528 203.491 390.443 203.448 390.4C203.416 390.347 203.342 390.32 203.224 390.32H202.12C202.003 390.32 201.923 390.347 201.88 390.4C201.848 390.453 201.811 390.539 201.768 390.656L199.864 396.16H198.184L200.2 390.32H198.392V388.88H201.88V387.248H203.48V388.88H207.128V390.32H205.16L207.064 396.16ZM207.768 401.088C208.334 401.088 208.75 400.976 209.016 400.752C209.294 400.528 209.432 400.224 209.432 399.84C209.432 399.456 209.294 399.152 209.016 398.928C208.75 398.704 208.334 398.592 207.768 398.592H202.6C202.035 398.592 201.614 398.704 201.336 398.928C201.07 399.152 200.936 399.456 200.936 399.84C200.936 400.224 201.07 400.528 201.336 400.752C201.614 400.976 202.035 401.088 202.6 401.088H207.768ZM210.744 396.64H209.144V393.152H206.728V391.68H209.144V388.064H210.744V396.64ZM225.244 402.528H223.644V394.864H221.1V401.376H219.5V389.68H218.252C217.911 389.68 217.671 389.749 217.532 389.888C217.394 390.016 217.292 390.208 217.228 390.464L214.508 401.376H212.812L215.548 390.336C215.623 390.027 215.708 389.744 215.804 389.488C215.911 389.232 216.044 389.013 216.204 388.832C216.375 388.64 216.583 388.496 216.828 388.4C217.074 388.293 217.383 388.24 217.756 388.24H221.1V393.392H223.644V388.064H225.244V402.528Z" fill="black"/>
<path opacity="0.88" d="M126.264 362.847C126.264 363.996 127.811 365.103 129.637 365.328L129.261 366.134C127.725 365.908 126.366 365.156 125.748 364.114C125.13 365.162 123.777 365.908 122.235 366.134L121.838 365.328C123.686 365.103 125.222 364.018 125.222 362.847V362.449H126.264V362.847ZM130.131 366.832V367.648H121.354V366.832H130.131ZM125.737 368.465C127.811 368.465 129.057 369.077 129.057 370.184C129.057 371.29 127.811 371.902 125.737 371.913C123.643 371.902 122.396 371.29 122.396 370.184C122.396 369.077 123.643 368.465 125.737 368.465ZM125.737 369.249C124.266 369.249 123.428 369.582 123.428 370.184C123.428 370.796 124.266 371.118 125.737 371.107C127.188 371.118 128.036 370.796 128.036 370.184C128.036 369.582 127.188 369.249 125.737 369.249ZM138.543 362.299V369.292H137.522V362.299H138.543ZM138.833 370.882V371.709H132.248V368.583H133.279V370.882H138.833ZM133.322 362.943C134.772 362.943 135.879 363.932 135.879 365.328C135.879 366.746 134.772 367.724 133.322 367.724C131.872 367.724 130.755 366.746 130.755 365.328C130.755 363.932 131.872 362.943 133.322 362.943ZM133.322 363.835C132.42 363.835 131.754 364.447 131.754 365.328C131.754 366.23 132.42 366.832 133.322 366.832C134.203 366.832 134.88 366.23 134.88 365.328C134.88 364.447 134.203 363.835 133.322 363.835ZM147.771 362.299V368.143H146.761V362.299H147.771ZM139.833 366.982C140.622 366.982 141.53 366.977 142.475 366.95V365.887H140.671V362.804H145.343V363.642H141.691V365.07H145.408V365.887H143.506V366.896C144.36 366.859 145.22 366.784 146.031 366.671L146.095 367.401C144.001 367.756 141.68 367.777 139.951 367.777L139.833 366.982ZM147.771 368.583V371.795H141.358V368.583H147.771ZM142.368 369.399V370.968H146.783V369.399H142.368Z" fill="#F5784B"/>
<path opacity="0.88" d="M124.744 421.48C125.896 421.471 126.785 422.14 126.98 423.121H128.689V421.08H129.617V425.777H128.689V423.883H126.99C126.8 424.889 125.906 425.562 124.744 425.562C123.406 425.562 122.449 424.723 122.449 423.512C122.449 422.32 123.406 421.471 124.744 421.48ZM124.744 422.252C123.914 422.252 123.338 422.76 123.338 423.512C123.338 424.264 123.914 424.781 124.744 424.781C125.555 424.781 126.131 424.264 126.131 423.512C126.131 422.76 125.555 422.252 124.744 422.252ZM124.832 426.197V427.213H128.689V426.197H129.617V429.723H123.914V426.197H124.832ZM124.832 428.961H128.689V427.945H124.832V428.961ZM138.663 426.1V426.852H135.089V429.82H134.18V426.852H130.655V426.1H138.663ZM137.657 421.549V424.986H131.661V421.549H137.657ZM132.569 422.291V424.264H136.729V422.291H132.569ZM146.302 421.08V426.246H145.375V424.947H143.47V425.66H139.408V421.734H143.47V422.457H145.375V421.08H146.302ZM140.326 422.477V424.918H142.562V422.477H140.326ZM143.373 426.49C145.209 426.49 146.332 427.096 146.332 428.16C146.332 429.215 145.209 429.82 143.373 429.811C141.537 429.82 140.404 429.215 140.414 428.16C140.404 427.096 141.537 426.49 143.373 426.49ZM143.373 427.203C142.093 427.213 141.332 427.545 141.332 428.16C141.332 428.746 142.093 429.098 143.373 429.098C144.652 429.098 145.414 428.746 145.414 428.16C145.414 427.545 144.652 427.213 143.373 427.203ZM143.47 424.195H145.375V423.199H143.47V424.195Z" fill="#888888"/>
<path opacity="0.88" d="M161.314 421.598V422.291C161.314 423.033 161.314 423.902 161.1 425.055H162.33V425.816H154.322V425.055H160.162C160.392 423.917 160.396 423.087 160.396 422.35H155.328V421.598H161.314ZM161.578 428.883V429.645H155.367V426.725H156.285V428.883H161.578ZM170.663 426.1V426.852H167.089V429.82H166.18V426.852H162.655V426.1H170.663ZM169.657 421.549V424.986H163.661V421.549H169.657ZM164.569 422.291V424.264H168.729V422.291H164.569ZM178.302 421.09V427.76H177.375V425.953H175.968V425.211H177.375V424.127H175.968V423.365H177.375V421.09H178.302ZM175.939 422.105V422.857H171.017V422.105H173.068V421.08H173.986V422.105H175.939ZM173.517 423.277C174.699 423.277 175.529 423.961 175.539 424.957C175.529 425.963 174.699 426.646 173.517 426.646C172.336 426.646 171.505 425.963 171.505 424.957C171.505 423.961 172.336 423.277 173.517 423.277ZM173.517 424C172.834 424.01 172.375 424.381 172.375 424.957C172.375 425.553 172.834 425.924 173.517 425.924C174.191 425.924 174.66 425.553 174.67 424.957C174.66 424.381 174.191 424.01 173.517 424ZM178.498 428.893V429.645H172.589V427.174H173.527V428.893H178.498ZM186.235 421.09V423.668H187.485V424.439H186.235V427.008H185.307V421.09H186.235ZM183.373 427.105C185.219 427.096 186.284 427.584 186.293 428.473C186.284 429.352 185.219 429.82 183.373 429.83C181.518 429.82 180.454 429.352 180.454 428.473C180.454 427.584 181.518 427.096 183.373 427.105ZM183.373 427.789C182.065 427.789 181.381 428.033 181.391 428.473C181.381 428.893 182.065 429.137 183.373 429.137C184.663 429.137 185.346 428.893 185.346 428.473C185.346 428.033 184.663 427.789 183.373 427.789ZM179.291 425.934C179.97 425.938 180.756 425.938 181.577 425.914V425.27C180.571 425.172 179.946 424.723 179.955 424.049C179.946 423.268 180.766 422.809 182.036 422.809C183.295 422.809 184.116 423.268 184.116 424.049C184.116 424.718 183.496 425.167 182.504 425.27V425.875C183.286 425.836 184.077 425.772 184.809 425.67L184.887 426.314C183.012 426.637 180.942 426.666 179.389 426.666L179.291 425.934ZM184.565 421.793V422.486H179.516V421.793H181.577V421.012H182.504V421.793H184.565ZM182.036 423.434C181.284 423.434 180.834 423.668 180.834 424.049C180.834 424.439 181.284 424.674 182.036 424.674C182.778 424.674 183.227 424.439 183.227 424.049C183.227 423.668 182.778 423.434 182.036 423.434Z" fill="#353535"/>
<path opacity="0.88" d="M206.32 425.504V426.256H202.844V427.955H201.926V426.256H198.312V425.504H206.32ZM205.285 421.49V424.596H199.338V421.49H205.285ZM200.246 422.223V423.863H204.367V422.223H200.246ZM205.432 428.893V429.645H199.309V427.125H200.236V428.893H205.432ZM209.819 423.307C209.819 424.908 210.718 426.5 212.055 427.105L211.489 427.848C210.493 427.35 209.746 426.358 209.36 425.162C208.974 426.422 208.208 427.486 207.202 428.014L206.616 427.262C207.973 426.617 208.882 424.928 208.882 423.307V421.812H209.819V423.307ZM213.96 421.08V429.85H213.042V424.742H211.089V423.99H213.042V421.08H213.96ZM223.005 425.66V426.402H219.529V428.014H218.611V426.402H214.998V425.66H223.005ZM222.117 428.893V429.645H215.994V427.252H216.912V428.893H222.117ZM216.97 421.354V422.418H221.023V421.354H221.951V424.889H216.052V421.354H216.97ZM216.97 424.146H221.023V423.111H216.97V424.146ZM231.348 426.275V427.008H229.336V429.83H228.399V427.008H226.289V429.83H225.362V427.008H223.34V426.275H231.348ZM230.401 421.393V423.736H225.245V424.703H230.586V425.455H224.317V423.043H229.454V422.154H224.288V421.393H230.401Z" fill="#888888"/>
<path opacity="0.88" d="M246.32 426.021V426.783H244.289V429.83H243.352V426.783H241.262V429.83H240.305V426.783H238.312V426.021H246.32ZM242.297 421.412C244.143 421.412 245.412 422.164 245.412 423.346C245.412 424.508 244.143 425.25 242.297 425.24C240.441 425.25 239.182 424.508 239.182 423.346C239.182 422.164 240.441 421.412 242.297 421.412ZM242.297 422.154C240.998 422.164 240.129 422.613 240.139 423.346C240.129 424.059 240.998 424.508 242.297 424.508C243.596 424.508 244.465 424.059 244.465 423.346C244.465 422.613 243.596 422.164 242.297 422.154ZM253.96 421.09V427.535H253.032V425.26H250.864C250.449 425.753 249.814 426.051 249.087 426.051C247.768 426.051 246.792 425.133 246.792 423.844C246.792 422.545 247.768 421.627 249.087 421.617C249.809 421.622 250.439 421.92 250.854 422.408H253.032V421.09H253.96ZM254.194 428.893V429.645H248.276V426.861H249.204V428.893H254.194ZM249.087 422.447C248.266 422.447 247.68 423.014 247.68 423.844C247.68 424.674 248.266 425.23 249.087 425.23C249.878 425.23 250.473 424.674 250.473 423.844C250.473 423.014 249.878 422.447 249.087 422.447ZM251.264 423.16C251.323 423.37 251.362 423.6 251.362 423.844C251.362 424.078 251.328 424.303 251.264 424.508H253.032V423.16H251.264ZM262 421.598V422.291C262 423.033 262 423.902 261.785 425.055H263.015V425.816H255.007V425.055H260.847C261.077 423.917 261.082 423.087 261.082 422.35H256.013V421.598H262ZM262.263 428.883V429.645H256.052V426.725H256.97V428.883H262.263ZM271.348 426.1V426.852H267.774V429.82H266.866V426.852H263.34V426.1H271.348ZM270.342 421.549V424.986H264.346V421.549H270.342ZM265.254 422.291V424.264H269.414V422.291H265.254ZM274.361 426.305C274.371 424.469 274.889 422.936 275.807 421.627H276.764C276.09 422.594 275.445 424.566 275.445 426.305C275.445 428.053 276.09 430.016 276.764 430.992H275.807C274.889 429.684 274.371 428.15 274.361 426.305ZM284.667 421.08V429.83H283.778V425.338H282.733V429.4H281.854V421.246H282.733V424.557H283.778V421.08H284.667ZM279.764 423.395C279.764 424.967 280.36 426.393 281.63 427.047L281.083 427.76C280.223 427.296 279.647 426.48 279.335 425.465C279.037 426.617 278.456 427.535 277.567 428.062L276.991 427.359C278.27 426.637 278.866 425.133 278.866 423.395V422.828H277.225V422.076H281.288V422.828H279.764V423.395ZM289.23 421.705V422.457H286.701V423.434H289.132V424.146H286.701V425.211C287.873 425.201 288.644 425.157 289.543 424.986L289.63 425.748C288.605 425.943 287.775 425.982 286.379 425.973H285.812V421.705H289.23ZM292.912 421.09V426.402H292.033V424.068H290.959V426.334H290.089V421.246H290.959V423.316H292.033V421.09H292.912ZM292.912 426.822V429.83H291.994V427.574H286.964V426.822H292.912ZM296.801 421.598L294.526 430.064H293.598L295.873 421.598H296.801ZM304.236 421.09V427.721H303.308V426.881H301.55V426.227H303.308V421.09H304.236ZM304.45 428.893V429.645H298.132V427.076H299.05V428.893H304.45ZM296.921 425.084C298.542 425.074 300.72 425.055 302.585 424.82L302.644 425.484C301.897 425.606 301.111 425.689 300.339 425.738V427.447H299.411V425.787C298.562 425.826 297.746 425.831 297.038 425.826L296.921 425.084ZM299.782 421.422C301.062 421.422 301.95 422.037 301.95 422.965C301.95 423.893 301.062 424.488 299.782 424.488C298.484 424.488 297.605 423.893 297.605 422.965C297.605 422.037 298.484 421.422 299.782 421.422ZM299.782 422.115C299.001 422.105 298.474 422.438 298.484 422.965C298.474 423.482 299.001 423.805 299.782 423.805C300.534 423.805 301.062 423.482 301.071 422.965C301.062 422.438 300.534 422.105 299.782 422.115ZM309.941 421.656C309.941 421.988 309.907 422.301 309.844 422.604H311.67V421.09H312.598V426.295H311.67V425.201H309.463V424.449H311.67V423.346H309.609C309.019 424.718 307.676 425.699 305.781 426.207L305.43 425.475C307.51 424.913 308.774 423.8 308.945 422.408H305.889V421.656H309.941ZM312.598 426.676V429.811H311.67V427.408H306.67V426.676H312.598ZM320.637 421.598V422.291C320.637 423.033 320.637 423.902 320.423 425.055H321.653V425.816H313.645V425.055H319.485C319.715 423.917 319.72 423.087 319.72 422.35H314.651V421.598H320.637ZM320.901 428.883V429.645H314.69V426.725H315.608V428.883H320.901ZM329.986 426.1V426.852H326.412V429.82H325.504V426.852H321.978V426.1H329.986ZM328.98 421.549V424.986H322.984V421.549H328.98ZM323.892 422.291V424.264H328.052V422.291H323.892ZM332.733 426.305C332.723 428.15 332.205 429.684 331.287 430.992H330.33C331.004 430.016 331.649 428.053 331.649 426.305C331.649 424.566 331.004 422.594 330.33 421.627H331.287C332.205 422.936 332.723 424.469 332.733 426.305ZM343.002 421.09V427.496H342.074V421.09H343.002ZM343.266 428.893V429.645H337.279V426.891H338.217V428.893H343.266ZM338.93 422.438C338.92 423.717 339.74 424.889 341.088 425.357L340.609 426.1C339.599 425.724 338.852 424.981 338.461 424.029C338.075 425.045 337.318 425.86 336.293 426.256L335.795 425.523C337.172 425.016 337.982 423.756 337.982 422.438V421.568H338.93V422.438ZM347.155 422.945C347.155 423.971 348.005 424.938 349.333 425.309L348.893 426.031C347.883 425.743 347.116 425.118 346.716 424.312C346.335 425.216 345.573 425.929 344.528 426.256L344.089 425.543C345.417 425.113 346.237 424.068 346.237 422.945V422.838H344.333V422.096H346.237V421.041H347.165V422.096H349.059V422.838H347.155V422.945ZM351.384 421.08V426.383H350.456V424.293H348.786V423.531H350.456V421.08H351.384ZM348.454 426.578C350.28 426.578 351.413 427.164 351.413 428.189C351.413 429.225 350.28 429.82 348.454 429.811C346.618 429.82 345.485 429.225 345.495 428.189C345.485 427.164 346.618 426.578 348.454 426.578ZM348.454 427.301C347.175 427.301 346.413 427.623 346.413 428.189C346.413 428.756 347.175 429.098 348.454 429.098C349.743 429.098 350.495 428.756 350.495 428.189C350.495 427.623 349.743 427.301 348.454 427.301ZM355.439 421.598L353.164 430.064H352.236L354.511 421.598H355.439ZM358.977 422.77C358.977 423.6 359.758 424.312 361.037 424.586L360.657 425.309C359.651 425.084 358.913 424.581 358.528 423.912C358.152 424.64 357.4 425.187 356.36 425.426L355.969 424.703C357.258 424.43 358.049 423.639 358.049 422.77H356.164V422.037H358.049V421.1H358.977V422.037H360.852V422.77H358.977ZM362.873 421.09V429.83H361.955V421.09H362.873ZM355.588 425.963C357.248 425.963 359.446 425.953 361.35 425.709L361.418 426.383C360.618 426.515 359.792 426.598 358.987 426.646V429.566H358.059V426.695C357.219 426.729 356.418 426.734 355.715 426.734L355.588 425.963ZM371.948 427.955V428.717H363.941V427.955H367.446V425.875H368.364V427.955H371.948ZM368.384 422.301C368.384 423.688 369.907 424.986 371.597 425.27L371.196 426.031C369.78 425.748 368.477 424.874 367.896 423.668C367.32 424.869 366.03 425.758 364.624 426.031L364.214 425.27C365.894 424.986 367.407 423.688 367.407 422.301V421.637H368.384V422.301Z" fill="#353535"/>
<path opacity="0.88" d="M384.572 421.451V422.643H386.867V421.451H387.785V425.27H383.664V421.451H384.572ZM384.572 424.527H386.867V423.355H384.572V424.527ZM390.197 421.08V422.916H391.467V423.668H390.197V425.582H389.27V421.08H390.197ZM390.197 425.963V428.17H385.471V429H390.5V429.742H384.562V427.486H389.279V426.695H384.543V425.963H390.197ZM394.341 422.76C394.341 423.717 394.956 424.684 396.089 425.113L395.6 425.826C394.785 425.514 394.214 424.918 393.901 424.195C393.579 425.011 392.978 425.719 392.134 426.08L391.626 425.357C392.807 424.84 393.442 423.736 393.442 422.76V421.627H394.341V422.76ZM399.126 421.09V426.471H398.247V424.127H397.221V426.197H396.362V421.246H397.221V423.365H398.247V421.09H399.126ZM396.196 426.637C398.022 426.637 399.165 427.232 399.175 428.229C399.165 429.225 398.022 429.82 396.196 429.811C394.37 429.82 393.227 429.225 393.237 428.229C393.227 427.232 394.37 426.637 396.196 426.637ZM396.196 427.35C394.927 427.35 394.145 427.672 394.155 428.229C394.145 428.785 394.927 429.107 396.196 429.098C397.466 429.107 398.237 428.785 398.247 428.229C398.237 427.672 397.466 427.35 396.196 427.35ZM402.488 421.373C403.806 421.383 404.773 422.193 404.783 423.336C404.773 424.488 403.806 425.289 402.488 425.289C401.16 425.289 400.183 424.488 400.183 423.336C400.183 422.193 401.16 421.383 402.488 421.373ZM402.488 422.154C401.677 422.145 401.082 422.623 401.091 423.336C401.082 424.059 401.677 424.537 402.488 424.537C403.289 424.537 403.884 424.059 403.884 423.336C403.884 422.623 403.289 422.145 402.488 422.154ZM407.263 421.08V425.533H406.336V421.08H407.263ZM407.263 425.934V428.141H402.439V428.98H407.556V429.723H401.541V427.447H406.345V426.676H401.511V425.934H407.263ZM411.397 423.658C411.397 425.045 412.305 426.588 413.633 427.213L413.106 427.936C412.124 427.462 411.348 426.476 410.957 425.328C410.552 426.583 409.732 427.662 408.731 428.16L408.184 427.428C409.512 426.793 410.479 425.143 410.479 423.658V422.73H408.506V421.959H413.301V422.73H411.397V423.658ZM415.166 421.08V424.547H416.573V425.328H415.166V429.83H414.239V421.08H415.166Z" fill="#888888"/>
<path opacity="0.88" d="M423.625 429L423.622 428.22L426.073 425.744C426.37 425.435 426.597 425.187 426.753 424.998C426.91 424.809 427.03 424.625 427.113 424.445C427.198 424.264 427.24 424.073 427.24 423.872C427.24 423.644 427.183 423.444 427.068 423.271C426.953 423.099 426.795 422.966 426.595 422.874C426.397 422.78 426.174 422.733 425.928 422.733C425.67 422.733 425.444 422.785 425.248 422.888C425.055 422.989 424.905 423.134 424.799 423.323C424.695 423.512 424.644 423.732 424.644 423.983H423.622C423.622 423.559 423.721 423.185 423.919 422.86C424.119 422.534 424.395 422.28 424.747 422.101C425.102 421.921 425.502 421.831 425.949 421.831C426.395 421.831 426.794 421.919 427.144 422.094C427.494 422.269 427.766 422.509 427.962 422.816C428.16 423.119 428.26 423.461 428.262 423.841C428.26 424.113 428.208 424.373 428.107 424.622C428.006 424.87 427.833 425.148 427.589 425.454C427.347 425.758 427.003 426.128 426.557 426.566L425.12 428.026V428.078H428.376V429H423.625ZM431.731 429.114C431.188 429.114 430.721 428.971 430.332 428.686C429.946 428.4 429.65 427.985 429.445 427.439C429.24 426.891 429.138 426.234 429.138 425.468C429.138 424.706 429.24 424.053 429.445 423.51C429.652 422.964 429.95 422.549 430.339 422.263C430.728 421.975 431.192 421.831 431.731 421.831C432.27 421.831 432.733 421.975 433.122 422.263C433.514 422.549 433.812 422.964 434.017 423.51C434.224 424.053 434.328 424.706 434.328 425.468C434.328 426.234 434.225 426.891 434.02 427.439C433.815 427.985 433.518 428.4 433.129 428.686C432.74 428.971 432.274 429.114 431.731 429.114ZM431.731 428.189C432.051 428.189 432.325 428.084 432.553 427.874C432.781 427.665 432.954 427.358 433.074 426.952C433.196 426.545 433.257 426.05 433.257 425.468C433.257 424.887 433.196 424.394 433.074 423.986C432.952 423.579 432.777 423.27 432.549 423.061C432.321 422.851 432.049 422.747 431.731 422.747C431.415 422.747 431.144 422.851 430.916 423.061C430.688 423.27 430.513 423.579 430.391 423.986C430.269 424.394 430.208 424.887 430.208 425.468C430.208 426.05 430.268 426.545 430.388 426.952C430.507 427.358 430.681 427.665 430.909 427.874C431.139 428.084 431.413 428.189 431.731 428.189ZM435.144 429L435.141 428.22L437.592 425.744C437.889 425.435 438.116 425.187 438.273 424.998C438.429 424.809 438.549 424.625 438.632 424.445C438.717 424.264 438.759 424.073 438.759 423.872C438.759 423.644 438.702 423.444 438.587 423.271C438.472 423.099 438.314 422.966 438.114 422.874C437.916 422.78 437.694 422.733 437.447 422.733C437.189 422.733 436.963 422.785 436.767 422.888C436.574 422.989 436.424 423.134 436.318 423.323C436.215 423.512 436.163 423.732 436.163 423.983H435.141C435.141 423.559 435.24 423.185 435.438 422.86C435.638 422.534 435.914 422.28 436.266 422.101C436.621 421.921 437.021 421.831 437.468 421.831C437.915 421.831 438.313 421.919 438.663 422.094C439.013 422.269 439.285 422.509 439.481 422.816C439.679 423.119 439.779 423.461 439.782 423.841C439.779 424.113 439.727 424.373 439.626 424.622C439.525 424.87 439.352 425.148 439.108 425.454C438.867 425.758 438.522 426.128 438.076 426.566L436.639 428.026V428.078H439.896V429H435.144ZM443.198 429.097C442.756 429.097 442.356 429.014 441.997 428.848C441.637 428.68 441.352 428.449 441.14 428.154C440.931 427.857 440.819 427.523 440.805 427.153H441.851C441.868 427.351 441.937 427.529 442.059 427.688C442.183 427.847 442.344 427.971 442.542 428.061C442.742 428.151 442.961 428.195 443.198 428.195C443.479 428.195 443.731 428.133 443.954 428.009C444.18 427.882 444.355 427.709 444.479 427.488C444.606 427.264 444.669 427.013 444.669 426.735C444.669 426.449 444.602 426.194 444.469 425.968C444.338 425.74 444.156 425.563 443.923 425.436C443.691 425.308 443.428 425.243 443.136 425.243C442.544 425.243 442.132 425.45 441.9 425.865H440.888L441.351 421.928H445.356V422.85H442.242L442 424.825H442.069C442.221 424.683 442.414 424.569 442.649 424.483C442.886 424.398 443.136 424.356 443.398 424.356C443.838 424.356 444.234 424.457 444.586 424.66C444.939 424.86 445.214 425.14 445.412 425.499C445.612 425.855 445.712 426.259 445.712 426.711C445.712 427.169 445.605 427.578 445.391 427.94C445.177 428.301 444.879 428.584 444.497 428.789C444.114 428.994 443.682 429.097 443.198 429.097ZM446.552 425.015H449.695V425.913H446.552V425.015ZM453.099 429.114C452.556 429.114 452.09 428.971 451.701 428.686C451.314 428.4 451.018 427.985 450.813 427.439C450.608 426.891 450.506 426.234 450.506 425.468C450.506 424.706 450.608 424.053 450.813 423.51C451.02 422.964 451.319 422.549 451.708 422.263C452.097 421.975 452.561 421.831 453.099 421.831C453.638 421.831 454.102 421.975 454.491 422.263C454.882 422.549 455.18 422.964 455.385 423.51C455.592 424.053 455.696 424.706 455.696 425.468C455.696 426.234 455.593 426.891 455.389 427.439C455.184 427.985 454.887 428.4 454.498 428.686C454.109 428.971 453.642 429.114 453.099 429.114ZM453.099 428.189C453.419 428.189 453.693 428.084 453.921 427.874C454.149 427.665 454.323 427.358 454.442 426.952C454.564 426.545 454.625 426.05 454.625 425.468C454.625 424.887 454.564 424.394 454.442 423.986C454.32 423.579 454.145 423.27 453.918 423.061C453.69 422.851 453.417 422.747 453.099 422.747C452.784 422.747 452.512 422.851 452.284 423.061C452.056 423.27 451.881 423.579 451.759 423.986C451.637 424.394 451.576 424.887 451.576 425.468C451.576 426.05 451.636 426.545 451.756 426.952C451.876 427.358 452.049 427.665 452.277 427.874C452.508 428.084 452.782 428.189 453.099 428.189ZM456.513 429L456.509 428.22L458.961 425.744C459.258 425.435 459.484 425.187 459.641 424.998C459.797 424.809 459.917 424.625 460 424.445C460.085 424.264 460.128 424.073 460.128 423.872C460.128 423.644 460.07 423.444 459.955 423.271C459.84 423.099 459.682 422.966 459.482 422.874C459.284 422.78 459.062 422.733 458.816 422.733C458.558 422.733 458.331 422.785 458.135 422.888C457.942 422.989 457.792 423.134 457.687 423.323C457.583 423.512 457.531 423.732 457.531 423.983H456.509C456.509 423.559 456.608 423.185 456.806 422.86C457.006 422.534 457.283 422.28 457.635 422.101C457.989 421.921 458.39 421.831 458.836 421.831C459.283 421.831 459.681 421.919 460.031 422.094C460.381 422.269 460.654 422.509 460.85 422.816C461.047 423.119 461.148 423.461 461.15 423.841C461.148 424.113 461.096 424.373 460.995 424.622C460.893 424.87 460.721 425.148 460.477 425.454C460.235 425.758 459.891 426.128 459.444 426.566L458.008 428.026V428.078H461.264V429H456.513ZM462.156 425.015H465.299V425.913H462.156V425.015ZM468.703 429.114C468.16 429.114 467.694 428.971 467.305 428.686C466.918 428.4 466.622 427.985 466.417 427.439C466.212 426.891 466.11 426.234 466.11 425.468C466.11 424.706 466.212 424.053 466.417 423.51C466.624 422.964 466.922 422.549 467.312 422.263C467.701 421.975 468.164 421.831 468.703 421.831C469.242 421.831 469.706 421.975 470.095 422.263C470.486 422.549 470.784 422.964 470.989 423.51C471.196 424.053 471.3 424.706 471.3 425.468C471.3 426.234 471.197 426.891 470.992 427.439C470.788 427.985 470.491 428.4 470.102 428.686C469.713 428.971 469.246 429.114 468.703 429.114ZM468.703 428.189C469.023 428.189 469.297 428.084 469.525 427.874C469.753 427.665 469.927 427.358 470.046 426.952C470.168 426.545 470.229 426.05 470.229 425.468C470.229 424.887 470.168 424.394 470.046 423.986C469.924 423.579 469.749 423.27 469.521 423.061C469.294 422.851 469.021 422.747 468.703 422.747C468.388 422.747 468.116 422.851 467.888 423.061C467.66 423.27 467.485 423.579 467.363 423.986C467.241 424.394 467.18 424.887 467.18 425.468C467.18 426.05 467.24 426.545 467.36 426.952C467.48 427.358 467.653 427.665 467.881 427.874C468.111 428.084 468.385 428.189 468.703 428.189ZM476.419 426.711H477.379V427.619H476.419V429H475.393V427.619H471.964V426.752L475.086 421.928H476.419V426.711ZM475.324 423.206L473.09 426.655V426.711H475.4V423.206H475.324ZM481.939 421.928H482.988V429H481.911V423.006H481.87L480.181 424.107V423.081L481.939 421.928ZM488.79 426.711H489.75V427.619H488.79V429H487.765V427.619H484.336V426.752L487.458 421.928H488.79V426.711ZM487.696 423.206L485.462 426.655V426.711H487.772V423.206H487.696ZM491.23 428.123C491.103 428.123 490.986 428.092 490.877 428.03C490.772 427.968 490.687 427.884 490.625 427.778C490.563 427.672 490.533 427.557 490.536 427.432C490.533 427.308 490.563 427.193 490.625 427.087C490.687 426.981 490.772 426.897 490.877 426.835C490.986 426.773 491.103 426.742 491.23 426.742C491.352 426.742 491.466 426.773 491.571 426.835C491.677 426.897 491.761 426.981 491.824 427.087C491.888 427.193 491.92 427.308 491.92 427.432C491.92 427.557 491.888 427.672 491.824 427.778C491.761 427.884 491.677 427.968 491.571 428.03C491.466 428.092 491.352 428.123 491.23 428.123ZM491.23 424.584C491.103 424.584 490.986 424.552 490.877 424.49C490.772 424.428 490.687 424.344 490.625 424.238C490.563 424.132 490.533 424.017 490.536 423.893C490.533 423.769 490.563 423.654 490.625 423.548C490.687 423.442 490.772 423.358 490.877 423.296C490.986 423.233 491.103 423.202 491.23 423.202C491.352 423.202 491.466 423.233 491.571 423.296C491.677 423.358 491.761 423.442 491.824 423.548C491.888 423.654 491.92 423.769 491.92 423.893C491.92 424.017 491.888 424.132 491.824 424.238C491.761 424.344 491.677 424.428 491.571 424.49C491.466 424.552 491.352 424.584 491.23 424.584ZM492.872 429L492.869 428.22L495.32 425.744C495.617 425.435 495.844 425.187 496.001 424.998C496.157 424.809 496.277 424.625 496.36 424.445C496.445 424.264 496.488 424.073 496.488 423.872C496.488 423.644 496.43 423.444 496.315 423.271C496.2 423.099 496.042 422.966 495.842 422.874C495.644 422.78 495.422 422.733 495.175 422.733C494.918 422.733 494.691 422.785 494.495 422.888C494.302 422.989 494.152 423.134 494.046 423.323C493.943 423.512 493.891 423.732 493.891 423.983H492.869C492.869 423.559 492.968 423.185 493.166 422.86C493.366 422.534 493.642 422.28 493.995 422.101C494.349 421.921 494.75 421.831 495.196 421.831C495.643 421.831 496.041 421.919 496.391 422.094C496.741 422.269 497.014 422.509 497.209 422.816C497.407 423.119 497.507 423.461 497.51 423.841C497.507 424.113 497.456 424.373 497.354 424.622C497.253 424.87 497.08 425.148 496.836 425.454C496.595 425.758 496.25 426.128 495.804 426.566L494.367 428.026V428.078H497.624V429H492.872ZM500.978 429.114C500.435 429.114 499.969 428.971 499.58 428.686C499.193 428.4 498.897 427.985 498.692 427.439C498.487 426.891 498.385 426.234 498.385 425.468C498.385 424.706 498.487 424.053 498.692 423.51C498.899 422.964 499.197 422.549 499.587 422.263C499.976 421.975 500.439 421.831 500.978 421.831C501.517 421.831 501.981 421.975 502.37 422.263C502.761 422.549 503.059 422.964 503.264 423.51C503.471 424.053 503.575 424.706 503.575 425.468C503.575 426.234 503.472 426.891 503.267 427.439C503.063 427.985 502.766 428.4 502.377 428.686C501.988 428.971 501.521 429.114 500.978 429.114ZM500.978 428.189C501.298 428.189 501.572 428.084 501.8 427.874C502.028 427.665 502.202 427.358 502.321 426.952C502.443 426.545 502.504 426.05 502.504 425.468C502.504 424.887 502.443 424.394 502.321 423.986C502.199 423.579 502.024 423.27 501.796 423.061C501.569 422.851 501.296 422.747 500.978 422.747C500.663 422.747 500.391 422.851 500.163 423.061C499.935 423.27 499.76 423.579 499.638 423.986C499.516 424.394 499.455 424.887 499.455 425.468C499.455 426.05 499.515 426.545 499.635 426.952C499.755 427.358 499.928 427.665 500.156 427.874C500.386 428.084 500.66 428.189 500.978 428.189ZM505.085 428.123C504.959 428.123 504.841 428.092 504.733 428.03C504.627 427.968 504.543 427.884 504.481 427.778C504.419 427.672 504.389 427.557 504.391 427.432C504.389 427.308 504.419 427.193 504.481 427.087C504.543 426.981 504.627 426.897 504.733 426.835C504.841 426.773 504.959 426.742 505.085 426.742C505.207 426.742 505.321 426.773 505.427 426.835C505.533 426.897 505.617 426.981 505.679 427.087C505.744 427.193 505.776 427.308 505.776 427.432C505.776 427.557 505.744 427.672 505.679 427.778C505.617 427.884 505.533 427.968 505.427 428.03C505.321 428.092 505.207 428.123 505.085 428.123ZM505.085 424.584C504.959 424.584 504.841 424.552 504.733 424.49C504.627 424.428 504.543 424.344 504.481 424.238C504.419 424.132 504.389 424.017 504.391 423.893C504.389 423.769 504.419 423.654 504.481 423.548C504.543 423.442 504.627 423.358 504.733 423.296C504.841 423.233 504.959 423.202 505.085 423.202C505.207 423.202 505.321 423.233 505.427 423.296C505.533 423.358 505.617 423.442 505.679 423.548C505.744 423.654 505.776 423.769 505.776 423.893C505.776 424.017 505.744 424.132 505.679 424.238C505.617 424.344 505.533 424.428 505.427 424.49C505.321 424.552 505.207 424.584 505.085 424.584ZM509.235 429.097C508.754 429.097 508.322 429.015 507.94 428.852C507.56 428.688 507.26 428.459 507.039 428.164C506.82 427.87 506.705 427.532 506.694 427.153H507.781C507.793 427.355 507.863 427.534 507.992 427.688C508.123 427.842 508.296 427.962 508.51 428.047C508.724 428.13 508.962 428.171 509.225 428.171C509.508 428.171 509.761 428.123 509.984 428.026C510.21 427.93 510.385 427.794 510.509 427.619C510.636 427.444 510.699 427.245 510.699 427.021C510.701 426.787 510.639 426.578 510.513 426.396C510.388 426.215 510.205 426.073 509.964 425.972C509.724 425.87 509.439 425.82 509.107 425.82H508.506V424.943H509.107C509.374 424.943 509.611 424.897 509.819 424.805C510.026 424.71 510.187 424.578 510.302 424.407C510.419 424.237 510.478 424.04 510.478 423.817C510.478 423.603 510.427 423.414 510.326 423.251C510.225 423.085 510.081 422.957 509.895 422.867C509.71 422.778 509.495 422.733 509.249 422.733C509.009 422.733 508.786 422.775 508.579 422.86C508.374 422.943 508.208 423.063 508.082 423.22C507.955 423.376 507.887 423.558 507.878 423.765H506.842C506.854 423.39 506.968 423.056 507.184 422.764C507.4 422.469 507.69 422.24 508.054 422.077C508.418 421.913 508.82 421.831 509.259 421.831C509.708 421.831 510.104 421.919 510.447 422.094C510.792 422.267 511.057 422.5 511.241 422.795C511.428 423.087 511.52 423.41 511.517 423.762C511.52 424.024 511.469 424.262 511.366 424.477C511.264 424.691 511.119 424.87 510.93 425.015C510.742 425.158 510.521 425.26 510.267 425.323V425.378C510.583 425.422 510.855 425.519 511.082 425.671C511.313 425.823 511.488 426.018 511.607 426.255C511.727 426.492 511.786 426.76 511.783 427.059C511.786 427.446 511.676 427.795 511.455 428.106C511.237 428.414 510.933 428.657 510.544 428.834C510.155 429.009 509.718 429.097 509.235 429.097ZM512.668 429L512.665 428.22L515.117 425.744C515.414 425.435 515.64 425.187 515.797 424.998C515.953 424.809 516.073 424.625 516.156 424.445C516.241 424.264 516.284 424.073 516.284 423.872C516.284 423.644 516.226 423.444 516.111 423.271C515.996 423.099 515.838 422.966 515.638 422.874C515.44 422.78 515.218 422.733 514.972 422.733C514.714 422.733 514.487 422.785 514.291 422.888C514.098 422.989 513.948 423.134 513.842 423.323C513.739 423.512 513.687 423.732 513.687 423.983H512.665C512.665 423.559 512.764 423.185 512.962 422.86C513.162 422.534 513.438 422.28 513.791 422.101C514.145 421.921 514.546 421.831 514.992 421.831C515.439 421.831 515.837 421.919 516.187 422.094C516.537 422.269 516.81 422.509 517.005 422.816C517.203 423.119 517.303 423.461 517.306 423.841C517.303 424.113 517.252 424.373 517.15 424.622C517.049 424.87 516.876 425.148 516.632 425.454C516.391 425.758 516.047 426.128 515.6 426.566L514.164 428.026V428.078H517.42V429H512.668Z" fill="#353535"/>
<rect x="122" y="450" width="309" height="1" fill="#EEEEEE"/>
<rect x="122.5" y="463.5" width="46" height="24" rx="2.5" stroke="#EEEEEE"/>
<path opacity="0.88" d="M133.47 473.103C133.47 474.104 134.12 475.045 135.342 475.432L134.814 476.196C133.957 475.906 133.342 475.326 133.004 474.588C132.652 475.432 132.011 476.095 131.096 476.416L130.569 475.651C131.852 475.203 132.485 474.148 132.494 473.015V472.259H133.47V473.103ZM136.924 471.837V473.771H138.031V474.579H136.924V476.592H135.948V471.837H136.924ZM134.34 476.768C135.983 476.759 136.994 477.321 137.003 478.262C136.994 479.22 135.983 479.773 134.34 479.773C132.679 479.773 131.65 479.22 131.65 478.262C131.65 477.321 132.679 476.759 134.34 476.768ZM134.34 477.532C133.25 477.532 132.626 477.796 132.626 478.262C132.626 478.754 133.25 479 134.34 479C135.429 479 136.036 478.754 136.036 478.262C136.036 477.796 135.429 477.532 134.34 477.532ZM140.614 473.92C140.614 475.203 141.062 476.539 142.134 477.216L141.598 477.963C140.882 477.532 140.416 476.79 140.157 475.915C139.867 476.877 139.357 477.69 138.61 478.147L138.004 477.418C139.155 476.715 139.673 475.317 139.673 473.964V472.54H140.614V473.92ZM144.991 471.837V479.782H144.05V471.837H144.991ZM143.338 471.978V479.396H142.416V475.379H141.282V474.57H142.416V471.978H143.338ZM152.873 478.024V478.824H145.614V478.024H148.751V476.196H149.727V478.024H152.873ZM152.249 472.479V473.278H149.745C149.775 474.421 150.953 475.471 152.583 475.713L152.197 476.486C150.852 476.24 149.753 475.533 149.244 474.544C148.729 475.546 147.64 476.28 146.317 476.53L145.93 475.757C147.517 475.489 148.685 474.421 148.716 473.278H146.22V472.479H152.249ZM159.71 471.837V479.782H158.735V471.837H159.71ZM153.127 477.576C153.76 477.572 154.476 477.572 155.228 477.55V476.82C154.331 476.68 153.751 476.13 153.751 475.379C153.751 474.482 154.542 473.885 155.702 473.885C156.871 473.885 157.68 474.482 157.68 475.379C157.68 476.126 157.095 476.671 156.203 476.812V477.515C156.902 477.484 157.605 477.427 158.269 477.339L158.339 478.068C156.59 478.367 154.7 478.385 153.268 478.385L153.127 477.576ZM158.128 472.751V473.524H153.294V472.751H155.228V471.863H156.203V472.751H158.128ZM155.702 474.632C155.105 474.641 154.674 474.913 154.683 475.379C154.674 475.836 155.105 476.108 155.702 476.1C156.326 476.108 156.739 475.836 156.739 475.379C156.739 474.913 156.326 474.641 155.702 474.632Z" fill="#353535"/>
<g filter="url(#filter0_d_283_2503)">
<rect x="89" y="156" width="476" height="172" rx="11" fill="white"/>
<rect x="89.5" y="156.5" width="475" height="171" rx="10.5" stroke="#EEEEEE"/>
</g>
<path d="M134.488 221.528H132.888V213.912H131.096V221.528H129.512V207.064H131.096V212.44H132.888V207.064H134.488V221.528ZM128.36 220.376H126.696L125.624 209.24C125.603 209.027 125.56 208.883 125.496 208.808C125.443 208.723 125.347 208.68 125.208 208.68H124.776C124.627 208.68 124.52 208.723 124.456 208.808C124.403 208.883 124.365 209.027 124.344 209.24L123.048 220.376H121.384L122.808 208.68H121.544V207.24H128.584V208.68H127.16L128.36 220.376ZM142.972 214.952H136.524V208.2C136.524 207.859 136.599 207.613 136.748 207.464C136.897 207.315 137.143 207.24 137.484 207.24H142.572V208.648H138.108V210.376H142.46V211.752H138.108V213.544H142.972V214.952ZM148.988 215.48H147.388V211.624H145.516V215.48H143.932V207.064H145.516V210.152H147.388V207.064H148.988V215.48ZM148.988 221.528H147.388V217.656H137.66V216.216H148.988V221.528ZM163.056 221.576H151.6V216.776H153.2V220.136H163.056V221.576ZM162.688 212.968H161.088L161.392 208.984C161.424 208.685 161.275 208.536 160.944 208.536H151.52V207.096H162.32C162.597 207.096 162.805 207.176 162.944 207.336C163.093 207.496 163.157 207.709 163.136 207.976L162.688 212.968ZM163.984 215.336H150.512V213.896H163.984V215.336ZM177.476 212.648C177.476 213.064 177.38 213.368 177.188 213.56C176.996 213.752 176.692 213.848 176.276 213.848H166.02V208.104C166.02 207.763 166.095 207.517 166.244 207.368C166.393 207.219 166.639 207.144 166.98 207.144H177.476V212.648ZM175.876 212.408V208.584H167.62V212.408H175.876ZM178.484 216.728H172.548V221.528H170.948V216.728H165.012V215.288H178.484V216.728ZM196.244 217.832H194.644V207.064H196.244V217.832ZM196.34 221.528H185.156V216.44H186.756V220.088H196.34V221.528ZM192.42 215.576H190.82V208.68H189.092C188.751 208.68 188.506 208.744 188.356 208.872C188.207 209 188.079 209.197 187.972 209.464L185.588 215.576H183.812L186.34 209.096C186.458 208.787 186.575 208.515 186.692 208.28C186.81 208.045 186.954 207.853 187.124 207.704C187.295 207.544 187.498 207.427 187.732 207.352C187.978 207.277 188.282 207.24 188.644 207.24H192.42V215.576ZM207.976 216.152C208.947 216.152 209.699 216.387 210.232 216.856C210.766 217.315 211.032 217.976 211.032 218.84C211.032 219.704 210.766 220.365 210.232 220.824C209.699 221.293 208.947 221.528 207.976 221.528H202.392C201.422 221.528 200.67 221.293 200.136 220.824C199.603 220.365 199.336 219.704 199.336 218.84C199.336 217.976 199.603 217.315 200.136 216.856C200.67 216.387 201.422 216.152 202.392 216.152H207.976ZM207.064 215.16H205.384L203.576 209.656C203.534 209.528 203.491 209.443 203.448 209.4C203.416 209.347 203.342 209.32 203.224 209.32H202.12C202.003 209.32 201.923 209.347 201.88 209.4C201.848 209.453 201.811 209.539 201.768 209.656L199.864 215.16H198.184L200.2 209.32H198.392V207.88H201.88V206.248H203.48V207.88H207.128V209.32H205.16L207.064 215.16ZM207.768 220.088C208.334 220.088 208.75 219.976 209.016 219.752C209.294 219.528 209.432 219.224 209.432 218.84C209.432 218.456 209.294 218.152 209.016 217.928C208.75 217.704 208.334 217.592 207.768 217.592H202.6C202.035 217.592 201.614 217.704 201.336 217.928C201.07 218.152 200.936 218.456 200.936 218.84C200.936 219.224 201.07 219.528 201.336 219.752C201.614 219.976 202.035 220.088 202.6 220.088H207.768ZM210.744 215.64H209.144V212.152H206.728V210.68H209.144V207.064H210.744V215.64ZM225.244 221.528H223.644V213.864H221.1V220.376H219.5V208.68H218.252C217.911 208.68 217.671 208.749 217.532 208.888C217.394 209.016 217.292 209.208 217.228 209.464L214.508 220.376H212.812L215.548 209.336C215.623 209.027 215.708 208.744 215.804 208.488C215.911 208.232 216.044 208.013 216.204 207.832C216.375 207.64 216.583 207.496 216.828 207.4C217.074 207.293 217.383 207.24 217.756 207.24H221.1V212.392H223.644V207.064H225.244V221.528Z" fill="black"/>
<path opacity="0.88" d="M129.615 181.288V190.913H128.638V185.939H127.392V190.419H126.457V181.481H127.392V185.102H128.638V181.288H129.615ZM125.286 182.448V183.275H122.697V187.733C123.879 187.723 124.771 187.669 125.802 187.476L125.877 188.313C124.717 188.55 123.729 188.593 122.321 188.604H121.677V182.448H125.286ZM138.564 181.288V190.913H137.533V181.288H138.564ZM135.696 182.319C135.696 185.134 134.493 187.583 131.195 189.162L130.658 188.335C133.22 187.116 134.466 185.381 134.665 183.136H131.12V182.319H135.696ZM148.545 185.746V186.573H144.656V187.497C146.423 187.594 147.47 188.19 147.47 189.194C147.47 190.29 146.224 190.902 144.151 190.892C142.056 190.902 140.81 190.29 140.81 189.194C140.81 188.19 141.858 187.594 143.646 187.497V186.573H139.768V185.746H148.545ZM144.151 188.271C142.679 188.271 141.841 188.604 141.841 189.194C141.841 189.774 142.679 190.118 144.151 190.107C145.601 190.118 146.45 189.774 146.45 189.194C146.45 188.604 145.601 188.271 144.151 188.271ZM147.76 181.729V182.545H144.838C144.983 183.474 146.337 184.264 148.093 184.436L147.728 185.241C146.063 185.048 144.683 184.344 144.162 183.318C143.625 184.344 142.25 185.048 140.585 185.241L140.23 184.436C141.96 184.264 143.318 183.474 143.463 182.545H140.574V181.729H147.76Z" fill="#00AEAE"/>
<path opacity="0.88" d="M124.744 240.48C125.896 240.471 126.785 241.14 126.98 242.121H128.689V240.08H129.617V244.777H128.689V242.883H126.99C126.8 243.889 125.906 244.562 124.744 244.562C123.406 244.562 122.449 243.723 122.449 242.512C122.449 241.32 123.406 240.471 124.744 240.48ZM124.744 241.252C123.914 241.252 123.338 241.76 123.338 242.512C123.338 243.264 123.914 243.781 124.744 243.781C125.555 243.781 126.131 243.264 126.131 242.512C126.131 241.76 125.555 241.252 124.744 241.252ZM124.832 245.197V246.213H128.689V245.197H129.617V248.723H123.914V245.197H124.832ZM124.832 247.961H128.689V246.945H124.832V247.961ZM138.663 245.1V245.852H135.089V248.82H134.18V245.852H130.655V245.1H138.663ZM137.657 240.549V243.986H131.661V240.549H137.657ZM132.569 241.291V243.264H136.729V241.291H132.569ZM146.302 240.08V245.246H145.375V243.947H143.47V244.66H139.408V240.734H143.47V241.457H145.375V240.08H146.302ZM140.326 241.477V243.918H142.562V241.477H140.326ZM143.373 245.49C145.209 245.49 146.332 246.096 146.332 247.16C146.332 248.215 145.209 248.82 143.373 248.811C141.537 248.82 140.404 248.215 140.414 247.16C140.404 246.096 141.537 245.49 143.373 245.49ZM143.373 246.203C142.093 246.213 141.332 246.545 141.332 247.16C141.332 247.746 142.093 248.098 143.373 248.098C144.652 248.098 145.414 247.746 145.414 247.16C145.414 246.545 144.652 246.213 143.373 246.203ZM143.47 243.195H145.375V242.199H143.47V243.195Z" fill="#888888"/>
<path opacity="0.88" d="M161.314 240.598V241.291C161.314 242.033 161.314 242.902 161.1 244.055H162.33V244.816H154.322V244.055H160.162C160.392 242.917 160.396 242.087 160.396 241.35H155.328V240.598H161.314ZM161.578 247.883V248.645H155.367V245.725H156.285V247.883H161.578ZM170.663 245.1V245.852H167.089V248.82H166.18V245.852H162.655V245.1H170.663ZM169.657 240.549V243.986H163.661V240.549H169.657ZM164.569 241.291V243.264H168.729V241.291H164.569ZM178.302 240.09V246.76H177.375V244.953H175.968V244.211H177.375V243.127H175.968V242.365H177.375V240.09H178.302ZM175.939 241.105V241.857H171.017V241.105H173.068V240.08H173.986V241.105H175.939ZM173.517 242.277C174.699 242.277 175.529 242.961 175.539 243.957C175.529 244.963 174.699 245.646 173.517 245.646C172.336 245.646 171.505 244.963 171.505 243.957C171.505 242.961 172.336 242.277 173.517 242.277ZM173.517 243C172.834 243.01 172.375 243.381 172.375 243.957C172.375 244.553 172.834 244.924 173.517 244.924C174.191 244.924 174.66 244.553 174.67 243.957C174.66 243.381 174.191 243.01 173.517 243ZM178.498 247.893V248.645H172.589V246.174H173.527V247.893H178.498ZM186.235 240.09V242.668H187.485V243.439H186.235V246.008H185.307V240.09H186.235ZM183.373 246.105C185.219 246.096 186.284 246.584 186.293 247.473C186.284 248.352 185.219 248.82 183.373 248.83C181.518 248.82 180.454 248.352 180.454 247.473C180.454 246.584 181.518 246.096 183.373 246.105ZM183.373 246.789C182.065 246.789 181.381 247.033 181.391 247.473C181.381 247.893 182.065 248.137 183.373 248.137C184.663 248.137 185.346 247.893 185.346 247.473C185.346 247.033 184.663 246.789 183.373 246.789ZM179.291 244.934C179.97 244.938 180.756 244.938 181.577 244.914V244.27C180.571 244.172 179.946 243.723 179.955 243.049C179.946 242.268 180.766 241.809 182.036 241.809C183.295 241.809 184.116 242.268 184.116 243.049C184.116 243.718 183.496 244.167 182.504 244.27V244.875C183.286 244.836 184.077 244.772 184.809 244.67L184.887 245.314C183.012 245.637 180.942 245.666 179.389 245.666L179.291 244.934ZM184.565 240.793V241.486H179.516V240.793H181.577V240.012H182.504V240.793H184.565ZM182.036 242.434C181.284 242.434 180.834 242.668 180.834 243.049C180.834 243.439 181.284 243.674 182.036 243.674C182.778 243.674 183.227 243.439 183.227 243.049C183.227 242.668 182.778 242.434 182.036 242.434Z" fill="#353535"/>
<path opacity="0.88" d="M206.32 244.504V245.256H202.844V246.955H201.926V245.256H198.312V244.504H206.32ZM205.285 240.49V243.596H199.338V240.49H205.285ZM200.246 241.223V242.863H204.367V241.223H200.246ZM205.432 247.893V248.645H199.309V246.125H200.236V247.893H205.432ZM209.819 242.307C209.819 243.908 210.718 245.5 212.055 246.105L211.489 246.848C210.493 246.35 209.746 245.358 209.36 244.162C208.974 245.422 208.208 246.486 207.202 247.014L206.616 246.262C207.973 245.617 208.882 243.928 208.882 242.307V240.812H209.819V242.307ZM213.96 240.08V248.85H213.042V243.742H211.089V242.99H213.042V240.08H213.96ZM223.005 244.66V245.402H219.529V247.014H218.611V245.402H214.998V244.66H223.005ZM222.117 247.893V248.645H215.994V246.252H216.912V247.893H222.117ZM216.97 240.354V241.418H221.023V240.354H221.951V243.889H216.052V240.354H216.97ZM216.97 243.146H221.023V242.111H216.97V243.146ZM231.348 245.275V246.008H229.336V248.83H228.399V246.008H226.289V248.83H225.362V246.008H223.34V245.275H231.348ZM230.401 240.393V242.736H225.245V243.703H230.586V244.455H224.317V242.043H229.454V241.154H224.288V240.393H230.401Z" fill="#888888"/>
<path opacity="0.88" d="M246.32 245.021V245.783H244.289V248.83H243.352V245.783H241.262V248.83H240.305V245.783H238.312V245.021H246.32ZM242.297 240.412C244.143 240.412 245.412 241.164 245.412 242.346C245.412 243.508 244.143 244.25 242.297 244.24C240.441 244.25 239.182 243.508 239.182 242.346C239.182 241.164 240.441 240.412 242.297 240.412ZM242.297 241.154C240.998 241.164 240.129 241.613 240.139 242.346C240.129 243.059 240.998 243.508 242.297 243.508C243.596 243.508 244.465 243.059 244.465 242.346C244.465 241.613 243.596 241.164 242.297 241.154ZM253.96 240.09V246.535H253.032V244.26H250.864C250.449 244.753 249.814 245.051 249.087 245.051C247.768 245.051 246.792 244.133 246.792 242.844C246.792 241.545 247.768 240.627 249.087 240.617C249.809 240.622 250.439 240.92 250.854 241.408H253.032V240.09H253.96ZM254.194 247.893V248.645H248.276V245.861H249.204V247.893H254.194ZM249.087 241.447C248.266 241.447 247.68 242.014 247.68 242.844C247.68 243.674 248.266 244.23 249.087 244.23C249.878 244.23 250.473 243.674 250.473 242.844C250.473 242.014 249.878 241.447 249.087 241.447ZM251.264 242.16C251.323 242.37 251.362 242.6 251.362 242.844C251.362 243.078 251.328 243.303 251.264 243.508H253.032V242.16H251.264ZM262 240.598V241.291C262 242.033 262 242.902 261.785 244.055H263.015V244.816H255.007V244.055H260.847C261.077 242.917 261.082 242.087 261.082 241.35H256.013V240.598H262ZM262.263 247.883V248.645H256.052V245.725H256.97V247.883H262.263ZM271.348 245.1V245.852H267.774V248.82H266.866V245.852H263.34V245.1H271.348ZM270.342 240.549V243.986H264.346V240.549H270.342ZM265.254 241.291V243.264H269.414V241.291H265.254ZM274.361 245.305C274.371 243.469 274.889 241.936 275.807 240.627H276.764C276.09 241.594 275.445 243.566 275.445 245.305C275.445 247.053 276.09 249.016 276.764 249.992H275.807C274.889 248.684 274.371 247.15 274.361 245.305ZM284.667 240.08V248.83H283.778V244.338H282.733V248.4H281.854V240.246H282.733V243.557H283.778V240.08H284.667ZM279.764 242.395C279.764 243.967 280.36 245.393 281.63 246.047L281.083 246.76C280.223 246.296 279.647 245.48 279.335 244.465C279.037 245.617 278.456 246.535 277.567 247.062L276.991 246.359C278.27 245.637 278.866 244.133 278.866 242.395V241.828H277.225V241.076H281.288V241.828H279.764V242.395ZM289.23 240.705V241.457H286.701V242.434H289.132V243.146H286.701V244.211C287.873 244.201 288.644 244.157 289.543 243.986L289.63 244.748C288.605 244.943 287.775 244.982 286.379 244.973H285.812V240.705H289.23ZM292.912 240.09V245.402H292.033V243.068H290.959V245.334H290.089V240.246H290.959V242.316H292.033V240.09H292.912ZM292.912 245.822V248.83H291.994V246.574H286.964V245.822H292.912ZM296.801 240.598L294.526 249.064H293.598L295.873 240.598H296.801ZM304.236 240.09V246.721H303.308V245.881H301.55V245.227H303.308V240.09H304.236ZM304.45 247.893V248.645H298.132V246.076H299.05V247.893H304.45ZM296.921 244.084C298.542 244.074 300.72 244.055 302.585 243.82L302.644 244.484C301.897 244.606 301.111 244.689 300.339 244.738V246.447H299.411V244.787C298.562 244.826 297.746 244.831 297.038 244.826L296.921 244.084ZM299.782 240.422C301.062 240.422 301.95 241.037 301.95 241.965C301.95 242.893 301.062 243.488 299.782 243.488C298.484 243.488 297.605 242.893 297.605 241.965C297.605 241.037 298.484 240.422 299.782 240.422ZM299.782 241.115C299.001 241.105 298.474 241.438 298.484 241.965C298.474 242.482 299.001 242.805 299.782 242.805C300.534 242.805 301.062 242.482 301.071 241.965C301.062 241.438 300.534 241.105 299.782 241.115ZM309.941 240.656C309.941 240.988 309.907 241.301 309.844 241.604H311.67V240.09H312.598V245.295H311.67V244.201H309.463V243.449H311.67V242.346H309.609C309.019 243.718 307.676 244.699 305.781 245.207L305.43 244.475C307.51 243.913 308.774 242.8 308.945 241.408H305.889V240.656H309.941ZM312.598 245.676V248.811H311.67V246.408H306.67V245.676H312.598ZM320.637 240.598V241.291C320.637 242.033 320.637 242.902 320.423 244.055H321.653V244.816H313.645V244.055H319.485C319.715 242.917 319.72 242.087 319.72 241.35H314.651V240.598H320.637ZM320.901 247.883V248.645H314.69V245.725H315.608V247.883H320.901ZM329.986 245.1V245.852H326.412V248.82H325.504V245.852H321.978V245.1H329.986ZM328.98 240.549V243.986H322.984V240.549H328.98ZM323.892 241.291V243.264H328.052V241.291H323.892ZM332.733 245.305C332.723 247.15 332.205 248.684 331.287 249.992H330.33C331.004 249.016 331.649 247.053 331.649 245.305C331.649 243.566 331.004 241.594 330.33 240.627H331.287C332.205 241.936 332.723 243.469 332.733 245.305ZM343.002 240.09V246.496H342.074V240.09H343.002ZM343.266 247.893V248.645H337.279V245.891H338.217V247.893H343.266ZM338.93 241.438C338.92 242.717 339.74 243.889 341.088 244.357L340.609 245.1C339.599 244.724 338.852 243.981 338.461 243.029C338.075 244.045 337.318 244.86 336.293 245.256L335.795 244.523C337.172 244.016 337.982 242.756 337.982 241.438V240.568H338.93V241.438ZM347.155 241.945C347.155 242.971 348.005 243.938 349.333 244.309L348.893 245.031C347.883 244.743 347.116 244.118 346.716 243.312C346.335 244.216 345.573 244.929 344.528 245.256L344.089 244.543C345.417 244.113 346.237 243.068 346.237 241.945V241.838H344.333V241.096H346.237V240.041H347.165V241.096H349.059V241.838H347.155V241.945ZM351.384 240.08V245.383H350.456V243.293H348.786V242.531H350.456V240.08H351.384ZM348.454 245.578C350.28 245.578 351.413 246.164 351.413 247.189C351.413 248.225 350.28 248.82 348.454 248.811C346.618 248.82 345.485 248.225 345.495 247.189C345.485 246.164 346.618 245.578 348.454 245.578ZM348.454 246.301C347.175 246.301 346.413 246.623 346.413 247.189C346.413 247.756 347.175 248.098 348.454 248.098C349.743 248.098 350.495 247.756 350.495 247.189C350.495 246.623 349.743 246.301 348.454 246.301ZM355.439 240.598L353.164 249.064H352.236L354.511 240.598H355.439ZM358.977 241.77C358.977 242.6 359.758 243.312 361.037 243.586L360.657 244.309C359.651 244.084 358.913 243.581 358.528 242.912C358.152 243.64 357.4 244.187 356.36 244.426L355.969 243.703C357.258 243.43 358.049 242.639 358.049 241.77H356.164V241.037H358.049V240.1H358.977V241.037H360.852V241.77H358.977ZM362.873 240.09V248.83H361.955V240.09H362.873ZM355.588 244.963C357.248 244.963 359.446 244.953 361.35 244.709L361.418 245.383C360.618 245.515 359.792 245.598 358.987 245.646V248.566H358.059V245.695C357.219 245.729 356.418 245.734 355.715 245.734L355.588 244.963ZM371.948 246.955V247.717H363.941V246.955H367.446V244.875H368.364V246.955H371.948ZM368.384 241.301C368.384 242.688 369.907 243.986 371.597 244.27L371.196 245.031C369.78 244.748 368.477 243.874 367.896 242.668C367.32 243.869 366.03 244.758 364.624 245.031L364.214 244.27C365.894 243.986 367.407 242.688 367.407 241.301V240.637H368.384V241.301Z" fill="#353535"/>
<path opacity="0.88" d="M384.572 240.451V241.643H386.867V240.451H387.785V244.27H383.664V240.451H384.572ZM384.572 243.527H386.867V242.355H384.572V243.527ZM390.197 240.08V241.916H391.467V242.668H390.197V244.582H389.27V240.08H390.197ZM390.197 244.963V247.17H385.471V248H390.5V248.742H384.562V246.486H389.279V245.695H384.543V244.963H390.197ZM394.341 241.76C394.341 242.717 394.956 243.684 396.089 244.113L395.6 244.826C394.785 244.514 394.214 243.918 393.901 243.195C393.579 244.011 392.978 244.719 392.134 245.08L391.626 244.357C392.807 243.84 393.442 242.736 393.442 241.76V240.627H394.341V241.76ZM399.126 240.09V245.471H398.247V243.127H397.221V245.197H396.362V240.246H397.221V242.365H398.247V240.09H399.126ZM396.196 245.637C398.022 245.637 399.165 246.232 399.175 247.229C399.165 248.225 398.022 248.82 396.196 248.811C394.37 248.82 393.227 248.225 393.237 247.229C393.227 246.232 394.37 245.637 396.196 245.637ZM396.196 246.35C394.927 246.35 394.145 246.672 394.155 247.229C394.145 247.785 394.927 248.107 396.196 248.098C397.466 248.107 398.237 247.785 398.247 247.229C398.237 246.672 397.466 246.35 396.196 246.35ZM402.488 240.373C403.806 240.383 404.773 241.193 404.783 242.336C404.773 243.488 403.806 244.289 402.488 244.289C401.16 244.289 400.183 243.488 400.183 242.336C400.183 241.193 401.16 240.383 402.488 240.373ZM402.488 241.154C401.677 241.145 401.082 241.623 401.091 242.336C401.082 243.059 401.677 243.537 402.488 243.537C403.289 243.537 403.884 243.059 403.884 242.336C403.884 241.623 403.289 241.145 402.488 241.154ZM407.263 240.08V244.533H406.336V240.08H407.263ZM407.263 244.934V247.141H402.439V247.98H407.556V248.723H401.541V246.447H406.345V245.676H401.511V244.934H407.263ZM411.397 242.658C411.397 244.045 412.305 245.588 413.633 246.213L413.106 246.936C412.124 246.462 411.348 245.476 410.957 244.328C410.552 245.583 409.732 246.662 408.731 247.16L408.184 246.428C409.512 245.793 410.479 244.143 410.479 242.658V241.73H408.506V240.959H413.301V241.73H411.397V242.658ZM415.166 240.08V243.547H416.573V244.328H415.166V248.83H414.239V240.08H415.166Z" fill="#888888"/>
<path opacity="0.88" d="M423.625 248L423.622 247.22L426.073 244.744C426.37 244.435 426.597 244.187 426.753 243.998C426.91 243.809 427.03 243.625 427.113 243.445C427.198 243.264 427.24 243.073 427.24 242.872C427.24 242.644 427.183 242.444 427.068 242.271C426.953 242.099 426.795 241.966 426.595 241.874C426.397 241.78 426.174 241.733 425.928 241.733C425.67 241.733 425.444 241.785 425.248 241.888C425.055 241.989 424.905 242.134 424.799 242.323C424.695 242.512 424.644 242.732 424.644 242.983H423.622C423.622 242.559 423.721 242.185 423.919 241.86C424.119 241.534 424.395 241.28 424.747 241.101C425.102 240.921 425.502 240.831 425.949 240.831C426.395 240.831 426.794 240.919 427.144 241.094C427.494 241.269 427.766 241.509 427.962 241.816C428.16 242.119 428.26 242.461 428.262 242.841C428.26 243.113 428.208 243.373 428.107 243.622C428.006 243.87 427.833 244.148 427.589 244.454C427.347 244.758 427.003 245.128 426.557 245.566L425.12 247.026V247.078H428.376V248H423.625ZM431.731 248.114C431.188 248.114 430.721 247.971 430.332 247.686C429.946 247.4 429.65 246.985 429.445 246.439C429.24 245.891 429.138 245.234 429.138 244.468C429.138 243.706 429.24 243.053 429.445 242.51C429.652 241.964 429.95 241.549 430.339 241.263C430.728 240.975 431.192 240.831 431.731 240.831C432.27 240.831 432.733 240.975 433.122 241.263C433.514 241.549 433.812 241.964 434.017 242.51C434.224 243.053 434.328 243.706 434.328 244.468C434.328 245.234 434.225 245.891 434.02 246.439C433.815 246.985 433.518 247.4 433.129 247.686C432.74 247.971 432.274 248.114 431.731 248.114ZM431.731 247.189C432.051 247.189 432.325 247.084 432.553 246.874C432.781 246.665 432.954 246.358 433.074 245.952C433.196 245.545 433.257 245.05 433.257 244.468C433.257 243.887 433.196 243.394 433.074 242.986C432.952 242.579 432.777 242.27 432.549 242.061C432.321 241.851 432.049 241.747 431.731 241.747C431.415 241.747 431.144 241.851 430.916 242.061C430.688 242.27 430.513 242.579 430.391 242.986C430.269 243.394 430.208 243.887 430.208 244.468C430.208 245.05 430.268 245.545 430.388 245.952C430.507 246.358 430.681 246.665 430.909 246.874C431.139 247.084 431.413 247.189 431.731 247.189ZM435.144 248L435.141 247.22L437.592 244.744C437.889 244.435 438.116 244.187 438.273 243.998C438.429 243.809 438.549 243.625 438.632 243.445C438.717 243.264 438.759 243.073 438.759 242.872C438.759 242.644 438.702 242.444 438.587 242.271C438.472 242.099 438.314 241.966 438.114 241.874C437.916 241.78 437.694 241.733 437.447 241.733C437.189 241.733 436.963 241.785 436.767 241.888C436.574 241.989 436.424 242.134 436.318 242.323C436.215 242.512 436.163 242.732 436.163 242.983H435.141C435.141 242.559 435.24 242.185 435.438 241.86C435.638 241.534 435.914 241.28 436.266 241.101C436.621 240.921 437.021 240.831 437.468 240.831C437.915 240.831 438.313 240.919 438.663 241.094C439.013 241.269 439.285 241.509 439.481 241.816C439.679 242.119 439.779 242.461 439.782 242.841C439.779 243.113 439.727 243.373 439.626 243.622C439.525 243.87 439.352 244.148 439.108 244.454C438.867 244.758 438.522 245.128 438.076 245.566L436.639 247.026V247.078H439.896V248H435.144ZM443.198 248.097C442.756 248.097 442.356 248.014 441.997 247.848C441.637 247.68 441.352 247.449 441.14 247.154C440.931 246.857 440.819 246.523 440.805 246.153H441.851C441.868 246.351 441.937 246.529 442.059 246.688C442.183 246.847 442.344 246.971 442.542 247.061C442.742 247.151 442.961 247.195 443.198 247.195C443.479 247.195 443.731 247.133 443.954 247.009C444.18 246.882 444.355 246.709 444.479 246.488C444.606 246.264 444.669 246.013 444.669 245.735C444.669 245.449 444.602 245.194 444.469 244.968C444.338 244.74 444.156 244.563 443.923 244.436C443.691 244.308 443.428 244.243 443.136 244.243C442.544 244.243 442.132 244.45 441.9 244.865H440.888L441.351 240.928H445.356V241.85H442.242L442 243.825H442.069C442.221 243.683 442.414 243.569 442.649 243.483C442.886 243.398 443.136 243.356 443.398 243.356C443.838 243.356 444.234 243.457 444.586 243.66C444.939 243.86 445.214 244.14 445.412 244.499C445.612 244.855 445.712 245.259 445.712 245.711C445.712 246.169 445.605 246.578 445.391 246.94C445.177 247.301 444.879 247.584 444.497 247.789C444.114 247.994 443.682 248.097 443.198 248.097ZM446.552 244.015H449.695V244.913H446.552V244.015ZM453.099 248.114C452.556 248.114 452.09 247.971 451.701 247.686C451.314 247.4 451.018 246.985 450.813 246.439C450.608 245.891 450.506 245.234 450.506 244.468C450.506 243.706 450.608 243.053 450.813 242.51C451.02 241.964 451.319 241.549 451.708 241.263C452.097 240.975 452.561 240.831 453.099 240.831C453.638 240.831 454.102 240.975 454.491 241.263C454.882 241.549 455.18 241.964 455.385 242.51C455.592 243.053 455.696 243.706 455.696 244.468C455.696 245.234 455.593 245.891 455.389 246.439C455.184 246.985 454.887 247.4 454.498 247.686C454.109 247.971 453.642 248.114 453.099 248.114ZM453.099 247.189C453.419 247.189 453.693 247.084 453.921 246.874C454.149 246.665 454.323 246.358 454.442 245.952C454.564 245.545 454.625 245.05 454.625 244.468C454.625 243.887 454.564 243.394 454.442 242.986C454.32 242.579 454.145 242.27 453.918 242.061C453.69 241.851 453.417 241.747 453.099 241.747C452.784 241.747 452.512 241.851 452.284 242.061C452.056 242.27 451.881 242.579 451.759 242.986C451.637 243.394 451.576 243.887 451.576 244.468C451.576 245.05 451.636 245.545 451.756 245.952C451.876 246.358 452.049 246.665 452.277 246.874C452.508 247.084 452.782 247.189 453.099 247.189ZM456.513 248L456.509 247.22L458.961 244.744C459.258 244.435 459.484 244.187 459.641 243.998C459.797 243.809 459.917 243.625 460 243.445C460.085 243.264 460.128 243.073 460.128 242.872C460.128 242.644 460.07 242.444 459.955 242.271C459.84 242.099 459.682 241.966 459.482 241.874C459.284 241.78 459.062 241.733 458.816 241.733C458.558 241.733 458.331 241.785 458.135 241.888C457.942 241.989 457.792 242.134 457.687 242.323C457.583 242.512 457.531 242.732 457.531 242.983H456.509C456.509 242.559 456.608 242.185 456.806 241.86C457.006 241.534 457.283 241.28 457.635 241.101C457.989 240.921 458.39 240.831 458.836 240.831C459.283 240.831 459.681 240.919 460.031 241.094C460.381 241.269 460.654 241.509 460.85 241.816C461.047 242.119 461.148 242.461 461.15 242.841C461.148 243.113 461.096 243.373 460.995 243.622C460.893 243.87 460.721 244.148 460.477 244.454C460.235 244.758 459.891 245.128 459.444 245.566L458.008 247.026V247.078H461.264V248H456.513ZM462.156 244.015H465.299V244.913H462.156V244.015ZM468.703 248.114C468.16 248.114 467.694 247.971 467.305 247.686C466.918 247.4 466.622 246.985 466.417 246.439C466.212 245.891 466.11 245.234 466.11 244.468C466.11 243.706 466.212 243.053 466.417 242.51C466.624 241.964 466.922 241.549 467.312 241.263C467.701 240.975 468.164 240.831 468.703 240.831C469.242 240.831 469.706 240.975 470.095 241.263C470.486 241.549 470.784 241.964 470.989 242.51C471.196 243.053 471.3 243.706 471.3 244.468C471.3 245.234 471.197 245.891 470.992 246.439C470.788 246.985 470.491 247.4 470.102 247.686C469.713 247.971 469.246 248.114 468.703 248.114ZM468.703 247.189C469.023 247.189 469.297 247.084 469.525 246.874C469.753 246.665 469.927 246.358 470.046 245.952C470.168 245.545 470.229 245.05 470.229 244.468C470.229 243.887 470.168 243.394 470.046 242.986C469.924 242.579 469.749 242.27 469.521 242.061C469.294 241.851 469.021 241.747 468.703 241.747C468.388 241.747 468.116 241.851 467.888 242.061C467.66 242.27 467.485 242.579 467.363 242.986C467.241 243.394 467.18 243.887 467.18 244.468C467.18 245.05 467.24 245.545 467.36 245.952C467.48 246.358 467.653 246.665 467.881 246.874C468.111 247.084 468.385 247.189 468.703 247.189ZM476.419 245.711H477.379V246.619H476.419V248H475.393V246.619H471.964V245.752L475.086 240.928H476.419V245.711ZM475.324 242.206L473.09 245.655V245.711H475.4V242.206H475.324ZM481.939 240.928H482.988V248H481.911V242.006H481.87L480.181 243.107V242.081L481.939 240.928ZM488.79 245.711H489.75V246.619H488.79V248H487.765V246.619H484.336V245.752L487.458 240.928H488.79V245.711ZM487.696 242.206L485.462 245.655V245.711H487.772V242.206H487.696ZM491.23 247.123C491.103 247.123 490.986 247.092 490.877 247.03C490.772 246.968 490.687 246.884 490.625 246.778C490.563 246.672 490.533 246.557 490.536 246.432C490.533 246.308 490.563 246.193 490.625 246.087C490.687 245.981 490.772 245.897 490.877 245.835C490.986 245.773 491.103 245.742 491.23 245.742C491.352 245.742 491.466 245.773 491.571 245.835C491.677 245.897 491.761 245.981 491.824 246.087C491.888 246.193 491.92 246.308 491.92 246.432C491.92 246.557 491.888 246.672 491.824 246.778C491.761 246.884 491.677 246.968 491.571 247.03C491.466 247.092 491.352 247.123 491.23 247.123ZM491.23 243.584C491.103 243.584 490.986 243.552 490.877 243.49C490.772 243.428 490.687 243.344 490.625 243.238C490.563 243.132 490.533 243.017 490.536 242.893C490.533 242.769 490.563 242.654 490.625 242.548C490.687 242.442 490.772 242.358 490.877 242.296C490.986 242.233 491.103 242.202 491.23 242.202C491.352 242.202 491.466 242.233 491.571 242.296C491.677 242.358 491.761 242.442 491.824 242.548C491.888 242.654 491.92 242.769 491.92 242.893C491.92 243.017 491.888 243.132 491.824 243.238C491.761 243.344 491.677 243.428 491.571 243.49C491.466 243.552 491.352 243.584 491.23 243.584ZM492.872 248L492.869 247.22L495.32 244.744C495.617 244.435 495.844 244.187 496.001 243.998C496.157 243.809 496.277 243.625 496.36 243.445C496.445 243.264 496.488 243.073 496.488 242.872C496.488 242.644 496.43 242.444 496.315 242.271C496.2 242.099 496.042 241.966 495.842 241.874C495.644 241.78 495.422 241.733 495.175 241.733C494.918 241.733 494.691 241.785 494.495 241.888C494.302 241.989 494.152 242.134 494.046 242.323C493.943 242.512 493.891 242.732 493.891 242.983H492.869C492.869 242.559 492.968 242.185 493.166 241.86C493.366 241.534 493.642 241.28 493.995 241.101C494.349 240.921 494.75 240.831 495.196 240.831C495.643 240.831 496.041 240.919 496.391 241.094C496.741 241.269 497.014 241.509 497.209 241.816C497.407 242.119 497.507 242.461 497.51 242.841C497.507 243.113 497.456 243.373 497.354 243.622C497.253 243.87 497.08 244.148 496.836 244.454C496.595 244.758 496.25 245.128 495.804 245.566L494.367 247.026V247.078H497.624V248H492.872ZM500.978 248.114C500.435 248.114 499.969 247.971 499.58 247.686C499.193 247.4 498.897 246.985 498.692 246.439C498.487 245.891 498.385 245.234 498.385 244.468C498.385 243.706 498.487 243.053 498.692 242.51C498.899 241.964 499.197 241.549 499.587 241.263C499.976 240.975 500.439 240.831 500.978 240.831C501.517 240.831 501.981 240.975 502.37 241.263C502.761 241.549 503.059 241.964 503.264 242.51C503.471 243.053 503.575 243.706 503.575 244.468C503.575 245.234 503.472 245.891 503.267 246.439C503.063 246.985 502.766 247.4 502.377 247.686C501.988 247.971 501.521 248.114 500.978 248.114ZM500.978 247.189C501.298 247.189 501.572 247.084 501.8 246.874C502.028 246.665 502.202 246.358 502.321 245.952C502.443 245.545 502.504 245.05 502.504 244.468C502.504 243.887 502.443 243.394 502.321 242.986C502.199 242.579 502.024 242.27 501.796 242.061C501.569 241.851 501.296 241.747 500.978 241.747C500.663 241.747 500.391 241.851 500.163 242.061C499.935 242.27 499.76 242.579 499.638 242.986C499.516 243.394 499.455 243.887 499.455 244.468C499.455 245.05 499.515 245.545 499.635 245.952C499.755 246.358 499.928 246.665 500.156 246.874C500.386 247.084 500.66 247.189 500.978 247.189ZM505.085 247.123C504.959 247.123 504.841 247.092 504.733 247.03C504.627 246.968 504.543 246.884 504.481 246.778C504.419 246.672 504.389 246.557 504.391 246.432C504.389 246.308 504.419 246.193 504.481 246.087C504.543 245.981 504.627 245.897 504.733 245.835C504.841 245.773 504.959 245.742 505.085 245.742C505.207 245.742 505.321 245.773 505.427 245.835C505.533 245.897 505.617 245.981 505.679 246.087C505.744 246.193 505.776 246.308 505.776 246.432C505.776 246.557 505.744 246.672 505.679 246.778C505.617 246.884 505.533 246.968 505.427 247.03C505.321 247.092 505.207 247.123 505.085 247.123ZM505.085 243.584C504.959 243.584 504.841 243.552 504.733 243.49C504.627 243.428 504.543 243.344 504.481 243.238C504.419 243.132 504.389 243.017 504.391 242.893C504.389 242.769 504.419 242.654 504.481 242.548C504.543 242.442 504.627 242.358 504.733 242.296C504.841 242.233 504.959 242.202 505.085 242.202C505.207 242.202 505.321 242.233 505.427 242.296C505.533 242.358 505.617 242.442 505.679 242.548C505.744 242.654 505.776 242.769 505.776 242.893C505.776 243.017 505.744 243.132 505.679 243.238C505.617 243.344 505.533 243.428 505.427 243.49C505.321 243.552 505.207 243.584 505.085 243.584ZM509.235 248.097C508.754 248.097 508.322 248.015 507.94 247.852C507.56 247.688 507.26 247.459 507.039 247.164C506.82 246.87 506.705 246.532 506.694 246.153H507.781C507.793 246.355 507.863 246.534 507.992 246.688C508.123 246.842 508.296 246.962 508.51 247.047C508.724 247.13 508.962 247.171 509.225 247.171C509.508 247.171 509.761 247.123 509.984 247.026C510.21 246.93 510.385 246.794 510.509 246.619C510.636 246.444 510.699 246.245 510.699 246.021C510.701 245.787 510.639 245.578 510.513 245.396C510.388 245.215 510.205 245.073 509.964 244.972C509.724 244.87 509.439 244.82 509.107 244.82H508.506V243.943H509.107C509.374 243.943 509.611 243.897 509.819 243.805C510.026 243.71 510.187 243.578 510.302 243.407C510.419 243.237 510.478 243.04 510.478 242.817C510.478 242.603 510.427 242.414 510.326 242.251C510.225 242.085 510.081 241.957 509.895 241.867C509.71 241.778 509.495 241.733 509.249 241.733C509.009 241.733 508.786 241.775 508.579 241.86C508.374 241.943 508.208 242.063 508.082 242.22C507.955 242.376 507.887 242.558 507.878 242.765H506.842C506.854 242.39 506.968 242.056 507.184 241.764C507.4 241.469 507.69 241.24 508.054 241.077C508.418 240.913 508.82 240.831 509.259 240.831C509.708 240.831 510.104 240.919 510.447 241.094C510.792 241.267 511.057 241.5 511.241 241.795C511.428 242.087 511.52 242.41 511.517 242.762C511.52 243.024 511.469 243.262 511.366 243.477C511.264 243.691 511.119 243.87 510.93 244.015C510.742 244.158 510.521 244.26 510.267 244.323V244.378C510.583 244.422 510.855 244.519 511.082 244.671C511.313 244.823 511.488 245.018 511.607 245.255C511.727 245.492 511.786 245.76 511.783 246.059C511.786 246.446 511.676 246.795 511.455 247.106C511.237 247.414 510.933 247.657 510.544 247.834C510.155 248.009 509.718 248.097 509.235 248.097ZM512.668 248L512.665 247.22L515.117 244.744C515.414 244.435 515.64 244.187 515.797 243.998C515.953 243.809 516.073 243.625 516.156 243.445C516.241 243.264 516.284 243.073 516.284 242.872C516.284 242.644 516.226 242.444 516.111 242.271C515.996 242.099 515.838 241.966 515.638 241.874C515.44 241.78 515.218 241.733 514.972 241.733C514.714 241.733 514.487 241.785 514.291 241.888C514.098 241.989 513.948 242.134 513.842 242.323C513.739 242.512 513.687 242.732 513.687 242.983H512.665C512.665 242.559 512.764 242.185 512.962 241.86C513.162 241.534 513.438 241.28 513.791 241.101C514.145 240.921 514.546 240.831 514.992 240.831C515.439 240.831 515.837 240.919 516.187 241.094C516.537 241.269 516.81 241.509 517.005 241.816C517.203 242.119 517.303 242.461 517.306 242.841C517.303 243.113 517.252 243.373 517.15 243.622C517.049 243.87 516.876 244.148 516.632 244.454C516.391 244.758 516.047 245.128 515.6 245.566L514.164 247.026V247.078H517.42V248H512.668Z" fill="#353535"/>
<rect x="122" y="269" width="309" height="1" fill="#EEEEEE"/>
<rect x="122.5" y="282.5" width="46" height="24" rx="2.5" stroke="#EEEEEE"/>
<path opacity="0.88" d="M133.47 292.103C133.47 293.104 134.12 294.045 135.342 294.432L134.814 295.196C133.957 294.906 133.342 294.326 133.004 293.588C132.652 294.432 132.011 295.095 131.096 295.416L130.569 294.651C131.852 294.203 132.485 293.148 132.494 292.015V291.259H133.47V292.103ZM136.924 290.837V292.771H138.031V293.579H136.924V295.592H135.948V290.837H136.924ZM134.34 295.768C135.983 295.759 136.994 296.321 137.003 297.262C136.994 298.22 135.983 298.773 134.34 298.773C132.679 298.773 131.65 298.22 131.65 297.262C131.65 296.321 132.679 295.759 134.34 295.768ZM134.34 296.532C133.25 296.532 132.626 296.796 132.626 297.262C132.626 297.754 133.25 298 134.34 298C135.429 298 136.036 297.754 136.036 297.262C136.036 296.796 135.429 296.532 134.34 296.532ZM140.614 292.92C140.614 294.203 141.062 295.539 142.134 296.216L141.598 296.963C140.882 296.532 140.416 295.79 140.157 294.915C139.867 295.877 139.357 296.69 138.61 297.147L138.004 296.418C139.155 295.715 139.673 294.317 139.673 292.964V291.54H140.614V292.92ZM144.991 290.837V298.782H144.05V290.837H144.991ZM143.338 290.978V298.396H142.416V294.379H141.282V293.57H142.416V290.978H143.338ZM152.873 297.024V297.824H145.614V297.024H148.751V295.196H149.727V297.024H152.873ZM152.249 291.479V292.278H149.745C149.775 293.421 150.953 294.471 152.583 294.713L152.197 295.486C150.852 295.24 149.753 294.533 149.244 293.544C148.729 294.546 147.64 295.28 146.317 295.53L145.93 294.757C147.517 294.489 148.685 293.421 148.716 292.278H146.22V291.479H152.249ZM159.71 290.837V298.782H158.735V290.837H159.71ZM153.127 296.576C153.76 296.572 154.476 296.572 155.228 296.55V295.82C154.331 295.68 153.751 295.13 153.751 294.379C153.751 293.482 154.542 292.885 155.702 292.885C156.871 292.885 157.68 293.482 157.68 294.379C157.68 295.126 157.095 295.671 156.203 295.812V296.515C156.902 296.484 157.605 296.427 158.269 296.339L158.339 297.068C156.59 297.367 154.7 297.385 153.268 297.385L153.127 296.576ZM158.128 291.751V292.524H153.294V291.751H155.228V290.863H156.203V291.751H158.128ZM155.702 293.632C155.105 293.641 154.674 293.913 154.683 294.379C154.674 294.836 155.105 295.108 155.702 295.1C156.326 295.108 156.739 294.836 156.739 294.379C156.739 293.913 156.326 293.641 155.702 293.632Z" fill="#353535"/>
</g>
<defs>
<filter id="filter0_d_283_2503" x="67.8" y="155.8" width="518.4" height="214.4" filterUnits="userSpaceOnUse" color-interpolation-filters="sRGB">
<feFlood flood-opacity="0" result="BackgroundImageFix"/>
<feColorMatrix in="SourceAlpha" type="matrix" values="0 0 0 0 0 0 0 0 0 0 0 0 0 0 0 0 0 0 127 0" result="hardAlpha"/>
<feOffset dy="21"/>
<feGaussianBlur stdDeviation="10.6"/>
<feComposite in2="hardAlpha" operator="out"/>
<feColorMatrix type="matrix" values="0 0 0 0 0 0 0 0 0 0 0 0 0 0 0 0 0 0 0.06 0"/>
<feBlend mode="normal" in2="BackgroundImageFix" result="effect1_dropShadow_283_2503"/>
<feBlend mode="normal" in="SourceGraphic" in2="effect1_dropShadow_283_2503" result="shape"/>
</filter>
<clipPath id="clip0_283_2503">
<rect width="440" height="500" rx="16" fill="white"/>
</clipPath>
</defs>
</svg>
