<svg width="440" height="500" viewBox="0 0 440 500" fill="none" xmlns="http://www.w3.org/2000/svg">
<g clip-path="url(#clip0_283_2600)">
<rect x="60" y="60" width="560" height="502" rx="22" fill="white"/>
<path d="M101.354 97.588C101.354 97.952 101.27 98.218 101.102 98.386C100.934 98.554 100.668 98.638 100.304 98.638H91.33V94.424C91.33 94.1253 91.3953 93.9107 91.526 93.78C91.6567 93.6493 91.8713 93.584 92.17 93.584H101.354V97.588ZM102.236 101.074H97.322V103.748H95.922V101.074H90.448V99.814H102.236V101.074ZM99.954 97.378V94.844H92.73V97.378H99.954ZM101.424 106.254H91.4V102.32H92.8V104.994H101.424V106.254ZM113.72 106.212H112.32V99.506H110.094V105.204H108.694V94.97H107.602C107.303 94.97 107.093 95.0307 106.972 95.152C106.85 95.264 106.762 95.432 106.705 95.656L104.325 105.204H102.841L105.236 95.544C105.301 95.2733 105.376 95.026 105.46 94.802C105.553 94.578 105.67 94.3867 105.81 94.228C105.959 94.06 106.141 93.934 106.356 93.85C106.57 93.7567 106.841 93.71 107.168 93.71H110.094V98.218H112.32V93.556H113.72V106.212ZM121.476 106.212C120.626 106.212 119.968 105.993 119.502 105.554C119.035 105.125 118.802 104.513 118.802 103.72C118.802 102.927 119.035 102.315 119.502 101.886C119.968 101.447 120.626 101.228 121.476 101.228H126.222C127.071 101.228 127.729 101.447 128.196 101.886C128.662 102.315 128.896 102.927 128.896 103.72C128.896 104.513 128.662 105.125 128.196 105.554C127.729 105.993 127.071 106.212 126.222 106.212H121.476ZM125.648 97.21C125.648 97.686 125.559 98.1153 125.382 98.498C125.214 98.8713 124.971 99.1933 124.654 99.464C124.346 99.7253 123.968 99.9307 123.52 100.08C123.081 100.22 122.596 100.29 122.064 100.29C121.532 100.29 121.042 100.22 120.594 100.08C120.155 99.9307 119.777 99.7253 119.46 99.464C119.152 99.1933 118.909 98.8713 118.732 98.498C118.564 98.1153 118.48 97.686 118.48 97.21V96.552C118.48 96.076 118.564 95.6513 118.732 95.278C118.909 94.8953 119.152 94.5733 119.46 94.312C119.777 94.0413 120.155 93.836 120.594 93.696C121.042 93.5467 121.532 93.472 122.064 93.472C122.596 93.472 123.081 93.5467 123.52 93.696C123.968 93.836 124.346 94.0413 124.654 94.312C124.971 94.5733 125.214 94.8953 125.382 95.278C125.559 95.6513 125.648 96.076 125.648 96.552V97.21ZM126.04 104.952C126.534 104.952 126.898 104.835 127.132 104.602C127.374 104.378 127.496 104.084 127.496 103.72C127.496 103.356 127.374 103.062 127.132 102.838C126.898 102.605 126.534 102.488 126.04 102.488H121.658C121.163 102.488 120.794 102.605 120.552 102.838C120.318 103.062 120.202 103.356 120.202 103.72C120.202 104.084 120.318 104.378 120.552 104.602C120.794 104.835 121.163 104.952 121.658 104.952H126.04ZM124.248 96.622C124.248 96.0247 124.047 95.5627 123.646 95.236C123.244 94.9 122.717 94.732 122.064 94.732C121.41 94.732 120.883 94.9 120.482 95.236C120.08 95.5627 119.88 96.0247 119.88 96.622V97.14C119.88 97.7373 120.08 98.204 120.482 98.54C120.883 98.8667 121.41 99.03 122.064 99.03C122.717 99.03 123.244 98.8667 123.646 98.54C124.047 98.204 124.248 97.7373 124.248 97.14V96.622ZM128.644 100.92H127.244V93.556H128.644V94.83H130.296V96.118H128.644V97.798H130.296V99.086H128.644V100.92ZM141.471 106.212H140.071V102.544H131.699V101.284H141.471V106.212ZM141.471 100.64H140.071V93.556H141.471V100.64ZM138.125 100.36H136.725V94.97H135.213C134.915 94.97 134.7 95.0307 134.569 95.152C134.448 95.264 134.336 95.432 134.233 95.656L132.147 100.36H130.593L132.805 95.334C132.927 95.0727 133.039 94.8393 133.141 94.634C133.244 94.4287 133.365 94.2607 133.505 94.13C133.655 93.99 133.832 93.8873 134.037 93.822C134.243 93.7473 134.504 93.71 134.821 93.71H138.125V100.36ZM157.095 106.212H147.253V102.53H155.555V101.522H147.225V100.262H156.955V102.922C156.955 103.221 156.89 103.435 156.759 103.566C156.629 103.697 156.414 103.762 156.115 103.762H148.653V104.952H157.095V106.212ZM156.955 99.66H155.555V96.958H153.329V99.38H151.929V94.97H150.697C150.548 94.97 150.422 94.9887 150.319 95.026C150.226 95.054 150.142 95.1007 150.067 95.166C150.002 95.222 149.941 95.292 149.885 95.376C149.829 95.46 149.773 95.5533 149.717 95.656L147.631 99.38H146.077L148.289 95.334C148.429 95.082 148.551 94.858 148.653 94.662C148.765 94.4567 148.891 94.284 149.031 94.144C149.171 94.004 149.339 93.8967 149.535 93.822C149.731 93.7473 149.988 93.71 150.305 93.71H153.329V95.67H155.555V93.556H156.955V99.66ZM161.915 106.212C161.066 106.212 160.408 105.993 159.941 105.554C159.474 105.125 159.241 104.513 159.241 103.72C159.241 102.927 159.474 102.315 159.941 101.886C160.408 101.447 161.066 101.228 161.915 101.228H166.801C167.65 101.228 168.308 101.447 168.775 101.886C169.242 102.315 169.475 102.927 169.475 103.72C169.475 104.513 169.242 105.125 168.775 105.554C168.308 105.993 167.65 106.212 166.801 106.212H161.915ZM166.003 100.36H164.533L162.951 95.264C162.914 95.152 162.876 95.0773 162.839 95.04C162.811 94.9933 162.746 94.97 162.643 94.97H161.677C161.574 94.97 161.504 94.9933 161.467 95.04C161.439 95.0867 161.406 95.1613 161.369 95.264L159.703 100.36H158.233L159.997 94.97H158.415V93.71H166.059V94.97H164.337L166.003 100.36ZM166.619 104.952C167.114 104.952 167.478 104.835 167.711 104.602C167.954 104.378 168.075 104.084 168.075 103.72C168.075 103.356 167.954 103.062 167.711 102.838C167.478 102.605 167.114 102.488 166.619 102.488H162.097C161.602 102.488 161.234 102.605 160.991 102.838C160.758 103.062 160.641 103.356 160.641 103.72C160.641 104.084 160.758 104.378 160.991 104.602C161.234 104.835 161.602 104.952 162.097 104.952H166.619ZM169.223 100.78H167.823V97.532H165.569V96.244H167.823V93.556H169.223V100.78Z" fill="black"/>
<rect x="89.5" y="323.5" width="475" height="152" rx="10.5" fill="white" stroke="#EEEEEE"/>
<path opacity="0.88" d="M201.207 437.08V439.258H202.457V440.049H201.207V442.236H200.279V437.08H201.207ZM201.207 442.607V444.434H196.373V445.098H201.529V445.742H195.445V443.838H200.289V443.252H195.426V442.607H201.207ZM194.264 441.406C194.942 441.406 195.729 441.406 196.549 441.377V440.889C195.543 440.796 194.918 440.396 194.928 439.736C194.918 439.023 195.738 438.604 197.008 438.604C198.268 438.604 199.088 439.023 199.088 439.736C199.088 440.391 198.468 440.791 197.477 440.889V441.348C198.258 441.309 199.049 441.245 199.781 441.143L199.859 441.748C197.975 442.061 195.904 442.07 194.361 442.07L194.264 441.406ZM199.537 437.705V438.35H194.488V437.705H196.549V437.002H197.477V437.705H199.537ZM197.008 439.209C196.256 439.209 195.807 439.404 195.807 439.736C195.807 440.088 196.256 440.303 197.008 440.303C197.75 440.303 198.199 440.088 198.199 439.736C198.199 439.404 197.75 439.209 197.008 439.209ZM205.77 438.389C205.77 439.619 206.561 440.713 207.889 441.143L207.382 441.865C206.42 441.519 205.712 440.845 205.331 439.971C204.95 440.972 204.188 441.748 203.134 442.129L202.636 441.387C204.032 440.908 204.843 439.746 204.852 438.428V437.568H205.77V438.389ZM209.96 437.08V442.246H209.032V439.619H207.186V438.857H209.032V437.08H209.96ZM207.03 442.49C208.866 442.49 209.989 443.096 209.989 444.16C209.989 445.215 208.866 445.82 207.03 445.811C205.194 445.82 204.061 445.215 204.071 444.16C204.061 443.096 205.194 442.49 207.03 442.49ZM207.03 443.213C205.751 443.213 204.989 443.555 204.989 444.16C204.989 444.746 205.751 445.078 207.03 445.078C208.309 445.078 209.071 444.746 209.071 444.16C209.071 443.555 208.309 443.213 207.03 443.213ZM217.863 437.08V440.742H219.181V441.523H217.863V445.83H216.935V437.08H217.863ZM210.9 443.447C211.588 443.447 212.389 443.447 213.224 443.418V442.529C212.238 442.393 211.593 441.797 211.603 440.947C211.593 439.961 212.443 439.307 213.693 439.307C214.933 439.307 215.793 439.961 215.802 440.947C215.793 441.797 215.138 442.397 214.152 442.539V443.379C214.928 443.35 215.71 443.286 216.437 443.184L216.496 443.867C214.601 444.209 212.55 444.219 211.046 444.219L210.9 443.447ZM216.31 438.115V438.857H211.066V438.115H213.224V437.1H214.152V438.115H216.31ZM213.693 440.029C212.961 440.029 212.472 440.391 212.472 440.947C212.472 441.504 212.961 441.846 213.693 441.846C214.425 441.846 214.914 441.504 214.914 440.947C214.914 440.391 214.425 440.029 213.693 440.029Z" fill="#888888"/>
<rect x="177" y="434" width="1" height="16" fill="#EEEEEE"/>
<path d="M134.088 365.832H132.488V361.64H129.784C129.475 362.216 129.005 362.664 128.376 362.984C127.757 363.304 127.021 363.464 126.168 363.464C125.56 363.464 125.011 363.384 124.52 363.224C124.029 363.053 123.608 362.819 123.256 362.52C122.904 362.211 122.632 361.843 122.44 361.416C122.248 360.979 122.152 360.488 122.152 359.944V358.488C122.152 357.944 122.248 357.459 122.44 357.032C122.632 356.595 122.904 356.227 123.256 355.928C123.608 355.619 124.029 355.384 124.52 355.224C125.011 355.053 125.56 354.968 126.168 354.968C126.979 354.968 127.683 355.112 128.28 355.4C128.888 355.688 129.357 356.099 129.688 356.632H132.488V355.064H134.088V365.832ZM128.584 358.568C128.584 357.885 128.365 357.357 127.928 356.984C127.491 356.6 126.904 356.408 126.168 356.408C125.432 356.408 124.845 356.6 124.408 356.984C123.971 357.357 123.752 357.885 123.752 358.568V359.864C123.752 360.547 123.971 361.08 124.408 361.464C124.845 361.837 125.432 362.024 126.168 362.024C126.904 362.024 127.491 361.837 127.928 361.464C128.365 361.08 128.584 360.547 128.584 359.864V358.568ZM134.184 369.528H123V364.44H124.6V368.088H134.184V369.528ZM132.488 360.168V358.104H130.168C130.168 358.168 130.168 358.232 130.168 358.296C130.179 358.36 130.184 358.424 130.184 358.488V359.944V360.168H132.488ZM144.684 368.376H143.084L141.276 358.088C141.212 357.704 141.047 357.512 140.78 357.512H139.788C139.511 357.512 139.34 357.704 139.276 358.088L137.388 368.376H135.788L137.788 357.512H136.044V356.072H139.484V354.408H141.084V356.072H144.668V357.512H142.764L144.684 368.376ZM147.948 369.528H146.348V355.064H147.948V360.76H149.836V362.232H147.948V369.528ZM167.244 365.832H165.644V355.064H167.244V365.832ZM167.34 369.528H156.156V364.44H157.756V368.088H167.34V369.528ZM163.42 363.576H161.82V356.68H160.092C159.751 356.68 159.506 356.744 159.356 356.872C159.207 357 159.079 357.197 158.972 357.464L156.588 363.576H154.812L157.34 357.096C157.458 356.787 157.575 356.515 157.692 356.28C157.81 356.045 157.954 355.853 158.124 355.704C158.295 355.544 158.498 355.427 158.732 355.352C158.978 355.277 159.282 355.24 159.644 355.24H163.42V363.576ZM178.976 364.152C179.947 364.152 180.699 364.387 181.232 364.856C181.766 365.315 182.032 365.976 182.032 366.84C182.032 367.704 181.766 368.365 181.232 368.824C180.699 369.293 179.947 369.528 178.976 369.528H173.392C172.422 369.528 171.67 369.293 171.136 368.824C170.603 368.365 170.336 367.704 170.336 366.84C170.336 365.976 170.603 365.315 171.136 364.856C171.67 364.387 172.422 364.152 173.392 364.152H178.976ZM178.064 363.16H176.384L174.576 357.656C174.534 357.528 174.491 357.443 174.448 357.4C174.416 357.347 174.342 357.32 174.224 357.32H173.12C173.003 357.32 172.923 357.347 172.88 357.4C172.848 357.453 172.811 357.539 172.768 357.656L170.864 363.16H169.184L171.2 357.32H169.392V355.88H172.88V354.248H174.48V355.88H178.128V357.32H176.16L178.064 363.16ZM178.768 368.088C179.334 368.088 179.75 367.976 180.016 367.752C180.294 367.528 180.432 367.224 180.432 366.84C180.432 366.456 180.294 366.152 180.016 365.928C179.75 365.704 179.334 365.592 178.768 365.592H173.6C173.035 365.592 172.614 365.704 172.336 365.928C172.07 366.152 171.936 366.456 171.936 366.84C171.936 367.224 172.07 367.528 172.336 367.752C172.614 367.976 173.035 368.088 173.6 368.088H178.768ZM181.744 363.64H180.144V360.152H177.728V358.68H180.144V355.064H181.744V363.64ZM196.244 369.528H194.644V361.864H192.1V368.376H190.5V356.68H189.252C188.911 356.68 188.671 356.749 188.532 356.888C188.394 357.016 188.292 357.208 188.228 357.464L185.508 368.376H183.812L186.548 357.336C186.623 357.027 186.708 356.744 186.804 356.488C186.911 356.232 187.044 356.013 187.204 355.832C187.375 355.64 187.583 355.496 187.828 355.4C188.074 355.293 188.383 355.24 188.756 355.24H192.1V360.392H194.644V355.064H196.244V369.528Z" fill="black"/>
<path opacity="0.88" d="M124.744 388.48C125.896 388.471 126.785 389.14 126.98 390.121H128.689V388.08H129.617V392.777H128.689V390.883H126.99C126.8 391.889 125.906 392.562 124.744 392.562C123.406 392.562 122.449 391.723 122.449 390.512C122.449 389.32 123.406 388.471 124.744 388.48ZM124.744 389.252C123.914 389.252 123.338 389.76 123.338 390.512C123.338 391.264 123.914 391.781 124.744 391.781C125.555 391.781 126.131 391.264 126.131 390.512C126.131 389.76 125.555 389.252 124.744 389.252ZM124.832 393.197V394.213H128.689V393.197H129.617V396.723H123.914V393.197H124.832ZM124.832 395.961H128.689V394.945H124.832V395.961ZM138.663 393.1V393.852H135.089V396.82H134.18V393.852H130.655V393.1H138.663ZM137.657 388.549V391.986H131.661V388.549H137.657ZM132.569 389.291V391.264H136.729V389.291H132.569ZM146.302 388.08V393.246H145.375V391.947H143.47V392.66H139.408V388.734H143.47V389.457H145.375V388.08H146.302ZM140.326 389.477V391.918H142.562V389.477H140.326ZM143.373 393.49C145.209 393.49 146.332 394.096 146.332 395.16C146.332 396.215 145.209 396.82 143.373 396.811C141.537 396.82 140.404 396.215 140.414 395.16C140.404 394.096 141.537 393.49 143.373 393.49ZM143.373 394.203C142.093 394.213 141.332 394.545 141.332 395.16C141.332 395.746 142.093 396.098 143.373 396.098C144.652 396.098 145.414 395.746 145.414 395.16C145.414 394.545 144.652 394.213 143.373 394.203ZM143.47 391.195H145.375V390.199H143.47V391.195Z" fill="#888888"/>
<path opacity="0.88" d="M161.314 388.598V389.291C161.314 390.033 161.314 390.902 161.1 392.055H162.33V392.816H154.322V392.055H160.162C160.392 390.917 160.396 390.087 160.396 389.35H155.328V388.598H161.314ZM161.578 395.883V396.645H155.367V393.725H156.285V395.883H161.578ZM166.503 389.057V389.799H163.886V391.361H166.356V392.094H163.886V393.939C165.067 393.935 165.848 393.886 166.776 393.734L166.854 394.496C165.829 394.682 164.979 394.721 163.583 394.721H162.997V389.057H166.503ZM170.194 388.08V396.83H169.305V392.309H168.251V396.4H167.362V388.246H168.251V391.557H169.305V388.08H170.194ZM178.305 392.943L173.715 395.16V394.105L177.065 392.572V392.523L173.715 391V389.936L178.305 392.162V392.943ZM188.877 389.018V389.76H181.758V389.018H184.873V388.041H185.791V389.018H188.877ZM189.355 393.676V394.428H187.334V396.84H186.396V394.428H184.287V396.84H183.359V394.428H181.348V393.676H189.355ZM185.332 390.209C187.148 390.209 188.242 390.727 188.242 391.674C188.242 392.611 187.148 393.139 185.332 393.139C183.506 393.139 182.412 392.611 182.422 391.674C182.412 390.727 183.506 390.209 185.332 390.209ZM185.332 390.912C184.072 390.922 183.379 391.176 183.379 391.674C183.379 392.162 184.072 392.426 185.332 392.426C186.582 392.426 187.275 392.162 187.285 391.674C187.275 391.176 186.582 390.922 185.332 390.912ZM197.688 393.1V393.852H194.114V396.82H193.206V393.852H189.68V393.1H197.688ZM196.682 388.549V391.986H190.686V388.549H196.682ZM191.595 389.291V391.264H195.755V389.291H191.595ZM205.33 392.943L200.741 395.16V394.105L204.09 392.572V392.523L200.741 391V389.936L205.33 392.162V392.943ZM215.668 388.09V394.535H214.74V392.26H212.572C212.157 392.753 211.522 393.051 210.795 393.051C209.477 393.051 208.5 392.133 208.5 390.844C208.5 389.545 209.477 388.627 210.795 388.617C211.518 388.622 212.147 388.92 212.562 389.408H214.74V388.09H215.668ZM215.902 395.893V396.645H209.984V393.861H210.912V395.893H215.902ZM210.795 389.447C209.975 389.447 209.389 390.014 209.389 390.844C209.389 391.674 209.975 392.23 210.795 392.23C211.586 392.23 212.182 391.674 212.182 390.844C212.182 390.014 211.586 389.447 210.795 389.447ZM212.973 390.16C213.031 390.37 213.07 390.6 213.07 390.844C213.07 391.078 213.036 391.303 212.973 391.508H214.74V390.16H212.973ZM219.714 390.893C219.714 392.24 220.534 393.666 221.843 394.291L221.315 394.994C220.363 394.545 219.645 393.632 219.274 392.562C218.888 393.72 218.127 394.687 217.126 395.15L216.608 394.438C217.936 393.832 218.805 392.338 218.805 390.893V390.316H216.872V389.574H218.796V388.256H219.733V389.574H221.638V390.316H219.714V390.893ZM223.532 388.08V391.605H224.938V392.387H223.532V396.83H222.604V388.08H223.532Z" fill="#353535"/>
<path opacity="0.88" d="M244.438 389.32V390.082H243.197V391.195H244.438V391.967H243.197V393.246H242.27V388.08H243.197V389.32H244.438ZM238.783 388.588C240.121 388.588 241.107 389.438 241.117 390.668C241.107 391.889 240.121 392.738 238.783 392.748C237.445 392.738 236.449 391.889 236.459 390.668C236.449 389.438 237.445 388.588 238.783 388.588ZM238.783 389.369C237.963 389.369 237.357 389.896 237.367 390.668C237.357 391.449 237.963 391.957 238.783 391.967C239.604 391.957 240.209 391.449 240.209 390.668C240.209 389.896 239.604 389.369 238.783 389.369ZM240.375 393.48C242.162 393.48 243.275 394.096 243.275 395.15C243.275 396.195 242.162 396.82 240.375 396.811C238.568 396.82 237.436 396.195 237.436 395.15C237.436 394.096 238.568 393.48 240.375 393.48ZM240.375 394.232C239.105 394.232 238.354 394.564 238.363 395.15C238.354 395.746 239.105 396.068 240.375 396.068C241.635 396.068 242.367 395.746 242.367 395.15C242.367 394.564 241.635 394.232 240.375 394.232ZM247.848 389.34C247.839 390.551 248.669 391.654 250.016 392.104L249.548 392.836C248.537 392.479 247.775 391.767 247.38 390.854C246.989 391.835 246.222 392.611 245.182 392.982L244.714 392.26C246.081 391.771 246.901 390.59 246.901 389.34V388.5H247.848V389.34ZM251.921 393.754V396.83H250.993V394.506H245.993V393.754H251.921ZM251.921 388.08V393.334H250.993V388.08H251.921ZM262.112 388.627V389.398C262.112 390.229 262.112 391.127 261.868 392.377H263.127V393.139H259.582V396.84H258.645V393.139H255.149V392.377H260.93C261.194 391.132 261.194 390.214 261.194 389.398V389.389H256.125V388.627H262.112ZM271.489 392.66V393.402H268.013V395.014H267.095V393.402H263.482V392.66H271.489ZM270.601 395.893V396.645H264.478V394.252H265.396V395.893H270.601ZM265.454 388.354V389.418H269.507V388.354H270.435V391.889H264.536V388.354H265.454ZM265.454 391.146H269.507V390.111H265.454V391.146Z" fill="#888888"/>
<path opacity="0.88" d="M285.578 388.09V394.496H284.65V388.09H285.578ZM285.842 395.893V396.645H279.855V393.891H280.793V395.893H285.842ZM281.506 389.438C281.496 390.717 282.316 391.889 283.664 392.357L283.186 393.1C282.175 392.724 281.428 391.981 281.037 391.029C280.651 392.045 279.895 392.86 278.869 393.256L278.371 392.523C279.748 392.016 280.559 390.756 280.559 389.438V388.568H281.506V389.438ZM289.731 389.945C289.731 390.971 290.581 391.938 291.909 392.309L291.47 393.031C290.459 392.743 289.692 392.118 289.292 391.312C288.911 392.216 288.149 392.929 287.104 393.256L286.665 392.543C287.993 392.113 288.813 391.068 288.813 389.945V389.838H286.909V389.096H288.813V388.041H289.741V389.096H291.636V389.838H289.731V389.945ZM293.96 388.08V393.383H293.032V391.293H291.362V390.531H293.032V388.08H293.96ZM291.03 393.578C292.856 393.578 293.989 394.164 293.989 395.189C293.989 396.225 292.856 396.82 291.03 396.811C289.194 396.82 288.061 396.225 288.071 395.189C288.061 394.164 289.194 393.578 291.03 393.578ZM291.03 394.301C289.751 394.301 288.989 394.623 288.989 395.189C288.989 395.756 289.751 396.098 291.03 396.098C292.319 396.098 293.071 395.756 293.071 395.189C293.071 394.623 292.319 394.301 291.03 394.301ZM298.162 390.307C298.162 391.908 299.06 393.5 300.398 394.105L299.832 394.848C298.836 394.35 298.088 393.358 297.703 392.162C297.317 393.422 296.55 394.486 295.545 395.014L294.959 394.262C296.316 393.617 297.224 391.928 297.224 390.307V388.812H298.162V390.307ZM302.302 388.08V396.85H301.384V391.742H299.431V390.99H301.384V388.08H302.302Z" fill="#353535"/>
<path opacity="0.88" d="M316.998 389.76C316.998 390.717 317.613 391.684 318.746 392.113L318.258 392.826C317.442 392.514 316.871 391.918 316.559 391.195C316.236 392.011 315.636 392.719 314.791 393.08L314.283 392.357C315.465 391.84 316.1 390.736 316.1 389.76V388.627H316.998V389.76ZM321.783 388.09V393.471H320.904V391.127H319.879V393.197H319.02V388.246H319.879V390.365H320.904V388.09H321.783ZM318.854 393.637C320.68 393.637 321.822 394.232 321.832 395.229C321.822 396.225 320.68 396.82 318.854 396.811C317.027 396.82 315.885 396.225 315.895 395.229C315.885 394.232 317.027 393.637 318.854 393.637ZM318.854 394.35C317.584 394.35 316.803 394.672 316.812 395.229C316.803 395.785 317.584 396.107 318.854 396.098C320.123 396.107 320.895 395.785 320.904 395.229C320.895 394.672 320.123 394.35 318.854 394.35ZM325.77 389.389C325.77 390.619 326.561 391.713 327.889 392.143L327.382 392.865C326.42 392.519 325.712 391.845 325.331 390.971C324.95 391.972 324.188 392.748 323.134 393.129L322.636 392.387C324.032 391.908 324.843 390.746 324.852 389.428V388.568H325.77V389.389ZM329.96 388.08V393.246H329.032V390.619H327.186V389.857H329.032V388.08H329.96ZM327.03 393.49C328.866 393.49 329.989 394.096 329.989 395.16C329.989 396.215 328.866 396.82 327.03 396.811C325.194 396.82 324.061 396.215 324.071 395.16C324.061 394.096 325.194 393.49 327.03 393.49ZM327.03 394.213C325.751 394.213 324.989 394.555 324.989 395.16C324.989 395.746 325.751 396.078 327.03 396.078C328.309 396.078 329.071 395.746 329.071 395.16C329.071 394.555 328.309 394.213 327.03 394.213ZM337.97 388.627V389.398C337.97 390.229 337.97 391.127 337.726 392.377H338.986V393.139H335.441V396.84H334.504V393.139H331.007V392.377H336.789C337.052 391.132 337.052 390.214 337.052 389.398V389.389H331.984V388.627H337.97ZM347.348 392.66V393.402H343.871V395.014H342.954V393.402H339.34V392.66H347.348ZM346.459 395.893V396.645H340.336V394.252H341.254V395.893H346.459ZM341.313 388.354V389.418H345.366V388.354H346.293V391.889H340.395V388.354H341.313ZM341.313 391.146H345.366V390.111H341.313V391.146Z" fill="#888888"/>
<path opacity="0.88" d="M361.598 388.08V396.83H360.66V388.08H361.598ZM358.99 389.018C358.99 391.576 357.896 393.803 354.898 395.238L354.41 394.486C356.739 393.378 357.872 391.801 358.053 389.76H354.83V389.018H358.99ZM364.628 388.412V389.447H368.68V388.412H369.608V391.947H367.108V392.807H370.643V393.568H362.665V392.807H366.19V391.947H363.71V388.412H364.628ZM364.628 391.195H368.68V390.17H364.628V391.195ZM369.745 395.893V396.645H363.671V394.193H364.608V395.893H369.745ZM378.517 388.08V396.83H377.629V388.08H378.517ZM376.74 388.266V396.391H375.861V391.938H374.504V391.176H375.861V388.266H376.74ZM373.644 390.521C373.644 392.016 374.25 393.51 375.48 394.223L374.923 394.906C374.088 394.408 373.512 393.524 373.214 392.465C372.897 393.607 372.301 394.579 371.447 395.111L370.88 394.418C372.121 393.666 372.755 392.074 372.755 390.521V389.818H371.144V389.066H375.148V389.818H373.644V390.521ZM383.295 393.578C385.19 393.578 386.381 394.174 386.391 395.199C386.381 396.215 385.19 396.82 383.295 396.811C381.42 396.82 380.219 396.215 380.219 395.199C380.219 394.174 381.42 393.578 383.295 393.578ZM383.295 394.281C381.967 394.281 381.137 394.623 381.147 395.199C381.137 395.766 381.967 396.098 383.295 396.098C384.633 396.098 385.463 395.766 385.473 395.199C385.463 394.623 384.633 394.281 383.295 394.281ZM386.323 388.51V389.242C386.323 389.945 386.323 390.668 386.079 391.566L385.17 391.469C385.405 390.575 385.405 389.931 385.405 389.252H380.288V388.51H386.323ZM387.319 392.104V392.855H379.36V392.104H382.553V390.463H383.461V392.104H387.319Z" fill="#353535"/>
<rect x="122" y="417" width="309" height="1" fill="#EEEEEE"/>
<rect x="228" y="434" width="26.6667" height="16" rx="8" fill="#00AEAE"/>
<circle cx="236" cy="442" r="5.33333" fill="#00AEAE"/>
<g filter="url(#filter0_d_283_2600)">
<circle cx="246.667" cy="442" r="5.33333" fill="white"/>
</g>
<rect x="122.5" y="430.5" width="46" height="24" rx="2.5" stroke="#EEEEEE"/>
<path opacity="0.88" d="M137.31 438.837V444.708H136.335V442.634H135.21V441.825H136.335V441.069H135.21V440.278H136.335V438.837H137.31ZM135.096 439.435V440.217H134.392V442.748C134.691 442.73 134.981 442.708 135.262 442.678L135.306 443.39C133.804 443.636 132.037 443.662 130.771 443.662L130.666 442.854L131.562 442.845V440.217H130.868V439.435H135.096ZM137.512 445.833V446.624H132.09V444.251H133.074V445.833H137.512ZM132.512 442.836L133.452 442.801V440.217H132.512V442.836ZM142.82 439.312V440.094H141.15C141.163 441.025 141.849 441.917 143.101 442.273L142.609 443.038C141.691 442.766 141.027 442.19 140.667 441.456C140.311 442.247 139.629 442.871 138.68 443.17L138.188 442.405C139.458 442.032 140.144 441.078 140.166 440.094H138.452V439.312H142.82ZM144.754 438.837V443.144H143.769V438.837H144.754ZM140.464 443.495V444.312H143.778V443.495H144.754V446.686H139.498V443.495H140.464ZM140.464 445.895H143.778V445.068H140.464V445.895ZM151.836 438.837V442.001H153.058V442.81H151.836V446.782H150.87V438.837H151.836ZM150.254 440.059V440.841H145.57V440.059H147.451V438.951H148.426V440.059H150.254ZM147.943 441.359C149.085 441.359 149.938 442.133 149.938 443.231C149.938 444.33 149.085 445.095 147.943 445.095C146.783 445.095 145.93 444.33 145.939 443.231C145.93 442.133 146.783 441.359 147.943 441.359ZM147.943 442.159C147.319 442.159 146.871 442.581 146.871 443.231C146.871 443.882 147.319 444.295 147.943 444.286C148.549 444.295 148.997 443.882 149.006 443.231C148.997 442.581 148.549 442.159 147.943 442.159ZM159.728 438.837V446.782H158.743V438.837H159.728ZM157.355 439.681C157.355 442.045 156.441 444.058 153.654 445.376L153.145 444.594C155.223 443.605 156.19 442.26 156.362 440.454H153.549V439.681H157.355Z" fill="#353535"/>
<rect x="89.5" y="485.5" width="475" height="152" rx="10.5" fill="white" stroke="#EEEEEE"/>
<g filter="url(#filter1_d_283_2600)">
<rect x="89.5" y="161.5" width="475" height="152" rx="10.5" fill="white" stroke="#EEEEEE"/>
<path opacity="0.88" d="M201.207 275.08V277.258H202.457V278.049H201.207V280.236H200.279V275.08H201.207ZM201.207 280.607V282.434H196.373V283.098H201.529V283.742H195.445V281.838H200.289V281.252H195.426V280.607H201.207ZM194.264 279.406C194.942 279.406 195.729 279.406 196.549 279.377V278.889C195.543 278.796 194.918 278.396 194.928 277.736C194.918 277.023 195.738 276.604 197.008 276.604C198.268 276.604 199.088 277.023 199.088 277.736C199.088 278.391 198.468 278.791 197.477 278.889V279.348C198.258 279.309 199.049 279.245 199.781 279.143L199.859 279.748C197.975 280.061 195.904 280.07 194.361 280.07L194.264 279.406ZM199.537 275.705V276.35H194.488V275.705H196.549V275.002H197.477V275.705H199.537ZM197.008 277.209C196.256 277.209 195.807 277.404 195.807 277.736C195.807 278.088 196.256 278.303 197.008 278.303C197.75 278.303 198.199 278.088 198.199 277.736C198.199 277.404 197.75 277.209 197.008 277.209ZM205.77 276.389C205.77 277.619 206.561 278.713 207.889 279.143L207.382 279.865C206.42 279.519 205.712 278.845 205.331 277.971C204.95 278.972 204.188 279.748 203.134 280.129L202.636 279.387C204.032 278.908 204.843 277.746 204.852 276.428V275.568H205.77V276.389ZM209.96 275.08V280.246H209.032V277.619H207.186V276.857H209.032V275.08H209.96ZM207.03 280.49C208.866 280.49 209.989 281.096 209.989 282.16C209.989 283.215 208.866 283.82 207.03 283.811C205.194 283.82 204.061 283.215 204.071 282.16C204.061 281.096 205.194 280.49 207.03 280.49ZM207.03 281.213C205.751 281.213 204.989 281.555 204.989 282.16C204.989 282.746 205.751 283.078 207.03 283.078C208.309 283.078 209.071 282.746 209.071 282.16C209.071 281.555 208.309 281.213 207.03 281.213ZM217.863 275.08V278.742H219.181V279.523H217.863V283.83H216.935V275.08H217.863ZM210.9 281.447C211.588 281.447 212.389 281.447 213.224 281.418V280.529C212.238 280.393 211.593 279.797 211.603 278.947C211.593 277.961 212.443 277.307 213.693 277.307C214.933 277.307 215.793 277.961 215.802 278.947C215.793 279.797 215.138 280.397 214.152 280.539V281.379C214.928 281.35 215.71 281.286 216.437 281.184L216.496 281.867C214.601 282.209 212.55 282.219 211.046 282.219L210.9 281.447ZM216.31 276.115V276.857H211.066V276.115H213.224V275.1H214.152V276.115H216.31ZM213.693 278.029C212.961 278.029 212.472 278.391 212.472 278.947C212.472 279.504 212.961 279.846 213.693 279.846C214.425 279.846 214.914 279.504 214.914 278.947C214.914 278.391 214.425 278.029 213.693 278.029Z" fill="#888888"/>
<rect x="177" y="272" width="1" height="16" fill="#EEEEEE"/>
<path d="M134.2 202.12H132.52L130.232 196.168C130.125 195.891 129.997 195.693 129.848 195.576C129.709 195.459 129.491 195.4 129.192 195.4H127.304C127.005 195.4 126.781 195.459 126.632 195.576C126.493 195.693 126.371 195.891 126.264 196.168L123.976 202.12H122.296L124.952 195.4H122.52V193.96H127.448V192.36H129.048V193.96H133.976V195.4H131.544L134.2 202.12ZM134.984 206.568H121.512V205.128H127.448V200.68H129.048V205.128H134.984V206.568ZM147.948 207.528H146.348V193.064H147.948V198.2H149.836V199.672H147.948V207.528ZM144.524 201.8H142.924L143.292 195.048C143.303 194.899 143.287 194.803 143.244 194.76C143.212 194.707 143.121 194.68 142.972 194.68H136.62V193.24H144.3C144.567 193.24 144.748 193.309 144.844 193.448C144.94 193.576 144.977 193.763 144.956 194.008L144.524 201.8ZM145.548 206.28H136.076V204.84H138.972V199.112H140.572V204.84H145.548V206.28ZM163.056 207.576H151.6V202.776H153.2V206.136H163.056V207.576ZM162.688 198.968H161.088L161.392 194.984C161.424 194.685 161.275 194.536 160.944 194.536H151.52V193.096H162.32C162.597 193.096 162.805 193.176 162.944 193.336C163.093 193.496 163.157 193.709 163.136 193.976L162.688 198.968ZM163.984 201.336H150.512V199.896H163.984V201.336ZM177.476 198.648C177.476 199.064 177.38 199.368 177.188 199.56C176.996 199.752 176.692 199.848 176.276 199.848H166.02V194.104C166.02 193.763 166.095 193.517 166.244 193.368C166.393 193.219 166.639 193.144 166.98 193.144H177.476V198.648ZM175.876 198.408V194.584H167.62V198.408H175.876ZM178.484 202.728H172.548V207.528H170.948V202.728H165.012V201.288H178.484V202.728ZM196.244 203.832H194.644V193.064H196.244V203.832ZM196.34 207.528H185.156V202.44H186.756V206.088H196.34V207.528ZM192.42 201.576H190.82V194.68H189.092C188.751 194.68 188.506 194.744 188.356 194.872C188.207 195 188.079 195.197 187.972 195.464L185.588 201.576H183.812L186.34 195.096C186.458 194.787 186.575 194.515 186.692 194.28C186.81 194.045 186.954 193.853 187.124 193.704C187.295 193.544 187.498 193.427 187.732 193.352C187.978 193.277 188.282 193.24 188.644 193.24H192.42V201.576ZM207.976 202.152C208.947 202.152 209.699 202.387 210.232 202.856C210.766 203.315 211.032 203.976 211.032 204.84C211.032 205.704 210.766 206.365 210.232 206.824C209.699 207.293 208.947 207.528 207.976 207.528H202.392C201.422 207.528 200.67 207.293 200.136 206.824C199.603 206.365 199.336 205.704 199.336 204.84C199.336 203.976 199.603 203.315 200.136 202.856C200.67 202.387 201.422 202.152 202.392 202.152H207.976ZM207.064 201.16H205.384L203.576 195.656C203.534 195.528 203.491 195.443 203.448 195.4C203.416 195.347 203.342 195.32 203.224 195.32H202.12C202.003 195.32 201.923 195.347 201.88 195.4C201.848 195.453 201.811 195.539 201.768 195.656L199.864 201.16H198.184L200.2 195.32H198.392V193.88H201.88V192.248H203.48V193.88H207.128V195.32H205.16L207.064 201.16ZM207.768 206.088C208.334 206.088 208.75 205.976 209.016 205.752C209.294 205.528 209.432 205.224 209.432 204.84C209.432 204.456 209.294 204.152 209.016 203.928C208.75 203.704 208.334 203.592 207.768 203.592H202.6C202.035 203.592 201.614 203.704 201.336 203.928C201.07 204.152 200.936 204.456 200.936 204.84C200.936 205.224 201.07 205.528 201.336 205.752C201.614 205.976 202.035 206.088 202.6 206.088H207.768ZM210.744 201.64H209.144V198.152H206.728V196.68H209.144V193.064H210.744V201.64ZM225.244 207.528H223.644V199.864H221.1V206.376H219.5V194.68H218.252C217.911 194.68 217.671 194.749 217.532 194.888C217.394 195.016 217.292 195.208 217.228 195.464L214.508 206.376H212.812L215.548 195.336C215.623 195.027 215.708 194.744 215.804 194.488C215.911 194.232 216.044 194.013 216.204 193.832C216.375 193.64 216.583 193.496 216.828 193.4C217.074 193.293 217.383 193.24 217.756 193.24H221.1V198.392H223.644V193.064H225.244V207.528Z" fill="black"/>
<path opacity="0.88" d="M124.744 226.48C125.896 226.471 126.785 227.14 126.98 228.121H128.689V226.08H129.617V230.777H128.689V228.883H126.99C126.8 229.889 125.906 230.562 124.744 230.562C123.406 230.562 122.449 229.723 122.449 228.512C122.449 227.32 123.406 226.471 124.744 226.48ZM124.744 227.252C123.914 227.252 123.338 227.76 123.338 228.512C123.338 229.264 123.914 229.781 124.744 229.781C125.555 229.781 126.131 229.264 126.131 228.512C126.131 227.76 125.555 227.252 124.744 227.252ZM124.832 231.197V232.213H128.689V231.197H129.617V234.723H123.914V231.197H124.832ZM124.832 233.961H128.689V232.945H124.832V233.961ZM138.663 231.1V231.852H135.089V234.82H134.18V231.852H130.655V231.1H138.663ZM137.657 226.549V229.986H131.661V226.549H137.657ZM132.569 227.291V229.264H136.729V227.291H132.569ZM146.302 226.08V231.246H145.375V229.947H143.47V230.66H139.408V226.734H143.47V227.457H145.375V226.08H146.302ZM140.326 227.477V229.918H142.562V227.477H140.326ZM143.373 231.49C145.209 231.49 146.332 232.096 146.332 233.16C146.332 234.215 145.209 234.82 143.373 234.811C141.537 234.82 140.404 234.215 140.414 233.16C140.404 232.096 141.537 231.49 143.373 231.49ZM143.373 232.203C142.093 232.213 141.332 232.545 141.332 233.16C141.332 233.746 142.093 234.098 143.373 234.098C144.652 234.098 145.414 233.746 145.414 233.16C145.414 232.545 144.652 232.213 143.373 232.203ZM143.47 229.195H145.375V228.199H143.47V229.195Z" fill="#888888"/>
<path opacity="0.88" d="M161.314 226.598V227.291C161.314 228.033 161.314 228.902 161.1 230.055H162.33V230.816H154.322V230.055H160.162C160.392 228.917 160.396 228.087 160.396 227.35H155.328V226.598H161.314ZM161.578 233.883V234.645H155.367V231.725H156.285V233.883H161.578ZM166.503 227.057V227.799H163.886V229.361H166.356V230.094H163.886V231.939C165.067 231.935 165.848 231.886 166.776 231.734L166.854 232.496C165.829 232.682 164.979 232.721 163.583 232.721H162.997V227.057H166.503ZM170.194 226.08V234.83H169.305V230.309H168.251V234.4H167.362V226.246H168.251V229.557H169.305V226.08H170.194ZM178.305 230.943L173.715 233.16V232.105L177.065 230.572V230.523L173.715 229V227.936L178.305 230.162V230.943ZM189.355 232.994V233.756H181.348V232.994H184.883V231.09H185.801V232.994H189.355ZM188.613 227.408V228.16H185.811C185.85 229.386 187.148 230.401 188.945 230.67L188.594 231.393C187.134 231.163 185.913 230.47 185.342 229.449C184.771 230.47 183.555 231.163 182.09 231.393L181.738 230.67C183.535 230.401 184.824 229.386 184.873 228.16H182.07V227.408H184.883V226.236H185.801V227.408H188.613ZM194.563 227.018V227.555C194.563 228.287 194.563 229.42 194.309 230.982L193.391 230.914C193.611 229.513 193.636 228.502 193.645 227.77H190.091V227.018H194.563ZM192.317 229.518V232.135C193.25 232.105 194.197 232.042 195.071 231.93L195.12 232.623C193.294 232.916 191.263 232.955 189.71 232.945L189.602 232.193C190.149 232.188 190.76 232.184 191.399 232.164V229.518H192.317ZM196.507 226.08V229.693H197.845V230.484H196.507V234.83H195.569V226.08H196.507ZM205.025 226.598V227.291C205.025 228.033 205.025 228.902 204.81 230.055H206.041V230.816H198.033V230.055H203.873C204.102 228.917 204.107 228.087 204.107 227.35H199.039V226.598H205.025ZM205.289 233.883V234.645H199.078V231.725H199.996V233.883H205.289ZM214.373 231.1V231.852H210.799V234.82H209.891V231.852H206.366V231.1H214.373ZM213.368 226.549V229.986H207.371V226.549H213.368ZM208.28 227.291V229.264H212.44V227.291H208.28ZM222.016 230.943L217.426 233.16V232.105L220.775 230.572V230.523L217.426 229V227.936L222.016 230.162V230.943ZM233.066 232.994V233.756H225.058V232.994H228.593V231.09H229.511V232.994H233.066ZM232.324 227.408V228.16H229.521C229.56 229.386 230.859 230.401 232.656 230.67L232.304 231.393C230.844 231.163 229.624 230.47 229.052 229.449C228.481 230.47 227.265 231.163 225.8 231.393L225.449 230.67C227.246 230.401 228.535 229.386 228.584 228.16H225.781V227.408H228.593V226.236H229.511V227.408H232.324ZM238.274 227.018V227.555C238.274 228.287 238.274 229.42 238.02 230.982L237.102 230.914C237.322 229.513 237.346 228.502 237.356 227.77H233.801V227.018H238.274ZM236.028 229.518V232.135C236.96 232.105 237.908 232.042 238.782 231.93L238.83 232.623C237.004 232.916 234.973 232.955 233.42 232.945L233.313 232.193C233.86 232.188 234.47 232.184 235.11 232.164V229.518H236.028ZM240.217 226.08V229.693H241.555V230.484H240.217V234.83H239.28V226.08H240.217ZM248.736 226.598V227.291C248.736 228.033 248.736 228.902 248.521 230.055H249.751V230.816H241.743V230.055H247.583C247.813 228.917 247.818 228.087 247.818 227.35H242.749V226.598H248.736ZM248.999 233.883V234.645H242.788V231.725H243.706V233.883H248.999ZM258.084 231.1V231.852H254.51V234.82H253.602V231.852H250.076V231.1H258.084ZM257.078 226.549V229.986H251.082V226.549H257.078ZM251.99 227.291V229.264H256.15V227.291H251.99ZM265.723 226.09V232.76H264.796V230.953H263.389V230.211H264.796V229.127H263.389V228.365H264.796V226.09H265.723ZM263.36 227.105V227.857H258.438V227.105H260.489V226.08H261.407V227.105H263.36ZM260.938 228.277C262.12 228.277 262.95 228.961 262.96 229.957C262.95 230.963 262.12 231.646 260.938 231.646C259.757 231.646 258.927 230.963 258.927 229.957C258.927 228.961 259.757 228.277 260.938 228.277ZM260.938 229C260.255 229.01 259.796 229.381 259.796 229.957C259.796 230.553 260.255 230.924 260.938 230.924C261.612 230.924 262.081 230.553 262.091 229.957C262.081 229.381 261.612 229.01 260.938 229ZM265.919 233.893V234.645H260.011V232.174H260.948V233.893H265.919ZM273.656 226.09V228.668H274.906V229.439H273.656V232.008H272.728V226.09H273.656ZM270.795 232.105C272.64 232.096 273.705 232.584 273.714 233.473C273.705 234.352 272.64 234.82 270.795 234.83C268.939 234.82 267.875 234.352 267.875 233.473C267.875 232.584 268.939 232.096 270.795 232.105ZM270.795 232.789C269.486 232.789 268.802 233.033 268.812 233.473C268.802 233.893 269.486 234.137 270.795 234.137C272.084 234.137 272.767 233.893 272.767 233.473C272.767 233.033 272.084 232.789 270.795 232.789ZM266.713 230.934C267.391 230.938 268.177 230.938 268.998 230.914V230.27C267.992 230.172 267.367 229.723 267.377 229.049C267.367 228.268 268.187 227.809 269.457 227.809C270.716 227.809 271.537 228.268 271.537 229.049C271.537 229.718 270.917 230.167 269.925 230.27V230.875C270.707 230.836 271.498 230.772 272.23 230.67L272.308 231.314C270.433 231.637 268.363 231.666 266.81 231.666L266.713 230.934ZM271.986 226.793V227.486H266.937V226.793H268.998V226.012H269.925V226.793H271.986ZM269.457 228.434C268.705 228.434 268.255 228.668 268.255 229.049C268.255 229.439 268.705 229.674 269.457 229.674C270.199 229.674 270.648 229.439 270.648 229.049C270.648 228.668 270.199 228.434 269.457 228.434Z" fill="#353535"/>
<path opacity="0.88" d="M294.438 227.32V228.082H293.197V229.195H294.438V229.967H293.197V231.246H292.27V226.08H293.197V227.32H294.438ZM288.783 226.588C290.121 226.588 291.107 227.438 291.117 228.668C291.107 229.889 290.121 230.738 288.783 230.748C287.445 230.738 286.449 229.889 286.459 228.668C286.449 227.438 287.445 226.588 288.783 226.588ZM288.783 227.369C287.963 227.369 287.357 227.896 287.367 228.668C287.357 229.449 287.963 229.957 288.783 229.967C289.604 229.957 290.209 229.449 290.209 228.668C290.209 227.896 289.604 227.369 288.783 227.369ZM290.375 231.48C292.162 231.48 293.275 232.096 293.275 233.15C293.275 234.195 292.162 234.82 290.375 234.811C288.568 234.82 287.436 234.195 287.436 233.15C287.436 232.096 288.568 231.48 290.375 231.48ZM290.375 232.232C289.105 232.232 288.354 232.564 288.363 233.15C288.354 233.746 289.105 234.068 290.375 234.068C291.635 234.068 292.367 233.746 292.367 233.15C292.367 232.564 291.635 232.232 290.375 232.232ZM297.848 227.34C297.839 228.551 298.669 229.654 300.016 230.104L299.548 230.836C298.537 230.479 297.775 229.767 297.38 228.854C296.989 229.835 296.222 230.611 295.182 230.982L294.714 230.26C296.081 229.771 296.901 228.59 296.901 227.34V226.5H297.848V227.34ZM301.921 231.754V234.83H300.993V232.506H295.993V231.754H301.921ZM301.921 226.08V231.334H300.993V226.08H301.921ZM312.112 226.627V227.398C312.112 228.229 312.112 229.127 311.868 230.377H313.127V231.139H309.582V234.84H308.645V231.139H305.149V230.377H310.93C311.194 229.132 311.194 228.214 311.194 227.398V227.389H306.125V226.627H312.112ZM321.489 230.66V231.402H318.013V233.014H317.095V231.402H313.482V230.66H321.489ZM320.601 233.893V234.645H314.478V232.252H315.396V233.893H320.601ZM315.454 226.354V227.418H319.507V226.354H320.435V229.889H314.536V226.354H315.454ZM315.454 229.146H319.507V228.111H315.454V229.146Z" fill="#888888"/>
<path opacity="0.88" d="M335.578 226.09V232.496H334.65V226.09H335.578ZM335.842 233.893V234.645H329.855V231.891H330.793V233.893H335.842ZM331.506 227.438C331.496 228.717 332.316 229.889 333.664 230.357L333.186 231.1C332.175 230.724 331.428 229.981 331.037 229.029C330.651 230.045 329.895 230.86 328.869 231.256L328.371 230.523C329.748 230.016 330.559 228.756 330.559 227.438V226.568H331.506V227.438ZM339.731 227.945C339.731 228.971 340.581 229.938 341.909 230.309L341.47 231.031C340.459 230.743 339.692 230.118 339.292 229.312C338.911 230.216 338.149 230.929 337.104 231.256L336.665 230.543C337.993 230.113 338.813 229.068 338.813 227.945V227.838H336.909V227.096H338.813V226.041H339.741V227.096H341.636V227.838H339.731V227.945ZM343.96 226.08V231.383H343.032V229.293H341.362V228.531H343.032V226.08H343.96ZM341.03 231.578C342.856 231.578 343.989 232.164 343.989 233.189C343.989 234.225 342.856 234.82 341.03 234.811C339.194 234.82 338.061 234.225 338.071 233.189C338.061 232.164 339.194 231.578 341.03 231.578ZM341.03 232.301C339.751 232.301 338.989 232.623 338.989 233.189C338.989 233.756 339.751 234.098 341.03 234.098C342.319 234.098 343.071 233.756 343.071 233.189C343.071 232.623 342.319 232.301 341.03 232.301ZM348.162 228.307C348.162 229.908 349.06 231.5 350.398 232.105L349.832 232.848C348.836 232.35 348.088 231.358 347.703 230.162C347.317 231.422 346.55 232.486 345.545 233.014L344.959 232.262C346.316 231.617 347.224 229.928 347.224 228.307V226.812H348.162V228.307ZM352.302 226.08V234.85H351.384V229.742H349.431V228.99H351.384V226.08H352.302Z" fill="#353535"/>
<path opacity="0.88" d="M366.998 227.76C366.998 228.717 367.613 229.684 368.746 230.113L368.258 230.826C367.442 230.514 366.871 229.918 366.559 229.195C366.236 230.011 365.636 230.719 364.791 231.08L364.283 230.357C365.465 229.84 366.1 228.736 366.1 227.76V226.627H366.998V227.76ZM371.783 226.09V231.471H370.904V229.127H369.879V231.197H369.02V226.246H369.879V228.365H370.904V226.09H371.783ZM368.854 231.637C370.68 231.637 371.822 232.232 371.832 233.229C371.822 234.225 370.68 234.82 368.854 234.811C367.027 234.82 365.885 234.225 365.895 233.229C365.885 232.232 367.027 231.637 368.854 231.637ZM368.854 232.35C367.584 232.35 366.803 232.672 366.812 233.229C366.803 233.785 367.584 234.107 368.854 234.098C370.123 234.107 370.895 233.785 370.904 233.229C370.895 232.672 370.123 232.35 368.854 232.35ZM375.77 227.389C375.77 228.619 376.561 229.713 377.889 230.143L377.382 230.865C376.42 230.519 375.712 229.845 375.331 228.971C374.95 229.972 374.188 230.748 373.134 231.129L372.636 230.387C374.032 229.908 374.843 228.746 374.852 227.428V226.568H375.77V227.389ZM379.96 226.08V231.246H379.032V228.619H377.186V227.857H379.032V226.08H379.96ZM377.03 231.49C378.866 231.49 379.989 232.096 379.989 233.16C379.989 234.215 378.866 234.82 377.03 234.811C375.194 234.82 374.061 234.215 374.071 233.16C374.061 232.096 375.194 231.49 377.03 231.49ZM377.03 232.213C375.751 232.213 374.989 232.555 374.989 233.16C374.989 233.746 375.751 234.078 377.03 234.078C378.309 234.078 379.071 233.746 379.071 233.16C379.071 232.555 378.309 232.213 377.03 232.213ZM387.97 226.627V227.398C387.97 228.229 387.97 229.127 387.726 230.377H388.986V231.139H385.441V234.84H384.504V231.139H381.007V230.377H386.789C387.052 229.132 387.052 228.214 387.052 227.398V227.389H381.984V226.627H387.97ZM397.348 230.66V231.402H393.871V233.014H392.954V231.402H389.34V230.66H397.348ZM396.459 233.893V234.645H390.336V232.252H391.254V233.893H396.459ZM391.313 226.354V227.418H395.366V226.354H396.293V229.889H390.395V226.354H391.313ZM391.313 229.146H395.366V228.111H391.313V229.146Z" fill="#888888"/>
<path opacity="0.88" d="M411.598 226.08V234.83H410.66V226.08H411.598ZM408.99 227.018C408.99 229.576 407.896 231.803 404.898 233.238L404.41 232.486C406.739 231.378 407.872 229.801 408.053 227.76H404.83V227.018H408.99ZM414.628 226.412V227.447H418.68V226.412H419.608V229.947H417.108V230.807H420.643V231.568H412.665V230.807H416.19V229.947H413.71V226.412H414.628ZM414.628 229.195H418.68V228.17H414.628V229.195ZM419.745 233.893V234.645H413.671V232.193H414.608V233.893H419.745ZM428.517 226.08V234.83H427.629V226.08H428.517ZM426.74 226.266V234.391H425.861V229.938H424.504V229.176H425.861V226.266H426.74ZM423.644 228.521C423.644 230.016 424.25 231.51 425.48 232.223L424.923 232.906C424.088 232.408 423.512 231.524 423.214 230.465C422.897 231.607 422.301 232.579 421.447 233.111L420.88 232.418C422.121 231.666 422.755 230.074 422.755 228.521V227.818H421.144V227.066H425.148V227.818H423.644V228.521ZM433.295 231.578C435.19 231.578 436.381 232.174 436.391 233.199C436.381 234.215 435.19 234.82 433.295 234.811C431.42 234.82 430.219 234.215 430.219 233.199C430.219 232.174 431.42 231.578 433.295 231.578ZM433.295 232.281C431.967 232.281 431.137 232.623 431.147 233.199C431.137 233.766 431.967 234.098 433.295 234.098C434.633 234.098 435.463 233.766 435.473 233.199C435.463 232.623 434.633 232.281 433.295 232.281ZM436.323 226.51V227.242C436.323 227.945 436.323 228.668 436.079 229.566L435.17 229.469C435.405 228.575 435.405 227.931 435.405 227.252H430.288V226.51H436.323ZM437.319 230.104V230.855H429.36V230.104H432.553V228.463H433.461V230.104H437.319Z" fill="#353535"/>
<rect x="122" y="255" width="309" height="1" fill="#EEEEEE"/>
<rect x="228" y="272" width="26.6667" height="16" rx="8" fill="#00AEAE"/>
<circle cx="236" cy="280" r="5.33333" fill="#00AEAE"/>
<g filter="url(#filter2_d_283_2600)">
<circle cx="246.667" cy="280" r="5.33333" fill="white"/>
</g>
<rect x="122.5" y="268.5" width="46" height="24" rx="2.5" stroke="#EEEEEE"/>
<path opacity="0.88" d="M137.31 276.837V282.708H136.335V280.634H135.21V279.825H136.335V279.069H135.21V278.278H136.335V276.837H137.31ZM135.096 277.435V278.217H134.392V280.748C134.691 280.73 134.981 280.708 135.262 280.678L135.306 281.39C133.804 281.636 132.037 281.662 130.771 281.662L130.666 280.854L131.562 280.845V278.217H130.868V277.435H135.096ZM137.512 283.833V284.624H132.09V282.251H133.074V283.833H137.512ZM132.512 280.836L133.452 280.801V278.217H132.512V280.836ZM142.82 277.312V278.094H141.15C141.163 279.025 141.849 279.917 143.101 280.273L142.609 281.038C141.691 280.766 141.027 280.19 140.667 279.456C140.311 280.247 139.629 280.871 138.68 281.17L138.188 280.405C139.458 280.032 140.144 279.078 140.166 278.094H138.452V277.312H142.82ZM144.754 276.837V281.144H143.769V276.837H144.754ZM140.464 281.495V282.312H143.778V281.495H144.754V284.686H139.498V281.495H140.464ZM140.464 283.895H143.778V283.068H140.464V283.895ZM151.836 276.837V280.001H153.058V280.81H151.836V284.782H150.87V276.837H151.836ZM150.254 278.059V278.841H145.57V278.059H147.451V276.951H148.426V278.059H150.254ZM147.943 279.359C149.085 279.359 149.938 280.133 149.938 281.231C149.938 282.33 149.085 283.095 147.943 283.095C146.783 283.095 145.93 282.33 145.939 281.231C145.93 280.133 146.783 279.359 147.943 279.359ZM147.943 280.159C147.319 280.159 146.871 280.581 146.871 281.231C146.871 281.882 147.319 282.295 147.943 282.286C148.549 282.295 148.997 281.882 149.006 281.231C148.997 280.581 148.549 280.159 147.943 280.159ZM159.728 276.837V284.782H158.743V276.837H159.728ZM157.355 277.681C157.355 280.045 156.441 282.058 153.654 283.376L153.145 282.594C155.223 281.605 156.19 280.26 156.362 278.454H153.549V277.681H157.355Z" fill="#353535"/>
</g>
<path d="M99.9492 124.508V125.281H95.6016V128.949H94.6992V125.281H90.4102V124.508H99.9492ZM95.1562 118.953C97.3477 118.953 98.8242 119.832 98.8242 121.25C98.8242 122.633 97.3477 123.512 95.1562 123.512C92.9648 123.512 91.4883 122.633 91.4883 121.25C91.4883 119.832 92.9648 118.953 95.1562 118.953ZM95.1562 119.703C93.5273 119.703 92.4258 120.312 92.4375 121.25C92.4258 122.176 93.5273 122.773 95.1562 122.773C96.7734 122.773 97.8867 122.176 97.8867 121.25C97.8867 120.312 96.7734 119.703 95.1562 119.703ZM109.035 118.531V128.973H108.12V118.531H109.035ZM105.87 119.504V123.207H101.98V125.668C103.708 125.668 105.249 125.592 107.113 125.293L107.206 126.066C105.285 126.371 103.703 126.441 101.91 126.441H101.042V122.457H104.945V120.266H101.019V119.504H105.87ZM121.639 118.531V128.949H120.725V118.531H121.639ZM113.154 126.172C114.045 126.166 115.065 126.16 116.119 126.125V124.988C114.871 124.854 114.057 124.145 114.068 123.102C114.057 121.93 115.065 121.168 116.565 121.168C118.065 121.168 119.084 121.93 119.084 123.102C119.084 124.133 118.275 124.842 117.045 124.977V126.09C118.053 126.049 119.072 125.973 120.033 125.844L120.104 126.547C117.783 126.922 115.229 126.957 113.295 126.957L113.154 126.172ZM119.764 119.82V120.57H113.377V119.82H116.119V118.543H117.045V119.82H119.764ZM116.565 121.883C115.604 121.883 114.924 122.375 114.924 123.102C114.924 123.828 115.604 124.297 116.565 124.285C117.537 124.297 118.205 123.828 118.205 123.102C118.205 122.375 117.537 121.883 116.565 121.883ZM126.599 121.332C126.599 123.172 127.818 125.059 129.294 125.785L128.732 126.523C127.583 125.92 126.623 124.689 126.165 123.242C125.697 124.783 124.712 126.096 123.54 126.723L122.955 125.984C124.478 125.234 125.685 123.23 125.697 121.332V119.434H126.599V121.332ZM131.169 118.531V122.762H132.915V123.559H131.169V128.949H130.255V118.531H131.169ZM136.528 119.293C138.169 119.293 139.329 120.289 139.329 121.742C139.329 123.195 138.169 124.191 136.528 124.191C134.888 124.191 133.704 123.195 133.716 121.742C133.704 120.289 134.888 119.293 136.528 119.293ZM136.528 120.102C135.415 120.102 134.606 120.77 134.618 121.742C134.606 122.715 135.415 123.383 136.528 123.383C137.63 123.383 138.427 122.715 138.427 121.742C138.427 120.77 137.63 120.102 136.528 120.102ZM141.661 118.531V128.973H140.747V118.531H141.661ZM133.177 125.891C135.098 125.891 137.747 125.879 140.055 125.539L140.126 126.219C137.747 126.664 135.18 126.676 133.305 126.676L133.177 125.891ZM153.925 118.531V121.18H155.496V121.965H153.925V124.648H153.011V118.531H153.925ZM151.066 119.199C151.066 121.836 149.226 123.711 146.144 124.531L145.769 123.816C148.324 123.125 149.9 121.73 150.093 119.961H146.238V119.199H151.066ZM153.925 125.129V128.949H153.011V125.879H147.105V125.129H153.925ZM160.983 122.234V123.723H165.284V124.484H155.792V123.723H160.081V122.234H160.983ZM160.538 125.34C162.776 125.34 164.112 125.973 164.124 127.133C164.112 128.293 162.776 128.926 160.538 128.926C158.276 128.926 156.94 128.293 156.94 127.133C156.94 125.973 158.276 125.34 160.538 125.34ZM160.538 126.066C158.85 126.066 157.866 126.453 157.878 127.133C157.866 127.812 158.85 128.211 160.538 128.211C162.202 128.211 163.198 127.812 163.198 127.133C163.198 126.453 162.202 126.066 160.538 126.066ZM164.44 119.023V119.773H161.136C161.194 120.934 162.94 121.83 164.757 122.023L164.417 122.75C162.712 122.545 161.112 121.801 160.538 120.641C159.97 121.801 158.376 122.545 156.659 122.75L156.319 122.023C158.136 121.83 159.87 120.945 159.94 119.773H156.659V119.023H164.44ZM177.982 123.863V124.625H173.74V126.758H172.826V124.625H168.443V123.863H177.982ZM176.74 119.047V122.668H169.685V119.047H176.74ZM170.588 119.773V121.93H175.826V119.773H170.588ZM176.916 127.953V128.727H169.662V125.727H170.588V127.953H176.916ZM182.134 121.332C182.134 123.219 183.341 125.117 184.853 125.809L184.302 126.559C183.118 125.949 182.14 124.701 181.677 123.219C181.214 124.777 180.235 126.113 179.052 126.746L178.454 126.008C179.978 125.258 181.196 123.254 181.196 121.332V119.434H182.134V121.332ZM187.103 118.531V128.973H186.188V122.844H183.716V122.094H186.188V118.531H187.103ZM200.82 120.113V120.875H199.273V122.328H200.82V123.102H199.273V124.719H198.359V118.531H199.273V120.113H200.82ZM194.058 119.164C195.64 119.152 196.789 120.16 196.8 121.613C196.789 123.066 195.64 124.051 194.058 124.062C192.476 124.051 191.316 123.066 191.328 121.613C191.316 120.16 192.476 119.152 194.058 119.164ZM194.058 119.949C193.004 119.938 192.218 120.629 192.23 121.613C192.218 122.598 193.004 123.277 194.058 123.289C195.125 123.277 195.898 122.598 195.898 121.613C195.898 120.629 195.125 119.938 194.058 119.949ZM195.933 125.035C198.054 125.047 199.367 125.75 199.367 126.992C199.367 128.211 198.054 128.926 195.933 128.926C193.8 128.926 192.476 128.211 192.476 126.992C192.476 125.75 193.8 125.047 195.933 125.035ZM195.933 125.785C194.363 125.785 193.39 126.23 193.402 126.992C193.39 127.742 194.363 128.188 195.933 128.188C197.515 128.188 198.476 127.742 198.476 126.992C198.476 126.23 197.515 125.785 195.933 125.785ZM204.831 120.043C204.819 121.566 205.921 122.914 207.468 123.453L206.999 124.18C205.792 123.74 204.837 122.838 204.374 121.684C203.911 122.92 202.944 123.893 201.726 124.367L201.245 123.641C202.804 123.066 203.894 121.613 203.894 120.043V119.047H204.831V120.043ZM209.741 125.328V128.949H208.827V126.09H202.733V125.328H209.741ZM209.741 118.531V124.812H208.827V118.531H209.741ZM215.897 118.719C218.217 118.719 219.577 119.352 219.577 120.512C219.577 121.695 218.217 122.328 215.897 122.34C213.577 122.328 212.205 121.695 212.205 120.512C212.205 119.352 213.577 118.719 215.897 118.719ZM215.897 119.41C214.162 119.41 213.155 119.832 213.166 120.512C213.155 121.238 214.162 121.637 215.897 121.637C217.62 121.637 218.639 121.238 218.639 120.512C218.639 119.832 217.62 119.41 215.897 119.41ZM220.643 123.043V123.793H211.151V123.043H220.643ZM219.424 124.695V127.027H213.237V128.105H219.741V128.832H212.323V126.348H218.522V125.398H212.299V124.695H219.424ZM229.591 119.34V119.891C229.579 120.57 229.579 121.613 229.321 122.973L228.396 122.902C228.648 121.654 228.671 120.77 228.689 120.113H224.4V119.34H229.591ZM226.907 121.648V123.887C228.062 123.84 229.257 123.758 230.341 123.605L230.4 124.285C228.22 124.66 225.7 124.707 223.849 124.707L223.755 123.945C224.429 123.939 225.191 123.934 225.993 123.91V121.648H226.907ZM231.982 118.531V121.93H233.505V122.715H231.982V126.371H231.044V118.531H231.982ZM232.321 127.953V128.727H225.36V125.668H226.286V127.953H232.321ZM242.426 118.531V128.973H241.512V118.531H242.426ZM239.262 119.504V123.207H235.372V125.668C237.1 125.668 238.641 125.592 240.504 125.293L240.598 126.066C238.676 126.371 237.094 126.441 235.301 126.441H234.434V122.457H238.336V120.266H234.411V119.504H239.262ZM251.98 118.496V121.027H253.562V121.789H251.98V124.262H251.066V118.496H251.98ZM251.98 124.801V127.109H246.262V128.129H252.367V128.832H245.359V126.43H251.066V125.492H245.336V124.801H251.98ZM250.07 119.48V120.219H243.859V119.48H246.508V118.426H247.422V119.48H250.07ZM246.965 120.688C248.476 120.688 249.461 121.344 249.473 122.398C249.461 123.453 248.476 124.109 246.965 124.109C245.441 124.109 244.445 123.453 244.457 122.398C244.445 121.344 245.441 120.688 246.965 120.688ZM246.965 121.367C245.98 121.367 245.324 121.777 245.336 122.398C245.324 123.031 245.98 123.418 246.965 123.418C247.949 123.418 248.594 123.031 248.605 122.398C248.594 121.777 247.949 121.367 246.965 121.367ZM261.725 119.504C261.725 120.969 263.647 122.246 265.522 122.504L265.147 123.254C263.53 122.984 261.93 122.088 261.256 120.805C260.588 122.094 258.983 122.984 257.366 123.254L256.991 122.504C258.866 122.246 260.776 120.992 260.776 119.504V118.906H261.725V119.504ZM265.991 124.402V125.176H261.678V128.949H260.776V125.176H256.499V124.402H265.991ZM272.689 125.527C272.689 126.447 273.181 127.426 274.177 127.988C275.161 127.373 275.689 126.336 275.689 125.527V124.953H276.591V125.527C276.591 126.594 277.376 127.672 278.712 128.129L278.255 128.809C277.212 128.439 276.48 127.713 276.122 126.84C275.8 127.684 275.161 128.48 274.2 128.891C273.187 128.504 272.542 127.736 272.232 126.863C271.863 127.707 271.142 128.434 270.146 128.809L269.677 128.129C270.99 127.637 271.786 126.523 271.798 125.527V124.953H272.689V125.527ZM277.763 118.543V124.496H276.849V118.543H277.763ZM272.138 119.152C273.72 119.152 274.868 120.137 274.868 121.59C274.868 123.02 273.72 124.004 272.138 124.004C270.556 124.004 269.408 123.02 269.408 121.59C269.408 120.137 270.556 119.152 272.138 119.152ZM272.138 119.938C271.072 119.926 270.298 120.617 270.31 121.59C270.298 122.551 271.072 123.23 272.138 123.242C273.193 123.23 273.966 122.551 273.966 121.59C273.966 120.617 273.193 119.926 272.138 119.938ZM281.973 119.34C283.391 119.352 284.411 120.564 284.563 122.516H286.895V118.531H287.809V128.973H286.895V123.277H284.575C284.464 125.316 283.426 126.594 281.973 126.594C280.438 126.594 279.36 125.188 279.36 122.973C279.36 120.758 280.438 119.352 281.973 119.34ZM281.973 120.16C280.942 120.172 280.239 121.273 280.239 122.973C280.239 124.672 280.942 125.773 281.973 125.773C282.993 125.773 283.708 124.672 283.708 122.973C283.708 121.273 282.993 120.172 281.973 120.16ZM298.723 126.84V127.613H289.184V126.84H291.551V124.027C290.66 123.564 290.121 122.814 290.121 121.871C290.121 120.254 291.703 119.199 293.93 119.188C296.156 119.199 297.738 120.254 297.738 121.871C297.738 122.797 297.217 123.541 296.355 124.004V126.84H298.723ZM293.93 119.949C292.219 119.938 291.012 120.711 291.012 121.871C291.012 123.031 292.219 123.816 293.93 123.816C295.629 123.816 296.848 123.031 296.848 121.871C296.848 120.711 295.629 119.938 293.93 119.949ZM292.453 126.84H295.43V124.355C294.979 124.479 294.475 124.543 293.93 124.543C293.396 124.543 292.898 124.484 292.453 124.367V126.84ZM300.296 128.07C299.886 128.07 299.535 127.73 299.546 127.309C299.535 126.898 299.886 126.559 300.296 126.559C300.706 126.559 301.046 126.898 301.046 127.309C301.046 127.73 300.706 128.07 300.296 128.07Z" fill="black" fill-opacity="0.54"/>
</g>
<defs>
<filter id="filter0_d_283_2600" x="240" y="436.667" width="13.3332" height="13.3332" filterUnits="userSpaceOnUse" color-interpolation-filters="sRGB">
<feFlood flood-opacity="0" result="BackgroundImageFix"/>
<feColorMatrix in="SourceAlpha" type="matrix" values="0 0 0 0 0 0 0 0 0 0 0 0 0 0 0 0 0 0 127 0" result="hardAlpha"/>
<feOffset dy="1.33333"/>
<feGaussianBlur stdDeviation="0.666667"/>
<feComposite in2="hardAlpha" operator="out"/>
<feColorMatrix type="matrix" values="0 0 0 0 0 0 0 0 0 0 0 0 0 0 0 0 0 0 0.1 0"/>
<feBlend mode="normal" in2="BackgroundImageFix" result="effect1_dropShadow_283_2600"/>
<feBlend mode="normal" in="SourceGraphic" in2="effect1_dropShadow_283_2600" result="shape"/>
</filter>
<filter id="filter1_d_283_2600" x="67.8" y="160.8" width="518.4" height="195.4" filterUnits="userSpaceOnUse" color-interpolation-filters="sRGB">
<feFlood flood-opacity="0" result="BackgroundImageFix"/>
<feColorMatrix in="SourceAlpha" type="matrix" values="0 0 0 0 0 0 0 0 0 0 0 0 0 0 0 0 0 0 127 0" result="hardAlpha"/>
<feOffset dy="21"/>
<feGaussianBlur stdDeviation="10.6"/>
<feComposite in2="hardAlpha" operator="out"/>
<feColorMatrix type="matrix" values="0 0 0 0 0 0 0 0 0 0 0 0 0 0 0 0 0 0 0.06 0"/>
<feBlend mode="normal" in2="BackgroundImageFix" result="effect1_dropShadow_283_2600"/>
<feBlend mode="normal" in="SourceGraphic" in2="effect1_dropShadow_283_2600" result="shape"/>
</filter>
<filter id="filter2_d_283_2600" x="240" y="274.667" width="13.3332" height="13.3332" filterUnits="userSpaceOnUse" color-interpolation-filters="sRGB">
<feFlood flood-opacity="0" result="BackgroundImageFix"/>
<feColorMatrix in="SourceAlpha" type="matrix" values="0 0 0 0 0 0 0 0 0 0 0 0 0 0 0 0 0 0 127 0" result="hardAlpha"/>
<feOffset dy="1.33333"/>
<feGaussianBlur stdDeviation="0.666667"/>
<feComposite in2="hardAlpha" operator="out"/>
<feColorMatrix type="matrix" values="0 0 0 0 0 0 0 0 0 0 0 0 0 0 0 0 0 0 0.1 0"/>
<feBlend mode="normal" in2="BackgroundImageFix" result="effect1_dropShadow_283_2600"/>
<feBlend mode="normal" in="SourceGraphic" in2="effect1_dropShadow_283_2600" result="shape"/>
</filter>
<clipPath id="clip0_283_2600">
<rect width="440" height="500" rx="16" fill="white"/>
</clipPath>
</defs>
</svg>
