<svg width="440" height="500" viewBox="0 0 440 500" fill="none" xmlns="http://www.w3.org/2000/svg">
<g clip-path="url(#clip0_283_2749)">
<rect x="60" y="60" width="560" height="502" rx="22" fill="white"/>
<rect x="89.5" y="433.5" width="475" height="261" rx="10.5" fill="white" stroke="#EEEEEE"/>
<path d="M99.212 105.12H90.644V103.86H94.2V102.32C93.3507 102.208 92.7067 101.895 92.268 101.382C91.8293 100.869 91.61 100.187 91.61 99.338V97.882C91.61 97.406 91.6847 96.9907 91.834 96.636C91.9927 96.272 92.2167 95.9827 92.506 95.768H90.896V94.508H94.2V92.982H95.6V94.508H98.946V95.768H97.336C97.6347 95.9733 97.8493 96.258 97.98 96.622C98.12 96.986 98.19 97.406 98.19 97.882V99.338C98.19 100.187 97.9707 100.869 97.532 101.382C97.0933 101.895 96.4493 102.208 95.6 102.32V103.86H99.212V105.12ZM96.79 97.644C96.79 97.0467 96.6453 96.5753 96.356 96.23C96.076 95.8753 95.5907 95.698 94.9 95.698C94.2093 95.698 93.7193 95.8753 93.43 96.23C93.15 96.5753 93.01 97.0467 93.01 97.644V99.268C93.01 99.8653 93.15 100.341 93.43 100.696C93.7193 101.041 94.2093 101.214 94.9 101.214C95.5907 101.214 96.076 101.041 96.356 100.696C96.6453 100.341 96.79 99.8653 96.79 99.268V97.644ZM101.312 106.212H99.912V93.556H101.312V106.212ZM109.954 105.204H108.554V94.97H107.322C107.023 94.97 106.813 95.0307 106.692 95.152C106.57 95.264 106.482 95.432 106.426 95.656L104.045 105.204H102.561L104.955 95.544C105.021 95.2733 105.096 95.026 105.179 94.802C105.273 94.578 105.39 94.3867 105.53 94.228C105.679 94.06 105.861 93.934 106.076 93.85C106.29 93.7567 106.561 93.71 106.888 93.71H109.954V105.204ZM113.16 106.212H111.76V93.556H113.16V98.54H114.812V99.828H113.16V106.212ZM129.106 97.588C129.106 97.952 129.022 98.218 128.854 98.386C128.686 98.554 128.42 98.638 128.056 98.638H119.082V94.424C119.082 94.1253 119.147 93.9107 119.278 93.78C119.408 93.6493 119.623 93.584 119.922 93.584H129.106V97.588ZM129.988 101.074H125.074V103.748H123.674V101.074H118.2V99.814H129.988V101.074ZM127.706 97.378V94.844H120.482V97.378H127.706ZM129.176 106.254H119.152V102.32H120.552V104.994H129.176V106.254ZM141.471 106.212H140.071V99.506H137.845V105.204H136.445V94.97H135.353C135.055 94.97 134.845 95.0307 134.723 95.152C134.602 95.264 134.513 95.432 134.457 95.656L132.077 105.204H130.593L132.987 95.544C133.053 95.2733 133.127 95.026 133.211 94.802C133.305 94.578 133.421 94.3867 133.561 94.228C133.711 94.06 133.893 93.934 134.107 93.85C134.322 93.7567 134.593 93.71 134.919 93.71H137.845V98.218H140.071V93.556H141.471V106.212ZM153.179 105.162C153.179 105.526 153.095 105.792 152.927 105.96C152.759 106.128 152.493 106.212 152.129 106.212H143.617V102.404C143.617 102.105 143.682 101.891 143.813 101.76C143.943 101.629 144.158 101.564 144.457 101.564H153.179V105.162ZM150.085 97.868C150.085 99.688 148.965 100.598 146.725 100.598C145.633 100.598 144.797 100.374 144.219 99.926C143.649 99.4687 143.365 98.7827 143.365 97.868V96.944C143.365 96.6173 143.439 96.3093 143.589 96.02C143.738 95.7213 143.939 95.516 144.191 95.404H142.623V94.144H146.025V92.842H147.425V94.144H150.827V95.404H149.259C149.511 95.516 149.711 95.7213 149.861 96.02C150.01 96.3187 150.085 96.6267 150.085 96.944V97.868ZM151.779 104.952V102.824H145.017V104.952H151.779ZM148.685 96.874C148.685 96.4167 148.531 96.034 148.223 95.726C147.924 95.418 147.425 95.264 146.725 95.264C146.025 95.264 145.521 95.418 145.213 95.726C144.914 96.034 144.765 96.4167 144.765 96.874V97.84C144.765 98.3347 144.914 98.7267 145.213 99.016C145.521 99.3053 146.025 99.45 146.725 99.45C147.425 99.45 147.924 99.3053 148.223 99.016C148.531 98.7267 148.685 98.3347 148.685 97.84V96.874ZM153.179 100.92H151.779V93.556H153.179V96.398H154.831V97.686H153.179V100.92Z" fill="black"/>
<g filter="url(#filter0_d_283_2749)">
<rect x="89" y="161" width="476" height="262" rx="11" fill="white"/>
<rect x="89.5" y="161.5" width="475" height="261" rx="10.5" stroke="#EEEEEE"/>
</g>
<rect x="404.5" y="186.5" width="46" height="24" rx="2.5" stroke="#EEEEEE"/>
<path opacity="0.88" d="M419.908 198.52V199.319H412.657V198.52H419.908ZM419.073 197.113V197.896H413.545V195.092H419.029V195.883H414.52V197.113H419.073ZM416.269 199.873C417.983 199.864 419.012 200.392 419.02 201.314C419.012 202.246 417.983 202.773 416.269 202.773C414.538 202.773 413.501 202.246 413.501 201.314C413.501 200.392 414.538 199.864 416.269 199.873ZM416.269 200.62C415.109 200.62 414.485 200.866 414.494 201.314C414.485 201.78 415.109 202.018 416.269 202.018C417.403 202.018 418.036 201.78 418.045 201.314C418.036 200.866 417.403 200.62 416.269 200.62ZM427.386 199.135V199.926H420.127V199.135H423.273V198.476H421.049V196.366H425.514V195.777H421.023V195.013H426.49V197.078H422.016V197.711H426.648V198.476H424.24V199.135H427.386ZM426.534 200.427V202.729H425.549V201.2H420.935V200.427H426.534ZM433.836 194.837V198.001H435.058V198.81H433.836V202.782H432.87V194.837H433.836ZM432.254 196.059V196.841H427.57V196.059H429.451V194.951H430.426V196.059H432.254ZM429.943 197.359C431.085 197.359 431.938 198.133 431.938 199.231C431.938 200.33 431.085 201.095 429.943 201.095C428.783 201.095 427.93 200.33 427.939 199.231C427.93 198.133 428.783 197.359 429.943 197.359ZM429.943 198.159C429.319 198.159 428.871 198.581 428.871 199.231C428.871 199.882 429.319 200.295 429.943 200.286C430.549 200.295 430.997 199.882 431.006 199.231C430.997 198.581 430.549 198.159 429.943 198.159ZM441.728 194.837V202.782H440.743V194.837H441.728ZM439.355 195.681C439.355 198.045 438.441 200.058 435.654 201.376L435.145 200.594C437.223 199.605 438.19 198.26 438.362 196.454H435.549V195.681H439.355Z" fill="#353535"/>
<rect x="121.5" y="230.5" width="475" height="79" rx="10.5" fill="white" stroke="#EEEEEE"/>
<rect x="121.5" y="316.5" width="475" height="79" rx="10.5" fill="white" stroke="#EEEEEE"/>
<g clip-path="url(#clip1_283_2749)">
<path d="M152.468 265H146.427C146.191 265 146 264.821 146 264.6V253.4C146 253.179 146.191 253 146.427 253H155.573C155.809 253 156 253.179 156 253.4V261.693C156 261.799 155.954 261.901 155.875 261.976L152.769 264.883C152.689 264.958 152.58 265 152.468 265ZM146.854 264.199H152.29L155.145 261.527V253.801H146.854V264.199Z" fill="#888888"/>
<path d="M155.162 261.693L152.335 264.6V261.693H155.162Z" fill="#888888"/>
<path d="M152.335 265C152.284 265 152.234 264.99 152.185 264.97C152.04 264.908 151.946 264.762 151.946 264.6V261.692C151.946 261.471 152.12 261.292 152.335 261.292H155.162C155.319 261.292 155.46 261.39 155.521 261.539C155.581 261.689 155.548 261.861 155.436 261.975L152.61 264.883C152.535 264.959 152.436 265 152.335 265ZM152.723 262.093V263.635L154.222 262.093H152.723Z" fill="#888888"/>
<path d="M153.42 256.429H148.889C148.674 256.429 148.5 256.249 148.5 256.028C148.5 255.807 148.673 255.628 148.889 255.628H153.42C153.635 255.628 153.809 255.807 153.809 256.028C153.809 256.249 153.635 256.429 153.42 256.429Z" fill="#888888"/>
<path d="M153.266 258.157H148.735C148.52 258.157 148.346 257.977 148.346 257.756C148.346 257.535 148.519 257.356 148.735 257.356H153.266C153.481 257.356 153.655 257.535 153.655 257.756C153.655 257.977 153.481 258.157 153.266 258.157Z" fill="#888888"/>
<path d="M151.18 259.98H148.735C148.52 259.98 148.346 259.802 148.346 259.58C148.346 259.359 148.519 259.181 148.735 259.181H151.181C151.396 259.181 151.57 259.359 151.57 259.58C151.569 259.802 151.396 259.98 151.18 259.98Z" fill="#888888"/>
</g>
<path d="M180.452 259.192H179.052V256.154H176.826V257.694C176.826 258.058 176.742 258.324 176.574 258.492C176.406 258.66 176.14 258.744 175.776 258.744H170.008V252.64H171.408V254.474H175.426V252.64H176.826V254.866H179.052V252.556H180.452V259.192ZM180.452 264.162C180.452 264.526 180.368 264.792 180.2 264.96C180.032 265.128 179.766 265.212 179.402 265.212H170.75V259.836H172.15V261.18H179.052V259.836H180.452V264.162ZM179.052 263.952V262.412H172.15V263.952H179.052ZM175.426 257.484V255.734H171.408V257.484H175.426ZM193.14 261.978H191.74V252.556H193.14V261.978ZM193.224 265.212H183.438V260.76H184.838V263.952H193.224V265.212ZM190.004 256.826C190.004 257.302 189.915 257.731 189.738 258.114C189.56 258.487 189.313 258.809 188.996 259.08C188.678 259.341 188.291 259.547 187.834 259.696C187.386 259.836 186.891 259.906 186.35 259.906C185.799 259.906 185.3 259.836 184.852 259.696C184.404 259.547 184.021 259.341 183.704 259.08C183.386 258.809 183.139 258.487 182.962 258.114C182.784 257.731 182.696 257.302 182.696 256.826V255.552C182.696 255.076 182.784 254.651 182.962 254.278C183.139 253.895 183.386 253.573 183.704 253.312C184.021 253.041 184.404 252.836 184.852 252.696C185.3 252.547 185.799 252.472 186.35 252.472C186.891 252.472 187.386 252.547 187.834 252.696C188.291 252.836 188.678 253.041 188.996 253.312C189.313 253.573 189.56 253.895 189.738 254.278C189.915 254.651 190.004 255.076 190.004 255.552V256.826ZM188.604 255.622C188.604 255.025 188.394 254.563 187.974 254.236C187.563 253.9 187.022 253.732 186.35 253.732C185.678 253.732 185.132 253.9 184.712 254.236C184.301 254.563 184.096 255.025 184.096 255.622V256.756C184.096 257.353 184.301 257.82 184.712 258.156C185.132 258.483 185.678 258.646 186.35 258.646C187.022 258.646 187.563 258.483 187.974 258.156C188.394 257.82 188.604 257.353 188.604 256.756V255.622ZM200.283 265.492H194.585V264.232H200.283V265.492ZM212.722 260.2H200.934V258.94H206.128V257.946H201.816V253.354C201.816 253.055 201.882 252.841 202.012 252.71C202.143 252.579 202.358 252.514 202.656 252.514H211.84V253.774H203.216V254.614H211.742V255.846H203.216V256.686H212.008V257.946H207.528V258.94H212.722V260.2ZM209.488 260.97C210.338 260.97 210.996 261.152 211.462 261.516C211.929 261.88 212.162 262.412 212.162 263.112C212.162 263.812 211.929 264.344 211.462 264.708C210.996 265.072 210.338 265.254 209.488 265.254H204.168C203.319 265.254 202.661 265.072 202.194 264.708C201.728 264.344 201.494 263.812 201.494 263.112C201.494 262.412 201.728 261.88 202.194 261.516C202.661 261.152 203.319 260.97 204.168 260.97H209.488ZM209.306 263.994C209.801 263.994 210.165 263.915 210.398 263.756C210.641 263.597 210.762 263.383 210.762 263.112C210.762 262.841 210.641 262.627 210.398 262.468C210.165 262.309 209.801 262.23 209.306 262.23H204.35C203.856 262.23 203.487 262.309 203.244 262.468C203.011 262.627 202.894 262.841 202.894 263.112C202.894 263.383 203.011 263.597 203.244 263.756C203.487 263.915 203.856 263.994 204.35 263.994H209.306ZM216.898 265.212C216.048 265.212 215.39 264.993 214.924 264.554C214.457 264.125 214.224 263.513 214.224 262.72C214.224 261.927 214.457 261.315 214.924 260.886C215.39 260.447 216.048 260.228 216.898 260.228H221.644C222.493 260.228 223.151 260.447 223.618 260.886C224.084 261.315 224.318 261.927 224.318 262.72C224.318 263.513 224.084 264.125 223.618 264.554C223.151 264.993 222.493 265.212 221.644 265.212H216.898ZM221.196 259.36H219.726L218.144 254.264C218.106 254.152 218.069 254.077 218.032 254.04C218.004 253.993 217.938 253.97 217.836 253.97H216.87C216.767 253.97 216.697 253.993 216.66 254.04C216.632 254.087 216.599 254.161 216.562 254.264L214.896 259.36H213.426L215.19 253.97H213.538V252.71H221.322V253.97H219.53L221.196 259.36ZM221.462 263.952C221.956 263.952 222.32 263.835 222.554 263.602C222.796 263.378 222.918 263.084 222.918 262.72C222.918 262.356 222.796 262.062 222.554 261.838C222.32 261.605 221.956 261.488 221.462 261.488H217.08C216.585 261.488 216.216 261.605 215.974 261.838C215.74 262.062 215.624 262.356 215.624 262.72C215.624 263.084 215.74 263.378 215.974 263.602C216.216 263.835 216.585 263.952 217.08 263.952H221.462ZM224.066 259.92H222.666V252.556H224.066V255.118H225.718V256.406H224.066V259.92ZM233.547 264.204H232.147V253.97H230.915C230.617 253.97 230.407 254.031 230.285 254.152C230.164 254.264 230.075 254.432 230.019 254.656L227.639 264.204H226.155L228.549 254.544C228.615 254.273 228.689 254.026 228.773 253.802C228.867 253.578 228.983 253.387 229.123 253.228C229.273 253.06 229.455 252.934 229.669 252.85C229.884 252.757 230.155 252.71 230.481 252.71H233.547V264.204ZM236.753 265.212H235.353V252.556H236.753V257.54H238.405V258.828H236.753V265.212ZM250.785 260.606H238.997V259.346H244.191V257.918H239.879V252.514H241.279V253.998H248.503V252.514H249.903V256.868C249.903 257.232 249.819 257.498 249.651 257.666C249.483 257.834 249.217 257.918 248.853 257.918H245.591V259.346H250.785V260.606ZM249.973 265.254H239.949V261.46H241.349V263.994H249.973V265.254ZM248.503 256.658V255.258H241.279V256.658H248.503ZM257.676 264.204H256.22L255.282 254.46C255.264 254.273 255.226 254.147 255.17 254.082C255.124 254.007 255.04 253.97 254.918 253.97H254.54C254.41 253.97 254.316 254.007 254.26 254.082C254.214 254.147 254.181 254.273 254.162 254.46L253.028 264.204H251.572L252.818 253.97H251.712V252.71H257.872V253.97H256.626L257.676 264.204ZM260.378 265.212H258.992V258.282H257.522V256.994H258.992V252.556H260.378V265.212ZM263.038 265.212H261.638V252.556H263.038V265.212ZM275.488 265.254H265.184V261.978H273.948V261.208H265.156V259.948H269.566V258.856H264.372V257.596H276.16V258.856H270.966V259.948H275.348V262.37C275.348 262.669 275.282 262.883 275.152 263.014C275.021 263.145 274.806 263.21 274.508 263.21H266.584V263.994H275.488V265.254ZM275.474 257.022H273.864L272.002 255.02C271.918 254.927 271.843 254.843 271.778 254.768C271.712 254.693 271.642 254.633 271.568 254.586C271.502 254.53 271.428 254.488 271.344 254.46C271.26 254.432 271.157 254.418 271.036 254.418H269.496C269.374 254.418 269.272 254.432 269.188 254.46C269.104 254.488 269.024 254.53 268.95 254.586C268.884 254.633 268.819 254.693 268.754 254.768C268.688 254.843 268.614 254.927 268.53 255.02L266.668 257.022H265.058L267.382 254.418H265.254V253.158H269.566V251.842H270.966V253.158H275.278V254.418H273.15L275.474 257.022ZM280.335 265.212C279.486 265.212 278.828 264.993 278.361 264.554C277.895 264.125 277.661 263.513 277.661 262.72C277.661 261.927 277.895 261.315 278.361 260.886C278.828 260.447 279.486 260.228 280.335 260.228H285.081C285.931 260.228 286.589 260.447 287.055 260.886C287.522 261.315 287.755 261.927 287.755 262.72C287.755 263.513 287.522 264.125 287.055 264.554C286.589 264.993 285.931 265.212 285.081 265.212H280.335ZM284.507 256.21C284.507 256.686 284.419 257.115 284.241 257.498C284.073 257.871 283.831 258.193 283.513 258.464C283.205 258.725 282.827 258.931 282.379 259.08C281.941 259.22 281.455 259.29 280.923 259.29C280.391 259.29 279.901 259.22 279.453 259.08C279.015 258.931 278.637 258.725 278.319 258.464C278.011 258.193 277.769 257.871 277.591 257.498C277.423 257.115 277.339 256.686 277.339 256.21V255.552C277.339 255.076 277.423 254.651 277.591 254.278C277.769 253.895 278.011 253.573 278.319 253.312C278.637 253.041 279.015 252.836 279.453 252.696C279.901 252.547 280.391 252.472 280.923 252.472C281.455 252.472 281.941 252.547 282.379 252.696C282.827 252.836 283.205 253.041 283.513 253.312C283.831 253.573 284.073 253.895 284.241 254.278C284.419 254.651 284.507 255.076 284.507 255.552V256.21ZM284.899 263.952C285.394 263.952 285.758 263.835 285.991 263.602C286.234 263.378 286.355 263.084 286.355 262.72C286.355 262.356 286.234 262.062 285.991 261.838C285.758 261.605 285.394 261.488 284.899 261.488H280.517C280.023 261.488 279.654 261.605 279.411 261.838C279.178 262.062 279.061 262.356 279.061 262.72C279.061 263.084 279.178 263.378 279.411 263.602C279.654 263.835 280.023 263.952 280.517 263.952H284.899ZM283.107 255.622C283.107 255.025 282.907 254.563 282.505 254.236C282.104 253.9 281.577 253.732 280.923 253.732C280.27 253.732 279.743 253.9 279.341 254.236C278.94 254.563 278.739 255.025 278.739 255.622V256.14C278.739 256.737 278.94 257.204 279.341 257.54C279.743 257.867 280.27 258.03 280.923 258.03C281.577 258.03 282.104 257.867 282.505 257.54C282.907 257.204 283.107 256.737 283.107 256.14V255.622ZM287.503 259.92H286.103V252.556H287.503V253.83H289.155V255.118H287.503V256.798H289.155V258.086H287.503V259.92ZM300.751 265.212H299.351V261.544H290.979V260.284H300.751V265.212ZM300.751 259.64H299.351V252.556H300.751V259.64ZM297.405 259.36H296.005V253.97H294.493C294.194 253.97 293.979 254.031 293.849 254.152C293.727 254.264 293.615 254.432 293.513 254.656L291.427 259.36H289.873L292.085 254.334C292.206 254.073 292.318 253.839 292.421 253.634C292.523 253.429 292.645 253.261 292.785 253.13C292.934 252.99 293.111 252.887 293.317 252.822C293.522 252.747 293.783 252.71 294.101 252.71H297.405V259.36ZM304.016 264.792C304.016 264.969 303.988 265.081 303.932 265.128C303.886 265.184 303.774 265.212 303.596 265.212H302.896C302.719 265.212 302.602 265.184 302.546 265.128C302.5 265.081 302.476 264.969 302.476 264.792V264.092C302.476 263.915 302.5 263.798 302.546 263.742C302.602 263.695 302.719 263.672 302.896 263.672H303.596C303.774 263.672 303.886 263.695 303.932 263.742C303.988 263.798 304.016 263.915 304.016 264.092V264.792ZM312.146 264.386H307.652C306.812 264.386 306.191 264.176 305.79 263.756C305.398 263.336 305.202 262.776 305.202 262.076V258.8C305.202 258.1 305.398 257.54 305.79 257.12C306.191 256.7 306.812 256.49 307.652 256.49H310.746V252.864H312.146V264.386ZM310.746 263.154V257.722H307.652C306.952 257.722 306.602 258.119 306.602 258.912V261.964C306.602 262.757 306.952 263.154 307.652 263.154H310.746ZM320.916 262.132C320.916 262.832 320.716 263.392 320.314 263.812C319.922 264.232 319.306 264.442 318.466 264.442H316.002C315.162 264.442 314.542 264.232 314.14 263.812C313.748 263.392 313.552 262.832 313.552 262.132V258.744C313.552 258.044 313.748 257.484 314.14 257.064C314.542 256.644 315.162 256.434 316.002 256.434H318.466C319.306 256.434 319.922 256.644 320.314 257.064C320.716 257.484 320.916 258.044 320.916 258.744V262.132ZM318.466 263.21C319.166 263.21 319.516 262.813 319.516 262.02V258.856C319.516 258.063 319.166 257.666 318.466 257.666H316.002C315.302 257.666 314.952 258.063 314.952 258.856V262.02C314.952 262.813 315.302 263.21 316.002 263.21H318.466ZM328.37 264.386H324.632C323.792 264.386 323.172 264.176 322.77 263.756C322.378 263.336 322.182 262.776 322.182 262.076V258.8C322.182 258.1 322.378 257.54 322.77 257.12C323.172 256.7 323.792 256.49 324.632 256.49H328.37V257.722H324.632C323.932 257.722 323.582 258.119 323.582 258.912V261.964C323.582 262.757 323.932 263.154 324.632 263.154H328.37V264.386ZM337.068 264.386H335.556L333.078 261.222L330.642 264.386H329.144L332.154 260.326L329.214 256.49H330.754L333.078 259.43L335.486 256.49H336.998L334.002 260.326L337.068 264.386Z" fill="black"/>
<path opacity="0.88" d="M154.311 284.191V284.953H146.322V284.191H154.311ZM153.383 282.678V283.43H147.318V280.393H153.324V281.154H148.236V282.678H153.383ZM150.307 285.637C152.191 285.637 153.324 286.213 153.324 287.229C153.324 288.244 152.191 288.82 150.307 288.811C148.412 288.82 147.27 288.244 147.27 287.229C147.27 286.213 148.412 285.637 150.307 285.637ZM150.307 286.35C148.969 286.359 148.207 286.672 148.207 287.229C148.207 287.785 148.969 288.098 150.307 288.098C151.625 288.098 152.396 287.785 152.396 287.229C152.396 286.672 151.625 286.359 150.307 286.35ZM162.663 284.855V285.607H154.655V284.855H158.2V284.025H155.68V281.799H160.729V281.018H155.661V280.285H161.657V282.482H156.598V283.303H161.833V284.025H159.118V284.855H162.663ZM161.706 286.223V288.762H160.768V286.965H155.554V286.223H161.706ZM165.488 280.373C166.806 280.383 167.773 281.193 167.783 282.336C167.773 283.488 166.806 284.289 165.488 284.289C164.16 284.289 163.183 283.488 163.183 282.336C163.183 281.193 164.16 280.383 165.488 280.373ZM165.488 281.154C164.677 281.145 164.082 281.623 164.091 282.336C164.082 283.059 164.677 283.537 165.488 283.537C166.289 283.537 166.884 283.059 166.884 282.336C166.884 281.623 166.289 281.145 165.488 281.154ZM170.263 280.08V284.533H169.336V280.08H170.263ZM170.263 284.934V287.141H165.439V287.98H170.556V288.723H164.541V286.447H169.345V285.676H164.511V284.934H170.263ZM174.397 282.658C174.397 284.045 175.305 285.588 176.633 286.213L176.106 286.936C175.124 286.462 174.348 285.476 173.957 284.328C173.552 285.583 172.732 286.662 171.731 287.16L171.184 286.428C172.512 285.793 173.479 284.143 173.479 282.658V281.73H171.506V280.959H176.301V281.73H174.397V282.658ZM178.166 280.08V283.547H179.573V284.328H178.166V288.83H177.239V280.08H178.166Z" fill="#888888"/>
<path opacity="0.88" d="M186.625 288V287.219L189.076 284.748C189.848 283.938 190.238 283.488 190.238 282.873C190.238 282.18 189.672 281.73 188.93 281.73C188.148 281.73 187.641 282.229 187.641 282.98H186.625C186.615 281.691 187.602 280.832 188.949 280.832C190.316 280.832 191.254 281.691 191.264 282.844C191.254 283.635 190.883 284.26 189.555 285.568L188.119 287.023V287.082H191.381V288H186.625ZM194.733 288.098C193.093 288.098 192.136 286.779 192.136 284.465C192.136 282.17 193.112 280.832 194.733 280.832C196.354 280.832 197.331 282.17 197.331 284.465C197.331 286.779 196.364 288.098 194.733 288.098ZM194.733 287.17C195.69 287.17 196.257 286.232 196.257 284.465C196.257 282.707 195.68 281.74 194.733 281.74C193.786 281.74 193.21 282.707 193.21 284.465C193.21 286.232 193.776 287.17 194.733 287.17ZM198.144 288V287.219L200.595 284.748C201.367 283.938 201.757 283.488 201.757 282.873C201.757 282.18 201.191 281.73 200.449 281.73C199.668 281.73 199.16 282.229 199.16 282.98H198.144C198.134 281.691 199.121 280.832 200.468 280.832C201.836 280.832 202.773 281.691 202.783 282.844C202.773 283.635 202.402 284.26 201.074 285.568L199.638 287.023V287.082H202.9V288H198.144ZM206.194 288.098C204.856 288.098 203.85 287.277 203.801 286.154H204.846C204.905 286.76 205.481 287.199 206.194 287.199C207.053 287.199 207.668 286.574 207.668 285.734C207.668 284.875 207.034 284.25 206.145 284.24C205.579 284.24 205.149 284.426 204.905 284.865H203.889L204.348 280.93H208.352V281.848H205.237L205.002 283.83H205.071C205.364 283.547 205.862 283.352 206.399 283.352C207.727 283.352 208.713 284.338 208.713 285.705C208.713 287.102 207.668 288.098 206.194 288.098ZM212.691 284.016V284.914H209.556V284.016H212.691ZM216.102 288.098C214.461 288.098 213.504 286.779 213.504 284.465C213.504 282.17 214.48 280.832 216.102 280.832C217.723 280.832 218.699 282.17 218.699 284.465C218.699 286.779 217.732 288.098 216.102 288.098ZM216.102 287.17C217.059 287.17 217.625 286.232 217.625 284.465C217.625 282.707 217.049 281.74 216.102 281.74C215.154 281.74 214.578 282.707 214.578 284.465C214.578 286.232 215.145 287.17 216.102 287.17ZM222.071 288.098C220.763 288.088 219.395 287.316 219.395 284.699C219.395 282.238 220.46 280.832 222.159 280.832C223.458 280.832 224.366 281.643 224.532 282.766H223.468C223.331 282.189 222.872 281.77 222.159 281.77C221.065 281.77 220.43 282.727 220.43 284.318H220.509C220.889 283.723 221.554 283.361 222.325 283.361C223.585 283.361 224.6 284.328 224.6 285.686C224.6 287.053 223.595 288.107 222.071 288.098ZM222.061 287.199C222.921 287.199 223.555 286.535 223.555 285.705C223.555 284.895 222.94 284.24 222.091 284.24C221.221 284.24 220.567 284.924 220.557 285.715C220.567 286.496 221.192 287.199 222.061 287.199ZM228.578 284.016V284.914H225.443V284.016H228.578ZM229.245 288V287.219L231.696 284.748C232.467 283.938 232.858 283.488 232.858 282.873C232.858 282.18 232.291 281.73 231.549 281.73C230.768 281.73 230.26 282.229 230.26 282.98H229.245C229.235 281.691 230.221 280.832 231.569 280.832C232.936 280.832 233.873 281.691 233.883 282.844C233.873 283.635 233.502 284.26 232.174 285.568L230.739 287.023V287.082H234V288H229.245ZM234.892 288V287.219L237.343 284.748C238.114 283.938 238.505 283.488 238.505 282.873C238.505 282.18 237.939 281.73 237.196 281.73C236.415 281.73 235.907 282.229 235.907 282.98H234.892C234.882 281.691 235.868 280.832 237.216 280.832C238.583 280.832 239.521 281.691 239.53 282.844C239.521 283.635 239.15 284.26 237.821 285.568L236.386 287.023V287.082H239.648V288H234.892Z" fill="#353535"/>
<g clip-path="url(#clip2_283_2749)">
<path d="M152.468 351H146.427C146.191 351 146 350.821 146 350.6V339.4C146 339.179 146.191 339 146.427 339H155.573C155.809 339 156 339.179 156 339.4V347.693C156 347.799 155.954 347.901 155.875 347.976L152.769 350.883C152.689 350.958 152.58 351 152.468 351ZM146.854 350.199H152.29L155.145 347.527V339.801H146.854V350.199Z" fill="#888888"/>
<path d="M155.162 347.693L152.335 350.6V347.693H155.162Z" fill="#888888"/>
<path d="M152.335 351C152.284 351 152.234 350.99 152.185 350.97C152.04 350.908 151.946 350.762 151.946 350.6V347.692C151.946 347.471 152.12 347.292 152.335 347.292H155.162C155.319 347.292 155.46 347.39 155.521 347.539C155.581 347.689 155.548 347.861 155.436 347.975L152.61 350.883C152.535 350.959 152.436 351 152.335 351ZM152.723 348.093V349.635L154.222 348.093H152.723Z" fill="#888888"/>
<path d="M153.42 342.429H148.889C148.674 342.429 148.5 342.249 148.5 342.028C148.5 341.807 148.673 341.628 148.889 341.628H153.42C153.635 341.628 153.809 341.807 153.809 342.028C153.809 342.249 153.635 342.429 153.42 342.429Z" fill="#888888"/>
<path d="M153.266 344.157H148.735C148.52 344.157 148.346 343.977 148.346 343.756C148.346 343.535 148.519 343.356 148.735 343.356H153.266C153.481 343.356 153.655 343.535 153.655 343.756C153.655 343.977 153.481 344.157 153.266 344.157Z" fill="#888888"/>
<path d="M151.18 345.98H148.735C148.52 345.98 148.346 345.802 148.346 345.58C148.346 345.359 148.519 345.181 148.735 345.181H151.181C151.396 345.181 151.57 345.359 151.57 345.58C151.569 345.802 151.396 345.98 151.18 345.98Z" fill="#888888"/>
</g>
<path d="M180.452 345.192H179.052V342.154H176.826V343.694C176.826 344.058 176.742 344.324 176.574 344.492C176.406 344.66 176.14 344.744 175.776 344.744H170.008V338.64H171.408V340.474H175.426V338.64H176.826V340.866H179.052V338.556H180.452V345.192ZM180.452 350.162C180.452 350.526 180.368 350.792 180.2 350.96C180.032 351.128 179.766 351.212 179.402 351.212H170.75V345.836H172.15V347.18H179.052V345.836H180.452V350.162ZM179.052 349.952V348.412H172.15V349.952H179.052ZM175.426 343.484V341.734H171.408V343.484H175.426ZM193.14 347.978H191.74V338.556H193.14V347.978ZM193.224 351.212H183.438V346.76H184.838V349.952H193.224V351.212ZM190.004 342.826C190.004 343.302 189.915 343.731 189.738 344.114C189.56 344.487 189.313 344.809 188.996 345.08C188.678 345.341 188.291 345.547 187.834 345.696C187.386 345.836 186.891 345.906 186.35 345.906C185.799 345.906 185.3 345.836 184.852 345.696C184.404 345.547 184.021 345.341 183.704 345.08C183.386 344.809 183.139 344.487 182.962 344.114C182.784 343.731 182.696 343.302 182.696 342.826V341.552C182.696 341.076 182.784 340.651 182.962 340.278C183.139 339.895 183.386 339.573 183.704 339.312C184.021 339.041 184.404 338.836 184.852 338.696C185.3 338.547 185.799 338.472 186.35 338.472C186.891 338.472 187.386 338.547 187.834 338.696C188.291 338.836 188.678 339.041 188.996 339.312C189.313 339.573 189.56 339.895 189.738 340.278C189.915 340.651 190.004 341.076 190.004 341.552V342.826ZM188.604 341.622C188.604 341.025 188.394 340.563 187.974 340.236C187.563 339.9 187.022 339.732 186.35 339.732C185.678 339.732 185.132 339.9 184.712 340.236C184.301 340.563 184.096 341.025 184.096 341.622V342.756C184.096 343.353 184.301 343.82 184.712 344.156C185.132 344.483 185.678 344.646 186.35 344.646C187.022 344.646 187.563 344.483 187.974 344.156C188.394 343.82 188.604 343.353 188.604 342.756V341.622ZM200.283 351.492H194.585V350.232H200.283V351.492ZM211.938 347.978H210.538V338.556H211.938V347.978ZM212.022 351.212H202.236V346.76H203.636V349.952H212.022V351.212ZM208.802 342.826C208.802 343.302 208.714 343.731 208.536 344.114C208.359 344.487 208.112 344.809 207.794 345.08C207.477 345.341 207.09 345.547 206.632 345.696C206.184 345.836 205.69 345.906 205.148 345.906C204.598 345.906 204.098 345.836 203.65 345.696C203.202 345.547 202.82 345.341 202.502 345.08C202.185 344.809 201.938 344.487 201.76 344.114C201.583 343.731 201.494 343.302 201.494 342.826V341.552C201.494 341.076 201.583 340.651 201.76 340.278C201.938 339.895 202.185 339.573 202.502 339.312C202.82 339.041 203.202 338.836 203.65 338.696C204.098 338.547 204.598 338.472 205.148 338.472C205.69 338.472 206.184 338.547 206.632 338.696C207.09 338.836 207.477 339.041 207.794 339.312C208.112 339.573 208.359 339.895 208.536 340.278C208.714 340.651 208.802 341.076 208.802 341.552V342.826ZM207.402 341.622C207.402 341.025 207.192 340.563 206.772 340.236C206.362 339.9 205.82 339.732 205.148 339.732C204.476 339.732 203.93 339.9 203.51 340.236C203.1 340.563 202.894 341.025 202.894 341.622V342.756C202.894 343.353 203.1 343.82 203.51 344.156C203.93 344.483 204.476 344.646 205.148 344.646C205.82 344.646 206.362 344.483 206.772 344.156C207.192 343.82 207.402 343.353 207.402 342.756V341.622ZM223.926 350.162C223.926 350.526 223.842 350.792 223.674 350.96C223.506 351.128 223.24 351.212 222.876 351.212H214.364V347.124C214.364 346.825 214.429 346.611 214.56 346.48C214.69 346.349 214.905 346.284 215.204 346.284H223.926V350.162ZM222.526 349.952V347.544H215.764V349.952H222.526ZM219.628 345.29H218.228L219.012 340.292C219.03 340.161 219.021 340.077 218.984 340.04C218.946 339.993 218.862 339.97 218.732 339.97H213.762V338.71H220.034C220.267 338.71 220.43 338.771 220.524 338.892C220.617 339.004 220.645 339.167 220.608 339.382L219.628 345.29ZM223.926 345.64H222.526V338.556H223.926V341.118H225.578V342.406H223.926V345.64ZM236.893 351.212H227.191V347.53H235.353V346.522H227.163V345.262H236.753V347.922C236.753 348.221 236.688 348.435 236.557 348.566C236.427 348.697 236.212 348.762 235.913 348.762H228.591V349.952H236.893V351.212ZM234.373 344.184H226.589V338.64H227.989V342.924H234.373V344.184ZM236.753 344.66H235.353V338.556H236.753V340.32H238.405V341.608H236.753V344.66ZM250.001 347.978H248.601V338.556H250.001V347.978ZM250.085 351.212H240.299V346.76H241.699V349.952H250.085V351.212ZM246.865 342.826C246.865 343.302 246.776 343.731 246.599 344.114C246.421 344.487 246.174 344.809 245.857 345.08C245.539 345.341 245.152 345.547 244.695 345.696C244.247 345.836 243.752 345.906 243.211 345.906C242.66 345.906 242.161 345.836 241.713 345.696C241.265 345.547 240.882 345.341 240.565 345.08C240.247 344.809 240 344.487 239.823 344.114C239.645 343.731 239.557 343.302 239.557 342.826V341.552C239.557 341.076 239.645 340.651 239.823 340.278C240 339.895 240.247 339.573 240.565 339.312C240.882 339.041 241.265 338.836 241.713 338.696C242.161 338.547 242.66 338.472 243.211 338.472C243.752 338.472 244.247 338.547 244.695 338.696C245.152 338.836 245.539 339.041 245.857 339.312C246.174 339.573 246.421 339.895 246.599 340.278C246.776 340.651 246.865 341.076 246.865 341.552V342.826ZM245.465 341.622C245.465 341.025 245.255 340.563 244.835 340.236C244.424 339.9 243.883 339.732 243.211 339.732C242.539 339.732 241.993 339.9 241.573 340.236C241.162 340.563 240.957 341.025 240.957 341.622V342.756C240.957 343.353 241.162 343.82 241.573 344.156C241.993 344.483 242.539 344.646 243.211 344.646C243.883 344.646 244.424 344.483 244.835 344.156C245.255 343.82 245.465 343.353 245.465 342.756V341.622ZM263.472 350.372H251.684V349.112H254.554V346.76H255.954V349.112H259.202V346.76H260.602V349.112H263.472V350.372ZM255.38 345.934C254.876 345.934 254.428 345.845 254.036 345.668C253.644 345.481 253.313 345.229 253.042 344.912C252.781 344.585 252.58 344.198 252.44 343.75C252.31 343.302 252.244 342.812 252.244 342.28C252.244 341.748 252.31 341.258 252.44 340.81C252.58 340.362 252.781 339.979 253.042 339.662C253.313 339.335 253.644 339.083 254.036 338.906C254.428 338.719 254.876 338.626 255.38 338.626H259.776C260.28 338.626 260.728 338.719 261.12 338.906C261.512 339.083 261.839 339.335 262.1 339.662C262.371 339.979 262.572 340.362 262.702 340.81C262.842 341.258 262.912 341.748 262.912 342.28C262.912 342.812 262.842 343.302 262.702 343.75C262.572 344.198 262.371 344.585 262.1 344.912C261.839 345.229 261.512 345.481 261.12 345.668C260.728 345.845 260.28 345.934 259.776 345.934H255.38ZM259.594 344.674C259.93 344.674 260.215 344.613 260.448 344.492C260.691 344.361 260.892 344.189 261.05 343.974C261.209 343.75 261.326 343.493 261.4 343.204C261.475 342.915 261.512 342.607 261.512 342.28C261.512 341.953 261.475 341.645 261.4 341.356C261.326 341.067 261.209 340.815 261.05 340.6C260.892 340.376 260.691 340.203 260.448 340.082C260.215 339.951 259.93 339.886 259.594 339.886H255.562C255.226 339.886 254.937 339.951 254.694 340.082C254.461 340.203 254.265 340.376 254.106 340.6C253.948 340.815 253.831 341.067 253.756 341.356C253.682 341.645 253.644 341.953 253.644 342.28C253.644 342.607 253.682 342.915 253.756 343.204C253.831 343.493 253.948 343.75 254.106 343.974C254.265 344.189 254.461 344.361 254.694 344.492C254.937 344.613 255.226 344.674 255.562 344.674H259.594ZM272.954 346.508C273.803 346.508 274.461 346.713 274.928 347.124C275.394 347.525 275.628 348.104 275.628 348.86C275.628 349.616 275.394 350.195 274.928 350.596C274.461 351.007 273.803 351.212 272.954 351.212H268.068C267.218 351.212 266.56 351.007 266.094 350.596C265.627 350.195 265.394 349.616 265.394 348.86C265.394 348.104 265.627 347.525 266.094 347.124C266.56 346.713 267.218 346.508 268.068 346.508H272.954ZM272.156 345.64H270.686L269.104 340.824C269.066 340.712 269.029 340.637 268.992 340.6C268.964 340.553 268.898 340.53 268.796 340.53H267.83C267.727 340.53 267.657 340.553 267.62 340.6C267.592 340.647 267.559 340.721 267.522 340.824L265.856 345.64H264.386L266.15 340.53H264.568V339.27H267.62V337.842H269.02V339.27H272.212V340.53H270.49L272.156 345.64ZM272.772 349.952C273.266 349.952 273.63 349.854 273.864 349.658C274.106 349.462 274.228 349.196 274.228 348.86C274.228 348.524 274.106 348.258 273.864 348.062C273.63 347.866 273.266 347.768 272.772 347.768H268.25C267.755 347.768 267.386 347.866 267.144 348.062C266.91 348.258 266.794 348.524 266.794 348.86C266.794 349.196 266.91 349.462 267.144 349.658C267.386 349.854 267.755 349.952 268.25 349.952H272.772ZM275.376 346.06H273.976V343.008H271.862V341.72H273.976V338.556H275.376V346.06ZM288.063 351.212H286.663V344.506H284.437V350.204H283.037V339.97H281.945C281.647 339.97 281.437 340.031 281.315 340.152C281.194 340.264 281.105 340.432 281.049 340.656L278.669 350.204H277.185L279.579 340.544C279.645 340.273 279.719 340.026 279.803 339.802C279.897 339.578 280.013 339.387 280.153 339.228C280.303 339.06 280.485 338.934 280.699 338.85C280.914 338.757 281.185 338.71 281.511 338.71H284.437V343.218H286.663V338.556H288.063V351.212ZM291.329 350.792C291.329 350.969 291.301 351.081 291.245 351.128C291.198 351.184 291.086 351.212 290.909 351.212H290.209C290.031 351.212 289.915 351.184 289.859 351.128C289.812 351.081 289.789 350.969 289.789 350.792V350.092C289.789 349.915 289.812 349.798 289.859 349.742C289.915 349.695 290.031 349.672 290.209 349.672H290.909C291.086 349.672 291.198 349.695 291.245 349.742C291.301 349.798 291.329 349.915 291.329 350.092V350.792ZM299.458 350.386H294.964C294.124 350.386 293.504 350.176 293.102 349.756C292.71 349.336 292.514 348.776 292.514 348.076V344.8C292.514 344.1 292.71 343.54 293.102 343.12C293.504 342.7 294.124 342.49 294.964 342.49H298.058V338.864H299.458V350.386ZM298.058 349.154V343.722H294.964C294.264 343.722 293.914 344.119 293.914 344.912V347.964C293.914 348.757 294.264 349.154 294.964 349.154H298.058ZM308.229 348.132C308.229 348.832 308.028 349.392 307.627 349.812C307.235 350.232 306.619 350.442 305.779 350.442H303.315C302.475 350.442 301.854 350.232 301.453 349.812C301.061 349.392 300.865 348.832 300.865 348.132V344.744C300.865 344.044 301.061 343.484 301.453 343.064C301.854 342.644 302.475 342.434 303.315 342.434H305.779C306.619 342.434 307.235 342.644 307.627 343.064C308.028 343.484 308.229 344.044 308.229 344.744V348.132ZM305.779 349.21C306.479 349.21 306.829 348.813 306.829 348.02V344.856C306.829 344.063 306.479 343.666 305.779 343.666H303.315C302.615 343.666 302.265 344.063 302.265 344.856V348.02C302.265 348.813 302.615 349.21 303.315 349.21H305.779ZM315.683 350.386H311.945C311.105 350.386 310.484 350.176 310.083 349.756C309.691 349.336 309.495 348.776 309.495 348.076V344.8C309.495 344.1 309.691 343.54 310.083 343.12C310.484 342.7 311.105 342.49 311.945 342.49H315.683V343.722H311.945C311.245 343.722 310.895 344.119 310.895 344.912V347.964C310.895 348.757 311.245 349.154 311.945 349.154H315.683V350.386ZM324.38 350.386H322.868L320.39 347.222L317.954 350.386H316.456L319.466 346.326L316.526 342.49H318.066L320.39 345.43L322.798 342.49H324.31L321.314 346.326L324.38 350.386Z" fill="black"/>
<path opacity="0.88" d="M154.311 370.191V370.953H146.322V370.191H154.311ZM153.383 368.678V369.43H147.318V366.393H153.324V367.154H148.236V368.678H153.383ZM150.307 371.637C152.191 371.637 153.324 372.213 153.324 373.229C153.324 374.244 152.191 374.82 150.307 374.811C148.412 374.82 147.27 374.244 147.27 373.229C147.27 372.213 148.412 371.637 150.307 371.637ZM150.307 372.35C148.969 372.359 148.207 372.672 148.207 373.229C148.207 373.785 148.969 374.098 150.307 374.098C151.625 374.098 152.396 373.785 152.396 373.229C152.396 372.672 151.625 372.359 150.307 372.35ZM162.663 370.855V371.607H154.655V370.855H158.2V370.025H155.68V367.799H160.729V367.018H155.661V366.285H161.657V368.482H156.598V369.303H161.833V370.025H159.118V370.855H162.663ZM161.706 372.223V374.762H160.768V372.965H155.554V372.223H161.706ZM165.488 366.373C166.806 366.383 167.773 367.193 167.783 368.336C167.773 369.488 166.806 370.289 165.488 370.289C164.16 370.289 163.183 369.488 163.183 368.336C163.183 367.193 164.16 366.383 165.488 366.373ZM165.488 367.154C164.677 367.145 164.082 367.623 164.091 368.336C164.082 369.059 164.677 369.537 165.488 369.537C166.289 369.537 166.884 369.059 166.884 368.336C166.884 367.623 166.289 367.145 165.488 367.154ZM170.263 366.08V370.533H169.336V366.08H170.263ZM170.263 370.934V373.141H165.439V373.98H170.556V374.723H164.541V372.447H169.345V371.676H164.511V370.934H170.263ZM174.397 368.658C174.397 370.045 175.305 371.588 176.633 372.213L176.106 372.936C175.124 372.462 174.348 371.476 173.957 370.328C173.552 371.583 172.732 372.662 171.731 373.16L171.184 372.428C172.512 371.793 173.479 370.143 173.479 368.658V367.73H171.506V366.959H176.301V367.73H174.397V368.658ZM178.166 366.08V369.547H179.573V370.328H178.166V374.83H177.239V366.08H178.166Z" fill="#888888"/>
<path opacity="0.88" d="M186.625 374V373.219L189.076 370.748C189.848 369.938 190.238 369.488 190.238 368.873C190.238 368.18 189.672 367.73 188.93 367.73C188.148 367.73 187.641 368.229 187.641 368.98H186.625C186.615 367.691 187.602 366.832 188.949 366.832C190.316 366.832 191.254 367.691 191.264 368.844C191.254 369.635 190.883 370.26 189.555 371.568L188.119 373.023V373.082H191.381V374H186.625ZM194.733 374.098C193.093 374.098 192.136 372.779 192.136 370.465C192.136 368.17 193.112 366.832 194.733 366.832C196.354 366.832 197.331 368.17 197.331 370.465C197.331 372.779 196.364 374.098 194.733 374.098ZM194.733 373.17C195.69 373.17 196.257 372.232 196.257 370.465C196.257 368.707 195.68 367.74 194.733 367.74C193.786 367.74 193.21 368.707 193.21 370.465C193.21 372.232 193.776 373.17 194.733 373.17ZM198.144 374V373.219L200.595 370.748C201.367 369.938 201.757 369.488 201.757 368.873C201.757 368.18 201.191 367.73 200.449 367.73C199.668 367.73 199.16 368.229 199.16 368.98H198.144C198.134 367.691 199.121 366.832 200.468 366.832C201.836 366.832 202.773 367.691 202.783 368.844C202.773 369.635 202.402 370.26 201.074 371.568L199.638 373.023V373.082H202.9V374H198.144ZM206.194 374.098C204.856 374.098 203.85 373.277 203.801 372.154H204.846C204.905 372.76 205.481 373.199 206.194 373.199C207.053 373.199 207.668 372.574 207.668 371.734C207.668 370.875 207.034 370.25 206.145 370.24C205.579 370.24 205.149 370.426 204.905 370.865H203.889L204.348 366.93H208.352V367.848H205.237L205.002 369.83H205.071C205.364 369.547 205.862 369.352 206.399 369.352C207.727 369.352 208.713 370.338 208.713 371.705C208.713 373.102 207.668 374.098 206.194 374.098ZM212.691 370.016V370.914H209.556V370.016H212.691ZM216.102 374.098C214.461 374.098 213.504 372.779 213.504 370.465C213.504 368.17 214.48 366.832 216.102 366.832C217.723 366.832 218.699 368.17 218.699 370.465C218.699 372.779 217.732 374.098 216.102 374.098ZM216.102 373.17C217.059 373.17 217.625 372.232 217.625 370.465C217.625 368.707 217.049 367.74 216.102 367.74C215.154 367.74 214.578 368.707 214.578 370.465C214.578 372.232 215.145 373.17 216.102 373.17ZM222.071 374.098C220.763 374.088 219.395 373.316 219.395 370.699C219.395 368.238 220.46 366.832 222.159 366.832C223.458 366.832 224.366 367.643 224.532 368.766H223.468C223.331 368.189 222.872 367.77 222.159 367.77C221.065 367.77 220.43 368.727 220.43 370.318H220.509C220.889 369.723 221.554 369.361 222.325 369.361C223.585 369.361 224.6 370.328 224.6 371.686C224.6 373.053 223.595 374.107 222.071 374.098ZM222.061 373.199C222.921 373.199 223.555 372.535 223.555 371.705C223.555 370.895 222.94 370.24 222.091 370.24C221.221 370.24 220.567 370.924 220.557 371.715C220.567 372.496 221.192 373.199 222.061 373.199ZM228.578 370.016V370.914H225.443V370.016H228.578ZM229.245 374V373.219L231.696 370.748C232.467 369.938 232.858 369.488 232.858 368.873C232.858 368.18 232.291 367.73 231.549 367.73C230.768 367.73 230.26 368.229 230.26 368.98H229.245C229.235 367.691 230.221 366.832 231.569 366.832C232.936 366.832 233.873 367.691 233.883 368.844C233.873 369.635 233.502 370.26 232.174 371.568L230.739 373.023V373.082H234V374H229.245ZM234.892 374V373.219L237.343 370.748C238.114 369.938 238.505 369.488 238.505 368.873C238.505 368.18 237.939 367.73 237.196 367.73C236.415 367.73 235.907 368.229 235.907 368.98H234.892C234.882 367.691 235.868 366.832 237.216 366.832C238.583 366.832 239.521 367.691 239.53 368.844C239.521 369.635 239.15 370.26 237.821 371.568L236.386 373.023V373.082H239.648V374H234.892Z" fill="#353535"/>
<path d="M134.088 200.648H132.488V197.176H129.944V198.936C129.944 199.352 129.848 199.656 129.656 199.848C129.464 200.04 129.16 200.136 128.744 200.136H122.152V193.16H123.752V195.256H128.344V193.16H129.944V195.704H132.488V193.064H134.088V200.648ZM134.088 206.328C134.088 206.744 133.992 207.048 133.8 207.24C133.608 207.432 133.304 207.528 132.888 207.528H123V201.384H124.6V202.92H132.488V201.384H134.088V206.328ZM132.488 206.088V204.328H124.6V206.088H132.488ZM128.344 198.696V196.696H123.752V198.696H128.344ZM148.588 203.832H146.988V193.064H148.588V203.832ZM148.684 207.528H137.5V202.44H139.1V206.088H148.684V207.528ZM145.004 197.944C145.004 198.488 144.903 198.979 144.7 199.416C144.497 199.843 144.215 200.211 143.852 200.52C143.489 200.819 143.047 201.053 142.524 201.224C142.012 201.384 141.447 201.464 140.828 201.464C140.199 201.464 139.628 201.384 139.116 201.224C138.604 201.053 138.167 200.819 137.804 200.52C137.441 200.211 137.159 199.843 136.956 199.416C136.753 198.979 136.652 198.488 136.652 197.944V196.488C136.652 195.944 136.753 195.459 136.956 195.032C137.159 194.595 137.441 194.227 137.804 193.928C138.167 193.619 138.604 193.384 139.116 193.224C139.628 193.053 140.199 192.968 140.828 192.968C141.447 192.968 142.012 193.053 142.524 193.224C143.047 193.384 143.489 193.619 143.852 193.928C144.215 194.227 144.497 194.595 144.7 195.032C144.903 195.459 145.004 195.944 145.004 196.488V197.944ZM143.404 196.568C143.404 195.885 143.164 195.357 142.684 194.984C142.215 194.6 141.596 194.408 140.828 194.408C140.06 194.408 139.436 194.6 138.956 194.984C138.487 195.357 138.252 195.885 138.252 196.568V197.864C138.252 198.547 138.487 199.08 138.956 199.464C139.436 199.837 140.06 200.024 140.828 200.024C141.596 200.024 142.215 199.837 142.684 199.464C143.164 199.08 143.404 198.547 143.404 197.864V196.568ZM162.976 197.672C162.976 198.088 162.88 198.392 162.688 198.584C162.496 198.776 162.192 198.872 161.776 198.872H151.52V194.056C151.52 193.715 151.595 193.469 151.744 193.32C151.893 193.171 152.139 193.096 152.48 193.096H162.976V197.672ZM163.984 201.656H158.368V204.712H156.768V201.656H150.512V200.216H163.984V201.656ZM161.376 197.432V194.536H153.12V197.432H161.376ZM163.056 207.576H151.6V203.08H153.2V206.136H163.056V207.576ZM177.588 207.528H175.988V199.864H173.444V206.376H171.844V194.68H170.596C170.255 194.68 170.015 194.749 169.876 194.888C169.737 195.016 169.636 195.208 169.572 195.464L166.852 206.376H165.156L167.892 195.336C167.967 195.027 168.052 194.744 168.148 194.488C168.255 194.232 168.388 194.013 168.548 193.832C168.719 193.64 168.927 193.496 169.172 193.4C169.417 193.293 169.727 193.24 170.1 193.24H173.444V198.392H175.988V193.064H177.588V207.528Z" fill="black"/>
<path d="M130.68 473.096H129L127.352 467.848C127.32 467.72 127.283 467.635 127.24 467.592C127.197 467.539 127.117 467.512 127 467.512H125.896C125.779 467.512 125.699 467.539 125.656 467.592C125.613 467.645 125.576 467.731 125.544 467.848L123.8 473.096H122.12L123.976 467.512H122.184V466.072H125.656V464.408H127.256V466.072H130.888V467.512H128.936L130.68 473.096ZM133.928 479.528H132.328V465.064H133.928V479.528ZM131.368 475.272H127.016V479.528H125.416V475.272H121.736V473.832H131.368V475.272ZM148.588 472.648H146.988V469.176H144.668C144.636 469.688 144.519 470.147 144.316 470.552C144.113 470.957 143.836 471.304 143.484 471.592C143.143 471.869 142.732 472.083 142.252 472.232C141.772 472.381 141.244 472.456 140.668 472.456C140.06 472.456 139.511 472.376 139.02 472.216C138.529 472.045 138.108 471.811 137.756 471.512C137.404 471.203 137.132 470.835 136.94 470.408C136.748 469.971 136.652 469.48 136.652 468.936V468.488C136.652 467.944 136.748 467.459 136.94 467.032C137.132 466.595 137.404 466.227 137.756 465.928C138.108 465.619 138.529 465.384 139.02 465.224C139.511 465.053 140.06 464.968 140.668 464.968C141.724 464.968 142.599 465.213 143.292 465.704C143.996 466.184 144.433 466.851 144.604 467.704H146.988V465.064H148.588V472.648ZM148.588 478.328C148.588 478.744 148.492 479.048 148.3 479.24C148.108 479.432 147.804 479.528 147.388 479.528H137.5V473.384H139.1V474.92H146.988V473.384H148.588V478.328ZM143.084 468.568C143.084 467.885 142.865 467.357 142.428 466.984C141.991 466.6 141.404 466.408 140.668 466.408C139.932 466.408 139.345 466.6 138.908 466.984C138.471 467.357 138.252 467.885 138.252 468.568V468.856C138.252 469.539 138.471 470.072 138.908 470.456C139.345 470.829 139.932 471.016 140.668 471.016C141.404 471.016 141.991 470.829 142.428 470.456C142.865 470.072 143.084 469.539 143.084 468.856V468.568ZM146.988 478.088V476.328H139.1V478.088H146.988ZM160.896 479.528H159.296V474.248H155.36V479.528H153.76V474.248H150.512V472.808H163.984V474.248H160.896V479.528ZM162.56 471.848H160.96L161.44 467.112C161.472 466.813 161.323 466.664 160.992 466.664H151.52V465.224H162.32C162.597 465.224 162.805 465.304 162.944 465.464C163.093 465.624 163.157 465.837 163.136 466.104L162.56 471.848ZM174.068 473.16H172.388L170.58 467.656C170.537 467.528 170.495 467.443 170.452 467.4C170.42 467.347 170.345 467.32 170.228 467.32H169.124C169.007 467.32 168.927 467.347 168.884 467.4C168.852 467.453 168.815 467.539 168.772 467.656L166.868 473.16H165.188L167.204 467.32H165.236V465.88H168.884V464.248H170.484V465.88H174.292V467.32H172.164L174.068 473.16ZM177.588 479.528H175.988V475.656H166.42V474.216H177.588V479.528ZM177.588 473.48H175.988V465.064H177.588V473.48Z" fill="black"/>
<path d="M99.9492 124.508V125.281H95.6016V128.949H94.6992V125.281H90.4102V124.508H99.9492ZM95.1562 118.953C97.3477 118.953 98.8242 119.832 98.8242 121.25C98.8242 122.633 97.3477 123.512 95.1562 123.512C92.9648 123.512 91.4883 122.633 91.4883 121.25C91.4883 119.832 92.9648 118.953 95.1562 118.953ZM95.1562 119.703C93.5273 119.703 92.4258 120.312 92.4375 121.25C92.4258 122.176 93.5273 122.773 95.1562 122.773C96.7734 122.773 97.8867 122.176 97.8867 121.25C97.8867 120.312 96.7734 119.703 95.1562 119.703ZM109.035 118.531V128.973H108.12V118.531H109.035ZM105.87 119.504V123.207H101.98V125.668C103.708 125.668 105.249 125.592 107.113 125.293L107.206 126.066C105.285 126.371 103.703 126.441 101.91 126.441H101.042V122.457H104.945V120.266H101.019V119.504H105.87ZM121.639 118.531V128.949H120.725V118.531H121.639ZM113.154 126.172C114.045 126.166 115.065 126.16 116.119 126.125V124.988C114.871 124.854 114.057 124.145 114.068 123.102C114.057 121.93 115.065 121.168 116.565 121.168C118.065 121.168 119.084 121.93 119.084 123.102C119.084 124.133 118.275 124.842 117.045 124.977V126.09C118.053 126.049 119.072 125.973 120.033 125.844L120.104 126.547C117.783 126.922 115.229 126.957 113.295 126.957L113.154 126.172ZM119.764 119.82V120.57H113.377V119.82H116.119V118.543H117.045V119.82H119.764ZM116.565 121.883C115.604 121.883 114.924 122.375 114.924 123.102C114.924 123.828 115.604 124.297 116.565 124.285C117.537 124.297 118.205 123.828 118.205 123.102C118.205 122.375 117.537 121.883 116.565 121.883ZM126.599 121.332C126.599 123.172 127.818 125.059 129.294 125.785L128.732 126.523C127.583 125.92 126.623 124.689 126.165 123.242C125.697 124.783 124.712 126.096 123.54 126.723L122.955 125.984C124.478 125.234 125.685 123.23 125.697 121.332V119.434H126.599V121.332ZM131.169 118.531V122.762H132.915V123.559H131.169V128.949H130.255V118.531H131.169ZM136.528 119.293C138.169 119.293 139.329 120.289 139.329 121.742C139.329 123.195 138.169 124.191 136.528 124.191C134.888 124.191 133.704 123.195 133.716 121.742C133.704 120.289 134.888 119.293 136.528 119.293ZM136.528 120.102C135.415 120.102 134.606 120.77 134.618 121.742C134.606 122.715 135.415 123.383 136.528 123.383C137.63 123.383 138.427 122.715 138.427 121.742C138.427 120.77 137.63 120.102 136.528 120.102ZM141.661 118.531V128.973H140.747V118.531H141.661ZM133.177 125.891C135.098 125.891 137.747 125.879 140.055 125.539L140.126 126.219C137.747 126.664 135.18 126.676 133.305 126.676L133.177 125.891ZM155.308 123.863V124.625H151.066V126.758H150.152V124.625H145.769V123.863H155.308ZM154.066 119.047V122.668H147.011V119.047H154.066ZM147.914 119.773V121.93H153.152V119.773H147.914ZM154.242 127.953V128.727H146.988V125.727H147.914V127.953H154.242ZM159.46 121.332C159.46 123.219 160.667 125.117 162.179 125.809L161.628 126.559C160.444 125.949 159.466 124.701 159.003 123.219C158.54 124.777 157.561 126.113 156.378 126.746L155.78 126.008C157.304 125.258 158.522 123.254 158.522 121.332V119.434H159.46V121.332ZM164.429 118.531V128.973H163.515V122.844H161.042V122.094H163.515V118.531H164.429ZM175.33 123.371V124.098H165.791V123.371H175.33ZM174.135 124.93V127.145H167.877V128.141H174.475V128.809H166.951V126.512H173.221V125.621H166.94V124.93H174.135ZM174.1 118.848V121.004H167.948V121.918H174.287V122.586H167.033V120.371H173.174V119.516H166.998V118.848H174.1ZM188.005 126.84V127.613H178.466V126.84H182.767V124.309H183.692V126.84H188.005ZM183.692 120.512C183.692 122.176 185.755 123.605 187.548 123.898L187.173 124.625C185.579 124.314 183.897 123.301 183.235 121.848C182.561 123.307 180.886 124.344 179.321 124.672L178.935 123.934C180.692 123.629 182.743 122.176 182.743 120.512V120.254H179.251V119.48H187.185V120.254H183.692V120.512ZM197.02 118.531V128.949H196.106V118.531H197.02ZM188.535 126.172C189.426 126.166 190.446 126.16 191.5 126.125V124.988C190.252 124.854 189.438 124.145 189.45 123.102C189.438 121.93 190.446 121.168 191.946 121.168C193.446 121.168 194.465 121.93 194.465 123.102C194.465 124.133 193.657 124.842 192.426 124.977V126.09C193.434 126.049 194.453 125.973 195.414 125.844L195.485 126.547C193.164 126.922 190.61 126.957 188.676 126.957L188.535 126.172ZM195.145 119.82V120.57H188.758V119.82H191.5V118.543H192.426V119.82H195.145ZM191.946 121.883C190.985 121.883 190.305 122.375 190.305 123.102C190.305 123.828 190.985 124.297 191.946 124.285C192.918 124.297 193.586 123.828 193.586 123.102C193.586 122.375 192.918 121.883 191.946 121.883ZM201.898 119.117L199.156 129.277H198.242L200.972 119.117H201.898ZM207.913 119.34V119.891C207.901 120.57 207.901 121.613 207.644 122.973L206.718 122.902C206.97 121.654 206.993 120.77 207.011 120.113H202.722V119.34H207.913ZM205.23 121.648V123.887C206.384 123.84 207.579 123.758 208.663 123.605L208.722 124.285C206.542 124.66 204.022 124.707 202.171 124.707L202.077 123.945C202.751 123.939 203.513 123.934 204.315 123.91V121.648H205.23ZM210.304 118.531V121.93H211.827V122.715H210.304V126.371H209.366V118.531H210.304ZM210.644 127.953V128.727H203.683V125.668H204.608V127.953H210.644ZM220.748 118.531V128.973H219.834V118.531H220.748ZM217.584 119.504V123.207H213.694V125.668C215.422 125.668 216.963 125.592 218.827 125.293L218.92 126.066C216.998 126.371 215.416 126.441 213.623 126.441H212.756V122.457H216.659V120.266H212.733V119.504H217.584ZM230.303 118.496V121.027H231.885V121.789H230.303V124.262H229.388V118.496H230.303ZM230.303 124.801V127.109H224.584V128.129H230.689V128.832H223.681V126.43H229.388V125.492H223.658V124.801H230.303ZM228.392 119.48V120.219H222.181V119.48H224.83V118.426H225.744V119.48H228.392ZM225.287 120.688C226.799 120.688 227.783 121.344 227.795 122.398C227.783 123.453 226.799 124.109 225.287 124.109C223.763 124.109 222.767 123.453 222.779 122.398C222.767 121.344 223.763 120.688 225.287 120.688ZM225.287 121.367C224.303 121.367 223.646 121.777 223.658 122.398C223.646 123.031 224.303 123.418 225.287 123.418C226.271 123.418 226.916 123.031 226.928 122.398C226.916 121.777 226.271 121.367 225.287 121.367ZM240.047 119.504C240.047 120.969 241.969 122.246 243.844 122.504L243.469 123.254C241.852 122.984 240.252 122.088 239.579 120.805C238.911 122.094 237.305 122.984 235.688 123.254L235.313 122.504C237.188 122.246 239.098 120.992 239.098 119.504V118.906H240.047V119.504ZM244.313 124.402V125.176H240V128.949H239.098V125.176H234.821V124.402H244.313ZM251.011 125.527C251.011 126.447 251.503 127.426 252.499 127.988C253.484 127.373 254.011 126.336 254.011 125.527V124.953H254.913V125.527C254.913 126.594 255.698 127.672 257.034 128.129L256.577 128.809C255.534 128.439 254.802 127.713 254.445 126.84C254.122 127.684 253.484 128.48 252.523 128.891C251.509 128.504 250.864 127.736 250.554 126.863C250.185 127.707 249.464 128.434 248.468 128.809L247.999 128.129C249.312 127.637 250.109 126.523 250.12 125.527V124.953H251.011V125.527ZM256.085 118.543V124.496H255.171V118.543H256.085ZM250.46 119.152C252.042 119.152 253.191 120.137 253.191 121.59C253.191 123.02 252.042 124.004 250.46 124.004C248.878 124.004 247.73 123.02 247.73 121.59C247.73 120.137 248.878 119.152 250.46 119.152ZM250.46 119.938C249.394 119.926 248.62 120.617 248.632 121.59C248.62 122.551 249.394 123.23 250.46 123.242C251.515 123.23 252.288 122.551 252.288 121.59C252.288 120.617 251.515 119.926 250.46 119.938ZM260.295 119.34C261.713 119.352 262.733 120.564 262.885 122.516H265.217V118.531H266.131V128.973H265.217V123.277H262.897C262.786 125.316 261.749 126.594 260.295 126.594C258.76 126.594 257.682 125.188 257.682 122.973C257.682 120.758 258.76 119.352 260.295 119.34ZM260.295 120.16C259.264 120.172 258.561 121.273 258.561 122.973C258.561 124.672 259.264 125.773 260.295 125.773C261.315 125.773 262.03 124.672 262.03 122.973C262.03 121.273 261.315 120.172 260.295 120.16ZM277.045 126.84V127.613H267.506V126.84H269.873V124.027C268.982 123.564 268.443 122.814 268.443 121.871C268.443 120.254 270.025 119.199 272.252 119.188C274.478 119.199 276.06 120.254 276.06 121.871C276.06 122.797 275.539 123.541 274.678 124.004V126.84H277.045ZM272.252 119.949C270.541 119.938 269.334 120.711 269.334 121.871C269.334 123.031 270.541 123.816 272.252 123.816C273.951 123.816 275.17 123.031 275.17 121.871C275.17 120.711 273.951 119.938 272.252 119.949ZM270.775 126.84H273.752V124.355C273.301 124.479 272.797 124.543 272.252 124.543C271.719 124.543 271.221 124.484 270.775 124.367V126.84ZM278.618 128.07C278.208 128.07 277.857 127.73 277.868 127.309C277.857 126.898 278.208 126.559 278.618 126.559C279.029 126.559 279.368 126.898 279.368 127.309C279.368 127.73 279.029 128.07 278.618 128.07Z" fill="black" fill-opacity="0.54"/>
</g>
<defs>
<filter id="filter0_d_283_2749" x="67.8" y="160.8" width="518.4" height="304.4" filterUnits="userSpaceOnUse" color-interpolation-filters="sRGB">
<feFlood flood-opacity="0" result="BackgroundImageFix"/>
<feColorMatrix in="SourceAlpha" type="matrix" values="0 0 0 0 0 0 0 0 0 0 0 0 0 0 0 0 0 0 127 0" result="hardAlpha"/>
<feOffset dy="21"/>
<feGaussianBlur stdDeviation="10.6"/>
<feComposite in2="hardAlpha" operator="out"/>
<feColorMatrix type="matrix" values="0 0 0 0 0 0 0 0 0 0 0 0 0 0 0 0 0 0 0.06 0"/>
<feBlend mode="normal" in2="BackgroundImageFix" result="effect1_dropShadow_283_2749"/>
<feBlend mode="normal" in="SourceGraphic" in2="effect1_dropShadow_283_2749" result="shape"/>
</filter>
<clipPath id="clip0_283_2749">
<rect width="440" height="500" rx="16" fill="white"/>
</clipPath>
<clipPath id="clip1_283_2749">
<rect width="10" height="12" fill="white" transform="translate(146 253)"/>
</clipPath>
<clipPath id="clip2_283_2749">
<rect width="10" height="12" fill="white" transform="translate(146 339)"/>
</clipPath>
</defs>
</svg>
