<svg width="653" height="610" viewBox="0 0 653 610" fill="none" xmlns="http://www.w3.org/2000/svg">
<g clip-path="url(#clip0_295_681)">
<rect x="64" width="460" height="669" rx="20" fill="white"/>
<path d="M199.881 47.1875V48.8125H186.866V47.1875H192.366V44.4062H194.35V47.1875H199.881ZM198.741 38.1719V39.7656H194.397C194.561 41.3438 196.17 42.9453 199.412 43.3438L198.694 44.8906C196.147 44.5703 194.311 43.5156 193.366 42.0469C192.405 43.5156 190.584 44.5703 188.037 44.8906L187.303 43.3438C190.545 42.9453 192.155 41.3438 192.334 39.7656H187.991V38.1719H192.366V36.3906H194.35V38.1719H198.741ZM208.394 37.6406V38.7812C208.378 40.125 208.378 41.875 208.003 44.2344L206.034 44.0781C206.355 42.0156 206.386 40.4922 206.409 39.2344H201.019V37.6406H208.394ZM204.847 41.7188V45.8438C206.245 45.7891 207.667 45.6875 208.972 45.5156L209.097 47C206.175 47.5 202.941 47.5469 200.456 47.5312L200.269 45.9375C201.066 45.9297 201.956 45.9297 202.878 45.9062V41.7188H204.847ZM211.659 36.2188V41.9375H213.597V43.5938H211.659V50.4375H209.644V36.2188H211.659ZM225.391 37.0156V38.2188C225.391 39.4219 225.391 40.7734 225.078 42.5156H226.937V44.1094H213.922V42.5156H223.047C223.367 40.9219 223.406 39.7344 223.406 38.6094H215.516V37.0156H225.391ZM225.797 48.5781V50.1719H215.578V45.3594H217.547V48.5781H225.797ZM240.45 44.1719V45.7656H234.887V50.4219H232.919V45.7656H227.434V44.1719H240.45ZM238.887 36.9062V42.6406H228.966V36.9062H238.887ZM230.934 38.4844V41.0781H236.903V38.4844H230.934ZM245.194 44.6875C245.194 41.75 246.1 39.3125 247.6 37.2031H249.803C248.725 38.7656 247.6 41.8906 247.6 44.6875C247.6 47.5 248.725 50.625 249.803 52.1875H247.6C246.1 50.0781 245.194 47.625 245.194 44.6875ZM255.831 39.4375C255.831 42.0469 257.019 44.6719 259.425 45.6875L258.253 47.2812C256.628 46.5469 255.503 45.1328 254.862 43.375C254.214 45.2891 253.05 46.8359 251.316 47.625L250.112 45.9688C252.597 44.9219 253.8 42.2031 253.816 39.4375V37.3125H255.831V39.4375ZM262.206 36.2188V50.4688H260.191V36.2188H262.206ZM275.109 36.2188V40.2031H277.031V41.8438H275.109V46.4062H273.094V36.2188H275.109ZM271.234 37.2812C271.234 41.125 268.828 43.8125 264.562 45.0156L263.734 43.4375C266.914 42.5469 268.719 40.8984 269.047 38.9062H264.359V37.2812H271.234ZM275.594 48.5938V50.1875H265.859V45.3594H267.875V48.5938H275.594ZM281.966 37.0625C284.216 37.0625 285.903 38.5 285.903 40.5469C285.903 42.2812 284.692 43.5781 282.95 43.9375V45.8438C284.153 45.7812 285.364 45.6719 286.512 45.5156L286.669 46.9531C283.512 47.5469 280.137 47.5781 277.653 47.5781L277.419 45.9688C278.466 45.9688 279.684 45.9609 280.966 45.9219V43.9219C279.231 43.5703 278.012 42.2734 278.012 40.5469C278.012 38.5 279.716 37.0625 281.966 37.0625ZM281.966 38.7656C280.841 38.7656 279.981 39.4062 279.997 40.5469C279.981 41.6562 280.841 42.3281 281.966 42.3281C283.106 42.3281 283.95 41.6562 283.966 40.5469C283.95 39.4062 283.091 38.7656 281.966 38.7656ZM289.309 36.2188V50.4688H287.325V36.2188H289.309ZM305.741 37.0156V38.2188C305.741 39.4219 305.741 40.7734 305.428 42.5156H307.287V44.1094H294.272V42.5156H303.397C303.717 40.9219 303.756 39.7344 303.756 38.6094H295.866V37.0156H305.741ZM306.147 48.5781V50.1719H295.928V45.3594H297.897V48.5781H306.147ZM320.8 44.1719V45.7656H315.237V50.4219H313.269V45.7656H307.784V44.1719H320.8ZM319.237 36.9062V42.6406H309.316V36.9062H319.237ZM311.284 38.4844V41.0781H317.253V38.4844H311.284ZM325.891 44.6875C325.891 47.625 324.984 50.0781 323.484 52.1875H321.281C322.359 50.625 323.484 47.5 323.484 44.6875C323.484 41.8906 322.359 38.7656 321.281 37.2031H323.484C324.984 39.3125 325.891 41.75 325.891 44.6875ZM338.166 36.9062C338.166 38.4062 339.822 40.0625 342.962 40.4219L342.244 41.9844C339.822 41.6641 338.056 40.625 337.15 39.2188C336.228 40.625 334.455 41.6562 332.041 41.9844L331.291 40.4219C334.447 40.0625 336.103 38.4062 336.119 36.9062V36.4375H338.166V36.9062ZM343.619 42.7656V44.3281H330.65V42.7656H343.619ZM337.119 45.2969C340.197 45.2969 342.056 46.2031 342.072 47.875C342.056 49.5156 340.197 50.4531 337.119 50.4531C333.994 50.4531 332.134 49.5156 332.134 47.875C332.134 46.2031 333.994 45.2969 337.119 45.2969ZM337.119 46.7969C335.15 46.7969 334.15 47.1406 334.166 47.875C334.15 48.6094 335.15 48.9375 337.119 48.9375C339.041 48.9375 340.056 48.6094 340.072 47.875C340.056 47.1406 339.041 46.7969 337.119 46.7969ZM356.084 36.2344V46.4531H354.084V36.2344H356.084ZM356.459 48.5938V50.1875H346.553V45.4219H348.569V48.5938H356.459ZM348.288 37.1406C350.475 37.1406 352.178 38.6406 352.178 40.7188C352.178 42.8438 350.475 44.3281 348.288 44.3281C346.1 44.3281 344.397 42.8438 344.397 40.7188C344.397 38.6406 346.1 37.1406 348.288 37.1406ZM348.288 38.875C347.178 38.8594 346.334 39.5625 346.35 40.7188C346.334 41.9062 347.178 42.5938 348.288 42.5938C349.366 42.5938 350.209 41.9062 350.209 40.7188C350.209 39.5625 349.366 38.8594 348.288 38.875ZM373 36.2344V46.6094H371V36.2344H373ZM373.375 48.5938V50.1875H363.469V45.6094H365.484V48.5938H373.375ZM366.547 38.3906C366.531 40.2656 367.531 42.1094 369.875 42.8594L368.859 44.4219C367.258 43.8906 366.148 42.8281 365.516 41.4688C364.883 42.9297 363.742 44.1016 362.078 44.6719L361.047 43.0938C363.438 42.2969 364.469 40.3125 364.469 38.3906V37.0156H366.547V38.3906ZM382.731 37.7031V39.2656H379.856C379.872 40.7266 380.95 42.2109 383.231 42.7969L382.309 44.3281C380.692 43.9219 379.552 43.0234 378.903 41.8594C378.286 43.1875 377.145 44.2266 375.466 44.7031L374.528 43.1562C376.809 42.5078 377.856 40.8828 377.872 39.2656H375.013V37.7031H377.872V36.1562H379.888V37.7031H382.731ZM386.606 36.2188V44.8125H384.622V41.625H382.309V40.0312H384.622V36.2188H386.606ZM381.747 45.0469C384.778 45.0625 386.638 46.0156 386.653 47.7188C386.638 49.4375 384.778 50.4375 381.747 50.4375C378.731 50.4375 376.856 49.4375 376.856 47.7188C376.856 46.0156 378.731 45.0625 381.747 45.0469ZM381.747 46.5781C379.856 46.5781 378.841 46.9531 378.841 47.7188C378.841 48.5 379.856 48.9219 381.747 48.9219C383.669 48.9219 384.669 48.5 384.669 47.7188C384.669 46.9531 383.669 46.5781 381.747 46.5781ZM393.525 39.4375C393.525 42.1094 394.603 44.7031 396.978 45.7344L395.759 47.3281C394.181 46.5547 393.127 45.1406 392.541 43.3906C391.916 45.25 390.822 46.7734 389.197 47.5781L387.947 45.9531C390.384 44.8594 391.494 42.1094 391.509 39.4375V37.3125H393.525V39.4375ZM400.15 36.2188V50.4688H398.181V42.2969H395.384V40.6875H398.181V36.2188H400.15Z" fill="black"/>
<path d="M185.013 389.729C186.463 389.729 187.516 390.534 187.516 391.727C187.516 392.908 186.463 393.725 185.013 393.714C183.562 393.725 182.531 392.908 182.531 391.727C182.531 390.534 183.562 389.729 185.013 389.729ZM185.013 390.556C184.143 390.556 183.509 391.018 183.52 391.727C183.509 392.425 184.143 392.887 185.013 392.876C185.904 392.887 186.538 392.425 186.538 391.727C186.538 391.018 185.904 390.556 185.013 390.556ZM189.857 389.299V398.913H188.848V389.299H189.857ZM181.844 394.466C183.616 394.466 186.076 394.423 188.182 394.111L188.257 394.874C187.381 395.041 186.468 395.143 185.582 395.207V398.612H184.562V395.261C183.627 395.304 182.746 395.309 181.983 395.314L181.844 394.466ZM193.951 389.9C195.433 389.9 196.54 390.835 196.54 392.188C196.54 393.381 195.68 394.246 194.467 394.434V395.959C195.321 395.921 196.175 395.857 196.97 395.755L197.045 396.518C195.014 396.872 192.769 396.883 191.104 396.872L190.943 396.034C191.69 396.029 192.549 396.023 193.446 396.002V394.434C192.2 394.256 191.351 393.386 191.362 392.188C191.351 390.835 192.436 389.9 193.951 389.9ZM193.951 390.76C193.027 390.771 192.35 391.329 192.35 392.188C192.35 393.048 193.027 393.617 193.951 393.606C194.864 393.617 195.53 393.048 195.541 392.188C195.53 391.329 194.864 390.771 193.951 390.76ZM198.57 389.288V393.198H200.053V394.058H198.57V398.913H197.55V389.288H198.57ZM210.216 389.288V391.458H211.613V392.285H210.216V394.401H209.196V389.288H210.216ZM207.617 389.954C207.617 392.414 205.952 393.972 203.094 394.584L202.664 393.757C205.092 393.268 206.349 392.135 206.489 390.771H203.094V389.954H207.617ZM210.259 394.81V395.583H205.06V396.41H210.152V397.151H205.06V398.021H210.474V398.795H204.039V394.81H210.259ZM219.831 389.288V398.935H218.811V389.288H219.831ZM214.686 390.008C216.114 390.008 217.167 391.318 217.167 393.381C217.167 395.454 216.114 396.765 214.686 396.765C213.236 396.765 212.194 395.454 212.194 393.381C212.194 391.318 213.236 390.008 214.686 390.008ZM214.686 390.921C213.794 390.921 213.182 391.866 213.182 393.381C213.182 394.906 213.794 395.852 214.686 395.852C215.567 395.852 216.179 394.906 216.179 393.381C216.179 391.866 215.567 390.921 214.686 390.921ZM226.987 391.737C226.976 393.499 228.04 395.261 229.533 395.927L228.921 396.732C227.814 396.206 226.939 395.126 226.493 393.811C226.042 395.218 225.156 396.383 224.001 396.947L223.378 396.088C224.892 395.411 225.956 393.574 225.956 391.737V390.094H226.987V391.737ZM231.424 389.288V398.935H230.403V389.288H231.424ZM240.222 389.288V392.135H241.619V392.983H240.222V396.281H239.191V389.288H240.222ZM237.612 390.019C237.612 392.543 235.893 394.38 233.079 395.229L232.649 394.412C234.9 393.735 236.301 392.457 236.505 390.867H233.057V390.019H237.612ZM240.62 397.882V398.709H234.11V395.562H235.141V397.882H240.62ZM245.003 389.9C246.529 389.9 247.614 390.835 247.624 392.188C247.614 393.386 246.765 394.256 245.508 394.434V395.959C246.416 395.916 247.34 395.841 248.204 395.712L248.28 396.453C246.099 396.861 243.768 396.872 242.049 396.872L241.92 396.034C242.678 396.034 243.558 396.034 244.488 396.002V394.434C243.242 394.251 242.371 393.381 242.382 392.188C242.371 390.835 243.489 389.9 245.003 389.9ZM245.003 390.781C244.069 390.781 243.381 391.329 243.392 392.188C243.381 393.037 244.069 393.606 245.003 393.596C245.938 393.606 246.625 393.037 246.625 392.188C246.625 391.329 245.938 390.781 245.003 390.781ZM249.827 389.288V398.935H248.806V389.288H249.827ZM261.15 389.857V390.62C261.15 391.437 261.15 392.393 260.914 393.66H262.268V394.498H253.459V393.66H259.883C260.135 392.409 260.141 391.496 260.141 390.685H254.565V389.857H261.15ZM261.44 397.871V398.709H254.608V395.497H255.618V397.871H261.44ZM271.464 394.81V395.637H267.532V398.902H266.533V395.637H262.655V394.81H271.464ZM270.357 389.804V393.585H263.762V389.804H270.357ZM264.761 390.62V392.79H269.337V390.62H264.761ZM280.671 393.703V394.487H271.862V393.703H280.671ZM279.586 395.164V397.28H273.935V398.075H279.886V398.795H272.915V396.604H278.576V395.895H272.904V395.164H279.586ZM279.564 389.535V391.619H274V392.35H279.725V393.069H272.99V390.942H278.544V390.255H272.968V389.535H279.564ZM291.446 389.299V396.346H290.426V389.299H291.446ZM291.737 397.882V398.709H285.152V395.68H286.183V397.882H291.737ZM286.967 390.781C286.956 392.188 287.859 393.478 289.341 393.993L288.815 394.81C287.703 394.396 286.881 393.58 286.451 392.532C286.027 393.649 285.195 394.546 284.067 394.981L283.519 394.176C285.033 393.617 285.925 392.231 285.925 390.781V389.825H286.967V390.781ZM296.045 391.34C296.045 392.468 296.979 393.531 298.44 393.939L297.957 394.734C296.845 394.417 296.002 393.73 295.562 392.844C295.143 393.837 294.305 394.622 293.155 394.981L292.672 394.197C294.133 393.725 295.035 392.575 295.035 391.34V391.222H292.94V390.405H295.035V389.245H296.056V390.405H298.14V391.222H296.045V391.34ZM300.696 389.288V395.121H299.676V392.822H297.839V391.984H299.676V389.288H300.696ZM297.474 395.336C299.482 395.336 300.729 395.98 300.729 397.108C300.729 398.247 299.482 398.902 297.474 398.892C295.454 398.902 294.208 398.247 294.219 397.108C294.208 395.98 295.454 395.336 297.474 395.336ZM297.474 396.131C296.066 396.131 295.229 396.485 295.229 397.108C295.229 397.731 296.066 398.107 297.474 398.107C298.892 398.107 299.719 397.731 299.719 397.108C299.719 396.485 298.892 396.131 297.474 396.131ZM309.441 389.288V391.705H310.838V392.564H309.441V394.896H308.421V389.288H309.441ZM304.296 395.293V396.228H308.421V395.293H309.441V398.795H303.286V395.293H304.296ZM304.296 397.979H308.421V397.022H304.296V397.979ZM307.626 390.233V391.05H301.889V390.233H304.253V389.202H305.273V390.233H307.626ZM304.758 391.447C306.143 391.447 307.089 392.103 307.089 393.134C307.089 394.154 306.143 394.831 304.758 394.82C303.35 394.831 302.416 394.154 302.416 393.134C302.416 392.103 303.35 391.447 304.758 391.447ZM304.758 392.21C303.941 392.199 303.393 392.575 303.404 393.134C303.393 393.703 303.941 394.068 304.758 394.068C305.574 394.068 306.122 393.703 306.133 393.134C306.122 392.575 305.574 392.199 304.758 392.21ZM319.078 389.288V398.913H318.057V389.288H319.078ZM312.686 390.223V395.583C314.088 395.572 315.565 395.459 317.112 395.143L317.252 396.002C315.544 396.346 313.997 396.464 312.482 396.464H311.676V390.223H312.686ZM327.79 389.288V393.016H329.337V393.854H327.79V398.935H326.77V389.288H327.79ZM325.202 390.212V391.039H321.721V395.69C323.338 395.685 324.552 395.615 325.921 395.368L326.05 396.228C324.546 396.496 323.268 396.55 321.474 396.539H320.701V390.212H325.202ZM330.595 398.075C330.176 398.075 329.821 397.731 329.832 397.312C329.821 396.894 330.176 396.55 330.595 396.55C331.003 396.55 331.358 396.894 331.358 397.312C331.358 397.731 331.003 398.075 330.595 398.075Z" fill="black" fill-opacity="0.63"/>
<rect x="94.5" y="79.5" width="121.115" height="33" fill="#F4F4F6"/>
<rect x="94.5" y="79.5" width="121.115" height="33" stroke="#DDDDDD"/>
<path d="M138.3 91.1523V92.0781C138.3 93.0742 138.3 94.1523 138.007 95.6523H139.519V96.5664H135.265V101.008H134.14V96.5664H129.944V95.6523H136.882C137.198 94.1582 137.198 93.0566 137.198 92.0781V92.0664H131.116V91.1523H138.3ZM143.742 92.0664C143.742 93.543 144.691 94.8555 146.285 95.3711L145.676 96.2383C144.521 95.8223 143.672 95.0137 143.215 93.9648C142.758 95.166 141.844 96.0977 140.578 96.5547L139.98 95.6641C141.656 95.0898 142.629 93.6953 142.64 92.1133V91.082H143.742V92.0664ZM148.769 90.4961V96.6953H147.656V93.543H145.441V92.6289H147.656V90.4961H148.769ZM145.254 96.9883C147.457 96.9883 148.804 97.7148 148.804 98.9922C148.804 100.258 147.457 100.984 145.254 100.973C143.051 100.984 141.691 100.258 141.703 98.9922C141.691 97.7148 143.051 96.9883 145.254 96.9883ZM145.254 97.8555C143.719 97.8555 142.804 98.2656 142.804 98.9922C142.804 99.6953 143.719 100.094 145.254 100.094C146.789 100.094 147.703 99.6953 147.703 98.9922C147.703 98.2656 146.789 97.8555 145.254 97.8555ZM158.817 90.5078V98.4648H157.704V97.457H155.594V96.6719H157.704V90.5078H158.817ZM159.075 99.8711V100.773H151.493V97.6914H152.594V99.8711H159.075ZM150.04 95.3008C151.985 95.2891 154.598 95.2656 156.837 94.9844L156.907 95.7812C156.01 95.9277 155.067 96.0273 154.141 96.0859V98.1367H153.028V96.1445C152.008 96.1914 151.03 96.1973 150.18 96.1914L150.04 95.3008ZM153.473 90.9062C155.008 90.9062 156.075 91.6445 156.075 92.7578C156.075 93.8711 155.008 94.5859 153.473 94.5859C151.915 94.5859 150.86 93.8711 150.86 92.7578C150.86 91.6445 151.915 90.9062 153.473 90.9062ZM153.473 91.7383C152.536 91.7266 151.903 92.125 151.915 92.7578C151.903 93.3789 152.536 93.7656 153.473 93.7656C154.376 93.7656 155.008 93.3789 155.02 92.7578C155.008 92.125 154.376 91.7266 153.473 91.7383ZM168.912 90.4961V96.7422H167.798V94.082H165.841V93.168H167.798V90.4961H168.912ZM165.396 97.0352C167.599 97.0352 168.947 97.7617 168.947 99.0156C168.947 100.27 167.599 100.984 165.396 100.996C163.193 100.984 161.833 100.27 161.845 99.0156C161.833 97.7617 163.193 97.0352 165.396 97.0352ZM165.396 97.9023C163.861 97.9023 162.947 98.3008 162.947 99.0156C162.947 99.7188 163.861 100.129 165.396 100.117C166.931 100.129 167.845 99.7188 167.845 99.0156C167.845 98.3008 166.931 97.9023 165.396 97.9023ZM163.919 92.3477C163.919 93.6836 164.869 94.9727 166.451 95.5117L165.876 96.3906C164.699 95.9805 163.831 95.1426 163.38 94.1055C162.917 95.2832 161.997 96.2266 160.744 96.6836L160.158 95.793C161.787 95.2305 162.783 93.8125 162.783 92.3594V92.125H160.509V91.2227H166.169V92.125H163.919V92.3477ZM179.838 98.7695V99.6953H170.229V98.7695H174.459V96.6133H171.33V91.2109H172.444V93.0156H177.6V91.2109H178.701V96.6133H175.561V98.7695H179.838ZM172.444 95.7109H177.6V93.918H172.444V95.7109Z" fill="black"/>
<rect x="94.5" y="112.5" width="121.115" height="33" fill="#F4F4F6"/>
<rect x="94.5" y="112.5" width="121.115" height="33" stroke="#DDDDDD"/>
<path d="M122.3 126.168C122.288 128.09 123.448 130.012 125.077 130.738L124.409 131.617C123.202 131.043 122.247 129.865 121.761 128.43C121.269 129.965 120.302 131.236 119.042 131.852L118.362 130.914C120.015 130.176 121.175 128.172 121.175 126.168V124.375H122.3V126.168ZM127.14 123.496V134.02H126.026V123.496H127.14ZM136.765 123.496V126.602H138.289V127.527H136.765V131.125H135.64V123.496H136.765ZM133.918 124.293C133.918 127.047 132.043 129.051 128.972 129.977L128.504 129.086C130.959 128.348 132.488 126.953 132.711 125.219H128.949V124.293H133.918ZM137.199 132.871V133.773H130.097V130.34H131.222V132.871H137.199ZM142.008 124.164C143.672 124.164 144.856 125.184 144.868 126.66C144.856 127.967 143.93 128.916 142.559 129.109V130.773C143.549 130.727 144.557 130.645 145.501 130.504L145.583 131.312C143.204 131.758 140.661 131.77 138.786 131.77L138.645 130.855C139.471 130.855 140.432 130.855 141.446 130.82V129.109C140.087 128.91 139.137 127.961 139.149 126.66C139.137 125.184 140.356 124.164 142.008 124.164ZM142.008 125.125C140.989 125.125 140.239 125.723 140.251 126.66C140.239 127.586 140.989 128.207 142.008 128.195C143.028 128.207 143.778 127.586 143.778 126.66C143.778 125.723 143.028 125.125 142.008 125.125ZM147.27 123.496V134.02H146.157V123.496H147.27ZM159.678 124.117V124.949C159.678 125.84 159.678 126.883 159.42 128.266H160.897V129.18H151.287V128.266H158.295C158.571 126.9 158.576 125.904 158.576 125.02H152.494V124.117H159.678ZM159.994 132.859V133.773H152.541V130.27H153.643V132.859H159.994ZM170.956 129.52V130.422H166.667V133.984H165.577V130.422H161.347V129.52H170.956ZM169.749 124.059V128.184H162.554V124.059H169.749ZM163.644 124.949V127.316H168.636V124.949H163.644ZM174.406 123.848C175.988 123.859 177.148 124.832 177.16 126.203C177.148 127.586 175.988 128.547 174.406 128.547C172.812 128.547 171.64 127.586 171.64 126.203C171.64 124.832 172.812 123.859 174.406 123.848ZM174.406 124.785C173.433 124.773 172.719 125.348 172.73 126.203C172.719 127.07 173.433 127.645 174.406 127.645C175.367 127.645 176.082 127.07 176.082 126.203C176.082 125.348 175.367 124.773 174.406 124.785ZM180.137 123.496V128.84H179.023V123.496H180.137ZM180.137 129.32V131.969H174.347V132.977H180.488V133.867H173.269V131.137H179.035V130.211H173.234V129.32H180.137ZM185.356 126.168C185.344 128.09 186.504 130.012 188.133 130.738L187.465 131.617C186.258 131.043 185.303 129.865 184.817 128.43C184.325 129.965 183.358 131.236 182.098 131.852L181.419 130.914C183.071 130.176 184.231 128.172 184.231 126.168V124.375H185.356V126.168ZM190.196 123.496V134.02H189.083V123.496H190.196Z" fill="black"/>
<rect x="94.5" y="145.5" width="121.115" height="116" fill="#F4F4F6"/>
<rect x="94.5" y="145.5" width="121.115" height="116" stroke="#DDDDDD"/>
<path d="M122.3 200.668C122.288 202.59 123.448 204.512 125.077 205.238L124.409 206.117C123.202 205.543 122.247 204.365 121.761 202.93C121.269 204.465 120.302 205.736 119.042 206.352L118.362 205.414C120.015 204.676 121.175 202.672 121.175 200.668V198.875H122.3V200.668ZM127.14 197.996V208.52H126.026V197.996H127.14ZM136.765 197.996V201.102H138.289V202.027H136.765V205.625H135.64V197.996H136.765ZM133.918 198.793C133.918 201.547 132.043 203.551 128.972 204.477L128.504 203.586C130.959 202.848 132.488 201.453 132.711 199.719H128.949V198.793H133.918ZM137.199 207.371V208.273H130.097V204.84H131.222V207.371H137.199ZM142.008 198.664C143.672 198.664 144.856 199.684 144.868 201.16C144.856 202.467 143.93 203.416 142.559 203.609V205.273C143.549 205.227 144.557 205.145 145.501 205.004L145.583 205.812C143.204 206.258 140.661 206.27 138.786 206.27L138.645 205.355C139.471 205.355 140.432 205.355 141.446 205.32V203.609C140.087 203.41 139.137 202.461 139.149 201.16C139.137 199.684 140.356 198.664 142.008 198.664ZM142.008 199.625C140.989 199.625 140.239 200.223 140.251 201.16C140.239 202.086 140.989 202.707 142.008 202.695C143.028 202.707 143.778 202.086 143.778 201.16C143.778 200.223 143.028 199.625 142.008 199.625ZM147.27 197.996V208.52H146.157V197.996H147.27ZM159.678 198.617V199.449C159.678 200.34 159.678 201.383 159.42 202.766H160.897V203.68H151.287V202.766H158.295C158.571 201.4 158.576 200.404 158.576 199.52H152.494V198.617H159.678ZM159.994 207.359V208.273H152.541V204.77H153.643V207.359H159.994ZM170.956 204.02V204.922H166.667V208.484H165.577V204.922H161.347V204.02H170.956ZM169.749 198.559V202.684H162.554V198.559H169.749ZM163.644 199.449V201.816H168.636V199.449H163.644ZM179.691 198.008V201.125H181.191V202.039H179.691V205.074H178.578V198.008H179.691ZM171.359 203.902C172.174 203.902 173.117 203.902 174.101 203.867V203.164C172.906 203.041 172.144 202.479 172.156 201.629C172.144 200.668 173.14 200.07 174.652 200.082C176.152 200.07 177.148 200.668 177.148 201.629C177.148 202.473 176.398 203.035 175.215 203.164V203.832C176.152 203.785 177.101 203.709 177.98 203.586L178.074 204.383C175.812 204.781 173.328 204.793 171.476 204.793L171.359 203.902ZM179.691 205.566V208.496H178.578V206.434H172.672V205.566H179.691ZM177.687 198.898V199.73H171.629V198.898H174.101V197.914H175.215V198.898H177.687ZM174.652 200.844C173.75 200.832 173.211 201.125 173.211 201.629C173.211 202.121 173.75 202.438 174.652 202.438C175.543 202.438 176.082 202.121 176.082 201.629C176.082 201.125 175.543 200.832 174.652 200.844ZM190.208 198.008V205.637H189.094V198.008H190.208ZM190.524 207.371V208.273H183.34V204.863H184.465V207.371H190.524ZM184.512 198.711C186.094 198.711 187.301 199.789 187.301 201.312C187.301 202.859 186.094 203.926 184.512 203.926C182.93 203.926 181.712 202.859 181.712 201.312C181.712 199.789 182.93 198.711 184.512 198.711ZM184.512 199.684C183.528 199.684 182.801 200.352 182.801 201.312C182.801 202.297 183.528 202.953 184.512 202.953C185.473 202.953 186.212 202.297 186.212 201.312C186.212 200.352 185.473 199.684 184.512 199.684Z" fill="black"/>
<rect x="94.5" y="261.5" width="121.115" height="33" fill="#F4F4F6"/>
<rect x="94.5" y="261.5" width="121.115" height="33" stroke="#DDDDDD"/>
<path d="M123.8 275.168C123.788 277.09 124.948 279.012 126.577 279.738L125.909 280.617C124.702 280.043 123.747 278.865 123.261 277.43C122.769 278.965 121.802 280.236 120.542 280.852L119.862 279.914C121.515 279.176 122.675 277.172 122.675 275.168V273.375H123.8V275.168ZM128.64 272.496V283.02H127.526V272.496H128.64ZM138.265 272.496V275.602H139.789V276.527H138.265V280.125H137.14V272.496H138.265ZM135.418 273.293C135.418 276.047 133.543 278.051 130.472 278.977L130.004 278.086C132.459 277.348 133.988 275.953 134.211 274.219H130.449V273.293H135.418ZM138.699 281.871V282.773H131.597V279.34H132.722V281.871H138.699ZM143.508 273.164C145.172 273.164 146.356 274.184 146.368 275.66C146.356 276.967 145.43 277.916 144.059 278.109V279.773C145.049 279.727 146.057 279.645 147.001 279.504L147.083 280.312C144.704 280.758 142.161 280.77 140.286 280.77L140.145 279.855C140.971 279.855 141.932 279.855 142.946 279.82V278.109C141.587 277.91 140.637 276.961 140.649 275.66C140.637 274.184 141.856 273.164 143.508 273.164ZM143.508 274.125C142.489 274.125 141.739 274.723 141.751 275.66C141.739 276.586 142.489 277.207 143.508 277.195C144.528 277.207 145.278 276.586 145.278 275.66C145.278 274.723 144.528 274.125 143.508 274.125ZM148.77 272.496V283.02H147.657V272.496H148.77ZM158.548 273.117V273.949C158.548 274.84 158.548 275.883 158.29 277.266H159.767V278.18H150.158V277.266H157.165C157.441 275.9 157.447 274.904 157.447 274.02H151.365V273.117H158.548ZM158.865 281.859V282.773H151.412V279.27H152.513V281.859H158.865ZM169.826 278.52V279.422H165.537V282.984H164.447V279.422H160.217V278.52H169.826ZM168.619 273.059V277.184H161.424V273.059H168.619ZM162.514 273.949V276.316H167.506V273.949H162.514ZM178.655 272.93V276.527H175.632V277.746H179.874V278.648H170.3V277.746H174.53V276.527H171.519V272.93H178.655ZM172.608 273.809V275.637H177.554V273.809H172.608ZM178.702 279.645V282.996H177.577V280.523H171.366V279.645H178.702ZM184.133 274.359C184.133 275.684 185.082 276.984 186.664 277.523L186.09 278.391C184.912 277.98 184.039 277.143 183.582 276.105C183.125 277.26 182.205 278.186 180.957 278.625L180.383 277.746C182 277.195 182.996 275.789 182.996 274.371V274.078H180.722V273.176H186.383V274.078H184.133V274.359ZM189.125 279.305V282.996H188.012V280.207H182.012V279.305H189.125ZM189.125 272.496V278.777H188.012V276.082H186.066V275.168H188.012V272.496H189.125Z" fill="black"/>
<rect x="94.5" y="294.5" width="121.115" height="33" fill="#F4F4F6"/>
<rect x="94.5" y="294.5" width="121.115" height="33" stroke="#DDDDDD"/>
<path d="M123.8 308.168C123.788 310.09 124.948 312.012 126.577 312.738L125.909 313.617C124.702 313.043 123.747 311.865 123.261 310.43C122.769 311.965 121.802 313.236 120.542 313.852L119.862 312.914C121.515 312.176 122.675 310.172 122.675 308.168V306.375H123.8V308.168ZM128.64 305.496V316.02H127.526V305.496H128.64ZM138.265 305.496V308.602H139.789V309.527H138.265V313.125H137.14V305.496H138.265ZM135.418 306.293C135.418 309.047 133.543 311.051 130.472 311.977L130.004 311.086C132.459 310.348 133.988 308.953 134.211 307.219H130.449V306.293H135.418ZM138.699 314.871V315.773H131.597V312.34H132.722V314.871H138.699ZM143.508 306.164C145.172 306.164 146.356 307.184 146.368 308.66C146.356 309.967 145.43 310.916 144.059 311.109V312.773C145.049 312.727 146.057 312.645 147.001 312.504L147.083 313.312C144.704 313.758 142.161 313.77 140.286 313.77L140.145 312.855C140.971 312.855 141.932 312.855 142.946 312.82V311.109C141.587 310.91 140.637 309.961 140.649 308.66C140.637 307.184 141.856 306.164 143.508 306.164ZM143.508 307.125C142.489 307.125 141.739 307.723 141.751 308.66C141.739 309.586 142.489 310.207 143.508 310.195C144.528 310.207 145.278 309.586 145.278 308.66C145.278 307.723 144.528 307.125 143.508 307.125ZM148.77 305.496V316.02H147.657V305.496H148.77ZM158.923 305.496V316.02H157.81V310.559H155.642V309.656H157.81V305.496H158.923ZM153.884 308.871C153.884 310.535 154.951 312.234 156.568 312.949L155.947 313.805C154.746 313.271 153.82 312.176 153.357 310.852C152.894 312.252 151.974 313.424 150.767 313.98L150.158 313.125C151.751 312.398 152.783 310.605 152.783 308.871V308.18H150.451V307.289H152.794V305.707H153.908V307.289H156.181V308.18H153.884V308.871ZM168.947 305.496V316.02H167.834V305.496H168.947ZM165.737 306.445V310.277H161.963V312.574C163.662 312.568 165.151 312.492 166.908 312.199L167.014 313.113C165.151 313.43 163.569 313.5 161.717 313.5H160.826V309.387H164.6V307.348H160.815V306.445H165.737ZM179.909 313.758V314.684H170.3V313.758H172.597V311.016C171.735 310.541 171.214 309.785 171.214 308.848C171.214 307.195 172.831 306.105 175.081 306.105C177.343 306.105 178.96 307.195 178.96 308.848C178.96 309.773 178.456 310.518 177.612 310.992V313.758H179.909ZM175.081 306.996C173.429 306.996 172.292 307.711 172.292 308.848C172.292 309.973 173.429 310.711 175.081 310.711C176.722 310.711 177.882 309.973 177.882 308.848C177.882 307.711 176.722 306.996 175.081 306.996ZM173.698 313.758H176.487V311.414C176.06 311.525 175.585 311.578 175.081 311.578C174.589 311.578 174.12 311.525 173.698 311.426V313.758ZM184.051 307.734C184.051 308.965 185.07 310.125 186.664 310.57L186.137 311.438C184.924 311.092 184.004 310.342 183.523 309.375C183.066 310.459 182.152 311.314 180.898 311.707L180.371 310.852C181.965 310.336 182.949 309.082 182.949 307.734V307.605H180.664V306.715H182.949V305.449H184.062V306.715H186.336V307.605H184.051V307.734ZM189.125 305.496V311.859H188.012V309.352H186.008V308.438H188.012V305.496H189.125ZM185.609 312.094C187.801 312.094 189.16 312.797 189.16 314.027C189.16 315.27 187.801 315.984 185.609 315.973C183.406 315.984 182.047 315.27 182.058 314.027C182.047 312.797 183.406 312.094 185.609 312.094ZM185.609 312.961C184.074 312.961 183.16 313.348 183.16 314.027C183.16 314.707 184.074 315.117 185.609 315.117C187.156 315.117 188.058 314.707 188.058 314.027C188.058 313.348 187.156 312.961 185.609 312.961Z" fill="black"/>
<rect x="215.654" y="79.5" width="277.846" height="33" fill="white"/>
<rect x="215.654" y="79.5" width="277.846" height="33" stroke="#DDDDDD"/>
<rect x="225.59" y="86.0744" width="80.8298" height="19.8511" rx="3.05319" stroke="#5766FF" stroke-width="0.87234"/>
<path d="M236.419 100L236.736 98.0883H235.141L234.825 100H233.812L234.129 98.0883H233.087L233.25 97.0865H234.293L234.549 95.5122H233.516L233.68 94.5104H234.722L235.029 92.5987H236.041L235.734 94.5104H237.329L237.636 92.5987H238.638L238.331 94.5104H239.374L239.2 95.5122H238.157L237.902 97.0865H238.944L238.781 98.0883H237.738L237.421 100H236.419ZM235.305 97.0865H236.9L237.155 95.5122H235.561L235.305 97.0865ZM239.428 96.5754C240.256 96.5754 240.532 96.2687 240.532 95.5122V94.2753C240.532 92.6499 241.37 92.2818 242.822 92.2818V93.2837C241.973 93.2837 241.769 93.621 241.769 94.3775V95.87C241.769 96.4374 241.544 96.9178 240.573 97.107V97.2501C241.544 97.4494 241.769 97.9248 241.769 98.487V99.9898C241.769 100.736 241.973 101.084 242.822 101.084V102.085C241.37 102.085 240.532 101.717 240.532 100.092V98.8551C240.532 98.0986 240.256 97.7817 239.428 97.7817V96.5754ZM251.003 91.6685V100.91H249.919V96.1971H248.876V100.44H247.834V91.8423H248.876V95.2873H249.919V91.6685H251.003ZM246.791 92.7623V93.6823H244.481V97.7919C245.487 97.7817 246.316 97.7306 247.251 97.5568L247.333 98.487C246.218 98.7119 245.247 98.7426 243.959 98.7528H243.336V92.7623H246.791ZM255.054 93.1405C255.054 94.3059 255.81 95.3998 257.231 95.8496L256.618 96.7389C255.621 96.4016 254.905 95.7269 254.512 94.8682C254.103 95.8496 253.357 96.6214 252.294 96.9945L251.68 96.1051C253.173 95.5838 253.909 94.357 253.919 93.0383V92.1592H255.054V93.1405ZM259.071 91.6685V93.9175H260.359V94.858H259.071V97.199H257.937V91.6685H259.071ZM256.066 97.4034C257.977 97.3932 259.153 98.0475 259.163 99.1413C259.153 100.256 257.977 100.9 256.066 100.9C254.134 100.9 252.938 100.256 252.938 99.1413C252.938 98.0475 254.134 97.3932 256.066 97.4034ZM256.066 98.2928C254.798 98.2928 254.072 98.5995 254.072 99.1413C254.072 99.7138 254.798 100 256.066 100C257.333 100 258.039 99.7138 258.039 99.1413C258.039 98.5995 257.333 98.2928 256.066 98.2928ZM263.828 94.2957C263.828 95.7269 264.676 97.3523 266.138 98.027L265.504 98.9266C264.461 98.4359 263.69 97.4443 263.276 96.2891C262.857 97.5568 262.049 98.6404 260.986 99.1515L260.321 98.2621C261.793 97.567 262.683 95.8291 262.693 94.2957V93.5188H260.679V92.5783H265.76V93.5188H263.828V94.2957ZM267.753 91.6685V95.2669H269.174V96.2176H267.753V100.91H266.618V91.6685H267.753ZM279.106 91.6685V100.92H277.961V91.6685H279.106ZM274.128 92.3432C275.518 92.3432 276.53 93.6108 276.54 95.6042C276.53 97.6181 275.518 98.8755 274.128 98.8755C272.727 98.8755 271.715 97.6181 271.715 95.6042C271.715 93.6108 272.727 92.3432 274.128 92.3432ZM274.128 93.3654C273.341 93.3654 272.809 94.1935 272.809 95.6042C272.809 97.0252 273.341 97.8532 274.128 97.8532C274.905 97.8532 275.436 97.0252 275.436 95.6042C275.436 94.1935 274.905 93.3654 274.128 93.3654ZM288.586 96.3709V97.2705H280.142V96.3709H288.586ZM287.543 91.8627V94.2344H282.339V94.8989H287.727V95.7678H281.215V93.4063H286.408V92.7521H281.184V91.8627H287.543ZM287.573 97.935V100.797H281.246V97.935H287.573ZM282.36 98.8346V99.8773H286.449V98.8346H282.36ZM292.207 97.7817C291.379 97.7817 291.103 98.0986 291.103 98.8551V100.092C291.103 101.717 290.265 102.085 288.813 102.085V101.084C289.662 101.084 289.866 100.736 289.866 99.9898V98.487C289.866 97.9248 290.091 97.4494 291.062 97.2501V97.107C290.091 96.9178 289.866 96.4374 289.866 95.87V94.3775C289.866 93.621 289.662 93.2837 288.813 93.2837V92.2818C290.265 92.2818 291.103 92.6499 291.103 94.2753V95.5122C291.103 96.2687 291.379 96.5754 292.207 96.5754V97.7817ZM295.594 100L295.911 98.0883H294.316L293.999 100H292.987L293.304 98.0883H292.261L292.425 97.0865H293.467L293.723 95.5122H292.691L292.854 94.5104H293.897L294.204 92.5987H295.216L294.909 94.5104H296.504L296.81 92.5987H297.812L297.505 94.5104H298.548L298.374 95.5122H297.332L297.076 97.0865H298.119L297.955 98.0883H296.913L296.596 100H295.594ZM294.48 97.0865H296.074L296.33 95.5122H294.735L294.48 97.0865Z" fill="#5766FF"/>
<rect x="215.654" y="112.5" width="278" height="33" fill="white"/>
<rect x="215.654" y="112.5" width="278" height="33" stroke="#DDDDDD"/>
<rect x="225.568" y="119.278" width="66.0617" height="19.4444" rx="2.89506" stroke="#5766FF" stroke-width="0.827161"/>
<path d="M235.836 133L236.137 131.187H234.625L234.324 133H233.364L233.665 131.187H232.676L232.831 130.237H233.82L234.062 128.745H233.083L233.238 127.795H234.227L234.518 125.982H235.478L235.187 127.795H236.699L236.99 125.982H237.94L237.649 127.795H238.638L238.473 128.745H237.484L237.242 130.237H238.23L238.075 131.187H237.087L236.786 133H235.836ZM234.78 130.237H236.292L236.534 128.745H235.022L234.78 130.237ZM238.689 129.753C239.474 129.753 239.736 129.462 239.736 128.745V127.572C239.736 126.031 240.53 125.682 241.907 125.682V126.632C241.102 126.632 240.908 126.951 240.908 127.669V129.084C240.908 129.622 240.695 130.077 239.774 130.257V130.393C240.695 130.582 240.908 131.032 240.908 131.565V132.99C240.908 133.698 241.102 134.027 241.907 134.027V134.977C240.53 134.977 239.736 134.628 239.736 133.087V131.914C239.736 131.197 239.474 130.897 238.689 130.897V129.753ZM249.422 125.11V131.507H248.336V125.11H249.422ZM249.664 132.816V133.688H243.625V130.897H244.711V132.816H249.664ZM245.39 126.447C245.39 127.669 246.107 128.822 247.493 129.287L246.94 130.14C245.942 129.792 245.23 129.094 244.847 128.202C244.449 129.157 243.727 129.922 242.695 130.296L242.133 129.443C243.557 128.939 244.275 127.707 244.275 126.447V125.594H245.39V126.447ZM253.554 126.971C253.554 127.93 254.3 128.88 255.677 129.249L255.173 130.082C254.16 129.806 253.433 129.215 253.031 128.454C252.652 129.317 251.921 129.995 250.879 130.305L250.375 129.472C251.741 129.055 252.478 128.027 252.478 126.971V126.922H250.646V126.069H252.478V125.061H253.564V126.069H255.386V126.922H253.554V126.971ZM257.741 125.1V130.402H256.666V128.376H255.124V127.504H256.666V125.1H257.741ZM254.775 130.577C256.627 130.577 257.771 131.168 257.771 132.205C257.771 133.252 256.627 133.853 254.775 133.853C252.934 133.853 251.79 133.252 251.799 132.205C251.79 131.168 252.934 130.577 254.775 130.577ZM254.775 131.401C253.554 131.41 252.866 131.682 252.866 132.205C252.866 132.729 253.554 133.019 254.775 133.019C256.016 133.019 256.695 132.729 256.695 132.205C256.695 131.682 256.016 131.41 254.775 131.401ZM261.166 125.381C262.494 125.381 263.483 126.205 263.492 127.359C263.483 128.522 262.494 129.336 261.166 129.336C259.828 129.336 258.84 128.522 258.84 127.359C258.84 126.205 259.828 125.381 261.166 125.381ZM261.166 126.273C260.429 126.273 259.886 126.69 259.886 127.359C259.886 128.037 260.429 128.464 261.166 128.464C261.903 128.464 262.445 128.037 262.445 127.359C262.445 126.69 261.903 126.273 261.166 126.273ZM265.983 125.1V129.53H264.898V125.1H265.983ZM265.983 129.908V132.195H261.243V132.903H266.245V133.756H260.187V131.401H264.908V130.751H260.168V129.908H265.983ZM270.106 127.591C270.106 128.948 270.91 130.489 272.297 131.129L271.696 131.982C270.707 131.517 269.975 130.577 269.582 129.481C269.185 130.683 268.419 131.711 267.411 132.195L266.781 131.352C268.177 130.693 269.02 129.045 269.03 127.591V126.854H267.12V125.963H271.938V126.854H270.106V127.591ZM273.828 125.1V128.512H275.175V129.413H273.828V133.863H272.752V125.1H273.828ZM278.396 130.897C277.611 130.897 277.349 131.197 277.349 131.914V133.087C277.349 134.628 276.555 134.977 275.178 134.977V134.027C275.983 134.027 276.177 133.698 276.177 132.99V131.565C276.177 131.032 276.39 130.582 277.311 130.393V130.257C276.39 130.077 276.177 129.622 276.177 129.084V127.669C276.177 126.951 275.983 126.632 275.178 126.632V125.682C276.555 125.682 277.349 126.031 277.349 127.572V128.745C277.349 129.462 277.611 129.753 278.396 129.753V130.897ZM281.608 133L281.908 131.187H280.396L280.095 133H279.136L279.436 131.187H278.447L278.603 130.237H279.591L279.834 128.745H278.855L279.01 127.795H279.998L280.289 125.982H281.249L280.958 127.795H282.47L282.761 125.982H283.711L283.42 127.795H284.409L284.244 128.745H283.255L283.013 130.237H284.002L283.847 131.187H282.858L282.557 133H281.608ZM280.551 130.237H282.063L282.305 128.745H280.793L280.551 130.237Z" fill="#5766FF"/>
<path d="M241.295 164.508V172.242H240.182V169.512H237.58C237.082 170.104 236.32 170.461 235.447 170.461C233.865 170.461 232.693 169.359 232.693 167.812C232.693 166.254 233.865 165.152 235.447 165.141C236.314 165.146 237.07 165.504 237.568 166.09H240.182V164.508H241.295ZM241.576 173.871V174.773H234.475V171.434H235.588V173.871H241.576ZM235.447 166.137C234.463 166.137 233.76 166.816 233.76 167.812C233.76 168.809 234.463 169.477 235.447 169.477C236.396 169.477 237.111 168.809 237.111 167.812C237.111 166.816 236.396 166.137 235.447 166.137ZM238.061 166.992C238.131 167.244 238.178 167.52 238.178 167.812C238.178 168.094 238.137 168.363 238.061 168.609H240.182V166.992H238.061ZM246.28 166.43C246.28 167.766 247.206 168.984 248.8 169.488L248.272 170.355C247.077 169.975 246.204 169.184 245.741 168.188C245.284 169.336 244.364 170.244 243.104 170.684L242.53 169.793C244.171 169.254 245.155 167.895 245.167 166.441V166.148H242.858V165.246H248.542V166.148H246.28V166.43ZM250.862 164.496V167.098H252.386V168.012H250.862V170.801H249.749V164.496H250.862ZM247.475 171.059C249.643 171.059 250.956 171.773 250.956 173.004C250.956 174.246 249.643 174.984 247.475 174.973C245.284 174.984 243.948 174.246 243.948 173.004C243.948 171.773 245.284 171.059 247.475 171.059ZM247.475 171.938C245.952 171.938 245.05 172.324 245.061 173.004C245.05 173.707 245.952 174.094 247.475 174.094C248.987 174.094 249.866 173.707 249.866 173.004C249.866 172.324 248.987 171.938 247.475 171.938ZM261.074 165.117V165.949C261.074 166.84 261.074 167.883 260.816 169.266H262.293V170.18H252.683V169.266H259.691C259.966 167.9 259.972 166.904 259.972 166.02H253.89V165.117H261.074ZM261.39 173.859V174.773H253.937V171.27H255.039V173.859H261.39ZM272.364 172.805V173.742H262.754V172.805H266.985V170.965H263.926V167.625H270.09V166.148H263.903V165.234H271.192V168.516H265.028V170.051H271.438V170.965H268.086V172.805H272.364ZM276.681 167.168C276.669 169.09 277.829 171.012 279.458 171.738L278.79 172.617C277.583 172.043 276.628 170.865 276.142 169.43C275.65 170.965 274.683 172.236 273.423 172.852L272.743 171.914C274.396 171.176 275.556 169.172 275.556 167.168V165.375H276.681V167.168ZM281.521 164.496V175.02H280.407V164.496H281.521ZM291.146 164.496V167.602H292.67V168.527H291.146V172.125H290.021V164.496H291.146ZM288.299 165.293C288.299 168.047 286.424 170.051 283.354 170.977L282.885 170.086C285.34 169.348 286.869 167.953 287.092 166.219H283.33V165.293H288.299ZM291.58 173.871V174.773H284.479V171.34H285.604V173.871H291.58ZM296.793 172.91C296.336 172.91 295.949 172.535 295.961 172.078C295.949 171.621 296.336 171.246 296.793 171.246C297.238 171.246 297.625 171.621 297.625 172.078C297.625 172.535 297.238 172.91 296.793 172.91ZM296.793 168.281C296.336 168.281 295.949 167.906 295.961 167.449C295.949 166.992 296.336 166.617 296.793 166.617C297.238 166.617 297.625 166.992 297.625 167.449C297.625 167.906 297.238 168.281 296.793 168.281ZM394.356 167.168C394.344 169.09 395.504 171.012 397.133 171.738L396.465 172.617C395.258 172.043 394.303 170.865 393.817 169.43C393.325 170.965 392.358 172.236 391.098 172.852L390.418 171.914C392.071 171.176 393.231 169.172 393.231 167.168V165.375H394.356V167.168ZM399.196 164.496V175.02H398.082V164.496H399.196ZM408.821 164.496V167.602H410.345V168.527H408.821V172.125H407.696V164.496H408.821ZM405.974 165.293C405.974 168.047 404.099 170.051 401.029 170.977L400.56 170.086C403.015 169.348 404.544 167.953 404.767 166.219H401.005V165.293H405.974ZM409.255 173.871V174.773H402.154V171.34H403.279V173.871H409.255ZM235.354 189.281C236.924 189.281 238.037 190.711 238.049 192.961C238.037 195.223 236.924 196.652 235.354 196.652C233.783 196.652 232.658 195.223 232.67 192.961C232.658 190.711 233.783 189.281 235.354 189.281ZM235.354 190.277C234.393 190.277 233.736 191.309 233.736 192.961C233.736 194.625 234.393 195.656 235.354 195.656C236.326 195.656 236.982 194.625 236.982 192.961C236.982 191.309 236.326 190.277 235.354 190.277ZM242.35 191.062V192.012H240.721V194.191H242.35V195.105H240.721V198.996H239.607V188.496H240.721V191.062H242.35ZM250.862 188.496V191.602H252.386V192.527H250.862V196.125H249.737V188.496H250.862ZM248.014 189.293C248.014 192.047 246.139 194.051 243.069 194.977L242.6 194.086C245.055 193.348 246.585 191.953 246.807 190.219H243.046V189.293H248.014ZM251.296 197.871V198.773H244.194V195.34H245.319V197.871H251.296ZM253.316 194.766C253.328 192.562 253.949 190.723 255.05 189.152H256.199C255.39 190.312 254.617 192.68 254.617 194.766C254.617 196.863 255.39 199.219 256.199 200.391H255.05C253.949 198.82 253.328 196.98 253.316 194.766ZM257.036 198V197.062L259.977 194.098C260.903 193.125 261.371 192.586 261.371 191.848C261.371 191.016 260.692 190.477 259.801 190.477C258.864 190.477 258.254 191.074 258.254 191.977H257.036C257.024 190.43 258.207 189.398 259.825 189.398C261.465 189.398 262.59 190.43 262.602 191.812C262.59 192.762 262.145 193.512 260.551 195.082L258.829 196.828V196.898H262.743V198H257.036ZM263.872 198V197.062L266.814 194.098C267.739 193.125 268.208 192.586 268.208 191.848C268.208 191.016 267.529 190.477 266.638 190.477C265.7 190.477 265.091 191.074 265.091 191.977H263.872C263.861 190.43 265.044 189.398 266.661 189.398C268.302 189.398 269.427 190.43 269.439 191.812C269.427 192.762 268.982 193.512 267.388 195.082L265.665 196.828V196.898H269.579V198H263.872ZM274.201 191.168C274.189 193.09 275.35 195.012 276.979 195.738L276.311 196.617C275.104 196.043 274.148 194.865 273.662 193.43C273.17 194.965 272.203 196.236 270.943 196.852L270.264 195.914C271.916 195.176 273.076 193.172 273.076 191.168V189.375H274.201V191.168ZM279.041 188.496V199.02H277.928V188.496H279.041ZM290.014 194.672V195.551H285.725V198.996H284.636V195.551H280.405V194.672H290.014ZM282.702 188.918V190.289H287.694V188.918H288.807V193.477H281.6V188.918H282.702ZM282.702 192.586H287.694V191.18H282.702V192.586ZM299.242 188.496V199.02H298.14V193.289H296.054V192.375H298.14V188.496H299.242ZM295.879 189.434V190.336H292.093V192.375H295.433V193.266H292.093V195.609C293.851 195.604 295.07 195.562 296.464 195.316L296.582 196.219C295.058 196.465 293.734 196.523 291.789 196.535H290.968V189.434H295.879ZM306.505 198.117C304.536 198.117 303.388 196.535 303.388 193.758C303.388 191.004 304.56 189.398 306.505 189.398C308.45 189.398 309.622 191.004 309.622 193.758C309.622 196.535 308.462 198.117 306.505 198.117ZM306.505 197.004C307.654 197.004 308.333 195.879 308.333 193.758C308.333 191.648 307.642 190.488 306.505 190.488C305.368 190.488 304.677 191.648 304.677 193.758C304.677 195.879 305.357 197.004 306.505 197.004ZM313.729 198.117C312.158 198.105 310.518 197.18 310.518 194.039C310.518 191.086 311.795 189.398 313.834 189.398C315.393 189.398 316.482 190.371 316.682 191.719H315.404C315.24 191.027 314.689 190.523 313.834 190.523C312.521 190.523 311.76 191.672 311.76 193.582H311.854C312.311 192.867 313.107 192.434 314.033 192.434C315.545 192.434 316.764 193.594 316.764 195.223C316.764 196.863 315.557 198.129 313.729 198.117ZM313.717 197.039C314.748 197.039 315.51 196.242 315.51 195.246C315.51 194.273 314.771 193.488 313.752 193.488C312.709 193.488 311.924 194.309 311.912 195.258C311.924 196.195 312.674 197.039 313.717 197.039ZM321.327 191.168C321.315 193.09 322.475 195.012 324.104 195.738L323.436 196.617C322.229 196.043 321.274 194.865 320.788 193.43C320.296 194.965 319.329 196.236 318.069 196.852L317.389 195.914C319.042 195.176 320.202 193.172 320.202 191.168V189.375H321.327V191.168ZM326.167 188.496V199.02H325.054V188.496H326.167ZM330.425 194.766C330.414 196.98 329.793 198.82 328.691 200.391H327.543C328.351 199.219 329.125 196.863 329.125 194.766C329.125 192.68 328.351 190.312 327.543 189.152H328.691C329.793 190.723 330.414 192.562 330.425 194.766ZM339.922 189.117V189.949C339.922 190.84 339.922 191.883 339.664 193.266H341.141V194.18H331.532V193.266H338.539C338.815 191.9 338.821 190.904 338.821 190.02H332.739V189.117H339.922ZM340.239 197.859V198.773H332.786V195.27H333.887V197.859H340.239ZM351.212 196.805V197.742H341.603V196.805H345.833V194.965H342.775V191.625H348.939V190.148H342.751V189.234H350.04V192.516H343.876V194.051H350.286V194.965H346.935V196.805H351.212ZM355.529 191.168C355.518 193.09 356.678 195.012 358.307 195.738L357.639 196.617C356.432 196.043 355.477 194.865 354.99 193.43C354.498 194.965 353.531 196.236 352.271 196.852L351.592 195.914C353.244 195.176 354.404 193.172 354.404 191.168V189.375H355.529V191.168ZM360.369 188.496V199.02H359.256V188.496H360.369ZM369.995 188.496V191.602H371.518V192.527H369.995V196.125H368.87V188.496H369.995ZM367.147 189.293C367.147 192.047 365.272 194.051 362.202 194.977L361.733 194.086C364.188 193.348 365.718 191.953 365.94 190.219H362.179V189.293H367.147ZM370.429 197.871V198.773H363.327V195.34H364.452V197.871H370.429ZM375.641 196.91C375.184 196.91 374.797 196.535 374.809 196.078C374.797 195.621 375.184 195.246 375.641 195.246C376.086 195.246 376.473 195.621 376.473 196.078C376.473 196.535 376.086 196.91 375.641 196.91ZM375.641 192.281C375.184 192.281 374.797 191.906 374.809 191.449C374.797 190.992 375.184 190.617 375.641 190.617C376.086 190.617 376.473 190.992 376.473 191.449C376.473 191.906 376.086 192.281 375.641 192.281ZM383.795 191.168C383.783 193.09 384.943 195.012 386.572 195.738L385.904 196.617C384.697 196.043 383.742 194.865 383.256 193.43C382.764 194.965 381.797 196.236 380.537 196.852L379.857 195.914C381.51 195.176 382.67 193.172 382.67 191.168V189.375H383.795V191.168ZM388.635 188.496V199.02H387.521V188.496H388.635ZM398.261 188.496V191.602H399.784V192.527H398.261V196.125H397.136V188.496H398.261ZM395.413 189.293C395.413 192.047 393.538 194.051 390.468 194.977L389.999 194.086C392.454 193.348 393.983 191.953 394.206 190.219H390.444V189.293H395.413ZM398.694 197.871V198.773H391.593V195.34H392.718V197.871H398.694ZM241.576 213.621V214.512H233.033V213.621H236.771V212.449H237.873V213.621H241.576ZM242.15 219.211V220.113H239.725V223.008H238.6V220.113H236.068V223.008H234.955V220.113H232.541V219.211H242.15ZM237.322 215.051C239.502 215.051 240.814 215.672 240.814 216.809C240.814 217.934 239.502 218.566 237.322 218.566C235.131 218.566 233.818 217.934 233.83 216.809C233.818 215.672 235.131 215.051 237.322 215.051ZM237.322 215.895C235.811 215.906 234.979 216.211 234.979 216.809C234.979 217.395 235.811 217.711 237.322 217.711C238.822 217.711 239.654 217.395 239.666 216.809C239.654 216.211 238.822 215.906 237.322 215.895ZM245.589 212.848C247.171 212.859 248.331 213.832 248.343 215.203C248.331 216.586 247.171 217.547 245.589 217.547C243.995 217.547 242.823 216.586 242.823 215.203C242.823 213.832 243.995 212.859 245.589 212.848ZM245.589 213.785C244.616 213.773 243.901 214.348 243.913 215.203C243.901 216.07 244.616 216.645 245.589 216.645C246.55 216.645 247.264 216.07 247.264 215.203C247.264 214.348 246.55 213.773 245.589 213.785ZM251.319 212.496V217.84H250.206V212.496H251.319ZM251.319 218.32V220.969H245.53V221.977H251.671V222.867H244.452V220.137H250.218V219.211H244.417V218.32H251.319ZM261.074 213.117V213.949C261.074 214.84 261.074 215.883 260.816 217.266H262.293V218.18H252.683V217.266H259.691C259.966 215.9 259.972 214.904 259.972 214.02H253.89V213.117H261.074ZM261.39 221.859V222.773H253.937V219.27H255.039V221.859H261.39ZM272.364 220.805V221.742H262.754V220.805H266.985V218.965H263.926V215.625H270.09V214.148H263.903V213.234H271.192V216.516H265.028V218.051H271.438V218.965H268.086V220.805H272.364ZM276.681 215.168C276.669 217.09 277.829 219.012 279.458 219.738L278.79 220.617C277.583 220.043 276.628 218.865 276.142 217.43C275.65 218.965 274.683 220.236 273.423 220.852L272.743 219.914C274.396 219.176 275.556 217.172 275.556 215.168V213.375H276.681V215.168ZM281.521 212.496V223.02H280.407V212.496H281.521ZM291.146 212.496V215.602H292.67V216.527H291.146V220.125H290.021V212.496H291.146ZM288.299 213.293C288.299 216.047 286.424 218.051 283.354 218.977L282.885 218.086C285.34 217.348 286.869 215.953 287.092 214.219H283.33V213.293H288.299ZM291.58 221.871V222.773H284.479V219.34H285.604V221.871H291.58ZM296.793 220.91C296.336 220.91 295.949 220.535 295.961 220.078C295.949 219.621 296.336 219.246 296.793 219.246C297.238 219.246 297.625 219.621 297.625 220.078C297.625 220.535 297.238 220.91 296.793 220.91ZM296.793 216.281C296.336 216.281 295.949 215.906 295.961 215.449C295.949 214.992 296.336 214.617 296.793 214.617C297.238 214.617 297.625 214.992 297.625 215.449C297.625 215.906 297.238 216.281 296.793 216.281ZM304.946 215.168C304.935 217.09 306.095 219.012 307.724 219.738L307.056 220.617C305.849 220.043 304.894 218.865 304.407 217.43C303.915 218.965 302.948 220.236 301.689 220.852L301.009 219.914C302.661 219.176 303.821 217.172 303.821 215.168V213.375H304.946V215.168ZM309.786 212.496V223.02H308.673V212.496H309.786ZM319.412 212.496V215.602H320.936V216.527H319.412V220.125H318.287V212.496H319.412ZM316.564 213.293C316.564 216.047 314.689 218.051 311.619 218.977L311.15 218.086C313.605 217.348 315.135 215.953 315.357 214.219H311.596V213.293H316.564ZM319.846 221.871V222.773H312.744V219.34H313.869V221.871H319.846ZM242.115 241.875V242.777H232.541V241.875H236.771V240.668H237.873V241.875H242.115ZM237.873 236.484V237.492H241.154V238.383H237.943C238.061 239.396 239.514 240.158 241.6 240.328L241.26 241.184C239.443 241.014 237.973 240.404 237.322 239.426C236.666 240.404 235.195 241.014 233.396 241.184L233.045 240.328C235.119 240.158 236.572 239.396 236.701 238.383H233.502V237.492H236.771V236.484H237.873ZM237.322 243.469C239.607 243.469 240.943 244.09 240.943 245.227C240.943 246.363 239.607 246.984 237.322 246.973C235.025 246.984 233.678 246.363 233.678 245.227C233.678 244.09 235.025 243.469 237.322 243.469ZM237.322 244.301C235.705 244.301 234.803 244.629 234.803 245.227C234.803 245.824 235.705 246.141 237.322 246.129C238.916 246.141 239.83 245.824 239.83 245.227C239.83 244.629 238.916 244.301 237.322 244.301ZM249.097 239.168C249.086 241.09 250.246 243.012 251.875 243.738L251.207 244.617C250 244.043 249.045 242.865 248.558 241.43C248.066 242.965 247.099 244.236 245.839 244.852L245.16 243.914C246.812 243.176 247.972 241.172 247.972 239.168V237.375H249.097V239.168ZM253.937 236.496V247.02H252.824V236.496H253.937ZM263.563 236.496V239.602H265.086V240.527H263.563V244.125H262.438V236.496H263.563ZM260.715 237.293C260.715 240.047 258.84 242.051 255.77 242.977L255.301 242.086C257.756 241.348 259.286 239.953 259.508 238.219H255.746V237.293H260.715ZM263.996 245.871V246.773H256.895V243.34H258.02V245.871H263.996Z" fill="black"/>
<rect x="307.611" y="158.531" width="73.5309" height="21.2222" rx="3.19753" stroke="#5766FF" stroke-width="0.91358"/>
<path d="M318.953 172.642L319.285 170.64H317.615L317.283 172.642H316.223L316.555 170.64H315.463L315.634 169.591H316.726L316.994 167.942H315.912L316.084 166.893H317.176L317.497 164.891H318.557L318.235 166.893H319.906L320.227 164.891H321.276L320.955 166.893H322.047L321.865 167.942H320.773L320.505 169.591H321.597L321.426 170.64H320.334L320.002 172.642H318.953ZM317.786 169.591H319.456L319.724 167.942H318.053L317.786 169.591ZM322.103 169.056C322.971 169.056 323.26 168.734 323.26 167.942V166.647C323.26 164.944 324.137 164.559 325.658 164.559V165.608C324.769 165.608 324.555 165.962 324.555 166.754V168.317C324.555 168.911 324.319 169.414 323.302 169.612V169.762C324.319 169.971 324.555 170.469 324.555 171.058V172.631C324.555 173.413 324.769 173.777 325.658 173.777V174.826C324.137 174.826 323.26 174.441 323.26 172.738V171.443C323.26 170.651 322.971 170.319 322.103 170.319V169.056ZM333.958 163.927V170.993H332.759V163.927H333.958ZM334.226 172.439V173.402H327.556V170.319H328.755V172.439H334.226ZM329.504 165.405C329.504 166.754 330.296 168.028 331.827 168.542L331.217 169.484C330.114 169.098 329.328 168.328 328.905 167.343C328.466 168.397 327.668 169.243 326.528 169.655L325.907 168.713C327.481 168.156 328.273 166.797 328.273 165.405V164.463H329.504V165.405ZM338.522 165.983C338.522 167.043 339.346 168.092 340.866 168.499L340.31 169.42C339.191 169.114 338.388 168.461 337.944 167.621C337.526 168.574 336.718 169.323 335.567 169.666L335.01 168.745C336.52 168.285 337.333 167.15 337.333 165.983V165.929H335.31V164.987H337.333V163.874H338.532V164.987H340.545V165.929H338.522V165.983ZM343.147 163.917V169.773H341.958V167.535H340.256V166.572H341.958V163.917H343.147ZM339.871 169.966C341.915 169.966 343.179 170.619 343.179 171.764C343.179 172.92 341.915 173.584 339.871 173.584C337.836 173.584 336.573 172.92 336.584 171.764C336.573 170.619 337.836 169.966 339.871 169.966ZM339.871 170.876C338.522 170.886 337.762 171.186 337.762 171.764C337.762 172.342 338.522 172.664 339.871 172.664C341.241 172.664 341.99 172.342 341.99 171.764C341.99 171.186 341.241 170.886 339.871 170.876ZM346.929 164.227C348.396 164.227 349.488 165.137 349.498 166.411C349.488 167.696 348.396 168.595 346.929 168.595C345.451 168.595 344.359 167.696 344.359 166.411C344.359 165.137 345.451 164.227 346.929 164.227ZM346.929 165.212C346.115 165.212 345.516 165.672 345.516 166.411C345.516 167.161 346.115 167.632 346.929 167.632C347.743 167.632 348.342 167.161 348.342 166.411C348.342 165.672 347.743 165.212 346.929 165.212ZM352.25 163.917V168.809H351.051V163.917H352.25ZM352.25 169.227V171.753H347.015V172.535H352.539V173.477H345.848V170.876H351.061V170.158H345.826V169.227H352.25ZM356.803 166.668C356.803 168.167 357.691 169.869 359.222 170.576L358.559 171.518C357.467 171.004 356.658 169.966 356.225 168.756C355.786 170.083 354.94 171.218 353.827 171.753L353.131 170.822C354.672 170.094 355.604 168.274 355.614 166.668V165.854H353.505V164.87H358.826V165.854H356.803V166.668ZM360.914 163.917V167.685H362.402V168.681H360.914V173.595H359.726V163.917H360.914ZM365.959 170.319C365.092 170.319 364.803 170.651 364.803 171.443V172.738C364.803 174.441 363.925 174.826 362.405 174.826V173.777C363.294 173.777 363.508 173.413 363.508 172.631V171.058C363.508 170.469 363.743 169.971 364.76 169.762V169.612C363.743 169.414 363.508 168.911 363.508 168.317V166.754C363.508 165.962 363.294 165.608 362.405 165.608V164.559C363.925 164.559 364.803 164.944 364.803 166.647V167.942C364.803 168.734 365.092 169.056 365.959 169.056V170.319ZM369.506 172.642L369.838 170.64H368.168L367.836 172.642H366.776L367.108 170.64H366.016L366.187 169.591H367.279L367.547 167.942H366.466L366.637 166.893H367.729L368.05 164.891H369.11L368.789 166.893H370.459L370.78 164.891H371.829L371.508 166.893H372.6L372.418 167.942H371.326L371.059 169.591H372.151L371.979 170.64H370.887L370.555 172.642H369.506ZM368.339 169.591H370.009L370.277 167.942H368.607L368.339 169.591Z" fill="#5766FF"/>
<rect x="215.654" y="261.5" width="278" height="33" fill="white"/>
<rect x="215.654" y="261.5" width="278" height="33" stroke="#DDDDDD"/>
<rect x="215.654" y="294.5" width="278" height="33" fill="white"/>
<rect x="215.654" y="294.5" width="278" height="33" stroke="#DDDDDD"/>
<path d="M237.92 306.422C237.908 307.816 239.619 309.129 241.682 309.398L241.248 310.312C239.531 310.037 238.02 309.146 237.346 307.91C236.654 309.152 235.148 310.037 233.443 310.312L232.998 309.398C235.061 309.129 236.748 307.828 236.76 306.422V305.848H237.92V306.422ZM242.115 311.344V312.258H237.85V315.996H236.76V312.258H232.541V311.344H242.115ZM250.874 305.496V308.156H252.386V309.07H250.874V311.695H249.749V305.496H250.874ZM247.475 311.895C249.62 311.895 250.956 312.645 250.956 313.934C250.956 315.223 249.62 315.984 247.475 315.973C245.307 315.984 243.948 315.223 243.948 313.934C243.948 312.645 245.307 311.895 247.475 311.895ZM247.475 312.797C245.952 312.785 245.038 313.207 245.05 313.934C245.038 314.66 245.952 315.082 247.475 315.082C248.964 315.082 249.878 314.66 249.889 313.934C249.878 313.207 248.964 312.785 247.475 312.797ZM247.745 306.27V307.172H244.159V310.031C246.227 310.025 247.393 309.961 248.718 309.691L248.823 310.594C247.417 310.887 246.163 310.934 243.889 310.934H243.057V306.27H247.745ZM256.55 308.59C256.55 310.348 257.699 312.164 259.316 312.855L258.707 313.723C257.47 313.178 256.486 312.023 256 310.617C255.513 312.117 254.523 313.395 253.304 313.992L252.66 313.113C254.242 312.375 255.414 310.395 255.425 308.59V307.477H253.023V306.551H258.941V307.477H256.55V308.59ZM261.379 305.496V315.996H260.265V305.496H261.379ZM265.075 311.484V312.797H270.032V311.484H271.121V315.867H263.973V311.484H265.075ZM265.075 314.953H270.032V313.664H265.075V314.953ZM271.145 305.953V306.75C271.145 307.553 271.145 308.455 270.875 309.727H272.364V310.629H262.754V309.727H269.786C270.032 308.52 270.043 307.635 270.043 306.867H263.961V305.953H271.145ZM292.356 305.496V315.996H291.289V310.57H289.93V315.457H288.911V305.707H289.93V309.656H291.289V305.496H292.356ZM287.633 306.762V307.664H284.809V312.527C286.098 312.516 287.071 312.457 288.196 312.246L288.278 313.16C287.012 313.418 285.934 313.465 284.399 313.477H283.696V306.762H287.633ZM296.556 308.719C296.556 310.371 297.318 312.059 298.771 312.832L298.15 313.652C297.136 313.113 296.427 312.105 296.052 310.91C295.671 312.193 294.968 313.295 293.954 313.898L293.298 313.055C294.751 312.211 295.501 310.418 295.513 308.719V308.297H293.614V307.383H295.513V305.871H296.556V307.383H298.419V308.297H296.556V308.719ZM302.427 305.496V315.996H301.361V305.496H302.427ZM300.294 305.719V315.469H299.239V310.512H297.728V309.586H299.239V305.719H300.294ZM312.521 306.621V307.512H303.979V306.621H307.717V305.449H308.818V306.621H312.521ZM313.096 312.211V313.113H310.67V316.008H309.545V313.113H307.014V316.008H305.9V313.113H303.486V312.211H313.096ZM308.268 308.051C310.447 308.051 311.76 308.672 311.76 309.809C311.76 310.934 310.447 311.566 308.268 311.566C306.076 311.566 304.764 310.934 304.775 309.809C304.764 308.672 306.076 308.051 308.268 308.051ZM308.268 308.895C306.756 308.906 305.924 309.211 305.924 309.809C305.924 310.395 306.756 310.711 308.268 310.711C309.768 310.711 310.6 310.395 310.611 309.809C310.6 309.211 309.768 308.906 308.268 308.895ZM321.737 305.496V309.68H323.366V310.605H321.737V315.984H320.624V305.496H321.737ZM318.995 306.598C318.983 309.633 317.647 312.34 314.19 314.051L313.569 313.184C316.2 311.871 317.63 309.973 317.858 307.523H314.096V306.598H318.995ZM324.261 311.766C324.273 309.562 324.894 307.723 325.996 306.152H327.144C326.336 307.312 325.562 309.68 325.562 311.766C325.562 313.863 326.336 316.219 327.144 317.391H325.996C324.894 315.82 324.273 313.98 324.261 311.766ZM336.653 306.621V307.512H328.11V306.621H331.848V305.449H332.95V306.621H336.653ZM337.227 312.211V313.113H334.801V316.008H333.676V313.113H331.145V316.008H330.032V313.113H327.618V312.211H337.227ZM332.399 308.051C334.579 308.051 335.891 308.672 335.891 309.809C335.891 310.934 334.579 311.566 332.399 311.566C330.207 311.566 328.895 310.934 328.907 309.809C328.895 308.672 330.207 308.051 332.399 308.051ZM332.399 308.895C330.887 308.906 330.055 309.211 330.055 309.809C330.055 310.395 330.887 310.711 332.399 310.711C333.899 310.711 334.731 310.395 334.743 309.809C334.731 309.211 333.899 308.906 332.399 308.895ZM345.868 305.496V309.68H347.497V310.605H345.868V315.984H344.755V305.496H345.868ZM343.126 306.598C343.114 309.633 341.779 312.34 338.321 314.051L337.7 313.184C340.331 311.871 341.761 309.973 341.989 307.523H338.228V306.598H343.126ZM356.443 305.496V315.996H355.33V305.496H356.443ZM347.818 313.066C349.811 313.066 352.412 313.066 354.686 312.773L354.768 313.594C352.4 313.992 349.904 314.016 347.971 314.004L347.818 313.066ZM354.451 306.867V307.758H348.041V306.867H350.689V305.613H351.814V306.867H354.451ZM351.252 308.285C352.764 308.285 353.795 309.059 353.795 310.277C353.795 311.449 352.764 312.258 351.252 312.246C349.752 312.258 348.709 311.449 348.721 310.277C348.709 309.059 349.752 308.285 351.252 308.285ZM351.252 309.141C350.373 309.141 349.752 309.598 349.764 310.277C349.752 310.945 350.373 311.391 351.252 311.391C352.131 311.391 352.729 310.945 352.74 310.277C352.729 309.598 352.131 309.141 351.252 309.141ZM363.151 306.281V310.852H358.241V306.281H363.151ZM359.331 307.172V309.949H362.061V307.172H359.331ZM366.081 305.496V308.039H367.604V308.953H366.081V311.66H364.968V305.496H366.081ZM362.694 311.988C364.839 311.988 366.175 312.738 366.175 313.98C366.175 315.246 364.839 315.984 362.694 315.996C360.526 315.984 359.167 315.246 359.167 313.98C359.167 312.738 360.526 311.988 362.694 311.988ZM362.694 312.879C361.171 312.879 360.268 313.289 360.28 313.98C360.268 314.707 361.171 315.094 362.694 315.105C364.206 315.094 365.085 314.707 365.085 313.98C365.085 313.289 364.206 312.879 362.694 312.879ZM370.879 305.848C372.461 305.859 373.621 306.832 373.632 308.203C373.621 309.586 372.461 310.547 370.879 310.547C369.285 310.547 368.113 309.586 368.113 308.203C368.113 306.832 369.285 305.859 370.879 305.848ZM370.879 306.785C369.906 306.773 369.191 307.348 369.203 308.203C369.191 309.07 369.906 309.645 370.879 309.645C371.839 309.645 372.554 309.07 372.554 308.203C372.554 307.348 371.839 306.773 370.879 306.785ZM376.609 305.496V310.84H375.496V305.496H376.609ZM376.609 311.32V313.969H370.82V314.977H376.961V315.867H369.742V313.137H375.507V312.211H369.707V311.32H376.609ZM380.856 311.766C380.844 313.98 380.223 315.82 379.121 317.391H377.973C378.782 316.219 379.555 313.863 379.555 311.766C379.555 309.68 378.782 307.312 377.973 306.152H379.121C380.223 307.723 380.844 309.562 380.856 311.766Z" fill="black"/>
<rect x="94.5" y="79.5" width="399" height="470" stroke="black"/>
<rect x="338.5" y="381.5" width="80" height="23" rx="3.5" stroke="#5766FF"/>
<path d="M350.914 397L351.277 394.809H349.449L349.086 397H347.926L348.289 394.809H347.094L347.281 393.66H348.477L348.77 391.855H347.586L347.773 390.707H348.969L349.32 388.516H350.48L350.129 390.707H351.957L352.309 388.516H353.457L353.105 390.707H354.301L354.102 391.855H352.906L352.613 393.66H353.809L353.621 394.809H352.426L352.062 397H350.914ZM349.637 393.66H351.465L351.758 391.855H349.93L349.637 393.66ZM354.363 393.074C355.312 393.074 355.628 392.723 355.628 391.855V390.438C355.628 388.574 356.589 388.152 358.253 388.152V389.301C357.281 389.301 357.046 389.688 357.046 390.555V392.266C357.046 392.916 356.788 393.467 355.675 393.684V393.848C356.788 394.076 357.046 394.621 357.046 395.266V396.988C357.046 397.844 357.281 398.242 358.253 398.242V399.391C356.589 399.391 355.628 398.969 355.628 397.105V395.688C355.628 394.82 355.312 394.457 354.363 394.457V393.074ZM367.632 387.449V398.043H366.389V392.641H365.194V397.504H363.999V387.648H365.194V391.598H366.389V387.449H367.632ZM362.803 388.703V389.758H360.155V394.469C361.309 394.457 362.259 394.398 363.331 394.199L363.425 395.266C362.147 395.523 361.034 395.559 359.557 395.57H358.842V388.703H362.803ZM378.205 395.77V396.824H368.525V395.77H371.033V393.59H369.358V392.535H370.846V389.395H369.322V388.352H377.361V389.395H375.815V392.535H377.326V393.59H375.65V395.77H378.205ZM372.147 392.535H374.525V389.395H372.147V392.535ZM372.334 395.77H374.35V393.59H372.334V395.77ZM382.451 389.992C382.451 391.961 383.388 393.895 385.076 394.633L384.29 395.676C383.089 395.09 382.246 393.965 381.794 392.582C381.331 394.041 380.47 395.254 379.251 395.875L378.431 394.82C380.154 394.012 381.115 391.973 381.126 389.992V388.305H382.451V389.992ZM387.419 387.449V398.055H386.13V391.926H383.904V390.871H386.13V387.449H387.419ZM397.419 387.449V393.684H396.118V392.219H393.985V393.039H389.005V388.246H393.985V389.066H396.118V387.449H397.419ZM390.305 389.277V391.996H392.696V389.277H390.305ZM393.833 393.965C396.083 393.965 397.454 394.715 397.454 396.004C397.454 397.293 396.083 398.031 393.833 398.031C391.595 398.031 390.223 397.293 390.235 396.004C390.223 394.715 391.595 393.965 393.833 393.965ZM393.833 394.961C392.356 394.961 391.524 395.324 391.524 396.004C391.524 396.66 392.356 397.023 393.833 397.023C395.309 397.023 396.153 396.66 396.153 396.004C396.153 395.324 395.309 394.961 393.833 394.961ZM393.985 391.164H396.118V390.098H393.985V391.164ZM402.367 394.457C401.418 394.457 401.102 394.82 401.102 395.688V397.105C401.102 398.969 400.141 399.391 398.477 399.391V398.242C399.449 398.242 399.684 397.844 399.684 396.988V395.266C399.684 394.621 399.942 394.076 401.055 393.848V393.684C399.942 393.467 399.684 392.916 399.684 392.266V390.555C399.684 389.688 399.449 389.301 398.477 389.301V388.152C400.141 388.152 401.102 388.574 401.102 390.438V391.855C401.102 392.723 401.418 393.074 402.367 393.074V394.457ZM406.25 397L406.613 394.809H404.785L404.421 397H403.261L403.625 394.809H402.429L402.617 393.66H403.812L404.105 391.855H402.921L403.109 390.707H404.304L404.656 388.516H405.816L405.464 390.707H407.292L407.644 388.516H408.792L408.441 390.707H409.636L409.437 391.855H408.242L407.949 393.66H409.144L408.957 394.809H407.761L407.398 397H406.25ZM404.972 393.66H406.8L407.093 391.855H405.265L404.972 393.66Z" fill="#5766FF"/>
</g>
<g filter="url(#filter0_d_295_681)">
<rect x="4" y="309" width="260" height="422" rx="22" fill="white"/>
</g>
<rect x="34.5527" y="379.553" width="198.895" height="36.8946" rx="4.88199" fill="white"/>
<rect x="34.5527" y="379.553" width="198.895" height="36.8946" rx="4.88199" stroke="#DDDDDD" stroke-width="1.10536"/>
<path d="M59.4117 392.497V404.207H58.0386V398.235H56.7174V403.611H55.3961V392.717H56.7174V397.082H58.0386V392.497H59.4117ZM54.0749 393.883V395.049H51.1474V400.256C52.4233 400.243 53.4725 400.178 54.6578 399.958L54.7614 401.137C53.3495 401.422 52.1189 401.46 50.4868 401.473H49.6966V393.883H54.0749ZM64.5448 394.362C64.5448 395.839 65.5034 397.225 67.3039 397.795L66.5267 398.922C65.2638 398.494 64.357 397.639 63.8583 396.551C63.3402 397.795 62.3946 398.773 61.0474 399.245L60.2702 398.118C62.1614 397.458 63.0941 395.903 63.107 394.232V393.118H64.5448V394.362ZM69.6355 392.497V395.346H71.2677V396.538H69.6355V399.504H68.1977V392.497H69.6355ZM65.8272 399.764C68.2495 399.751 69.7392 400.58 69.7521 401.966C69.7392 403.378 68.2495 404.194 65.8272 404.194C63.379 404.194 61.8635 403.378 61.8635 401.966C61.8635 400.58 63.379 399.751 65.8272 399.764ZM65.8272 400.89C64.221 400.89 63.3013 401.279 63.3013 401.966C63.3013 402.691 64.221 403.054 65.8272 403.054C67.4334 403.054 68.3272 402.691 68.3272 401.966C68.3272 401.279 67.4334 400.89 65.8272 400.89ZM75.6625 395.826C75.6625 397.639 76.7376 399.699 78.59 400.554L77.7868 401.694C76.4656 401.072 75.4876 399.815 74.963 398.352C74.4319 399.958 73.4086 401.331 72.0614 401.979L71.2195 400.852C73.0848 399.971 74.2117 397.769 74.2247 395.826V394.841H71.6728V393.65H78.1107V394.841H75.6625V395.826ZM80.6366 392.497V397.056H82.4371V398.261H80.6366V404.207H79.1988V392.497H80.6366ZM95.0869 392.497V399.453H93.6491V396.59H91.6542V395.411H93.6491V392.497H95.0869ZM91.1232 399.751C93.6102 399.751 95.1258 400.567 95.1258 401.979C95.1258 403.39 93.6102 404.207 91.1232 404.207C88.6491 404.207 87.1335 403.39 87.1465 401.979C87.1335 400.567 88.6491 399.751 91.1232 399.751ZM91.1232 400.852C89.491 400.852 88.5713 401.24 88.5713 401.979C88.5713 402.704 89.491 403.093 91.1232 403.093C92.7553 403.093 93.6879 402.704 93.6879 401.979C93.6879 401.24 92.7553 400.852 91.1232 400.852ZM89.5817 394.504C89.5817 395.929 90.5273 397.367 92.3408 397.976L91.6154 399.116C90.3136 398.675 89.3874 397.782 88.8822 396.681C88.3641 397.931 87.3861 398.928 85.9936 399.427L85.2423 398.287C87.1206 397.639 88.118 396.059 88.118 394.517V394.427H85.6827V393.261H92.004V394.427H89.5817V394.504ZM107.047 401.616V402.795H96.347V401.616H100.958V399.336H97.5258V393.274H98.9636V395.191H104.391V393.274H105.829V399.336H102.383V401.616H107.047ZM98.9636 398.17H104.391V396.344H98.9636V398.17Z" fill="#2A2929"/>
<g clip-path="url(#clip1_295_681)">
<path d="M205.436 395.48C205.436 395.196 205.586 394.913 205.877 394.714C206.405 394.356 207.194 394.408 207.642 394.831L210.41 397.444L213.175 394.83C213.623 394.407 214.413 394.355 214.943 394.713C215.468 395.072 215.534 395.707 215.086 396.13L211.365 399.648C211.126 399.873 210.778 400.002 210.41 400.002C210.043 400.002 209.693 399.873 209.455 399.648L205.733 396.13C205.533 395.941 205.436 395.71 205.436 395.48Z" fill="#222222"/>
</g>
<path d="M42.036 352.204H40.566L38.984 342.474C38.928 342.138 38.7833 341.97 38.55 341.97H37.822C37.5793 341.97 37.43 342.138 37.374 342.474L35.722 352.204H34.252L36.002 341.97H34.476V340.71H42.022V341.97H40.356L42.036 352.204ZM44.892 353.212H43.492V340.556H44.892V345.26H46.544V346.548H44.892V353.212ZM55.6895 348.634C56.5388 348.634 57.1968 348.835 57.6635 349.236C58.1302 349.637 58.3635 350.207 58.3635 350.944C58.3635 351.681 58.1302 352.251 57.6635 352.652C57.1968 353.053 56.5388 353.254 55.6895 353.254H50.3695C49.5202 353.254 48.8622 353.053 48.3955 352.652C47.9288 352.251 47.6955 351.681 47.6955 350.944C47.6955 350.207 47.9288 349.637 48.3955 349.236C48.8622 348.835 49.5202 348.634 50.3695 348.634H55.6895ZM58.9235 347.724H47.1355V346.464H52.3295V345.19H48.0175V341.424C48.0175 341.125 48.0828 340.911 48.2135 340.78C48.3442 340.649 48.5588 340.584 48.8575 340.584H58.0415V341.844H49.4175V343.93H58.1115V345.19H53.7295V346.464H58.9235V347.724ZM55.5075 351.994C56.0022 351.994 56.3662 351.896 56.5995 351.7C56.8422 351.513 56.9635 351.261 56.9635 350.944C56.9635 350.627 56.8422 350.375 56.5995 350.188C56.3662 349.992 56.0022 349.894 55.5075 349.894H50.5515C50.0568 349.894 49.6882 349.992 49.4455 350.188C49.2122 350.375 49.0955 350.627 49.0955 350.944C49.0955 351.261 49.2122 351.513 49.4455 351.7C49.6882 351.896 50.0568 351.994 50.5515 351.994H55.5075ZM70.827 352.162C70.827 352.526 70.743 352.792 70.575 352.96C70.407 353.128 70.141 353.212 69.777 353.212H61.125V347.836H62.525V349.18H69.427V347.836H70.827V352.162ZM67.691 343.944C67.691 344.42 67.6023 344.849 67.425 345.232C67.2477 345.605 67.0003 345.927 66.683 346.198C66.3657 346.459 65.9783 346.665 65.521 346.814C65.073 346.954 64.5783 347.024 64.037 347.024C63.4863 347.024 62.987 346.954 62.539 346.814C62.091 346.665 61.7083 346.459 61.391 346.198C61.0737 345.927 60.8263 345.605 60.649 345.232C60.4717 344.849 60.383 344.42 60.383 343.944V343.552C60.383 343.076 60.4717 342.651 60.649 342.278C60.8263 341.895 61.0737 341.573 61.391 341.312C61.7083 341.041 62.091 340.836 62.539 340.696C62.987 340.547 63.4863 340.472 64.037 340.472C64.5783 340.472 65.073 340.547 65.521 340.696C65.9783 340.836 66.3657 341.041 66.683 341.312C67.0003 341.573 67.2477 341.895 67.425 342.278C67.6023 342.651 67.691 343.076 67.691 343.552V343.944ZM66.291 343.622C66.291 343.025 66.081 342.563 65.661 342.236C65.2503 341.9 64.709 341.732 64.037 341.732C63.365 341.732 62.819 341.9 62.399 342.236C61.9883 342.563 61.783 343.025 61.783 343.622V343.874C61.783 344.471 61.9883 344.938 62.399 345.274C62.819 345.601 63.365 345.764 64.037 345.764C64.709 345.764 65.2503 345.601 65.661 345.274C66.081 344.938 66.291 344.471 66.291 343.874V343.622ZM69.427 351.952V350.412H62.525V351.952H69.427ZM70.827 347.192H69.427V340.556H70.827V347.192ZM80.7145 347.458H73.0705V343.454H78.0685V341.942H73.0425V340.71H79.4685V343.608C79.4685 343.972 79.3845 344.238 79.2165 344.406C79.0485 344.574 78.7825 344.658 78.4185 344.658H74.4705V346.226H80.7145V347.458ZM83.5145 353.212H82.1145V349.824H73.7425V348.564H83.5145V353.212ZM83.5145 347.92H82.1145V345.582H80.0285V344.294H82.1145V342.964H80.0285V341.676H82.1145V340.556H83.5145V347.92ZM92.548 344.868C92.548 346.688 91.428 347.598 89.188 347.598C88.096 347.598 87.2607 347.374 86.682 346.926C86.1127 346.469 85.828 345.783 85.828 344.868V343.944C85.828 343.617 85.9027 343.309 86.052 343.02C86.2013 342.721 86.402 342.516 86.654 342.404H85.086V341.144H88.488V339.842H89.888V341.144H93.29V342.404H91.722C91.974 342.516 92.1747 342.721 92.324 343.02C92.4733 343.319 92.548 343.627 92.548 343.944V344.868ZM93.22 348.508C94.0693 348.508 94.7273 348.713 95.194 349.124C95.6607 349.525 95.894 350.104 95.894 350.86C95.894 351.616 95.6607 352.195 95.194 352.596C94.7273 353.007 94.0693 353.212 93.22 353.212H88.474C87.6247 353.212 86.9667 353.007 86.5 352.596C86.0333 352.195 85.8 351.616 85.8 350.86C85.8 350.104 86.0333 349.525 86.5 349.124C86.9667 348.713 87.6247 348.508 88.474 348.508H93.22ZM93.038 351.952C93.5327 351.952 93.8967 351.854 94.13 351.658C94.3727 351.462 94.494 351.196 94.494 350.86C94.494 350.524 94.3727 350.258 94.13 350.062C93.8967 349.866 93.5327 349.768 93.038 349.768H88.656C88.1613 349.768 87.7927 349.866 87.55 350.062C87.3167 350.258 87.2 350.524 87.2 350.86C87.2 351.196 87.3167 351.462 87.55 351.658C87.7927 351.854 88.1613 351.952 88.656 351.952H93.038ZM91.148 343.874C91.148 343.417 90.994 343.034 90.686 342.726C90.3873 342.418 89.888 342.264 89.188 342.264C88.488 342.264 87.984 342.418 87.676 342.726C87.3773 343.034 87.228 343.417 87.228 343.874V344.84C87.228 345.335 87.3773 345.727 87.676 346.016C87.984 346.305 88.488 346.45 89.188 346.45C89.888 346.45 90.3873 346.305 90.686 346.016C90.994 345.727 91.148 345.335 91.148 344.84V343.874ZM95.642 348.06H94.242V340.556H95.642V343.398H97.294V344.686H95.642V348.06ZM109.674 347.724H97.8855V346.464H103.08V345.19H98.7675V341.424C98.7675 341.125 98.8328 340.911 98.9635 340.78C99.0942 340.649 99.3088 340.584 99.6075 340.584H108.792V344.14C108.792 344.504 108.708 344.77 108.54 344.938C108.372 345.106 108.106 345.19 107.742 345.19H104.48V346.464H109.674V347.724ZM108.862 353.254H107.462V349.95H98.6975V348.69H108.862V353.254ZM107.392 343.93V341.844H100.168V343.93H107.392Z" fill="black"/>
<rect x="34.5" y="435.5" width="84" height="23" rx="3.5" stroke="#5766FF"/>
<path d="M46.9141 451L47.2773 448.809H45.4492L45.0859 451H43.9258L44.2891 448.809H43.0938L43.2812 447.66H44.4766L44.7695 445.855H43.5859L43.7734 444.707H44.9688L45.3203 442.516H46.4805L46.1289 444.707H47.957L48.3086 442.516H49.457L49.1055 444.707H50.3008L50.1016 445.855H48.9062L48.6133 447.66H49.8086L49.6211 448.809H48.4258L48.0625 451H46.9141ZM45.6367 447.66H47.4648L47.7578 445.855H45.9297L45.6367 447.66ZM59.5033 441.449V452.043H58.2611V446.641H57.0658V451.504H55.8705V441.648H57.0658V445.598H58.2611V441.449H59.5033ZM54.6752 442.703V443.758H52.0267V448.469C53.181 448.457 54.1302 448.398 55.2025 448.199L55.2962 449.266C54.0189 449.523 52.9056 449.559 51.4291 449.57H50.7142V442.703H54.6752ZM64.1472 443.137C64.1472 444.473 65.0144 445.727 66.6433 446.242L65.9402 447.262C64.7976 446.875 63.9773 446.102 63.5261 445.117C63.0573 446.242 62.2019 447.127 60.9831 447.555L60.28 446.535C61.9909 445.938 62.8347 444.531 62.8464 443.02V442.012H64.1472V443.137ZM68.7527 441.449V444.027H70.2292V445.105H68.7527V447.789H67.4519V441.449H68.7527ZM65.3073 448.023C67.4988 448.012 68.8464 448.762 68.8581 450.016C68.8464 451.293 67.4988 452.031 65.3073 452.031C63.0925 452.031 61.7214 451.293 61.7214 450.016C61.7214 448.762 63.0925 448.012 65.3073 448.023ZM65.3073 449.043C63.8542 449.043 63.0222 449.395 63.0222 450.016C63.0222 450.672 63.8542 451 65.3073 451C66.7605 451 67.5691 450.672 67.5691 450.016C67.5691 449.395 66.7605 449.043 65.3073 449.043ZM74.2052 444.461C74.2052 446.102 75.1778 447.965 76.8536 448.738L76.127 449.77C74.9317 449.207 74.047 448.07 73.5723 446.746C73.0919 448.199 72.1661 449.441 70.9473 450.027L70.1856 449.008C71.8731 448.211 72.8927 446.219 72.9044 444.461V443.57H70.5958V442.492H76.42V443.57H74.2052V444.461ZM78.7052 441.449V445.574H80.3341V446.664H78.7052V452.043H77.4044V441.449H78.7052ZM91.7195 441.449V452.055H90.407V441.449H91.7195ZM86.0125 442.223C87.6063 442.223 88.7664 443.676 88.7781 445.961C88.7664 448.27 87.6063 449.711 86.0125 449.711C84.407 449.711 83.2469 448.27 83.2469 445.961C83.2469 443.676 84.407 442.223 86.0125 442.223ZM86.0125 443.395C85.1102 443.395 84.5008 444.344 84.5008 445.961C84.5008 447.59 85.1102 448.539 86.0125 448.539C86.9031 448.539 87.5125 447.59 87.5125 445.961C87.5125 444.344 86.9031 443.395 86.0125 443.395ZM102.586 446.84V447.871H92.9064V446.84H102.586ZM101.391 441.672V444.391H95.4259V445.152H101.602V446.148H94.1369V443.441H100.09V442.691H94.1017V441.672H101.391ZM101.426 448.633V451.914H94.172V448.633H101.426ZM95.4494 449.664V450.859H100.137V449.664H95.4494ZM106.492 451L106.855 448.809H105.027L104.664 451H103.503L103.867 448.809H102.671L102.859 447.66H104.054L104.347 445.855H103.164L103.351 444.707H104.546L104.898 442.516H106.058L105.707 444.707H107.535L107.886 442.516H109.035L108.683 444.707H109.878L109.679 445.855H108.484L108.191 447.66H109.386L109.199 448.809H108.003L107.64 451H106.492ZM105.214 447.66H107.042L107.335 445.855H105.507L105.214 447.66Z" fill="#5766FF"/>
<rect x="34.5" y="465.5" width="84" height="23" rx="3.5" stroke="#5766FF"/>
<path d="M46.9141 481L47.2773 478.809H45.4492L45.0859 481H43.9258L44.2891 478.809H43.0938L43.2812 477.66H44.4766L44.7695 475.855H43.5859L43.7734 474.707H44.9688L45.3203 472.516H46.4805L46.1289 474.707H47.957L48.3086 472.516H49.457L49.1055 474.707H50.3008L50.1016 475.855H48.9062L48.6133 477.66H49.8086L49.6211 478.809H48.4258L48.0625 481H46.9141ZM45.6367 477.66H47.4648L47.7578 475.855H45.9297L45.6367 477.66ZM59.5033 471.449V482.043H58.2611V476.641H57.0658V481.504H55.8705V471.648H57.0658V475.598H58.2611V471.449H59.5033ZM54.6752 472.703V473.758H52.0267V478.469C53.181 478.457 54.1302 478.398 55.2025 478.199L55.2962 479.266C54.0189 479.523 52.9056 479.559 51.4291 479.57H50.7142V472.703H54.6752ZM64.1472 473.137C64.1472 474.473 65.0144 475.727 66.6433 476.242L65.9402 477.262C64.7976 476.875 63.9773 476.102 63.5261 475.117C63.0573 476.242 62.2019 477.127 60.9831 477.555L60.28 476.535C61.9909 475.938 62.8347 474.531 62.8464 473.02V472.012H64.1472V473.137ZM68.7527 471.449V474.027H70.2292V475.105H68.7527V477.789H67.4519V471.449H68.7527ZM65.3073 478.023C67.4988 478.012 68.8464 478.762 68.8581 480.016C68.8464 481.293 67.4988 482.031 65.3073 482.031C63.0925 482.031 61.7214 481.293 61.7214 480.016C61.7214 478.762 63.0925 478.012 65.3073 478.023ZM65.3073 479.043C63.8542 479.043 63.0222 479.395 63.0222 480.016C63.0222 480.672 63.8542 481 65.3073 481C66.7605 481 67.5691 480.672 67.5691 480.016C67.5691 479.395 66.7605 479.043 65.3073 479.043ZM74.2052 474.461C74.2052 476.102 75.1778 477.965 76.8536 478.738L76.127 479.77C74.9317 479.207 74.047 478.07 73.5723 476.746C73.0919 478.199 72.1661 479.441 70.9473 480.027L70.1856 479.008C71.8731 478.211 72.8927 476.219 72.9044 474.461V473.57H70.5958V472.492H76.42V473.57H74.2052V474.461ZM78.7052 471.449V475.574H80.3341V476.664H78.7052V482.043H77.4044V471.449H78.7052ZM92.5867 479.676V480.73H82.907V479.676H87.0555V477.227H88.3445V479.676H92.5867ZM88.3797 472.867C88.3797 474.473 89.9852 476.055 92.2117 476.406L91.6492 477.484C89.8563 477.145 88.3914 476.119 87.6883 474.73C86.9852 476.113 85.532 477.156 83.7508 477.484L83.1883 476.406C85.4031 476.055 86.9852 474.461 86.9969 472.867V472.094H88.3797V472.867ZM102.574 476.652V477.707H92.9181V476.652H97.09V475.176H98.3791V476.652H102.574ZM98.3908 472.023C98.3908 473.312 99.8088 474.484 102.024 474.766L101.52 475.785C99.7795 475.516 98.3966 474.73 97.7228 473.617C97.0431 474.73 95.6603 475.516 93.9142 475.785L93.4455 474.766C95.6252 474.484 97.0666 473.289 97.0666 472.023V471.625H98.3908V472.023ZM101.391 478.551V482.043H100.09V479.57H93.9845V478.551H101.391ZM106.492 481L106.855 478.809H105.027L104.664 481H103.503L103.867 478.809H102.671L102.859 477.66H104.054L104.347 475.855H103.164L103.351 474.707H104.546L104.898 472.516H106.058L105.707 474.707H107.535L107.886 472.516H109.035L108.683 474.707H109.878L109.679 475.855H108.484L108.191 477.66H109.386L109.199 478.809H108.003L107.64 481H106.492ZM105.214 477.66H107.042L107.335 475.855H105.507L105.214 477.66Z" fill="#5766FF"/>
<rect x="34.5" y="495.5" width="84" height="23" rx="3.5" stroke="#5766FF"/>
<path d="M46.9141 511L47.2773 508.809H45.4492L45.0859 511H43.9258L44.2891 508.809H43.0938L43.2812 507.66H44.4766L44.7695 505.855H43.5859L43.7734 504.707H44.9688L45.3203 502.516H46.4805L46.1289 504.707H47.957L48.3086 502.516H49.457L49.1055 504.707H50.3008L50.1016 505.855H48.9062L48.6133 507.66H49.8086L49.6211 508.809H48.4258L48.0625 511H46.9141ZM45.6367 507.66H47.4648L47.7578 505.855H45.9297L45.6367 507.66ZM59.5033 501.449V512.043H58.2611V506.641H57.0658V511.504H55.8705V501.648H57.0658V505.598H58.2611V501.449H59.5033ZM54.6752 502.703V503.758H52.0267V508.469C53.181 508.457 54.1302 508.398 55.2025 508.199L55.2962 509.266C54.0189 509.523 52.9056 509.559 51.4291 509.57H50.7142V502.703H54.6752ZM64.1472 503.137C64.1472 504.473 65.0144 505.727 66.6433 506.242L65.9402 507.262C64.7976 506.875 63.9773 506.102 63.5261 505.117C63.0573 506.242 62.2019 507.127 60.9831 507.555L60.28 506.535C61.9909 505.938 62.8347 504.531 62.8464 503.02V502.012H64.1472V503.137ZM68.7527 501.449V504.027H70.2292V505.105H68.7527V507.789H67.4519V501.449H68.7527ZM65.3073 508.023C67.4988 508.012 68.8464 508.762 68.8581 510.016C68.8464 511.293 67.4988 512.031 65.3073 512.031C63.0925 512.031 61.7214 511.293 61.7214 510.016C61.7214 508.762 63.0925 508.012 65.3073 508.023ZM65.3073 509.043C63.8542 509.043 63.0222 509.395 63.0222 510.016C63.0222 510.672 63.8542 511 65.3073 511C66.7605 511 67.5691 510.672 67.5691 510.016C67.5691 509.395 66.7605 509.043 65.3073 509.043ZM74.2052 504.461C74.2052 506.102 75.1778 507.965 76.8536 508.738L76.127 509.77C74.9317 509.207 74.047 508.07 73.5723 506.746C73.0919 508.199 72.1661 509.441 70.9473 510.027L70.1856 509.008C71.8731 508.211 72.8927 506.219 72.9044 504.461V503.57H70.5958V502.492H76.42V503.57H74.2052V504.461ZM78.7052 501.449V505.574H80.3341V506.664H78.7052V512.043H77.4044V501.449H78.7052ZM86.9266 503.289C86.9266 504.602 87.8289 505.902 89.5164 506.43L88.8484 507.438C87.6473 507.057 86.7742 506.254 86.2938 505.246C85.8133 506.342 84.9168 507.215 83.657 507.637L82.9891 506.629C84.6883 506.055 85.6023 504.672 85.6141 503.289V503.16H83.3289V502.117H89.1531V503.16H86.9266V503.289ZM91.7313 501.449V507.836H90.4188V501.449H91.7313ZM91.7313 508.328V512.043H90.4188V509.383H84.5008V508.328H91.7313ZM95.3908 507.484V508.703H100.09V507.484H101.379V511.914H94.1134V507.484H95.3908ZM95.3908 510.859H100.09V509.711H95.3908V510.859ZM101.414 501.906V502.727C101.414 503.529 101.414 504.414 101.156 505.656H102.598V506.699H92.9181V505.656H99.8673C100.09 504.537 100.113 503.693 100.113 502.949H94.1134V501.906H101.414ZM106.492 511L106.855 508.809H105.027L104.664 511H103.503L103.867 508.809H102.671L102.859 507.66H104.054L104.347 505.855H103.164L103.351 504.707H104.546L104.898 502.516H106.058L105.707 504.707H107.535L107.886 502.516H109.035L108.683 504.707H109.878L109.679 505.855H108.484L108.191 507.66H109.386L109.199 508.809H108.003L107.64 511H106.492ZM105.214 507.66H107.042L107.335 505.855H105.507L105.214 507.66Z" fill="#5766FF"/>
<rect x="34.5" y="525.5" width="104" height="23" rx="3.5" stroke="#5766FF"/>
<path d="M46.9141 541L47.2773 538.809H45.4492L45.0859 541H43.9258L44.2891 538.809H43.0938L43.2812 537.66H44.4766L44.7695 535.855H43.5859L43.7734 534.707H44.9688L45.3203 532.516H46.4805L46.1289 534.707H47.957L48.3086 532.516H49.457L49.1055 534.707H50.3008L50.1016 535.855H48.9062L48.6133 537.66H49.8086L49.6211 538.809H48.4258L48.0625 541H46.9141ZM45.6367 537.66H47.4648L47.7578 535.855H45.9297L45.6367 537.66ZM59.5033 531.449V542.043H58.2611V536.641H57.0658V541.504H55.8705V531.648H57.0658V535.598H58.2611V531.449H59.5033ZM54.6752 532.703V533.758H52.0267V538.469C53.181 538.457 54.1302 538.398 55.2025 538.199L55.2962 539.266C54.0189 539.523 52.9056 539.559 51.4291 539.57H50.7142V532.703H54.6752ZM64.1472 533.137C64.1472 534.473 65.0144 535.727 66.6433 536.242L65.9402 537.262C64.7976 536.875 63.9773 536.102 63.5261 535.117C63.0573 536.242 62.2019 537.127 60.9831 537.555L60.28 536.535C61.9909 535.938 62.8347 534.531 62.8464 533.02V532.012H64.1472V533.137ZM68.7527 531.449V534.027H70.2292V535.105H68.7527V537.789H67.4519V531.449H68.7527ZM65.3073 538.023C67.4988 538.012 68.8464 538.762 68.8581 540.016C68.8464 541.293 67.4988 542.031 65.3073 542.031C63.0925 542.031 61.7214 541.293 61.7214 540.016C61.7214 538.762 63.0925 538.012 65.3073 538.023ZM65.3073 539.043C63.8542 539.043 63.0222 539.395 63.0222 540.016C63.0222 540.672 63.8542 541 65.3073 541C66.7605 541 67.5691 540.672 67.5691 540.016C67.5691 539.395 66.7605 539.043 65.3073 539.043ZM74.2052 534.461C74.2052 536.102 75.1778 537.965 76.8536 538.738L76.127 539.77C74.9317 539.207 74.047 538.07 73.5723 536.746C73.0919 538.199 72.1661 539.441 70.9473 540.027L70.1856 539.008C71.8731 538.211 72.8927 536.219 72.9044 534.461V533.57H70.5958V532.492H76.42V533.57H74.2052V534.461ZM78.7052 531.449V535.574H80.3341V536.664H78.7052V542.043H77.4044V531.449H78.7052ZM86.2117 533.418C86.2117 534.566 86.8797 535.715 88.2742 536.242L87.5828 537.238C86.6395 536.875 85.9832 536.201 85.6023 535.375C85.2156 536.324 84.5242 537.133 83.5164 537.555L82.8133 536.559C84.2664 535.914 84.9461 534.59 84.9578 533.418V532.105H86.2117V533.418ZM91.9656 531.461V537.953H90.7234V535.199H89.6688V537.625H88.45V531.66H89.6688V534.133H90.7234V531.461H91.9656ZM88.3914 538.129C90.6063 538.129 92.0125 538.855 92.0242 540.074C92.0125 541.293 90.6063 542.031 88.3914 542.031C86.1531 542.031 84.7586 541.293 84.7586 540.074C84.7586 538.855 86.1531 538.129 88.3914 538.129ZM88.3914 539.113C86.9266 539.113 86.0594 539.453 86.0594 540.074C86.0594 540.707 86.9266 541.035 88.3914 541.035C89.8445 541.035 90.7117 540.707 90.7117 540.074C90.7117 539.453 89.8445 539.113 88.3914 539.113ZM101.789 531.461V539.266H100.488V535.738H97.7228V534.707H100.488V533.746H97.7228V532.715H100.488V531.461H101.789ZM102.059 540.777V541.832H94.8283V538.574H96.1408V540.777H102.059ZM94.8166 532.164V536.746C96.1642 536.729 97.4357 536.646 98.8595 536.395L98.9884 537.449C97.3595 537.754 95.9298 537.812 94.3595 537.824H93.5275V532.164H94.8166ZM111.812 531.461V537.637H110.5V537.203H108.519V536.406H110.5V531.461H111.812ZM102.917 535.281C104.968 535.281 107.523 535.258 109.796 535.035L109.867 535.855C108.9 535.99 107.904 536.072 106.925 536.113V537.648H105.636V536.172C104.728 536.195 103.855 536.201 103.058 536.195L102.917 535.281ZM111.812 537.965V540.344H105.789V541.023H112.093V541.949H104.511V539.488H110.523V538.855H104.464V537.965H111.812ZM106.339 531.625C107.91 531.625 108.988 532.258 108.988 533.219C108.988 534.203 107.91 534.801 106.339 534.801C104.734 534.801 103.667 534.203 103.667 533.219C103.667 532.258 104.734 531.625 106.339 531.625ZM106.339 532.492C105.449 532.492 104.898 532.773 104.91 533.219C104.898 533.664 105.449 533.934 106.339 533.934C107.207 533.934 107.769 533.664 107.769 533.219C107.769 532.773 107.207 532.492 106.339 532.492ZM115.94 531.789C117.546 531.789 118.741 532.785 118.753 534.18C118.741 535.586 117.546 536.57 115.94 536.57C114.323 536.57 113.128 535.586 113.128 534.18C113.128 532.785 114.323 531.789 115.94 531.789ZM115.94 532.867C115.05 532.867 114.393 533.371 114.393 534.18C114.393 535 115.05 535.516 115.94 535.516C116.831 535.516 117.487 535 117.487 534.18C117.487 533.371 116.831 532.867 115.94 532.867ZM121.765 531.449V536.805H120.452V531.449H121.765ZM121.765 537.262V540.027H116.034V540.883H122.081V541.914H114.757V539.066H120.464V538.281H114.733V537.262H121.765ZM126.514 541L126.877 538.809H125.049L124.686 541H123.526L123.889 538.809H122.694L122.881 537.66H124.076L124.369 535.855H123.186L123.373 534.707H124.569L124.92 532.516H126.08L125.729 534.707H127.557L127.908 532.516H129.057L128.705 534.707H129.901L129.701 535.855H128.506L128.213 537.66H129.408L129.221 538.809H128.026L127.662 541H126.514ZM125.237 537.66H127.065L127.358 535.855H125.53L125.237 537.66Z" fill="#5766FF"/>
<rect x="34.5" y="555.5" width="84" height="23" rx="3.5" stroke="#5766FF"/>
<path d="M46.9141 571L47.2773 568.809H45.4492L45.0859 571H43.9258L44.2891 568.809H43.0938L43.2812 567.66H44.4766L44.7695 565.855H43.5859L43.7734 564.707H44.9688L45.3203 562.516H46.4805L46.1289 564.707H47.957L48.3086 562.516H49.457L49.1055 564.707H50.3008L50.1016 565.855H48.9062L48.6133 567.66H49.8086L49.6211 568.809H48.4258L48.0625 571H46.9141ZM45.6367 567.66H47.4648L47.7578 565.855H45.9297L45.6367 567.66ZM59.5033 561.449V572.043H58.2611V566.641H57.0658V571.504H55.8705V561.648H57.0658V565.598H58.2611V561.449H59.5033ZM54.6752 562.703V563.758H52.0267V568.469C53.181 568.457 54.1302 568.398 55.2025 568.199L55.2962 569.266C54.0189 569.523 52.9056 569.559 51.4291 569.57H50.7142V562.703H54.6752ZM64.1472 563.137C64.1472 564.473 65.0144 565.727 66.6433 566.242L65.9402 567.262C64.7976 566.875 63.9773 566.102 63.5261 565.117C63.0573 566.242 62.2019 567.127 60.9831 567.555L60.28 566.535C61.9909 565.938 62.8347 564.531 62.8464 563.02V562.012H64.1472V563.137ZM68.7527 561.449V564.027H70.2292V565.105H68.7527V567.789H67.4519V561.449H68.7527ZM65.3073 568.023C67.4988 568.012 68.8464 568.762 68.8581 570.016C68.8464 571.293 67.4988 572.031 65.3073 572.031C63.0925 572.031 61.7214 571.293 61.7214 570.016C61.7214 568.762 63.0925 568.012 65.3073 568.023ZM65.3073 569.043C63.8542 569.043 63.0222 569.395 63.0222 570.016C63.0222 570.672 63.8542 571 65.3073 571C66.7605 571 67.5691 570.672 67.5691 570.016C67.5691 569.395 66.7605 569.043 65.3073 569.043ZM74.2052 564.461C74.2052 566.102 75.1778 567.965 76.8536 568.738L76.127 569.77C74.9317 569.207 74.047 568.07 73.5723 566.746C73.0919 568.199 72.1661 569.441 70.9473 570.027L70.1856 569.008C71.8731 568.211 72.8927 566.219 72.9044 564.461V563.57H70.5958V562.492H76.42V563.57H74.2052V564.461ZM78.7052 561.449V565.574H80.3341V566.664H78.7052V572.043H77.4044V561.449H78.7052ZM92.5633 567.355V568.41H88.3563V572.031H87.0672V568.41H82.907V567.355H92.5633ZM91.6727 562.047V563.078H88.4969C88.573 564.238 89.9676 565.352 92.0594 565.621L91.5906 566.641C89.7859 566.389 88.3797 565.562 87.7352 564.414C87.0906 565.562 85.6844 566.389 83.9031 566.641L83.4109 565.621C85.491 565.352 86.8855 564.238 86.9852 563.078H83.7977V562.047H91.6727ZM102.598 569.676V570.73H92.9181V569.676H97.0666V567.227H98.3556V569.676H102.598ZM98.3908 562.867C98.3908 564.473 99.9963 566.055 102.223 566.406L101.66 567.484C99.8673 567.145 98.4025 566.119 97.6994 564.73C96.9963 566.113 95.5431 567.156 93.7619 567.484L93.1994 566.406C95.4142 566.055 96.9963 564.461 97.008 562.867V562.094H98.3908V562.867ZM106.492 571L106.855 568.809H105.027L104.664 571H103.503L103.867 568.809H102.671L102.859 567.66H104.054L104.347 565.855H103.164L103.351 564.707H104.546L104.898 562.516H106.058L105.707 564.707H107.535L107.886 562.516H109.035L108.683 564.707H109.878L109.679 565.855H108.484L108.191 567.66H109.386L109.199 568.809H108.003L107.64 571H106.492ZM105.214 567.66H107.042L107.335 565.855H105.507L105.214 567.66Z" fill="#5766FF"/>
<rect x="34.5" y="585.5" width="94" height="23" rx="3.5" stroke="#5766FF"/>
<path d="M46.9141 601L47.2773 598.809H45.4492L45.0859 601H43.9258L44.2891 598.809H43.0938L43.2812 597.66H44.4766L44.7695 595.855H43.5859L43.7734 594.707H44.9688L45.3203 592.516H46.4805L46.1289 594.707H47.957L48.3086 592.516H49.457L49.1055 594.707H50.3008L50.1016 595.855H48.9062L48.6133 597.66H49.8086L49.6211 598.809H48.4258L48.0625 601H46.9141ZM45.6367 597.66H47.4648L47.7578 595.855H45.9297L45.6367 597.66ZM59.5033 591.449V602.043H58.2611V596.641H57.0658V601.504H55.8705V591.648H57.0658V595.598H58.2611V591.449H59.5033ZM54.6752 592.703V593.758H52.0267V598.469C53.181 598.457 54.1302 598.398 55.2025 598.199L55.2962 599.266C54.0189 599.523 52.9056 599.559 51.4291 599.57H50.7142V592.703H54.6752ZM64.1472 593.137C64.1472 594.473 65.0144 595.727 66.6433 596.242L65.9402 597.262C64.7976 596.875 63.9773 596.102 63.5261 595.117C63.0573 596.242 62.2019 597.127 60.9831 597.555L60.28 596.535C61.9909 595.938 62.8347 594.531 62.8464 593.02V592.012H64.1472V593.137ZM68.7527 591.449V594.027H70.2292V595.105H68.7527V597.789H67.4519V591.449H68.7527ZM65.3073 598.023C67.4988 598.012 68.8464 598.762 68.8581 600.016C68.8464 601.293 67.4988 602.031 65.3073 602.031C63.0925 602.031 61.7214 601.293 61.7214 600.016C61.7214 598.762 63.0925 598.012 65.3073 598.023ZM65.3073 599.043C63.8542 599.043 63.0222 599.395 63.0222 600.016C63.0222 600.672 63.8542 601 65.3073 601C66.7605 601 67.5691 600.672 67.5691 600.016C67.5691 599.395 66.7605 599.043 65.3073 599.043ZM74.2052 594.461C74.2052 596.102 75.1778 597.965 76.8536 598.738L76.127 599.77C74.9317 599.207 74.047 598.07 73.5723 596.746C73.0919 598.199 72.1661 599.441 70.9473 600.027L70.1856 599.008C71.8731 598.211 72.8927 596.219 72.9044 594.461V593.57H70.5958V592.492H76.42V593.57H74.2052V594.461ZM78.7052 591.449V595.574H80.3341V596.664H78.7052V602.043H77.4044V591.449H78.7052ZM91.7781 591.461V599.23H90.4773V596.605H87.9578C87.448 597.174 86.698 597.52 85.8484 597.52C84.2547 597.52 83.0477 596.371 83.0477 594.812C83.0477 593.23 84.2547 592.094 85.8484 592.094C86.6922 592.094 87.4363 592.434 87.9461 592.996H90.4773V591.461H91.7781ZM92.0477 600.777V601.832H84.8289V598.434H86.1297V600.777H92.0477ZM85.8484 593.254C84.9344 593.254 84.2898 593.863 84.2898 594.812C84.2898 595.75 84.9344 596.359 85.8484 596.359C86.7156 596.359 87.3719 595.75 87.3836 594.812C87.3719 593.863 86.7156 593.254 85.8484 593.254ZM88.5203 594.051C88.5848 594.291 88.6258 594.543 88.6258 594.812C88.6258 595.07 88.5906 595.316 88.532 595.551H90.4773V594.051H88.5203ZM98.1564 592.059V595.199H94.6291V596.383C96.4279 596.377 97.6584 596.318 99.1056 596.066L99.2463 597.109C97.6642 597.379 96.2931 597.449 94.1955 597.449H93.3283V594.191H96.8791V593.113H93.3166V592.059H98.1564ZM101.274 591.461V594.051H102.762V595.129H101.274V597.895H99.9728V591.461H101.274ZM101.274 598.398V602.031H99.9728V599.441H94.2189V598.398H101.274ZM111.812 591.449V602.055H110.511V596.641H108.46V595.586H110.511V591.449H111.812ZM106.796 594.812C106.785 596.418 107.746 598.129 109.421 598.867L108.718 599.863C107.505 599.348 106.626 598.287 106.164 597.016C105.695 598.363 104.822 599.494 103.609 600.039L102.906 599.031C104.558 598.281 105.496 596.477 105.496 594.812V594.262H103.222V593.219H105.507V591.672H106.808V593.219H109.023V594.262H106.796V594.812ZM116.503 601L116.866 598.809H115.038L114.675 601H113.515L113.878 598.809H112.683L112.87 597.66H114.065L114.358 595.855H113.175L113.362 594.707H114.558L114.909 592.516H116.069L115.718 594.707H117.546L117.897 592.516H119.046L118.694 594.707H119.89L119.69 595.855H118.495L118.202 597.66H119.397L119.21 598.809H118.015L117.651 601H116.503ZM115.225 597.66H117.054L117.347 595.855H115.518L115.225 597.66Z" fill="#5766FF"/>
<defs>
<filter id="filter0_d_295_681" x="0.799999" y="290.8" width="304.4" height="466.4" filterUnits="userSpaceOnUse" color-interpolation-filters="sRGB">
<feFlood flood-opacity="0" result="BackgroundImageFix"/>
<feColorMatrix in="SourceAlpha" type="matrix" values="0 0 0 0 0 0 0 0 0 0 0 0 0 0 0 0 0 0 127 0" result="hardAlpha"/>
<feOffset dx="19" dy="4"/>
<feGaussianBlur stdDeviation="11.1"/>
<feComposite in2="hardAlpha" operator="out"/>
<feColorMatrix type="matrix" values="0 0 0 0 0 0 0 0 0 0 0 0 0 0 0 0 0 0 0.05 0"/>
<feBlend mode="normal" in2="BackgroundImageFix" result="effect1_dropShadow_295_681"/>
<feBlend mode="normal" in="SourceGraphic" in2="effect1_dropShadow_295_681" result="shape"/>
</filter>
<clipPath id="clip0_295_681">
<rect width="589" height="610" fill="white" transform="translate(64)"/>
</clipPath>
<clipPath id="clip1_295_681">
<rect width="9.94821" height="5.52679" fill="white" transform="translate(205.436 394.475)"/>
</clipPath>
</defs>
</svg>
