<svg width="440" height="500" viewBox="0 0 440 500" fill="none" xmlns="http://www.w3.org/2000/svg">
<g clip-path="url(#clip0_272_2090)">
<rect x="60" y="60" width="560" height="502" rx="22" fill="white"/>
<path d="M99.212 105.12H90.644V103.86H94.2V102.32C93.3507 102.208 92.7067 101.895 92.268 101.382C91.8293 100.869 91.61 100.187 91.61 99.338V97.882C91.61 97.406 91.6847 96.9907 91.834 96.636C91.9927 96.272 92.2167 95.9827 92.506 95.768H90.896V94.508H94.2V92.982H95.6V94.508H98.946V95.768H97.336C97.6347 95.9733 97.8493 96.258 97.98 96.622C98.12 96.986 98.19 97.406 98.19 97.882V99.338C98.19 100.187 97.9707 100.869 97.532 101.382C97.0933 101.895 96.4493 102.208 95.6 102.32V103.86H99.212V105.12ZM96.79 97.644C96.79 97.0467 96.6453 96.5753 96.356 96.23C96.076 95.8753 95.5907 95.698 94.9 95.698C94.2093 95.698 93.7193 95.8753 93.43 96.23C93.15 96.5753 93.01 97.0467 93.01 97.644V99.268C93.01 99.8653 93.15 100.341 93.43 100.696C93.7193 101.041 94.2093 101.214 94.9 101.214C95.5907 101.214 96.076 101.041 96.356 100.696C96.6453 100.341 96.79 99.8653 96.79 99.268V97.644ZM101.312 106.212H99.912V93.556H101.312V106.212ZM109.954 105.204H108.554V94.97H107.322C107.023 94.97 106.813 95.0307 106.692 95.152C106.57 95.264 106.482 95.432 106.426 95.656L104.045 105.204H102.561L104.955 95.544C105.021 95.2733 105.096 95.026 105.179 94.802C105.273 94.578 105.39 94.3867 105.53 94.228C105.679 94.06 105.861 93.934 106.076 93.85C106.29 93.7567 106.561 93.71 106.888 93.71H109.954V105.204ZM113.16 106.212H111.76V93.556H113.16V98.54H114.812V99.828H113.16V106.212ZM118.679 106.212C117.83 106.212 117.172 105.993 116.705 105.554C116.238 105.125 116.005 104.513 116.005 103.72C116.005 102.927 116.238 102.315 116.705 101.886C117.172 101.447 117.83 101.228 118.679 101.228H123.565C124.414 101.228 125.072 101.447 125.539 101.886C126.006 102.315 126.239 102.927 126.239 103.72C126.239 104.513 126.006 105.125 125.539 105.554C125.072 105.993 124.414 106.212 123.565 106.212H118.679ZM122.767 100.36H121.297L119.715 95.264C119.678 95.152 119.64 95.0773 119.603 95.04C119.575 94.9933 119.51 94.97 119.407 94.97H118.441C118.338 94.97 118.268 94.9933 118.231 95.04C118.203 95.0867 118.17 95.1613 118.133 95.264L116.467 100.36H114.997L116.761 94.97H115.179V93.71H122.823V94.97H121.101L122.767 100.36ZM123.383 104.952C123.878 104.952 124.242 104.835 124.475 104.602C124.718 104.378 124.839 104.084 124.839 103.72C124.839 103.356 124.718 103.062 124.475 102.838C124.242 102.605 123.878 102.488 123.383 102.488H118.861C118.366 102.488 117.998 102.605 117.755 102.838C117.522 103.062 117.405 103.356 117.405 103.72C117.405 104.084 117.522 104.378 117.755 104.602C117.998 104.835 118.366 104.952 118.861 104.952H123.383ZM125.987 100.78H124.587V97.532H122.333V96.244H124.587V93.556H125.987V100.78ZM138.157 100.01C138.157 100.374 138.073 100.64 137.905 100.808C137.737 100.976 137.471 101.06 137.107 101.06H128.133V93.626H129.533V96.02H136.757V93.626H138.157V100.01ZM136.757 99.8V97.28H129.533V99.8H136.757ZM139.039 105.372H127.251V104.112H132.445V101.9H133.845V104.112H139.039V105.372Z" fill="black"/>
<path d="M95.1547 123.517C94.4282 123.517 93.7887 123.424 93.2362 123.239C92.6837 123.054 92.2541 122.79 91.9475 122.448C91.6436 122.105 91.4917 121.704 91.4917 121.246C91.4917 120.782 91.6436 120.377 91.9475 120.032C92.2541 119.686 92.6837 119.421 93.2362 119.236C93.7887 119.048 94.4282 118.953 95.1547 118.95C95.8812 118.953 96.5207 119.048 97.0732 119.236C97.6285 119.421 98.0594 119.686 98.366 120.032C98.6727 120.377 98.826 120.782 98.826 121.246C98.826 121.704 98.6727 122.105 98.366 122.448C98.0594 122.79 97.6285 123.054 97.0732 123.239C96.5207 123.424 95.8812 123.517 95.1547 123.517ZM95.1547 119.704C94.616 119.704 94.1409 119.768 93.7293 119.895C93.3177 120.022 92.9986 120.202 92.7721 120.434C92.5456 120.666 92.4337 120.936 92.4365 121.246C92.4337 121.552 92.5456 121.82 92.7721 122.05C92.9986 122.279 93.3177 122.457 93.7293 122.584C94.1409 122.709 94.616 122.771 95.1547 122.771C95.6934 122.771 96.1685 122.709 96.5801 122.584C96.9917 122.457 97.3108 122.279 97.5373 122.05C97.7666 121.82 97.8812 121.552 97.8812 121.246C97.8812 120.936 97.7666 120.666 97.5373 120.434C97.3108 120.202 96.9917 120.022 96.5801 119.895C96.1685 119.768 95.6934 119.704 95.1547 119.704ZM90.4061 124.503H99.9448V125.282H95.6022V128.953H94.6989V125.282H90.4061V124.503ZM108.124 128.97V118.536H109.036V128.97H108.124ZM101.983 125.671C102.925 125.669 103.796 125.641 104.594 125.588C105.395 125.533 106.235 125.434 107.113 125.29L107.204 126.061C106.301 126.204 105.437 126.304 104.611 126.359C103.785 126.414 102.884 126.442 101.909 126.442H101.039V122.456H104.942V120.268H101.022V119.506H105.87V123.21H101.983V125.671ZM120.721 128.953V118.536H121.641V128.953H120.721ZM117.041 119.82H119.76V120.566H113.378V119.82H116.121V118.544H117.041V119.82ZM117.041 126.094C118.135 126.044 119.132 125.961 120.033 125.845L120.108 126.55C119.072 126.715 117.996 126.825 116.88 126.877C115.764 126.93 114.569 126.956 113.295 126.956L113.155 126.177H113.279C114.533 126.166 115.481 126.149 116.121 126.127V124.996C115.704 124.952 115.341 124.845 115.032 124.677C114.722 124.508 114.483 124.29 114.315 124.022C114.146 123.751 114.063 123.445 114.066 123.102C114.063 122.715 114.166 122.376 114.373 122.083C114.58 121.79 114.871 121.564 115.247 121.403C115.626 121.243 116.063 121.163 116.561 121.163C117.061 121.163 117.501 121.243 117.882 121.403C118.264 121.564 118.559 121.79 118.769 122.083C118.982 122.376 119.088 122.715 119.088 123.102C119.088 123.442 119.004 123.746 118.836 124.014C118.667 124.282 118.428 124.5 118.119 124.669C117.812 124.834 117.453 124.941 117.041 124.988V126.094ZM114.928 123.102C114.925 123.34 114.993 123.548 115.131 123.728C115.269 123.907 115.463 124.047 115.711 124.146C115.96 124.243 116.243 124.29 116.561 124.287C116.884 124.29 117.17 124.243 117.418 124.146C117.67 124.047 117.865 123.907 118.003 123.728C118.141 123.548 118.21 123.34 118.21 123.102C118.21 122.862 118.141 122.651 118.003 122.468C117.865 122.283 117.67 122.14 117.418 122.037C117.17 121.935 116.884 121.884 116.561 121.884C116.243 121.884 115.96 121.935 115.711 122.037C115.463 122.14 115.269 122.283 115.131 122.468C114.993 122.651 114.925 122.862 114.928 123.102ZM131.171 122.762H132.912V123.558H131.171V128.953H130.251V118.536H131.171V122.762ZM126.605 121.337C126.602 121.934 126.721 122.529 126.961 123.123C127.202 123.717 127.528 124.249 127.939 124.718C128.354 125.188 128.807 125.544 129.298 125.787L128.726 126.525C128.348 126.326 127.992 126.062 127.657 125.733C127.326 125.402 127.032 125.025 126.775 124.602C126.521 124.177 126.316 123.724 126.162 123.243C126.007 123.751 125.798 124.232 125.536 124.685C125.276 125.138 124.975 125.54 124.633 125.891C124.29 126.239 123.925 126.517 123.539 126.724L122.958 125.986C123.458 125.738 123.917 125.367 124.334 124.876C124.751 124.381 125.081 123.823 125.325 123.202C125.568 122.58 125.691 121.959 125.693 121.337V119.439H126.605V121.337ZM140.743 118.536H141.663V128.97H140.743V118.536ZM136.525 119.298C137.066 119.298 137.55 119.402 137.975 119.609C138.401 119.814 138.732 120.101 138.97 120.471C139.21 120.841 139.331 121.265 139.334 121.743C139.331 122.221 139.21 122.645 138.97 123.015C138.732 123.385 138.401 123.674 137.975 123.881C137.55 124.086 137.066 124.188 136.525 124.188C135.983 124.188 135.499 124.086 135.07 123.881C134.642 123.674 134.308 123.385 134.068 123.015C133.83 122.642 133.713 122.218 133.715 121.743C133.713 121.268 133.83 120.845 134.068 120.475C134.308 120.102 134.642 119.814 135.07 119.609C135.499 119.402 135.983 119.298 136.525 119.298ZM136.525 120.102C136.157 120.102 135.829 120.171 135.539 120.309C135.249 120.448 135.022 120.642 134.859 120.894C134.696 121.142 134.616 121.425 134.619 121.743C134.616 122.061 134.696 122.345 134.859 122.597C135.022 122.845 135.249 123.039 135.539 123.177C135.829 123.315 136.157 123.384 136.525 123.384C136.889 123.384 137.215 123.315 137.503 123.177C137.793 123.039 138.019 122.845 138.182 122.597C138.348 122.345 138.431 122.061 138.431 121.743C138.431 121.425 138.348 121.142 138.182 120.894C138.019 120.642 137.793 120.448 137.503 120.309C137.215 120.171 136.889 120.102 136.525 120.102ZM133.177 125.887H133.794C134.957 125.887 136.059 125.863 137.101 125.816C138.142 125.769 139.127 125.677 140.055 125.539L140.13 126.218C139.395 126.356 138.631 126.459 137.838 126.525C137.048 126.591 136.309 126.633 135.622 126.649C134.936 126.666 134.163 126.674 133.301 126.674L133.177 125.887ZM153.472 128.953V118.536H154.392V128.953H153.472ZM151.309 119.671C151.304 121.24 150.906 122.652 150.116 123.906C149.329 125.157 148.094 126.188 146.411 126.997L145.914 126.243C147.304 125.586 148.369 124.765 149.109 123.782C149.849 122.798 150.271 121.677 150.373 120.417H146.395V119.671H151.309ZM160.997 123.119V124.229H165.29V124.992H155.793V124.229H160.085V123.119H157.052V118.95H157.972V120.276H163.127V118.95H164.047V123.119H160.997ZM163.127 121.006H157.972V122.373H163.127V121.006ZM157.019 125.82H157.947V127.959H164.229V128.721H157.019V125.82ZM174.066 122.017V121.254H176.171V118.536H177.091V124.743H176.171V122.017H174.066ZM171.634 121.983C171.41 122.594 171.066 123.131 170.602 123.595C170.141 124.059 169.599 124.409 168.978 124.644L168.497 123.914C169.008 123.729 169.465 123.459 169.868 123.102C170.272 122.746 170.585 122.337 170.809 121.876C171.036 121.414 171.149 120.939 171.149 120.45V120.061H168.795V119.298H174.406V120.061H172.077V120.442C172.077 120.89 172.185 121.325 172.4 121.747C172.616 122.167 172.918 122.541 173.308 122.87C173.697 123.196 174.143 123.445 174.646 123.616L174.165 124.354C173.585 124.144 173.076 123.831 172.636 123.417C172.197 123.003 171.863 122.525 171.634 121.983ZM173.635 125.066C174.353 125.066 174.973 125.144 175.496 125.298C176.02 125.45 176.422 125.671 176.701 125.961C176.983 126.251 177.124 126.599 177.124 127.006C177.124 127.412 176.983 127.758 176.701 128.046C176.422 128.336 176.022 128.557 175.5 128.709C174.978 128.863 174.356 128.942 173.635 128.945C172.911 128.942 172.287 128.863 171.762 128.709C171.24 128.557 170.839 128.336 170.56 128.046C170.281 127.758 170.143 127.412 170.146 127.006C170.143 126.599 170.281 126.251 170.56 125.961C170.839 125.671 171.241 125.45 171.766 125.298C172.291 125.144 172.914 125.066 173.635 125.066ZM173.635 128.207C174.163 128.21 174.62 128.163 175.007 128.066C175.393 127.972 175.69 127.834 175.897 127.652C176.107 127.47 176.212 127.254 176.212 127.006C176.212 126.754 176.107 126.537 175.897 126.355C175.69 126.17 175.393 126.029 175.007 125.932C174.62 125.836 174.163 125.787 173.635 125.787C173.105 125.787 172.645 125.836 172.255 125.932C171.868 126.029 171.571 126.17 171.364 126.355C171.157 126.537 171.055 126.754 171.058 127.006C171.055 127.254 171.157 127.47 171.364 127.652C171.571 127.834 171.868 127.972 172.255 128.066C172.645 128.163 173.105 128.21 173.635 128.207ZM183.663 124.602V126.848H188.005V127.619H178.467V126.848H182.751V124.602H179.594V119.273H180.514V121.155H185.925V119.273H186.837V124.602H183.663ZM185.925 121.909H180.514V123.848H185.925V121.909ZM189.704 120.376H195.853V119.514H189.671V118.851H196.773V121.006H190.616V121.917H196.956V122.588H189.704V120.376ZM188.461 124.097V123.376H198V124.097H188.461ZM196.806 127.146H190.549V128.141H197.146V128.812H189.63V126.508H195.895V125.622H189.613V124.934H196.806V127.146ZM209.303 118.536V121.925H210.828V122.713H209.303V126.376H208.375V118.536H209.303ZM205.723 122.903C205.837 122.348 205.911 121.855 205.947 121.424C205.983 120.993 206.004 120.555 206.009 120.11H201.721V119.34H206.917V119.895V119.99C206.911 120.496 206.892 120.978 206.859 121.436C206.826 121.892 206.754 122.406 206.643 122.978L205.723 122.903ZM207.721 124.287C206.751 124.453 205.727 124.564 204.65 124.619C203.573 124.674 202.414 124.704 201.174 124.71L201.082 123.948C202.058 123.942 202.803 123.932 203.32 123.919V121.652H204.232V123.89C205.577 123.831 206.721 123.738 207.663 123.608L207.721 124.287ZM202.69 125.663H203.61V127.959H209.643V128.721H202.69V125.663ZM218.842 128.97V118.536H219.754V128.97H218.842ZM212.701 125.671C213.643 125.669 214.513 125.641 215.312 125.588C216.113 125.533 216.953 125.434 217.831 125.29L217.922 126.061C217.019 126.204 216.154 126.304 215.328 126.359C214.502 126.414 213.602 126.442 212.627 126.442H211.757V122.456H215.66V120.268H211.74V119.506H216.588V123.21H212.701V125.671ZM224.751 119.481H227.395V120.218H221.188V119.481H223.839V118.428H224.751V119.481ZM229.309 118.494V121.03H230.884V121.793H229.309V124.262H228.389V118.494H229.309ZM226.798 122.398C226.795 122.746 226.69 123.05 226.483 123.309C226.279 123.566 225.987 123.764 225.609 123.902C225.233 124.037 224.795 124.105 224.295 124.105C223.79 124.105 223.346 124.037 222.965 123.902C222.587 123.764 222.294 123.566 222.087 123.309C221.882 123.05 221.781 122.746 221.784 122.398C221.781 122.05 221.882 121.747 222.087 121.49C222.294 121.233 222.587 121.036 222.965 120.898C223.346 120.76 223.79 120.691 224.295 120.691C224.795 120.691 225.233 120.76 225.609 120.898C225.984 121.036 226.276 121.233 226.483 121.49C226.69 121.747 226.795 122.05 226.798 122.398ZM222.663 122.398C222.66 122.605 222.725 122.786 222.857 122.941C222.993 123.093 223.183 123.21 223.429 123.293C223.678 123.376 223.967 123.417 224.295 123.417C224.618 123.417 224.903 123.376 225.149 123.293C225.395 123.21 225.585 123.093 225.721 122.941C225.856 122.786 225.925 122.605 225.928 122.398C225.925 122.193 225.856 122.014 225.721 121.859C225.585 121.702 225.395 121.581 225.149 121.499C224.903 121.413 224.618 121.37 224.295 121.37C223.967 121.37 223.678 121.413 223.429 121.499C223.183 121.581 222.993 121.702 222.857 121.859C222.725 122.014 222.66 122.193 222.663 122.398ZM229.309 127.113H223.591V128.124H229.69V128.837H222.688V126.434H228.397V125.497H222.663V124.801H229.309V127.113ZM238.582 120.807C238.367 121.224 238.058 121.602 237.654 121.942C237.254 122.279 236.798 122.559 236.287 122.783C235.776 123.007 235.245 123.166 234.696 123.26L234.314 122.506C234.95 122.417 235.559 122.228 236.142 121.938C236.725 121.648 237.197 121.29 237.559 120.865C237.921 120.436 238.102 119.983 238.102 119.506V118.909H239.055V119.506C239.055 119.975 239.236 120.424 239.598 120.852C239.962 121.28 240.437 121.641 241.023 121.934C241.609 122.227 242.218 122.417 242.85 122.506L242.477 123.26C241.928 123.169 241.396 123.01 240.882 122.783C240.371 122.557 239.914 122.275 239.511 121.938C239.107 121.598 238.798 121.221 238.582 120.807ZM233.825 124.403H243.323V125.174H239.005V128.953H238.102V125.174H233.825V124.403ZM254.171 118.544H255.09V124.494H254.171V118.544ZM249.463 124.006C248.941 124.006 248.472 123.903 248.055 123.699C247.64 123.494 247.316 123.209 247.081 122.841C246.846 122.474 246.729 122.055 246.729 121.586C246.729 121.11 246.846 120.688 247.081 120.318C247.316 119.948 247.64 119.66 248.055 119.456C248.472 119.251 248.941 119.149 249.463 119.149C249.986 119.149 250.454 119.251 250.868 119.456C251.282 119.66 251.606 119.948 251.838 120.318C252.073 120.688 252.19 121.11 252.19 121.586C252.19 122.055 252.073 122.474 251.838 122.841C251.606 123.209 251.282 123.494 250.868 123.699C250.454 123.903 249.986 124.006 249.463 124.006ZM249.463 119.936C249.113 119.934 248.796 120.003 248.515 120.144C248.236 120.282 248.017 120.478 247.86 120.732C247.705 120.983 247.629 121.268 247.632 121.586C247.629 121.903 247.705 122.188 247.86 122.439C248.017 122.691 248.236 122.887 248.515 123.028C248.794 123.169 249.11 123.24 249.463 123.243C249.814 123.24 250.128 123.169 250.404 123.028C250.683 122.887 250.901 122.691 251.059 122.439C251.216 122.188 251.295 121.903 251.295 121.586C251.295 121.268 251.216 120.983 251.059 120.732C250.901 120.478 250.683 120.282 250.404 120.144C250.125 120.003 249.811 119.934 249.463 119.936ZM253.922 125.522C253.919 125.884 254.002 126.236 254.171 126.579C254.339 126.919 254.584 127.224 254.904 127.494C255.227 127.765 255.607 127.975 256.044 128.124L255.579 128.804C255.071 128.624 254.635 128.363 254.27 128.021C253.908 127.678 253.635 127.283 253.45 126.836C253.278 127.286 253.03 127.692 252.704 128.054C252.381 128.419 251.988 128.699 251.527 128.895C251.038 128.707 250.628 128.436 250.296 128.083C249.968 127.732 249.722 127.327 249.559 126.869C249.365 127.302 249.089 127.688 248.73 128.025C248.374 128.362 247.952 128.622 247.466 128.804L247.002 128.124C247.43 127.967 247.803 127.749 248.121 127.47C248.441 127.188 248.687 126.877 248.858 126.537C249.032 126.198 249.121 125.859 249.124 125.522V124.95H250.01V125.522C250.01 125.834 250.067 126.145 250.18 126.454C250.294 126.764 250.461 127.052 250.682 127.32C250.905 127.586 251.178 127.809 251.498 127.992C251.818 127.796 252.093 127.557 252.323 127.275C252.552 126.993 252.724 126.7 252.84 126.396C252.959 126.09 253.019 125.798 253.019 125.522V124.95H253.922V125.522ZM264.223 118.536H265.135V128.97H264.223V123.276H261.894C261.861 123.948 261.731 124.535 261.505 125.037C261.278 125.537 260.975 125.923 260.593 126.193C260.215 126.464 259.784 126.599 259.3 126.599C258.789 126.599 258.335 126.452 257.937 126.156C257.542 125.858 257.234 125.435 257.013 124.888C256.795 124.338 256.687 123.699 256.69 122.97C256.687 122.243 256.795 121.606 257.013 121.059C257.234 120.512 257.542 120.09 257.937 119.791C258.335 119.493 258.789 119.343 259.3 119.34C259.77 119.343 260.191 119.474 260.564 119.733C260.94 119.99 261.242 120.358 261.472 120.836C261.701 121.314 261.839 121.873 261.886 122.514H264.223V118.536ZM259.3 125.779C259.637 125.779 259.937 125.663 260.2 125.431C260.462 125.199 260.667 124.87 260.813 124.445C260.959 124.019 261.033 123.528 261.033 122.97C261.033 122.414 260.959 121.925 260.813 121.503C260.667 121.077 260.462 120.749 260.2 120.517C259.937 120.282 259.637 120.163 259.3 120.16C258.961 120.163 258.66 120.282 258.397 120.517C258.135 120.749 257.93 121.077 257.784 121.503C257.64 121.925 257.568 122.414 257.568 122.97C257.568 123.528 257.64 124.019 257.784 124.445C257.93 124.87 258.135 125.199 258.397 125.431C258.66 125.663 258.961 125.779 259.3 125.779ZM273.679 126.84H276.049V127.61H266.51V126.84H268.872V124.03C268.422 123.793 268.071 123.49 267.82 123.123C267.571 122.753 267.447 122.337 267.447 121.876C267.447 121.345 267.609 120.878 267.932 120.475C268.255 120.069 268.705 119.754 269.283 119.53C269.86 119.307 270.516 119.193 271.251 119.191C271.988 119.193 272.646 119.307 273.223 119.53C273.803 119.754 274.255 120.069 274.578 120.475C274.901 120.878 275.063 121.345 275.063 121.876C275.063 122.331 274.941 122.742 274.698 123.106C274.458 123.468 274.118 123.768 273.679 124.006V126.84ZM268.334 121.876C268.334 122.257 268.457 122.595 268.702 122.891C268.951 123.184 269.296 123.412 269.738 123.575C270.183 123.735 270.687 123.815 271.251 123.815C271.814 123.815 272.317 123.735 272.759 123.575C273.204 123.412 273.551 123.184 273.799 122.891C274.051 122.595 274.176 122.257 274.176 121.876C274.176 121.492 274.051 121.153 273.799 120.86C273.551 120.568 273.204 120.341 272.759 120.181C272.317 120.021 271.814 119.942 271.251 119.945C270.687 119.942 270.183 120.021 269.738 120.181C269.296 120.341 268.951 120.568 268.702 120.86C268.457 121.153 268.334 121.492 268.334 121.876ZM269.776 126.84H272.751V124.366C272.289 124.485 271.789 124.544 271.251 124.544C270.731 124.544 270.24 124.486 269.776 124.37V126.84ZM277.624 128.066C277.488 128.066 277.361 128.033 277.243 127.967C277.127 127.898 277.034 127.805 276.965 127.689C276.899 127.573 276.867 127.448 276.87 127.312C276.867 127.177 276.899 127.051 276.965 126.935C277.034 126.819 277.127 126.728 277.243 126.662C277.361 126.593 277.488 126.558 277.624 126.558C277.759 126.558 277.885 126.593 278.001 126.662C278.117 126.728 278.208 126.819 278.274 126.935C278.343 127.051 278.378 127.177 278.378 127.312C278.378 127.448 278.343 127.573 278.274 127.689C278.208 127.805 278.117 127.898 278.001 127.967C277.885 128.033 277.759 128.066 277.624 128.066Z" fill="black" fill-opacity="0.54"/>
<rect x="200" y="146" width="410" height="117" rx="8" fill="#F5F6FB"/>
<path d="M224.164 186.548C223.912 186.315 223.651 186.025 223.38 185.68C223.119 185.344 222.867 184.952 222.624 184.504C222.381 184.047 222.19 183.431 222.05 182.656C221.91 181.881 221.84 180.929 221.84 179.8C221.84 178.773 221.91 177.896 222.05 177.168C222.19 176.431 222.381 175.833 222.624 175.376C222.867 174.909 223.123 174.499 223.394 174.144C223.674 173.78 223.949 173.472 224.22 173.22H225.382C225.167 173.444 224.934 173.733 224.682 174.088C224.43 174.433 224.187 174.853 223.954 175.348C223.739 175.833 223.562 176.445 223.422 177.182C223.291 177.919 223.226 178.787 223.226 179.786C223.226 180.897 223.287 181.844 223.408 182.628C223.529 183.403 223.693 184.023 223.898 184.49C224.094 184.966 224.323 185.372 224.584 185.708C224.845 186.053 225.102 186.333 225.354 186.548H224.164ZM236.792 179.772H235.252L233.25 175.558C233.138 175.325 233.021 175.157 232.9 175.054C232.788 174.942 232.601 174.886 232.34 174.886H230.828C230.567 174.886 230.375 174.942 230.254 175.054C230.142 175.157 230.03 175.325 229.918 175.558L227.916 179.772H226.376L228.7 174.886H226.572V173.626H236.596V174.886H234.468L236.792 179.772ZM237.478 182.012H232.284V186.212H230.884V182.012H225.69V180.752H237.478V182.012ZM237.79 186.548C238.004 186.324 238.238 186.035 238.49 185.68C238.742 185.335 238.984 184.915 239.218 184.42C239.432 183.935 239.605 183.323 239.736 182.586C239.876 181.849 239.946 180.981 239.946 179.982C239.946 178.871 239.885 177.929 239.764 177.154C239.642 176.37 239.479 175.745 239.274 175.278C239.078 174.802 238.849 174.396 238.588 174.06C238.326 173.715 238.07 173.435 237.818 173.22H239.008C239.26 173.453 239.516 173.743 239.778 174.088C240.048 174.424 240.305 174.816 240.548 175.264C240.79 175.721 240.982 176.337 241.122 177.112C241.262 177.887 241.332 178.839 241.332 179.968C241.332 180.995 241.262 181.877 241.122 182.614C240.982 183.342 240.79 183.935 240.548 184.392C240.305 184.859 240.044 185.269 239.764 185.624C239.493 185.988 239.222 186.296 238.952 186.548H237.79ZM245.896 179.716C244.878 179.716 244.099 179.436 243.558 178.876C243.026 178.316 242.76 177.569 242.76 176.636C242.76 175.703 243.026 174.956 243.558 174.396C244.099 173.836 244.878 173.556 245.896 173.556H250.292C251.309 173.556 252.084 173.836 252.616 174.396C253.157 174.956 253.428 175.703 253.428 176.636C253.428 177.569 253.157 178.316 252.616 178.876C252.084 179.436 251.309 179.716 250.292 179.716H245.896ZM251.286 186.212H249.886V182.012H246.442V186.212H245.042V182.012H242.2V180.752H253.988V182.012H251.286V186.212ZM250.11 178.456C250.772 178.456 251.258 178.283 251.566 177.938C251.874 177.583 252.028 177.149 252.028 176.636C252.028 176.123 251.874 175.693 251.566 175.348C251.258 174.993 250.772 174.816 250.11 174.816H246.078C245.415 174.816 244.93 174.993 244.622 175.348C244.314 175.693 244.16 176.123 244.16 176.636C244.16 177.149 244.314 177.583 244.622 177.938C244.93 178.283 245.415 178.456 246.078 178.456H250.11ZM265.471 186.212H264.071V173.556H265.471V186.212ZM262.125 185.204H260.725V174.97H259.353C259.055 174.97 258.845 175.031 258.723 175.152C258.602 175.264 258.513 175.432 258.457 175.656L256.077 185.204H254.593L256.987 175.544C257.053 175.273 257.127 175.026 257.211 174.802C257.305 174.578 257.421 174.387 257.561 174.228C257.711 174.06 257.893 173.934 258.107 173.85C258.322 173.757 258.593 173.71 258.919 173.71H262.125V185.204ZM278.523 185.372H266.735V184.112H278.523V185.372ZM278.215 181.62H276.675L274.925 175.544C274.878 175.385 274.794 175.25 274.673 175.138C274.561 175.017 274.388 174.956 274.155 174.956H271.103C270.869 174.956 270.692 175.017 270.571 175.138C270.459 175.25 270.379 175.385 270.333 175.544L268.583 181.62H267.043L269.031 175.026C269.171 174.578 269.376 174.247 269.647 174.032C269.927 173.808 270.351 173.696 270.921 173.696H274.337C274.906 173.696 275.326 173.808 275.597 174.032C275.877 174.247 276.087 174.578 276.227 175.026L278.215 181.62Z" fill="black"/>
<path d="M228.876 208.077V204.174H229.695V213.889H228.876V208.788H227.454V213.379H226.658V204.39H227.454V208.077H228.876ZM222.608 210.751C223.319 210.748 223.924 210.728 224.424 210.689C224.926 210.65 225.434 210.578 225.946 210.473L226.024 211.191C225.478 211.307 224.939 211.385 224.408 211.423C223.88 211.459 223.203 211.48 222.376 211.485H221.75V205.364H225.39V206.067H222.608V210.751ZM237.084 209.669V211.988H239.627V212.699H230.731V211.988H233.212V209.669H231.534V208.958H233.057V205.789H231.519V205.078H238.776V205.789H237.231V208.958H238.753V209.669H237.084ZM236.388 205.789H233.907V208.958H236.388V205.789ZM236.226 209.669H234.07V211.988H236.226V209.669Z" fill="#777777"/>
<path d="M250.804 209.396V210.986C251.665 210.941 252.538 210.862 253.355 210.739L253.445 211.635C251.229 212.049 248.868 212.06 247.111 212.06L246.976 211.075C247.737 211.075 248.644 211.064 249.595 211.03V209.396H250.804ZM247.2 208.77C248.688 208.378 249.505 207.393 249.573 206.285H247.491V205.3H249.595V204.181H250.804V205.3H252.952V206.285H250.826C250.893 207.337 251.744 208.3 253.221 208.68L252.661 209.62C251.498 209.307 250.658 208.624 250.211 207.74C249.785 208.669 248.957 209.385 247.782 209.71L247.2 208.77ZM253.937 213.985V204.092H255.146V213.985H253.937ZM265.288 209.643V210.627H263.072V213.962H261.841V210.627H259.648V213.962H258.417V210.627H256.246V209.643H265.288ZM257.186 206.643C257.197 205.312 258.641 204.45 260.744 204.45C262.848 204.45 264.303 205.312 264.303 206.643C264.303 207.975 262.848 208.814 260.744 208.814C258.641 208.814 257.197 207.975 257.186 206.643ZM258.439 206.643C258.439 207.404 259.346 207.852 260.744 207.852C262.143 207.852 263.05 207.404 263.05 206.643C263.05 205.882 262.143 205.423 260.744 205.435C259.346 205.423 258.439 205.882 258.439 206.643ZM267.306 204.808V206.308H269.656V204.808H270.864V209.755H266.097V204.808H267.306ZM267.261 213.783V210.627H268.469V212.799H274.065V213.783H267.261ZM267.306 208.792H269.656V207.248H267.306V208.792ZM272.61 211.366V204.114H273.819V211.366H272.61Z" fill="#2A2929"/>
<path d="M229.448 230.197H228.59V227.67H226.426V226.959H228.59V225.174H229.448V230.197ZM224.296 227.852C224.088 228.406 223.771 228.887 223.346 229.297C222.923 229.707 222.425 230.014 221.85 230.221L221.386 229.533C221.871 229.37 222.3 229.133 222.673 228.822C223.047 228.51 223.337 228.145 223.543 227.728C223.751 227.311 223.857 226.869 223.86 226.403V225.483H224.702V226.403C224.7 226.82 224.8 227.223 225.004 227.612C225.21 227.999 225.496 228.34 225.861 228.636C226.23 228.93 226.65 229.154 227.121 229.309L226.658 229.981C226.119 229.788 225.644 229.507 225.232 229.139C224.822 228.77 224.51 228.341 224.296 227.852ZM224.014 233.003V234.062H229.811V234.757H223.172V232.346H228.597V231.38H223.149V230.692H229.448V233.003H224.014ZM237.895 230.514V225.181H238.753V230.514H237.895ZM236.79 229.996C236.025 230.12 235.288 230.203 234.58 230.244C233.874 230.285 233.024 230.308 232.029 230.313H231.241V227.593H234.811V226.356H231.218V225.653H235.662V228.273H232.075V229.595C233.049 229.589 233.878 229.568 234.56 229.529C235.246 229.488 235.953 229.406 236.682 229.285L236.79 229.996ZM233.297 232.161H237.903V231.001H238.753V234.757H232.431V231.001H233.297V232.161ZM233.297 234.054H237.903V232.848H233.297V234.054ZM247.232 225.174H248.09V230.159H247.232V225.174ZM245.338 227.686C245.336 228.103 245.226 228.474 245.01 228.798C244.793 229.123 244.493 229.376 244.109 229.556C243.728 229.736 243.298 229.826 242.819 229.826C242.334 229.826 241.9 229.736 241.516 229.556C241.132 229.376 240.832 229.123 240.616 228.798C240.399 228.474 240.291 228.103 240.291 227.686C240.291 227.268 240.399 226.897 240.616 226.573C240.832 226.245 241.132 225.99 241.516 225.807C241.9 225.625 242.334 225.532 242.819 225.529C243.298 225.532 243.728 225.625 244.109 225.807C244.493 225.99 244.793 226.245 245.01 226.573C245.226 226.897 245.336 227.268 245.338 227.686ZM241.134 227.686C241.131 227.964 241.202 228.212 241.346 228.431C241.493 228.65 241.694 228.82 241.949 228.941C242.207 229.063 242.497 229.123 242.819 229.123C243.138 229.123 243.425 229.063 243.68 228.941C243.938 228.82 244.139 228.65 244.283 228.431C244.43 228.212 244.504 227.964 244.504 227.686C244.504 227.41 244.43 227.163 244.283 226.944C244.139 226.725 243.938 226.555 243.68 226.433C243.425 226.312 243.138 226.253 242.819 226.256C242.497 226.253 242.207 226.312 241.949 226.433C241.694 226.555 241.493 226.725 241.346 226.944C241.202 227.163 241.131 227.41 241.134 227.686ZM242.633 232.972V234.062H248.437V234.757H241.798V232.323H247.24V231.326H241.768V230.63H248.09V232.972H242.633Z" fill="#777777"/>
<path d="M256.267 234L256.245 232.97L259.043 230.284C259.848 229.479 260.263 229.009 260.274 228.337C260.263 227.599 259.681 227.14 258.908 227.128C258.091 227.14 257.565 227.643 257.565 228.449H256.222C256.211 226.949 257.342 225.976 258.931 225.987C260.531 225.976 261.628 226.938 261.639 228.27C261.628 229.165 261.191 229.893 259.647 231.359L258.237 232.747V232.814H261.751V234H256.267ZM265.574 234.112C263.66 234.112 262.529 232.635 262.529 230.038C262.529 227.464 263.671 225.976 265.574 225.987C267.465 225.976 268.606 227.464 268.618 230.038C268.606 232.635 267.465 234.112 265.574 234.112ZM263.962 230.038C263.962 231.941 264.577 232.914 265.574 232.903C266.558 232.914 267.174 231.941 267.163 230.038C267.174 228.158 266.558 227.162 265.574 227.151C264.577 227.162 263.962 228.158 263.962 230.038ZM272.374 234.112C270.461 234.112 269.33 232.635 269.33 230.038C269.33 227.464 270.472 225.976 272.374 225.987C274.266 225.976 275.407 227.464 275.419 230.038C275.407 232.635 274.266 234.112 272.374 234.112ZM270.763 230.038C270.763 231.941 271.378 232.914 272.374 232.903C273.359 232.914 273.975 231.941 273.964 230.038C273.975 228.158 273.359 227.162 272.374 227.151C271.378 227.162 270.763 228.158 270.763 230.038ZM279.22 234.112C277.665 234.101 276.12 233.183 276.131 230.262C276.131 227.554 277.362 225.976 279.31 225.987C280.821 225.976 281.873 226.938 282.04 228.225H280.653C280.496 227.61 280.015 227.207 279.31 227.218C278.146 227.207 277.508 228.225 277.519 229.904H277.586C277.989 229.21 278.75 228.807 279.623 228.807C281.033 228.807 282.13 229.882 282.13 231.381C282.13 232.948 280.966 234.123 279.22 234.112ZM277.676 231.426C277.665 232.243 278.314 232.959 279.22 232.948C280.093 232.959 280.753 232.277 280.742 231.404C280.753 230.564 280.115 229.893 279.22 229.882C278.347 229.893 277.676 230.598 277.676 231.426ZM286.604 229.479V230.62H283.045V229.479H286.604ZM290.57 234.112C288.656 234.112 287.526 232.635 287.526 230.038C287.526 227.464 288.667 225.976 290.57 225.987C292.461 225.976 293.602 227.464 293.614 230.038C293.602 232.635 292.461 234.112 290.57 234.112ZM288.958 230.038C288.958 231.941 289.574 232.914 290.57 232.903C291.554 232.914 292.17 231.941 292.159 230.038C292.17 228.158 291.554 227.162 290.57 227.151C289.574 227.162 288.958 228.158 288.958 230.038ZM294.461 234L294.438 232.97L297.236 230.284C298.042 229.479 298.456 229.009 298.467 228.337C298.456 227.599 297.874 227.14 297.102 227.128C296.285 227.14 295.759 227.643 295.759 228.449H294.416C294.405 226.949 295.535 225.976 297.124 225.987C298.725 225.976 299.821 226.938 299.833 228.27C299.821 229.165 299.385 229.893 297.841 231.359L296.43 232.747V232.814H299.945V234H294.461ZM304.439 229.479V230.62H300.88V229.479H304.439ZM305.21 234L305.188 232.97L307.986 230.284C308.791 229.479 309.206 229.009 309.217 228.337C309.206 227.599 308.624 227.14 307.851 227.128C307.034 227.14 306.508 227.643 306.508 228.449H305.165C305.154 226.949 306.285 225.976 307.874 225.987C309.474 225.976 310.571 226.938 310.582 228.27C310.571 229.165 310.134 229.893 308.59 231.359L307.18 232.747V232.814H310.694V234H305.21ZM314.472 234.112C312.782 234.112 311.573 233.194 311.54 231.851H312.972C313.006 232.489 313.644 232.914 314.472 232.903C315.334 232.914 315.96 232.433 315.971 231.739C315.96 231.012 315.356 230.508 314.315 230.508H313.621V229.412H314.315C315.166 229.412 315.748 228.941 315.748 228.248C315.748 227.587 315.244 227.14 314.472 227.128C313.733 227.14 313.095 227.554 313.062 228.225H311.696C311.73 226.893 312.939 225.976 314.494 225.987C316.095 225.976 317.135 226.961 317.113 228.18C317.135 229.065 316.542 229.703 315.68 229.882V229.949C316.8 230.094 317.426 230.81 317.426 231.806C317.426 233.138 316.173 234.112 314.472 234.112Z" fill="#2A2929"/>
<rect x="90" y="146" width="100" height="117" rx="8" fill="#EDF7FF"/>
<g clip-path="url(#clip1_272_2090)">
<path d="M134.588 199H127.111L127.237 199.499V209.51L127.111 210.009H130.388V201.454H133.889C134.586 201.505 134.939 201.805 134.939 202.506V203.327C134.939 203.349 134.939 203.371 134.939 203.391C134.917 204.045 134.566 204.331 133.891 204.379H133.104H130.735L134.856 210.009H138.27L135.823 206.713C136.083 206.658 136.343 206.592 136.575 206.491C137.025 206.292 137.37 205.991 137.604 205.589C137.9 205.102 138.061 204.436 138.089 203.592C138.089 203.575 138.089 203.557 138.089 203.539C138.089 203.519 138.089 203.497 138.089 203.477C138.089 203.428 138.089 203.38 138.089 203.329V202.508C138.089 201.282 137.809 200.394 137.248 199.844C136.702 199.281 135.816 199 134.588 199Z" fill="#5766FF"/>
<path d="M115 199L115.126 199.499V209.51L115 210.009H118.277V205.733H122.653V209.51L122.527 210.009H125.804V209.51V199.499V199H122.527L122.653 199.497V203.279H118.277V199H115Z" fill="#5766FF"/>
<path d="M150.475 199H153.759L152.094 206.557C151.826 207.765 151.359 208.644 150.685 209.194C150.025 209.733 149.094 210.005 147.889 210.005H143.925C142.72 210.005 141.902 209.735 141.47 209.194C141.053 208.642 140.975 207.763 141.242 206.557L142.799 199.502L142.723 199H146.008L144.341 206.557C144.189 207.245 144.458 207.591 145.147 207.591H147.731C148.42 207.591 148.841 207.245 148.993 206.557L150.549 199.502L150.475 199Z" fill="#0C0C0C"/>
<path d="M122.653 203.277H118.458V205.73H122.653V203.277Z" fill="url(#paint0_linear_272_2090)"/>
<path d="M136.566 206.491C137.016 206.292 137.36 205.991 137.594 205.589C137.89 205.102 138.052 204.436 138.08 203.592C138.08 203.575 138.08 203.557 138.08 203.539C138.08 203.519 138.08 203.497 138.08 203.477C138.08 203.428 138.08 203.38 138.08 203.329V202.508C138.08 201.282 137.8 200.394 137.239 199.844C136.696 199.281 135.809 199 134.584 199L133.884 201.454C134.582 201.505 134.935 201.805 134.935 202.506V203.327C134.935 203.349 134.935 203.371 134.935 203.391C134.915 203.981 134.628 204.268 134.074 204.357L135.82 206.712C136.078 206.658 136.336 206.589 136.568 206.489L136.566 206.491Z" fill="url(#paint1_linear_272_2090)"/>
<path d="M158.343 201.454H164.171L162.34 199H158.322C157.097 199 156.141 199.281 155.456 199.842C154.879 200.315 154.45 201.041 154.168 202.022C154.124 202.179 154.036 202.592 154.013 202.711C153.861 203.689 153.971 204.416 154.34 204.891C154.777 205.452 155.607 205.733 156.834 205.733H159.917C160.422 205.733 160.738 206.139 160.628 206.644C160.517 207.15 160.021 207.556 159.515 207.556H153.184L153.076 208.051L152.756 209.507L152.645 210.012H159.542C160.767 210.012 161.723 209.731 162.406 209.17C162.887 208.774 163.267 208.205 163.54 207.463C163.726 206.957 163.849 206.407 163.894 205.905C163.962 205.124 163.836 204.529 163.518 204.123C163.082 203.562 162.252 203.281 161.027 203.281H157.944C157.438 203.281 157.123 202.874 157.234 202.369C157.343 201.863 157.84 201.457 158.345 201.457L158.343 201.454Z" fill="#0C0C0C"/>
<path d="M165.087 201.454L165.63 199H163.256L165.087 201.454Z" fill="#5766FF"/>
</g>
<rect x="90.5" y="279.5" width="519" height="31" rx="5.5" stroke="#EEEEEE"/>
<rect x="94" y="283" width="58" height="24" rx="5" fill="#00AFAE"/>
<path d="M111.224 300.45V290.749H112.429V300.45H111.224ZM109.534 291.778C109.532 292.788 109.385 293.718 109.094 294.566C108.805 295.412 108.326 296.188 107.658 296.894C106.992 297.601 106.111 298.215 105.014 298.737L104.387 297.779C105.228 297.379 105.926 296.93 106.48 296.431C107.037 295.93 107.465 295.374 107.764 294.763C108.063 294.151 108.248 293.471 108.319 292.724H104.881V291.778H109.534ZM118.514 295.048V295.941H122.346V296.906H113.5V295.941H117.317V295.048H114.643V291.109H115.824V292.169H120.018V291.109H121.207V295.048H118.514ZM120.018 293.092H115.824V294.095H120.018V293.092ZM114.59 297.532H115.79V299.299H121.347V300.267H114.59V297.532ZM127.956 294.144V293.168H129.616V290.749H130.809V296.518H129.616V294.144H127.956ZM125.658 294.213C125.44 294.742 125.129 295.204 124.724 295.599C124.319 295.994 123.834 296.29 123.269 296.488L122.646 295.542C123.15 295.37 123.581 295.122 123.938 294.798C124.297 294.471 124.568 294.101 124.75 293.689C124.935 293.276 125.028 292.852 125.028 292.416V292.344H123.003V291.379H128.252V292.344H126.243V292.405C126.243 292.807 126.331 293.199 126.505 293.578C126.68 293.956 126.938 294.295 127.28 294.596C127.625 294.895 128.04 295.126 128.526 295.288L127.93 296.233C127.403 296.056 126.947 295.793 126.562 295.443C126.177 295.094 125.876 294.684 125.658 294.213ZM127.523 296.758C128.207 296.758 128.797 296.831 129.293 296.978C129.79 297.125 130.171 297.337 130.437 297.616C130.702 297.892 130.835 298.222 130.835 298.607C130.835 298.992 130.702 299.323 130.437 299.599C130.171 299.877 129.79 300.09 129.293 300.237C128.797 300.384 128.207 300.457 127.523 300.457C126.842 300.457 126.253 300.384 125.757 300.237C125.261 300.09 124.88 299.877 124.614 299.599C124.35 299.323 124.219 298.992 124.219 298.607C124.219 298.222 124.35 297.892 124.614 297.616C124.88 297.337 125.261 297.125 125.757 296.978C126.253 296.831 126.842 296.758 127.523 296.758ZM127.523 299.53C128.202 299.535 128.725 299.458 129.092 299.299C129.462 299.139 129.648 298.909 129.65 298.607C129.648 298.306 129.463 298.076 129.096 297.916C128.729 297.757 128.204 297.677 127.523 297.677C126.842 297.677 126.318 297.757 125.951 297.916C125.586 298.076 125.405 298.306 125.408 298.607C125.405 298.909 125.587 299.139 125.955 299.299C126.322 299.458 126.845 299.535 127.523 299.53ZM136.863 296.416V298.307H140.73V299.283H131.853V298.307H135.678V296.416H132.83V291.391H134.026V292.978H138.523V291.391H139.712V296.416H136.863ZM138.523 293.935H134.026V295.455H138.523V293.935Z" fill="white"/>
<path d="M174.404 290.744V300.446H173.216V290.744H174.404ZM166.374 297.762C167.144 297.762 168.013 297.751 168.926 297.729V296.838C167.837 296.662 167.122 296.002 167.122 295.078C167.122 293.978 168.101 293.252 169.52 293.252C170.939 293.252 171.929 293.978 171.918 295.078C171.929 296.002 171.203 296.662 170.114 296.838V297.685C170.972 297.652 171.83 297.586 172.644 297.476L172.732 298.356C170.598 298.719 168.288 298.741 166.528 298.752L166.374 297.762ZM166.572 292.812V291.866H168.926V290.788H170.136V291.866H172.468V292.812H166.572ZM168.266 295.078C168.255 295.628 168.783 295.958 169.52 295.958C170.268 295.958 170.785 295.628 170.796 295.078C170.785 294.506 170.268 294.165 169.52 294.176C168.783 294.165 168.255 294.506 168.266 295.078ZM178.961 293.076C178.961 294.814 179.83 296.563 181.337 297.3L180.611 298.246C179.544 297.718 178.796 296.684 178.378 295.441C177.949 296.772 177.157 297.861 176.057 298.422L175.309 297.454C176.882 296.728 177.773 294.869 177.773 293.076V291.536H178.961V293.076ZM181.909 300.446V290.744H183.097V294.55H184.593V295.562H183.097V300.446H181.909ZM188.358 292.438C188.358 293.637 189.183 294.825 190.734 295.298L190.118 296.222C189.018 295.881 188.215 295.144 187.775 294.22C187.346 295.232 186.521 296.024 185.366 296.42L184.75 295.496C186.312 294.968 187.148 293.703 187.148 292.438V292.306H185.058V291.36H190.404V292.306H188.358V292.438ZM186.136 298.026V297.058H192.758V300.446H191.57V298.026H186.136ZM191.57 296.596V290.744H192.758V296.596H191.57ZM201.935 290.766V297.762H200.747V290.766H201.935ZM194.037 293.824C194.026 292.405 195.17 291.393 196.655 291.404C198.118 291.393 199.262 292.405 199.251 293.824C199.262 295.254 198.118 296.255 196.655 296.244C195.17 296.255 194.026 295.254 194.037 293.824ZM195.203 293.824C195.192 294.682 195.819 295.21 196.655 295.21C197.458 295.21 198.085 294.682 198.085 293.824C198.085 292.977 197.458 292.438 196.655 292.438C195.819 292.438 195.192 292.977 195.203 293.824ZM195.511 300.27V297.058H196.721V299.302H202.199V300.27H195.511Z" fill="#575757" fill-opacity="0.68"/>
<path d="M236.69 291.756V292.702H228.77V291.756H232.158V290.722H233.324V291.756H236.69ZM228.33 297.916V296.948H237.196V297.916H235.04V300.468H233.852V297.916H231.674V300.468H230.464V297.916H228.33ZM229.452 294.792C229.452 293.725 230.684 293.142 232.752 293.142C234.787 293.142 236.03 293.725 236.03 294.792C236.03 295.837 234.787 296.431 232.752 296.42C230.684 296.431 229.452 295.837 229.452 294.792ZM230.706 294.792C230.684 295.265 231.399 295.518 232.752 295.518C234.072 295.518 234.787 295.265 234.798 294.792C234.787 294.286 234.072 294.044 232.752 294.044C231.399 294.044 230.684 294.286 230.706 294.792ZM240.257 291.052C241.72 291.063 242.82 291.965 242.831 293.252C242.82 294.539 241.72 295.441 240.257 295.43C238.772 295.441 237.672 294.539 237.683 293.252C237.672 291.965 238.772 291.063 240.257 291.052ZM238.827 293.252C238.827 294 239.432 294.473 240.257 294.462C241.06 294.473 241.665 294 241.665 293.252C241.665 292.515 241.06 292.042 240.257 292.042C239.432 292.042 238.827 292.515 238.827 293.252ZM239.135 297.014V296.068H245.581V298.62H240.323V299.39H245.867V300.336H239.157V297.74H244.393V297.014H239.135ZM244.393 295.65V290.744H245.581V295.65H244.393Z" fill="#575757" fill-opacity="0.68"/>
<path d="M280.174 295.628V296.596H271.33V295.628H275.136V294.704H272.474V290.986H273.64V291.954H277.842V290.986H279.03V294.704H276.346V295.628H280.174ZM272.298 298.312V297.366H279.096V300.446H277.886V298.312H272.298ZM273.64 293.736H277.842V292.834H273.64V293.736ZM284.159 293.494C284.159 295.1 285.094 296.772 286.667 297.432L286.007 298.378C284.863 297.872 284.016 296.849 283.576 295.617C283.136 296.948 282.278 298.081 281.145 298.62L280.463 297.674C281.992 296.97 282.949 295.155 282.949 293.494V292.68H280.815V291.712H286.293V292.68H284.159V293.494ZM287.371 300.446V290.744H288.581V300.446H287.371Z" fill="#575757" fill-opacity="0.68"/>
<rect x="90" y="331" width="520" height="203" rx="8" fill="#F5F6FB"/>
<path d="M193.66 352.04V360.86H192.56V352.04H193.66ZM186.36 358.44C188.66 357.34 189.73 355.85 189.93 353.84H186.8V352.98H191.04C191.03 355.61 190.01 357.84 186.92 359.3L186.36 358.44ZM197.083 352.44C198.233 352.43 199.133 353.09 199.353 354.06H200.943V352.04H202.023V356.78H200.943V354.92H199.363C199.153 355.92 198.243 356.59 197.083 356.6C195.733 356.59 194.753 355.72 194.763 354.5C194.753 353.3 195.733 352.43 197.083 352.44ZM195.783 354.5C195.793 355.21 196.323 355.68 197.083 355.68C197.833 355.68 198.363 355.21 198.363 354.5C198.363 353.79 197.833 353.33 197.083 353.34C196.323 353.33 195.793 353.79 195.783 354.5ZM196.203 360.76V357.18H197.283V358.12H200.943V357.18H202.023V360.76H196.203ZM197.283 359.88H200.943V358.96H197.283V359.88ZM210.365 352.04V357.24H209.285V356.02H207.505V356.7H203.365V352.7H207.505V353.38H209.285V352.04H210.365ZM204.385 359.16C204.375 358.09 205.525 357.47 207.385 357.46C209.255 357.47 210.395 358.09 210.405 359.16C210.395 360.25 209.255 360.86 207.385 360.86C205.525 360.86 204.375 360.25 204.385 359.16ZM204.445 355.82H206.445V353.56H204.445V355.82ZM205.465 359.16C205.455 359.72 206.155 360.02 207.385 360.02C208.615 360.02 209.315 359.72 209.325 359.16C209.315 358.6 208.615 358.3 207.385 358.3C206.155 358.3 205.455 358.6 205.465 359.16ZM207.505 355.14H209.285V354.24H207.505V355.14Z" fill="#999999"/>
<rect x="186.5" y="371.5" width="121" height="27" rx="3.5" fill="white"/>
<rect x="186.5" y="371.5" width="121" height="27" rx="3.5" stroke="#DDDDDD"/>
<path d="M198.03 386.277C198.018 384.341 198.533 382.74 199.552 381.353H200.85C200.078 382.382 199.462 384.441 199.462 386.277C199.462 388.101 200.078 390.16 200.85 391.179H199.552C198.533 389.802 198.018 388.202 198.03 386.277ZM210.184 386.098V387.083H206.267V390.462H205.058V387.083H201.186V386.098H210.184ZM201.656 384.486C203.581 384.24 204.879 383.21 204.98 382.114H202.014V381.151H209.356V382.114H206.39C206.479 383.21 207.766 384.24 209.714 384.486L209.266 385.449C207.587 385.203 206.278 384.43 205.685 383.356C205.08 384.43 203.771 385.203 202.104 385.449L201.656 384.486ZM213.343 386.255C213.354 388.191 212.839 389.791 211.821 391.179H210.522C211.295 390.149 211.91 388.09 211.91 386.255C211.91 384.43 211.295 382.371 210.522 381.353H211.821C212.839 382.729 213.354 384.33 213.343 386.255ZM223.393 386.143V387.127H221.177V390.462H219.946V387.127H217.752V390.462H216.521V387.127H214.35V386.143H223.393ZM215.29 383.143C215.301 381.812 216.745 380.95 218.849 380.95C220.953 380.95 222.408 381.812 222.408 383.143C222.408 384.475 220.953 385.314 218.849 385.314C216.745 385.314 215.301 384.475 215.29 383.143ZM216.544 383.143C216.544 383.904 217.45 384.352 218.849 384.352C220.248 384.352 221.154 383.904 221.154 383.143C221.154 382.382 220.248 381.923 218.849 381.935C217.45 381.923 216.544 382.382 216.544 383.143ZM227.424 382.964C227.424 384.777 228.387 386.59 229.976 387.284L229.26 388.247C228.13 387.721 227.29 386.68 226.831 385.393C226.384 386.78 225.533 387.922 224.336 388.493L223.597 387.463C225.242 386.758 226.205 384.867 226.216 382.964V381.397H227.424V382.964ZM230.692 390.485V380.592H231.923V390.485H230.692ZM238.149 381.957C238.137 383.479 239.637 385.012 241.708 385.359L241.148 386.389C239.492 386.042 238.149 385.035 237.511 383.714C236.85 385.023 235.496 386.031 233.851 386.389L233.314 385.359C235.351 385.001 236.839 383.468 236.85 381.957V381.218H238.149V381.957ZM233.045 389.209V388.202H242.066V389.209H233.045Z" fill="#2A2929"/>
<path d="M193.88 416.04V424.86H192.86V420.38H191.86V424.42H190.86V416.22H191.86V419.5H192.86V416.04H193.88ZM186.56 422.8V417.08H189.86V417.96H187.66V421.89C188.62 421.88 189.41 421.83 190.3 421.66L190.38 422.56C189.32 422.77 188.39 422.8 187.16 422.8H186.56ZM202.703 422.98V423.86H194.643V422.98H196.723V421.16H195.323V420.28H196.583V417.66H195.303V416.78H202.003V417.66H200.703V420.28H201.963V421.16H200.583V422.98H202.703ZM197.663 420.28H199.643V417.66H197.663V420.28ZM197.803 422.98H199.483V421.16H197.803V422.98Z" fill="#999999"/>
<rect x="186.5" y="435.5" width="160" height="27" rx="3.5" fill="white"/>
<rect x="186.5" y="435.5" width="160" height="27" rx="3.5" stroke="#DDDDDD"/>
<path d="M197.739 453.5V445.577H199.149V448.934H202.842V445.577H204.274V453.5H202.842V450.143H199.149V453.5H197.739ZM205.414 453.5V445.577H208.368C210.193 445.588 211.166 446.606 211.166 448.106C211.166 449.191 210.674 449.997 209.734 450.366L211.457 453.5H209.868L208.301 450.59H206.824V453.5H205.414ZM206.824 449.426H208.167C209.23 449.415 209.711 448.956 209.711 448.106C209.711 447.278 209.23 446.774 208.167 446.785H206.824V449.426ZM214.904 453.612C212.991 453.612 211.86 452.135 211.86 449.538C211.86 446.964 213.002 445.476 214.904 445.487C216.796 445.476 217.937 446.964 217.949 449.538C217.937 452.135 216.796 453.612 214.904 453.612ZM213.293 449.538C213.293 451.441 213.908 452.414 214.904 452.403C215.889 452.414 216.505 451.441 216.494 449.538C216.505 447.658 215.889 446.662 214.904 446.651C213.908 446.662 213.293 447.658 213.293 449.538ZM221.705 453.612C219.792 453.612 218.661 452.135 218.661 449.538C218.661 446.964 219.803 445.476 221.705 445.487C223.597 445.476 224.738 446.964 224.749 449.538C224.738 452.135 223.597 453.612 221.705 453.612ZM220.094 449.538C220.094 451.441 220.709 452.414 221.705 452.403C222.69 452.414 223.306 451.441 223.295 449.538C223.306 447.658 222.69 446.662 221.705 446.651C220.709 446.662 220.094 447.658 220.094 449.538ZM228.506 453.612C226.593 453.612 225.462 452.135 225.462 449.538C225.462 446.964 226.604 445.476 228.506 445.487C230.398 445.476 231.539 446.964 231.55 449.538C231.539 452.135 230.398 453.612 228.506 453.612ZM226.895 449.538C226.895 451.441 227.51 452.414 228.506 452.403C229.491 452.414 230.107 451.441 230.096 449.538C230.107 447.658 229.491 446.662 228.506 446.651C227.51 446.662 226.895 447.658 226.895 449.538ZM232.398 453.5L232.375 452.47L235.173 449.784C235.979 448.979 236.393 448.509 236.404 447.837C236.393 447.099 235.811 446.64 235.039 446.628C234.222 446.64 233.696 447.143 233.696 447.949H232.353C232.342 446.449 233.472 445.476 235.061 445.487C236.661 445.476 237.758 446.438 237.769 447.77C237.758 448.665 237.322 449.393 235.777 450.859L234.367 452.247V452.314H237.881V453.5H232.398ZM244.662 449.896V451.486C245.523 451.441 246.396 451.362 247.213 451.239L247.303 452.135C245.087 452.549 242.725 452.56 240.968 452.56L240.834 451.575C241.595 451.575 242.502 451.564 243.453 451.53V449.896H244.662ZM241.058 449.27C242.546 448.878 243.363 447.893 243.43 446.785H241.349V445.8H243.453V444.681H244.662V445.8H246.81V446.785H244.684C244.751 447.837 245.602 448.8 247.079 449.18L246.519 450.12C245.355 449.807 244.516 449.124 244.068 448.24C243.643 449.169 242.815 449.885 241.64 450.21L241.058 449.27ZM247.795 454.485V444.592H249.004V454.485H247.795ZM259.146 450.143V451.127H256.93V454.462H255.699V451.127H253.506V454.462H252.275V451.127H250.103V450.143H259.146ZM251.043 447.143C251.055 445.812 252.498 444.95 254.602 444.95C256.706 444.95 258.161 445.812 258.161 447.143C258.161 448.475 256.706 449.314 254.602 449.314C252.498 449.314 251.055 448.475 251.043 447.143ZM252.297 447.143C252.297 447.904 253.203 448.352 254.602 448.352C256.001 448.352 256.908 447.904 256.908 447.143C256.908 446.382 256.001 445.923 254.602 445.935C253.203 445.923 252.297 446.382 252.297 447.143ZM261.163 445.308V446.808H263.514V445.308H264.722V450.255H259.955V445.308H261.163ZM261.119 454.283V451.127H262.327V453.299H267.923V454.283H261.119ZM261.163 449.292H263.514V447.748H261.163V449.292ZM266.468 451.866V444.614H267.677V451.866H266.468Z" fill="#2A2929"/>
<path d="M329.68 352.04V356.56H328.6V354.34H326.84V353.46H328.6V352.04H329.68ZM322.24 355.74C323.66 355.31 324.4 354.23 324.4 353.04V352.34H325.5V353.04C325.49 354.12 326.2 355.16 327.58 355.58L327 356.42C326.04 356.1 325.35 355.47 324.96 354.67C324.58 355.57 323.86 356.26 322.82 356.6L322.24 355.74ZM323.88 360.76V358.42H328.6V357.8H323.88V356.94H329.68V359.22H324.96V359.9H329.96V360.76H323.88ZM337.983 352.06V356.94H336.903V352.06H337.983ZM331.083 353.32V352.46H335.163V355H332.163V355.88C333.673 355.88 334.753 355.85 336.023 355.64L336.163 356.52C334.763 356.74 333.563 356.78 331.863 356.78H331.103V354.16H334.083V353.32H331.083ZM332.143 360.76V357.34H333.223V358.2H336.903V357.34H337.983V360.76H332.143ZM333.223 359.88H336.903V359.04H333.223V359.88ZM341.485 352.32C342.815 352.33 343.815 353.15 343.825 354.32C343.815 355.49 342.815 356.31 341.485 356.3C340.135 356.31 339.135 355.49 339.145 354.32C339.135 353.15 340.135 352.33 341.485 352.32ZM340.185 354.32C340.185 355 340.735 355.43 341.485 355.42C342.215 355.43 342.765 355 342.765 354.32C342.765 353.65 342.215 353.22 341.485 353.22C340.735 353.22 340.185 353.65 340.185 354.32ZM340.465 357.74V356.88H346.325V359.2H341.545V359.9H346.585V360.76H340.485V358.4H345.245V357.74H340.465ZM345.245 356.5V352.04H346.325V356.5H345.245Z" fill="#999999"/>
<rect x="322.5" y="371.5" width="121" height="27" rx="3.5" fill="white"/>
<rect x="322.5" y="371.5" width="121" height="27" rx="3.5" stroke="#DDDDDD"/>
<path d="M333.671 389.5L333.649 388.47L336.447 385.784C337.253 384.979 337.667 384.509 337.678 383.837C337.667 383.099 337.085 382.64 336.313 382.628C335.496 382.64 334.97 383.143 334.97 383.949H333.627C333.616 382.449 334.746 381.476 336.335 381.487C337.935 381.476 339.032 382.438 339.043 383.77C339.032 384.665 338.596 385.393 337.051 386.859L335.641 388.247V388.314H339.155V389.5H333.671ZM342.978 389.612C341.064 389.612 339.934 388.135 339.934 385.538C339.934 382.964 341.075 381.476 342.978 381.487C344.869 381.476 346.011 382.964 346.022 385.538C346.011 388.135 344.869 389.612 342.978 389.612ZM341.366 385.538C341.366 387.441 341.982 388.414 342.978 388.403C343.963 388.414 344.578 387.441 344.567 385.538C344.578 383.658 343.963 382.662 342.978 382.651C341.982 382.662 341.366 383.658 341.366 385.538ZM349.779 389.612C347.865 389.612 346.735 388.135 346.735 385.538C346.735 382.964 347.876 381.476 349.779 381.487C351.67 381.476 352.812 382.964 352.823 385.538C352.812 388.135 351.67 389.612 349.779 389.612ZM348.167 385.538C348.167 387.441 348.783 388.414 349.779 388.403C350.764 388.414 351.379 387.441 351.368 385.538C351.379 383.658 350.764 382.662 349.779 382.651C348.783 382.662 348.167 383.658 348.167 385.538ZM356.624 389.612C355.069 389.601 353.524 388.683 353.536 385.762C353.536 383.054 354.767 381.476 356.714 381.487C358.225 381.476 359.277 382.438 359.445 383.725H358.057C357.9 383.11 357.419 382.707 356.714 382.718C355.55 382.707 354.912 383.725 354.923 385.404H354.991C355.393 384.71 356.154 384.307 357.027 384.307C358.437 384.307 359.534 385.382 359.534 386.881C359.534 388.448 358.37 389.623 356.624 389.612ZM355.08 386.926C355.069 387.743 355.718 388.459 356.624 388.448C357.497 388.459 358.158 387.777 358.146 386.904C358.158 386.064 357.52 385.393 356.624 385.382C355.752 385.393 355.08 386.098 355.08 386.926ZM364.008 384.979V386.12H360.45V384.979H364.008ZM367.974 389.612C366.06 389.612 364.93 388.135 364.93 385.538C364.93 382.964 366.071 381.476 367.974 381.487C369.865 381.476 371.007 382.964 371.018 385.538C371.007 388.135 369.865 389.612 367.974 389.612ZM366.362 385.538C366.362 387.441 366.978 388.414 367.974 388.403C368.959 388.414 369.574 387.441 369.563 385.538C369.574 383.658 368.959 382.662 367.974 382.651C366.978 382.662 366.362 383.658 366.362 385.538ZM371.865 389.5L371.843 388.47L374.641 385.784C375.446 384.979 375.86 384.509 375.872 383.837C375.86 383.099 375.278 382.64 374.506 382.628C373.689 382.64 373.163 383.143 373.163 383.949H371.82C371.809 382.449 372.939 381.476 374.529 381.487C376.129 381.476 377.226 382.438 377.237 383.77C377.226 384.665 376.789 385.393 375.245 386.859L373.835 388.247V388.314H377.349V389.5H371.865ZM381.843 384.979V386.12H378.284V384.979H381.843ZM382.615 389.5L382.592 388.47L385.39 385.784C386.196 384.979 386.61 384.509 386.621 383.837C386.61 383.099 386.028 382.64 385.256 382.628C384.439 382.64 383.913 383.143 383.913 383.949H382.57C382.559 382.449 383.689 381.476 385.278 381.487C386.878 381.476 387.975 382.438 387.986 383.77C387.975 384.665 387.539 385.393 385.994 386.859L384.584 388.247V388.314H388.098V389.5H382.615ZM391.876 389.612C390.186 389.612 388.978 388.694 388.944 387.351H390.376C390.41 387.989 391.048 388.414 391.876 388.403C392.738 388.414 393.365 387.933 393.376 387.239C393.365 386.512 392.76 386.008 391.719 386.008H391.026V384.912H391.719C392.57 384.912 393.152 384.441 393.152 383.748C393.152 383.087 392.648 382.64 391.876 382.628C391.137 382.64 390.5 383.054 390.466 383.725H389.101C389.134 382.393 390.343 381.476 391.898 381.487C393.499 381.476 394.54 382.461 394.517 383.68C394.54 384.565 393.946 385.203 393.085 385.382V385.449C394.204 385.594 394.831 386.31 394.831 387.306C394.831 388.638 393.577 389.612 391.876 389.612Z" fill="#2A2929"/>
<g clip-path="url(#clip2_272_2090)">
<path d="M432.552 391H425.448C424.146 391 423.086 389.94 423.086 388.638V382.164C423.086 380.862 424.146 379.802 425.448 379.802H432.553C433.855 379.802 434.914 380.862 434.914 382.164V388.638C434.914 389.94 433.855 391 432.552 391ZM425.448 380.746C424.666 380.746 424.03 381.382 424.03 382.164V388.638C424.03 389.42 424.666 390.055 425.448 390.055H432.553C433.334 390.055 433.97 389.42 433.97 388.638V382.164C433.97 381.382 433.334 380.746 432.553 380.746H425.448Z" fill="#222222"/>
<path d="M434.442 384.324H423.558C423.297 384.324 423.085 384.113 423.085 383.852V382.164C423.085 380.862 424.145 379.802 425.447 379.802H432.552C433.854 379.802 434.914 380.862 434.914 382.164V383.852C434.914 384.112 434.703 384.324 434.442 384.324ZM424.03 383.379H433.969V382.164C433.969 381.382 433.333 380.746 432.552 380.746H425.448C424.666 380.746 424.03 381.382 424.03 382.164V383.379Z" fill="#222222"/>
<path d="M425.884 381.603C425.623 381.603 425.411 381.391 425.411 381.13V379.473C425.411 379.212 425.623 379 425.884 379C426.145 379 426.356 379.212 426.356 379.473V381.13C426.356 381.391 426.145 381.603 425.884 381.603Z" fill="#222222"/>
<path d="M432.115 381.603C431.854 381.603 431.643 381.391 431.643 381.13V379.473C431.643 379.212 431.854 379 432.115 379C432.377 379 432.588 379.212 432.588 379.473V381.13C432.588 381.391 432.377 381.603 432.115 381.603Z" fill="#222222"/>
</g>
<g clip-path="url(#clip3_272_2090)">
<mask id="mask0_272_2090" style="mask-type:luminance" maskUnits="userSpaceOnUse" x="109" y="352" width="10" height="10">
<path d="M119 352H109V362H119V352Z" fill="white"/>
</mask>
<g mask="url(#mask0_272_2090)">
<path d="M117.463 352.014H110.537C109.688 352.014 109 352.701 109 353.548V360.465C109 361.313 109.688 362 110.537 362H117.463C118.312 362 119 361.313 119 360.465V353.548C119 352.701 118.312 352.014 117.463 352.014Z" fill="white"/>
<path d="M116.575 357.044H111.428C111.215 357.044 111.043 356.873 111.043 356.66C111.043 356.448 111.215 356.276 111.428 356.276H116.575C116.787 356.276 116.96 356.448 116.96 356.66C116.96 356.873 116.787 357.044 116.575 357.044Z" fill="#DDDDDD"/>
<path d="M116.575 358.551H111.428C111.215 358.551 111.043 358.379 111.043 358.167C111.043 357.955 111.215 357.783 111.428 357.783H116.575C116.787 357.783 116.96 357.955 116.96 358.167C116.96 358.379 116.787 358.551 116.575 358.551Z" fill="#DDDDDD"/>
<path d="M114.856 360.059H111.428C111.215 360.059 111.043 359.887 111.043 359.675C111.043 359.462 111.215 359.291 111.428 359.291H114.856C115.068 359.291 115.24 359.462 115.24 359.675C115.24 359.887 115.068 360.059 114.856 360.059Z" fill="#DDDDDD"/>
<path d="M113.328 354.905L112.639 354.348C112.507 354.24 112.316 354.24 112.184 354.348L111.495 354.905C111.347 355.025 111.126 354.92 111.126 354.73V352H113.698V354.73C113.698 354.921 113.477 355.025 113.328 354.905Z" fill="#5479F7"/>
</g>
</g>
<path d="M131.787 360.327H130.947V352.734H131.787V360.327ZM128.62 359.722H127.78L128.755 353.775C128.766 353.697 128.76 353.646 128.738 353.624C128.716 353.596 128.665 353.582 128.587 353.582H125.521V352.826H129.368C129.508 352.826 129.606 352.862 129.662 352.935C129.718 353.002 129.735 353.1 129.712 353.229L128.62 359.722ZM139.774 357.564H132.701V356.808H135.818V355.951H133.231V352.708H134.071V353.599H138.405V352.708H139.245V355.321C139.245 355.539 139.195 355.699 139.094 355.8C138.993 355.9 138.833 355.951 138.615 355.951H136.658V356.808H139.774V357.564ZM139.287 360.352H133.273V358.076H134.113V359.596H139.287V360.352ZM138.405 355.195V354.355H134.071V355.195H138.405ZM142.351 360.327C141.842 360.327 141.447 360.196 141.167 359.932C140.887 359.675 140.747 359.308 140.747 358.832C140.747 358.356 140.887 357.989 141.167 357.732C141.447 357.468 141.842 357.337 142.351 357.337H145.283C145.793 357.337 146.187 357.468 146.467 357.732C146.747 357.989 146.887 358.356 146.887 358.832C146.887 359.308 146.747 359.675 146.467 359.932C146.187 360.196 145.793 360.327 145.283 360.327H142.351ZM144.804 356.816H143.922L142.973 353.758C142.951 353.691 142.928 353.646 142.906 353.624C142.889 353.596 142.85 353.582 142.788 353.582H142.209C142.147 353.582 142.105 353.596 142.083 353.624C142.066 353.652 142.046 353.697 142.024 353.758L141.024 356.816H140.142L141.201 353.582H140.251V352.826H144.838V353.582H143.805L144.804 356.816ZM145.174 359.571C145.471 359.571 145.689 359.501 145.829 359.361C145.975 359.227 146.047 359.05 146.047 358.832C146.047 358.614 145.975 358.437 145.829 358.303C145.689 358.163 145.471 358.093 145.174 358.093H142.461C142.164 358.093 141.943 358.163 141.797 358.303C141.657 358.437 141.587 358.614 141.587 358.832C141.587 359.05 141.657 359.227 141.797 359.361C141.943 359.501 142.164 359.571 142.461 359.571H145.174ZM146.736 357.068H145.896V355.119H144.544V354.346H145.896V352.734H146.736V357.068ZM154.11 356.606C154.11 356.824 154.06 356.984 153.959 357.085C153.858 357.186 153.698 357.236 153.48 357.236H148.096V352.776H148.936V354.212H153.27V352.776H154.11V356.606ZM153.27 356.48V354.968H148.936V356.48H153.27ZM154.639 359.823H147.566V359.067H150.683V357.74H151.523V359.067H154.639V359.823Z" fill="#222222"/>
<path d="M328 447.707C328 447.507 328.106 447.308 328.31 447.168C328.682 446.916 329.237 446.953 329.552 447.251L331.5 449.089L333.446 447.25C333.761 446.952 334.317 446.915 334.69 447.167C335.059 447.42 335.106 447.867 334.791 448.165L332.172 450.64C332.004 450.798 331.759 450.889 331.5 450.889C331.242 450.889 330.996 450.798 330.828 450.64L328.209 448.165C328.068 448.032 328 447.869 328 447.707Z" fill="#222222"/>
</g>
<defs>
<linearGradient id="paint0_linear_272_2090" x1="122.508" y1="204.503" x2="118.531" y2="204.503" gradientUnits="userSpaceOnUse">
<stop stop-opacity="0.3"/>
<stop offset="0.04" stop-color="#141414" stop-opacity="0.28"/>
<stop offset="1" stop-color="white" stop-opacity="0"/>
</linearGradient>
<linearGradient id="paint1_linear_272_2090" x1="134.135" y1="204.725" x2="137.606" y2="200.441" gradientUnits="userSpaceOnUse">
<stop stop-opacity="0.3"/>
<stop offset="0.04" stop-color="#141414" stop-opacity="0.28"/>
<stop offset="1" stop-color="white" stop-opacity="0"/>
</linearGradient>
<clipPath id="clip0_272_2090">
<rect width="440" height="500" rx="16" fill="white"/>
</clipPath>
<clipPath id="clip1_272_2090">
<rect width="51" height="11" fill="white" transform="translate(115 199)"/>
</clipPath>
<clipPath id="clip2_272_2090">
<rect width="12" height="12" fill="white" transform="translate(423 379)"/>
</clipPath>
<clipPath id="clip3_272_2090">
<rect width="10" height="10" fill="white" transform="translate(109 352)"/>
</clipPath>
</defs>
</svg>
