<svg width="440" height="500" viewBox="0 0 440 500" fill="none" xmlns="http://www.w3.org/2000/svg">
<g clip-path="url(#clip0_272_1829)">
<g filter="url(#filter0_d_272_1829)">
<rect x="60" y="60" width="619" height="568.154" rx="22.1071" fill="white"/>
<path d="M101.452 106.212H100.052V102.544H91.68V101.284H101.452V106.212ZM101.452 100.64H100.052V93.556H101.452V100.64ZM98.372 100.36H96.902L95.32 95.264C95.2827 95.152 95.2453 95.0773 95.208 95.04C95.18 94.9933 95.1147 94.97 95.012 94.97H94.046C93.9433 94.97 93.8733 94.9933 93.836 95.04C93.808 95.0867 93.7753 95.1613 93.738 95.264L92.072 100.36H90.602L92.366 94.97H90.644V93.71H98.568V94.97H96.706L98.372 100.36ZM113.622 98.442C113.622 98.806 113.538 99.072 113.37 99.24C113.202 99.408 112.936 99.492 112.572 99.492H103.598V94.466C103.598 94.1673 103.663 93.9527 103.793 93.822C103.924 93.6913 104.139 93.626 104.437 93.626H113.622V98.442ZM112.222 98.232V94.886H104.998V98.232H112.222ZM114.504 102.012H109.31V106.212H107.91V102.012H102.715V100.752H114.504V102.012ZM116.215 106.492H114.815L118.875 93.276H120.275L116.215 106.492ZM131.583 106.212H130.183V102.544H121.811V101.284H131.583V106.212ZM131.583 100.64H130.183V93.556H131.583V100.64ZM128.503 100.36H127.033L125.451 95.264C125.413 95.152 125.376 95.0773 125.339 95.04C125.311 94.9933 125.245 94.97 125.143 94.97H124.177C124.074 94.97 124.004 94.9933 123.967 95.04C123.939 95.0867 123.906 95.1613 123.869 95.264L122.203 100.36H120.733L122.497 94.97H120.775V93.71H128.699V94.97H126.837L128.503 100.36ZM144.634 100.654H139.72V103.482H138.32V100.654H132.846V99.394H144.634V100.654ZM143.5 98.722H142.1L142.366 95.236C142.394 94.9747 142.263 94.844 141.974 94.844H133.728V93.584H143.178C143.421 93.584 143.603 93.654 143.724 93.794C143.855 93.934 143.911 94.1207 143.892 94.354L143.5 98.722ZM143.822 106.254H133.798V102.054H135.198V104.994H143.822V106.254Z" fill="black"/>
<path d="M99.9199 123.691V124.453H95.6105V128.97H94.6906V124.453H90.4227V123.691H97.4254C97.5249 123.227 97.5981 122.789 97.645 122.377C97.692 121.965 97.721 121.598 97.732 121.275C97.7431 120.949 97.7486 120.566 97.7486 120.127V119.978H91.616V119.215H98.6602V120.127C98.6602 120.572 98.6547 120.956 98.6436 121.279C98.6354 121.602 98.6091 121.97 98.5649 122.381C98.5207 122.79 98.453 123.227 98.3619 123.691H99.9199ZM109.069 124.71H108.149V121.528H105.829V120.765H108.149V118.536H109.069V124.71ZM103.579 121.83C103.358 122.454 103.017 123 102.555 123.467C102.097 123.934 101.553 124.285 100.923 124.519L100.425 123.773C100.956 123.586 101.423 123.315 101.826 122.961C102.229 122.605 102.541 122.191 102.762 121.718C102.986 121.246 103.099 120.743 103.102 120.21V119.133H104.014V120.177C104.011 120.663 104.117 121.127 104.333 121.569C104.551 122.011 104.856 122.398 105.249 122.729C105.641 123.061 106.091 123.312 106.599 123.483L106.086 124.204C105.508 123.989 105.001 123.677 104.565 123.268C104.131 122.856 103.803 122.377 103.579 121.83ZM105.613 125.008C106.332 125.008 106.952 125.086 107.474 125.24C107.999 125.395 108.401 125.62 108.68 125.916C108.961 126.211 109.102 126.566 109.102 126.981C109.102 127.39 108.961 127.74 108.68 128.033C108.401 128.326 108 128.548 107.478 128.7C106.956 128.852 106.334 128.928 105.613 128.928C104.89 128.928 104.265 128.852 103.74 128.7C103.218 128.548 102.818 128.326 102.539 128.033C102.26 127.74 102.122 127.39 102.124 126.981C102.122 126.566 102.26 126.211 102.539 125.916C102.818 125.62 103.22 125.395 103.745 125.24C104.269 125.086 104.892 125.008 105.613 125.008ZM105.613 128.191C106.141 128.191 106.598 128.142 106.985 128.046C107.372 127.949 107.669 127.809 107.876 127.627C108.086 127.445 108.191 127.229 108.191 126.981C108.191 126.724 108.086 126.503 107.876 126.318C107.669 126.13 107.372 125.986 106.985 125.887C106.598 125.787 106.141 125.738 105.613 125.738C105.083 125.738 104.623 125.787 104.233 125.887C103.847 125.986 103.55 126.13 103.343 126.318C103.135 126.503 103.033 126.724 103.036 126.981C103.033 127.229 103.135 127.445 103.343 127.627C103.55 127.809 103.847 127.949 104.233 128.046C104.623 128.142 105.083 128.191 105.613 128.191ZM115.956 125.373V124.702H118.102V118.544H119.03V126.459H118.102V125.373H115.956ZM113.809 122.588C113.298 122.588 112.847 122.515 112.455 122.369C112.065 122.222 111.763 122.012 111.547 121.739C111.332 121.465 111.224 121.146 111.224 120.782C111.224 120.423 111.332 120.106 111.547 119.833C111.763 119.557 112.066 119.344 112.459 119.195C112.851 119.043 113.301 118.967 113.809 118.967C114.312 118.967 114.758 119.043 115.148 119.195C115.537 119.344 115.84 119.557 116.055 119.833C116.274 120.106 116.384 120.423 116.387 120.782C116.384 121.146 116.274 121.465 116.055 121.739C115.84 122.01 115.537 122.22 115.148 122.369C114.761 122.515 114.315 122.588 113.809 122.588ZM113.809 119.663C113.472 119.66 113.174 119.706 112.914 119.8C112.655 119.894 112.453 120.026 112.309 120.198C112.169 120.366 112.1 120.561 112.102 120.782C112.1 121.006 112.169 121.202 112.309 121.37C112.453 121.539 112.655 121.67 112.914 121.764C113.174 121.855 113.472 121.901 113.809 121.901C114.135 121.901 114.427 121.855 114.684 121.764C114.941 121.67 115.141 121.539 115.285 121.37C115.431 121.202 115.506 121.006 115.508 120.782C115.506 120.561 115.431 120.366 115.285 120.198C115.141 120.026 114.941 119.894 114.684 119.8C114.427 119.706 114.135 119.66 113.809 119.663ZM113.445 126.094V124.08C112.732 124.108 111.923 124.122 111.017 124.122H110.511L110.387 123.367C111.763 123.362 112.99 123.341 114.071 123.305C115.153 123.267 116.185 123.185 117.166 123.061L117.232 123.732C116.367 123.87 115.412 123.971 114.365 124.035V126.094H113.445ZM112.807 125.68V127.959H119.287V128.721H111.887V125.68H112.807ZM122.644 121.304H128.826V122.058H121.724V118.892H128.718V119.638H122.644V121.304ZM120.456 123.657V122.912H129.961V123.657H120.456ZM128.727 127.006H122.536V128.083H129.042V128.829H121.633V126.309H127.823V125.307H121.608V124.586H128.727V127.006ZM138.133 118.536H139.053V128.97H138.133V118.536ZM133.517 119.34C134.031 119.343 134.488 119.493 134.888 119.791C135.292 120.09 135.607 120.514 135.833 121.064C136.062 121.61 136.177 122.246 136.177 122.97C136.177 123.696 136.062 124.334 135.833 124.884C135.607 125.434 135.292 125.858 134.888 126.156C134.485 126.452 134.028 126.599 133.517 126.599C133 126.599 132.54 126.452 132.137 126.156C131.734 125.858 131.419 125.435 131.192 124.888C130.968 124.338 130.857 123.699 130.857 122.97C130.857 122.243 130.968 121.606 131.192 121.059C131.419 120.512 131.734 120.09 132.137 119.791C132.54 119.493 133 119.343 133.517 119.34ZM133.517 120.16C133.171 120.163 132.863 120.282 132.593 120.517C132.325 120.749 132.116 121.077 131.967 121.503C131.818 121.925 131.743 122.414 131.743 122.97C131.743 123.528 131.818 124.019 131.967 124.445C132.116 124.87 132.325 125.199 132.593 125.431C132.863 125.663 133.171 125.779 133.517 125.779C133.862 125.779 134.167 125.663 134.432 125.431C134.7 125.199 134.909 124.87 135.058 124.445C135.207 124.019 135.282 123.528 135.282 122.97C135.282 122.414 135.207 121.925 135.058 121.503C134.909 121.077 134.7 120.749 134.432 120.517C134.167 120.282 133.862 120.163 133.517 120.16ZM151.276 118.536V120.948H152.843V121.718H151.276V124.146H150.356V118.536H151.276ZM143.577 119.257H148.392V123.566H143.577V119.257ZM144.472 122.829H147.497V120.019H144.472V122.829ZM151.218 127.072H145.616V128.124H151.566V128.812H144.713V124.718H151.334V125.414H145.616V126.401H151.218V127.072ZM157.881 123.044C157.133 123.044 156.481 122.961 155.925 122.796C155.37 122.63 154.942 122.391 154.641 122.079C154.343 121.764 154.193 121.392 154.193 120.964C154.193 120.536 154.343 120.166 154.641 119.854C154.942 119.541 155.37 119.304 155.925 119.141C156.481 118.978 157.133 118.898 157.881 118.901C158.627 118.898 159.276 118.978 159.829 119.141C160.384 119.304 160.811 119.541 161.109 119.854C161.41 120.166 161.561 120.536 161.561 120.964C161.561 121.392 161.41 121.764 161.109 122.079C160.811 122.391 160.384 122.63 159.829 122.796C159.276 122.961 158.627 123.044 157.881 123.044ZM157.881 119.646C157.326 119.646 156.841 119.7 156.427 119.808C156.015 119.913 155.698 120.065 155.474 120.264C155.253 120.463 155.144 120.696 155.146 120.964C155.144 121.238 155.253 121.474 155.474 121.673C155.698 121.872 156.015 122.025 156.427 122.133C156.841 122.238 157.326 122.29 157.881 122.29C158.437 122.29 158.92 122.238 159.332 122.133C159.746 122.025 160.065 121.872 160.289 121.673C160.512 121.474 160.624 121.238 160.624 120.964C160.624 120.696 160.512 120.463 160.289 120.264C160.065 120.065 159.746 119.913 159.332 119.808C158.92 119.7 158.437 119.646 157.881 119.646ZM153.141 124.776V124.03H162.638V124.776H153.141ZM154.367 125.696H155.296V127.959H161.577V128.721H154.367V125.696ZM173.519 118.536H174.439V124.669H173.519V123.177H170.826C170.58 123.475 170.271 123.707 169.898 123.873C169.528 124.036 169.119 124.116 168.671 124.113C168.157 124.116 167.695 124.012 167.283 123.802C166.871 123.59 166.548 123.294 166.313 122.916C166.081 122.535 165.967 122.102 165.969 121.619C165.967 121.141 166.081 120.714 166.313 120.338C166.545 119.96 166.866 119.664 167.275 119.452C167.684 119.239 168.144 119.133 168.655 119.133C169.105 119.133 169.518 119.214 169.894 119.377C170.269 119.54 170.579 119.771 170.822 120.069H173.519V118.536ZM168.671 123.334C169.011 123.334 169.318 123.262 169.591 123.119C169.867 122.972 170.084 122.769 170.242 122.51C170.399 122.247 170.478 121.95 170.478 121.619C170.478 121.296 170.399 121.004 170.242 120.744C170.084 120.485 169.867 120.282 169.591 120.135C169.318 119.986 169.011 119.912 168.671 119.912C168.323 119.912 168.01 119.985 167.731 120.131C167.454 120.278 167.237 120.481 167.08 120.74C166.925 121 166.848 121.293 166.848 121.619C166.848 121.95 166.925 122.247 167.08 122.51C167.237 122.769 167.454 122.972 167.731 123.119C168.007 123.262 168.32 123.334 168.671 123.334ZM173.519 122.414V120.831H171.24C171.323 121.088 171.365 121.351 171.365 121.619C171.365 121.892 171.323 122.157 171.24 122.414H173.519ZM173.519 125.986H167.428V125.249H174.439V128.953H173.519V125.986ZM179.403 119.481H182.047V120.218H175.84V119.481H178.492V118.428H179.403V119.481ZM183.961 118.494V121.03H185.536V121.793H183.961V124.262H183.041V118.494H183.961ZM181.45 122.398C181.447 122.746 181.342 123.05 181.135 123.309C180.931 123.566 180.639 123.764 180.261 123.902C179.885 124.037 179.447 124.105 178.947 124.105C178.442 124.105 177.999 124.037 177.617 123.902C177.239 123.764 176.946 123.566 176.739 123.309C176.534 123.05 176.434 122.746 176.436 122.398C176.434 122.05 176.534 121.747 176.739 121.49C176.946 121.233 177.239 121.036 177.617 120.898C177.999 120.76 178.442 120.691 178.947 120.691C179.447 120.691 179.885 120.76 180.261 120.898C180.637 121.036 180.928 121.233 181.135 121.49C181.342 121.747 181.447 122.05 181.45 122.398ZM177.315 122.398C177.312 122.605 177.377 122.786 177.51 122.941C177.645 123.093 177.836 123.21 178.081 123.293C178.33 123.376 178.619 123.417 178.947 123.417C179.271 123.417 179.555 123.376 179.801 123.293C180.047 123.21 180.237 123.093 180.373 122.941C180.508 122.786 180.577 122.605 180.58 122.398C180.577 122.193 180.508 122.014 180.373 121.859C180.237 121.702 180.047 121.581 179.801 121.499C179.555 121.413 179.271 121.37 178.947 121.37C178.619 121.37 178.33 121.413 178.081 121.499C177.836 121.581 177.645 121.702 177.51 121.859C177.377 122.014 177.312 122.193 177.315 122.398ZM183.961 127.113H178.243V128.124H184.342V128.837H177.34V126.434H183.05V125.497H177.315V124.801H183.961V127.113ZM193.865 122.895H195.555V123.691H193.865V128.953H192.945V118.536H193.865V122.895ZM190.376 124.287C190.5 123.514 190.581 122.82 190.62 122.207C190.662 121.594 190.682 121.006 190.682 120.442H186.307V119.688H191.602V120.235V120.347C191.597 120.988 191.575 121.616 191.536 122.232C191.5 122.848 191.42 123.558 191.296 124.362L190.376 124.287ZM188.876 125.833C190.207 125.78 191.345 125.696 192.29 125.58L192.34 126.276C190.707 126.53 188.659 126.657 186.195 126.657H185.834L185.718 125.887C186.699 125.881 187.447 125.872 187.964 125.858V122.663H188.876V125.833ZM206.204 118.536H207.124V124.122H206.204V121.793H204.021C203.96 122.196 203.808 122.554 203.565 122.866C203.324 123.175 203.012 123.416 202.628 123.587C202.247 123.756 201.823 123.84 201.356 123.84C200.834 123.84 200.367 123.738 199.956 123.533C199.544 123.329 199.224 123.044 198.994 122.68C198.765 122.315 198.652 121.898 198.654 121.428C198.652 120.961 198.765 120.546 198.994 120.181C199.224 119.814 199.544 119.529 199.956 119.327C200.367 119.123 200.834 119.022 201.356 119.025C201.817 119.022 202.237 119.105 202.616 119.273C202.997 119.439 203.309 119.674 203.552 119.978C203.795 120.282 203.95 120.633 204.016 121.03H206.204V118.536ZM201.356 123.061C201.701 123.061 202.011 122.99 202.284 122.849C202.561 122.709 202.776 122.515 202.931 122.269C203.085 122.021 203.163 121.74 203.163 121.428C203.163 121.113 203.085 120.831 202.931 120.583C202.776 120.334 202.562 120.142 202.288 120.007C202.015 119.869 201.704 119.801 201.356 119.804C201.005 119.801 200.69 119.869 200.411 120.007C200.135 120.142 199.92 120.334 199.765 120.583C199.61 120.829 199.533 121.11 199.533 121.428C199.533 121.74 199.61 122.021 199.765 122.269C199.92 122.515 200.135 122.709 200.411 122.849C200.69 122.99 201.005 123.061 201.356 123.061ZM201.331 125.97H206.204V124.652H207.124V128.812H200.411V124.652H201.331V125.97ZM201.331 128.058H206.204V126.707H201.331V128.058ZM209.718 119.116H216.787V123.169H209.718V119.116ZM210.621 122.448H215.876V119.87H210.621V122.448ZM208.483 124.594H218.022V125.348H213.679V128.945H212.776V125.348H208.483V124.594ZM219.737 120.376H225.887V119.514H219.704V118.851H226.807V121.006H220.649V121.917H226.989V122.588H219.737V120.376ZM218.494 124.097V123.376H228.033V124.097H218.494ZM226.84 127.146H220.583V128.141H227.179V128.812H219.663V126.508H225.928V125.622H219.646V124.934H226.84V127.146ZM236.784 122.017V121.254H238.889V118.536H239.809V124.743H238.889V122.017H236.784ZM234.352 121.983C234.128 122.594 233.784 123.131 233.32 123.595C232.859 124.059 232.317 124.409 231.696 124.644L231.215 123.914C231.726 123.729 232.183 123.459 232.587 123.102C232.99 122.746 233.304 122.337 233.527 121.876C233.754 121.414 233.867 120.939 233.867 120.45V120.061H231.514V119.298H237.124V120.061H234.795V120.442C234.795 120.89 234.903 121.325 235.119 121.747C235.334 122.167 235.636 122.541 236.026 122.87C236.415 123.196 236.862 123.445 237.364 123.616L236.884 124.354C236.304 124.144 235.794 123.831 235.355 123.417C234.915 123.003 234.581 122.525 234.352 121.983ZM236.353 125.066C237.072 125.066 237.692 125.144 238.214 125.298C238.739 125.45 239.141 125.671 239.42 125.961C239.701 126.251 239.842 126.599 239.842 127.006C239.842 127.412 239.701 127.758 239.42 128.046C239.141 128.336 238.74 128.557 238.218 128.709C237.696 128.863 237.074 128.942 236.353 128.945C235.63 128.942 235.005 128.863 234.48 128.709C233.958 128.557 233.558 128.336 233.279 128.046C233 127.758 232.862 127.412 232.864 127.006C232.862 126.599 233 126.251 233.279 125.961C233.558 125.671 233.96 125.45 234.485 125.298C235.009 125.144 235.632 125.066 236.353 125.066ZM236.353 128.207C236.881 128.21 237.338 128.163 237.725 128.066C238.112 127.972 238.409 127.834 238.616 127.652C238.826 127.47 238.931 127.254 238.931 127.006C238.931 126.754 238.826 126.537 238.616 126.355C238.409 126.17 238.112 126.029 237.725 125.932C237.338 125.836 236.881 125.787 236.353 125.787C235.823 125.787 235.363 125.836 234.973 125.932C234.587 126.029 234.29 126.17 234.083 126.355C233.875 126.537 233.773 126.754 233.776 127.006C233.773 127.254 233.875 127.47 234.083 127.652C234.29 127.834 234.587 127.972 234.973 128.066C235.363 128.163 235.823 128.21 236.353 128.207ZM248.809 118.536H249.729V128.97H248.809V118.536ZM244.591 119.298C245.132 119.298 245.616 119.402 246.041 119.609C246.467 119.814 246.798 120.101 247.036 120.471C247.276 120.841 247.398 121.265 247.4 121.743C247.398 122.221 247.276 122.645 247.036 123.015C246.798 123.385 246.467 123.674 246.041 123.881C245.616 124.086 245.132 124.188 244.591 124.188C244.049 124.188 243.565 124.086 243.137 123.881C242.708 123.674 242.374 123.385 242.134 123.015C241.896 122.642 241.779 122.218 241.782 121.743C241.779 121.268 241.896 120.845 242.134 120.475C242.374 120.102 242.708 119.814 243.137 119.609C243.565 119.402 244.049 119.298 244.591 119.298ZM244.591 120.102C244.224 120.102 243.895 120.171 243.605 120.309C243.315 120.448 243.088 120.642 242.925 120.894C242.762 121.142 242.682 121.425 242.685 121.743C242.682 122.061 242.762 122.345 242.925 122.597C243.088 122.845 243.315 123.039 243.605 123.177C243.895 123.315 244.224 123.384 244.591 123.384C244.956 123.384 245.282 123.315 245.569 123.177C245.859 123.039 246.085 122.845 246.248 122.597C246.414 122.345 246.497 122.061 246.497 121.743C246.497 121.425 246.414 121.142 246.248 120.894C246.085 120.642 245.859 120.448 245.569 120.309C245.282 120.171 244.956 120.102 244.591 120.102ZM241.243 125.887H241.86C243.023 125.887 244.125 125.863 245.167 125.816C246.208 125.769 247.193 125.677 248.121 125.539L248.196 126.218C247.461 126.356 246.697 126.459 245.904 126.525C245.114 126.591 244.375 126.633 243.688 126.649C243.003 126.666 242.229 126.674 241.367 126.674L241.243 125.887ZM254.784 119.613H257.428V120.367H251.221V119.613H253.873V118.436H254.784V119.613ZM259.342 121.204H260.909V121.983H259.342V124.586H258.422V118.536H259.342V121.204ZM254.329 124.503C253.829 124.506 253.388 124.432 253.007 124.283C252.625 124.134 252.331 123.921 252.124 123.645C251.917 123.369 251.815 123.047 251.817 122.68C251.815 122.315 251.917 121.994 252.124 121.718C252.331 121.442 252.624 121.229 253.003 121.08C253.384 120.931 253.826 120.856 254.329 120.856C254.823 120.856 255.258 120.931 255.634 121.08C256.012 121.229 256.305 121.442 256.512 121.718C256.722 121.994 256.829 122.315 256.831 122.68C256.829 123.047 256.722 123.369 256.512 123.645C256.305 123.921 256.012 124.134 255.634 124.283C255.255 124.432 254.82 124.506 254.329 124.503ZM252.696 122.68C252.693 122.903 252.759 123.101 252.895 123.272C253.03 123.441 253.221 123.572 253.467 123.666C253.715 123.76 254.003 123.807 254.329 123.807C254.649 123.807 254.932 123.76 255.178 123.666C255.424 123.572 255.614 123.441 255.75 123.272C255.888 123.101 255.958 122.903 255.961 122.68C255.958 122.459 255.888 122.262 255.75 122.091C255.614 121.92 255.424 121.789 255.178 121.698C254.932 121.604 254.649 121.558 254.329 121.561C254.003 121.558 253.715 121.604 253.467 121.698C253.221 121.789 253.03 121.92 252.895 122.091C252.759 122.262 252.693 122.459 252.696 122.68ZM253.666 126.16H258.422V125.041H259.342V128.812H252.754V125.041H253.666V126.16ZM253.666 128.066H258.422V126.89H253.666V128.066ZM268.881 128.953V118.536H269.793V128.953H268.881ZM262.79 125.464C263.638 125.461 264.471 125.423 265.289 125.348C266.109 125.271 266.936 125.144 267.771 124.967L267.895 125.754C267.005 125.936 266.141 126.068 265.301 126.148C264.464 126.228 263.608 126.268 262.732 126.268H261.887V119.564H262.79V125.464ZM279.282 122.655H281.022V123.425H279.282V128.97H278.362V118.536H279.282V122.655ZM272.594 125.58C273.588 125.577 274.446 125.551 275.167 125.501C275.888 125.449 276.619 125.354 277.359 125.215L277.475 126.011C276.702 126.149 275.945 126.242 275.204 126.289C274.464 126.336 273.561 126.359 272.494 126.359H271.674V119.555H276.539V120.309H272.594V125.58ZM282.331 128.066C282.196 128.066 282.069 128.033 281.95 127.967C281.834 127.898 281.742 127.805 281.673 127.689C281.606 127.573 281.575 127.448 281.577 127.312C281.575 127.177 281.606 127.051 281.673 126.935C281.742 126.819 281.834 126.728 281.95 126.662C282.069 126.593 282.196 126.558 282.331 126.558C282.467 126.558 282.592 126.593 282.708 126.662C282.825 126.728 282.916 126.819 282.982 126.935C283.051 127.051 283.086 127.177 283.086 127.312C283.086 127.448 283.051 127.573 282.982 127.689C282.916 127.805 282.825 127.898 282.708 127.967C282.592 128.033 282.467 128.066 282.331 128.066Z" fill="black" fill-opacity="0.54"/>
<path d="M123.24 158.405H141.076C143.091 158.405 144.725 160.039 144.725 162.054V179.89C144.725 181.905 143.091 183.538 141.076 183.538H123.24C121.225 183.538 119.592 181.905 119.592 179.89V162.054C119.592 160.039 121.225 158.405 123.24 158.405Z" stroke="#EEEEEE" stroke-width="0.810738"/>
<g clip-path="url(#clip1_272_1829)">
<path d="M135.221 168.54H129.096C128.215 168.54 127.774 169.59 128.396 170.202L131.285 173.047C131.766 173.523 132.548 173.523 133.031 173.047L135.92 170.202C136.544 169.588 136.101 168.54 135.22 168.54H135.221Z" fill="#222222"/>
</g>
<path d="M111.89 183.538L94.054 183.538C92.039 183.538 90.4055 181.905 90.4055 179.89L90.4055 162.054C90.4055 160.039 92.039 158.405 94.054 158.405L111.89 158.405C113.905 158.405 115.538 160.039 115.538 162.054L115.538 179.89C115.538 181.905 113.905 183.538 111.89 183.538Z" stroke="#EEEEEE" stroke-width="0.810738"/>
<g clip-path="url(#clip2_272_1829)">
<path d="M99.9086 173.404L106.034 173.404C106.916 173.404 107.356 172.354 106.734 171.741L103.845 168.896C103.364 168.421 102.582 168.421 102.099 168.896L99.2099 171.741C98.586 172.355 99.0286 173.404 99.9104 173.404L99.9086 173.404Z" fill="#222222"/>
</g>
<rect x="114.5" y="269.5" width="475" height="59" rx="7.5" fill="white" stroke="#EEEEEE"/>
<rect x="114.5" y="334.5" width="475" height="59" rx="7.5" fill="white" stroke="#EEEEEE"/>
<rect x="90.5" y="399.5" width="475" height="59" rx="7.5" fill="white" stroke="#EEEEEE"/>
<rect x="114.5" y="464.5" width="475" height="59" rx="7.5" fill="white" stroke="#EEEEEE"/>
<g filter="url(#filter1_d_272_1829)">
<rect x="90" y="204" width="476" height="60" rx="8" fill="#FAFDFF"/>
<rect x="90.5" y="204.5" width="475" height="59" rx="7.5" stroke="#1D6CFF" stroke-opacity="0.19"/>
</g>
<path d="M127.688 232.749V227.91H128.945V240.16H127.688V233.808H126.18V239.57H124.966V228.239H126.18V232.749H127.688ZM123.743 229.472C123.74 230.609 123.593 231.665 123.303 232.638C123.016 233.611 122.535 234.517 121.858 235.355C121.184 236.193 120.285 236.931 119.16 237.569L118.406 236.655C119.724 235.908 120.706 235.026 121.35 234.011C121.998 232.993 122.373 231.832 122.477 230.53H118.928V229.472H123.743ZM139.879 227.91V230.477H141.653V231.541H139.879V234.214H138.579V227.91H139.879ZM135.214 228.437H136.5V233.774H130.723V228.437H132.004V230.095H135.214V228.437ZM132.004 232.74H135.214V231.096H132.004V232.74ZM139.879 237.835H133.261V239H140.295V240.044H131.985V236.873H138.588V235.771H131.956V234.746H139.879V237.835Z" fill="black"/>
<path d="M127.33 435.16V422.91H128.635V435.16H127.33ZM124.995 424.23C124.989 426.128 124.533 427.812 123.627 429.282C122.725 430.751 121.268 431.966 119.257 432.927L118.57 431.878C120.175 431.114 121.394 430.184 122.225 429.088C123.06 427.989 123.542 426.715 123.671 425.265H119.165V424.23H124.995ZM134.963 423.959H137.945V424.931H130.704V423.959H133.667V422.833H134.963V423.959ZM139.11 431.143V422.939H140.416V431.143H139.11ZM138.269 430.316C137.083 430.513 135.849 430.643 134.566 430.708C133.283 430.769 131.923 430.8 130.486 430.8L130.302 429.785C131.646 429.785 132.768 429.77 133.667 429.741V428.958C133.193 428.906 132.782 428.802 132.434 428.644C132.086 428.486 131.819 428.283 131.632 428.035C131.445 427.783 131.353 427.496 131.356 427.174C131.353 426.8 131.474 426.475 131.719 426.198C131.964 425.92 132.31 425.708 132.758 425.559C133.209 425.411 133.733 425.339 134.329 425.342C134.916 425.339 135.433 425.411 135.881 425.559C136.329 425.708 136.677 425.922 136.925 426.202C137.177 426.48 137.304 426.803 137.307 427.174C137.304 427.496 137.206 427.783 137.012 428.035C136.822 428.286 136.55 428.491 136.195 428.648C135.844 428.806 135.433 428.91 134.963 428.958V429.693C136.152 429.635 137.222 429.543 138.173 429.417L138.269 430.316ZM132.594 427.174C132.594 427.361 132.665 427.525 132.807 427.667C132.948 427.806 133.15 427.912 133.411 427.986C133.675 428.06 133.981 428.096 134.329 428.093C134.671 428.096 134.972 428.06 135.233 427.986C135.498 427.912 135.701 427.806 135.842 427.667C135.987 427.525 136.06 427.361 136.06 427.174C136.06 426.977 135.987 426.808 135.842 426.666C135.701 426.521 135.499 426.412 135.238 426.338C134.977 426.264 134.674 426.228 134.329 426.231C133.978 426.228 133.672 426.264 133.411 426.338C133.15 426.412 132.948 426.521 132.807 426.666C132.665 426.808 132.594 426.977 132.594 427.174ZM139.11 432.704H132.062V431.684H140.416V435.16H139.11V432.704Z" fill="black"/>
<path d="M143.436 494.243H145.263V490.153H143.407V489.095H152.64V490.153H150.765V494.243H152.602V495.282H143.436V494.243ZM146.554 494.243H149.488V490.153H146.554V494.243ZM142.454 498.633V497.54H153.665V498.633H142.454ZM160.471 495.456V497.613H165.465V498.691H154.254V497.613H159.185V495.456H155.617V491.56H162.811V489.839H155.593V488.78H164.092V492.604H156.908V494.393H164.377V495.456H160.471ZM174.968 491.028V487.91H176.264V495.234H174.968V492.102H172.696V491.028H174.968ZM169.8 492.126C169.526 492.809 169.125 493.407 168.596 493.919C168.071 494.432 167.449 494.814 166.73 495.065L166.058 494.035C166.674 493.826 167.212 493.518 167.673 493.112C168.137 492.703 168.493 492.237 168.741 491.715C168.993 491.189 169.119 490.651 169.119 490.1V489.752H166.46V488.703H173.073V489.752H170.433V490.09C170.433 490.606 170.551 491.107 170.786 491.594C171.025 492.081 171.366 492.514 171.811 492.894C172.259 493.275 172.785 493.568 173.387 493.774L172.725 494.785C172.048 494.556 171.458 494.209 170.956 493.745C170.456 493.281 170.071 492.741 169.8 492.126ZM174.968 496.902H167.958V495.848H176.264V500.16H174.968V496.902ZM180.57 494.432H187.792V495.476H179.26V488.921H187.672V489.984H180.57V491.628H187.401V492.662H180.57V494.432ZM177.853 498.623V497.55H189.064V498.623H177.853ZM202.057 492.706V487.91H203.305V500.16H202.057V493.779H200.549V499.556H199.316V488.147H200.549V492.706H202.057ZM197.939 496.931H193.182V489.288H197.939V496.931ZM196.72 490.318H194.405V495.901H196.72V490.318ZM213.446 500.16V487.91H214.732V500.16H213.446ZM206.596 495.93C208.591 495.914 210.473 495.724 212.242 495.36L212.412 496.452C211.377 496.668 210.363 496.823 209.371 496.916C208.378 497.007 207.369 497.05 206.345 497.047H205.32V489.104H206.596V495.93ZM225.289 492.309V487.91H226.59V500.184H225.289V493.373H222.766V492.309H225.289ZM220.745 491.357C220.745 492.044 220.88 492.732 221.151 493.421C221.422 494.111 221.799 494.728 222.282 495.273C222.766 495.817 223.314 496.227 223.926 496.501L223.153 497.535C222.456 497.197 221.842 496.696 221.311 496.032C220.779 495.365 220.376 494.606 220.102 493.755C219.822 494.657 219.412 495.465 218.874 496.177C218.336 496.889 217.717 497.426 217.018 497.787L216.23 496.767C216.842 496.477 217.39 496.046 217.873 495.476C218.36 494.902 218.74 494.254 219.014 493.532C219.288 492.811 219.427 492.085 219.43 491.357V490.211H216.718V489.143H223.462V490.211H220.745V491.357Z" fill="black"/>
<path d="M143.436 299.243H145.263V295.153H143.407V294.095H152.64V295.153H150.765V299.243H152.602V300.282H143.436V299.243ZM146.554 299.243H149.488V295.153H146.554V299.243ZM142.454 303.633V302.54H153.665V303.633H142.454ZM160.481 298.615V299.833H165.445V300.892H154.235V299.833H159.204V298.615H155.675V295.482H162.738V294.288H155.641V293.268H164.034V296.42H156.961V297.609H164.285V298.615H160.481ZM155.699 301.641H157.005V304.044H164.3V305.097H155.699V301.641ZM168.77 299.432H175.993V300.476H167.46V293.921H175.872V294.984H168.77V296.628H175.601V297.662H168.77V299.432ZM166.054 303.623V302.55H177.264V303.623H166.054ZM187.063 292.91H188.29V302.066H187.063V292.91ZM180.763 299.862C180.222 299.862 179.737 299.736 179.308 299.485C178.883 299.23 178.551 298.876 178.313 298.421C178.074 297.964 177.956 297.445 177.96 296.865C177.956 296.278 178.074 295.756 178.313 295.298C178.551 294.841 178.883 294.486 179.308 294.235C179.737 293.98 180.222 293.853 180.763 293.853C181.247 293.853 181.687 293.958 182.083 294.167C182.48 294.373 182.805 294.667 183.06 295.047C183.314 295.424 183.475 295.861 183.543 296.357H184.694V293.137H185.902V301.699H184.694V297.43H183.533C183.459 297.914 183.293 298.339 183.036 298.706C182.781 299.074 182.457 299.359 182.064 299.562C181.671 299.762 181.237 299.862 180.763 299.862ZM179.125 296.865C179.121 297.235 179.189 297.564 179.328 297.851C179.469 298.134 179.664 298.355 179.913 298.513C180.164 298.668 180.448 298.745 180.763 298.745C181.076 298.745 181.356 298.668 181.605 298.513C181.853 298.355 182.048 298.134 182.19 297.851C182.335 297.564 182.409 297.235 182.412 296.865C182.409 296.494 182.335 296.165 182.19 295.878C182.048 295.588 181.851 295.363 181.6 295.202C181.352 295.041 181.073 294.96 180.763 294.96C180.448 294.96 180.164 295.041 179.913 295.202C179.664 295.363 179.469 295.588 179.328 295.878C179.189 296.165 179.121 296.494 179.125 296.865ZM181.464 300.882V303.845H188.648V304.909H180.169V300.882H181.464ZM192.326 298.726H199.573V299.785H191.045V294.012H199.466V295.076H192.326V298.726ZM189.653 303.546V302.468H200.863V303.546H189.653ZM213.804 297.749V292.91H215.061V305.16H213.804V298.808H212.296V304.57H211.082V293.239H212.296V297.749H213.804ZM209.859 294.472C209.856 295.609 209.709 296.665 209.419 297.638C209.132 298.611 208.651 299.517 207.974 300.355C207.3 301.193 206.401 301.931 205.276 302.569L204.522 301.655C205.84 300.908 206.822 300.026 207.466 299.011C208.114 297.993 208.489 296.832 208.593 295.53H205.044V294.472H209.859ZM225.995 292.91V295.477H227.769V296.541H225.995V299.214H224.695V292.91H225.995ZM221.33 293.437H222.616V298.774H216.839V293.437H218.12V295.095H221.33V293.437ZM218.12 297.74H221.33V296.096H218.12V297.74ZM225.995 302.835H219.377V304H226.411V305.044H218.101V301.873H224.704V300.771H218.072V299.746H225.995V302.835ZM237.712 297.769H239.675V298.866H237.712V305.16H236.412V292.91H237.712V297.769ZM232.438 296.526C232.435 297.168 232.566 297.817 232.83 298.474C233.094 299.129 233.463 299.725 233.937 300.263C234.414 300.798 234.955 301.207 235.561 301.491L234.826 302.516C234.15 302.19 233.547 301.705 233.018 301.061C232.493 300.416 232.089 299.686 231.805 298.871C231.618 299.454 231.37 300.004 231.061 300.519C230.751 301.035 230.395 301.491 229.992 301.887C229.593 302.281 229.164 302.592 228.706 302.82L227.938 301.796C228.544 301.506 229.09 301.077 229.576 300.51C230.066 299.942 230.45 299.308 230.727 298.605C231.007 297.902 231.149 297.209 231.152 296.526V295.216H228.392V294.143H235.097V295.216H232.438V296.526Z" fill="black"/>
<path d="M143.528 361.285H145.263V359.215H143.474V358.229H152.573V359.215H150.789V361.285H152.519V362.29H143.528V361.285ZM146.554 361.285H149.488V359.215H146.554V361.285ZM153.622 363.175V364.209H148.671V365.273H152.205V368.067H145.079V369.058H152.558V370.044H143.808V367.148H150.929V366.23H143.784V365.273H147.371V364.209H142.454V363.175H153.622ZM159.799 361.608C159.535 362.169 159.169 362.683 158.702 363.151C158.237 363.618 157.707 364.013 157.111 364.335C156.515 364.657 155.89 364.891 155.235 365.036L154.655 363.953C155.429 363.808 156.157 363.521 156.84 363.093C157.524 362.661 158.071 362.14 158.484 361.531C158.897 360.922 159.104 360.295 159.108 359.651V358.727H160.476V359.651C160.476 360.298 160.682 360.927 161.094 361.536C161.51 362.145 162.061 362.666 162.748 363.097C163.438 363.529 164.171 363.814 164.947 363.953L164.358 365.036C163.703 364.894 163.077 364.662 162.477 364.34C161.881 364.017 161.351 363.623 160.887 363.155C160.423 362.688 160.06 362.172 159.799 361.608ZM154.254 368.55V367.472H165.465V368.55H154.254ZM175.263 361.048V357.92H176.491V365.36H175.263V362.102H173.764V365.273H172.551V358.147H173.764V361.048H175.263ZM171.908 364.441C171.221 364.573 170.548 364.662 169.887 364.707C169.23 364.749 168.384 364.77 167.349 364.77H166.556V358.78H171.342V359.839H167.804V361.202H171.212V362.208H167.804V363.697C168.677 363.69 169.407 363.666 169.994 363.624C170.58 363.579 171.173 363.499 171.773 363.383L171.908 364.441ZM175.21 367.003H168.166V365.954H176.491V370.16H175.21V367.003ZM190.205 362.749V357.91H191.462V370.16H190.205V363.808H188.696V369.57H187.483V358.239H188.696V362.749H190.205ZM186.26 359.472C186.257 360.609 186.11 361.665 185.82 362.638C185.533 363.611 185.051 364.517 184.375 365.355C183.701 366.193 182.802 366.931 181.677 367.569L180.923 366.655C182.241 365.908 183.222 365.026 183.867 364.011C184.515 362.993 184.89 361.832 184.993 360.53H181.445V359.472H186.26ZM202.396 357.91V360.477H204.17V361.541H202.396V364.214H201.095V357.91H202.396ZM197.731 358.437H199.017V363.774H193.24V358.437H194.521V360.095H197.731V358.437ZM194.521 362.74H197.731V361.096H194.521V362.74ZM202.396 367.835H195.778V369H202.812V370.044H194.501V366.873H201.105V365.771H194.472V364.746H202.396V367.835ZM214.113 362.769H216.076V363.866H214.113V370.16H212.813V357.91H214.113V362.769ZM208.839 361.526C208.836 362.168 208.966 362.817 209.231 363.474C209.495 364.129 209.864 364.725 210.338 365.263C210.815 365.798 211.356 366.207 211.962 366.491L211.227 367.516C210.55 367.19 209.948 366.705 209.419 366.061C208.894 365.416 208.489 364.686 208.206 363.871C208.019 364.454 207.771 365.004 207.461 365.519C207.152 366.035 206.796 366.491 206.393 366.887C205.993 367.281 205.565 367.592 205.107 367.82L204.338 366.796C204.944 366.506 205.491 366.077 205.977 365.51C206.467 364.942 206.851 364.308 207.128 363.605C207.408 362.902 207.55 362.209 207.553 361.526V360.216H204.793V359.143H211.498V360.216H208.839V361.526Z" fill="black"/>
</g>
</g>
<defs>
<filter id="filter0_d_272_1829" x="13.1329" y="8.71143" width="712.734" height="661.888" filterUnits="userSpaceOnUse" color-interpolation-filters="sRGB">
<feFlood flood-opacity="0" result="BackgroundImageFix"/>
<feColorMatrix in="SourceAlpha" type="matrix" values="0 0 0 0 0 0 0 0 0 0 0 0 0 0 0 0 0 0 127 0" result="hardAlpha"/>
<feOffset dy="-4.42143"/>
<feGaussianBlur stdDeviation="23.4336"/>
<feComposite in2="hardAlpha" operator="out"/>
<feColorMatrix type="matrix" values="0 0 0 0 0.142104 0 0 0 0 0.54285 0 0 0 0 0.557692 0 0 0 0.03 0"/>
<feBlend mode="normal" in2="BackgroundImageFix" result="effect1_dropShadow_272_1829"/>
<feBlend mode="normal" in="SourceGraphic" in2="effect1_dropShadow_272_1829" result="shape"/>
</filter>
<filter id="filter1_d_272_1829" x="68.8" y="203.8" width="518.4" height="102.4" filterUnits="userSpaceOnUse" color-interpolation-filters="sRGB">
<feFlood flood-opacity="0" result="BackgroundImageFix"/>
<feColorMatrix in="SourceAlpha" type="matrix" values="0 0 0 0 0 0 0 0 0 0 0 0 0 0 0 0 0 0 127 0" result="hardAlpha"/>
<feOffset dy="21"/>
<feGaussianBlur stdDeviation="10.6"/>
<feComposite in2="hardAlpha" operator="out"/>
<feColorMatrix type="matrix" values="0 0 0 0 0 0 0 0 0 0 0 0 0 0 0 0 0 0 0.06 0"/>
<feBlend mode="normal" in2="BackgroundImageFix" result="effect1_dropShadow_272_1829"/>
<feBlend mode="normal" in="SourceGraphic" in2="effect1_dropShadow_272_1829" result="shape"/>
</filter>
<clipPath id="clip0_272_1829">
<rect width="440" height="500" rx="16" fill="white"/>
</clipPath>
<clipPath id="clip1_272_1829">
<rect width="11.3503" height="11.3503" fill="white" transform="translate(126.483 165.297)"/>
</clipPath>
<clipPath id="clip2_272_1829">
<rect width="11.3503" height="11.3503" fill="white" transform="translate(108.647 176.647) rotate(-180)"/>
</clipPath>
</defs>
</svg>
