<svg width="531" height="610" viewBox="0 0 531 610" fill="none" xmlns="http://www.w3.org/2000/svg">
<g clip-path="url(#clip0_295_679)">
<rect x="71" width="460" height="640" rx="16" fill="white"/>
<path d="M114.2 40.96H112.44L110.152 34.432C110.056 34.1547 109.933 33.9573 109.784 33.84C109.635 33.7227 109.411 33.664 109.112 33.664H107.384C107.085 33.664 106.861 33.7227 106.712 33.84C106.563 33.9573 106.44 34.1547 106.344 34.432L104.056 40.96H102.296L104.952 33.664H102.52V32.224H113.976V33.664H111.544L114.2 40.96ZM114.984 45.568H101.512V44.128H107.448V39.52H109.048V44.128H114.984V45.568ZM128.588 46.528H126.988V42.336H117.42V40.896H128.588V46.528ZM128.588 40.16H126.988V32.064H128.588V40.16ZM125.068 39.84H123.388L121.58 34.016C121.537 33.888 121.495 33.8027 121.452 33.76C121.42 33.7067 121.345 33.68 121.228 33.68H120.124C120.007 33.68 119.927 33.7067 119.884 33.76C119.852 33.8133 119.815 33.8987 119.772 34.016L117.868 39.84H116.188L118.204 33.68H116.236V32.24H125.292V33.68H123.164L125.068 39.84ZM143.056 40.48H131.52V33.184C131.52 32.8427 131.595 32.5973 131.744 32.448C131.893 32.2987 132.139 32.224 132.48 32.224H142.976V33.664H133.12V39.04H143.056V40.48ZM143.984 45.568H130.512V44.128H136.448V41.44H138.048V44.128H143.984V45.568ZM161.2 46.528H150.016V42H151.616V45.088H161.2V46.528ZM161.104 43.232H159.504V32.064H161.104V35.952H162.992V37.424H161.104V43.232ZM157.68 38.272H156.08L156.448 34.048C156.459 33.8987 156.443 33.8027 156.4 33.76C156.368 33.7067 156.278 33.68 156.128 33.68H149.776V32.24H157.456C157.723 32.24 157.904 32.3093 158 32.448C158.096 32.576 158.134 32.7627 158.112 33.008L157.68 38.272ZM158.704 40.768H149.232V39.328H152.128V36.176H153.728V39.328H158.704V40.768ZM176.244 46.528H174.644V32.064H176.244V46.528ZM173.364 45.12H164.308V37.616H170.82V33.648H164.276V32.24H172.42V37.792C172.42 38.208 172.324 38.512 172.132 38.704C171.94 38.896 171.636 38.992 171.22 38.992H165.908V43.712H173.364V45.12Z" fill="black"/>
<g clip-path="url(#clip1_295_679)">
<rect x="101" y="93" width="400" height="542" rx="10" fill="#F5F6FB"/>
<mask id="path-4-inside-1_295_679" fill="white">
<path d="M359.415 279.967H445.767V324.132H359.415V279.967Z"/>
</mask>
<path d="M359.415 279.967V278.648H358.096V279.967H359.415ZM445.767 279.967H447.085V278.648H445.767V279.967ZM359.415 279.967V281.285H445.767V279.967V278.648H359.415V279.967ZM445.767 279.967H444.449V324.132H445.767H447.085V279.967H445.767ZM359.415 324.132H360.733V279.967H359.415H358.096V324.132H359.415Z" fill="#D3D6E8" mask="url(#path-4-inside-1_295_679)"/>
<rect x="257.901" y="148.791" width="79.1014" height="36.914" rx="18.457" fill="url(#paint0_linear_295_679)"/>
<rect x="259.219" y="150.109" width="76.4647" height="34.2773" rx="17.1386" stroke="white" stroke-opacity="0.6" stroke-width="2.63671"/>
<path d="M288.324 163.417V172.204H287.155V167.792H286.306V171.779H285.176V163.562H286.306V166.807H287.155V163.417H288.324ZM284.249 164.431V165.426H282.212V169.172C283.061 169.167 283.814 169.124 284.664 168.97L284.751 169.974C283.679 170.177 282.743 170.205 281.584 170.215H280.976V164.431H284.249ZM297.152 170.244V171.229H289.109V170.244H291.108V168.574H289.775V167.579H290.953V165.107H289.736V164.122H296.476V165.107H295.24V167.579H296.438V168.574H295.115V170.244H297.152ZM292.189 167.579H294.024V165.107H292.189V167.579ZM292.344 170.244H293.879V168.574H292.344V170.244ZM304.851 163.417V172.224H303.605V163.417H304.851ZM300.081 164.035C301.404 164.035 302.389 165.252 302.389 167.164C302.389 169.095 301.404 170.302 300.081 170.302C298.729 170.302 297.744 169.095 297.754 167.164C297.744 165.252 298.729 164.035 300.081 164.035ZM300.081 165.146C299.395 165.146 298.941 165.86 298.941 167.164C298.941 168.477 299.395 169.182 300.081 169.182C300.747 169.182 301.201 168.477 301.201 167.164C301.201 165.86 300.747 165.146 300.081 165.146ZM309.112 165.406C309.102 166.98 309.778 168.574 311.188 169.25L310.445 170.234C309.503 169.771 308.871 168.902 308.504 167.84C308.122 168.979 307.442 169.911 306.447 170.399L305.684 169.404C307.171 168.718 307.876 167.038 307.876 165.406V164.093H309.112V165.406ZM312.81 163.417V166.807H314.104V167.849H312.81V172.204H311.574V163.417H312.81Z" fill="white"/>
<rect x="257.901" y="223.938" width="79.1014" height="36.914" rx="18.457" fill="url(#paint1_linear_295_679)"/>
<rect x="259.219" y="225.256" width="76.4647" height="34.2773" rx="17.1386" stroke="white" stroke-opacity="0.66" stroke-width="2.63671"/>
<rect x="363.37" y="223.938" width="79.1014" height="36.914" rx="18.457" fill="url(#paint2_linear_295_679)"/>
<rect x="364.688" y="225.256" width="76.4647" height="34.2773" rx="17.1386" stroke="white" stroke-opacity="0.66" stroke-width="2.63671"/>
<rect x="323.819" y="289.855" width="73.1688" height="34.2773" rx="17.1386" fill="#0BE39A"/>
<rect x="325.137" y="291.173" width="70.5321" height="31.6406" rx="15.8203" stroke="white" stroke-opacity="0.66" stroke-width="2.63671"/>
<g filter="url(#filter0_d_295_679)">
<circle cx="390.396" cy="296.447" r="6.59178" fill="white"/>
</g>
<g clip-path="url(#clip2_295_679)">
<path d="M390.643 295.033L391.808 296.198L389.089 298.917H387.924V297.752L390.643 295.033ZM391.031 294.645L391.614 294.062C391.721 293.955 391.895 293.955 392.003 294.062L392.779 294.839C392.887 294.946 392.887 295.12 392.779 295.227L392.197 295.81L391.031 294.645Z" fill="black" fill-opacity="0.19"/>
</g>
<rect x="323.819" y="332.043" width="73.1688" height="26.3671" rx="13.1836" fill="white"/>
<g clip-path="url(#clip3_295_679)">
<path d="M337.002 353.137C341.371 353.137 344.913 349.595 344.913 345.227C344.913 340.858 341.371 337.316 337.002 337.316C332.634 337.316 329.092 340.858 329.092 345.227C329.092 349.595 332.634 353.137 337.002 353.137Z" fill="#00AEAE"/>
<path d="M338.574 348.192H334.917C334.762 348.192 334.609 348.137 334.488 348.041C334.367 347.944 334.282 347.804 334.251 347.653C333.765 345.366 333.418 343.824 333.326 343.54C333.002 343.508 332.747 343.233 332.747 342.901C332.747 342.548 333.034 342.26 333.387 342.259H333.389C333.734 342.259 334.021 342.539 334.03 342.884C334.034 343.038 333.983 343.187 333.888 343.305L335.226 344.85C335.285 344.917 335.37 344.952 335.459 344.942C335.549 344.933 335.625 344.881 335.669 344.803L336.42 343.442C336.238 343.323 336.125 343.121 336.125 342.901C336.125 342.734 336.189 342.576 336.305 342.455C336.421 342.336 336.575 342.266 336.741 342.259C336.744 342.259 336.746 342.259 336.749 342.259C336.915 342.265 337.071 342.336 337.185 342.455C337.301 342.576 337.365 342.734 337.365 342.901C337.365 343.121 337.253 343.323 337.072 343.44L337.823 344.802C337.867 344.88 337.943 344.932 338.032 344.941C338.122 344.95 338.207 344.916 338.265 344.849L339.604 343.304C339.507 343.186 339.457 343.037 339.46 342.883C339.469 342.539 339.756 342.259 340.102 342.259H340.104C340.457 342.26 340.744 342.548 340.744 342.901C340.744 343.233 340.489 343.508 340.165 343.54C340.073 343.824 339.726 345.365 339.239 347.653C339.207 347.803 339.122 347.943 339.002 348.041C338.881 348.138 338.729 348.192 338.574 348.192Z" fill="white"/>
</g>
<rect x="158.535" y="331.856" width="73.1688" height="26.3671" rx="13.1836" fill="white"/>
<g clip-path="url(#clip4_295_679)">
<path d="M171.718 352.95C176.087 352.95 179.629 349.409 179.629 345.04C179.629 340.671 176.087 337.13 171.718 337.13C167.35 337.13 163.808 340.671 163.808 345.04C163.808 349.409 167.35 352.95 171.718 352.95Z" fill="#00AEAE"/>
<path d="M173.289 348.006H169.633C169.478 348.006 169.324 347.951 169.204 347.855C169.083 347.758 168.998 347.618 168.966 347.467C168.481 345.18 168.134 343.637 168.042 343.354C167.718 343.322 167.462 343.047 167.462 342.715C167.462 342.362 167.749 342.074 168.102 342.073H168.104C168.449 342.073 168.737 342.353 168.746 342.698C168.75 342.852 168.698 343.001 168.603 343.119L169.941 344.664C170.001 344.731 170.086 344.766 170.175 344.756C170.265 344.747 170.341 344.695 170.384 344.617L171.136 343.256C170.954 343.137 170.841 342.935 170.841 342.715C170.841 342.548 170.904 342.39 171.021 342.269C171.137 342.15 171.291 342.08 171.457 342.073C171.46 342.073 171.462 342.073 171.465 342.073C171.631 342.079 171.786 342.15 171.901 342.269C172.017 342.39 172.081 342.548 172.081 342.715C172.081 342.935 171.968 343.137 171.787 343.254L172.539 344.616C172.582 344.694 172.658 344.746 172.747 344.755C172.837 344.764 172.922 344.73 172.981 344.663L174.32 343.118C174.223 343 174.172 342.851 174.175 342.697C174.185 342.353 174.472 342.073 174.818 342.073H174.82C175.173 342.074 175.46 342.362 175.46 342.715C175.46 343.047 175.204 343.322 174.88 343.354C174.788 343.637 174.441 345.179 173.955 347.467C173.923 347.617 173.838 347.757 173.717 347.855C173.597 347.952 173.444 348.006 173.289 348.006Z" fill="white"/>
</g>
<rect x="408.853" y="332.043" width="73.1688" height="26.3671" rx="13.1836" fill="white"/>
<g clip-path="url(#clip5_295_679)">
<path d="M422.036 353.137C426.405 353.137 429.947 349.595 429.947 345.227C429.947 340.858 426.405 337.316 422.036 337.316C417.668 337.316 414.126 340.858 414.126 345.227C414.126 349.595 417.668 353.137 422.036 353.137Z" fill="#00AEAE"/>
<path d="M423.608 348.192H419.951C419.796 348.192 419.643 348.137 419.522 348.041C419.401 347.944 419.316 347.804 419.285 347.653C418.799 345.366 418.452 343.824 418.36 343.54C418.036 343.508 417.781 343.233 417.781 342.901C417.781 342.548 418.068 342.26 418.42 342.259H418.422C418.768 342.259 419.055 342.539 419.064 342.884C419.068 343.038 419.017 343.187 418.922 343.305L420.26 344.85C420.319 344.917 420.404 344.952 420.493 344.942C420.583 344.933 420.659 344.881 420.703 344.803L421.454 343.442C421.272 343.323 421.159 343.121 421.159 342.901C421.159 342.734 421.223 342.576 421.339 342.455C421.455 342.336 421.609 342.266 421.775 342.259C421.778 342.259 421.78 342.259 421.783 342.259C421.949 342.265 422.105 342.336 422.219 342.455C422.335 342.576 422.399 342.734 422.399 342.901C422.399 343.121 422.287 343.323 422.106 343.44L422.857 344.802C422.901 344.88 422.977 344.932 423.066 344.941C423.156 344.95 423.241 344.916 423.299 344.849L424.638 343.304C424.541 343.186 424.491 343.037 424.494 342.883C424.503 342.539 424.79 342.259 425.136 342.259H425.138C425.491 342.26 425.778 342.548 425.778 342.901C425.778 343.233 425.523 343.508 425.198 343.54C425.107 343.824 424.759 345.365 424.273 347.653C424.241 347.803 424.156 347.943 424.036 348.041C423.915 348.138 423.763 348.192 423.608 348.192Z" fill="white"/>
</g>
<rect x="323.819" y="363.024" width="73.1688" height="26.3671" rx="13.1836" fill="white"/>
<g clip-path="url(#clip6_295_679)">
<path d="M337.002 384.118C341.371 384.118 344.913 380.577 344.913 376.208C344.913 371.839 341.371 368.298 337.002 368.298C332.634 368.298 329.092 371.839 329.092 376.208C329.092 380.577 332.634 384.118 337.002 384.118Z" fill="#EEEEEE"/>
<path d="M337.003 376.186C337.953 376.186 338.723 375.416 338.723 374.467C338.723 373.517 337.953 372.747 337.003 372.747C336.054 372.747 335.284 373.517 335.284 374.467C335.284 375.416 336.054 376.186 337.003 376.186Z" fill="#ADADAD"/>
<path d="M339.454 379.668H334.551C334.154 379.668 333.83 379.348 333.83 378.949C333.83 377.868 334.706 376.992 335.787 376.992H338.214C339.295 376.992 340.171 377.869 340.171 378.949C340.173 379.348 339.853 379.668 339.454 379.668Z" fill="#ADADAD"/>
</g>
<rect x="158.535" y="362.837" width="73.1688" height="26.3671" rx="13.1836" fill="white"/>
<g clip-path="url(#clip7_295_679)">
<path d="M171.718 383.931C176.087 383.931 179.629 380.39 179.629 376.021C179.629 371.652 176.087 368.111 171.718 368.111C167.35 368.111 163.808 371.652 163.808 376.021C163.808 380.39 167.35 383.931 171.718 383.931Z" fill="#EEEEEE"/>
<path d="M171.719 375.999C172.669 375.999 173.439 375.23 173.439 374.28C173.439 373.33 172.669 372.561 171.719 372.561C170.77 372.561 170 373.33 170 374.28C170 375.23 170.77 375.999 171.719 375.999Z" fill="#ADADAD"/>
<path d="M174.17 379.482H169.267C168.869 379.482 168.546 379.161 168.546 378.763C168.546 377.681 169.422 376.805 170.503 376.805H172.929C174.011 376.805 174.887 377.682 174.887 378.763C174.889 379.161 174.569 379.482 174.17 379.482Z" fill="#ADADAD"/>
</g>
<rect x="323.819" y="393.75" width="73.1688" height="26.3671" rx="13.1836" fill="white"/>
<g clip-path="url(#clip8_295_679)">
<path d="M337.002 414.844C341.371 414.844 344.913 411.302 344.913 406.934C344.913 402.565 341.371 399.023 337.002 399.023C332.634 399.023 329.092 402.565 329.092 406.934C329.092 411.302 332.634 414.844 337.002 414.844Z" fill="#EEEEEE"/>
<path d="M337.003 406.911C337.953 406.911 338.723 406.141 338.723 405.192C338.723 404.242 337.953 403.472 337.003 403.472C336.054 403.472 335.284 404.242 335.284 405.192C335.284 406.141 336.054 406.911 337.003 406.911Z" fill="#ADADAD"/>
<path d="M339.454 410.395H334.551C334.154 410.395 333.83 410.074 333.83 409.676C333.83 408.594 334.706 407.718 335.787 407.718H338.214C339.295 407.718 340.171 408.595 340.171 409.676C340.173 410.074 339.853 410.395 339.454 410.395Z" fill="#ADADAD"/>
</g>
<rect x="158.535" y="393.563" width="73.1688" height="26.3671" rx="13.1836" fill="white"/>
<g clip-path="url(#clip9_295_679)">
<path d="M171.718 414.658C176.087 414.658 179.629 411.116 179.629 406.748C179.629 402.379 176.087 398.837 171.718 398.837C167.35 398.837 163.808 402.379 163.808 406.748C163.808 411.116 167.35 414.658 171.718 414.658Z" fill="#EEEEEE"/>
<path d="M171.719 406.726C172.669 406.726 173.439 405.956 173.439 405.006C173.439 404.056 172.669 403.287 171.719 403.287C170.77 403.287 170 404.056 170 405.006C170 405.956 170.77 406.726 171.719 406.726Z" fill="#ADADAD"/>
<path d="M174.17 410.208H169.267C168.869 410.208 168.546 409.887 168.546 409.489C168.546 408.407 169.422 407.531 170.503 407.531H172.929C174.011 407.531 174.887 408.408 174.887 409.489C174.889 409.887 174.569 410.208 174.17 410.208Z" fill="#ADADAD"/>
</g>
<rect x="323.819" y="424.261" width="73.1688" height="26.3671" rx="13.1836" fill="white"/>
<g clip-path="url(#clip10_295_679)">
<path d="M337.002 445.355C341.371 445.355 344.913 441.813 344.913 437.445C344.913 433.076 341.371 429.535 337.002 429.535C332.634 429.535 329.092 433.076 329.092 437.445C329.092 441.813 332.634 445.355 337.002 445.355Z" fill="#EEEEEE"/>
<path d="M337.003 437.422C337.953 437.422 338.723 436.652 338.723 435.703C338.723 434.753 337.953 433.983 337.003 433.983C336.054 433.983 335.284 434.753 335.284 435.703C335.284 436.652 336.054 437.422 337.003 437.422Z" fill="#ADADAD"/>
<path d="M339.454 440.905H334.551C334.154 440.905 333.83 440.585 333.83 440.186C333.83 439.105 334.706 438.229 335.787 438.229H338.214C339.295 438.229 340.171 439.106 340.171 440.186C340.173 440.585 339.853 440.905 339.454 440.905Z" fill="#ADADAD"/>
</g>
<rect x="408.724" y="393.75" width="73.1688" height="26.3671" rx="13.1836" fill="white"/>
<g clip-path="url(#clip11_295_679)">
<path d="M421.907 414.844C426.276 414.844 429.818 411.302 429.818 406.934C429.818 402.565 426.276 399.023 421.907 399.023C417.539 399.023 413.997 402.565 413.997 406.934C413.997 411.302 417.539 414.844 421.907 414.844Z" fill="#EEEEEE"/>
<path d="M421.908 406.911C422.858 406.911 423.628 406.141 423.628 405.192C423.628 404.242 422.858 403.472 421.908 403.472C420.959 403.472 420.189 404.242 420.189 405.192C420.189 406.141 420.959 406.911 421.908 406.911Z" fill="#ADADAD"/>
<path d="M424.36 410.395H419.456C419.059 410.395 418.735 410.074 418.735 409.676C418.735 408.594 419.612 407.718 420.692 407.718H423.119C424.2 407.718 425.076 408.595 425.076 409.676C425.078 410.074 424.758 410.395 424.36 410.395Z" fill="#ADADAD"/>
</g>
<rect x="408.853" y="363.024" width="73.1688" height="26.3671" rx="13.1836" fill="white"/>
<g clip-path="url(#clip12_295_679)">
<path d="M422.036 384.118C426.405 384.118 429.947 380.577 429.947 376.208C429.947 371.839 426.405 368.298 422.036 368.298C417.668 368.298 414.126 371.839 414.126 376.208C414.126 380.577 417.668 384.118 422.036 384.118Z" fill="#EEEEEE"/>
<path d="M422.037 376.186C422.987 376.186 423.757 375.416 423.757 374.467C423.757 373.517 422.987 372.747 422.037 372.747C421.088 372.747 420.318 373.517 420.318 374.467C420.318 375.416 421.088 376.186 422.037 376.186Z" fill="#ADADAD"/>
<path d="M424.489 379.668H419.585C419.188 379.668 418.865 379.348 418.865 378.949C418.865 377.868 419.741 376.992 420.821 376.992H423.248C424.329 376.992 425.205 377.869 425.205 378.949C425.207 379.348 424.887 379.668 424.489 379.668Z" fill="#ADADAD"/>
</g>
<rect x="408.853" y="289.855" width="73.1688" height="34.2773" rx="17.1386" fill="#0BE39A"/>
<rect x="410.171" y="291.173" width="70.5321" height="31.6406" rx="15.8203" stroke="white" stroke-opacity="0.66" stroke-width="2.63671"/>
<g filter="url(#filter1_d_295_679)">
<circle cx="475.43" cy="296.447" r="6.59178" fill="white"/>
</g>
<g clip-path="url(#clip13_295_679)">
<path d="M475.677 295.033L476.842 296.198L474.123 298.917H472.958V297.752L475.677 295.033ZM476.065 294.645L476.648 294.062C476.755 293.955 476.929 293.955 477.036 294.062L477.813 294.839C477.921 294.946 477.921 295.12 477.813 295.227L477.231 295.81L476.065 294.645Z" fill="black" fill-opacity="0.19"/>
</g>
<g filter="url(#filter2_d_295_679)">
<circle cx="435.879" cy="230.529" r="6.59178" fill="white"/>
</g>
<path d="M436.126 229.116L437.291 230.281L434.572 233H433.407V231.835L436.126 229.116ZM436.515 228.728L437.097 228.145C437.205 228.038 437.378 228.038 437.486 228.145L438.263 228.922C438.37 229.029 438.37 229.203 438.263 229.31L437.68 229.893L436.515 228.728Z" fill="black" fill-opacity="0.19"/>
<g filter="url(#filter3_d_295_679)">
<circle cx="330.411" cy="230.529" r="6.59178" fill="white"/>
</g>
<g clip-path="url(#clip14_295_679)">
<path d="M330.658 229.116L331.823 230.281L329.104 233H327.939V231.835L330.658 229.116ZM331.046 228.728L331.629 228.145C331.736 228.038 331.91 228.038 332.017 228.145L332.794 228.922C332.902 229.029 332.902 229.203 332.794 229.31L332.212 229.893L331.046 228.728Z" fill="black" fill-opacity="0.19"/>
</g>
<rect x="152.433" y="223.938" width="79.1014" height="36.914" rx="18.457" fill="url(#paint3_linear_295_679)"/>
<rect x="153.751" y="225.256" width="76.4647" height="34.2773" rx="17.1386" stroke="white" stroke-opacity="0.66" stroke-width="2.63671"/>
<mask id="path-64-inside-2_295_679" fill="white">
<path d="M191.324 202.185H402.92V223.938H191.324V202.185Z"/>
</mask>
<path d="M191.324 202.185V200.867H190.006V202.185H191.324ZM402.92 202.185H404.239V200.867H402.92V202.185ZM191.324 202.185V203.503H402.92V202.185V200.867H191.324V202.185ZM402.92 202.185H401.602V223.938H402.92H404.239V202.185H402.92ZM191.324 223.938H192.643V202.185H191.324H190.006V223.938H191.324Z" fill="#D3D6E8" mask="url(#path-64-inside-2_295_679)"/>
<rect x="296.793" y="185.705" width="1.31836" height="38.2323" fill="#D3D6E8"/>
<rect x="402.261" y="260.852" width="1.31836" height="19.1162" fill="#D3D6E8"/>
<rect x="191.661" y="261.245" width="1.74348" height="34.8696" fill="#D3D6E8"/>
<path d="M285.092 243.092V244.058H277.058V243.092H280.457V242.551H278.063V238.776H284.156V239.722H279.299V240.215H283.953V241.103H279.299V241.605H284.233V242.551H281.693V243.092H285.092ZM281.075 244.463C283.016 244.453 284.127 244.975 284.136 245.902C284.127 246.848 283.016 247.35 281.075 247.35C279.106 247.35 277.995 246.848 277.995 245.902C277.995 244.975 279.106 244.453 281.075 244.463ZM281.075 245.371C279.81 245.371 279.221 245.535 279.231 245.902C279.221 246.278 279.81 246.443 281.075 246.443C282.311 246.443 282.891 246.278 282.9 245.902C282.891 245.535 282.311 245.371 281.075 245.371ZM292.434 238.563V240.678H293.621V241.702H292.434V243.71H291.198V238.563H292.434ZM287.905 244.048V244.714H291.198V244.048H292.434V247.254H286.679V244.048H287.905ZM287.905 246.288H291.198V245.66H287.905V246.288ZM290.676 239.336V240.301H285.462V239.336H287.461V238.505H288.687V239.336H290.676ZM288.069 240.552C289.344 240.552 290.232 241.17 290.232 242.107C290.232 243.044 289.344 243.662 288.069 243.662C286.775 243.662 285.887 243.044 285.887 242.107C285.887 241.17 286.775 240.552 288.069 240.552ZM288.069 241.46C287.48 241.45 287.084 241.692 287.094 242.107C287.084 242.532 287.48 242.764 288.069 242.764C288.658 242.764 289.064 242.532 289.064 242.107C289.064 241.692 288.658 241.45 288.069 241.46ZM301.426 238.563V247.35H300.239V242.88H299.437V246.964H298.288V238.795H299.437V241.895H300.239V238.563H301.426ZM297.67 239.645C297.66 242.097 296.927 244.106 294.455 245.545L293.74 244.695C295.531 243.642 296.299 242.353 296.473 240.63H294.184V239.645H297.67ZM303.718 238.959V240.002H305.514V238.959H306.75V242.793H302.491V238.959H303.718ZM303.718 241.827H305.514V240.929H303.718V241.827ZM309.202 238.563V240.272H310.39V241.267H309.202V243.034H307.966V238.563H309.202ZM309.202 243.362V245.747H304.596V246.317H309.453V247.292H303.389V244.869H307.976V244.318H303.37V243.362H309.202ZM315.356 239.065V240.05H312.334V240.736H315.095V241.682H312.334V242.406C313.879 242.402 314.859 242.377 315.974 242.194L316.099 243.15C314.844 243.362 313.734 243.382 311.851 243.382H311.098V239.065H315.356ZM317.973 238.573V243.787H316.737V238.573H317.973ZM317.973 244.144V247.254H312.083V244.144H317.973ZM313.299 245.1V246.269H316.766V245.1H313.299Z" fill="white"/>
<path d="M179.015 238.573V244.985H177.789V241.837H176.35V240.842H177.789V238.573H179.015ZM179.227 246.211V247.196H173.183V244.425H174.419V246.211H179.227ZM174.93 240.292C174.93 241.306 175.548 242.397 176.949 242.851L176.34 243.826C175.365 243.512 174.699 242.87 174.312 242.068C173.926 242.957 173.226 243.662 172.188 244.009L171.561 243.005C173.009 242.551 173.666 241.402 173.675 240.282V240.147H171.908V239.162H176.678V240.147H174.93V240.292ZM188.133 239.78V240.784H186.965V241.653H188.133V242.667H186.965V243.903H185.729V238.573H186.965V239.78H188.133ZM184.338 239.056V241.75H181.538V242.59C182.991 242.58 183.976 242.532 185.091 242.329L185.227 243.314C183.962 243.536 182.832 243.594 181.055 243.594H180.312V240.813H183.141V240.041H180.302V239.056H184.338ZM186.965 244.309V247.341H185.729V245.294H181.046V244.309H186.965ZM195.764 238.563V247.35H194.519V238.563H195.764ZM193.128 239.481C193.128 242.146 192.191 244.357 189.053 245.844L188.406 244.859C190.675 243.787 191.675 242.397 191.873 240.446H188.879V239.481H193.128ZM202.275 239.21V240.108H197.061V239.21H199.05V238.505H200.276V239.21H202.275ZM199.668 240.311C200.972 240.311 201.86 240.823 201.87 241.644C201.86 242.315 201.242 242.773 200.276 242.909V243.324C200.981 243.295 201.686 243.242 202.352 243.16L202.439 243.98C200.566 244.309 198.509 244.338 196.964 244.338L196.8 243.401C197.481 243.401 198.249 243.396 199.05 243.372V242.909C198.07 242.773 197.457 242.315 197.467 241.644C197.457 240.823 198.336 240.311 199.668 240.311ZM199.668 241.132C199.04 241.132 198.654 241.296 198.654 241.644C198.654 241.962 199.04 242.126 199.668 242.126C200.267 242.126 200.682 241.962 200.682 241.644C200.682 241.296 200.267 241.132 199.668 241.132ZM204.148 238.583V244.511H202.893V238.583H204.148ZM204.148 244.859V247.35H202.893V245.805H198.036V244.859H204.148ZM209.887 239.065V240.05H206.865V240.736H209.626V241.682H206.865V242.406C208.41 242.402 209.39 242.377 210.505 242.194L210.63 243.15C209.375 243.362 208.265 243.382 206.382 243.382H205.629V239.065H209.887ZM212.504 238.573V243.787H211.268V238.573H212.504ZM212.504 244.144V247.254H206.614V244.144H212.504ZM207.83 245.1V246.269H211.297V245.1H207.83Z" fill="white"/>
<path d="M397.698 238.573V244.888H396.462V238.573H397.698ZM397.93 246.211V247.196H391.808V244.251H393.054V246.211H397.93ZM392.88 239.133C394.232 239.133 395.284 240.06 395.284 241.344C395.284 242.657 394.232 243.575 392.88 243.575C391.528 243.575 390.476 242.657 390.476 241.344C390.476 240.06 391.528 239.133 392.88 239.133ZM392.88 240.205C392.194 240.195 391.673 240.63 391.683 241.344C391.673 242.078 392.194 242.503 392.88 242.503C393.546 242.503 394.068 242.078 394.068 241.344C394.068 240.63 393.546 240.195 392.88 240.205ZM401.96 240.552C401.95 242.126 402.626 243.72 404.036 244.396L403.292 245.38C402.351 244.917 401.718 244.048 401.351 242.986C400.97 244.125 400.289 245.057 399.294 245.545L398.532 244.55C400.019 243.864 400.724 242.184 400.724 240.552V239.239H401.96V240.552ZM405.658 238.563V241.953H406.952V242.995H405.658V247.35H404.422V238.563H405.658ZM411.85 239.065V240.05H408.828V240.736H411.589V241.682H408.828V242.406C410.373 242.402 411.353 242.377 412.468 242.194L412.594 243.15C411.338 243.362 410.228 243.382 408.345 243.382H407.592V239.065H411.85ZM414.467 238.573V243.787H413.231V238.573H414.467ZM414.467 244.144V247.254H408.577V244.144H414.467ZM409.793 245.1V246.269H413.26V245.1H409.793Z" fill="white"/>
<path d="M353.457 302.699V308.593H352.303V302.699H353.457ZM353.673 309.827V310.746H347.959V307.998H349.122V309.827H353.673ZM348.96 303.221C350.221 303.221 351.204 304.086 351.204 305.285C351.204 306.511 350.221 307.367 348.96 307.367C347.698 307.367 346.716 306.511 346.716 305.285C346.716 304.086 347.698 303.221 348.96 303.221ZM348.96 304.222C348.32 304.213 347.833 304.618 347.842 305.285C347.833 305.97 348.32 306.367 348.96 306.367C349.582 306.367 350.068 305.97 350.068 305.285C350.068 304.618 349.582 304.213 348.96 304.222ZM357.423 304.546C357.414 306.015 358.045 307.502 359.361 308.133L358.667 309.052C357.788 308.62 357.198 307.808 356.855 306.817C356.499 307.881 355.864 308.75 354.936 309.205L354.224 308.277C355.612 307.637 356.27 306.069 356.27 304.546V303.32H357.423V304.546ZM360.875 302.69V305.853H362.082V306.826H360.875V310.891H359.721V302.69H360.875ZM365.301 303.537V310.062H363.94V304.825H363.904L362.408 305.763V304.564L364.021 303.537H365.301ZM370.808 303.158V304.077H367.987V304.717H370.565V305.6H367.987V306.276C369.429 306.272 370.344 306.249 371.385 306.078L371.502 306.97C370.331 307.169 369.294 307.187 367.537 307.187H366.834V303.158H370.808ZM373.251 302.699V307.565H372.097V302.699H373.251ZM373.251 307.899V310.801H367.753V307.899H373.251ZM368.889 308.791V309.881H372.124V308.791H368.889Z" fill="white"/>
<path d="M438.178 302.699V308.593H437.025V302.699H438.178ZM438.394 309.827V310.746H432.681V307.998H433.843V309.827H438.394ZM433.681 303.221C434.943 303.221 435.925 304.086 435.925 305.285C435.925 306.511 434.943 307.367 433.681 307.367C432.419 307.367 431.437 306.511 431.437 305.285C431.437 304.086 432.419 303.221 433.681 303.221ZM433.681 304.222C433.041 304.213 432.555 304.618 432.564 305.285C432.555 305.97 433.041 306.367 433.681 306.367C434.303 306.367 434.79 305.97 434.79 305.285C434.79 304.618 434.303 304.213 433.681 304.222ZM442.145 304.546C442.136 306.015 442.766 307.502 444.082 308.133L443.388 309.052C442.51 308.62 441.919 307.808 441.577 306.817C441.221 307.881 440.585 308.75 439.657 309.205L438.945 308.277C440.333 307.637 440.991 306.069 440.991 304.546V303.32H442.145V304.546ZM445.596 302.69V305.853H446.804V306.826H445.596V310.891H444.443V302.69H445.596ZM447.21 310.062L447.201 309.079L449.545 306.925C450.157 306.339 450.482 305.979 450.482 305.465C450.482 304.889 450.04 304.528 449.445 304.528C448.833 304.528 448.436 304.916 448.436 305.537H447.147C447.138 304.258 448.085 303.447 449.463 303.447C450.86 303.447 451.789 304.24 451.789 305.375C451.789 306.114 451.428 306.727 450.085 307.944L449.094 308.908V308.944H451.879V310.062H447.21ZM456.836 303.158V304.077H454.016V304.717H456.593V305.6H454.016V306.276C455.458 306.272 456.372 306.249 457.413 306.078L457.53 306.97C456.359 307.169 455.322 307.187 453.565 307.187H452.862V303.158H456.836ZM459.279 302.699V307.565H458.125V302.699H459.279ZM459.279 307.899V310.801H453.781V307.899H459.279ZM454.917 308.791V309.881H458.152V308.791H454.917Z" fill="white"/>
<g filter="url(#filter4_d_295_679)">
<circle cx="224.942" cy="230.529" r="6.59178" fill="white"/>
</g>
<path d="M225.189 229.116L226.355 230.281L223.636 233H222.47V231.835L225.189 229.116ZM225.578 228.728L226.16 228.145C226.268 228.038 226.442 228.038 226.549 228.145L227.326 228.922C227.433 229.029 227.433 229.203 227.326 229.31L226.743 229.893L225.578 228.728Z" fill="black" fill-opacity="0.19"/>
<rect x="156.791" y="290.013" width="73.1688" height="34.2773" rx="17.1386" fill="#0BE39A"/>
<rect x="158.11" y="291.332" width="70.5321" height="31.6406" rx="15.8203" stroke="white" stroke-opacity="0.66" stroke-width="2.63671"/>
<path d="M188.472 302.874V311.021H187.463V302.874H188.472ZM186.039 303.739C186.039 306.163 185.101 308.227 182.245 309.579L181.722 308.777C183.853 307.763 184.845 306.384 185.02 304.532H182.136V303.739H186.039ZM194.592 303.523V304.262H189.771V303.523H191.672V302.829H192.673V303.523H194.592ZM192.186 304.496C193.376 304.487 194.187 304.965 194.187 305.722C194.187 306.362 193.592 306.79 192.673 306.902V307.335C193.362 307.303 194.052 307.245 194.7 307.164L194.773 307.849C193.024 308.146 191.096 308.173 189.654 308.173L189.518 307.398C190.167 307.402 190.906 307.398 191.672 307.371V306.893C190.749 306.785 190.167 306.357 190.176 305.722C190.167 304.965 190.969 304.487 192.186 304.496ZM192.186 305.172C191.546 305.163 191.132 305.361 191.141 305.722C191.132 306.055 191.546 306.253 192.186 306.244C192.808 306.253 193.222 306.055 193.231 305.722C193.222 305.361 192.808 305.163 192.186 305.172ZM196.278 302.892V308.371H195.268V302.892H196.278ZM196.278 308.705V311.021H195.268V309.489H190.672V308.705H196.278ZM201.686 303.351V304.163H198.766V304.92H201.452V305.704H198.766V306.506C200.289 306.501 201.217 306.474 202.29 306.298L202.389 307.083C201.217 307.29 200.199 307.308 198.442 307.299H197.748V303.351H201.686ZM204.083 302.883V307.722H203.074V302.883H204.083ZM204.083 308.083V310.922H198.676V308.083H204.083ZM199.667 308.858V310.111H203.101V308.858H199.667Z" fill="white"/>
<g filter="url(#filter5_d_295_679)">
<circle cx="223.392" cy="296.605" r="6.59178" fill="white"/>
</g>
<g clip-path="url(#clip15_295_679)">
<path d="M223.639 295.191L224.805 296.356L222.086 299.075H220.92V297.91L223.639 295.191ZM224.028 294.802L224.61 294.22C224.718 294.112 224.892 294.112 224.999 294.22L225.776 294.996C225.883 295.104 225.883 295.278 225.776 295.385L225.193 295.968L224.028 294.802Z" fill="black" fill-opacity="0.19"/>
</g>
</g>
<path opacity="0.88" d="M106.584 68.143C105.797 68.143 105.104 68.0427 104.506 67.8422C103.907 67.6417 103.442 67.3559 103.11 66.9848C102.781 66.6137 102.616 66.1798 102.616 65.683C102.616 65.1802 102.781 64.7418 103.11 64.3677C103.442 63.9937 103.907 63.7064 104.506 63.5059C105.104 63.3024 105.797 63.1991 106.584 63.1961C107.371 63.1991 108.064 63.3024 108.663 63.5059C109.264 63.7064 109.731 63.9937 110.063 64.3677C110.395 64.7418 110.561 65.1802 110.561 65.683C110.561 66.1798 110.395 66.6137 110.063 66.9848C109.731 67.3559 109.264 67.6417 108.663 67.8422C108.064 68.0427 107.371 68.143 106.584 68.143ZM106.584 64.0131C106.001 64.0131 105.486 64.082 105.04 64.2196C104.594 64.3573 104.249 64.5518 104.003 64.8032C103.758 65.0546 103.637 65.3478 103.64 65.683C103.637 66.0152 103.758 66.3055 104.003 66.5539C104.249 66.8023 104.594 66.9953 105.04 67.1329C105.486 67.2676 106.001 67.3349 106.584 67.3349C107.168 67.3349 107.683 67.2676 108.128 67.1329C108.574 66.9953 108.92 66.8023 109.165 66.5539C109.414 66.3055 109.538 66.0152 109.538 65.683C109.538 65.3478 109.414 65.0546 109.165 64.8032C108.92 64.5518 108.574 64.3573 108.128 64.2196C107.683 64.082 107.168 64.0131 106.584 64.0131ZM101.44 69.2113H111.773V70.0552H107.069V74.0325H106.09V70.0552H101.44V69.2113ZM120.725 74.0504V62.7472H121.712V74.0504H120.725ZM114.072 70.4772C115.093 70.4742 116.035 70.4443 116.9 70.3874C117.768 70.3276 118.678 70.2198 119.629 70.0642L119.728 70.8992C118.75 71.0548 117.813 71.1625 116.918 71.2224C116.023 71.2822 115.048 71.3122 113.991 71.3122H113.049V66.9938H117.277V64.6236H113.031V63.7977H118.283V67.8108H114.072V70.4772ZM134.551 74.0325V62.7472H135.547V74.0325H134.551ZM130.565 64.1388H133.51V64.9468H126.597V64.1388H129.568V62.7562H130.565V64.1388ZM130.565 70.9351C131.75 70.8812 132.83 70.7914 133.806 70.6657L133.887 71.4289C132.764 71.6084 131.599 71.7266 130.39 71.7835C129.181 71.8404 127.886 71.8688 126.507 71.8688L126.354 71.0249H126.489C127.847 71.0129 128.874 70.9949 129.568 70.971V69.7455C129.116 69.6976 128.723 69.5824 128.388 69.3999C128.052 69.2173 127.794 68.9809 127.611 68.6906C127.428 68.3973 127.339 68.0651 127.342 67.6941C127.339 67.2751 127.449 66.907 127.674 66.5898C127.898 66.2726 128.214 66.0272 128.621 65.8536C129.031 65.68 129.505 65.5932 130.044 65.5932C130.586 65.5932 131.063 65.68 131.476 65.8536C131.889 66.0272 132.209 66.2726 132.437 66.5898C132.667 66.907 132.782 67.2751 132.782 67.6941C132.782 68.0622 132.691 68.3913 132.508 68.6816C132.326 68.9719 132.067 69.2083 131.732 69.3909C131.4 69.5704 131.011 69.6857 130.565 69.7365V70.9351ZM128.275 67.6941C128.272 67.9514 128.346 68.1774 128.495 68.3719C128.645 68.5664 128.854 68.7175 129.124 68.8253C129.393 68.93 129.7 68.9809 130.044 68.9779C130.394 68.9809 130.704 68.93 130.973 68.8253C131.246 68.7175 131.457 68.5664 131.606 68.3719C131.756 68.1774 131.831 67.9514 131.831 67.6941C131.831 67.4337 131.756 67.2048 131.606 67.0073C131.457 66.8067 131.246 66.6511 130.973 66.5404C130.704 66.4297 130.394 66.3743 130.044 66.3743C129.7 66.3743 129.393 66.4297 129.124 66.5404C128.854 66.6511 128.645 66.8067 128.495 67.0073C128.346 67.2048 128.272 67.4337 128.275 67.6941ZM145.962 67.326H147.847V68.1878H145.962V74.0325H144.966V62.7472H145.962V67.326ZM141.015 65.7818C141.012 66.4282 141.141 67.0731 141.401 67.7165C141.662 68.3599 142.015 68.936 142.461 69.4448C142.91 69.9535 143.4 70.3395 143.933 70.6029L143.314 71.4019C142.904 71.1865 142.518 70.9007 142.155 70.5445C141.796 70.1854 141.478 69.7769 141.199 69.3191C140.924 68.8582 140.703 68.3674 140.535 67.8467C140.367 68.3973 140.141 68.918 139.857 69.4088C139.576 69.8996 139.25 70.3351 138.879 70.7151C138.507 71.0922 138.112 71.393 137.693 71.6174L137.065 70.8184C137.607 70.549 138.103 70.148 138.555 69.6153C139.007 69.0796 139.365 68.4751 139.628 67.8018C139.892 67.1285 140.025 66.4551 140.028 65.7818V63.7258H141.015V65.7818ZM156.422 62.7472H157.418V74.0504H156.422V62.7472ZM151.852 63.5732C152.438 63.5732 152.962 63.6854 153.423 63.9099C153.884 64.1313 154.243 64.4426 154.5 64.8436C154.761 65.2446 154.892 65.704 154.895 66.2217C154.892 66.7394 154.761 67.1988 154.5 67.5998C154.243 68.0008 153.884 68.3135 153.423 68.538C152.962 68.7594 152.438 68.8702 151.852 68.8702C151.265 68.8702 150.74 68.7594 150.276 68.538C149.812 68.3135 149.45 68.0008 149.19 67.5998C148.933 67.1958 148.805 66.7364 148.808 66.2217C148.805 65.707 148.933 65.2491 149.19 64.8481C149.45 64.4441 149.812 64.1313 150.276 63.9099C150.74 63.6854 151.265 63.5732 151.852 63.5732ZM151.852 64.4441C151.454 64.4441 151.098 64.5189 150.784 64.6685C150.469 64.8181 150.224 65.0291 150.047 65.3014C149.871 65.5708 149.784 65.8775 149.787 66.2217C149.784 66.5658 149.871 66.8741 150.047 67.1464C150.224 67.4157 150.469 67.6252 150.784 67.7749C151.098 67.9245 151.454 67.9993 151.852 67.9993C152.247 67.9993 152.6 67.9245 152.911 67.7749C153.226 67.6252 153.471 67.4157 153.647 67.1464C153.827 66.8741 153.917 66.5658 153.917 66.2217C153.917 65.8775 153.827 65.5708 153.647 65.3014C153.471 65.0291 153.226 64.8181 152.911 64.6685C152.6 64.5189 152.247 64.4441 151.852 64.4441ZM148.225 70.7106H148.894C150.154 70.7106 151.348 70.6852 152.476 70.6343C153.604 70.5834 154.671 70.4832 155.676 70.3336L155.757 71.0698C154.961 71.2194 154.134 71.3301 153.275 71.4019C152.419 71.4738 151.618 71.5186 150.873 71.5366C150.131 71.5546 149.293 71.5635 148.359 71.5635L148.225 70.7106ZM162.572 68.6008C163.218 68.4871 163.86 68.2477 164.498 67.8826C165.138 67.5175 165.663 67.0716 166.073 66.5449C166.486 66.0152 166.693 65.4645 166.693 64.893V64.6146H162.913V63.7707H171.505V64.6146H167.725V64.893C167.725 65.4645 167.932 66.0122 168.345 66.5359C168.761 67.0596 169.292 67.501 169.938 67.8602C170.585 68.2163 171.238 68.4482 171.9 68.5559L171.487 69.346C170.9 69.2293 170.324 69.0333 169.759 68.7579C169.196 68.4796 168.69 68.1355 168.241 67.7255C167.792 67.3125 167.451 66.8546 167.218 66.3519C166.984 66.8576 166.643 67.32 166.194 67.739C165.748 68.1549 165.246 68.5051 164.686 68.7894C164.126 69.0707 163.559 69.2712 162.985 69.3909L162.572 68.6008ZM167.716 68.9959V71.7431H172.394V72.578H162.06V71.7431H166.72V68.9959H167.716ZM181.318 69.5704V62.7472H182.314V69.5704H181.318ZM176.578 66.5C176.329 67.1434 175.952 67.7075 175.446 68.1923C174.941 68.6771 174.351 69.0407 173.678 69.2831L173.157 68.511C173.72 68.3105 174.219 68.0233 174.656 67.6492C175.093 67.2751 175.434 66.8442 175.68 66.3564C175.928 65.8686 176.054 65.3628 176.057 64.8391V64.3543H173.417V63.5373H179.657V64.3543H177.062V64.8391C177.062 65.3359 177.185 65.8147 177.43 66.2756C177.676 66.7334 178.017 67.1374 178.454 67.4876C178.894 67.8377 179.394 68.1041 179.953 68.2866L179.442 69.0587C178.786 68.8372 178.209 68.5036 177.709 68.0577C177.209 67.6118 176.832 67.0925 176.578 66.5ZM181.318 70.989H174.719V70.172H182.314V74.0325H181.318V70.989ZM189.56 68.8432V71.77H194.264V72.605H183.931V71.77H188.572V68.8432H185.25V63.663H192.936V64.48H186.247V68.0352H193.043V68.8432H189.56ZM196.195 64.7403H202.856V63.8066H196.159V63.0884H203.853V65.4227H197.182V66.4102H204.05V67.1374H196.195V64.7403ZM194.848 68.7714V67.9903H205.182V68.7714H194.848ZM203.889 72.0753H197.111V73.1526H204.257V73.8798H196.114V71.384H202.901V70.4233H196.096V69.6782H203.889V72.0753ZM217.607 62.7472V66.4192H219.259V67.2721H217.607V71.2403H216.602V62.7472H217.607ZM213.729 67.4786C213.852 66.8771 213.932 66.3429 213.971 65.876C214.01 65.4092 214.033 64.9349 214.039 64.453H209.393V63.6181H215.022V64.2196V64.3229C215.016 64.8705 214.995 65.3927 214.959 65.8895C214.923 66.3833 214.845 66.9399 214.725 67.5594L213.729 67.4786ZM215.893 68.9779C214.842 69.1575 213.733 69.2772 212.566 69.337C211.399 69.3969 210.144 69.4298 208.8 69.4358L208.701 68.6098C209.758 68.6038 210.566 68.5933 211.125 68.5784V66.1229H212.113V68.547C213.57 68.4841 214.809 68.3824 215.83 68.2417L215.893 68.9779ZM210.443 70.4682H211.44V72.9551H217.975V73.7811H210.443V70.4682ZM228.031 74.0504V62.7472H229.019V74.0504H228.031ZM221.378 70.4772C222.399 70.4742 223.342 70.4443 224.206 70.3874C225.074 70.3276 225.984 70.2198 226.936 70.0642L227.034 70.8992C226.056 71.0548 225.119 71.1625 224.224 71.2224C223.33 71.2822 222.354 71.3122 221.298 71.3122H220.355V66.9938H224.583V64.6236H220.337V63.7977H225.589V67.8108H221.378V70.4772ZM234.522 63.7707H237.386V64.5698H230.662V63.7707H233.535V62.6305H234.522V63.7707ZM239.46 62.7023V65.4496H241.166V66.2756H239.46V68.951H238.464V62.7023H239.46ZM236.74 66.9309C236.737 67.308 236.623 67.6372 236.399 67.9185C236.177 68.1968 235.861 68.4108 235.451 68.5604C235.044 68.7071 234.57 68.7804 234.028 68.7804C233.481 68.7804 233.001 68.7071 232.588 68.5604C232.178 68.4108 231.86 68.1968 231.636 67.9185C231.414 67.6372 231.305 67.308 231.308 66.9309C231.305 66.5539 231.414 66.2262 231.636 65.9479C231.86 65.6695 232.178 65.4556 232.588 65.3059C233.001 65.1563 233.481 65.0815 234.028 65.0815C234.57 65.0815 235.044 65.1563 235.451 65.3059C235.858 65.4556 236.174 65.6695 236.399 65.9479C236.623 66.2262 236.737 66.5539 236.74 66.9309ZM232.26 66.9309C232.257 67.1554 232.327 67.3514 232.471 67.519C232.617 67.6836 232.824 67.8108 233.09 67.9006C233.36 67.9903 233.672 68.0352 234.028 68.0352C234.379 68.0352 234.687 67.9903 234.953 67.9006C235.22 67.8108 235.426 67.6836 235.573 67.519C235.719 67.3514 235.794 67.1554 235.797 66.9309C235.794 66.7095 235.719 66.515 235.573 66.3474C235.426 66.1768 235.22 66.0466 234.953 65.9568C234.687 65.8641 234.379 65.8177 234.028 65.8177C233.672 65.8177 233.36 65.8641 233.09 65.9568C232.824 66.0466 232.617 66.1768 232.471 66.3474C232.327 66.515 232.257 66.7095 232.26 66.9309ZM239.46 72.0394H233.265V73.1347H239.873V73.9068H232.287V71.3032H238.473V70.2887H232.26V69.5345H239.46V72.0394ZM249.686 65.2072C249.453 65.6591 249.118 66.0691 248.681 66.4372C248.247 66.8023 247.753 67.106 247.199 67.3484C246.646 67.5908 246.071 67.7629 245.476 67.8646L245.063 67.0477C245.751 66.9519 246.411 66.7469 247.042 66.4327C247.674 66.1184 248.185 65.7309 248.577 65.27C248.969 64.8062 249.165 64.3154 249.165 63.7977V63.1512H250.198V63.7977C250.198 64.3064 250.394 64.7927 250.786 65.2566C251.181 65.7204 251.696 66.111 252.33 66.4282C252.965 66.7454 253.624 66.9519 254.31 67.0477L253.906 67.8646C253.31 67.7659 252.734 67.5938 252.178 67.3484C251.624 67.103 251.129 66.7978 250.692 66.4327C250.255 66.0646 249.92 65.6561 249.686 65.2072ZM244.533 69.1036H254.822V69.9385H250.144V74.0325H249.165V69.9385H244.533V69.1036ZM266.753 62.7562H267.75V69.2023H266.753V62.7562ZM261.654 68.6727C261.088 68.6727 260.58 68.5619 260.128 68.3405C259.679 68.119 259.327 67.8093 259.073 67.4113C258.818 67.0132 258.691 66.5599 258.691 66.0511C258.691 65.5364 258.818 65.0785 259.073 64.6775C259.327 64.2765 259.679 63.9652 260.128 63.7438C260.58 63.5223 261.088 63.4116 261.654 63.4116C262.22 63.4116 262.727 63.5223 263.176 63.7438C263.625 63.9652 263.975 64.2765 264.226 64.6775C264.481 65.0785 264.608 65.5364 264.608 66.0511C264.608 66.5599 264.481 67.0132 264.226 67.4113C263.975 67.8093 263.625 68.119 263.176 68.3405C262.727 68.5619 262.22 68.6727 261.654 68.6727ZM261.654 64.2645C261.274 64.2615 260.931 64.3363 260.626 64.4889C260.324 64.6386 260.087 64.8511 259.917 65.1264C259.749 65.3987 259.667 65.707 259.67 66.0511C259.667 66.3953 259.749 66.7035 259.917 66.9758C260.087 67.2482 260.324 67.4606 260.626 67.6133C260.928 67.7659 261.271 67.8437 261.654 67.8467C262.034 67.8437 262.374 67.7659 262.673 67.6133C262.975 67.4606 263.212 67.2482 263.382 66.9758C263.553 66.7035 263.638 66.3953 263.638 66.0511C263.638 65.707 263.553 65.3987 263.382 65.1264C263.212 64.8511 262.975 64.6386 262.673 64.4889C262.371 64.3363 262.031 64.2615 261.654 64.2645ZM266.484 70.3156C266.481 70.7076 266.571 71.0892 266.753 71.4603C266.936 71.8284 267.201 72.1591 267.548 72.4523C267.898 72.7456 268.31 72.9731 268.782 73.1347L268.28 73.8709C267.729 73.6763 267.256 73.3935 266.861 73.0224C266.469 72.6514 266.173 72.2234 265.972 71.7386C265.787 72.2264 265.517 72.6663 265.164 73.0584C264.814 73.4534 264.389 73.7571 263.889 73.9696C263.36 73.7661 262.915 73.4728 262.556 73.0898C262.2 72.7097 261.934 72.2713 261.757 71.7745C261.548 72.2444 261.248 72.6618 260.859 73.0269C260.473 73.392 260.017 73.6733 259.49 73.8709L258.988 73.1347C259.451 72.9641 259.855 72.7277 260.2 72.4254C260.547 72.1202 260.813 71.7835 260.999 71.4154C261.187 71.0473 261.283 70.6807 261.286 70.3156V69.6961H262.247V70.3156C262.247 70.6538 262.308 70.9904 262.431 71.3256C262.553 71.6608 262.734 71.9735 262.974 72.2638C263.216 72.5511 263.511 72.7935 263.858 72.991C264.205 72.7785 264.503 72.5197 264.751 72.2144C265 71.9092 265.187 71.592 265.312 71.2628C265.441 70.9306 265.506 70.6149 265.506 70.3156V69.6961H266.484V70.3156ZM277.734 62.7472H278.721V74.0504H277.734V67.8826H275.211C275.175 68.6098 275.034 69.2457 274.789 69.7904C274.544 70.3321 274.214 70.7495 273.801 71.0428C273.391 71.3361 272.925 71.4827 272.401 71.4827C271.847 71.4827 271.355 71.3226 270.924 71.0024C270.496 70.6792 270.162 70.2213 269.923 69.6288C269.686 69.0333 269.57 68.3405 269.573 67.5504C269.57 66.7634 269.686 66.0735 269.923 65.481C270.162 64.8885 270.496 64.4306 270.924 64.1074C271.355 63.7842 271.847 63.6211 272.401 63.6181C272.91 63.6211 273.366 63.7632 273.77 64.0445C274.177 64.3229 274.505 64.7209 274.753 65.2386C275.001 65.7563 275.151 66.3623 275.202 67.0566H277.734V62.7472ZM272.401 70.5939C272.766 70.5939 273.091 70.4682 273.375 70.2169C273.659 69.9655 273.881 69.6093 274.039 69.1485C274.198 68.6876 274.277 68.1549 274.277 67.5504C274.277 66.9489 274.198 66.4192 274.039 65.9613C273.881 65.5005 273.659 65.1443 273.375 64.893C273.091 64.6386 272.766 64.5099 272.401 64.5069C272.033 64.5099 271.707 64.6386 271.422 64.893C271.138 65.1443 270.916 65.5005 270.758 65.9613C270.602 66.4192 270.524 66.9489 270.524 67.5504C270.524 68.1549 270.602 68.6876 270.758 69.1485C270.916 69.6093 271.138 69.9655 271.422 70.2169C271.707 70.4682 272.033 70.5939 272.401 70.5939ZM288.068 71.7431H290.635V72.578H280.302V71.7431H282.86V68.6996C282.373 68.4422 281.992 68.1145 281.72 67.7165C281.451 67.3155 281.316 66.8651 281.316 66.3653C281.316 65.7907 281.491 65.285 281.841 64.8481C282.191 64.4081 282.679 64.067 283.305 63.8246C283.93 63.5822 284.641 63.4595 285.437 63.4565C286.236 63.4595 286.948 63.5822 287.574 63.8246C288.202 64.067 288.691 64.4081 289.042 64.8481C289.392 65.285 289.567 65.7907 289.567 66.3653C289.567 66.8591 289.435 67.3035 289.172 67.6985C288.911 68.0906 288.543 68.4153 288.068 68.6727V71.7431ZM282.277 66.3653C282.277 66.7783 282.41 67.1449 282.676 67.4651C282.946 67.7823 283.32 68.0292 283.799 68.2058C284.28 68.3794 284.826 68.4662 285.437 68.4662C286.047 68.4662 286.592 68.3794 287.071 68.2058C287.553 68.0292 287.928 67.7823 288.198 67.4651C288.47 67.1449 288.606 66.7783 288.606 66.3653C288.606 65.9494 288.47 65.5828 288.198 65.2655C287.928 64.9483 287.553 64.7029 287.071 64.5294C286.592 64.3558 286.047 64.2705 285.437 64.2735C284.826 64.2705 284.28 64.3558 283.799 64.5294C283.32 64.7029 282.946 64.9483 282.676 65.2655C282.41 65.5828 282.277 65.9494 282.277 66.3653ZM283.839 71.7431H287.062V69.0632C286.562 69.1919 286.021 69.2562 285.437 69.2562C284.874 69.2562 284.342 69.1934 283.839 69.0677V71.7431Z" fill="#888888"/>
</g>
<g filter="url(#filter6_d_295_679)">
<rect x="11" y="368" width="249" height="249.827" rx="10" fill="#F7F9FC" shape-rendering="crispEdges"/>
<g clip-path="url(#clip16_295_679)">
<path d="M37.0652 392.458H46.8934C47.7814 392.458 48.5012 393.191 48.5012 394.095V407.94C48.5012 408.844 47.7814 409.578 46.8934 409.578H37.0652C36.1772 409.578 35.4573 408.844 35.4573 407.94V394.095C35.4573 393.191 36.1772 392.458 37.0652 392.458Z" fill="white"/>
<path d="M41.9791 399.877C42.7926 399.877 43.4519 399.205 43.4519 398.377V397.969C43.4519 397.14 42.7926 396.469 41.9791 396.469C41.1656 396.469 40.5063 397.14 40.5063 397.969V398.377C40.5063 399.205 41.1656 399.877 41.9791 399.877Z" fill="#5767C6"/>
<path d="M40.4651 403.309H43.4933C44.0573 403.309 44.5149 402.843 44.5149 402.268V401.966C44.5149 400.54 43.3805 399.385 41.9808 399.385H41.976C40.5763 399.385 39.4419 400.54 39.4419 401.966V402.268C39.4419 402.843 39.8995 403.309 40.4635 403.309H40.4651Z" fill="#5767C6"/>
<path d="M39.6185 405.665H40.1047C40.424 405.665 40.6846 405.401 40.6846 405.074C40.6846 404.747 40.4256 404.483 40.1047 404.483H39.6185C39.2976 404.483 39.0386 404.747 39.0386 405.074C39.0386 405.399 39.2976 405.665 39.6185 405.665Z" fill="#DDDDDD"/>
<path d="M41.7362 405.665H42.2223C42.5417 405.665 42.8022 405.401 42.8022 405.074C42.8022 404.747 42.5433 404.483 42.2223 404.483H41.7362C41.4152 404.483 41.1563 404.747 41.1563 405.074C41.1563 405.401 41.4152 405.665 41.7362 405.665Z" fill="#DDDDDD"/>
<path d="M43.8541 405.665H44.3403C44.6596 405.665 44.9202 405.401 44.9202 405.074C44.9202 404.747 44.6612 404.483 44.3403 404.483H43.8541C43.5332 404.483 43.2742 404.747 43.2742 405.074C43.2742 405.401 43.5332 405.665 43.8541 405.665Z" fill="#DDDDDD"/>
<path d="M48.5012 407.49V407.938C48.5012 408.843 47.7815 409.576 46.8934 409.576H37.0652C36.177 409.576 35.4573 408.843 35.4573 407.938V407.49H48.5012Z" fill="#5767C6"/>
<path d="M40.481 393.569H43.479C43.8269 393.569 44.1082 393.856 44.1082 394.21C44.1082 394.565 43.8269 394.851 43.479 394.851H40.481C40.133 394.851 39.8518 394.565 39.8518 394.21C39.8518 393.856 40.133 393.569 40.481 393.569Z" fill="#DDDDDD"/>
</g>
<path d="M66.3778 402.175H65.1223L63.6956 397.564C63.6576 397.434 63.5891 397.324 63.4902 397.233C63.3989 397.134 63.2581 397.084 63.0679 397.084H60.5798C60.3896 397.084 60.245 397.134 60.1461 397.233C60.0548 397.324 59.9901 397.434 59.952 397.564L58.5254 402.175H57.2699L58.8906 397.142C59.0123 396.776 59.1835 396.506 59.4042 396.331C59.6249 396.149 59.9673 396.057 60.4314 396.057H63.2163C63.6804 396.057 64.0228 396.149 64.2435 396.331C64.4641 396.506 64.6353 396.776 64.7571 397.142L66.3778 402.175ZM66.6289 405.576H57.0188V404.549H61.2532V401.148H62.3945V404.549H66.6289V405.576ZM76.294 399.892H75.0728L73.8744 397.358C73.8211 397.237 73.745 397.145 73.6461 397.084C73.5548 397.024 73.4216 396.993 73.2466 396.993H70.5987C70.4237 396.993 70.2868 397.024 70.1878 397.084C70.0965 397.145 70.0242 397.237 69.971 397.358L68.7726 399.892H67.5513L68.9438 396.993C69.0275 396.826 69.1112 396.677 69.1949 396.548C69.2862 396.419 69.3889 396.312 69.503 396.228C69.6248 396.137 69.7617 396.072 69.9139 396.034C70.0737 395.989 70.2639 395.966 70.4846 395.966H73.3608C73.7945 395.966 74.1179 396.053 74.3309 396.228C74.5516 396.396 74.7418 396.651 74.9016 396.993L76.294 399.892ZM76.7277 401.787H67.1176V400.76H71.352V398.968H72.4933V400.76H76.7277V401.787ZM76.0657 406.295H74.9244V403.602H67.7796V402.574H76.0657V406.295ZM80.2296 406.261C79.5372 406.261 79.0008 406.082 78.6203 405.724C78.2399 405.374 78.0496 404.876 78.0496 404.229C78.0496 403.582 78.2399 403.084 78.6203 402.734C79.0008 402.376 79.5372 402.198 80.2296 402.198H84.2129C84.9053 402.198 85.4417 402.376 85.8222 402.734C86.2026 403.084 86.3928 403.582 86.3928 404.229C86.3928 404.876 86.2026 405.374 85.8222 405.724C85.4417 406.082 84.9053 406.261 84.2129 406.261H80.2296ZM83.5623 401.49H82.3639L81.0742 397.336C81.0438 397.244 81.0133 397.183 80.9829 397.153C80.9601 397.115 80.9068 397.096 80.8231 397.096H80.0356C79.9519 397.096 79.8948 397.115 79.8644 397.153C79.8415 397.191 79.8149 397.252 79.7845 397.336L78.4263 401.49H77.2279L78.666 397.096H77.3762V396.069H83.608V397.096H82.2041L83.5623 401.49ZM84.0645 405.234C84.4678 405.234 84.7645 405.139 84.9548 404.948C85.1526 404.766 85.2515 404.526 85.2515 404.229C85.2515 403.933 85.1526 403.693 84.9548 403.51C84.7645 403.32 84.4678 403.225 84.0645 403.225H80.378C79.9747 403.225 79.6742 403.32 79.4763 403.51C79.2861 403.693 79.191 403.933 79.191 404.229C79.191 404.526 79.2861 404.766 79.4763 404.948C79.6742 405.139 79.9747 405.234 80.378 405.234H84.0645ZM86.1874 401.832H85.0461V399.185H83.2085V398.134H85.0461V395.943H86.1874V401.832ZM96.2063 401.205C96.2063 401.501 96.1379 401.718 96.0009 401.855C95.8639 401.992 95.6471 402.061 95.3503 402.061H88.0343V396H89.1757V397.952H95.065V396H96.2063V401.205ZM95.065 401.033V398.979H89.1757V401.033H95.065ZM96.9254 405.576H87.3153V404.549H91.5497V402.746H92.691V404.549H96.9254V405.576Z" fill="#222222"/>
<rect x="35.4573" y="425.882" width="195.659" height="167.488" rx="4.07622" fill="white"/>
<path d="M51.7622 446.263C51.7622 444.012 53.5872 442.187 55.8384 442.187H210.735C212.986 442.187 214.811 444.012 214.811 446.263V472.351H51.7622V446.263Z" fill="#F7F9FC"/>
<path d="M124.746 455.148C124.536 455.608 124.233 456.028 123.839 456.409C123.448 456.79 123.005 457.109 122.511 457.367C122.02 457.622 121.518 457.803 121.006 457.911L120.612 457.185C121.2 457.083 121.777 456.865 122.342 456.531C122.909 456.195 123.374 455.784 123.737 455.298C124.099 454.812 124.282 454.303 124.285 453.772V453.008H125.199V453.772C125.199 454.301 125.382 454.808 125.747 455.294C126.112 455.78 126.58 456.191 127.15 456.527C127.72 456.864 128.299 457.083 128.888 457.185L128.494 457.911C127.981 457.803 127.477 457.622 126.98 457.367C126.486 457.109 126.042 456.79 125.648 456.409C125.254 456.028 124.953 455.608 124.746 455.148ZM125.175 457.8V460.22H129.329V460.945H120.257V460.22H124.316V457.8H125.175ZM134.389 454.127C134.187 454.498 133.898 454.833 133.522 455.132C133.149 455.432 132.723 455.683 132.245 455.885C131.767 456.085 131.269 456.229 130.751 456.318L130.42 455.617C131.011 455.538 131.578 455.37 132.119 455.112C132.663 454.855 133.103 454.537 133.439 454.159C133.775 453.78 133.944 453.378 133.944 452.953V452.488H134.826V452.953C134.826 453.376 134.995 453.778 135.331 454.159C135.67 454.537 136.111 454.855 136.655 455.112C137.199 455.37 137.766 455.538 138.358 455.617L138.003 456.318C137.493 456.232 137.001 456.087 136.525 455.885C136.052 455.683 135.628 455.432 135.252 455.132C134.879 454.83 134.591 454.495 134.389 454.127ZM134.819 455.79V457.319H138.933V458.045H129.876V457.319H133.959V455.79H134.819ZM136.907 459.716H130.877V459.014H137.79V462.246H136.907V459.716ZM144.315 453.268H145.324V461.339H144.315V454.316H144.268L142.305 455.617V454.608L144.315 453.268Z" fill="url(#paint4_linear_295_679)"/>
<path d="M55.7905 480.758H208.853C210.852 480.758 212.474 482.38 212.474 484.379V510.158C212.474 512.157 210.852 513.779 208.853 513.779H55.7905C53.7911 513.779 52.1694 512.157 52.1694 510.158V484.379C52.1694 482.38 53.7911 480.758 55.7905 480.758Z" fill="white"/>
<path d="M55.7905 480.758H208.853C210.852 480.758 212.474 482.38 212.474 484.379V510.158C212.474 512.157 210.852 513.779 208.853 513.779H55.7905C53.7911 513.779 52.1694 512.157 52.1694 510.158V484.379C52.1694 482.38 53.7911 480.758 55.7905 480.758Z" stroke="#EEEEEE" stroke-width="0.815244"/>
<path d="M70.9071 500.667V501.383H61.9417V500.667H65.9508V498.266H66.7988V500.667H70.9071ZM66.8209 494.29C66.8209 495.931 68.7593 497.363 70.4665 497.66L70.081 498.376C68.5886 498.073 67.0136 497.06 66.3803 495.645C65.736 497.055 64.172 498.073 62.6796 498.376L62.2941 497.66C64.0013 497.363 65.9177 495.931 65.9177 494.29V493.541H66.8209V494.29ZM80.3989 497.792V498.508H71.4445V497.792H75.4756V496.284H76.3237V497.792H80.3989ZM76.3347 493.486C76.3347 494.786 78.097 495.876 79.8262 496.118L79.4737 496.812C77.9868 496.553 76.5164 495.766 75.9052 494.631C75.2884 495.771 73.8125 496.553 72.3146 496.812L71.9842 496.118C73.7134 495.876 75.4646 494.786 75.4646 493.486V493.023H76.3347V493.486ZM79.2644 499.467V502.661H78.3943V500.161H72.4358V499.467H79.2644Z" fill="#222222"/>
<g clip-path="url(#clip17_295_679)">
<path d="M195.761 495.972C195.761 495.762 195.872 495.553 196.087 495.407C196.476 495.143 197.058 495.181 197.388 495.493L199.43 497.42L201.47 495.492C201.8 495.18 202.383 495.142 202.773 495.406C203.16 495.671 203.209 496.139 202.879 496.451L200.134 499.046C199.958 499.211 199.701 499.307 199.43 499.307C199.159 499.307 198.902 499.211 198.725 499.046L195.981 496.451C195.833 496.312 195.761 496.141 195.761 495.972Z" fill="#222222"/>
</g>
<path d="M55.7905 522.593H208.853C210.852 522.593 212.474 524.215 212.474 526.214V551.993C212.474 553.992 210.852 555.614 208.853 555.614H55.7905C53.7911 555.614 52.1694 553.992 52.1694 551.993V526.214C52.1694 524.215 53.7911 522.593 55.7905 522.593Z" fill="white"/>
<path d="M55.7905 522.593H208.853C210.852 522.593 212.474 524.215 212.474 526.214V551.993C212.474 553.992 210.852 555.614 208.853 555.614H55.7905C53.7911 555.614 52.1694 553.992 52.1694 551.993V526.214C52.1694 524.215 53.7911 522.593 55.7905 522.593Z" stroke="#EEEEEE" stroke-width="0.815244"/>
<path d="M65.4662 536.522C65.4662 537.843 66.5125 539.044 67.9773 539.517L67.5368 540.189C66.3968 539.804 65.4882 538.994 65.0476 537.953C64.6181 539.071 63.6984 539.952 62.5364 540.376L62.0849 539.705C63.5497 539.187 64.596 537.909 64.596 536.522V536.103H62.3051V535.398H67.724V536.103H65.4662V536.522ZM70.026 534.704V540.63H69.1669V534.704H70.026ZM70.026 541.147V544.496H69.1669V541.863H63.4396V541.147H70.026ZM74.3412 536.83C74.3412 537.986 75.1122 539.121 76.3567 539.572L75.9382 540.244C74.98 539.864 74.3026 539.132 73.9557 538.24C73.6143 539.209 72.9259 540.007 71.9511 540.42L71.5216 539.771C72.7662 539.253 73.5151 538.074 73.5261 536.83V536.709H71.7198V536.004H73.5261V534.825H74.3412V536.004H76.1144V536.709H74.3412V536.83ZM79.7601 534.715V540.707H78.934V538.052H77.6564V540.663H76.8193V534.891H77.6564V537.337H78.934V534.715H79.7601ZM79.7601 541.236V544.496H78.912V541.94H73.1627V541.236H79.7601Z" fill="#222222"/>
<g clip-path="url(#clip18_295_679)">
<path d="M195.761 537.807C195.761 537.597 195.872 537.388 196.087 537.242C196.476 536.978 197.058 537.016 197.388 537.328L199.43 539.255L201.47 537.327C201.8 537.015 202.383 536.977 202.773 537.241C203.16 537.506 203.209 537.974 202.879 538.286L200.134 540.881C199.958 541.046 199.701 541.142 199.43 541.142C199.159 541.142 198.902 541.046 198.725 540.881L195.981 538.286C195.833 538.147 195.761 537.976 195.761 537.807Z" fill="#222222"/>
</g>
<path d="M70.5488 571.159C71.1163 571.059 71.6799 570.849 72.2395 570.529C72.8018 570.208 73.2629 569.817 73.6228 569.354C73.9854 568.889 74.1667 568.406 74.1667 567.904V567.66H70.8483V566.919H78.3916V567.66H75.0732V567.904C75.0732 568.406 75.2545 568.887 75.617 569.346C75.9822 569.806 76.4486 570.194 77.0161 570.509C77.5836 570.822 78.1577 571.025 78.7384 571.12L78.3758 571.813C77.8608 571.711 77.3551 571.539 76.8585 571.297C76.3645 571.053 75.9205 570.751 75.5264 570.391C75.1323 570.028 74.8328 569.626 74.6278 569.185C74.4229 569.629 74.1234 570.035 73.7293 570.403C73.3378 570.768 72.8964 571.075 72.405 571.325C71.9137 571.572 71.4158 571.748 70.9114 571.853L70.5488 571.159ZM75.0653 571.506V573.918H79.1719V574.651H70.0995V573.918H74.1904V571.506H75.0653ZM87.0259 572.01V566.02H87.9008V572.01H87.0259ZM82.8641 569.315C82.646 569.88 82.3149 570.375 81.8709 570.801C81.4269 571.226 80.9093 571.545 80.3181 571.758L79.8609 571.08C80.3549 570.904 80.7937 570.652 81.1773 570.324C81.5609 569.995 81.8604 569.617 82.0758 569.189C82.2939 568.76 82.4043 568.316 82.4069 567.857V567.431H80.0895V566.714H85.5676V567.431H83.2897V567.857C83.2897 568.293 83.3974 568.713 83.6129 569.118C83.8283 569.52 84.1278 569.874 84.5114 570.182C84.8977 570.489 85.3364 570.723 85.8278 570.883L85.3785 571.561C84.8031 571.367 84.296 571.074 83.8572 570.682C83.4184 570.291 83.0874 569.835 82.8641 569.315ZM87.0259 573.256H81.2324V572.539H87.9008V575.928H87.0259V573.256ZM97.0868 566.02V568.55H98.5766V569.283H97.0868V572.003H96.2119V566.02H97.0868ZM92.2787 569.362C92.0659 569.93 91.7387 570.426 91.2973 570.852C90.8586 571.277 90.3423 571.598 89.7485 571.813L89.2992 571.112C89.7932 570.944 90.2306 570.698 90.6116 570.375C90.9926 570.052 91.2895 569.677 91.5023 569.252C91.7177 568.823 91.8268 568.374 91.8294 567.904V567.478H89.5672V566.753H94.9192V567.478H92.6964V567.896C92.6964 568.324 92.7963 568.734 92.996 569.126C93.1983 569.514 93.482 569.857 93.8472 570.154C94.2151 570.448 94.6407 570.676 95.1241 570.836L94.7064 571.522C94.1415 571.335 93.6489 571.054 93.2285 570.678C92.8107 570.303 92.4941 569.864 92.2787 569.362ZM93.9103 572.271C94.5855 572.271 95.1675 572.342 95.6562 572.483C96.1475 572.625 96.5232 572.832 96.7834 573.102C97.0435 573.373 97.1735 573.697 97.1735 574.076C97.1735 574.459 97.0435 574.788 96.7834 575.061C96.5232 575.334 96.1475 575.543 95.6562 575.688C95.1675 575.832 94.5855 575.904 93.9103 575.904C93.2324 575.904 92.6465 575.832 92.1526 575.688C91.6586 575.543 91.2803 575.334 91.0175 575.061C90.7548 574.788 90.6234 574.459 90.6234 574.076C90.6234 573.697 90.7548 573.373 91.0175 573.102C91.2803 572.832 91.6586 572.625 92.1526 572.483C92.6465 572.342 93.2324 572.271 93.9103 572.271ZM93.9103 575.203C94.4069 575.203 94.8364 575.158 95.199 575.069C95.5616 574.979 95.8388 574.851 96.0306 574.683C96.225 574.512 96.3222 574.309 96.3222 574.076C96.3222 573.847 96.225 573.65 96.0306 573.484C95.8388 573.319 95.5616 573.193 95.199 573.106C94.8364 573.017 94.4069 572.972 93.9103 572.972C93.4137 572.972 92.9828 573.017 92.6176 573.106C92.255 573.193 91.9765 573.319 91.7821 573.484C91.5903 573.65 91.4957 573.847 91.4983 574.076C91.4957 574.309 91.5903 574.512 91.7821 574.683C91.9765 574.851 92.255 574.979 92.6176 575.069C92.9828 575.158 93.4137 575.203 93.9103 575.203Z" fill="#222222"/>
<rect x="52.1698" y="564.429" width="12.2287" height="12.2287" rx="2.03811" fill="white" stroke="#DDDDDD" stroke-width="0.815244"/>
</g>
<defs>
<filter id="filter0_d_295_679" x="381.167" y="289.855" width="18.457" height="18.457" filterUnits="userSpaceOnUse" color-interpolation-filters="sRGB">
<feFlood flood-opacity="0" result="BackgroundImageFix"/>
<feColorMatrix in="SourceAlpha" type="matrix" values="0 0 0 0 0 0 0 0 0 0 0 0 0 0 0 0 0 0 127 0" result="hardAlpha"/>
<feOffset dy="2.63671"/>
<feGaussianBlur stdDeviation="1.31836"/>
<feComposite in2="hardAlpha" operator="out"/>
<feColorMatrix type="matrix" values="0 0 0 0 0 0 0 0 0 0 0 0 0 0 0 0 0 0 0.04 0"/>
<feBlend mode="normal" in2="BackgroundImageFix" result="effect1_dropShadow_295_679"/>
<feBlend mode="normal" in="SourceGraphic" in2="effect1_dropShadow_295_679" result="shape"/>
</filter>
<filter id="filter1_d_295_679" x="466.202" y="289.855" width="18.457" height="18.457" filterUnits="userSpaceOnUse" color-interpolation-filters="sRGB">
<feFlood flood-opacity="0" result="BackgroundImageFix"/>
<feColorMatrix in="SourceAlpha" type="matrix" values="0 0 0 0 0 0 0 0 0 0 0 0 0 0 0 0 0 0 127 0" result="hardAlpha"/>
<feOffset dy="2.63671"/>
<feGaussianBlur stdDeviation="1.31836"/>
<feComposite in2="hardAlpha" operator="out"/>
<feColorMatrix type="matrix" values="0 0 0 0 0 0 0 0 0 0 0 0 0 0 0 0 0 0 0.04 0"/>
<feBlend mode="normal" in2="BackgroundImageFix" result="effect1_dropShadow_295_679"/>
<feBlend mode="normal" in="SourceGraphic" in2="effect1_dropShadow_295_679" result="shape"/>
</filter>
<filter id="filter2_d_295_679" x="426.651" y="223.938" width="18.457" height="18.457" filterUnits="userSpaceOnUse" color-interpolation-filters="sRGB">
<feFlood flood-opacity="0" result="BackgroundImageFix"/>
<feColorMatrix in="SourceAlpha" type="matrix" values="0 0 0 0 0 0 0 0 0 0 0 0 0 0 0 0 0 0 127 0" result="hardAlpha"/>
<feOffset dy="2.63671"/>
<feGaussianBlur stdDeviation="1.31836"/>
<feComposite in2="hardAlpha" operator="out"/>
<feColorMatrix type="matrix" values="0 0 0 0 0 0 0 0 0 0 0 0 0 0 0 0 0 0 0.04 0"/>
<feBlend mode="normal" in2="BackgroundImageFix" result="effect1_dropShadow_295_679"/>
<feBlend mode="normal" in="SourceGraphic" in2="effect1_dropShadow_295_679" result="shape"/>
</filter>
<filter id="filter3_d_295_679" x="321.182" y="223.938" width="18.457" height="18.457" filterUnits="userSpaceOnUse" color-interpolation-filters="sRGB">
<feFlood flood-opacity="0" result="BackgroundImageFix"/>
<feColorMatrix in="SourceAlpha" type="matrix" values="0 0 0 0 0 0 0 0 0 0 0 0 0 0 0 0 0 0 127 0" result="hardAlpha"/>
<feOffset dy="2.63671"/>
<feGaussianBlur stdDeviation="1.31836"/>
<feComposite in2="hardAlpha" operator="out"/>
<feColorMatrix type="matrix" values="0 0 0 0 0 0 0 0 0 0 0 0 0 0 0 0 0 0 0.04 0"/>
<feBlend mode="normal" in2="BackgroundImageFix" result="effect1_dropShadow_295_679"/>
<feBlend mode="normal" in="SourceGraphic" in2="effect1_dropShadow_295_679" result="shape"/>
</filter>
<filter id="filter4_d_295_679" x="215.714" y="223.938" width="18.457" height="18.457" filterUnits="userSpaceOnUse" color-interpolation-filters="sRGB">
<feFlood flood-opacity="0" result="BackgroundImageFix"/>
<feColorMatrix in="SourceAlpha" type="matrix" values="0 0 0 0 0 0 0 0 0 0 0 0 0 0 0 0 0 0 127 0" result="hardAlpha"/>
<feOffset dy="2.63671"/>
<feGaussianBlur stdDeviation="1.31836"/>
<feComposite in2="hardAlpha" operator="out"/>
<feColorMatrix type="matrix" values="0 0 0 0 0 0 0 0 0 0 0 0 0 0 0 0 0 0 0.04 0"/>
<feBlend mode="normal" in2="BackgroundImageFix" result="effect1_dropShadow_295_679"/>
<feBlend mode="normal" in="SourceGraphic" in2="effect1_dropShadow_295_679" result="shape"/>
</filter>
<filter id="filter5_d_295_679" x="214.164" y="290.013" width="18.457" height="18.457" filterUnits="userSpaceOnUse" color-interpolation-filters="sRGB">
<feFlood flood-opacity="0" result="BackgroundImageFix"/>
<feColorMatrix in="SourceAlpha" type="matrix" values="0 0 0 0 0 0 0 0 0 0 0 0 0 0 0 0 0 0 127 0" result="hardAlpha"/>
<feOffset dy="2.63671"/>
<feGaussianBlur stdDeviation="1.31836"/>
<feComposite in2="hardAlpha" operator="out"/>
<feColorMatrix type="matrix" values="0 0 0 0 0 0 0 0 0 0 0 0 0 0 0 0 0 0 0.04 0"/>
<feBlend mode="normal" in2="BackgroundImageFix" result="effect1_dropShadow_295_679"/>
<feBlend mode="normal" in="SourceGraphic" in2="effect1_dropShadow_295_679" result="shape"/>
</filter>
<filter id="filter6_d_295_679" x="0.200001" y="350.2" width="324.6" height="325.427" filterUnits="userSpaceOnUse" color-interpolation-filters="sRGB">
<feFlood flood-opacity="0" result="BackgroundImageFix"/>
<feColorMatrix in="SourceAlpha" type="matrix" values="0 0 0 0 0 0 0 0 0 0 0 0 0 0 0 0 0 0 127 0" result="hardAlpha"/>
<feOffset dx="27" dy="20"/>
<feGaussianBlur stdDeviation="18.9"/>
<feComposite in2="hardAlpha" operator="out"/>
<feColorMatrix type="matrix" values="0 0 0 0 0 0 0 0 0 0 0 0 0 0 0 0 0 0 0.03 0"/>
<feBlend mode="normal" in2="BackgroundImageFix" result="effect1_dropShadow_295_679"/>
<feBlend mode="normal" in="SourceGraphic" in2="effect1_dropShadow_295_679" result="shape"/>
</filter>
<linearGradient id="paint0_linear_295_679" x1="297.452" y1="148.791" x2="297.452" y2="185.705" gradientUnits="userSpaceOnUse">
<stop stop-color="#00AEAE"/>
<stop offset="1" stop-color="#009F9F"/>
</linearGradient>
<linearGradient id="paint1_linear_295_679" x1="297.452" y1="223.938" x2="297.452" y2="260.851" gradientUnits="userSpaceOnUse">
<stop stop-color="#005AA4"/>
<stop offset="1" stop-color="#00488C"/>
</linearGradient>
<linearGradient id="paint2_linear_295_679" x1="402.92" y1="223.938" x2="402.92" y2="260.851" gradientUnits="userSpaceOnUse">
<stop stop-color="#005AA4"/>
<stop offset="1" stop-color="#00488C"/>
</linearGradient>
<linearGradient id="paint3_linear_295_679" x1="191.983" y1="223.938" x2="191.983" y2="260.851" gradientUnits="userSpaceOnUse">
<stop stop-color="#005AA4"/>
<stop offset="1" stop-color="#00488C"/>
</linearGradient>
<linearGradient id="paint4_linear_295_679" x1="51.7622" y1="464.06" x2="85.2262" y2="390.915" gradientUnits="userSpaceOnUse">
<stop stop-color="#00AEAE"/>
<stop offset="1" stop-color="#2DC8C8"/>
</linearGradient>
<clipPath id="clip0_295_679">
<rect width="460" height="610" fill="white" transform="translate(71)"/>
</clipPath>
<clipPath id="clip1_295_679">
<rect x="101" y="93" width="400" height="542" rx="10" fill="white"/>
</clipPath>
<clipPath id="clip2_295_679">
<rect width="6.59178" height="6.59178" fill="white" transform="translate(387.1 293.151)"/>
</clipPath>
<clipPath id="clip3_295_679">
<rect width="15.8203" height="15.8203" fill="white" transform="translate(329.092 337.316)"/>
</clipPath>
<clipPath id="clip4_295_679">
<rect width="15.8203" height="15.8203" fill="white" transform="translate(163.808 337.13)"/>
</clipPath>
<clipPath id="clip5_295_679">
<rect width="15.8203" height="15.8203" fill="white" transform="translate(414.126 337.316)"/>
</clipPath>
<clipPath id="clip6_295_679">
<rect width="15.8203" height="15.8203" fill="white" transform="translate(329.092 368.298)"/>
</clipPath>
<clipPath id="clip7_295_679">
<rect width="15.8203" height="15.8203" fill="white" transform="translate(163.808 368.111)"/>
</clipPath>
<clipPath id="clip8_295_679">
<rect width="15.8203" height="15.8203" fill="white" transform="translate(329.092 399.023)"/>
</clipPath>
<clipPath id="clip9_295_679">
<rect width="15.8203" height="15.8203" fill="white" transform="translate(163.808 398.837)"/>
</clipPath>
<clipPath id="clip10_295_679">
<rect width="15.8203" height="15.8203" fill="white" transform="translate(329.092 429.535)"/>
</clipPath>
<clipPath id="clip11_295_679">
<rect width="15.8203" height="15.8203" fill="white" transform="translate(413.997 399.023)"/>
</clipPath>
<clipPath id="clip12_295_679">
<rect width="15.8203" height="15.8203" fill="white" transform="translate(414.126 368.298)"/>
</clipPath>
<clipPath id="clip13_295_679">
<rect width="6.59178" height="6.59178" fill="white" transform="translate(472.134 293.151)"/>
</clipPath>
<clipPath id="clip14_295_679">
<rect width="6.59178" height="6.59178" fill="white" transform="translate(327.115 227.233)"/>
</clipPath>
<clipPath id="clip15_295_679">
<rect width="6.59178" height="6.59178" fill="white" transform="translate(220.096 293.309)"/>
</clipPath>
<clipPath id="clip16_295_679">
<rect width="13.0439" height="17.1201" fill="white" transform="matrix(-1 0 0 1 48.5012 392.458)"/>
</clipPath>
<clipPath id="clip17_295_679">
<rect width="7.33719" height="4.07622" fill="white" transform="translate(195.761 495.23)"/>
</clipPath>
<clipPath id="clip18_295_679">
<rect width="7.33719" height="4.07622" fill="white" transform="translate(195.761 537.065)"/>
</clipPath>
</defs>
</svg>
