<svg width="745" height="610" viewBox="0 0 745 610" fill="none" xmlns="http://www.w3.org/2000/svg">
<g clip-path="url(#clip0_272_2192)">
<g clip-path="url(#clip1_272_2192)">
<rect x="65" width="680" height="640" rx="16" fill="white"/>
<path d="M118.2 50.96H116.44L114.152 44.432C114.056 44.1547 113.933 43.9573 113.784 43.84C113.635 43.7227 113.411 43.664 113.112 43.664H111.384C111.085 43.664 110.861 43.7227 110.712 43.84C110.563 43.9573 110.44 44.1547 110.344 44.432L108.056 50.96H106.296L108.952 43.664H106.52V42.224H117.976V43.664H115.544L118.2 50.96ZM118.984 55.568H105.512V54.128H111.448V49.52H113.048V54.128H118.984V55.568ZM132.588 56.528H130.988V52.336H121.42V50.896H132.588V56.528ZM132.588 50.16H130.988V42.064H132.588V50.16ZM129.068 49.84H127.388L125.58 44.016C125.537 43.888 125.495 43.8027 125.452 43.76C125.42 43.7067 125.345 43.68 125.228 43.68H124.124C124.007 43.68 123.927 43.7067 123.884 43.76C123.852 43.8133 123.815 43.8987 123.772 44.016L121.868 49.84H120.188L122.204 43.68H120.236V42.24H129.292V43.68H127.164L129.068 49.84ZM147.056 50.48H135.52V43.184C135.52 42.8427 135.595 42.5973 135.744 42.448C135.893 42.2987 136.139 42.224 136.48 42.224H146.976V43.664H137.12V49.04H147.056V50.48ZM147.984 55.568H134.512V54.128H140.448V51.44H142.048V54.128H147.984V55.568ZM165.2 56.528H154.016V52H155.616V55.088H165.2V56.528ZM165.104 53.232H163.504V42.064H165.104V45.952H166.992V47.424H165.104V53.232ZM161.68 48.272H160.08L160.448 44.048C160.459 43.8987 160.443 43.8027 160.4 43.76C160.368 43.7067 160.278 43.68 160.128 43.68H153.776V42.24H161.456C161.723 42.24 161.904 42.3093 162 42.448C162.096 42.576 162.134 42.7627 162.112 43.008L161.68 48.272ZM162.704 50.768H153.232V49.328H156.128V46.176H157.728V49.328H162.704V50.768ZM180.244 56.528H178.644V42.064H180.244V56.528ZM177.364 55.12H168.308V47.616H174.82V43.648H168.276V42.24H176.42V47.792C176.42 48.208 176.324 48.512 176.132 48.704C175.94 48.896 175.636 48.992 175.22 48.992H169.908V53.712H177.364V55.12Z" fill="black"/>
<rect x="105" y="113" width="600" height="551" rx="12" fill="#F5F6FB"/>
<mask id="path-4-inside-1_272_2192" fill="white">
<path d="M484 373H615V440H484V373Z"/>
</mask>
<path d="M484 373V371H482V373H484ZM615 373H617V371H615V373ZM484 373V375H615V373V371H484V373ZM615 373H613V440H615H617V373H615ZM484 440H486V373H484H482V440H484Z" fill="#D3D6E8" mask="url(#path-4-inside-1_272_2192)"/>
<rect x="330" y="174" width="120" height="56" rx="28" fill="url(#paint0_linear_272_2192)"/>
<rect x="332" y="176" width="116" height="52" rx="26" stroke="white" stroke-opacity="0.6" stroke-width="4"/>
<path d="M374.591 200.163V195.009H376.357V208.352H374.591V201.66H373.307V207.699H371.592V195.242H373.307V200.163H374.591ZM367.086 203.763C367.783 203.752 368.426 203.723 369.013 203.675C369.6 203.626 370.197 203.547 370.805 203.436L370.945 204.959C370.195 205.104 369.458 205.201 368.733 205.249C368.011 205.298 367.148 205.324 366.143 205.327H365.211V196.558H370.188V198.06H367.086V203.763ZM386.663 202.841V205.374H389.75V206.871H377.557V205.374H380.582V202.841H378.567V201.334H380.354V197.584H378.51V196.081H388.735V197.584H386.855V201.334H388.673V202.841H386.663ZM385.011 197.584H382.219V201.334H385.011V197.584ZM384.788 202.841H382.457V205.374H384.788V202.841ZM399.543 195.009H401.433V208.383H399.543V195.009ZM394.192 195.952C394.862 195.952 395.463 196.147 395.995 196.537C396.527 196.927 396.944 197.482 397.248 198.2C397.552 198.915 397.704 199.747 397.704 200.696C397.704 201.653 397.552 202.492 397.248 203.214C396.944 203.935 396.527 204.491 395.995 204.882C395.463 205.268 394.862 205.462 394.192 205.462C393.512 205.462 392.904 205.268 392.369 204.882C391.834 204.491 391.416 203.937 391.116 203.219C390.815 202.497 390.665 201.656 390.665 200.696C390.665 199.747 390.815 198.915 391.116 198.2C391.416 197.482 391.834 196.927 392.369 196.537C392.904 196.147 393.512 195.952 394.192 195.952ZM394.192 197.641C393.844 197.641 393.54 197.76 393.281 197.998C393.022 198.233 392.821 198.58 392.68 199.039C392.538 199.498 392.469 200.051 392.473 200.696C392.469 201.349 392.538 201.907 392.68 202.369C392.821 202.829 393.022 203.177 393.281 203.416C393.54 203.651 393.844 203.768 394.192 203.768C394.534 203.768 394.833 203.651 395.088 203.416C395.344 203.177 395.542 202.829 395.684 202.369C395.826 201.907 395.896 201.349 395.896 200.696C395.896 200.051 395.826 199.498 395.684 199.039C395.542 198.58 395.344 198.233 395.088 197.998C394.833 197.76 394.534 197.641 394.192 197.641ZM413.51 200.153H415.479V201.732H413.51V208.352H411.641V195.009H413.51V200.153ZM407.901 198.034C407.897 198.849 408.011 199.638 408.243 200.401C408.478 201.164 408.831 201.85 409.305 202.458C409.778 203.062 410.359 203.531 411.05 203.866L409.921 205.353C409.23 205.011 408.638 204.529 408.144 203.908C407.651 203.283 407.26 202.556 406.974 201.727C406.673 202.618 406.261 203.397 405.736 204.063C405.214 204.73 404.586 205.246 403.85 205.612L402.706 204.094C403.431 203.763 404.042 203.281 404.539 202.649C405.037 202.017 405.408 201.302 405.653 200.505C405.902 199.707 406.028 198.884 406.031 198.034V196.04H407.901V198.034Z" fill="white"/>
<rect x="330" y="288" width="120" height="56" rx="28" fill="url(#paint1_linear_272_2192)"/>
<rect x="332" y="290" width="116" height="52" rx="26" stroke="white" stroke-opacity="0.66" stroke-width="4"/>
<rect x="490" y="288" width="120" height="56" rx="28" fill="url(#paint2_linear_272_2192)"/>
<rect x="492" y="290" width="116" height="52" rx="26" stroke="white" stroke-opacity="0.66" stroke-width="4"/>
<rect x="430" y="388" width="111" height="52" rx="26" fill="#0BE39A"/>
<rect x="432" y="390" width="107" height="48" rx="24" stroke="white" stroke-opacity="0.66" stroke-width="4"/>
<g filter="url(#filter0_d_272_2192)">
<circle cx="531" cy="398" r="10" fill="white"/>
</g>
<path d="M531.375 395.856L533.143 397.624L529.018 401.748H527.25V399.981L531.375 395.856ZM531.964 395.267L532.848 394.383C533.011 394.22 533.274 394.22 533.437 394.383L534.616 395.561C534.778 395.724 534.778 395.988 534.616 396.151L533.732 397.034L531.964 395.267Z" fill="black" fill-opacity="0.19"/>
<rect x="215" y="388" width="111" height="52" rx="26" fill="#0BE39A"/>
<rect x="217" y="390" width="107" height="48" rx="24" stroke="white" stroke-opacity="0.66" stroke-width="4"/>
<rect x="430" y="452" width="111" height="40" rx="20" fill="white"/>
<g clip-path="url(#clip2_272_2192)">
<path d="M450 484C456.627 484 462 478.627 462 472C462 465.373 456.627 460 450 460C443.373 460 438 465.373 438 472C438 478.627 443.373 484 450 484Z" fill="#00AEAE"/>
<path d="M452.383 476.5H446.836C446.601 476.5 446.368 476.418 446.185 476.271C446.002 476.123 445.873 475.912 445.825 475.682C445.089 472.213 444.562 469.873 444.423 469.443C443.931 469.395 443.544 468.978 443.544 468.474C443.544 467.938 443.979 467.502 444.514 467.5H444.517C445.041 467.5 445.477 467.924 445.491 468.448C445.497 468.682 445.419 468.907 445.275 469.087L447.304 471.43C447.394 471.532 447.523 471.584 447.658 471.569C447.795 471.556 447.91 471.478 447.976 471.359L449.116 469.294C448.84 469.114 448.669 468.808 448.669 468.474C448.669 468.22 448.765 467.98 448.942 467.797C449.118 467.617 449.352 467.511 449.604 467.5C449.608 467.5 449.611 467.5 449.616 467.5C449.868 467.509 450.103 467.617 450.277 467.797C450.453 467.98 450.55 468.22 450.55 468.474C450.55 468.808 450.379 469.114 450.105 469.291L451.245 471.358C451.311 471.477 451.426 471.554 451.561 471.568C451.698 471.582 451.827 471.53 451.915 471.428L453.946 469.086C453.799 468.906 453.723 468.681 453.727 468.447C453.742 467.925 454.177 467.5 454.702 467.5H454.705C455.241 467.502 455.676 467.938 455.676 468.474C455.676 468.978 455.289 469.395 454.797 469.443C454.657 469.873 454.131 472.212 453.393 475.682C453.345 475.91 453.216 476.122 453.033 476.271C452.85 476.419 452.619 476.5 452.383 476.5Z" fill="white"/>
</g>
<rect x="559" y="452" width="111" height="40" rx="20" fill="white"/>
<g clip-path="url(#clip3_272_2192)">
<path d="M579 484C585.627 484 591 478.627 591 472C591 465.373 585.627 460 579 460C572.373 460 567 465.373 567 472C567 478.627 572.373 484 579 484Z" fill="#00AEAE"/>
<path d="M581.383 476.5H575.836C575.601 476.5 575.368 476.418 575.185 476.271C575.002 476.123 574.873 475.912 574.825 475.682C574.089 472.213 573.562 469.873 573.423 469.443C572.931 469.395 572.544 468.978 572.544 468.474C572.544 467.938 572.979 467.502 573.514 467.5H573.517C574.041 467.5 574.477 467.924 574.491 468.448C574.497 468.682 574.419 468.907 574.275 469.087L576.304 471.43C576.394 471.532 576.523 471.584 576.658 471.569C576.795 471.556 576.91 471.478 576.976 471.359L578.116 469.294C577.84 469.114 577.669 468.808 577.669 468.474C577.669 468.22 577.765 467.98 577.942 467.797C578.118 467.617 578.352 467.511 578.604 467.5C578.608 467.5 578.611 467.5 578.616 467.5C578.868 467.509 579.103 467.617 579.277 467.797C579.453 467.98 579.55 468.22 579.55 468.474C579.55 468.808 579.379 469.114 579.105 469.291L580.245 471.358C580.311 471.477 580.426 471.554 580.561 471.568C580.698 471.582 580.827 471.53 580.915 471.428L582.946 469.086C582.799 468.906 582.723 468.681 582.727 468.447C582.742 467.925 583.177 467.5 583.702 467.5H583.705C584.241 467.502 584.676 467.938 584.676 468.474C584.676 468.978 584.289 469.395 583.797 469.443C583.657 469.873 583.131 472.212 582.393 475.682C582.345 475.91 582.216 476.122 582.033 476.271C581.85 476.419 581.619 476.5 581.383 476.5Z" fill="white"/>
</g>
<rect x="430" y="499" width="111" height="40" rx="20" fill="white"/>
<g clip-path="url(#clip4_272_2192)">
<path d="M450 531C456.627 531 462 525.627 462 519C462 512.373 456.627 507 450 507C443.373 507 438 512.373 438 519C438 525.627 443.373 531 450 531Z" fill="#EEEEEE"/>
<path d="M450.001 518.967C451.442 518.967 452.61 517.799 452.61 516.358C452.61 514.918 451.442 513.75 450.001 513.75C448.561 513.75 447.393 514.918 447.393 516.358C447.393 517.799 448.561 518.967 450.001 518.967Z" fill="#ADADAD"/>
<path d="M453.72 524.25H446.281C445.678 524.25 445.188 523.764 445.188 523.159C445.188 521.518 446.517 520.189 448.156 520.189H451.837C453.478 520.189 454.807 521.52 454.807 523.159C454.81 523.764 454.324 524.25 453.72 524.25Z" fill="#ADADAD"/>
</g>
<rect x="559" y="499" width="111" height="40" rx="20" fill="white"/>
<g clip-path="url(#clip5_272_2192)">
<path d="M579 531C585.627 531 591 525.627 591 519C591 512.373 585.627 507 579 507C572.373 507 567 512.373 567 519C567 525.627 572.373 531 579 531Z" fill="#EEEEEE"/>
<path d="M579.001 518.967C580.442 518.967 581.61 517.799 581.61 516.358C581.61 514.918 580.442 513.75 579.001 513.75C577.561 513.75 576.393 514.918 576.393 516.358C576.393 517.799 577.561 518.967 579.001 518.967Z" fill="#ADADAD"/>
<path d="M582.72 524.25H575.281C574.678 524.25 574.188 523.764 574.188 523.159C574.188 521.518 575.517 520.189 577.156 520.189H580.837C582.478 520.189 583.807 521.52 583.807 523.159C583.81 523.764 583.324 524.25 582.72 524.25Z" fill="#ADADAD"/>
</g>
<rect x="215" y="452" width="111" height="40" rx="20" fill="white"/>
<rect x="215" y="499" width="111" height="40" rx="20" fill="white"/>
<rect x="559" y="388" width="111" height="52" rx="26" fill="#0BE39A"/>
<rect x="561" y="390" width="107" height="48" rx="24" stroke="white" stroke-opacity="0.66" stroke-width="4"/>
<g filter="url(#filter1_d_272_2192)">
<circle cx="660" cy="398" r="10" fill="white"/>
</g>
<path d="M660.375 395.856L662.143 397.624L658.018 401.748H656.25V399.981L660.375 395.856ZM660.964 395.267L661.848 394.383C662.011 394.22 662.274 394.22 662.437 394.383L663.616 395.561C663.778 395.724 663.778 395.988 663.616 396.151L662.732 397.034L660.964 395.267Z" fill="black" fill-opacity="0.19"/>
<g filter="url(#filter2_d_272_2192)">
<circle cx="600" cy="298" r="10" fill="white"/>
</g>
<path d="M600.375 295.856L602.143 297.624L598.018 301.748H596.25V299.981L600.375 295.856ZM600.964 295.267L601.848 294.383C602.011 294.22 602.274 294.22 602.437 294.383L603.616 295.561C603.778 295.724 603.778 295.988 603.616 296.151L602.732 297.034L600.964 295.267Z" fill="black" fill-opacity="0.19"/>
<g filter="url(#filter3_d_272_2192)">
<circle cx="440" cy="298" r="10" fill="white"/>
</g>
<path d="M440.375 295.856L442.143 297.624L438.018 301.748H436.25V299.981L440.375 295.856ZM440.964 295.267L441.848 294.383C442.011 294.22 442.274 294.22 442.437 294.383L443.616 295.561C443.778 295.724 443.778 295.988 443.616 296.151L442.732 297.034L440.964 295.267Z" fill="black" fill-opacity="0.19"/>
<rect x="170" y="288" width="120" height="56" rx="28" fill="url(#paint3_linear_272_2192)"/>
<rect x="172" y="290" width="116" height="52" rx="26" stroke="white" stroke-opacity="0.66" stroke-width="4"/>
<mask id="path-45-inside-2_272_2192" fill="white">
<path d="M229 255H550V288H229V255Z"/>
</mask>
<path d="M229 255V253H227V255H229ZM550 255H552V253H550V255ZM229 255V257H550V255V253H229V255ZM550 255H548V288H550H552V255H550ZM229 288H231V255H229H227V288H229Z" fill="#D3D6E8" mask="url(#path-45-inside-2_272_2192)"/>
<rect x="389" y="230" width="2" height="58" fill="#D3D6E8"/>
<rect x="549" y="344" width="2" height="29" fill="#D3D6E8"/>
<rect x="230" y="344" width="2" height="29" fill="#D3D6E8"/>
<path d="M365.471 315.064V315.888H370.64V317.354H358.447V315.888H363.596V315.064H359.975V309.336H369.216V310.781H361.84V311.521H368.905V312.878H361.84V313.64H369.329V315.064H365.471ZM364.533 317.96C365.51 317.96 366.346 318.044 367.04 318.213C367.734 318.383 368.262 318.631 368.625 318.959C368.991 319.287 369.176 319.684 369.179 320.151C369.176 320.627 368.991 321.029 368.625 321.357C368.262 321.685 367.734 321.932 367.04 322.098C366.35 322.267 365.514 322.35 364.533 322.347C363.539 322.35 362.693 322.267 361.995 322.098C361.301 321.932 360.773 321.685 360.41 321.357C360.048 321.029 359.866 320.627 359.866 320.151C359.866 319.684 360.048 319.287 360.41 318.959C360.776 318.631 361.308 318.383 362.006 318.213C362.703 318.044 363.546 317.96 364.533 317.96ZM364.59 320.964C365.516 320.964 366.198 320.898 366.636 320.767C367.078 320.636 367.301 320.43 367.304 320.151C367.301 319.871 367.073 319.667 366.621 319.539C366.172 319.408 365.476 319.343 364.533 319.343C363.573 319.343 362.865 319.408 362.41 319.539C361.957 319.667 361.733 319.871 361.736 320.151C361.733 320.437 361.961 320.644 362.42 320.772C362.883 320.9 363.606 320.964 364.59 320.964ZM376.087 310.19H379.107V311.656H371.192V310.19H374.222V308.921H376.087V310.19ZM381.774 312.231H383.566V313.785H381.774V316.825H379.899V309.009H381.774V312.231ZM375.155 316.748C374.506 316.748 373.929 316.651 373.425 316.458C372.924 316.264 372.536 315.99 372.259 315.634C371.983 315.275 371.845 314.86 371.845 314.391C371.845 313.925 371.983 313.514 372.259 313.158C372.536 312.802 372.924 312.526 373.425 312.329C373.925 312.133 374.502 312.034 375.155 312.034C375.794 312.034 376.362 312.133 376.859 312.329C377.356 312.526 377.743 312.802 378.019 313.158C378.295 313.514 378.433 313.925 378.433 314.391C378.433 314.86 378.295 315.273 378.019 315.629C377.743 315.984 377.356 316.261 376.859 316.458C376.362 316.651 375.794 316.748 375.155 316.748ZM373.663 314.391C373.663 314.709 373.798 314.954 374.067 315.126C374.336 315.299 374.699 315.385 375.155 315.385C375.611 315.385 375.975 315.299 376.248 315.126C376.52 314.954 376.659 314.709 376.662 314.391C376.662 314.187 376.598 314.013 376.47 313.868C376.346 313.719 376.172 313.605 375.947 313.526C375.726 313.446 375.469 313.407 375.175 313.407C374.716 313.407 374.348 313.495 374.072 313.671C373.799 313.844 373.663 314.084 373.663 314.391ZM374.901 318.353H379.899V317.333H381.774V322.202H373.047V317.333H374.901V318.353ZM374.901 320.731H379.899V319.788H374.901V320.731ZM393.613 314.065V309.009H395.41V322.352H393.613V315.567H392.391V321.756H390.655V309.362H392.391V314.065H393.613ZM389.708 310.662C389.704 311.974 389.552 313.165 389.252 314.235C388.951 315.302 388.442 316.288 387.724 317.193C387.009 318.098 386.044 318.902 384.828 319.607L383.751 318.312C384.645 317.79 385.383 317.222 385.963 316.608C386.543 315.99 386.987 315.316 387.294 314.588C387.601 313.859 387.798 313.049 387.884 312.158H384.424V310.662H389.708ZM407.213 309.009V311.609H409.005V313.122H407.213V315.805H405.338V309.009H407.213ZM401.619 309.615H403.484V315.432H397.03V309.615H398.884V311.195H401.619V309.615ZM398.884 313.966H401.619V312.599H398.884V313.966ZM407.213 319.923H400.231V320.788H407.596V322.259H398.387V318.581H405.348V317.742H398.366V316.297H407.213V319.923ZM418.637 316.944V309.03H420.512V316.944H418.637ZM417.669 315.976C416.861 316.114 416.041 316.207 415.208 316.256C414.38 316.3 413.32 316.323 412.028 316.323H411.236H410.081V309.776H416.545V311.273H411.966V312.314H416.156V313.754H411.966V314.847C413.275 314.843 414.324 314.821 415.115 314.779C415.909 314.738 416.698 314.652 417.482 314.52L417.669 315.976ZM420.512 322.202H411.578V317.488H420.512V322.202ZM418.679 318.939H413.421V320.705H418.679V318.939Z" fill="white"/>
<path d="M205.668 313.987V312.48H207.848V309.03H209.713V318.762H207.848V313.987H205.668ZM202.581 314.349C202.277 315.037 201.854 315.632 201.312 316.136C200.773 316.641 200.122 317.02 199.359 317.276L198.401 315.763C199.108 315.539 199.702 315.213 200.182 314.785C200.662 314.356 201.018 313.869 201.249 313.324C201.484 312.778 201.603 312.212 201.607 311.625V311.423H198.934V309.926H206.165V311.423H203.508V311.635C203.508 312.171 203.618 312.694 203.839 313.205C204.064 313.712 204.405 314.172 204.865 314.583C205.327 314.99 205.897 315.304 206.574 315.525L205.652 317.007C204.934 316.772 204.317 316.426 203.803 315.971C203.288 315.511 202.881 314.971 202.581 314.349ZM202.731 317.913V320.612H210.029V322.119H200.866V317.913H202.731ZM223.551 310.858V312.392H221.774V313.712H223.551V315.235H221.774V317.126H219.899V309.03H221.774V310.858H223.551ZM215.968 312.423V311.257H211.659V309.766H217.791V313.847H213.544V315.126C214.718 315.119 215.707 315.088 216.512 315.033C217.32 314.978 218.126 314.879 218.931 314.738L219.128 316.224C218.206 316.39 217.273 316.504 216.331 316.566C215.388 316.625 214.21 316.654 212.798 316.654H211.679V312.423H215.968ZM219.899 319.223H212.798V317.732H221.774V322.331H219.899V319.223ZM233.225 322.352V309.009H235.115V322.352H233.225ZM231.122 310.413C231.118 311.839 230.925 313.136 230.542 314.303C230.158 315.47 229.511 316.54 228.599 317.514C227.691 318.488 226.469 319.337 224.932 320.062L223.958 318.576C225.098 318.034 226.037 317.435 226.776 316.779C227.515 316.123 228.081 315.394 228.475 314.593C228.869 313.788 229.115 312.884 229.216 311.879H224.673V310.413H231.122ZM241.961 310.004H244.991V311.361H237.092V310.004H240.096V308.926H241.961V310.004ZM245.939 318.048V309.04H247.834V318.048H245.939ZM245.245 317.24C243.981 317.457 242.665 317.6 241.298 317.67C239.934 317.739 238.48 317.773 236.937 317.773L236.693 316.359C238.019 316.359 239.153 316.347 240.096 316.323V315.608C239.602 315.539 239.176 315.418 238.817 315.246C238.458 315.073 238.181 314.855 237.988 314.593C237.795 314.327 237.7 314.025 237.703 313.686C237.7 313.279 237.836 312.923 238.112 312.619C238.389 312.312 238.779 312.077 239.283 311.915C239.791 311.749 240.378 311.666 241.044 311.666C241.697 311.666 242.273 311.749 242.774 311.915C243.278 312.077 243.67 312.312 243.95 312.619C244.233 312.927 244.374 313.282 244.374 313.686C244.374 314.025 244.274 314.327 244.074 314.593C243.877 314.859 243.598 315.078 243.235 315.251C242.872 315.423 242.448 315.542 241.961 315.608V316.25C243.086 316.192 244.136 316.102 245.11 315.981L245.245 317.24ZM239.5 313.686C239.5 313.925 239.633 314.108 239.899 314.235C240.169 314.36 240.54 314.422 241.013 314.422C241.493 314.422 241.874 314.36 242.158 314.235C242.441 314.108 242.584 313.925 242.588 313.686C242.584 313.434 242.442 313.243 242.163 313.112C241.887 312.977 241.514 312.91 241.044 312.91C240.557 312.91 240.177 312.975 239.904 313.106C239.635 313.238 239.5 313.431 239.5 313.686ZM245.939 320.006H238.563V318.571H247.834V322.352H245.939V320.006ZM258.637 316.944V309.03H260.512V316.944H258.637ZM257.669 315.976C256.861 316.114 256.041 316.207 255.208 316.256C254.38 316.3 253.32 316.323 252.028 316.323H251.236H250.081V309.776H256.545V311.273H251.966V312.314H256.156V313.754H251.966V314.847C253.275 314.843 254.324 314.821 255.115 314.779C255.909 314.738 256.698 314.652 257.482 314.52L257.669 315.976ZM260.512 322.202H251.578V317.488H260.512V322.202ZM258.679 318.939H253.421V320.705H258.679V318.939Z" fill="white"/>
<path d="M539.979 309.03H541.854V318.612H539.979V309.03ZM538.187 313.236C538.187 313.885 538.027 314.467 537.706 314.981C537.384 315.496 536.946 315.898 536.39 316.188C535.837 316.475 535.223 316.618 534.546 316.618C533.869 316.618 533.253 316.475 532.697 316.188C532.141 315.898 531.702 315.496 531.381 314.981C531.06 314.467 530.9 313.885 530.9 313.236C530.9 312.597 531.06 312.022 531.381 311.511C531.702 311 532.141 310.599 532.697 310.309C533.253 310.019 533.869 309.874 534.546 309.874C535.223 309.874 535.837 310.019 536.39 310.309C536.946 310.599 537.384 311 537.706 311.511C538.027 312.022 538.187 312.597 538.187 313.236ZM532.728 313.236C532.725 313.598 532.8 313.913 532.956 314.179C533.115 314.441 533.332 314.643 533.609 314.785C533.885 314.923 534.197 314.992 534.546 314.992C534.884 314.992 535.19 314.923 535.463 314.785C535.736 314.643 535.95 314.441 536.105 314.179C536.264 313.913 536.343 313.598 536.343 313.236C536.343 312.884 536.264 312.576 536.105 312.314C535.95 312.051 535.736 311.851 535.463 311.713C535.19 311.571 534.884 311.501 534.546 311.501C534.197 311.501 533.885 311.571 533.609 311.713C533.332 311.851 533.115 312.051 532.956 312.314C532.8 312.576 532.725 312.884 532.728 313.236ZM534.81 317.644V320.612H542.207V322.119H532.92V317.644H534.81ZM553.931 314.153H555.9V315.732H553.931V322.352H552.062V309.009H553.931V314.153ZM548.322 312.034C548.318 312.849 548.432 313.638 548.664 314.401C548.899 315.164 549.253 315.85 549.726 316.458C550.199 317.062 550.78 317.531 551.471 317.866L550.342 319.353C549.651 319.011 549.059 318.529 548.565 317.908C548.072 317.283 547.681 316.556 547.395 315.727C547.094 316.618 546.682 317.397 546.157 318.063C545.635 318.73 545.007 319.246 544.272 319.612L543.127 318.094C543.852 317.763 544.463 317.281 544.96 316.649C545.458 316.017 545.829 315.302 546.074 314.505C546.323 313.707 546.449 312.884 546.452 312.034V310.04H548.322V312.034ZM565.418 316.944V309.03H567.293V316.944H565.418ZM564.449 315.976C563.641 316.114 562.821 316.207 561.989 316.256C561.16 316.3 560.1 316.323 558.809 316.323H558.016H556.861V309.776H563.325V311.273H558.747V312.314H562.937V313.754H558.747V314.847C560.055 314.843 561.105 314.821 561.896 314.779C562.69 314.738 563.479 314.652 564.263 314.52L564.449 315.976ZM567.293 322.202H558.358V317.488H567.293V322.202ZM565.459 318.939H560.202V320.705H565.459V318.939Z" fill="white"/>
<path d="M473.471 407.828H475.221V416.771H473.471V407.828ZM471.799 411.753C471.799 412.359 471.649 412.902 471.349 413.383C471.049 413.863 470.64 414.238 470.121 414.509C469.606 414.776 469.032 414.91 468.4 414.91C467.769 414.91 467.193 414.776 466.674 414.509C466.156 414.238 465.746 413.863 465.447 413.383C465.147 412.902 464.997 412.359 464.997 411.753C464.997 411.157 465.147 410.621 465.447 410.144C465.746 409.667 466.156 409.293 466.674 409.022C467.193 408.751 467.769 408.616 468.4 408.616C469.032 408.616 469.606 408.751 470.121 409.022C470.64 409.293 471.049 409.667 471.349 410.144C471.649 410.621 471.799 411.157 471.799 411.753ZM466.703 411.753C466.7 412.092 466.771 412.385 466.916 412.633C467.064 412.878 467.267 413.067 467.525 413.199C467.783 413.328 468.075 413.392 468.4 413.392C468.716 413.392 469.001 413.328 469.256 413.199C469.511 413.067 469.71 412.878 469.855 412.633C470.004 412.385 470.078 412.092 470.078 411.753C470.078 411.425 470.004 411.138 469.855 410.893C469.71 410.648 469.511 410.461 469.256 410.332C469.001 410.2 468.716 410.134 468.4 410.134C468.075 410.134 467.783 410.2 467.525 410.332C467.267 410.461 467.064 410.648 466.916 410.893C466.771 411.138 466.7 411.425 466.703 411.753ZM468.647 415.867V418.637H475.55V420.044H466.882V415.867H468.647ZM486.477 412.609H488.314V414.084H486.477V420.262H484.732V407.809H486.477V412.609ZM481.242 410.632C481.238 411.392 481.345 412.129 481.561 412.841C481.78 413.553 482.11 414.193 482.552 414.76C482.993 415.324 483.536 415.763 484.181 416.075L483.127 417.463C482.482 417.144 481.93 416.694 481.469 416.114C481.008 415.531 480.644 414.852 480.376 414.079C480.096 414.91 479.711 415.637 479.221 416.259C478.734 416.881 478.148 417.363 477.461 417.704L476.393 416.288C477.07 415.979 477.64 415.529 478.104 414.939C478.568 414.349 478.915 413.682 479.143 412.938C479.375 412.193 479.493 411.425 479.496 410.632V408.771H481.242V410.632ZM491.25 409.099H493.188V419H491.129V411.057H491.071L488.799 412.483V410.656L491.25 409.099ZM503.499 415.215V407.828H505.249V415.215H503.499ZM502.595 414.311C501.841 414.44 501.076 414.527 500.299 414.572C499.526 414.614 498.536 414.635 497.331 414.635H496.591H495.513V408.524H501.546V409.921H497.273V410.893H501.184V412.237H497.273V413.257C498.494 413.254 499.474 413.233 500.212 413.194C500.953 413.155 501.69 413.075 502.421 412.952L502.595 414.311ZM505.249 420.122H496.91V415.722H505.249V420.122ZM503.538 417.076H498.631V418.724H503.538V417.076Z" fill="white"/>
<path d="M252.819 407.856V420.204H251.279V407.856H252.819ZM242.599 416.816C245.819 415.276 247.317 413.19 247.597 410.376H243.215V409.172H249.151C249.137 412.854 247.709 415.976 243.383 418.02L242.599 416.816ZM262.098 408.836V409.956H254.79V408.836H257.674V407.772H259.214V408.836H262.098ZM254.426 414.716C255.406 414.716 256.512 414.716 257.674 414.688V413.96C256.274 413.778 255.406 413.134 255.406 412.168C255.406 411.034 256.61 410.306 258.458 410.32C260.264 410.306 261.496 411.034 261.51 412.168C261.496 413.134 260.6 413.792 259.214 413.96V414.632C260.25 414.576 261.286 414.506 262.266 414.38L262.378 415.416C259.732 415.85 256.82 415.892 254.622 415.892L254.426 414.716ZM256.162 417.88V416.704H264.674V420.204H263.134V417.88H256.162ZM256.862 412.168C256.862 412.686 257.492 412.98 258.458 412.98C259.396 412.98 260.04 412.686 260.054 412.168C260.04 411.636 259.396 411.342 258.458 411.328C257.492 411.342 256.862 411.636 256.862 412.168ZM263.134 416.2V407.884H264.674V416.2H263.134ZM272.861 408.584V409.816H268.437V410.964H272.525V412.14H268.437V413.372C270.747 413.372 272.161 413.33 273.785 413.064L273.925 414.24C272.161 414.548 270.621 414.59 267.961 414.576H266.897V408.584H272.861ZM268.297 420.064V415.752H276.501V420.064H268.297ZM269.809 418.832H275.017V416.928H269.809V418.832ZM274.989 415.22V407.884H276.501V415.22H274.989Z" fill="white"/>
<path d="M601.48 407.828H603.23V416.771H601.48V407.828ZM599.808 411.753C599.808 412.359 599.658 412.902 599.358 413.383C599.058 413.863 598.649 414.238 598.13 414.509C597.614 414.776 597.041 414.91 596.409 414.91C595.777 414.91 595.202 414.776 594.683 414.509C594.164 414.238 593.755 413.863 593.455 413.383C593.156 412.902 593.006 412.359 593.006 411.753C593.006 411.157 593.156 410.621 593.455 410.144C593.755 409.667 594.164 409.293 594.683 409.022C595.202 408.751 595.777 408.616 596.409 408.616C597.041 408.616 597.614 408.751 598.13 409.022C598.649 409.293 599.058 409.667 599.358 410.144C599.658 410.621 599.808 411.157 599.808 411.753ZM594.712 411.753C594.709 412.092 594.78 412.385 594.925 412.633C595.073 412.878 595.276 413.067 595.534 413.199C595.792 413.328 596.084 413.392 596.409 413.392C596.725 413.392 597.01 413.328 597.265 413.199C597.519 413.067 597.719 412.878 597.864 412.633C598.012 412.385 598.087 412.092 598.087 411.753C598.087 411.425 598.012 411.138 597.864 410.893C597.719 410.648 597.519 410.461 597.265 410.332C597.01 410.2 596.725 410.134 596.409 410.134C596.084 410.134 595.792 410.2 595.534 410.332C595.276 410.461 595.073 410.648 594.925 410.893C594.78 411.138 594.709 411.425 594.712 411.753ZM596.656 415.867V418.637H603.559V420.044H594.891V415.867H596.656ZM614.486 412.609H616.323V414.084H614.486V420.262H612.741V407.809H614.486V412.609ZM609.25 410.632C609.247 411.392 609.353 412.129 609.569 412.841C609.789 413.553 610.119 414.193 610.56 414.76C611.002 415.324 611.545 415.763 612.19 416.075L611.136 417.463C610.491 417.144 609.938 416.694 609.478 416.114C609.017 415.531 608.652 414.852 608.385 414.079C608.105 414.91 607.719 415.637 607.23 416.259C606.743 416.881 606.156 417.363 605.47 417.704L604.402 416.288C605.078 415.979 605.649 415.529 606.113 414.939C606.577 414.349 606.923 413.682 607.152 412.938C607.384 412.193 607.502 411.425 607.505 410.632V408.771H609.25V410.632ZM616.929 419L616.924 417.516L620.482 414.243C620.833 413.905 621.104 413.626 621.294 413.407C621.487 413.184 621.637 412.962 621.743 412.74C621.85 412.514 621.903 412.274 621.903 412.019C621.903 411.733 621.834 411.483 621.695 411.27C621.56 411.054 621.373 410.89 621.134 410.777C620.899 410.661 620.632 410.603 620.332 410.603C620.022 410.603 619.75 410.666 619.515 410.791C619.283 410.914 619.104 411.091 618.978 411.323C618.853 411.555 618.79 411.828 618.79 412.14H616.837C616.837 411.502 616.983 410.945 617.277 410.468C617.57 409.987 617.982 409.617 618.514 409.356C619.046 409.095 619.657 408.964 620.346 408.964C621.046 408.964 621.663 409.088 622.198 409.336C622.733 409.584 623.147 409.931 623.44 410.376C623.737 410.817 623.885 411.322 623.885 411.889C623.882 412.279 623.804 412.654 623.653 413.015C623.505 413.373 623.244 413.771 622.87 414.209C622.499 414.648 621.974 415.174 621.294 415.79L619.786 417.245V417.313H624.02V419H616.929ZM633.491 415.215V407.828H635.241V415.215H633.491ZM632.587 414.311C631.832 414.44 631.067 414.527 630.29 414.572C629.517 414.614 628.527 414.635 627.322 414.635H626.582H625.504V408.524H631.538V409.921H627.264V410.893H631.175V412.237H627.264V413.257C628.486 413.254 629.465 413.233 630.203 413.194C630.945 413.155 631.681 413.075 632.413 412.952L632.587 414.311ZM635.241 420.122H626.902V415.722H635.241V420.122ZM633.529 417.076H628.623V418.724H633.529V417.076Z" fill="white"/>
<g filter="url(#filter4_d_272_2192)">
<circle cx="280" cy="298" r="10" fill="white"/>
</g>
<path d="M280.375 295.856L282.143 297.624L278.018 301.748H276.25V299.981L280.375 295.856ZM280.964 295.267L281.848 294.383C282.011 294.22 282.274 294.22 282.437 294.383L283.616 295.561C283.778 295.724 283.778 295.988 283.616 296.151L282.732 297.034L280.964 295.267Z" fill="black" fill-opacity="0.19"/>
<g filter="url(#filter5_d_272_2192)">
<circle cx="316" cy="398" r="10" fill="white"/>
</g>
<path d="M316.375 395.856L318.143 397.624L314.018 401.748H312.25V399.981L316.375 395.856ZM316.964 395.267L317.848 394.383C318.011 394.22 318.274 394.22 318.437 394.383L319.616 395.561C319.778 395.724 319.778 395.988 319.616 396.151L318.732 397.034L316.964 395.267Z" fill="black" fill-opacity="0.19"/>
<g filter="url(#filter6_d_272_2192)">
<path d="M584 137.31C584 134.93 585.93 133 588.31 133H680.31C682.691 133 684.621 134.93 684.621 137.31V156.69C684.621 159.07 682.691 161 680.31 161H588.31C585.93 161 584 159.07 584 156.69V137.31Z" fill="white" shape-rendering="crispEdges"/>
<g filter="url(#filter7_d_272_2192)">
<path d="M586.586 139.897C586.586 137.516 588.516 135.586 590.897 135.586H629.138C631.518 135.586 633.448 137.516 633.448 139.897V154.104C633.448 156.484 631.518 158.414 629.138 158.414H590.897C588.516 158.414 586.586 156.484 586.586 154.104V139.897Z" fill="#00AEAE" shape-rendering="crispEdges"/>
<path d="M604.393 142.552V145.328H605.624V141.586H606.879V151.531H605.624V146.39H604.393V149.31H600.193V142.552H604.393ZM601.424 148.272H603.162V143.59H601.424V148.272ZM607.797 152.038V141.393H609.052V152.038H607.797ZM618.91 141.417V149.093H617.607V141.417H618.91ZM610.244 144.772C610.232 143.216 611.488 142.105 613.117 142.117C614.722 142.105 615.977 143.216 615.965 144.772C615.977 146.341 614.722 147.44 613.117 147.428C611.488 147.44 610.232 146.341 610.244 144.772ZM611.524 144.772C611.512 145.714 612.2 146.293 613.117 146.293C613.998 146.293 614.686 145.714 614.686 144.772C614.686 143.843 613.998 143.252 613.117 143.252C612.2 143.252 611.512 143.843 611.524 144.772ZM611.862 151.845V148.321H613.189V150.783H619.2V151.845H611.862Z" fill="white"/>
</g>
<path opacity="0.61" d="M656.297 145.057V141.482H657.213V151.975H656.297V145.816H653.813V145.057H656.297ZM652.213 144.299C652.213 144.916 652.333 145.527 652.575 146.132C652.82 146.738 653.15 147.277 653.567 147.749C653.986 148.219 654.449 148.569 654.955 148.8L654.396 149.55C654.002 149.347 653.632 149.077 653.288 148.741C652.946 148.405 652.643 148.02 652.379 147.587C652.118 147.153 651.91 146.689 651.754 146.195C651.601 146.714 651.393 147.205 651.129 147.666C650.868 148.127 650.565 148.536 650.22 148.891C649.876 149.247 649.506 149.53 649.112 149.741L648.52 149C649.026 148.75 649.488 148.376 649.908 147.879C650.33 147.381 650.664 146.819 650.908 146.191C651.153 145.56 651.276 144.929 651.279 144.299V142.39H652.213V144.299ZM659.834 142.232H660.759V144.19H666.202V142.232H667.119V147.683H659.834V142.232ZM660.759 144.932V146.941H666.202V144.932H660.759ZM658.701 149.783H668.294V150.558H658.701V149.783Z" fill="#222222"/>
</g>
<path opacity="0.88" d="M110.584 78.143C109.797 78.143 109.104 78.0427 108.506 77.8422C107.907 77.6417 107.442 77.3559 107.11 76.9848C106.781 76.6137 106.616 76.1798 106.616 75.683C106.616 75.1802 106.781 74.7418 107.11 74.3677C107.442 73.9937 107.907 73.7064 108.506 73.5059C109.104 73.3024 109.797 73.1991 110.584 73.1961C111.371 73.1991 112.064 73.3024 112.663 73.5059C113.264 73.7064 113.731 73.9937 114.063 74.3677C114.395 74.7418 114.561 75.1802 114.561 75.683C114.561 76.1798 114.395 76.6137 114.063 76.9848C113.731 77.3559 113.264 77.6417 112.663 77.8422C112.064 78.0427 111.371 78.143 110.584 78.143ZM110.584 74.0131C110.001 74.0131 109.486 74.082 109.04 74.2196C108.594 74.3573 108.249 74.5518 108.003 74.8032C107.758 75.0546 107.637 75.3478 107.64 75.683C107.637 76.0152 107.758 76.3055 108.003 76.5539C108.249 76.8023 108.594 76.9953 109.04 77.1329C109.486 77.2676 110.001 77.3349 110.584 77.3349C111.168 77.3349 111.683 77.2676 112.128 77.1329C112.574 76.9953 112.92 76.8023 113.165 76.5539C113.414 76.3055 113.538 76.0152 113.538 75.683C113.538 75.3478 113.414 75.0546 113.165 74.8032C112.92 74.5518 112.574 74.3573 112.128 74.2196C111.683 74.082 111.168 74.0131 110.584 74.0131ZM105.44 79.2113H115.773V80.0552H111.069V84.0325H110.09V80.0552H105.44V79.2113ZM124.725 84.0504V72.7472H125.712V84.0504H124.725ZM118.072 80.4772C119.093 80.4742 120.035 80.4443 120.9 80.3874C121.768 80.3276 122.678 80.2198 123.629 80.0642L123.728 80.8992C122.75 81.0548 121.813 81.1625 120.918 81.2224C120.023 81.2822 119.048 81.3122 117.991 81.3122H117.049V76.9938H121.277V74.6236H117.031V73.7977H122.283V77.8108H118.072V80.4772ZM138.551 84.0325V72.7472H139.547V84.0325H138.551ZM134.565 74.1388H137.51V74.9468H130.597V74.1388H133.568V72.7562H134.565V74.1388ZM134.565 80.9351C135.75 80.8812 136.83 80.7914 137.806 80.6657L137.887 81.4289C136.764 81.6084 135.599 81.7266 134.39 81.7835C133.181 81.8404 131.886 81.8688 130.507 81.8688L130.354 81.0249H130.489C131.847 81.0129 132.874 80.9949 133.568 80.971V79.7455C133.116 79.6976 132.723 79.5824 132.388 79.3999C132.052 79.2173 131.794 78.9809 131.611 78.6906C131.428 78.3973 131.339 78.0651 131.342 77.6941C131.339 77.2751 131.449 76.907 131.674 76.5898C131.898 76.2726 132.214 76.0272 132.621 75.8536C133.031 75.68 133.505 75.5932 134.044 75.5932C134.586 75.5932 135.063 75.68 135.476 75.8536C135.889 76.0272 136.209 76.2726 136.437 76.5898C136.667 76.907 136.782 77.2751 136.782 77.6941C136.782 78.0622 136.691 78.3913 136.508 78.6816C136.326 78.9719 136.067 79.2083 135.732 79.3909C135.4 79.5704 135.011 79.6857 134.565 79.7365V80.9351ZM132.275 77.6941C132.272 77.9514 132.346 78.1774 132.495 78.3719C132.645 78.5664 132.854 78.7175 133.124 78.8253C133.393 78.93 133.7 78.9809 134.044 78.9779C134.394 78.9809 134.704 78.93 134.973 78.8253C135.246 78.7175 135.457 78.5664 135.606 78.3719C135.756 78.1774 135.831 77.9514 135.831 77.6941C135.831 77.4337 135.756 77.2048 135.606 77.0073C135.457 76.8067 135.246 76.6511 134.973 76.5404C134.704 76.4297 134.394 76.3743 134.044 76.3743C133.7 76.3743 133.393 76.4297 133.124 76.5404C132.854 76.6511 132.645 76.8067 132.495 77.0073C132.346 77.2048 132.272 77.4337 132.275 77.6941ZM149.962 77.326H151.847V78.1878H149.962V84.0325H148.966V72.7472H149.962V77.326ZM145.015 75.7818C145.012 76.4282 145.141 77.0731 145.401 77.7165C145.662 78.3599 146.015 78.936 146.461 79.4448C146.91 79.9535 147.4 80.3395 147.933 80.6029L147.314 81.4019C146.904 81.1865 146.518 80.9007 146.155 80.5445C145.796 80.1854 145.478 79.7769 145.199 79.3191C144.924 78.8582 144.703 78.3674 144.535 77.8467C144.367 78.3973 144.141 78.918 143.857 79.4088C143.576 79.8996 143.25 80.3351 142.879 80.7151C142.507 81.0922 142.112 81.393 141.693 81.6174L141.065 80.8184C141.607 80.549 142.103 80.148 142.555 79.6153C143.007 79.0796 143.365 78.4751 143.628 77.8018C143.892 77.1285 144.025 76.4551 144.028 75.7818V73.7258H145.015V75.7818ZM160.422 72.7472H161.418V84.0504H160.422V72.7472ZM155.852 73.5732C156.438 73.5732 156.962 73.6854 157.423 73.9099C157.884 74.1313 158.243 74.4426 158.5 74.8436C158.761 75.2446 158.892 75.704 158.895 76.2217C158.892 76.7394 158.761 77.1988 158.5 77.5998C158.243 78.0008 157.884 78.3135 157.423 78.538C156.962 78.7594 156.438 78.8702 155.852 78.8702C155.265 78.8702 154.74 78.7594 154.276 78.538C153.812 78.3135 153.45 78.0008 153.19 77.5998C152.933 77.1958 152.805 76.7364 152.808 76.2217C152.805 75.707 152.933 75.2491 153.19 74.8481C153.45 74.4441 153.812 74.1313 154.276 73.9099C154.74 73.6854 155.265 73.5732 155.852 73.5732ZM155.852 74.4441C155.454 74.4441 155.098 74.5189 154.784 74.6685C154.469 74.8181 154.224 75.0291 154.047 75.3014C153.871 75.5708 153.784 75.8775 153.787 76.2217C153.784 76.5658 153.871 76.8741 154.047 77.1464C154.224 77.4157 154.469 77.6252 154.784 77.7749C155.098 77.9245 155.454 77.9993 155.852 77.9993C156.247 77.9993 156.6 77.9245 156.911 77.7749C157.226 77.6252 157.471 77.4157 157.647 77.1464C157.827 76.8741 157.917 76.5658 157.917 76.2217C157.917 75.8775 157.827 75.5708 157.647 75.3014C157.471 75.0291 157.226 74.8181 156.911 74.6685C156.6 74.5189 156.247 74.4441 155.852 74.4441ZM152.225 80.7106H152.894C154.154 80.7106 155.348 80.6852 156.476 80.6343C157.604 80.5834 158.671 80.4832 159.676 80.3336L159.757 81.0698C158.961 81.2194 158.134 81.3301 157.275 81.4019C156.419 81.4738 155.618 81.5186 154.873 81.5366C154.131 81.5546 153.293 81.5635 152.359 81.5635L152.225 80.7106ZM166.572 78.6008C167.218 78.4871 167.86 78.2477 168.498 77.8826C169.138 77.5175 169.663 77.0716 170.073 76.5449C170.486 76.0152 170.693 75.4645 170.693 74.893V74.6146H166.913V73.7707H175.505V74.6146H171.725V74.893C171.725 75.4645 171.932 76.0122 172.345 76.5359C172.761 77.0596 173.292 77.501 173.938 77.8602C174.585 78.2163 175.238 78.4482 175.9 78.5559L175.487 79.346C174.9 79.2293 174.324 79.0333 173.759 78.7579C173.196 78.4796 172.69 78.1355 172.241 77.7255C171.792 77.3125 171.451 76.8546 171.218 76.3519C170.984 76.8576 170.643 77.32 170.194 77.739C169.748 78.1549 169.246 78.5051 168.686 78.7894C168.126 79.0707 167.559 79.2712 166.985 79.3909L166.572 78.6008ZM171.716 78.9959V81.7431H176.394V82.578H166.06V81.7431H170.72V78.9959H171.716ZM185.318 79.5704V72.7472H186.314V79.5704H185.318ZM180.578 76.5C180.329 77.1434 179.952 77.7075 179.446 78.1923C178.941 78.6771 178.351 79.0407 177.678 79.2831L177.157 78.511C177.72 78.3105 178.219 78.0233 178.656 77.6492C179.093 77.2751 179.434 76.8442 179.68 76.3564C179.928 75.8686 180.054 75.3628 180.057 74.8391V74.3543H177.417V73.5373H183.657V74.3543H181.062V74.8391C181.062 75.3359 181.185 75.8147 181.43 76.2756C181.676 76.7334 182.017 77.1374 182.454 77.4876C182.894 77.8377 183.394 78.1041 183.953 78.2866L183.442 79.0587C182.786 78.8372 182.209 78.5036 181.709 78.0577C181.209 77.6118 180.832 77.0925 180.578 76.5ZM185.318 80.989H178.719V80.172H186.314V84.0325H185.318V80.989ZM193.56 78.8432V81.77H198.264V82.605H187.931V81.77H192.572V78.8432H189.25V73.663H196.936V74.48H190.247V78.0352H197.043V78.8432H193.56ZM200.195 74.7403H206.856V73.8066H200.159V73.0884H207.853V75.4227H201.182V76.4102H208.05V77.1374H200.195V74.7403ZM198.848 78.7714V77.9903H209.182V78.7714H198.848ZM207.889 82.0753H201.111V83.1526H208.257V83.8798H200.114V81.384H206.901V80.4233H200.096V79.6782H207.889V82.0753ZM221.607 72.7472V76.4192H223.259V77.2721H221.607V81.2403H220.602V72.7472H221.607ZM217.729 77.4786C217.852 76.8771 217.932 76.3429 217.971 75.876C218.01 75.4092 218.033 74.9349 218.039 74.453H213.393V73.6181H219.022V74.2196V74.3229C219.016 74.8705 218.995 75.3927 218.959 75.8895C218.923 76.3833 218.845 76.9399 218.725 77.5594L217.729 77.4786ZM219.893 78.9779C218.842 79.1575 217.733 79.2772 216.566 79.337C215.399 79.3969 214.144 79.4298 212.8 79.4358L212.701 78.6098C213.758 78.6038 214.566 78.5933 215.125 78.5784V76.1229H216.113V78.547C217.57 78.4841 218.809 78.3824 219.83 78.2417L219.893 78.9779ZM214.443 80.4682H215.44V82.9551H221.975V83.7811H214.443V80.4682ZM232.031 84.0504V72.7472H233.019V84.0504H232.031ZM225.378 80.4772C226.399 80.4742 227.342 80.4443 228.206 80.3874C229.074 80.3276 229.984 80.2198 230.936 80.0642L231.034 80.8992C230.056 81.0548 229.119 81.1625 228.224 81.2224C227.33 81.2822 226.354 81.3122 225.298 81.3122H224.355V76.9938H228.583V74.6236H224.337V73.7977H229.589V77.8108H225.378V80.4772ZM238.522 73.7707H241.386V74.5698H234.662V73.7707H237.535V72.6305H238.522V73.7707ZM243.46 72.7023V75.4496H245.166V76.2756H243.46V78.951H242.464V72.7023H243.46ZM240.74 76.9309C240.737 77.308 240.623 77.6372 240.399 77.9185C240.177 78.1968 239.861 78.4108 239.451 78.5604C239.044 78.7071 238.57 78.7804 238.028 78.7804C237.481 78.7804 237.001 78.7071 236.588 78.5604C236.178 78.4108 235.86 78.1968 235.636 77.9185C235.414 77.6372 235.305 77.308 235.308 76.9309C235.305 76.5539 235.414 76.2262 235.636 75.9479C235.86 75.6695 236.178 75.4556 236.588 75.3059C237.001 75.1563 237.481 75.0815 238.028 75.0815C238.57 75.0815 239.044 75.1563 239.451 75.3059C239.858 75.4556 240.174 75.6695 240.399 75.9479C240.623 76.2262 240.737 76.5539 240.74 76.9309ZM236.26 76.9309C236.257 77.1554 236.327 77.3514 236.471 77.519C236.617 77.6836 236.824 77.8108 237.09 77.9006C237.36 77.9903 237.672 78.0352 238.028 78.0352C238.379 78.0352 238.687 77.9903 238.953 77.9006C239.22 77.8108 239.426 77.6836 239.573 77.519C239.719 77.3514 239.794 77.1554 239.797 76.9309C239.794 76.7095 239.719 76.515 239.573 76.3474C239.426 76.1768 239.22 76.0466 238.953 75.9568C238.687 75.8641 238.379 75.8177 238.028 75.8177C237.672 75.8177 237.36 75.8641 237.09 75.9568C236.824 76.0466 236.617 76.1768 236.471 76.3474C236.327 76.515 236.257 76.7095 236.26 76.9309ZM243.46 82.0394H237.265V83.1347H243.873V83.9068H236.287V81.3032H242.473V80.2887H236.26V79.5345H243.46V82.0394ZM253.686 75.2072C253.453 75.6591 253.118 76.0691 252.681 76.4372C252.247 76.8023 251.753 77.106 251.199 77.3484C250.646 77.5908 250.071 77.7629 249.476 77.8646L249.063 77.0477C249.751 76.9519 250.411 76.7469 251.042 76.4327C251.674 76.1184 252.185 75.7309 252.577 75.27C252.969 74.8062 253.165 74.3154 253.165 73.7977V73.1512H254.198V73.7977C254.198 74.3064 254.394 74.7927 254.786 75.2566C255.181 75.7204 255.696 76.111 256.33 76.4282C256.965 76.7454 257.624 76.9519 258.31 77.0477L257.906 77.8646C257.31 77.7659 256.734 77.5938 256.178 77.3484C255.624 77.103 255.129 76.7978 254.692 76.4327C254.255 76.0646 253.92 75.6561 253.686 75.2072ZM248.533 79.1036H258.822V79.9385H254.144V84.0325H253.165V79.9385H248.533V79.1036ZM270.753 72.7562H271.75V79.2023H270.753V72.7562ZM265.654 78.6727C265.088 78.6727 264.58 78.5619 264.128 78.3405C263.679 78.119 263.327 77.8093 263.073 77.4113C262.818 77.0132 262.691 76.5599 262.691 76.0511C262.691 75.5364 262.818 75.0785 263.073 74.6775C263.327 74.2765 263.679 73.9652 264.128 73.7438C264.58 73.5223 265.088 73.4116 265.654 73.4116C266.22 73.4116 266.727 73.5223 267.176 73.7438C267.625 73.9652 267.975 74.2765 268.226 74.6775C268.481 75.0785 268.608 75.5364 268.608 76.0511C268.608 76.5599 268.481 77.0132 268.226 77.4113C267.975 77.8093 267.625 78.119 267.176 78.3405C266.727 78.5619 266.22 78.6727 265.654 78.6727ZM265.654 74.2645C265.274 74.2615 264.931 74.3363 264.626 74.4889C264.324 74.6386 264.087 74.8511 263.917 75.1264C263.749 75.3987 263.667 75.707 263.67 76.0511C263.667 76.3953 263.749 76.7035 263.917 76.9758C264.087 77.2482 264.324 77.4606 264.626 77.6133C264.928 77.7659 265.271 77.8437 265.654 77.8467C266.034 77.8437 266.374 77.7659 266.673 77.6133C266.975 77.4606 267.212 77.2482 267.382 76.9758C267.553 76.7035 267.638 76.3953 267.638 76.0511C267.638 75.707 267.553 75.3987 267.382 75.1264C267.212 74.8511 266.975 74.6386 266.673 74.4889C266.371 74.3363 266.031 74.2615 265.654 74.2645ZM270.484 80.3156C270.481 80.7076 270.571 81.0892 270.753 81.4603C270.936 81.8284 271.201 82.1591 271.548 82.4523C271.898 82.7456 272.31 82.9731 272.782 83.1347L272.28 83.8709C271.729 83.6763 271.256 83.3935 270.861 83.0224C270.469 82.6514 270.173 82.2234 269.972 81.7386C269.787 82.2264 269.517 82.6663 269.164 83.0584C268.814 83.4534 268.389 83.7571 267.889 83.9696C267.36 83.7661 266.915 83.4728 266.556 83.0898C266.2 82.7097 265.934 82.2713 265.757 81.7745C265.548 82.2444 265.248 82.6618 264.859 83.0269C264.473 83.392 264.017 83.6733 263.49 83.8709L262.988 83.1347C263.451 82.9641 263.855 82.7277 264.2 82.4254C264.547 82.1202 264.813 81.7835 264.999 81.4154C265.187 81.0473 265.283 80.6807 265.286 80.3156V79.6961H266.247V80.3156C266.247 80.6538 266.308 80.9904 266.431 81.3256C266.553 81.6608 266.734 81.9735 266.974 82.2638C267.216 82.5511 267.511 82.7935 267.858 82.991C268.205 82.7785 268.503 82.5197 268.751 82.2144C269 81.9092 269.187 81.592 269.312 81.2628C269.441 80.9306 269.506 80.6149 269.506 80.3156V79.6961H270.484V80.3156ZM281.734 72.7472H282.721V84.0504H281.734V77.8826H279.211C279.175 78.6098 279.034 79.2457 278.789 79.7904C278.544 80.3321 278.214 80.7495 277.801 81.0428C277.391 81.3361 276.925 81.4827 276.401 81.4827C275.847 81.4827 275.355 81.3226 274.924 81.0024C274.496 80.6792 274.162 80.2213 273.923 79.6288C273.686 79.0333 273.57 78.3405 273.573 77.5504C273.57 76.7634 273.686 76.0735 273.923 75.481C274.162 74.8885 274.496 74.4306 274.924 74.1074C275.355 73.7842 275.847 73.6211 276.401 73.6181C276.91 73.6211 277.366 73.7632 277.77 74.0445C278.177 74.3229 278.505 74.7209 278.753 75.2386C279.001 75.7563 279.151 76.3623 279.202 77.0566H281.734V72.7472ZM276.401 80.5939C276.766 80.5939 277.091 80.4682 277.375 80.2169C277.659 79.9655 277.881 79.6093 278.039 79.1485C278.198 78.6876 278.277 78.1549 278.277 77.5504C278.277 76.9489 278.198 76.4192 278.039 75.9613C277.881 75.5005 277.659 75.1443 277.375 74.893C277.091 74.6386 276.766 74.5099 276.401 74.5069C276.033 74.5099 275.707 74.6386 275.422 74.893C275.138 75.1443 274.916 75.5005 274.758 75.9613C274.602 76.4192 274.524 76.9489 274.524 77.5504C274.524 78.1549 274.602 78.6876 274.758 79.1485C274.916 79.6093 275.138 79.9655 275.422 80.2169C275.707 80.4682 276.033 80.5939 276.401 80.5939ZM292.068 81.7431H294.635V82.578H284.302V81.7431H286.86V78.6996C286.373 78.4422 285.992 78.1145 285.72 77.7165C285.451 77.3155 285.316 76.8651 285.316 76.3653C285.316 75.7907 285.491 75.285 285.841 74.8481C286.191 74.4081 286.679 74.067 287.305 73.8246C287.93 73.5822 288.641 73.4595 289.437 73.4565C290.236 73.4595 290.948 73.5822 291.574 73.8246C292.202 74.067 292.691 74.4081 293.042 74.8481C293.392 75.285 293.567 75.7907 293.567 76.3653C293.567 76.8591 293.435 77.3035 293.172 77.6985C292.911 78.0906 292.543 78.4153 292.068 78.6727V81.7431ZM286.277 76.3653C286.277 76.7783 286.41 77.1449 286.676 77.4651C286.946 77.7823 287.32 78.0292 287.799 78.2058C288.28 78.3794 288.826 78.4662 289.437 78.4662C290.047 78.4662 290.592 78.3794 291.071 78.2058C291.553 78.0292 291.928 77.7823 292.198 77.4651C292.47 77.1449 292.606 76.7783 292.606 76.3653C292.606 75.9494 292.47 75.5828 292.198 75.2655C291.928 74.9483 291.553 74.7029 291.071 74.5294C290.592 74.3558 290.047 74.2705 289.437 74.2735C288.826 74.2705 288.28 74.3558 287.799 74.5294C287.32 74.7029 286.946 74.9483 286.676 75.2655C286.41 75.5828 286.277 75.9494 286.277 76.3653ZM287.839 81.7431H291.062V79.0632C290.562 79.1919 290.021 79.2562 289.437 79.2562C288.874 79.2562 288.342 79.1934 287.839 79.0677V81.7431Z" fill="#888888"/>
</g>
<g filter="url(#filter8_d_272_2192)">
<rect x="18" y="370" width="249" height="249.827" rx="12" fill="#F7F9FC" shape-rendering="crispEdges"/>
<rect x="9" y="361" width="267" height="267.827" rx="21" stroke="white" stroke-width="18" shape-rendering="crispEdges"/>
<g clip-path="url(#clip6_272_2192)">
<path d="M44.0652 394.458H53.8934C54.7814 394.458 55.5012 395.191 55.5012 396.095V409.94C55.5012 410.844 54.7814 411.578 53.8934 411.578H44.0652C43.1772 411.578 42.4573 410.844 42.4573 409.94V396.095C42.4573 395.191 43.1772 394.458 44.0652 394.458Z" fill="white"/>
<path d="M48.9791 401.877C49.7926 401.877 50.4519 401.205 50.4519 400.377V399.969C50.4519 399.14 49.7926 398.469 48.9791 398.469C48.1656 398.469 47.5063 399.14 47.5063 399.969V400.377C47.5063 401.205 48.1656 401.877 48.9791 401.877Z" fill="#5767C6"/>
<path d="M47.4651 405.309H50.4933C51.0573 405.309 51.5149 404.843 51.5149 404.268V403.966C51.5149 402.54 50.3805 401.385 48.9808 401.385H48.976C47.5763 401.385 46.4419 402.54 46.4419 403.966V404.268C46.4419 404.843 46.8995 405.309 47.4635 405.309H47.4651Z" fill="#5767C6"/>
<path d="M46.6185 407.665H47.1047C47.424 407.665 47.6846 407.401 47.6846 407.074C47.6846 406.747 47.4256 406.483 47.1047 406.483H46.6185C46.2976 406.483 46.0386 406.747 46.0386 407.074C46.0386 407.399 46.2976 407.665 46.6185 407.665Z" fill="#DDDDDD"/>
<path d="M48.7362 407.665H49.2223C49.5417 407.665 49.8022 407.401 49.8022 407.074C49.8022 406.747 49.5433 406.483 49.2223 406.483H48.7362C48.4152 406.483 48.1563 406.747 48.1563 407.074C48.1563 407.401 48.4152 407.665 48.7362 407.665Z" fill="#DDDDDD"/>
<path d="M50.8541 407.665H51.3403C51.6596 407.665 51.9202 407.401 51.9202 407.074C51.9202 406.747 51.6612 406.483 51.3403 406.483H50.8541C50.5332 406.483 50.2742 406.747 50.2742 407.074C50.2742 407.401 50.5332 407.665 50.8541 407.665Z" fill="#DDDDDD"/>
<path d="M55.5012 409.49V409.938C55.5012 410.843 54.7815 411.576 53.8934 411.576H44.0652C43.177 411.576 42.4573 410.843 42.4573 409.938V409.49H55.5012Z" fill="#5767C6"/>
<path d="M47.481 395.569H50.479C50.8269 395.569 51.1082 395.856 51.1082 396.21C51.1082 396.565 50.8269 396.851 50.479 396.851H47.481C47.133 396.851 46.8518 396.565 46.8518 396.21C46.8518 395.856 47.133 395.569 47.481 395.569Z" fill="#DDDDDD"/>
</g>
<path d="M73.3778 404.175H72.1223L70.6956 399.564C70.6576 399.434 70.5891 399.324 70.4902 399.233C70.3989 399.134 70.2581 399.084 70.0679 399.084H67.5798C67.3896 399.084 67.245 399.134 67.1461 399.233C67.0548 399.324 66.9901 399.434 66.952 399.564L65.5254 404.175H64.2699L65.8906 399.142C66.0123 398.776 66.1835 398.506 66.4042 398.331C66.6249 398.149 66.9673 398.057 67.4314 398.057H70.2163C70.6804 398.057 71.0228 398.149 71.2435 398.331C71.4641 398.506 71.6353 398.776 71.7571 399.142L73.3778 404.175ZM73.6289 407.576H64.0188V406.549H68.2532V403.148H69.3945V406.549H73.6289V407.576ZM83.294 401.892H82.0728L80.8744 399.358C80.8211 399.237 80.745 399.145 80.6461 399.084C80.5548 399.024 80.4216 398.993 80.2466 398.993H77.5987C77.4237 398.993 77.2868 399.024 77.1878 399.084C77.0965 399.145 77.0242 399.237 76.971 399.358L75.7726 401.892H74.5513L75.9438 398.993C76.0275 398.826 76.1112 398.677 76.1949 398.548C76.2862 398.419 76.3889 398.312 76.503 398.228C76.6248 398.137 76.7617 398.072 76.9139 398.034C77.0737 397.989 77.2639 397.966 77.4846 397.966H80.3608C80.7945 397.966 81.1179 398.053 81.3309 398.228C81.5516 398.396 81.7418 398.651 81.9016 398.993L83.294 401.892ZM83.7277 403.787H74.1176V402.76H78.352V400.968H79.4933V402.76H83.7277V403.787ZM83.0657 408.295H81.9244V405.602H74.7796V404.574H83.0657V408.295ZM87.2296 408.261C86.5372 408.261 86.0008 408.082 85.6203 407.724C85.2399 407.374 85.0496 406.876 85.0496 406.229C85.0496 405.582 85.2399 405.084 85.6203 404.734C86.0008 404.376 86.5372 404.198 87.2296 404.198H91.2129C91.9053 404.198 92.4417 404.376 92.8222 404.734C93.2026 405.084 93.3928 405.582 93.3928 406.229C93.3928 406.876 93.2026 407.374 92.8222 407.724C92.4417 408.082 91.9053 408.261 91.2129 408.261H87.2296ZM90.5623 403.49H89.3639L88.0742 399.336C88.0438 399.244 88.0133 399.183 87.9829 399.153C87.9601 399.115 87.9068 399.096 87.8231 399.096H87.0356C86.9519 399.096 86.8948 399.115 86.8644 399.153C86.8415 399.191 86.8149 399.252 86.7845 399.336L85.4263 403.49H84.2279L85.666 399.096H84.3762V398.069H90.608V399.096H89.2041L90.5623 403.49ZM91.0645 407.234C91.4678 407.234 91.7645 407.139 91.9548 406.948C92.1526 406.766 92.2515 406.526 92.2515 406.229C92.2515 405.933 92.1526 405.693 91.9548 405.51C91.7645 405.32 91.4678 405.225 91.0645 405.225H87.378C86.9747 405.225 86.6742 405.32 86.4763 405.51C86.2861 405.693 86.191 405.933 86.191 406.229C86.191 406.526 86.2861 406.766 86.4763 406.948C86.6742 407.139 86.9747 407.234 87.378 407.234H91.0645ZM93.1874 403.832H92.0461V401.185H90.2085V400.134H92.0461V397.943H93.1874V403.832ZM103.206 403.205C103.206 403.501 103.138 403.718 103.001 403.855C102.864 403.992 102.647 404.061 102.35 404.061H95.0343V398H96.1757V399.952H102.065V398H103.206V403.205ZM102.065 403.033V400.979H96.1757V403.033H102.065ZM103.925 407.576H94.3153V406.549H98.5497V404.746H99.691V406.549H103.925V407.576Z" fill="#222222"/>
<rect x="42.4573" y="427.882" width="195.659" height="167.488" rx="4.07622" fill="white"/>
<path d="M58.7622 448.263C58.7622 446.012 60.5872 444.187 62.8384 444.187H217.735C219.986 444.187 221.811 446.012 221.811 448.263V474.351H58.7622V448.263Z" fill="#F7F9FC"/>
<path d="M131.746 457.148C131.536 457.608 131.233 458.028 130.839 458.409C130.448 458.79 130.005 459.109 129.511 459.367C129.02 459.622 128.518 459.803 128.006 459.911L127.612 459.185C128.2 459.083 128.777 458.865 129.342 458.531C129.909 458.195 130.374 457.784 130.737 457.298C131.099 456.812 131.282 456.303 131.285 455.772V455.008H132.199V455.772C132.199 456.301 132.382 456.808 132.747 457.294C133.112 457.78 133.58 458.191 134.15 458.527C134.72 458.864 135.299 459.083 135.888 459.185L135.494 459.911C134.981 459.803 134.477 459.622 133.98 459.367C133.486 459.109 133.042 458.79 132.648 458.409C132.254 458.028 131.953 457.608 131.746 457.148ZM132.175 459.8V462.22H136.329V462.945H127.257V462.22H131.316V459.8H132.175ZM141.389 456.127C141.187 456.498 140.898 456.833 140.522 457.132C140.149 457.432 139.723 457.683 139.245 457.885C138.767 458.085 138.269 458.229 137.751 458.318L137.42 457.617C138.011 457.538 138.578 457.37 139.119 457.112C139.663 456.855 140.103 456.537 140.439 456.159C140.775 455.78 140.944 455.378 140.944 454.953V454.488H141.826V454.953C141.826 455.376 141.995 455.778 142.331 456.159C142.67 456.537 143.111 456.855 143.655 457.112C144.199 457.37 144.766 457.538 145.358 457.617L145.003 458.318C144.493 458.232 144.001 458.087 143.525 457.885C143.052 457.683 142.628 457.432 142.252 457.132C141.879 456.83 141.591 456.495 141.389 456.127ZM141.819 457.79V459.319H145.933V460.045H136.876V459.319H140.959V457.79H141.819ZM143.907 461.716H137.877V461.014H144.79V464.246H143.907V461.716ZM151.315 455.268H152.324V463.339H151.315V456.316H151.268L149.305 457.617V456.608L151.315 455.268Z" fill="url(#paint4_linear_272_2192)"/>
<path d="M62.7905 482.758H215.853C217.852 482.758 219.474 484.38 219.474 486.379V512.158C219.474 514.157 217.852 515.779 215.853 515.779H62.7905C60.7911 515.779 59.1694 514.157 59.1694 512.158V486.379C59.1694 484.38 60.7911 482.758 62.7905 482.758Z" fill="white"/>
<path d="M62.7905 482.758H215.853C217.852 482.758 219.474 484.38 219.474 486.379V512.158C219.474 514.157 217.852 515.779 215.853 515.779H62.7905C60.7911 515.779 59.1694 514.157 59.1694 512.158V486.379C59.1694 484.38 60.7911 482.758 62.7905 482.758Z" stroke="#EEEEEE" stroke-width="0.815244"/>
<path d="M73.3782 497.15C73.1705 497.605 72.8719 498.02 72.4825 498.397C72.0956 498.773 71.6581 499.089 71.17 499.343C70.6845 499.595 70.1886 499.774 69.6823 499.88L69.2929 499.164C69.8745 499.063 70.4444 498.847 71.0026 498.517C71.5634 498.185 72.0229 497.779 72.3812 497.298C72.7395 496.818 72.9199 496.316 72.9225 495.791V495.036H73.826V495.791C73.826 496.313 74.0065 496.814 74.3674 497.294C74.7283 497.775 75.1904 498.181 75.7538 498.513C76.3172 498.846 76.8897 499.063 77.4713 499.164L77.0818 499.88C76.5755 499.774 76.077 499.595 75.5863 499.343C75.0982 499.089 74.6595 498.773 74.27 498.397C73.8806 498.02 73.5833 497.605 73.3782 497.15ZM73.8027 499.771V502.163H77.9074V502.879H68.9424V502.163H72.9537V499.771H73.8027ZM82.9044 496.142C82.7045 496.508 82.4189 496.839 82.0476 497.135C81.6789 497.431 81.2583 497.679 80.7858 497.879C80.3133 498.076 79.8213 498.219 79.3098 498.307L78.9827 497.614C79.5668 497.536 80.1263 497.37 80.6612 497.115C81.1986 496.861 81.6335 496.547 81.9658 496.173C82.2981 495.799 82.4643 495.402 82.4643 494.981V494.522H83.3367V494.981C83.3367 495.399 83.5028 495.796 83.8352 496.173C84.1701 496.547 84.6063 496.861 85.1437 497.115C85.6811 497.37 86.2419 497.536 86.8261 497.614L86.4756 498.307C85.9719 498.221 85.4851 498.079 85.0152 497.879C84.5478 497.679 84.1285 497.431 83.7573 497.135C83.3886 496.836 83.1043 496.505 82.9044 496.142ZM83.3289 497.785V499.296H87.3947V500.013H78.4452V499.296H82.4799V497.785H83.3289ZM85.3929 501.664H79.4344V500.971H86.2653V504.164H85.3929V501.664Z" fill="#222222"/>
<g clip-path="url(#clip7_272_2192)">
<path d="M202.761 497.972C202.761 497.762 202.872 497.553 203.087 497.407C203.476 497.143 204.058 497.181 204.388 497.493L206.43 499.42L208.47 497.492C208.8 497.18 209.383 497.142 209.773 497.406C210.16 497.671 210.209 498.139 209.879 498.451L207.134 501.046C206.958 501.211 206.701 501.307 206.43 501.307C206.159 501.307 205.902 501.211 205.725 501.046L202.981 498.451C202.833 498.312 202.761 498.141 202.761 497.972Z" fill="#222222"/>
</g>
<path d="M62.7905 524.593H215.853C217.852 524.593 219.474 526.215 219.474 528.214V553.993C219.474 555.992 217.852 557.614 215.853 557.614H62.7905C60.7911 557.614 59.1694 555.992 59.1694 553.993V528.214C59.1694 526.215 60.7911 524.593 62.7905 524.593Z" fill="white"/>
<path d="M62.7905 524.593H215.853C217.852 524.593 219.474 526.215 219.474 528.214V553.993C219.474 555.992 217.852 557.614 215.853 557.614H62.7905C60.7911 557.614 59.1694 555.992 59.1694 553.993V528.214C59.1694 526.215 60.7911 524.593 62.7905 524.593Z" stroke="#EEEEEE" stroke-width="0.815244"/>
<path d="M76.1627 542.128V536.209H77.0273V542.128H76.1627ZM72.0502 539.464C71.8347 540.023 71.5075 540.512 71.0688 540.933C70.63 541.353 70.1185 541.669 69.5344 541.879L69.0826 541.209C69.5707 541.035 70.0043 540.786 70.3833 540.461C70.7624 540.137 71.0584 539.763 71.2713 539.34C71.4868 538.917 71.5958 538.478 71.5984 538.023V537.603H69.3085V536.894H74.7218V537.603H72.4708V538.023C72.4708 538.454 72.5772 538.87 72.7901 539.27C73.003 539.667 73.299 540.017 73.6781 540.321C74.0597 540.625 74.4933 540.856 74.9788 541.014L74.5348 541.684C73.9662 541.492 73.4652 541.203 73.0316 540.816C72.598 540.429 72.2709 539.978 72.0502 539.464ZM76.1627 543.359H70.4379V542.65H77.0273V545.999H76.1627V543.359ZM85.9382 538.833V536.216H86.756V542.206H85.9382V539.55H84.653V542.159H83.8196V536.396H84.653V538.833H85.9382ZM82.9394 541.746C82.4695 541.557 82.0645 541.29 81.7244 540.944C81.3868 540.596 81.1298 540.197 80.9533 539.745C80.7793 540.235 80.521 540.669 80.1783 541.045C79.8381 541.422 79.4292 541.713 78.9515 541.918L78.5231 541.271C78.9307 541.103 79.2851 540.868 79.5863 540.566C79.8875 540.263 80.1185 539.917 80.2795 539.531C80.4405 539.144 80.5223 538.743 80.5249 538.327V538.21H78.7178V537.509H80.5249V536.325H81.3427V537.509H83.1108V538.21H81.3427V538.327C81.3427 538.714 81.4245 539.089 81.5881 539.453C81.7516 539.816 81.9853 540.141 82.2891 540.426C82.5954 540.709 82.9524 540.926 83.36 541.077L82.9394 541.746ZM85.907 543.444H80.1588V542.736H86.756V545.999H85.907V543.444Z" fill="#222222"/>
<g clip-path="url(#clip8_272_2192)">
<path d="M202.761 539.807C202.761 539.597 202.872 539.388 203.087 539.242C203.476 538.978 204.058 539.016 204.388 539.328L206.43 541.255L208.47 539.327C208.8 539.015 209.383 538.977 209.773 539.241C210.16 539.506 210.209 539.974 209.879 540.286L207.134 542.881C206.958 543.046 206.701 543.142 206.43 543.142C206.159 543.142 205.902 543.046 205.725 542.881L202.981 540.286C202.833 540.147 202.761 539.976 202.761 539.807Z" fill="#222222"/>
</g>
<path d="M77.5488 573.159C78.1163 573.059 78.6799 572.849 79.2395 572.529C79.8018 572.208 80.2629 571.817 80.6228 571.354C80.9854 570.889 81.1667 570.406 81.1667 569.904V569.66H77.8483V568.919H85.3916V569.66H82.0732V569.904C82.0732 570.406 82.2545 570.887 82.617 571.346C82.9822 571.806 83.4486 572.194 84.0161 572.509C84.5836 572.822 85.1577 573.025 85.7384 573.12L85.3758 573.813C84.8608 573.711 84.3551 573.539 83.8585 573.297C83.3645 573.053 82.9205 572.751 82.5264 572.391C82.1323 572.028 81.8328 571.626 81.6278 571.185C81.4229 571.629 81.1234 572.035 80.7293 572.403C80.3378 572.768 79.8964 573.075 79.405 573.325C78.9137 573.572 78.4158 573.748 77.9114 573.853L77.5488 573.159ZM82.0653 573.506V575.918H86.1719V576.651H77.0995V575.918H81.1904V573.506H82.0653ZM94.0259 574.01V568.02H94.9008V574.01H94.0259ZM89.8641 571.315C89.646 571.88 89.3149 572.375 88.8709 572.801C88.4269 573.226 87.9093 573.545 87.3181 573.758L86.8609 573.08C87.3549 572.904 87.7937 572.652 88.1773 572.324C88.5609 571.995 88.8604 571.617 89.0758 571.189C89.2939 570.76 89.4043 570.316 89.4069 569.857V569.431H87.0895V568.714H92.5676V569.431H90.2897V569.857C90.2897 570.293 90.3974 570.713 90.6129 571.118C90.8283 571.52 91.1278 571.874 91.5114 572.182C91.8977 572.489 92.3364 572.723 92.8278 572.883L92.3785 573.561C91.8031 573.367 91.296 573.074 90.8572 572.682C90.4184 572.291 90.0874 571.835 89.8641 571.315ZM94.0259 575.256H88.2324V574.539H94.9008V577.928H94.0259V575.256ZM104.087 568.02V570.55H105.577V571.283H104.087V574.003H103.212V568.02H104.087ZM99.2787 571.362C99.0659 571.93 98.7387 572.426 98.2973 572.852C97.8586 573.277 97.3423 573.598 96.7485 573.813L96.2992 573.112C96.7932 572.944 97.2306 572.698 97.6116 572.375C97.9926 572.052 98.2895 571.677 98.5023 571.252C98.7177 570.823 98.8268 570.374 98.8294 569.904V569.478H96.5672V568.753H101.919V569.478H99.6964V569.896C99.6964 570.324 99.7963 570.734 99.996 571.126C100.198 571.514 100.482 571.857 100.847 572.154C101.215 572.448 101.641 572.676 102.124 572.836L101.706 573.522C101.142 573.335 100.649 573.054 100.228 572.678C99.8107 572.303 99.4941 571.864 99.2787 571.362ZM100.91 574.271C101.586 574.271 102.168 574.342 102.656 574.483C103.148 574.625 103.523 574.832 103.783 575.102C104.043 575.373 104.174 575.697 104.174 576.076C104.174 576.459 104.043 576.788 103.783 577.061C103.523 577.334 103.148 577.543 102.656 577.688C102.168 577.832 101.586 577.904 100.91 577.904C100.232 577.904 99.6465 577.832 99.1526 577.688C98.6586 577.543 98.2803 577.334 98.0175 577.061C97.7548 576.788 97.6234 576.459 97.6234 576.076C97.6234 575.697 97.7548 575.373 98.0175 575.102C98.2803 574.832 98.6586 574.625 99.1526 574.483C99.6465 574.342 100.232 574.271 100.91 574.271ZM100.91 577.203C101.407 577.203 101.836 577.158 102.199 577.069C102.562 576.979 102.839 576.851 103.031 576.683C103.225 576.512 103.322 576.309 103.322 576.076C103.322 575.847 103.225 575.65 103.031 575.484C102.839 575.319 102.562 575.193 102.199 575.106C101.836 575.017 101.407 574.972 100.91 574.972C100.414 574.972 99.9828 575.017 99.6176 575.106C99.255 575.193 98.9765 575.319 98.7821 575.484C98.5903 575.65 98.4957 575.847 98.4983 576.076C98.4957 576.309 98.5903 576.512 98.7821 576.683C98.9765 576.851 99.255 576.979 99.6176 577.069C99.9828 577.158 100.414 577.203 100.91 577.203Z" fill="#222222"/>
<rect x="59.1698" y="566.429" width="12.2287" height="12.2287" rx="2.03811" fill="white" stroke="#DDDDDD" stroke-width="0.815244"/>
</g>
</g>
<defs>
<filter id="filter0_d_272_2192" x="517" y="388" width="28" height="28" filterUnits="userSpaceOnUse" color-interpolation-filters="sRGB">
<feFlood flood-opacity="0" result="BackgroundImageFix"/>
<feColorMatrix in="SourceAlpha" type="matrix" values="0 0 0 0 0 0 0 0 0 0 0 0 0 0 0 0 0 0 127 0" result="hardAlpha"/>
<feOffset dy="4"/>
<feGaussianBlur stdDeviation="2"/>
<feComposite in2="hardAlpha" operator="out"/>
<feColorMatrix type="matrix" values="0 0 0 0 0 0 0 0 0 0 0 0 0 0 0 0 0 0 0.04 0"/>
<feBlend mode="normal" in2="BackgroundImageFix" result="effect1_dropShadow_272_2192"/>
<feBlend mode="normal" in="SourceGraphic" in2="effect1_dropShadow_272_2192" result="shape"/>
</filter>
<filter id="filter1_d_272_2192" x="646" y="388" width="28" height="28" filterUnits="userSpaceOnUse" color-interpolation-filters="sRGB">
<feFlood flood-opacity="0" result="BackgroundImageFix"/>
<feColorMatrix in="SourceAlpha" type="matrix" values="0 0 0 0 0 0 0 0 0 0 0 0 0 0 0 0 0 0 127 0" result="hardAlpha"/>
<feOffset dy="4"/>
<feGaussianBlur stdDeviation="2"/>
<feComposite in2="hardAlpha" operator="out"/>
<feColorMatrix type="matrix" values="0 0 0 0 0 0 0 0 0 0 0 0 0 0 0 0 0 0 0.04 0"/>
<feBlend mode="normal" in2="BackgroundImageFix" result="effect1_dropShadow_272_2192"/>
<feBlend mode="normal" in="SourceGraphic" in2="effect1_dropShadow_272_2192" result="shape"/>
</filter>
<filter id="filter2_d_272_2192" x="586" y="288" width="28" height="28" filterUnits="userSpaceOnUse" color-interpolation-filters="sRGB">
<feFlood flood-opacity="0" result="BackgroundImageFix"/>
<feColorMatrix in="SourceAlpha" type="matrix" values="0 0 0 0 0 0 0 0 0 0 0 0 0 0 0 0 0 0 127 0" result="hardAlpha"/>
<feOffset dy="4"/>
<feGaussianBlur stdDeviation="2"/>
<feComposite in2="hardAlpha" operator="out"/>
<feColorMatrix type="matrix" values="0 0 0 0 0 0 0 0 0 0 0 0 0 0 0 0 0 0 0.04 0"/>
<feBlend mode="normal" in2="BackgroundImageFix" result="effect1_dropShadow_272_2192"/>
<feBlend mode="normal" in="SourceGraphic" in2="effect1_dropShadow_272_2192" result="shape"/>
</filter>
<filter id="filter3_d_272_2192" x="426" y="288" width="28" height="28" filterUnits="userSpaceOnUse" color-interpolation-filters="sRGB">
<feFlood flood-opacity="0" result="BackgroundImageFix"/>
<feColorMatrix in="SourceAlpha" type="matrix" values="0 0 0 0 0 0 0 0 0 0 0 0 0 0 0 0 0 0 127 0" result="hardAlpha"/>
<feOffset dy="4"/>
<feGaussianBlur stdDeviation="2"/>
<feComposite in2="hardAlpha" operator="out"/>
<feColorMatrix type="matrix" values="0 0 0 0 0 0 0 0 0 0 0 0 0 0 0 0 0 0 0.04 0"/>
<feBlend mode="normal" in2="BackgroundImageFix" result="effect1_dropShadow_272_2192"/>
<feBlend mode="normal" in="SourceGraphic" in2="effect1_dropShadow_272_2192" result="shape"/>
</filter>
<filter id="filter4_d_272_2192" x="266" y="288" width="28" height="28" filterUnits="userSpaceOnUse" color-interpolation-filters="sRGB">
<feFlood flood-opacity="0" result="BackgroundImageFix"/>
<feColorMatrix in="SourceAlpha" type="matrix" values="0 0 0 0 0 0 0 0 0 0 0 0 0 0 0 0 0 0 127 0" result="hardAlpha"/>
<feOffset dy="4"/>
<feGaussianBlur stdDeviation="2"/>
<feComposite in2="hardAlpha" operator="out"/>
<feColorMatrix type="matrix" values="0 0 0 0 0 0 0 0 0 0 0 0 0 0 0 0 0 0 0.04 0"/>
<feBlend mode="normal" in2="BackgroundImageFix" result="effect1_dropShadow_272_2192"/>
<feBlend mode="normal" in="SourceGraphic" in2="effect1_dropShadow_272_2192" result="shape"/>
</filter>
<filter id="filter5_d_272_2192" x="302" y="388" width="28" height="28" filterUnits="userSpaceOnUse" color-interpolation-filters="sRGB">
<feFlood flood-opacity="0" result="BackgroundImageFix"/>
<feColorMatrix in="SourceAlpha" type="matrix" values="0 0 0 0 0 0 0 0 0 0 0 0 0 0 0 0 0 0 127 0" result="hardAlpha"/>
<feOffset dy="4"/>
<feGaussianBlur stdDeviation="2"/>
<feComposite in2="hardAlpha" operator="out"/>
<feColorMatrix type="matrix" values="0 0 0 0 0 0 0 0 0 0 0 0 0 0 0 0 0 0 0.04 0"/>
<feBlend mode="normal" in2="BackgroundImageFix" result="effect1_dropShadow_272_2192"/>
<feBlend mode="normal" in="SourceGraphic" in2="effect1_dropShadow_272_2192" result="shape"/>
</filter>
<filter id="filter6_d_272_2192" x="580" y="133" width="108.621" height="36" filterUnits="userSpaceOnUse" color-interpolation-filters="sRGB">
<feFlood flood-opacity="0" result="BackgroundImageFix"/>
<feColorMatrix in="SourceAlpha" type="matrix" values="0 0 0 0 0 0 0 0 0 0 0 0 0 0 0 0 0 0 127 0" result="hardAlpha"/>
<feOffset dy="4"/>
<feGaussianBlur stdDeviation="2"/>
<feComposite in2="hardAlpha" operator="out"/>
<feColorMatrix type="matrix" values="0 0 0 0 0 0 0 0 0 0 0 0 0 0 0 0 0 0 0.04 0"/>
<feBlend mode="normal" in2="BackgroundImageFix" result="effect1_dropShadow_272_2192"/>
<feBlend mode="normal" in="SourceGraphic" in2="effect1_dropShadow_272_2192" result="shape"/>
</filter>
<filter id="filter7_d_272_2192" x="583.138" y="133.862" width="53.7586" height="29.7242" filterUnits="userSpaceOnUse" color-interpolation-filters="sRGB">
<feFlood flood-opacity="0" result="BackgroundImageFix"/>
<feColorMatrix in="SourceAlpha" type="matrix" values="0 0 0 0 0 0 0 0 0 0 0 0 0 0 0 0 0 0 127 0" result="hardAlpha"/>
<feOffset dy="1.72414"/>
<feGaussianBlur stdDeviation="1.72414"/>
<feComposite in2="hardAlpha" operator="out"/>
<feColorMatrix type="matrix" values="0 0 0 0 0 0 0 0 0 0 0 0 0 0 0 0 0 0 0.1 0"/>
<feBlend mode="normal" in2="BackgroundImageFix" result="effect1_dropShadow_272_2192"/>
<feBlend mode="normal" in="SourceGraphic" in2="effect1_dropShadow_272_2192" result="shape"/>
</filter>
<filter id="filter8_d_272_2192" x="-10.8" y="334.2" width="360.6" height="361.427" filterUnits="userSpaceOnUse" color-interpolation-filters="sRGB">
<feFlood flood-opacity="0" result="BackgroundImageFix"/>
<feColorMatrix in="SourceAlpha" type="matrix" values="0 0 0 0 0 0 0 0 0 0 0 0 0 0 0 0 0 0 127 0" result="hardAlpha"/>
<feOffset dx="27" dy="20"/>
<feGaussianBlur stdDeviation="18.9"/>
<feComposite in2="hardAlpha" operator="out"/>
<feColorMatrix type="matrix" values="0 0 0 0 0 0 0 0 0 0 0 0 0 0 0 0 0 0 0.03 0"/>
<feBlend mode="normal" in2="BackgroundImageFix" result="effect1_dropShadow_272_2192"/>
<feBlend mode="normal" in="SourceGraphic" in2="effect1_dropShadow_272_2192" result="shape"/>
</filter>
<linearGradient id="paint0_linear_272_2192" x1="390" y1="174" x2="390" y2="230" gradientUnits="userSpaceOnUse">
<stop stop-color="#00AEAE"/>
<stop offset="1" stop-color="#009F9F"/>
</linearGradient>
<linearGradient id="paint1_linear_272_2192" x1="390" y1="288" x2="390" y2="344" gradientUnits="userSpaceOnUse">
<stop stop-color="#005AA4"/>
<stop offset="1" stop-color="#00488C"/>
</linearGradient>
<linearGradient id="paint2_linear_272_2192" x1="550" y1="288" x2="550" y2="344" gradientUnits="userSpaceOnUse">
<stop stop-color="#005AA4"/>
<stop offset="1" stop-color="#00488C"/>
</linearGradient>
<linearGradient id="paint3_linear_272_2192" x1="230" y1="288" x2="230" y2="344" gradientUnits="userSpaceOnUse">
<stop stop-color="#005AA4"/>
<stop offset="1" stop-color="#00488C"/>
</linearGradient>
<linearGradient id="paint4_linear_272_2192" x1="58.7622" y1="466.06" x2="92.2262" y2="392.915" gradientUnits="userSpaceOnUse">
<stop stop-color="#00AEAE"/>
<stop offset="1" stop-color="#2DC8C8"/>
</linearGradient>
<clipPath id="clip0_272_2192">
<rect width="745" height="610" fill="white"/>
</clipPath>
<clipPath id="clip1_272_2192">
<rect x="65" width="680" height="640" rx="16" fill="white"/>
</clipPath>
<clipPath id="clip2_272_2192">
<rect width="24" height="24" fill="white" transform="translate(438 460)"/>
</clipPath>
<clipPath id="clip3_272_2192">
<rect width="24" height="24" fill="white" transform="translate(567 460)"/>
</clipPath>
<clipPath id="clip4_272_2192">
<rect width="24" height="24" fill="white" transform="translate(438 507)"/>
</clipPath>
<clipPath id="clip5_272_2192">
<rect width="24" height="24" fill="white" transform="translate(567 507)"/>
</clipPath>
<clipPath id="clip6_272_2192">
<rect width="13.0439" height="17.1201" fill="white" transform="matrix(-1 0 0 1 55.5012 394.458)"/>
</clipPath>
<clipPath id="clip7_272_2192">
<rect width="7.33719" height="4.07622" fill="white" transform="translate(202.761 497.23)"/>
</clipPath>
<clipPath id="clip8_272_2192">
<rect width="7.33719" height="4.07622" fill="white" transform="translate(202.761 539.065)"/>
</clipPath>
</defs>
</svg>
