<svg width="440" height="500" viewBox="0 0 440 500" fill="none" xmlns="http://www.w3.org/2000/svg">
<g clip-path="url(#clip0_283_1420)">
<rect x="60" y="60" width="560" height="502" rx="22" fill="white"/>
<path d="M101.312 106.212H99.912V93.556H101.312V106.212ZM96.034 105.204H94.634L96.258 95.292C96.2767 95.1613 96.2673 95.0773 96.23 95.04C96.1927 94.9933 96.1087 94.97 95.978 94.97H90.868V93.71H97.28C97.5133 93.71 97.6767 93.7707 97.77 93.892C97.8633 94.004 97.8913 94.1673 97.854 94.382L96.034 105.204ZM113.818 98.862H112.278L110.318 95.558C110.187 95.3433 110.061 95.1893 109.94 95.096C109.828 95.0027 109.65 94.956 109.408 94.956H107.812C107.569 94.956 107.387 95.0027 107.266 95.096C107.154 95.1893 107.032 95.3433 106.902 95.558L104.942 98.862H103.401L105.726 94.956H103.598V93.696H113.622V94.956H111.494L113.818 98.862ZM114.504 101.074H109.589V103.748H108.19V101.074H102.715V99.814H114.504V101.074ZM113.692 106.254H103.667V102.32H105.067V104.994H113.692V106.254ZM127.132 101.228C127.981 101.228 128.639 101.447 129.106 101.886C129.572 102.315 129.806 102.927 129.806 103.72C129.806 104.513 129.572 105.125 129.106 105.554C128.639 105.993 127.981 106.212 127.132 106.212H122.106C121.256 106.212 120.598 105.993 120.132 105.554C119.665 105.125 119.432 104.513 119.432 103.72C119.432 102.927 119.665 102.315 120.132 101.886C120.598 101.447 121.256 101.228 122.106 101.228H127.132ZM129.554 100.78H128.154V97.406H126.586V100.64H125.2V93.556H126.586V96.118H128.154V93.556H129.554V100.78ZM123.926 100.36H122.54V94.97H122.204C121.924 94.97 121.723 95.026 121.602 95.138C121.49 95.25 121.387 95.4227 121.294 95.656L119.432 100.36H117.892L119.88 95.334C119.992 95.0633 120.099 94.8253 120.202 94.62C120.304 94.4147 120.426 94.2467 120.566 94.116C120.715 93.976 120.892 93.8733 121.098 93.808C121.312 93.7427 121.578 93.71 121.896 93.71H123.926V100.36ZM126.95 104.952C127.444 104.952 127.808 104.835 128.042 104.602C128.284 104.378 128.406 104.084 128.406 103.72C128.406 103.356 128.284 103.062 128.042 102.838C127.808 102.605 127.444 102.488 126.95 102.488H122.288C121.793 102.488 121.424 102.605 121.182 102.838C120.948 103.062 120.832 103.356 120.832 103.72C120.832 104.084 120.948 104.378 121.182 104.602C121.424 104.835 121.793 104.952 122.288 104.952H126.95ZM134.163 106.212C133.314 106.212 132.656 105.993 132.189 105.554C131.723 105.125 131.489 104.513 131.489 103.72C131.489 102.927 131.723 102.315 132.189 101.886C132.656 101.447 133.314 101.228 134.163 101.228H139.049C139.899 101.228 140.557 101.447 141.023 101.886C141.49 102.315 141.723 102.927 141.723 103.72C141.723 104.513 141.49 105.125 141.023 105.554C140.557 105.993 139.899 106.212 139.049 106.212H134.163ZM141.471 100.78H140.071V97.574H137.845V100.36H136.445V94.97H135.213C134.915 94.97 134.7 95.0307 134.569 95.152C134.448 95.264 134.336 95.432 134.233 95.656L132.147 100.36H130.593L132.805 95.334C132.927 95.0727 133.039 94.8393 133.141 94.634C133.244 94.4287 133.365 94.2607 133.505 94.13C133.655 93.99 133.832 93.8873 134.037 93.822C134.243 93.7473 134.504 93.71 134.821 93.71H137.845V96.286H140.071V93.556H141.471V100.78ZM138.867 104.952C139.362 104.952 139.726 104.835 139.959 104.602C140.202 104.378 140.323 104.084 140.323 103.72C140.323 103.356 140.202 103.062 139.959 102.838C139.726 102.605 139.362 102.488 138.867 102.488H134.345C133.851 102.488 133.482 102.605 133.239 102.838C133.006 103.062 132.889 103.356 132.889 103.72C132.889 104.084 133.006 104.378 133.239 104.602C133.482 104.835 133.851 104.952 134.345 104.952H138.867ZM156.395 105.162C156.395 105.526 156.311 105.792 156.143 105.96C155.975 106.128 155.709 106.212 155.345 106.212H146.833V100.836H148.233V102.18H154.995V100.836H156.395V105.162ZM154.015 99.744H145.881V98.484H147.505L147.337 94.97H146.091V93.71H153.805V94.97H152.545L152.377 98.484H154.015V99.744ZM156.395 100.192H154.995V93.556H156.395V95.978H158.047V97.266H156.395V100.192ZM154.995 104.952V103.412H148.233V104.952H154.995ZM150.977 98.484L151.145 94.97H148.737L148.905 98.484H150.977ZM169.223 100.192H167.823V97.154H165.793C165.765 97.602 165.662 98.0033 165.485 98.358C165.308 98.7127 165.065 99.016 164.757 99.268C164.458 99.5107 164.099 99.6973 163.679 99.828C163.259 99.9587 162.797 100.024 162.293 100.024C161.761 100.024 161.28 99.954 160.851 99.814C160.422 99.6647 160.053 99.4593 159.745 99.198C159.437 98.9273 159.199 98.6053 159.031 98.232C158.863 97.8493 158.779 97.42 158.779 96.944V96.552C158.779 96.076 158.863 95.6513 159.031 95.278C159.199 94.8953 159.437 94.5733 159.745 94.312C160.053 94.0413 160.422 93.836 160.851 93.696C161.28 93.5467 161.761 93.472 162.293 93.472C163.217 93.472 163.982 93.6867 164.589 94.116C165.205 94.536 165.588 95.1193 165.737 95.866H167.823V93.556H169.223V100.192ZM169.223 105.162C169.223 105.526 169.139 105.792 168.971 105.96C168.803 106.128 168.537 106.212 168.173 106.212H159.521V100.836H160.921V102.18H167.823V100.836H169.223V105.162ZM164.407 96.622C164.407 96.0247 164.216 95.5627 163.833 95.236C163.45 94.9 162.937 94.732 162.293 94.732C161.649 94.732 161.136 94.9 160.753 95.236C160.37 95.5627 160.179 96.0247 160.179 96.622V96.874C160.179 97.4713 160.37 97.938 160.753 98.274C161.136 98.6007 161.649 98.764 162.293 98.764C162.937 98.764 163.45 98.6007 163.833 98.274C164.216 97.938 164.407 97.4713 164.407 96.874V96.622ZM167.823 104.952V103.412H160.921V104.952H167.823Z" fill="black"/>
<rect x="90" y="200" width="486" height="497" rx="12" fill="#F5F6FB"/>
<path d="M122.598 262.08V270.83H121.66V262.08H122.598ZM119.99 263.018C119.99 265.576 118.896 267.803 115.898 269.238L115.41 268.486C117.739 267.378 118.872 265.801 119.053 263.76H115.83V263.018H119.99ZM125.628 262.412V263.447H129.68V262.412H130.608V265.947H128.108V266.807H131.643V267.568H123.665V266.807H127.19V265.947H124.71V262.412H125.628ZM125.628 265.195H129.68V264.17H125.628V265.195ZM130.745 269.893V270.645H124.671V268.193H125.608V269.893H130.745ZM133.941 267.07V268.164H138.072V267.07H138.98V270.723H133.023V267.07H133.941ZM133.941 269.961H138.072V268.887H133.941V269.961ZM139 262.461V263.125C139 263.794 139 264.546 138.775 265.605H140.015V266.357H132.007V265.605H137.867C138.072 264.6 138.082 263.862 138.082 263.223H133.013V262.461H139ZM149.747 262.08V266.777H148.82V262.08H149.747ZM144.933 267.197V268.184H148.829V267.197H149.747V270.723H144.025V267.197H144.933ZM144.933 269.961H148.829V268.916H144.933V269.961ZM145.001 262.48C146.339 262.48 147.325 263.311 147.325 264.512C147.325 265.713 146.339 266.543 145.001 266.533C143.663 266.543 142.667 265.713 142.667 264.512C142.667 263.311 143.663 262.48 145.001 262.48ZM145.001 263.262C144.171 263.252 143.575 263.77 143.575 264.512C143.575 265.264 144.171 265.771 145.001 265.771C145.821 265.771 146.417 265.264 146.417 264.512C146.417 263.77 145.821 263.252 145.001 263.262ZM155.004 262.607V265.156H152.113V266.367C153.637 266.372 154.467 266.338 155.453 266.152L155.541 266.904C154.477 267.09 153.578 267.119 151.83 267.119H151.195V264.453H154.076V263.35H151.186V262.607H155.004ZM158.129 262.09V267.471H157.201V265.928H155.561V265.186H157.201V264.102H155.561V263.359H157.201V262.09H158.129ZM158.129 267.91V270.84H157.201V268.662H152.191V267.91H158.129ZM163.229 267.529C165.036 267.529 166.13 268.135 166.13 269.17C166.13 270.215 165.036 270.82 163.229 270.83C161.403 270.82 160.29 270.215 160.29 269.17C160.29 268.135 161.403 267.529 163.229 267.529ZM163.229 268.262C161.96 268.262 161.208 268.584 161.218 269.17C161.208 269.756 161.96 270.088 163.229 270.088C164.489 270.088 165.221 269.756 165.221 269.17C165.221 268.584 164.489 268.262 163.229 268.262ZM166.052 262.08V264.219H167.321V265.01H166.052V267.305H165.124V262.08H166.052ZM160.427 262.627V263.887H162.721V262.627H163.639V266.689H159.518V262.627H160.427ZM160.427 265.947H162.721V264.619H160.427V265.947ZM170.703 263.34C170.693 264.551 171.523 265.654 172.871 266.104L172.402 266.836C171.391 266.479 170.629 265.767 170.234 264.854C169.843 265.835 169.077 266.611 168.037 266.982L167.568 266.26C168.935 265.771 169.755 264.59 169.755 263.34V262.5H170.703V263.34ZM174.775 267.754V270.83H173.847V268.506H168.847V267.754H174.775ZM174.775 262.08V267.334H173.847V262.08H174.775Z" fill="black"/>
<path d="M124.696 238.896H123.496V228.048H124.696V238.896ZM120.172 238.032H118.972L120.364 229.536C120.38 229.424 120.372 229.352 120.34 229.32C120.308 229.28 120.236 229.26 120.124 229.26H115.744V228.18H121.24C121.44 228.18 121.58 228.232 121.66 228.336C121.74 228.432 121.764 228.572 121.732 228.756L120.172 238.032ZM136.003 234.948H125.899V233.868H130.351V232.644H126.655V228.012H127.855V229.284H134.047V228.012H135.247V231.744C135.247 232.056 135.175 232.284 135.031 232.428C134.887 232.572 134.659 232.644 134.347 232.644H131.551V233.868H136.003V234.948ZM135.307 238.932H126.715V235.68H127.915V237.852H135.307V238.932ZM134.047 231.564V230.364H127.855V231.564H134.047ZM145.822 238.032C145.822 238.344 145.75 238.572 145.606 238.716C145.462 238.86 145.234 238.932 144.922 238.932H137.11V234.444H138.31V235.512H144.622V234.444H145.822V238.032ZM145.546 231.912H144.346L144.574 229.488C144.598 229.264 144.486 229.152 144.238 229.152H137.17V228.072H145.27C145.478 228.072 145.634 228.132 145.738 228.252C145.85 228.372 145.898 228.532 145.882 228.732L145.546 231.912ZM146.518 233.568H136.414V232.488H146.518V233.568ZM144.622 237.852V236.568H138.31V237.852H144.622ZM159.238 238.896H150.802V235.74H157.918V234.876H150.778V233.796H159.118V236.076C159.118 236.332 159.062 236.516 158.95 236.628C158.838 236.74 158.654 236.796 158.398 236.796H152.002V237.816H159.238V238.896ZM159.118 233.28H157.918V230.964H156.01V233.04H154.81V229.26H153.754C153.626 229.26 153.518 229.276 153.43 229.308C153.35 229.332 153.278 229.372 153.214 229.428C153.158 229.476 153.106 229.536 153.058 229.608C153.01 229.68 152.962 229.76 152.914 229.848L151.126 233.04H149.794L151.69 229.572C151.81 229.356 151.914 229.164 152.002 228.996C152.098 228.82 152.206 228.672 152.326 228.552C152.446 228.432 152.59 228.34 152.758 228.276C152.926 228.212 153.146 228.18 153.418 228.18H156.01V229.86H157.918V228.048H159.118V233.28ZM163.369 238.896C162.641 238.896 162.077 238.708 161.677 238.332C161.277 237.964 161.077 237.44 161.077 236.76C161.077 236.08 161.277 235.556 161.677 235.188C162.077 234.812 162.641 234.624 163.369 234.624H167.557C168.285 234.624 168.849 234.812 169.249 235.188C169.649 235.556 169.849 236.08 169.849 236.76C169.849 237.44 169.649 237.964 169.249 238.332C168.849 238.708 168.285 238.896 167.557 238.896H163.369ZM166.873 233.88H165.613L164.257 229.512C164.225 229.416 164.193 229.352 164.161 229.32C164.137 229.28 164.081 229.26 163.993 229.26H163.165C163.077 229.26 163.017 229.28 162.985 229.32C162.961 229.36 162.933 229.424 162.901 229.512L161.473 233.88H160.213L161.725 229.26H160.369V228.18H166.921V229.26H165.445L166.873 233.88ZM167.401 237.816C167.825 237.816 168.137 237.716 168.337 237.516C168.545 237.324 168.649 237.072 168.649 236.76C168.649 236.448 168.545 236.196 168.337 236.004C168.137 235.804 167.825 235.704 167.401 235.704H163.525C163.101 235.704 162.785 235.804 162.577 236.004C162.377 236.196 162.277 236.448 162.277 236.76C162.277 237.072 162.377 237.324 162.577 237.516C162.785 237.716 163.101 237.816 163.525 237.816H167.401ZM169.633 234.24H168.433V231.456H166.501V230.352H168.433V228.048H169.633V234.24Z" fill="black"/>
<path d="M148.617 292.09V298.496H147.689V295.205H146.02V294.453H147.689V292.09H148.617ZM148.852 299.893V300.645H142.934V297.92H143.861V299.893H148.852ZM144.457 293.857C144.457 294.951 145.248 296.045 146.566 296.484L146.088 297.227C145.106 296.88 144.379 296.177 143.998 295.312C143.617 296.274 142.851 297.051 141.811 297.422L141.332 296.67C142.68 296.211 143.51 295.059 143.51 293.857V293.516H141.615V292.754H146.332V293.516H144.457V293.857ZM152.907 293.652C152.907 294.775 153.747 295.85 155.095 296.279L154.616 297.002C153.61 296.67 152.848 295.977 152.458 295.098C152.062 296.05 151.286 296.802 150.241 297.168L149.762 296.455C151.12 295.986 151.96 294.844 151.97 293.652V293.408H150.007V292.656H154.831V293.408H152.907V293.652ZM156.921 292.08V297.363H155.993V292.08H156.921ZM156.921 297.803V300.83H155.993V298.555H150.993V297.803H156.921ZM165.283 292.09V298.721H164.355V297.881H162.597V297.227H164.355V292.09H165.283ZM165.498 299.893V300.645H159.179V298.076H160.097V299.893H165.498ZM157.968 296.084C159.589 296.074 161.767 296.055 163.632 295.82L163.691 296.484C162.944 296.606 162.158 296.689 161.386 296.738V298.447H160.459V296.787C159.609 296.826 158.794 296.831 158.086 296.826L157.968 296.084ZM160.83 292.422C162.109 292.422 162.998 293.037 162.998 293.965C162.998 294.893 162.109 295.488 160.83 295.488C159.531 295.488 158.652 294.893 158.652 293.965C158.652 293.037 159.531 292.422 160.83 292.422ZM160.83 293.115C160.048 293.105 159.521 293.438 159.531 293.965C159.521 294.482 160.048 294.805 160.83 294.805C161.582 294.805 162.109 294.482 162.119 293.965C162.109 293.438 161.582 293.105 160.83 293.115ZM175.767 292.08V300.83H174.829V292.08H175.767ZM173.159 293.018C173.159 295.576 172.066 297.803 169.068 299.238L168.579 298.486C170.908 297.378 172.041 295.801 172.222 293.76H168.999V293.018H173.159ZM178.797 292.412V293.447H182.85V292.412H183.777V295.947H181.277V296.807H184.812V297.568H176.834V296.807H180.359V295.947H177.879V292.412H178.797ZM178.797 295.195H182.85V294.17H178.797V295.195ZM183.914 299.893V300.645H177.84V298.193H178.777V299.893H183.914ZM187.11 297.07V298.164H191.241V297.07H192.149V300.723H186.192V297.07H187.11ZM187.11 299.961H191.241V298.887H187.11V299.961ZM192.169 292.461V293.125C192.169 293.794 192.169 294.546 191.944 295.605H193.184V296.357H185.177V295.605H191.036C191.241 294.6 191.251 293.862 191.251 293.223H186.182V292.461H192.169ZM203.639 296.68V297.412H195.641V296.68H199.176V295.918H196.686V292.314H202.662V293.047H197.623V293.76H202.438V294.453H197.623V295.195H202.721V295.918H200.104V296.68H203.639ZM199.645 297.988C201.569 297.979 202.662 298.486 202.662 299.404C202.662 300.332 201.569 300.82 199.645 300.811C197.702 300.82 196.608 300.332 196.608 299.404C196.608 298.486 197.702 297.979 199.645 297.988ZM199.645 298.682C198.268 298.682 197.526 298.936 197.536 299.404C197.526 299.873 198.268 300.117 199.645 300.107C201.002 300.117 201.735 299.873 201.735 299.404C201.735 298.936 201.002 298.682 199.645 298.682ZM206.484 292.373C207.802 292.383 208.769 293.193 208.779 294.336C208.769 295.488 207.802 296.289 206.484 296.289C205.155 296.289 204.179 295.488 204.179 294.336C204.179 293.193 205.155 292.383 206.484 292.373ZM206.484 293.154C205.673 293.145 205.077 293.623 205.087 294.336C205.077 295.059 205.673 295.537 206.484 295.537C207.284 295.537 207.88 295.059 207.88 294.336C207.88 293.623 207.284 293.145 206.484 293.154ZM211.259 292.08V296.533H210.331V292.08H211.259ZM211.259 296.934V299.141H206.435V299.98H211.552V300.723H205.536V298.447H210.341V297.676H205.507V296.934H211.259ZM215.014 297.305C215.024 295.469 215.542 293.936 216.46 292.627H217.417C216.743 293.594 216.098 295.566 216.098 297.305C216.098 299.053 216.743 301.016 217.417 301.992H216.46C215.542 300.684 215.024 299.15 215.014 297.305ZM225.769 298.965V299.736H217.761V298.965H221.287V296.943H218.679V292.783H224.812V296.943H222.205V298.965H225.769ZM219.578 293.525V296.211H223.904V293.525H219.578ZM234.092 296.465V297.207H226.104V296.465H234.092ZM233.194 294.824V295.586H227.1V292.441H233.106V293.184H228.028V294.824H233.194ZM233.252 299.883V300.645H227.11V298.066H228.028V299.883H233.252ZM239.83 293.652C239.83 294.775 240.67 295.85 242.018 296.279L241.539 297.002C240.533 296.67 239.771 295.977 239.381 295.098C238.985 296.05 238.209 296.802 237.164 297.168L236.686 296.455C238.043 295.986 238.883 294.844 238.893 293.652V293.408H236.93V292.656H241.754V293.408H239.83V293.652ZM243.844 292.08V297.363H242.916V292.08H243.844ZM243.844 297.803V300.83H242.916V298.555H237.916V297.803H243.844ZM252.206 292.09V298.721H251.278V297.881H249.52V297.227H251.278V292.09H252.206ZM252.421 299.893V300.645H246.102V298.076H247.02V299.893H252.421ZM244.891 296.084C246.512 296.074 248.69 296.055 250.555 295.82L250.614 296.484C249.867 296.606 249.081 296.689 248.309 296.738V298.447H247.382V296.787C246.532 296.826 245.717 296.831 245.009 296.826L244.891 296.084ZM247.753 292.422C249.032 292.422 249.921 293.037 249.921 293.965C249.921 294.893 249.032 295.488 247.753 295.488C246.454 295.488 245.575 294.893 245.575 293.965C245.575 293.037 246.454 292.422 247.753 292.422ZM247.753 293.115C246.971 293.105 246.444 293.438 246.454 293.965C246.444 294.482 246.971 294.805 247.753 294.805C248.505 294.805 249.032 294.482 249.042 293.965C249.032 293.438 248.505 293.105 247.753 293.115ZM260.519 292.08V300.85H259.591V292.08H260.519ZM255.841 292.734C257.14 292.734 258.097 293.926 258.097 295.801C258.097 297.686 257.14 298.877 255.841 298.877C254.523 298.877 253.576 297.686 253.576 295.801C253.576 293.926 254.523 292.734 255.841 292.734ZM255.841 293.564C255.031 293.564 254.474 294.424 254.474 295.801C254.474 297.188 255.031 298.047 255.841 298.047C256.642 298.047 257.199 297.188 257.199 295.801C257.199 294.424 256.642 293.564 255.841 293.564ZM271.745 296.338V297.08H263.757V296.338H267.302V295.41H264.753V292.48H270.759V293.213H265.671V294.668H270.818V295.41H268.2V296.338H271.745ZM267.741 297.646C269.626 297.646 270.759 298.223 270.759 299.238C270.759 300.254 269.626 300.82 267.741 300.83C265.847 300.82 264.704 300.254 264.704 299.238C264.704 298.223 265.847 297.646 267.741 297.646ZM267.741 298.369C266.404 298.369 265.642 298.682 265.642 299.238C265.642 299.795 266.404 300.107 267.741 300.098C269.06 300.107 269.831 299.795 269.831 299.238C269.831 298.682 269.06 298.369 267.741 298.369ZM274.58 292.373C275.898 292.383 276.865 293.193 276.875 294.336C276.865 295.488 275.898 296.289 274.58 296.289C273.252 296.289 272.275 295.488 272.275 294.336C272.275 293.193 273.252 292.383 274.58 292.373ZM274.58 293.154C273.77 293.145 273.174 293.623 273.184 294.336C273.174 295.059 273.77 295.537 274.58 295.537C275.381 295.537 275.977 295.059 275.977 294.336C275.977 293.623 275.381 293.145 274.58 293.154ZM279.355 292.08V296.533H278.428V292.08H279.355ZM279.355 296.934V299.141H274.531V299.98H279.648V300.723H273.633V298.447H278.438V297.676H273.604V296.934H279.355ZM287.317 292.09V294.902H288.587V295.674H287.317V298.633H286.389V292.09H287.317ZM285.667 293.105V293.857H280.452V293.105H282.6V292.08H283.528V293.105H285.667ZM283.059 294.277C284.319 294.277 285.179 294.932 285.179 295.928C285.179 296.924 284.319 297.568 283.059 297.568C281.79 297.568 280.93 296.924 280.93 295.928C280.93 294.932 281.79 294.277 283.059 294.277ZM283.059 294.99C282.317 294.99 281.819 295.352 281.829 295.928C281.819 296.494 282.317 296.846 283.059 296.846C283.802 296.846 284.3 296.494 284.309 295.928C284.3 295.352 283.802 294.99 283.059 294.99ZM287.688 299.893V300.645H281.77V298.115H282.698V299.893H287.688ZM298.202 292.08V300.83H297.264V292.08H298.202ZM295.594 293.018C295.594 295.576 294.5 297.803 291.502 299.238L291.014 298.486C293.343 297.378 294.476 295.801 294.657 293.76H291.434V293.018H295.594ZM301.232 292.412V293.447H305.284V292.412H306.212V295.947H303.712V296.807H307.247V297.568H299.269V296.807H302.794V295.947H300.314V292.412H301.232ZM301.232 295.195H305.284V294.17H301.232V295.195ZM306.349 299.893V300.645H300.275V298.193H301.212V299.893H306.349ZM309.545 297.07V298.164H313.676V297.07H314.584V300.723H308.627V297.07H309.545ZM309.545 299.961H313.676V298.887H309.545V299.961ZM314.604 292.461V293.125C314.604 293.794 314.604 294.546 314.379 295.605H315.619V296.357H307.611V295.605H313.471C313.676 294.6 313.686 293.862 313.686 293.223H308.617V292.461H314.604ZM319.938 292.607C321.774 292.607 323.171 293.574 323.171 295.049C323.171 296.523 321.774 297.5 319.938 297.49C318.102 297.5 316.716 296.523 316.716 295.049C316.716 293.574 318.102 292.607 319.938 292.607ZM319.938 293.359C318.6 293.35 317.595 294.033 317.604 295.049C317.595 296.074 318.6 296.729 319.938 296.729C321.276 296.729 322.272 296.074 322.272 295.049C322.272 294.033 321.276 293.35 319.938 293.359ZM323.962 298.926V299.697H315.954V298.926H323.962ZM332.304 299.004V299.785H324.296V299.004H327.822V297.471H325.273V294.688H330.41V293.457H325.254V292.695H331.328V295.43H326.191V296.709H331.533V297.471H328.74V299.004H332.304ZM342.075 292.08V296.582H341.148V294.336H339.302V293.584H341.148V292.08H342.075ZM342.075 296.992V299.17H337.28V299.98H342.378V300.723H336.372V298.467H341.157V297.725H336.353V296.992H342.075ZM337.857 293.125C337.857 294.238 338.657 295.273 339.976 295.693L339.488 296.416C338.526 296.084 337.798 295.425 337.417 294.59C337.031 295.527 336.279 296.265 335.249 296.621L334.751 295.879C336.118 295.439 336.929 294.355 336.939 293.125V292.363H337.857V293.125ZM350.418 292.08V297.285H349.49V295.068H347.859V294.307H349.49V292.08H350.418ZM347.488 297.529C349.324 297.529 350.447 298.135 350.447 299.18C350.447 300.225 349.324 300.82 347.488 300.83C345.652 300.82 344.52 300.225 344.529 299.18C344.52 298.135 345.652 297.529 347.488 297.529ZM347.488 298.252C346.209 298.252 345.447 298.584 345.447 299.18C345.447 299.766 346.209 300.107 347.488 300.098C348.768 300.107 349.529 299.766 349.529 299.18C349.529 298.584 348.768 298.252 347.488 298.252ZM346.258 293.623C346.258 294.736 347.049 295.811 348.367 296.26L347.889 296.992C346.907 296.65 346.185 295.952 345.809 295.088C345.423 296.069 344.656 296.855 343.611 297.236L343.123 296.494C344.48 296.025 345.311 294.844 345.311 293.633V293.438H343.416V292.686H348.133V293.438H346.258V293.623ZM358.741 292.09V297.129H357.804V292.09H358.741ZM351.485 296.201C352.208 296.201 353.053 296.196 353.927 296.172V295.312H352.266V292.5H356.446V293.262H353.194V294.58H356.524V295.312H354.845V296.133C355.626 296.094 356.407 296.035 357.139 295.938L357.188 296.592C355.294 296.914 353.194 296.943 351.622 296.953L351.485 296.201ZM353.829 297.51V298.35H357.823V297.51H358.741V300.723H352.901V297.51H353.829ZM353.829 299.971H357.823V299.062H353.829V299.971ZM367.074 292.08V300.83H366.146V292.08H367.074ZM361.263 292.93V297.803C362.538 297.793 363.88 297.69 365.287 297.402L365.414 298.184C363.861 298.496 362.455 298.604 361.078 298.604H360.345V292.93H361.263ZM374.967 292.08V295.469H376.373V296.23H374.967V300.85H374.039V292.08H374.967ZM372.614 292.92V293.672H369.45V297.9C370.919 297.896 372.023 297.832 373.268 297.607L373.385 298.389C372.018 298.633 370.856 298.682 369.225 298.672H368.522V292.92H372.614ZM377.489 300.068C377.109 300.068 376.786 299.756 376.796 299.375C376.786 298.994 377.109 298.682 377.489 298.682C377.861 298.682 378.183 298.994 378.183 299.375C378.183 299.756 377.861 300.068 377.489 300.068ZM388.384 292.08V300.83H387.495V292.08H388.384ZM386.626 292.246V300.4H385.747V297.578H384.477C384.165 298.447 383.584 298.95 382.837 298.945C381.694 298.955 380.952 297.754 380.952 295.859C380.952 293.965 381.694 292.773 382.837 292.783C383.584 292.778 384.16 293.276 384.477 294.141H385.747V292.246H386.626ZM382.837 293.652C382.192 293.652 381.802 294.463 381.802 295.859C381.802 297.256 382.192 298.066 382.837 298.066C383.481 298.066 383.891 297.256 383.891 295.859C383.891 294.463 383.481 293.652 382.837 293.652ZM384.673 294.893C384.717 295.19 384.741 295.513 384.741 295.859C384.741 296.201 384.717 296.523 384.673 296.816H385.747V294.893H384.673ZM391.599 297.305C391.589 299.15 391.072 300.684 390.154 301.992H389.197C389.871 301.016 390.515 299.053 390.515 297.305C390.515 295.566 389.871 293.594 389.197 292.627H390.154C391.072 293.936 391.589 295.469 391.599 297.305ZM401.624 292.314V292.871C401.624 293.496 401.624 294.297 401.429 295.361L400.511 295.303C400.579 294.941 400.623 294.609 400.657 294.307L395.443 294.561L395.325 293.818L400.696 293.672C400.701 293.442 400.706 293.237 400.706 293.047H395.55V292.314H401.624ZM402.581 295.82V296.553H394.622V295.82H397.777V294.834H398.714V295.82H402.581ZM401.585 297.197V299.277H396.488V299.98H401.829V300.693H395.579V298.604H400.667V297.91H395.57V297.197H401.585ZM410.416 292.08V298.643H409.537V292.08H410.416ZM408.678 292.236V298.389H407.789V294.99H406.51V294.229H407.789V292.236H408.678ZM410.67 299.893V300.645H404.615V297.842H405.533V299.893H410.67ZM405.602 293.936C405.602 294.961 406.178 295.996 407.291 296.484L406.773 297.197C406.002 296.846 405.46 296.216 405.172 295.459C404.85 296.304 404.269 297.031 403.453 297.422L402.936 296.709C404.088 296.162 404.703 294.971 404.703 293.936V292.686H405.602V293.936ZM418.593 292.08V300.85H417.675V296.074H415.936V295.312H417.675V292.08H418.593ZM415.79 292.861V293.613H412.636V295.312H415.419V296.055H412.636V298.008C414.1 298.003 415.116 297.969 416.278 297.764L416.376 298.516C415.106 298.721 414.003 298.77 412.382 298.779H411.698V292.861H415.79ZM421.212 299.326L420.431 302.021H419.601L420.119 299.326H421.212ZM431.335 292.08V298.574H430.407V296.162H429.04V295.381H430.407V294.463H429.04V293.701H430.407V292.08H431.335ZM428.943 292.764V293.516H428.103V296.445C428.474 296.416 428.83 296.387 429.177 296.348L429.216 297.031C427.536 297.295 425.573 297.324 424.167 297.334L424.05 296.553L425.114 296.543V293.516H424.294V292.764H428.943ZM431.56 299.893V300.645H425.632V298.047H426.57V299.893H431.56ZM426.013 296.533C426.408 296.523 426.809 296.514 427.214 296.494V293.516H426.013V296.533ZM435.234 292.705C436.621 292.695 437.607 293.555 437.617 294.785C437.607 296.016 436.621 296.875 435.234 296.875C433.857 296.875 432.842 296.016 432.852 294.785C432.842 293.555 433.857 292.695 435.234 292.705ZM435.234 293.506C434.385 293.506 433.76 294.014 433.77 294.785C433.76 295.557 434.385 296.064 435.234 296.064C436.084 296.064 436.709 295.557 436.709 294.785C436.709 294.014 436.084 293.506 435.234 293.506ZM439.619 292.08V300.85H438.691V292.08H439.619ZM432.432 298.193C434.023 298.193 436.23 298.174 438.145 297.9L438.213 298.574C436.23 298.955 434.111 298.965 432.549 298.965L432.432 298.193ZM448.02 292.08V297.178H447.093V294.98H445.452V294.209H447.093V292.08H448.02ZM448.02 297.588V300.723H442.249V297.588H448.02ZM443.167 298.32V299.971H447.112V298.32H443.167ZM443.86 293.574C443.86 294.668 444.651 295.752 445.97 296.211L445.491 296.943C444.51 296.597 443.782 295.894 443.401 295.029C443.02 295.991 442.254 296.763 441.214 297.129L440.735 296.396C442.083 295.938 442.913 294.775 442.913 293.574V293.369H441.018V292.607H445.735V293.369H443.86V293.574ZM450.64 299.326L449.859 302.021H449.029L449.546 299.326H450.64ZM456.652 293.34C456.642 294.551 457.472 295.654 458.82 296.104L458.351 296.836C457.34 296.479 456.578 295.767 456.183 294.854C455.792 295.835 455.026 296.611 453.986 296.982L453.517 296.26C454.884 295.771 455.704 294.59 455.704 293.34V292.5H456.652V293.34ZM460.724 297.754V300.83H459.796V298.506H454.796V297.754H460.724ZM460.724 292.08V297.334H459.796V292.08H460.724ZM468.695 292.08V294.297H469.955V295.059H468.695V297.246H467.758V292.08H468.695ZM465.863 297.412C467.65 297.412 468.764 298.037 468.764 299.111C468.764 300.186 467.65 300.82 465.863 300.811C464.057 300.82 462.924 300.186 462.924 299.111C462.924 298.037 464.057 297.412 465.863 297.412ZM465.863 298.164C464.594 298.154 463.832 298.506 463.842 299.111C463.832 299.717 464.594 300.068 465.863 300.068C467.104 300.068 467.865 299.717 467.875 299.111C467.865 298.506 467.104 298.154 465.863 298.164ZM466.088 292.725V293.477H463.1V295.859C464.823 295.854 465.795 295.801 466.898 295.576L466.986 296.328C465.814 296.572 464.77 296.611 462.875 296.611H462.182V292.725H466.088ZM471.725 299.326L470.944 302.021H470.114L470.632 299.326H471.725ZM477.776 294.658C477.776 296.123 478.733 297.637 480.08 298.213L479.573 298.936C478.542 298.481 477.722 297.52 477.317 296.348C476.912 297.598 476.086 298.662 475.071 299.16L474.534 298.428C475.852 297.812 476.829 296.162 476.838 294.658V293.73H474.836V292.959H479.768V293.73H477.776V294.658ZM481.799 292.08V300.83H480.871V292.08H481.799ZM490.152 292.08V296.777H489.224V292.08H490.152ZM485.337 297.197V298.184H489.234V297.197H490.152V300.723H484.429V297.197H485.337ZM485.337 299.961H489.234V298.916H485.337V299.961ZM485.405 292.48C486.743 292.48 487.73 293.311 487.73 294.512C487.73 295.713 486.743 296.543 485.405 296.533C484.068 296.543 483.071 295.713 483.071 294.512C483.071 293.311 484.068 292.48 485.405 292.48ZM485.405 293.262C484.575 293.252 483.98 293.77 483.98 294.512C483.98 295.264 484.575 295.771 485.405 295.771C486.226 295.771 486.821 295.264 486.821 294.512C486.821 293.77 486.226 293.252 485.405 293.262ZM494.236 294.893C494.236 296.24 495.057 297.666 496.365 298.291L495.838 298.994C494.886 298.545 494.168 297.632 493.797 296.562C493.411 297.72 492.649 298.687 491.648 299.15L491.131 298.438C492.459 297.832 493.328 296.338 493.328 294.893V294.316H491.395V293.574H493.318V292.256H494.256V293.574H496.16V294.316H494.236V294.893ZM498.055 292.08V295.605H499.461V296.387H498.055V300.83H497.127V292.08H498.055ZM502.589 292.598L500.313 301.064H499.386L501.661 292.598H502.589ZM510.004 292.09V298.447H509.076V292.09H510.004ZM510.267 299.893V300.645H504.281V297.803H505.218V299.893H510.267ZM505.257 292.676C506.576 292.676 507.582 293.574 507.582 294.844C507.582 296.133 506.576 297.021 505.257 297.021C503.939 297.021 502.923 296.133 502.923 294.844C502.923 293.574 503.939 292.676 505.257 292.676ZM505.257 293.486C504.437 293.486 503.832 294.043 503.832 294.844C503.832 295.664 504.437 296.211 505.257 296.211C506.058 296.211 506.673 295.664 506.673 294.844C506.673 294.043 506.058 293.486 505.257 293.486ZM515.26 292.607V295.156H512.37V296.367C513.893 296.372 514.723 296.338 515.709 296.152L515.797 296.904C514.733 297.09 513.834 297.119 512.086 297.119H511.452V294.453H514.332V293.35H511.442V292.607H515.26ZM518.385 292.09V297.471H517.457V295.928H515.817V295.186H517.457V294.102H515.817V293.359H517.457V292.09H518.385ZM518.385 297.91V300.84H517.457V298.662H512.448V297.91H518.385ZM527.441 298.955V299.717H519.433V298.955H522.939V296.875H523.857V298.955H527.441ZM523.876 293.301C523.876 294.688 525.4 295.986 527.089 296.27L526.689 297.031C525.273 296.748 523.969 295.874 523.388 294.668C522.812 295.869 521.523 296.758 520.116 297.031L519.706 296.27C521.386 295.986 522.9 294.688 522.9 293.301V292.637H523.876V293.301ZM537.905 296.191V296.953H529.917V296.191H537.905ZM536.977 294.678V295.43H530.913V292.393H536.919V293.154H531.831V294.678H536.977ZM533.901 297.637C535.786 297.637 536.919 298.213 536.919 299.229C536.919 300.244 535.786 300.82 533.901 300.811C532.007 300.82 530.864 300.244 530.864 299.229C530.864 298.213 532.007 297.637 533.901 297.637ZM533.901 298.35C532.563 298.359 531.802 298.672 531.802 299.229C531.802 299.785 532.563 300.098 533.901 300.098C535.22 300.098 535.991 299.785 535.991 299.229C535.991 298.672 535.22 298.359 533.901 298.35ZM540.662 297.305C540.652 299.15 540.134 300.684 539.216 301.992H538.259C538.933 301.016 539.578 299.053 539.578 297.305C539.578 295.566 538.933 293.594 538.259 292.627H539.216C540.134 293.936 540.652 295.469 540.662 297.305Z" fill="black"/>
<path d="M144.564 315.652C144.564 316.775 145.404 317.85 146.752 318.279L146.273 319.002C145.268 318.67 144.506 317.977 144.115 317.098C143.72 318.05 142.943 318.802 141.898 319.168L141.42 318.455C142.777 317.986 143.617 316.844 143.627 315.652V315.408H141.664V314.656H146.488V315.408H144.564V315.652ZM148.578 314.08V319.363H147.65V314.08H148.578ZM148.578 319.803V322.83H147.65V320.555H142.65V319.803H148.578ZM152.536 314.48C153.854 314.48 154.811 315.213 154.811 316.297C154.811 317.371 153.854 318.113 152.536 318.104C151.218 318.113 150.28 317.371 150.28 316.297C150.28 315.213 151.218 314.48 152.536 314.48ZM152.536 315.232C151.745 315.232 151.169 315.652 151.179 316.297C151.169 316.932 151.745 317.352 152.536 317.342C153.346 317.352 153.923 316.932 153.923 316.297C153.923 315.652 153.346 315.232 152.536 315.232ZM156.94 314.09V322.83H156.022V314.09H156.94ZM149.655 318.787C151.266 318.787 153.503 318.748 155.417 318.465L155.485 319.158C154.689 319.31 153.859 319.402 153.054 319.461V322.557H152.126V319.51C151.276 319.549 150.475 319.554 149.782 319.559L149.655 318.787ZM165.293 314.08V318.631H164.375V317.586H162.461V318.309H158.427V314.48H159.355V315.662H161.543V314.48H162.461V315.281H164.375V314.08H165.293ZM165.293 319.021V321.17H160.517V321.98H165.605V322.723H159.589V320.477H164.375V319.744H159.57V319.021H165.293ZM159.355 317.566H161.543V316.375H159.355V317.566ZM162.461 316.873H164.375V315.994H162.461V316.873ZM175.786 314.08V318.582H174.859V316.336H173.013V315.584H174.859V314.08H175.786ZM175.786 318.992V321.17H170.991V321.98H176.089V322.723H170.083V320.467H174.868V319.725H170.064V318.992H175.786ZM171.568 315.125C171.568 316.238 172.368 317.273 173.687 317.693L173.198 318.416C172.237 318.084 171.509 317.425 171.128 316.59C170.742 317.527 169.99 318.265 168.96 318.621L168.462 317.879C169.829 317.439 170.64 316.355 170.65 315.125V314.363H171.568V315.125ZM184.129 314.08V319.285H183.201V317.068H181.57V316.307H183.201V314.08H184.129ZM181.199 319.529C183.035 319.529 184.158 320.135 184.158 321.18C184.158 322.225 183.035 322.82 181.199 322.83C179.363 322.82 178.23 322.225 178.24 321.18C178.23 320.135 179.363 319.529 181.199 319.529ZM181.199 320.252C179.92 320.252 179.158 320.584 179.158 321.18C179.158 321.766 179.92 322.107 181.199 322.098C182.479 322.107 183.24 321.766 183.24 321.18C183.24 320.584 182.479 320.252 181.199 320.252ZM179.969 315.623C179.969 316.736 180.76 317.811 182.078 318.26L181.6 318.992C180.618 318.65 179.896 317.952 179.52 317.088C179.134 318.069 178.367 318.855 177.322 319.236L176.834 318.494C178.191 318.025 179.021 316.844 179.021 315.633V315.438H177.127V314.686H181.844V315.438H179.969V315.623ZM187.845 319.305C187.855 317.469 188.373 315.936 189.291 314.627H190.248C189.574 315.594 188.929 317.566 188.929 319.305C188.929 321.053 189.574 323.016 190.248 323.992H189.291C188.373 322.684 187.855 321.15 187.845 319.305ZM193.629 316.307C193.62 317.859 194.518 319.441 195.827 320.076L195.25 320.818C194.298 320.325 193.561 319.344 193.18 318.172C192.785 319.422 192.018 320.467 191.022 320.984L190.446 320.232C191.793 319.588 192.702 317.908 192.702 316.307V314.812H193.629V316.307ZM197.409 314.08V317.566H198.815V318.357H197.409V322.83H196.481V314.08H197.409ZM206.21 314.09V320.721H205.282V319.881H203.525V319.227H205.282V314.09H206.21ZM206.425 321.893V322.645H200.107V320.076H201.025V321.893H206.425ZM198.896 318.084C200.517 318.074 202.695 318.055 204.56 317.82L204.618 318.484C203.871 318.606 203.085 318.689 202.314 318.738V320.447H201.386V318.787C200.536 318.826 199.721 318.831 199.013 318.826L198.896 318.084ZM201.757 314.422C203.036 314.422 203.925 315.037 203.925 315.965C203.925 316.893 203.036 317.488 201.757 317.488C200.458 317.488 199.579 316.893 199.579 315.965C199.579 315.037 200.458 314.422 201.757 314.422ZM201.757 315.115C200.976 315.105 200.448 315.438 200.458 315.965C200.448 316.482 200.976 316.805 201.757 316.805C202.509 316.805 203.036 316.482 203.046 315.965C203.036 315.438 202.509 315.105 201.757 315.115ZM208.85 321.326L208.068 324.021H207.238L207.756 321.326H208.85ZM219.187 314.08V322.83H218.298V318.309H217.166V322.381H216.316V314.256H217.166V317.547H218.298V314.08H219.187ZM215.252 315.135V315.887H212.898V319.939C213.972 319.93 214.783 319.881 215.72 319.705L215.789 320.467C214.734 320.682 213.836 320.721 212.556 320.73H211.97V315.135H215.252ZM227.286 314.08V322.85H226.358V314.08H227.286ZM224.61 314.871V318.064H221.465V319.979C222.881 319.974 224.121 319.91 225.586 319.666L225.674 320.428C224.121 320.691 222.803 320.75 221.26 320.75H220.518V317.322H223.662V315.623H220.508V314.871H224.61ZM229.935 321.326L229.154 324.021H228.323L228.841 321.326H229.935ZM237.636 315.018V315.555C237.636 316.287 237.636 317.42 237.382 318.982L236.464 318.914C236.683 317.513 236.708 316.502 236.718 315.77H233.163V315.018H237.636ZM235.389 317.518V320.135C236.322 320.105 237.269 320.042 238.143 319.93L238.192 320.623C236.366 320.916 234.335 320.955 232.782 320.945L232.675 320.193C233.221 320.188 233.832 320.184 234.471 320.164V317.518H235.389ZM239.579 314.08V317.693H240.917V318.484H239.579V322.83H238.641V314.08H239.579ZM244.162 315.691C244.162 316.805 244.933 317.82 246.261 318.24L245.822 318.963C244.826 318.646 244.098 317.986 243.713 317.156C243.332 318.113 242.565 318.87 241.515 319.236L241.037 318.494C242.404 318.045 243.224 316.912 243.234 315.701V315.457H241.31V314.705H246.046V315.457H244.162V315.691ZM247.98 314.08V316.248H249.25V317.01H247.98V319.334H247.052V314.08H247.98ZM245.158 319.549C246.964 319.549 248.058 320.145 248.058 321.17C248.058 322.205 246.964 322.82 245.158 322.811C243.332 322.82 242.218 322.205 242.218 321.17C242.218 320.145 243.332 319.549 245.158 319.549ZM245.158 320.281C243.888 320.281 243.136 320.604 243.146 321.17C243.136 321.756 243.888 322.078 245.158 322.078C246.418 322.078 247.15 321.756 247.15 321.17C247.15 320.604 246.418 320.281 245.158 320.281ZM259.577 318.191V318.953H251.589V318.191H259.577ZM258.65 316.678V317.43H252.585V314.393H258.591V315.154H253.503V316.678H258.65ZM255.573 319.637C257.458 319.637 258.591 320.213 258.591 321.229C258.591 322.244 257.458 322.82 255.573 322.811C253.679 322.82 252.536 322.244 252.536 321.229C252.536 320.213 253.679 319.637 255.573 319.637ZM255.573 320.35C254.236 320.359 253.474 320.672 253.474 321.229C253.474 321.785 254.236 322.098 255.573 322.098C256.892 322.098 257.663 321.785 257.663 321.229C257.663 320.672 256.892 320.359 255.573 320.35ZM269.368 314.09V320.496H268.44V317.205H266.77V316.453H268.44V314.09H269.368ZM269.602 321.893V322.645H263.684V319.92H264.612V321.893H269.602ZM265.208 315.857C265.208 316.951 265.999 318.045 267.317 318.484L266.839 319.227C265.857 318.88 265.13 318.177 264.749 317.312C264.368 318.274 263.601 319.051 262.561 319.422L262.083 318.67C263.43 318.211 264.261 317.059 264.261 315.857V315.516H262.366V314.754H267.083V315.516H265.208V315.857ZM278.394 318.68V319.412H270.396V318.68H273.931V317.918H271.441V314.314H277.418V315.047H272.379V315.76H277.193V316.453H272.379V317.195H277.476V317.918H274.859V318.68H278.394ZM274.4 319.988C276.324 319.979 277.418 320.486 277.418 321.404C277.418 322.332 276.324 322.82 274.4 322.811C272.457 322.82 271.363 322.332 271.363 321.404C271.363 320.486 272.457 319.979 274.4 319.988ZM274.4 320.682C273.023 320.682 272.281 320.936 272.291 321.404C272.281 321.873 273.023 322.117 274.4 322.107C275.757 322.117 276.49 321.873 276.49 321.404C276.49 320.936 275.757 320.682 274.4 320.682ZM281.893 315.633C281.893 316.736 282.684 317.82 284.002 318.27L283.524 318.992C282.542 318.65 281.815 317.952 281.434 317.088C281.053 318.05 280.287 318.821 279.246 319.188L278.768 318.455C280.116 317.996 280.946 316.824 280.946 315.643V315.398H279.051V314.646H283.768V315.398H281.893V315.633ZM286.053 319.754V322.83H285.125V320.506H280.125V319.754H286.053ZM286.053 314.08V319.314H285.125V317.068H283.504V316.307H285.125V314.08H286.053ZM294.357 314.09V320.447H293.429V314.09H294.357ZM294.62 321.893V322.645H288.634V319.803H289.571V321.893H294.62ZM289.611 314.676C290.929 314.676 291.935 315.574 291.935 316.844C291.935 318.133 290.929 319.021 289.611 319.021C288.292 319.021 287.277 318.133 287.277 316.844C287.277 315.574 288.292 314.676 289.611 314.676ZM289.611 315.486C288.79 315.486 288.185 316.043 288.185 316.844C288.185 317.664 288.79 318.211 289.611 318.211C290.411 318.211 291.027 317.664 291.027 316.844C291.027 316.043 290.411 315.486 289.611 315.486ZM301.637 319.529C303.444 319.529 304.538 320.135 304.538 321.17C304.538 322.215 303.444 322.82 301.637 322.83C299.811 322.82 298.698 322.215 298.698 321.17C298.698 320.135 299.811 319.529 301.637 319.529ZM301.637 320.262C300.368 320.262 299.616 320.584 299.626 321.17C299.616 321.756 300.368 322.088 301.637 322.088C302.897 322.088 303.63 321.756 303.63 321.17C303.63 320.584 302.897 320.262 301.637 320.262ZM304.46 314.08V316.219H305.729V317.01H304.46V319.305H303.532V314.08H304.46ZM298.835 314.627V315.887H301.13V314.627H302.048V318.689H297.927V314.627H298.835ZM298.835 317.947H301.13V316.619H298.835V317.947ZM309.111 315.34C309.101 316.551 309.931 317.654 311.279 318.104L310.81 318.836C309.799 318.479 309.038 317.767 308.642 316.854C308.252 317.835 307.485 318.611 306.445 318.982L305.976 318.26C307.343 317.771 308.164 316.59 308.164 315.34V314.5H309.111V315.34ZM313.183 319.754V322.83H312.255V320.506H307.255V319.754H313.183ZM313.183 314.08V319.334H312.255V314.08H313.183ZM317.121 314.705C318.508 314.695 319.495 315.555 319.504 316.785C319.495 318.016 318.508 318.875 317.121 318.875C315.745 318.875 314.729 318.016 314.739 316.785C314.729 315.555 315.745 314.695 317.121 314.705ZM317.121 315.506C316.272 315.506 315.647 316.014 315.657 316.785C315.647 317.557 316.272 318.064 317.121 318.064C317.971 318.064 318.596 317.557 318.596 316.785C318.596 316.014 317.971 315.506 317.121 315.506ZM321.506 314.08V322.85H320.579V314.08H321.506ZM314.319 320.193C315.911 320.193 318.118 320.174 320.032 319.9L320.1 320.574C318.118 320.955 315.998 320.965 314.436 320.965L314.319 320.193ZM332.01 314.09V319.07H331.082V314.09H332.01ZM332.01 319.51V322.723H326.258V319.51H332.01ZM327.176 320.252V321.971H331.102V320.252H327.176ZM327.264 314.529C328.602 314.529 329.588 315.369 329.588 316.6C329.588 317.801 328.602 318.65 327.264 318.65C325.926 318.65 324.93 317.801 324.93 316.6C324.93 315.369 325.926 314.529 327.264 314.529ZM327.264 315.311C326.434 315.311 325.838 315.818 325.838 316.6C325.838 317.352 326.434 317.869 327.264 317.869C328.084 317.869 328.68 317.352 328.68 316.6C328.68 315.818 328.084 315.311 327.264 315.311ZM340.089 314.52V315.184C340.089 315.872 340.089 316.653 339.864 317.713H341.104V318.475H333.096V317.713H338.927C339.161 316.692 339.171 315.945 339.171 315.281H334.102V314.52H340.089ZM340.098 319.588V322.723H334.073V319.588H340.098ZM334.981 320.32V321.971H339.18V320.32H334.981ZM350.875 314.08V318.582H349.948V316.336H348.102V315.584H349.948V314.08H350.875ZM350.875 318.992V321.17H346.08V321.98H351.178V322.723H345.172V320.467H349.957V319.725H345.153V318.992H350.875ZM346.657 315.125C346.657 316.238 347.457 317.273 348.776 317.693L348.288 318.416C347.326 318.084 346.598 317.425 346.217 316.59C345.831 317.527 345.079 318.265 344.049 318.621L343.551 317.879C344.918 317.439 345.729 316.355 345.739 315.125V314.363H346.657V315.125ZM359.218 314.08V319.285H358.29V317.068H356.659V316.307H358.29V314.08H359.218ZM356.288 319.529C358.124 319.529 359.247 320.135 359.247 321.18C359.247 322.225 358.124 322.82 356.288 322.83C354.452 322.82 353.32 322.225 353.329 321.18C353.32 320.135 354.452 319.529 356.288 319.529ZM356.288 320.252C355.009 320.252 354.247 320.584 354.247 321.18C354.247 321.766 355.009 322.107 356.288 322.098C357.568 322.107 358.329 321.766 358.329 321.18C358.329 320.584 357.568 320.252 356.288 320.252ZM355.058 315.623C355.058 316.736 355.849 317.811 357.167 318.26L356.689 318.992C355.707 318.65 354.985 317.952 354.609 317.088C354.223 318.069 353.456 318.855 352.411 319.236L351.923 318.494C353.28 318.025 354.111 316.844 354.111 315.633V315.438H352.216V314.686H356.933V315.438H355.058V315.623ZM362.668 319.305C362.658 321.15 362.141 322.684 361.223 323.992H360.266C360.939 323.016 361.584 321.053 361.584 319.305C361.584 317.566 360.939 315.594 360.266 314.627H361.223C362.141 315.936 362.658 317.469 362.668 319.305Z" fill="black"/>
<path d="M144.564 337.652C144.564 338.775 145.404 339.85 146.752 340.279L146.273 341.002C145.268 340.67 144.506 339.977 144.115 339.098C143.72 340.05 142.943 340.802 141.898 341.168L141.42 340.455C142.777 339.986 143.617 338.844 143.627 337.652V337.408H141.664V336.656H146.488V337.408H144.564V337.652ZM148.578 336.08V341.363H147.65V336.08H148.578ZM148.578 341.803V344.83H147.65V342.555H142.65V341.803H148.578ZM157.663 341.1V341.852H154.089V344.82H153.18V341.852H149.655V341.1H157.663ZM156.657 336.549V339.986H150.661V336.549H156.657ZM151.569 337.291V339.264H155.729V337.291H151.569ZM165.293 336.08V340.631H164.375V339.586H162.461V340.309H158.427V336.48H159.355V337.662H161.543V336.48H162.461V337.281H164.375V336.08H165.293ZM165.293 341.021V343.17H160.517V343.98H165.605V344.723H159.589V342.477H164.375V341.744H159.57V341.021H165.293ZM159.355 339.566H161.543V338.375H159.355V339.566ZM162.461 338.873H164.375V337.994H162.461V338.873ZM175.786 336.08V340.582H174.859V338.336H173.013V337.584H174.859V336.08H175.786ZM175.786 340.992V343.17H170.991V343.98H176.089V344.723H170.083V342.467H174.868V341.725H170.064V340.992H175.786ZM171.568 337.125C171.568 338.238 172.368 339.273 173.687 339.693L173.198 340.416C172.237 340.084 171.509 339.425 171.128 338.59C170.742 339.527 169.99 340.265 168.96 340.621L168.462 339.879C169.829 339.439 170.64 338.355 170.65 337.125V336.363H171.568V337.125ZM184.129 336.08V341.285H183.201V339.068H181.57V338.307H183.201V336.08H184.129ZM181.199 341.529C183.035 341.529 184.158 342.135 184.158 343.18C184.158 344.225 183.035 344.82 181.199 344.83C179.363 344.82 178.23 344.225 178.24 343.18C178.23 342.135 179.363 341.529 181.199 341.529ZM181.199 342.252C179.92 342.252 179.158 342.584 179.158 343.18C179.158 343.766 179.92 344.107 181.199 344.098C182.479 344.107 183.24 343.766 183.24 343.18C183.24 342.584 182.479 342.252 181.199 342.252ZM179.969 337.623C179.969 338.736 180.76 339.811 182.078 340.26L181.6 340.992C180.618 340.65 179.896 339.952 179.52 339.088C179.134 340.069 178.367 340.855 177.322 341.236L176.834 340.494C178.191 340.025 179.021 338.844 179.021 337.633V337.438H177.127V336.686H181.844V337.438H179.969V337.623ZM187.845 341.305C187.855 339.469 188.373 337.936 189.291 336.627H190.248C189.574 337.594 188.929 339.566 188.929 341.305C188.929 343.053 189.574 345.016 190.248 345.992H189.291C188.373 344.684 187.855 343.15 187.845 341.305ZM193.805 338.307C193.795 339.908 194.762 341.51 196.12 342.115L195.563 342.848C194.557 342.369 193.761 341.388 193.356 340.191C192.946 341.471 192.14 342.53 191.09 343.043L190.524 342.262C191.901 341.646 192.868 339.977 192.868 338.307V336.812H193.805V338.307ZM197.838 336.08V344.85H196.911V336.08H197.838ZM206.2 336.08V344.83H205.273V336.08H206.2ZM200.39 336.93V341.803C201.664 341.793 203.007 341.69 204.413 341.402L204.54 342.184C202.987 342.496 201.581 342.604 200.204 342.604H199.472V336.93H200.39ZM209.65 336.734C210.837 336.734 211.706 337.74 211.848 339.361H213.654V336.08H214.572V344.85H213.654V340.113H211.857C211.755 341.817 210.866 342.877 209.65 342.877C208.342 342.877 207.424 341.686 207.434 339.801C207.424 337.926 208.342 336.734 209.65 336.734ZM209.65 337.564C208.859 337.564 208.312 338.424 208.312 339.801C208.312 341.188 208.859 342.047 209.65 342.047C210.441 342.047 210.988 341.188 210.988 339.801C210.988 338.424 210.441 337.564 209.65 337.564ZM225.252 336.08V344.83H224.363V340.289H223.279V344.41H222.41V336.314H223.279V339.537H224.363V336.08H225.252ZM221.541 337.193C221.531 339.498 220.769 341.559 218.269 342.975L217.732 342.33C219.675 341.231 220.496 339.742 220.642 337.955H218.103V337.193H221.541ZM227.354 336.451V337.643H229.649V336.451H230.567V340.27H226.446V336.451H227.354ZM227.354 339.527H229.649V338.355H227.354V339.527ZM232.979 336.08V337.916H234.248V338.668H232.979V340.582H232.051V336.08H232.979ZM232.979 340.963V343.17H228.252V344H233.282V344.742H227.344V342.486H232.061V341.695H227.325V340.963H232.979ZM237.493 338.658C237.493 340.045 238.402 341.588 239.73 342.213L239.202 342.936C238.221 342.462 237.445 341.476 237.054 340.328C236.649 341.583 235.828 342.662 234.827 343.16L234.28 342.428C235.609 341.793 236.575 340.143 236.575 338.658V337.73H234.603V336.959H239.398V337.73H237.493V338.658ZM241.263 336.08V339.547H242.669V340.328H241.263V344.83H240.335V336.08H241.263ZM244.361 343.326L243.58 346.021H242.75L243.268 343.326H244.361ZM251.613 336.949V342.633H247.521V336.949H251.613ZM248.429 337.682V341.881H250.695V337.682H248.429ZM254.005 336.08V339.508H255.412V340.289H254.005V344.83H253.078V336.08H254.005ZM259.399 337.096C259.399 337.926 259.316 338.731 259.086 339.488H260.327V336.305H261.205V344.4H260.327V340.24H258.803C258.315 341.31 257.47 342.262 256.088 343.033L255.561 342.389C256.83 341.681 257.597 340.826 258.032 339.85L255.688 340.094L255.561 339.293L258.295 339.127C258.403 338.722 258.466 338.297 258.5 337.857H255.991V337.096H259.399ZM263.051 336.08V344.83H262.172V336.08H263.051ZM268.581 336.715V337.457H265.31V338.424H268.337V339.156H265.31V340.152C267.063 340.162 268.083 340.133 269.265 339.928L269.363 340.68C268.093 340.885 267.009 340.914 265.095 340.914H264.372V336.715H268.581ZM271.13 336.09V341.471H270.202V336.09H271.13ZM268.2 341.588C270.036 341.588 271.179 342.184 271.179 343.199C271.179 344.225 270.036 344.82 268.2 344.811C266.345 344.82 265.222 344.225 265.222 343.199C265.222 342.184 266.345 341.588 268.2 341.588ZM268.2 342.32C266.892 342.32 266.15 342.643 266.15 343.199C266.15 343.775 266.892 344.098 268.2 344.098C269.48 344.098 270.251 343.775 270.251 343.199C270.251 342.643 269.48 342.32 268.2 342.32ZM281.887 336.08V344.83H280.999V340.27H279.915V344.4H279.036V336.246H279.915V339.508H280.999V336.08H281.887ZM278.05 337.066V342.525H274.651V337.066H278.05ZM275.53 337.799V341.783H277.18V337.799H275.53ZM289.966 336.08V344.83H289.039V336.08H289.966ZM284.156 336.93V341.803C285.43 341.793 286.773 341.69 288.179 341.402L288.306 342.184C286.754 342.496 285.347 342.604 283.97 342.604H283.238V336.93H284.156ZM298.348 336.08V344.85H297.42V339.986H295.614V339.225H297.42V336.08H298.348ZM294.168 338.541C294.168 340.025 295.096 341.617 296.444 342.213L295.887 342.955C294.876 342.467 294.095 341.446 293.709 340.25C293.319 341.524 292.523 342.613 291.512 343.131L290.946 342.408C292.284 341.773 293.221 340.113 293.231 338.541V337.721H291.297V336.959H296.112V337.721H294.168V338.541ZM300.958 343.326L300.177 346.021H299.347L299.864 343.326H300.958ZM311.345 336.08V344.83H310.456V340.338H309.411V344.4H308.532V336.246H309.411V339.557H310.456V336.08H311.345ZM306.442 338.395C306.442 339.967 307.038 341.393 308.307 342.047L307.761 342.76C306.901 342.296 306.325 341.48 306.012 340.465C305.715 341.617 305.134 342.535 304.245 343.062L303.669 342.359C304.948 341.637 305.544 340.133 305.544 338.395V337.828H303.903V337.076H307.966V337.828H306.442V338.395ZM320.127 341.1V341.852H316.552V344.82H315.644V341.852H312.119V341.1H320.127ZM319.121 336.549V339.986H313.125V336.549H319.121ZM314.033 337.291V339.264H318.193V337.291H314.033ZM329.488 336.08V338.16H330.757V338.932H329.488V341.021H328.56V336.08H329.488ZM326.89 336.656V337.408H323.921V339.82C325.625 339.815 326.587 339.752 327.681 339.537L327.788 340.279C326.607 340.533 325.571 340.572 323.696 340.572H323.003V336.656H326.89ZM329.488 341.451V344.713H323.902V341.451H329.488ZM324.81 342.193V343.971H328.57V342.193H324.81ZM337.84 336.08V338.297H339.1V339.059H337.84V341.246H336.902V336.08H337.84ZM335.008 341.412C336.795 341.412 337.908 342.037 337.908 343.111C337.908 344.186 336.795 344.82 335.008 344.811C333.201 344.82 332.068 344.186 332.068 343.111C332.068 342.037 333.201 341.412 335.008 341.412ZM335.008 342.164C333.738 342.154 332.977 342.506 332.986 343.111C332.977 343.717 333.738 344.068 335.008 344.068C336.248 344.068 337.01 343.717 337.02 343.111C337.01 342.506 336.248 342.154 335.008 342.164ZM335.232 336.725V337.477H332.244V339.859C333.968 339.854 334.939 339.801 336.043 339.576L336.131 340.328C334.959 340.572 333.914 340.611 332.02 340.611H331.326V336.725H335.232ZM342.345 338.658C342.345 340.045 343.253 341.588 344.581 342.213L344.054 342.936C343.072 342.462 342.296 341.476 341.905 340.328C341.5 341.583 340.679 342.662 339.679 343.16L339.132 342.428C340.46 341.793 341.427 340.143 341.427 338.658V337.73H339.454V336.959H344.249V337.73H342.345V338.658ZM346.114 336.08V339.547H347.52V340.328H346.114V344.83H345.186V336.08H346.114ZM357.77 340.191V340.953H349.782V340.191H357.77ZM356.842 338.678V339.43H350.778V336.393H356.784V337.154H351.696V338.678H356.842ZM353.766 341.637C355.651 341.637 356.784 342.213 356.784 343.229C356.784 344.244 355.651 344.82 353.766 344.811C351.871 344.82 350.729 344.244 350.729 343.229C350.729 342.213 351.871 341.637 353.766 341.637ZM353.766 342.35C352.428 342.359 351.666 342.672 351.666 343.229C351.666 343.785 352.428 344.098 353.766 344.098C355.084 344.098 355.856 343.785 355.856 343.229C355.856 342.672 355.084 342.359 353.766 342.35ZM367.141 336.08V338.16H368.41V338.932H367.141V341.021H366.213V336.08H367.141ZM364.543 336.656V337.408H361.574V339.82C363.278 339.815 364.24 339.752 365.334 339.537L365.441 340.279C364.26 340.533 363.225 340.572 361.35 340.572H360.656V336.656H364.543ZM367.141 341.451V344.713H361.555V341.451H367.141ZM362.463 342.193V343.971H366.223V342.193H362.463ZM375.493 336.08V338.297H376.753V339.059H375.493V341.246H374.555V336.08H375.493ZM372.661 341.412C374.448 341.412 375.561 342.037 375.561 343.111C375.561 344.186 374.448 344.82 372.661 344.811C370.854 344.82 369.721 344.186 369.721 343.111C369.721 342.037 370.854 341.412 372.661 341.412ZM372.661 342.164C371.391 342.154 370.63 342.506 370.639 343.111C370.63 343.717 371.391 344.068 372.661 344.068C373.901 344.068 374.663 343.717 374.673 343.111C374.663 342.506 373.901 342.154 372.661 342.164ZM372.886 336.725V337.477H369.897V339.859C371.621 339.854 372.593 339.801 373.696 339.576L373.784 340.328C372.612 340.572 371.567 340.611 369.673 340.611H368.979V336.725H372.886ZM384.959 342.994V343.785H376.951V342.994H380.466V341.129H377.654V340.396H378.962V337.643H377.634V336.891H384.226V337.643H382.888V340.396H384.197V341.129H381.384V342.994H384.959ZM379.88 340.396H381.98V337.643H379.88V340.396ZM388.516 338.658C388.516 340.123 389.473 341.637 390.821 342.213L390.313 342.936C389.283 342.481 388.462 341.52 388.057 340.348C387.652 341.598 386.827 342.662 385.811 343.16L385.274 342.428C386.592 341.812 387.569 340.162 387.579 338.658V337.73H385.577V336.959H390.508V337.73H388.516V338.658ZM392.539 336.08V344.83H391.612V336.08H392.539ZM396.722 337.662C396.722 338.922 397.513 340.123 398.812 340.631L398.304 341.354C397.347 340.968 396.644 340.201 396.273 339.244C395.897 340.27 395.15 341.08 394.134 341.49L393.636 340.748C394.984 340.25 395.794 339 395.804 337.662V336.578H396.722V337.662ZM400.931 336.09V342.604H400.003V339.85H398.304V339.098H400.003V338.082H398.304V337.33H400.003V336.09H400.931ZM401.126 343.893V344.645H395.218V341.949H396.155V343.893H401.126ZM409.508 336.08V344.83H408.619V336.08H409.508ZM407.73 336.246V344.4H406.842V340.182H405.855C405.777 341.891 405.045 342.955 403.961 342.945C402.818 342.955 402.076 341.754 402.076 339.859C402.076 337.965 402.818 336.773 403.961 336.783C405.025 336.773 405.748 337.784 405.855 339.43H406.842V336.246H407.73ZM403.961 337.652C403.326 337.652 402.936 338.463 402.936 339.859C402.936 341.256 403.326 342.066 403.961 342.066C404.605 342.066 405.006 341.256 405.006 339.859C405.006 338.463 404.605 337.652 403.961 337.652ZM419.435 336.061V339.459H420.636V340.24H419.435V344.83H418.507V336.061H419.435ZM414.943 336.979V337.74H413.625V341.803C414.045 341.788 414.508 341.744 415.021 341.637L415.099 342.408C414.308 342.564 413.683 342.584 413.097 342.584H412.697V336.979H414.943ZM417.765 336.979V337.74H416.339V341.803C416.979 341.798 417.462 341.754 418 341.617L418.078 342.389C417.375 342.564 416.798 342.584 415.861 342.584H415.431V336.979H417.765ZM428.803 340.885V341.637H420.795V340.885H428.803ZM427.983 343.893V344.645H421.84V342.262H422.768V343.893H427.983ZM427.797 336.344V338.59H422.739V339.449H427.973V340.162H421.821V337.916H426.87V337.076H421.801V336.344H427.797ZM438.545 336.09V341.07H437.617V336.09H438.545ZM438.545 341.51V344.723H432.793V341.51H438.545ZM433.711 342.252V343.971H437.637V342.252H433.711ZM433.799 336.529C435.137 336.529 436.123 337.369 436.123 338.6C436.123 339.801 435.137 340.65 433.799 340.65C432.461 340.65 431.465 339.801 431.465 338.6C431.465 337.369 432.461 336.529 433.799 336.529ZM433.799 337.311C432.969 337.311 432.373 337.818 432.373 338.6C432.373 339.352 432.969 339.869 433.799 339.869C434.619 339.869 435.215 339.352 435.215 338.6C435.215 337.818 434.619 337.311 433.799 337.311ZM446.624 336.52V337.184C446.624 337.872 446.624 338.653 446.399 339.713H447.639V340.475H439.632V339.713H445.462C445.696 338.692 445.706 337.945 445.706 337.281H440.638V336.52H446.624ZM446.634 341.588V344.723H440.608V341.588H446.634ZM441.516 342.32V343.971H445.716V342.32H441.516ZM457.411 336.08V340.582H456.483V338.336H454.637V337.584H456.483V336.08H457.411ZM457.411 340.992V343.17H452.616V343.98H457.713V344.723H451.707V342.467H456.493V341.725H451.688V340.992H457.411ZM453.192 337.125C453.192 338.238 453.993 339.273 455.311 339.693L454.823 340.416C453.861 340.084 453.133 339.425 452.752 338.59C452.367 339.527 451.615 340.265 450.584 340.621L450.086 339.879C451.454 339.439 452.264 338.355 452.274 337.125V336.363H453.192V337.125ZM465.753 336.08V341.285H464.825V339.068H463.195V338.307H464.825V336.08H465.753ZM462.823 341.529C464.659 341.529 465.782 342.135 465.782 343.18C465.782 344.225 464.659 344.82 462.823 344.83C460.987 344.82 459.855 344.225 459.864 343.18C459.855 342.135 460.987 341.529 462.823 341.529ZM462.823 342.252C461.544 342.252 460.782 342.584 460.782 343.18C460.782 343.766 461.544 344.107 462.823 344.098C464.103 344.107 464.864 343.766 464.864 343.18C464.864 342.584 464.103 342.252 462.823 342.252ZM461.593 337.623C461.593 338.736 462.384 339.811 463.702 340.26L463.224 340.992C462.242 340.65 461.52 339.952 461.144 339.088C460.758 340.069 459.991 340.855 458.946 341.236L458.458 340.494C459.816 340.025 460.646 338.844 460.646 337.633V337.438H458.751V336.686H463.468V337.438H461.593V337.623ZM469.203 341.305C469.193 343.15 468.676 344.684 467.758 345.992H466.801C467.475 345.016 468.119 343.053 468.119 341.305C468.119 339.566 467.475 337.594 466.801 336.627H467.758C468.676 337.936 469.193 339.469 469.203 341.305Z" fill="black"/>
<path d="M144.564 359.652C144.564 360.775 145.404 361.85 146.752 362.279L146.273 363.002C145.268 362.67 144.506 361.977 144.115 361.098C143.72 362.05 142.943 362.802 141.898 363.168L141.42 362.455C142.777 361.986 143.617 360.844 143.627 359.652V359.408H141.664V358.656H146.488V359.408H144.564V359.652ZM148.578 358.08V363.363H147.65V358.08H148.578ZM148.578 363.803V366.83H147.65V364.555H142.65V363.803H148.578ZM151.598 363.07V364.164H155.729V363.07H156.637V366.723H150.68V363.07H151.598ZM151.598 365.961H155.729V364.887H151.598V365.961ZM156.657 358.461V359.125C156.657 359.794 156.657 360.546 156.432 361.605H157.673V362.357H149.665V361.605H155.524C155.729 360.6 155.739 359.862 155.739 359.223H150.671V358.461H156.657ZM165.293 358.08V362.631H164.375V361.586H162.461V362.309H158.427V358.48H159.355V359.662H161.543V358.48H162.461V359.281H164.375V358.08H165.293ZM165.293 363.021V365.17H160.517V365.98H165.605V366.723H159.589V364.477H164.375V363.744H159.57V363.021H165.293ZM159.355 361.566H161.543V360.375H159.355V361.566ZM162.461 360.873H164.375V359.994H162.461V360.873ZM175.786 358.08V362.582H174.859V360.336H173.013V359.584H174.859V358.08H175.786ZM175.786 362.992V365.17H170.991V365.98H176.089V366.723H170.083V364.467H174.868V363.725H170.064V362.992H175.786ZM171.568 359.125C171.568 360.238 172.368 361.273 173.687 361.693L173.198 362.416C172.237 362.084 171.509 361.425 171.128 360.59C170.742 361.527 169.99 362.265 168.96 362.621L168.462 361.879C169.829 361.439 170.64 360.355 170.65 359.125V358.363H171.568V359.125ZM184.129 358.08V363.285H183.201V361.068H181.57V360.307H183.201V358.08H184.129ZM181.199 363.529C183.035 363.529 184.158 364.135 184.158 365.18C184.158 366.225 183.035 366.82 181.199 366.83C179.363 366.82 178.23 366.225 178.24 365.18C178.23 364.135 179.363 363.529 181.199 363.529ZM181.199 364.252C179.92 364.252 179.158 364.584 179.158 365.18C179.158 365.766 179.92 366.107 181.199 366.098C182.479 366.107 183.24 365.766 183.24 365.18C183.24 364.584 182.479 364.252 181.199 364.252ZM179.969 359.623C179.969 360.736 180.76 361.811 182.078 362.26L181.6 362.992C180.618 362.65 179.896 361.952 179.52 361.088C179.134 362.069 178.367 362.855 177.322 363.236L176.834 362.494C178.191 362.025 179.021 360.844 179.021 359.633V359.438H177.127V358.686H181.844V359.438H179.969V359.623ZM187.845 363.305C187.855 361.469 188.373 359.936 189.291 358.627H190.248C189.574 359.594 188.929 361.566 188.929 363.305C188.929 365.053 189.574 367.016 190.248 367.992H189.291C188.373 366.684 187.855 365.15 187.845 363.305ZM194.537 363.578C196.432 363.578 197.623 364.174 197.633 365.199C197.623 366.215 196.432 366.82 194.537 366.811C192.662 366.82 191.461 366.215 191.461 365.199C191.461 364.174 192.662 363.578 194.537 363.578ZM194.537 364.281C193.209 364.281 192.379 364.623 192.389 365.199C192.379 365.766 193.209 366.098 194.537 366.098C195.875 366.098 196.705 365.766 196.715 365.199C196.705 364.623 195.875 364.281 194.537 364.281ZM197.565 358.51V359.242C197.565 359.945 197.565 360.668 197.321 361.566L196.412 361.469C196.647 360.575 196.647 359.931 196.647 359.252H191.53V358.51H197.565ZM198.561 362.104V362.855H190.602V362.104H193.795V360.463H194.704V362.104H198.561ZM202.88 363.578C204.775 363.578 205.966 364.174 205.976 365.199C205.966 366.215 204.775 366.82 202.88 366.811C201.005 366.82 199.804 366.215 199.804 365.199C199.804 364.174 201.005 363.578 202.88 363.578ZM202.88 364.281C201.552 364.281 200.722 364.623 200.732 365.199C200.722 365.766 201.552 366.098 202.88 366.098C204.218 366.098 205.048 365.766 205.058 365.199C205.048 364.623 204.218 364.281 202.88 364.281ZM205.907 358.51V359.242C205.907 359.945 205.907 360.668 205.663 361.566L204.755 361.469C204.989 360.575 204.989 359.931 204.989 359.252H199.872V358.51H205.907ZM206.904 362.104V362.855H198.945V362.104H202.138V360.463H203.046V362.104H206.904ZM214.553 358.08V366.83H213.615V358.08H214.553ZM211.945 359.018C211.945 361.576 210.852 363.803 207.854 365.238L207.365 364.486C209.694 363.378 210.827 361.801 211.008 359.76H207.785V359.018H211.945ZM220.493 358.744V359.232C220.483 359.818 220.483 360.688 220.268 361.82L219.35 361.732C219.541 360.761 219.57 360.058 219.585 359.506H216.079V358.744H220.493ZM218.257 360.707V362.514C219.194 362.484 220.161 362.416 221.04 362.289L221.098 362.963C219.272 363.285 217.182 363.314 215.639 363.324L215.552 362.572C216.089 362.567 216.699 362.562 217.339 362.543V360.707H218.257ZM222.544 358.08V360.863H223.745V361.645H222.544V364.652H221.596V358.08H222.544ZM222.827 365.893V366.645H216.88V364.057H217.807V365.893H222.827ZM231.492 358.08V366.83H230.603V358.08H231.492ZM229.714 358.246V366.4H228.826V362.182H227.839C227.761 363.891 227.029 364.955 225.945 364.945C224.802 364.955 224.06 363.754 224.06 361.859C224.06 359.965 224.802 358.773 225.945 358.783C227.009 358.773 227.732 359.784 227.839 361.43H228.826V358.246H229.714ZM225.945 359.652C225.31 359.652 224.92 360.463 224.92 361.859C224.92 363.256 225.31 364.066 225.945 364.066C226.589 364.066 226.99 363.256 226.99 361.859C226.99 360.463 226.589 359.652 225.945 359.652ZM237.581 359.633C237.581 360.736 238.372 361.82 239.691 362.27L239.212 362.992C238.231 362.65 237.503 361.952 237.122 361.088C236.741 362.05 235.975 362.821 234.935 363.188L234.456 362.455C235.804 361.996 236.634 360.824 236.634 359.643V359.398H234.739V358.646H239.456V359.398H237.581V359.633ZM241.741 363.754V366.83H240.814V364.506H235.814V363.754H241.741ZM241.741 358.08V363.314H240.814V361.068H239.193V360.307H240.814V358.08H241.741ZM249.664 358.08V360.277H250.934V361.059H249.664V363.178H248.736V358.08H249.664ZM244.986 363.539V364.389H248.736V363.539H249.664V366.723H244.068V363.539H244.986ZM244.986 365.98H248.736V365.111H244.986V365.98ZM248.014 358.939V359.682H242.799V358.939H244.947V358.002H245.875V358.939H248.014ZM245.406 360.043C246.666 360.043 247.525 360.639 247.525 361.576C247.525 362.504 246.666 363.119 245.406 363.109C244.127 363.119 243.277 362.504 243.277 361.576C243.277 360.639 244.127 360.043 245.406 360.043ZM245.406 360.736C244.664 360.727 244.166 361.068 244.176 361.576C244.166 362.094 244.664 362.426 245.406 362.426C246.148 362.426 246.646 362.094 246.656 361.576C246.646 361.068 246.148 360.727 245.406 360.736ZM258.007 358.09V360.902H259.276V361.674H258.007V364.633H257.079V358.09H258.007ZM256.356 359.105V359.857H251.141V359.105H253.29V358.08H254.218V359.105H256.356ZM253.749 360.277C255.009 360.277 255.868 360.932 255.868 361.928C255.868 362.924 255.009 363.568 253.749 363.568C252.479 363.568 251.62 362.924 251.62 361.928C251.62 360.932 252.479 360.277 253.749 360.277ZM253.749 360.99C253.007 360.99 252.509 361.352 252.518 361.928C252.509 362.494 253.007 362.846 253.749 362.846C254.491 362.846 254.989 362.494 254.999 361.928C254.989 361.352 254.491 360.99 253.749 360.99ZM258.378 365.893V366.645H252.46V364.115H253.387V365.893H258.378ZM263.549 363.07V364.164H267.68V363.07H268.588V366.723H262.631V363.07H263.549ZM263.549 365.961H267.68V364.887H263.549V365.961ZM268.608 358.461V359.125C268.608 359.794 268.608 360.546 268.383 361.605H269.623V362.357H261.616V361.605H267.475C267.68 360.6 267.69 359.862 267.69 359.223H262.621V358.461H268.608ZM274.441 358.852C274.431 360.014 275.857 361.107 277.575 361.332L277.214 362.094C275.783 361.864 274.524 361.122 273.962 360.092C273.386 361.127 272.131 361.864 270.71 362.094L270.339 361.332C272.058 361.107 273.464 360.023 273.474 358.852V358.373H274.441V358.852ZM277.937 362.953V363.715H274.382V366.83H273.474V363.715H269.958V362.953H277.937ZM285.061 358.637V362.23H280.901V358.637H285.061ZM281.809 359.379V361.508H284.143V359.379H281.809ZM287.688 358.08V363.08H286.77V358.08H287.688ZM287.893 363.646V364.35H285.335C285.398 365.111 286.614 365.907 288.206 366.088L287.893 366.801C286.521 366.64 285.393 366.049 284.866 365.277C284.329 366.059 283.177 366.63 281.8 366.801L281.477 366.088C283.069 365.937 284.314 365.131 284.378 364.35H281.829V363.646H284.397V362.826H285.315V363.646H287.893ZM298.504 359.311V360.062H291.307V359.311H294.452V358.207H295.37V359.311H298.504ZM298.934 365.092V365.844H290.926V365.092H294.452V363.93C292.918 363.837 291.991 363.231 291.991 362.26C291.991 361.205 293.104 360.59 294.911 360.59C296.698 360.59 297.821 361.205 297.821 362.26C297.821 363.231 296.888 363.837 295.37 363.93V365.092H298.934ZM294.911 361.322C293.661 361.322 292.928 361.654 292.938 362.26C292.928 362.865 293.661 363.197 294.911 363.207C296.141 363.197 296.873 362.865 296.873 362.26C296.873 361.654 296.141 361.322 294.911 361.322ZM307.247 362.406V363.168H299.269V362.406H302.794V361.557H300.314V358.314H301.232V359.223H305.284V358.314H306.212V361.557H303.712V362.406H307.247ZM303.253 363.734C305.138 363.734 306.271 364.291 306.28 365.277C306.271 366.273 305.138 366.82 303.253 366.811C301.349 366.82 300.226 366.273 300.226 365.277C300.226 364.291 301.349 363.734 303.253 363.734ZM303.253 364.447C301.915 364.447 301.154 364.74 301.154 365.277C301.154 365.814 301.915 366.107 303.253 366.098C304.571 366.107 305.333 365.814 305.333 365.277C305.333 364.74 304.571 364.447 303.253 364.447ZM301.232 360.824H305.284V359.936H301.232V360.824ZM314.896 358.08V362.631H313.979V361.586H312.064V362.309H308.031V358.48H308.959V359.662H311.146V358.48H312.064V359.281H313.979V358.08H314.896ZM314.896 363.021V365.17H310.121V365.98H315.209V366.723H309.193V364.477H313.979V363.744H309.174V363.021H314.896ZM308.959 361.566H311.146V360.375H308.959V361.566ZM312.064 360.873H313.979V359.994H312.064V360.873ZM325.351 358.09V363.07H324.423V358.09H325.351ZM325.351 363.51V366.723H319.599V363.51H325.351ZM320.517 364.252V365.971H324.443V364.252H320.517ZM320.605 358.529C321.943 358.529 322.929 359.369 322.929 360.6C322.929 361.801 321.943 362.65 320.605 362.65C319.267 362.65 318.271 361.801 318.271 360.6C318.271 359.369 319.267 358.529 320.605 358.529ZM320.605 359.311C319.775 359.311 319.179 359.818 319.179 360.6C319.179 361.352 319.775 361.869 320.605 361.869C321.425 361.869 322.021 361.352 322.021 360.6C322.021 359.818 321.425 359.311 320.605 359.311ZM333.43 358.52V359.184C333.43 359.872 333.43 360.653 333.205 361.713H334.446V362.475H326.438V361.713H332.268C332.502 360.692 332.512 359.945 332.512 359.281H327.444V358.52H333.43ZM333.44 363.588V366.723H327.414V363.588H333.44ZM328.323 364.32V365.971H332.522V364.32H328.323ZM344.217 358.08V362.582H343.289V360.336H341.443V359.584H343.289V358.08H344.217ZM344.217 362.992V365.17H339.422V365.98H344.52V366.723H338.514V364.467H343.299V363.725H338.494V362.992H344.217ZM339.998 359.125C339.998 360.238 340.799 361.273 342.117 361.693L341.629 362.416C340.667 362.084 339.939 361.425 339.559 360.59C339.173 361.527 338.421 362.265 337.391 362.621L336.893 361.879C338.26 361.439 339.07 360.355 339.08 359.125V358.363H339.998V359.125ZM352.559 358.08V363.285H351.632V361.068H350.001V360.307H351.632V358.08H352.559ZM349.63 363.529C351.466 363.529 352.589 364.135 352.589 365.18C352.589 366.225 351.466 366.82 349.63 366.83C347.794 366.82 346.661 366.225 346.671 365.18C346.661 364.135 347.794 363.529 349.63 363.529ZM349.63 364.252C348.35 364.252 347.589 364.584 347.589 365.18C347.589 365.766 348.35 366.107 349.63 366.098C350.909 366.107 351.671 365.766 351.671 365.18C351.671 364.584 350.909 364.252 349.63 364.252ZM348.399 359.623C348.399 360.736 349.19 361.811 350.509 362.26L350.03 362.992C349.049 362.65 348.326 361.952 347.95 361.088C347.564 362.069 346.798 362.855 345.753 363.236L345.264 362.494C346.622 362.025 347.452 360.844 347.452 359.633V359.438H345.557V358.686H350.274V359.438H348.399V359.623ZM356.009 363.305C356 365.15 355.482 366.684 354.564 367.992H353.607C354.281 367.016 354.925 365.053 354.925 363.305C354.925 361.566 354.281 359.594 353.607 358.627H354.564C355.482 359.936 356 361.469 356.009 363.305Z" fill="black"/>
<rect x="115" y="288" width="16" height="16" rx="8" fill="#00AEAE"/>
<g filter="url(#filter0_d_283_1420)">
<circle cx="123" cy="296" r="3" fill="white"/>
</g>
<circle cx="123" cy="318" r="7.5" fill="white" stroke="#DDDDDD"/>
<circle cx="123" cy="340" r="7.5" fill="white" stroke="#DDDDDD"/>
<circle cx="123" cy="362" r="7.5" fill="white" stroke="#DDDDDD"/>
<g clip-path="url(#clip1_283_1420)">
<rect x="115" y="394" width="344" height="40" rx="6" fill="#E3E6F5"/>
<path d="M139.598 409.08V417.83H138.66V409.08H139.598ZM136.99 410.018C136.99 412.576 135.896 414.803 132.898 416.238L132.41 415.486C134.739 414.378 135.872 412.801 136.053 410.76H132.83V410.018H136.99ZM142.628 409.412V410.447H146.68V409.412H147.608V412.947H145.108V413.807H148.643V414.568H140.665V413.807H144.19V412.947H141.71V409.412H142.628ZM142.628 412.195H146.68V411.17H142.628V412.195ZM147.745 416.893V417.645H141.671V415.193H142.608V416.893H147.745ZM150.941 414.07V415.164H155.072V414.07H155.98V417.723H150.023V414.07H150.941ZM150.941 416.961H155.072V415.887H150.941V416.961ZM156 409.461V410.125C156 410.794 156 411.546 155.775 412.605H157.015V413.357H149.007V412.605H154.867C155.072 411.6 155.082 410.862 155.082 410.223H150.013V409.461H156Z" fill="black"/>
<rect x="178.417" y="402.417" width="295.166" height="23.1656" rx="3.5828" fill="white"/>
<rect x="178.417" y="402.417" width="295.166" height="23.1656" rx="3.5828" stroke="#DDDDDD" stroke-width="0.83441"/>
</g>
<rect x="115" y="440" width="344" height="89" rx="6" fill="#E3E6F5"/>
<path d="M136.355 466.322C134.236 466.322 132.508 464.594 132.508 462.465C132.508 460.336 134.236 458.607 136.355 458.607C138.484 458.607 140.213 460.336 140.213 462.465C140.213 464.594 138.484 466.322 136.355 466.322ZM136.355 465.57C138.064 465.57 139.471 464.174 139.471 462.465C139.471 460.756 138.064 459.359 136.355 459.359C134.646 459.359 133.25 460.756 133.25 462.465C133.25 464.174 134.646 465.57 136.355 465.57ZM136.961 460.746V464.193H136.277V461.391H136.248L135.467 461.898V461.293L136.326 460.746H136.961ZM150.414 458.109V466.791H149.671V458.109H150.414ZM148.685 458.295V466.352H147.953V463.5H146.566C146.263 464.369 145.687 464.877 144.945 464.877C143.812 464.877 143.08 463.705 143.08 461.859C143.08 460.014 143.812 458.842 144.945 458.842C145.687 458.842 146.263 459.35 146.566 460.219H147.953V458.295H148.685ZM144.945 459.564C144.232 459.564 143.793 460.443 143.793 461.859C143.793 463.266 144.232 464.154 144.945 464.145C145.648 464.154 146.107 463.266 146.107 461.859C146.107 460.443 145.648 459.564 144.945 459.564ZM146.732 460.854C146.791 461.161 146.82 461.498 146.82 461.859C146.82 462.216 146.791 462.553 146.742 462.855H147.953V460.854H146.732ZM154.215 459.516C154.215 460.697 155.114 461.781 156.373 462.211L155.954 462.816C154.992 462.465 154.235 461.747 153.854 460.844C153.483 461.864 152.711 462.67 151.696 463.061L151.286 462.445C152.584 461.957 153.454 460.795 153.463 459.457V458.559H154.215V459.516ZM158.102 458.109V460.375H159.411V461.02H158.102V463.393H157.34V458.109H158.102ZM155.319 463.617C157.106 463.617 158.18 464.193 158.18 465.189C158.18 466.205 157.106 466.771 155.319 466.771C153.532 466.771 152.438 466.205 152.438 465.189C152.438 464.193 153.532 463.617 155.319 463.617ZM155.319 464.232C154.01 464.232 153.2 464.594 153.209 465.189C153.2 465.805 154.01 466.156 155.319 466.166C156.637 466.156 157.438 465.805 157.438 465.189C157.438 464.594 156.637 464.232 155.319 464.232ZM166.855 458.119V464.535H166.083V462.191H163.837C163.437 462.704 162.792 463.012 162.05 463.012C160.751 463.012 159.794 462.113 159.794 460.844C159.794 459.574 160.751 458.676 162.05 458.666C162.787 458.671 163.417 458.974 163.827 459.477H166.083V458.119H166.855ZM167.099 465.961V466.605H161.279V463.861H162.05V465.961H167.099ZM162.05 459.35C161.161 459.359 160.527 459.975 160.527 460.844C160.527 461.713 161.161 462.328 162.05 462.328C162.9 462.328 163.554 461.713 163.554 460.844C163.554 459.975 162.9 459.359 162.05 459.35ZM164.179 460.111C164.252 460.336 164.296 460.58 164.296 460.844C164.296 461.098 164.252 461.337 164.179 461.557H166.083V460.111H164.179ZM175.91 462.465V463.1H168V462.465H171.574V461.527H169.055V458.344H169.816V459.32H174.113V458.344H174.875V461.527H172.336V462.465H175.91ZM171.955 463.744C173.82 463.744 174.934 464.291 174.943 465.258C174.934 466.234 173.82 466.771 171.955 466.771C170.07 466.771 168.957 466.234 168.957 465.258C168.957 464.291 170.07 463.744 171.955 463.744ZM171.955 464.34C170.559 464.34 169.738 464.672 169.738 465.258C169.738 465.844 170.559 466.176 171.955 466.176C173.332 466.176 174.162 465.844 174.162 465.258C174.162 464.672 173.332 464.34 171.955 464.34ZM169.816 460.922H174.113V459.926H169.816V460.922ZM179.47 465.062C179.129 465.062 178.836 464.779 178.845 464.428C178.836 464.086 179.129 463.803 179.47 463.803C179.812 463.803 180.095 464.086 180.095 464.428C180.095 464.779 179.812 465.062 179.47 465.062ZM179.47 461.137C179.129 461.137 178.836 460.854 178.845 460.502C178.836 460.16 179.129 459.877 179.47 459.877C179.812 459.877 180.095 460.16 180.095 460.502C180.095 460.854 179.812 461.137 179.47 461.137ZM183.538 463.305C183.548 461.459 184.046 459.926 184.945 458.627H185.687C185.023 459.594 184.407 461.566 184.407 463.305C184.407 465.043 185.023 467.025 185.687 467.992H184.945C184.046 466.684 183.548 465.15 183.538 463.305ZM191.405 460.443C191.395 462.025 192.479 463.627 193.759 464.203L193.29 464.809C192.304 464.325 191.449 463.305 191.034 462.064C190.629 463.378 189.774 464.472 188.759 464.984L188.27 464.34C189.559 463.744 190.634 462.094 190.643 460.443V458.861H191.405V460.443ZM195.477 458.109V466.811H194.706V458.109H195.477ZM198.459 463.08V464.232H202.804V463.08H203.566V466.674H197.697V463.08H198.459ZM198.459 466.049H202.804V464.838H198.459V466.049ZM203.566 458.51V459.145C203.566 459.809 203.566 460.58 203.332 461.664H204.611V462.299H196.662V461.664H202.58C202.804 460.585 202.804 459.809 202.804 459.145H197.668V458.51H203.566Z" fill="black"/>
<path d="M267.51 458.119V464.711H266.738V463.812H264.941V463.256H266.738V458.119H267.51ZM267.725 465.961V466.605H261.553V464.066H262.324V465.961H267.725ZM260.303 462.143C261.924 462.133 264.092 462.123 265.957 461.889L266.006 462.445C265.229 462.567 264.419 462.646 263.623 462.689V464.408H262.852V462.729C261.973 462.768 261.138 462.772 260.41 462.768L260.303 462.143ZM263.154 458.471C264.424 458.471 265.293 459.076 265.303 459.984C265.293 460.912 264.424 461.488 263.154 461.488C261.875 461.488 261.006 460.912 261.006 459.984C261.006 459.076 261.875 458.471 263.154 458.471ZM263.154 459.057C262.305 459.047 261.729 459.428 261.738 459.984C261.729 460.551 262.305 460.922 263.154 460.922C263.975 460.922 264.561 460.551 264.57 459.984C264.561 459.428 263.975 459.047 263.154 459.057ZM273.072 463.305C273.062 465.15 272.564 466.684 271.666 467.992H270.923C271.587 467.025 272.203 465.043 272.203 463.305C272.203 461.566 271.587 459.594 270.923 458.627H271.666C272.564 459.926 273.062 461.459 273.072 463.305ZM277.179 460.697L278.429 462.855L279.689 460.697H280.655L278.946 463.344L280.655 466H279.698L278.429 463.949L277.179 466H276.212L277.882 463.344L276.212 460.697H277.179ZM283.796 463.305C283.805 461.459 284.304 459.926 285.202 458.627H285.944C285.28 459.594 284.665 461.566 284.665 463.305C284.665 465.043 285.28 467.025 285.944 467.992H285.202C284.304 466.684 283.805 465.15 283.796 463.305ZM291.038 458.432C292.336 458.441 293.284 459.223 293.284 460.355C293.284 461.488 292.336 462.27 291.038 462.27C289.719 462.27 288.782 461.488 288.782 460.355C288.782 459.223 289.719 458.441 291.038 458.432ZM291.038 459.076C290.168 459.076 289.524 459.604 289.534 460.355C289.524 461.117 290.168 461.645 291.038 461.645C291.897 461.645 292.541 461.117 292.541 460.355C292.541 459.604 291.897 459.076 291.038 459.076ZM295.745 458.109V462.572H294.983V458.109H295.745ZM295.745 462.992V465.082H290.871V466.059H296.057V466.674H290.12V464.506H294.983V463.607H290.1V462.992H295.745Z" fill="black"/>
<path d="M355.438 460.443C355.428 462.025 356.512 463.627 357.791 464.203L357.322 464.809C356.336 464.325 355.481 463.305 355.066 462.064C354.661 463.378 353.807 464.472 352.791 464.984L352.303 464.34C353.592 463.744 354.666 462.094 354.676 460.443V458.861H355.438V460.443ZM359.51 458.109V466.811H358.738V458.109H359.51ZM367.481 458.109V460.756H368.79V461.4H367.481V464.467H366.71V458.109H367.481ZM365.137 458.783C365.137 461.02 363.536 462.68 361.036 463.461L360.704 462.846C362.784 462.196 364.141 460.956 364.307 459.428H361.065V458.783H365.137ZM367.882 465.961V466.605H362.042V463.822H362.804V465.961H367.882ZM373.414 463.305C373.405 465.15 372.907 466.684 372.008 467.992H371.266C371.93 467.025 372.545 465.043 372.545 463.305C372.545 461.566 371.93 459.594 371.266 458.627H372.008C372.907 459.926 373.405 461.459 373.414 463.305ZM377.521 460.697L378.771 462.855L380.031 460.697H380.998L379.289 463.344L380.998 466H380.041L378.771 463.949L377.521 466H376.555L378.225 463.344L376.555 460.697H377.521ZM384.138 463.305C384.148 461.459 384.646 459.926 385.545 458.627H386.287C385.623 459.594 385.007 461.566 385.007 463.305C385.007 465.043 385.623 467.025 386.287 467.992H385.545C384.646 466.684 384.148 465.15 384.138 463.305ZM393.304 459.34C393.294 460.502 394.847 461.488 396.361 461.713L396.077 462.318C394.72 462.089 393.402 461.366 392.874 460.316C392.347 461.366 391.024 462.089 389.691 462.318L389.388 461.713C390.892 461.488 392.445 460.502 392.445 459.34V459.281H389.661V458.656H396.077V459.281H393.304V459.34ZM396.829 463.061V463.695H393.236V466.791H392.484V463.695H388.919V463.061H396.829Z" fill="black"/>
<path d="M136.355 494.322C134.236 494.322 132.508 492.594 132.508 490.465C132.508 488.336 134.236 486.607 136.355 486.607C138.484 486.607 140.213 488.336 140.213 490.465C140.213 492.594 138.484 494.322 136.355 494.322ZM136.355 493.57C138.064 493.57 139.471 492.174 139.471 490.465C139.471 488.756 138.064 487.359 136.355 487.359C134.646 487.359 133.25 488.756 133.25 490.465C133.25 492.174 134.646 493.57 136.355 493.57ZM135.154 492.164V491.676L136.385 490.514C136.717 490.191 136.893 490.006 136.893 489.723C136.893 489.41 136.648 489.215 136.326 489.215C135.994 489.215 135.779 489.42 135.779 489.762H135.125C135.125 489.098 135.623 488.668 136.336 488.668C137.059 488.668 137.547 489.088 137.547 489.674C137.547 490.074 137.352 490.387 136.648 491.031L136.102 491.578V491.607H137.596V492.164H135.154ZM147.357 487.34C147.347 488.502 148.9 489.488 150.414 489.713L150.13 490.318C148.773 490.089 147.455 489.366 146.927 488.316C146.4 489.366 145.077 490.089 143.744 490.318L143.441 489.713C144.945 489.488 146.498 488.502 146.498 487.34V487.281H143.714V486.656H150.13V487.281H147.357V487.34ZM150.882 491.061V491.695H147.289V494.791H146.537V491.695H142.972V491.061H150.882ZM158.766 487.076V487.701H151.725V487.076H154.889V486.061H155.641V487.076H158.766ZM159.264 491.656V492.291H157.164V494.811H156.403V492.291H154.157V494.811H153.385V492.291H151.315V491.656H159.264ZM155.27 488.199C157.038 488.199 158.102 488.707 158.102 489.635C158.102 490.553 157.038 491.07 155.27 491.07C153.493 491.07 152.428 490.553 152.438 489.635C152.428 488.707 153.493 488.199 155.27 488.199ZM155.27 488.785C153.971 488.795 153.219 489.098 153.229 489.635C153.219 490.172 153.971 490.475 155.27 490.475C156.549 490.475 157.301 490.172 157.311 489.635C157.301 489.098 156.549 488.795 155.27 488.785ZM164.013 486.92C164.013 488.141 165.614 489.205 167.177 489.42L166.864 490.045C165.517 489.82 164.184 489.073 163.622 488.004C163.066 489.078 161.728 489.82 160.38 490.045L160.068 489.42C161.63 489.205 163.222 488.16 163.222 486.92V486.422H164.013V486.92ZM167.568 491.002V491.646H163.974V494.791H163.222V491.646H159.657V491.002H167.568ZM174.797 486.109V488.375H176.096V489.02H174.797V491.295H174.025V486.109H174.797ZM172.004 491.461C173.771 491.461 174.865 492.076 174.865 493.111C174.865 494.166 173.771 494.771 172.004 494.771C170.227 494.771 169.123 494.166 169.123 493.111C169.123 492.076 170.227 491.461 172.004 491.461ZM172.004 492.096C170.695 492.086 169.875 492.477 169.875 493.111C169.875 493.756 170.695 494.156 172.004 494.156C173.303 494.156 174.123 493.756 174.123 493.111C174.123 492.477 173.303 492.086 172.004 492.096ZM172.258 486.773V487.408H169.152V489.957C170.91 489.947 171.926 489.894 173.088 489.654L173.166 490.289C171.955 490.533 170.91 490.582 169.074 490.582H168.4V486.773H172.258ZM179.47 493.062C179.129 493.062 178.836 492.779 178.845 492.428C178.836 492.086 179.129 491.803 179.47 491.803C179.812 491.803 180.095 492.086 180.095 492.428C180.095 492.779 179.812 493.062 179.47 493.062ZM179.47 489.137C179.129 489.137 178.836 488.854 178.845 488.502C178.836 488.16 179.129 487.877 179.47 487.877C179.812 487.877 180.095 488.16 180.095 488.502C180.095 488.854 179.812 489.137 179.47 489.137ZM187.386 487.34C187.376 488.502 188.929 489.488 190.443 489.713L190.159 490.318C188.802 490.089 187.484 489.366 186.956 488.316C186.429 489.366 185.106 490.089 183.773 490.318L183.47 489.713C184.974 489.488 186.527 488.502 186.527 487.34V487.281H183.743V486.656H190.159V487.281H187.386V487.34ZM190.911 491.061V491.695H187.318V494.791H186.566V491.695H183.001V491.061H190.911ZM196.366 486.93V494H195.477V487.848H195.438L193.72 488.99V488.102L195.477 486.93H196.366ZM200.255 494.098C198.976 494.098 198.009 493.307 197.961 492.223H198.81C198.879 492.857 199.494 493.326 200.255 493.326C201.173 493.326 201.838 492.652 201.838 491.764C201.838 490.846 201.144 490.172 200.197 490.162C199.601 490.152 199.142 490.338 198.879 490.797H198.029L198.527 486.93H202.355V487.711H199.259L198.996 489.781H199.064C199.377 489.537 199.855 489.371 200.353 489.371C201.701 489.371 202.697 490.367 202.697 491.744C202.697 493.111 201.662 494.098 200.255 494.098ZM206.391 488.443C206.381 490.025 207.465 491.627 208.745 492.203L208.276 492.809C207.289 492.325 206.435 491.305 206.02 490.064C205.615 491.378 204.76 492.472 203.745 492.984L203.256 492.34C204.545 491.744 205.62 490.094 205.629 488.443V486.861H206.391V488.443ZM210.463 486.109V494.811H209.692V486.109H210.463ZM218.435 486.109V488.756H219.743V489.4H218.435V492.467H217.663V486.109H218.435ZM216.091 486.783C216.091 489.02 214.489 490.68 211.989 491.461L211.657 490.846C213.738 490.196 215.095 488.956 215.261 487.428H212.019V486.783H216.091ZM218.835 493.961V494.605H212.995V491.822H213.757V493.961H218.835ZM229.358 486.109V494.811H228.587V486.109H229.358ZM224.739 486.783C226.028 486.793 226.956 487.965 226.956 489.811C226.956 491.656 226.028 492.828 224.739 492.828C223.44 492.828 222.522 491.656 222.522 489.811C222.522 487.965 223.44 486.793 224.739 486.783ZM224.739 487.467C223.87 487.477 223.264 488.395 223.264 489.811C223.264 491.227 223.87 492.145 224.739 492.145C225.608 492.145 226.214 491.227 226.214 489.811C226.214 488.395 225.608 487.477 224.739 487.467ZM233.443 487.516C233.443 488.697 234.341 489.781 235.601 490.211L235.181 490.816C234.219 490.465 233.463 489.747 233.082 488.844C232.711 489.864 231.939 490.67 230.923 491.061L230.513 490.445C231.812 489.957 232.681 488.795 232.691 487.457V486.559H233.443V487.516ZM237.33 486.109V488.375H238.638V489.02H237.33V491.393H236.568V486.109H237.33ZM234.546 491.617C236.334 491.617 237.408 492.193 237.408 493.189C237.408 494.205 236.334 494.771 234.546 494.771C232.759 494.771 231.666 494.205 231.666 493.189C231.666 492.193 232.759 491.617 234.546 491.617ZM234.546 492.232C233.238 492.232 232.427 492.594 232.437 493.189C232.427 493.805 233.238 494.156 234.546 494.166C235.865 494.156 236.666 493.805 236.666 493.189C236.666 492.594 235.865 492.232 234.546 492.232ZM247.999 486.637V487.311C247.999 488.038 247.999 488.922 247.775 490.104H249.044V490.748H241.095V490.104H247.003C247.238 488.902 247.238 488.053 247.238 487.311V487.262H242.101V486.637H247.999ZM248.263 493.951V494.596H242.15V491.725H242.911V493.951H248.263ZM257.377 491.158V491.793H253.754V494.791H253.002V491.793H249.428V491.158H257.377ZM256.342 486.598V489.977H250.453V486.598H256.342ZM251.205 487.223V489.371H255.58V487.223H251.205ZM263.076 488.443C263.066 490.025 264.15 491.627 265.429 492.203L264.961 492.809C263.974 492.325 263.12 491.305 262.705 490.064C262.299 491.378 261.445 492.472 260.429 492.984L259.941 492.34C261.23 491.744 262.304 490.094 262.314 488.443V486.861H263.076V488.443ZM267.148 486.109V494.811H266.377V486.109H267.148ZM273.482 488.775C273.472 490.172 274.478 491.705 275.738 492.301L275.298 492.906C274.321 492.433 273.496 491.397 273.111 490.221C272.71 491.5 271.836 492.623 270.864 493.121L270.396 492.516C271.646 491.91 272.72 490.26 272.73 488.775V487.643H270.708V487.008H275.435V487.643H273.482V488.775ZM277.261 486.109V489.625H278.716V490.279H277.261V494.791H276.499V486.109H277.261ZM286.805 490.406V491.021H278.885V490.406H282.469V489.391H279.891V486.52H285.818V487.135H280.643V488.766H285.877V489.391H283.211V490.406H286.805ZM282.84 491.656C284.705 491.656 285.818 492.223 285.828 493.219C285.818 494.225 284.705 494.781 282.84 494.791C280.965 494.781 279.842 494.225 279.842 493.219C279.842 492.223 280.965 491.656 282.84 491.656ZM282.84 492.262C281.443 492.262 280.613 492.623 280.623 493.219C280.613 493.824 281.443 494.176 282.84 494.176C284.217 494.176 285.057 493.824 285.057 493.219C285.057 492.623 284.217 492.262 282.84 492.262ZM292.455 487.711C292.455 488.844 293.324 489.918 294.593 490.357L294.193 490.963C293.212 490.611 292.455 489.884 292.084 488.99C291.708 489.991 290.907 490.792 289.877 491.168L289.476 490.562C290.755 490.104 291.683 488.941 291.683 487.721V487.34H289.72V486.715H294.398V487.34H292.455V487.711ZM296.634 491.773V494.791H295.863V492.408H290.795V491.773H296.634ZM296.634 486.109V491.314H295.863V489.029H294.125V488.385H295.863V486.109H296.634ZM305.69 490.406V491.041H297.78V490.406H299.743V489.186C299.049 488.917 298.659 488.473 298.659 487.887C298.659 486.861 299.83 486.275 301.735 486.275C303.62 486.275 304.801 486.861 304.801 487.887C304.801 488.468 304.415 488.912 303.727 489.176V490.406H305.69ZM301.735 491.705C303.6 491.705 304.713 492.242 304.723 493.238C304.713 494.225 303.6 494.771 301.735 494.771C299.85 494.771 298.737 494.225 298.737 493.238C298.737 492.242 299.85 491.705 301.735 491.705ZM301.735 492.291C300.338 492.301 299.508 492.643 299.518 493.238C299.508 493.824 300.338 494.176 301.735 494.176C303.112 494.176 303.952 493.824 303.952 493.238C303.952 492.643 303.112 492.301 301.735 492.291ZM301.735 486.881C300.319 486.881 299.44 487.262 299.45 487.887C299.44 488.521 300.319 488.893 301.735 488.893C303.141 488.893 304.02 488.521 304.02 487.887C304.02 487.262 303.141 486.881 301.735 486.881ZM300.504 490.406H302.965V489.391C302.599 489.454 302.189 489.488 301.735 489.488C301.281 489.488 300.871 489.454 300.504 489.391V490.406ZM307.548 493.346L306.786 496.002H306.064L306.601 493.346H307.548ZM314.975 487.34C314.966 488.502 316.518 489.488 318.032 489.713L317.749 490.318C316.391 490.089 315.073 489.366 314.546 488.316C314.018 489.366 312.695 490.089 311.362 490.318L311.059 489.713C312.563 489.488 314.116 488.502 314.116 487.34V487.281H311.333V486.656H317.749V487.281H314.975V487.34ZM318.501 491.061V491.695H314.907V494.791H314.155V491.695H310.591V491.061H318.501ZM323.955 486.93V494H323.067V487.848H323.028L321.309 488.99V488.102L323.067 486.93H323.955ZM327.845 494.098C326.566 494.098 325.599 493.307 325.55 492.223H326.4C326.468 492.857 327.083 493.326 327.845 493.326C328.763 493.326 329.427 492.652 329.427 491.764C329.427 490.846 328.734 490.172 327.786 490.162C327.191 490.152 326.732 490.338 326.468 490.797H325.618L326.116 486.93H329.945V487.711H326.849L326.585 489.781H326.654C326.966 489.537 327.445 489.371 327.943 489.371C329.29 489.371 330.286 490.367 330.286 491.744C330.286 493.111 329.251 494.098 327.845 494.098ZM333.98 488.443C333.971 490.025 335.055 491.627 336.334 492.203L335.865 492.809C334.879 492.325 334.024 491.305 333.609 490.064C333.204 491.378 332.35 492.472 331.334 492.984L330.846 492.34C332.135 491.744 333.209 490.094 333.219 488.443V486.861H333.98V488.443ZM338.053 486.109V494.811H337.281V486.109H338.053ZM346.024 486.109V488.756H347.333V489.4H346.024V492.467H345.253V486.109H346.024ZM343.68 486.783C343.68 489.02 342.079 490.68 339.579 491.461L339.247 490.846C341.327 490.196 342.684 488.956 342.85 487.428H339.608V486.783H343.68ZM346.425 493.961V494.605H340.585V491.822H341.346V493.961H346.425ZM354.311 486.969V492.613H350.297V486.969H354.311ZM351.049 487.584V491.988H353.559V487.584H351.049ZM356.948 486.109V494.811H356.176V486.109H356.948ZM362.517 486.9V490.895H358.503V486.9H362.517ZM359.255 487.525V490.279H361.775V487.525H359.255ZM364.919 486.109V488.756H366.228V489.4H364.919V492.477H364.157V486.109H364.919ZM365.32 493.961V494.605H359.489V491.871H360.241V493.961H365.32ZM375.589 486.637V487.311C375.589 488.038 375.589 488.922 375.364 490.104H376.634V490.748H368.684V490.104H374.593C374.827 488.902 374.827 488.053 374.827 487.311V487.262H369.69V486.637H375.589ZM375.852 493.951V494.596H369.739V491.725H370.501V493.951H375.852ZM384.966 491.158V491.793H381.343V494.791H380.591V491.793H377.017V491.158H384.966ZM383.931 486.598V489.977H378.043V486.598H383.931ZM378.795 487.223V489.371H383.17V487.223H378.795ZM390.665 488.443C390.655 490.025 391.739 491.627 393.019 492.203L392.55 492.809C391.564 492.325 390.709 491.305 390.294 490.064C389.889 491.378 389.034 492.472 388.019 492.984L387.53 492.34C388.82 491.744 389.894 490.094 389.904 488.443V486.861H390.665V488.443ZM394.738 486.109V494.811H393.966V486.109H394.738ZM402.653 486.969V492.613H398.639V486.969H402.653ZM399.391 487.584V491.988H401.901V487.584H399.391ZM405.29 486.109V494.811H404.518V486.109H405.29ZM409.492 487.711C409.492 488.844 410.361 489.918 411.63 490.357L411.23 490.963C410.249 490.611 409.492 489.884 409.121 488.99C408.745 489.991 407.944 490.792 406.914 491.168L406.513 490.562C407.793 490.104 408.72 488.941 408.72 487.721V487.34H406.757V486.715H411.435V487.34H409.492V487.711ZM413.671 491.773V494.791H412.9V492.408H407.832V491.773H413.671ZM413.671 486.109V491.314H412.9V489.029H411.162V488.385H412.9V486.109H413.671ZM422.727 490.406V491.041H414.817V490.406H416.78V489.186C416.086 488.917 415.696 488.473 415.696 487.887C415.696 486.861 416.868 486.275 418.772 486.275C420.657 486.275 421.838 486.861 421.838 487.887C421.838 488.468 421.453 488.912 420.764 489.176V490.406H422.727ZM418.772 491.705C420.637 491.705 421.75 492.242 421.76 493.238C421.75 494.225 420.637 494.771 418.772 494.771C416.887 494.771 415.774 494.225 415.774 493.238C415.774 492.242 416.887 491.705 418.772 491.705ZM418.772 492.291C417.375 492.301 416.545 492.643 416.555 493.238C416.545 493.824 417.375 494.176 418.772 494.176C420.149 494.176 420.989 493.824 420.989 493.238C420.989 492.643 420.149 492.301 418.772 492.291ZM418.772 486.881C417.356 486.881 416.477 487.262 416.487 487.887C416.477 488.521 417.356 488.893 418.772 488.893C420.178 488.893 421.057 488.521 421.057 487.887C421.057 487.262 420.178 486.881 418.772 486.881ZM417.541 490.406H420.002V489.391C419.636 489.454 419.226 489.488 418.772 489.488C418.318 489.488 417.908 489.454 417.541 489.391V490.406Z" fill="black"/>
<rect x="210.417" y="450.417" width="45.1656" height="23.1656" rx="3.5828" fill="white"/>
<rect x="210.417" y="450.417" width="45.1656" height="23.1656" rx="3.5828" stroke="#DDDDDD" stroke-width="0.83441"/>
<rect x="302.417" y="450.417" width="45.1656" height="23.1656" rx="3.5828" fill="white"/>
<rect x="302.417" y="450.417" width="45.1656" height="23.1656" rx="3.5828" stroke="#DDDDDD" stroke-width="0.83441"/>
<rect x="402.417" y="450.417" width="45.1656" height="23.1656" rx="3.5828" fill="white"/>
<rect x="402.417" y="450.417" width="45.1656" height="23.1656" rx="3.5828" stroke="#DDDDDD" stroke-width="0.83441"/>
<path d="M97.666 132.041V140.869H96.5723V132.041H97.666ZM95.0293 132.979C95.0293 135.605 94.0137 137.842 90.918 139.307L90.3516 138.438C92.6611 137.339 93.7354 135.845 93.9258 133.838H90.8008V132.979H95.0293ZM105.96 132.441V133.311H103.401C103.499 134.141 104.578 134.932 106.282 135.137L105.872 135.996C104.29 135.806 103.123 135.107 102.649 134.15C102.176 135.103 101.018 135.806 99.4363 135.996L99.0359 135.137C100.74 134.932 101.804 134.141 101.907 133.311H99.368V132.441H105.96ZM106.692 136.484V137.363H103.284V138.975H102.21V137.363H98.6258V136.484H106.692ZM105.804 139.814V140.693H99.6023V138.164H100.686V139.814H105.804ZM116.444 132.041V137.236H115.36V136.016H113.582V136.699H109.432V132.705H113.582V133.389H115.36V132.041H116.444ZM110.516 133.564V135.83H112.508V133.564H110.516ZM113.455 137.471C115.33 137.471 116.473 138.096 116.473 139.17C116.473 140.244 115.33 140.859 113.455 140.859C111.59 140.859 110.448 140.244 110.457 139.17C110.448 138.096 111.59 137.471 113.455 137.471ZM113.455 138.301C112.225 138.301 111.532 138.604 111.532 139.17C111.532 139.717 112.225 140.02 113.455 140.02C114.686 140.02 115.389 139.717 115.389 139.17C115.389 138.604 114.686 138.301 113.455 138.301ZM113.582 135.137H115.36V134.248H113.582V135.137ZM122.628 133.027V133.887H120.743C120.748 134.868 121.52 135.83 122.931 136.201L122.423 137.041C121.398 136.772 120.646 136.167 120.236 135.391C119.835 136.255 119.083 136.934 118.029 137.246L117.501 136.406C118.903 135.996 119.654 134.946 119.659 133.887H117.775V133.027H119.659V132.051H120.753V133.027H122.628ZM124.747 132.051V137.402H123.654V132.051H124.747ZM121.759 137.559C123.614 137.559 124.767 138.164 124.767 139.209C124.767 140.254 123.614 140.859 121.759 140.859C119.884 140.859 118.741 140.254 118.741 139.209C118.741 138.164 119.884 137.559 121.759 137.559ZM121.759 138.398C120.509 138.398 119.835 138.691 119.835 139.209C119.835 139.736 120.509 140.02 121.759 140.02C122.999 140.02 123.693 139.736 123.702 139.209C123.693 138.691 122.999 138.398 121.759 138.398Z" fill="#999999"/>
<rect x="90.4172" y="151.417" width="295.166" height="29.1656" rx="3.68531" fill="white"/>
<rect x="90.4172" y="151.417" width="295.166" height="29.1656" rx="3.68531" stroke="#DDDDDD" stroke-width="0.83441"/>
<path d="M108.666 162.041V170.869H107.572V162.041H108.666ZM106.029 162.979C106.029 165.605 105.014 167.842 101.918 169.307L101.352 168.438C103.661 167.339 104.735 165.845 104.926 163.838H101.801V162.979H106.029ZM111.755 162.373V163.33H115.563V162.373H116.637V165.957H114.196V166.768H117.682V167.646H109.636V166.768H113.102V165.957H110.68V162.373H111.755ZM111.755 165.088H115.563V164.17H111.755V165.088ZM116.774 169.814V170.693H110.632V168.213H111.716V169.814H116.774ZM120.039 167.07V168.086H123.955V167.07H125.029V170.762H118.974V167.07H120.039ZM120.039 169.883H123.955V168.926H120.039V169.883ZM125.058 162.422V163.105C125.058 163.774 125.058 164.512 124.843 165.547H126.045V166.416H117.978V165.547H123.769C123.955 164.614 123.974 163.911 123.974 163.291H118.974V162.422H125.058ZM135.786 162.041V166.562H134.702V164.326H132.945V163.457H134.702V162.041H135.786ZM135.786 166.943V169.229H131.05V169.902H136.07V170.762H129.986V168.418H134.712V167.793H129.976V166.943H135.786ZM131.597 163.037C131.597 164.121 132.31 165.156 133.677 165.576L133.101 166.416C132.144 166.094 131.45 165.474 131.07 164.668C130.679 165.571 129.956 166.27 128.911 166.611L128.345 165.742C129.761 165.312 130.503 164.229 130.503 163.037V162.334H131.597V163.037ZM144.129 162.041V167.285H143.045V165.127H141.541V164.238H143.045V162.041H144.129ZM141.141 167.51C143.016 167.51 144.158 168.125 144.158 169.189C144.158 170.254 143.016 170.869 141.141 170.869C139.275 170.869 138.133 170.254 138.143 169.189C138.133 168.125 139.275 167.51 141.141 167.51ZM141.141 168.34C139.91 168.34 139.217 168.633 139.217 169.189C139.217 169.736 139.91 170.029 141.141 170.029C142.371 170.029 143.074 169.736 143.074 169.189C143.074 168.633 142.371 168.34 141.141 168.34ZM139.979 163.555C139.979 164.629 140.691 165.713 142.059 166.172L141.512 167.031C140.53 166.699 139.832 166.025 139.451 165.195C139.061 166.138 138.323 166.89 137.273 167.266L136.707 166.406C138.123 165.918 138.875 164.727 138.875 163.564V163.496H137.039V162.617H141.805V163.496H139.979V163.555Z" fill="#2A2929"/>
</g>
<defs>
<filter id="filter0_d_283_1420" x="116" y="291" width="14" height="14" filterUnits="userSpaceOnUse" color-interpolation-filters="sRGB">
<feFlood flood-opacity="0" result="BackgroundImageFix"/>
<feColorMatrix in="SourceAlpha" type="matrix" values="0 0 0 0 0 0 0 0 0 0 0 0 0 0 0 0 0 0 127 0" result="hardAlpha"/>
<feOffset dy="2"/>
<feGaussianBlur stdDeviation="2"/>
<feComposite in2="hardAlpha" operator="out"/>
<feColorMatrix type="matrix" values="0 0 0 0 0 0 0 0 0 0 0 0 0 0 0 0 0 0 0.1 0"/>
<feBlend mode="normal" in2="BackgroundImageFix" result="effect1_dropShadow_283_1420"/>
<feBlend mode="normal" in="SourceGraphic" in2="effect1_dropShadow_283_1420" result="shape"/>
</filter>
<clipPath id="clip0_283_1420">
<rect width="440" height="500" rx="16" fill="white"/>
</clipPath>
<clipPath id="clip1_283_1420">
<rect x="115" y="394" width="344" height="40" rx="6" fill="white"/>
</clipPath>
</defs>
</svg>
