<svg width="440" height="500" viewBox="0 0 440 500" fill="none" xmlns="http://www.w3.org/2000/svg">
<g clip-path="url(#clip0_283_1521)">
<rect x="60" y="60" width="560" height="664" rx="22" fill="white"/>
<path d="M90 249.212C90 246.886 91.8858 245 94.212 245H324.027C326.353 245 328.239 246.886 328.239 249.212V264.788C328.239 267.114 326.353 269 324.027 269H94.212C91.8858 269 90 267.114 90 264.788V249.212Z" fill="#F7F9FC"/>
<g filter="url(#filter0_d_283_1521)">
<path d="M92.5273 251.739C92.5273 249.413 94.4131 247.527 96.7393 247.527H131.587C133.913 247.527 135.799 249.413 135.799 251.739V262.261C135.799 264.587 133.913 266.473 131.587 266.473H96.7393C94.4131 266.473 92.5273 264.587 92.5273 262.261V251.739Z" fill="#00AEAE" shape-rendering="crispEdges"/>
<path d="M110.039 258.956V258.203H111.769V253.051H112.86V259.729H111.769V258.956H110.039ZM108.295 256.483C107.862 256.483 107.479 256.42 107.145 256.294C106.811 256.167 106.551 255.987 106.365 255.755C106.181 255.52 106.089 255.247 106.089 254.936C106.089 254.63 106.181 254.359 106.365 254.122C106.551 253.882 106.811 253.698 107.145 253.569C107.481 253.438 107.865 253.372 108.295 253.372C108.721 253.372 109.1 253.438 109.431 253.569C109.765 253.698 110.025 253.882 110.211 254.122C110.398 254.359 110.492 254.63 110.495 254.936C110.492 255.247 110.398 255.52 110.211 255.755C110.025 255.987 109.766 256.167 109.434 256.294C109.103 256.42 108.723 256.483 108.295 256.483ZM108.305 254.173C108.068 254.173 107.86 254.203 107.68 254.263C107.501 254.323 107.362 254.41 107.263 254.526C107.166 254.641 107.119 254.778 107.121 254.936C107.119 255.093 107.166 255.229 107.263 255.344C107.359 255.457 107.496 255.543 107.673 255.603C107.853 255.663 108.06 255.693 108.295 255.693C108.521 255.693 108.721 255.663 108.896 255.603C109.071 255.543 109.208 255.457 109.307 255.344C109.406 255.229 109.456 255.093 109.459 254.936C109.456 254.78 109.406 254.644 109.307 254.529C109.21 254.414 109.074 254.326 108.899 254.267C108.727 254.204 108.529 254.173 108.305 254.173ZM107.853 259.484V257.847C107.25 257.873 106.482 257.885 105.55 257.885L105.419 257.019C106.579 257.012 107.61 256.992 108.513 256.96C109.417 256.928 110.282 256.859 111.106 256.753L111.171 257.533C110.52 257.641 109.777 257.727 108.944 257.789V259.484H107.853ZM107.677 259.084V260.817H113.064V261.698H106.589V259.084H107.677ZM118.404 256.953V257.765H121.889V258.642H113.846V257.765H117.317V256.953H114.886V253.372H115.96V254.336H119.772V253.372H120.853V256.953H118.404ZM119.772 255.175H115.96V256.086H119.772V255.175ZM114.837 259.211H115.929V260.817H120.98V261.698H114.837V259.211Z" fill="white"/>
</g>
<path d="M156.874 257.768V253.113H157.64V257.768H156.874ZM153.165 255.517C152.972 256.021 152.678 256.463 152.285 256.843C151.893 257.22 151.439 257.501 150.921 257.685L150.534 257.077C150.967 256.925 151.351 256.704 151.687 256.414C152.026 256.124 152.289 255.789 152.478 255.41C152.669 255.027 152.765 254.63 152.765 254.218V253.403H153.545V254.218C153.543 254.612 153.636 254.989 153.825 255.351C154.016 255.712 154.281 256.03 154.619 256.304C154.957 256.578 155.341 256.785 155.769 256.925L155.389 257.519C154.876 257.344 154.426 257.083 154.039 256.735C153.652 256.388 153.361 255.982 153.165 255.517ZM152.772 259.267H156.881V258.21H157.64V261.677H152.019V258.21H152.772V259.267ZM152.772 261.048H156.881V259.881H152.772V261.048ZM165.65 253.106V255.751H166.956V256.401H165.65V259.474H164.884V253.106H165.65ZM159.235 253.901H163.247V257.899H159.235V253.901ZM159.98 257.278H162.501V254.529H159.98V257.278ZM160.215 258.873H160.975V260.965H166.051V261.601H160.215V258.873ZM171.844 258.811V258.251H173.633V253.12H174.406V259.715H173.633V258.811H171.844ZM170.055 256.49C169.63 256.49 169.253 256.429 168.926 256.307C168.602 256.185 168.35 256.01 168.17 255.782C167.991 255.555 167.901 255.289 167.901 254.985C167.901 254.686 167.991 254.422 168.17 254.194C168.35 253.964 168.603 253.787 168.93 253.662C169.257 253.536 169.632 253.472 170.055 253.472C170.474 253.472 170.846 253.536 171.171 253.662C171.495 253.787 171.747 253.964 171.927 254.194C172.109 254.422 172.201 254.686 172.203 254.985C172.201 255.289 172.109 255.555 171.927 255.782C171.747 256.008 171.495 256.183 171.171 256.307C170.848 256.429 170.477 256.49 170.055 256.49ZM170.055 254.052C169.775 254.05 169.526 254.088 169.31 254.166C169.093 254.245 168.925 254.355 168.805 254.498C168.688 254.638 168.63 254.801 168.633 254.985C168.63 255.171 168.688 255.335 168.805 255.475C168.925 255.616 169.093 255.725 169.31 255.803C169.526 255.879 169.775 255.917 170.055 255.917C170.327 255.917 170.57 255.879 170.784 255.803C170.998 255.725 171.165 255.616 171.285 255.475C171.407 255.335 171.469 255.171 171.471 254.985C171.469 254.801 171.407 254.638 171.285 254.498C171.165 254.355 170.998 254.245 170.784 254.166C170.57 254.088 170.327 254.05 170.055 254.052ZM169.752 259.412V257.733C169.158 257.756 168.483 257.768 167.728 257.768H167.307L167.203 257.14C168.35 257.135 169.373 257.118 170.273 257.088C171.175 257.055 172.035 256.988 172.852 256.884L172.908 257.443C172.187 257.558 171.391 257.642 170.518 257.695V259.412H169.752ZM169.22 259.066V260.965H174.62V261.601H168.453V259.066H169.22ZM184.687 253.106V255.696H185.999V256.338H184.687V259.398H183.921V253.106H184.687ZM183.064 257.561C182.493 257.671 181.926 257.747 181.362 257.789C180.798 257.83 180.091 257.851 179.242 257.851H178.983H178.313V253.866H182.173V254.501H179.073V257.209H179.356C180.168 257.209 180.84 257.189 181.372 257.15C181.904 257.108 182.436 257.034 182.968 256.925L183.064 257.561ZM179.252 258.762H180.012V260.965H185.088V261.601H179.252V258.762ZM192.697 261.801V253.12H193.45V261.801H192.697ZM189.147 257.084C188.719 257.087 188.336 257.013 187.998 256.863C187.661 256.714 187.398 256.504 187.207 256.235C187.018 255.965 186.924 255.657 186.924 255.309C186.924 254.959 187.018 254.65 187.207 254.381C187.398 254.111 187.661 253.903 187.998 253.756C188.336 253.606 188.719 253.532 189.147 253.535C189.576 253.532 189.959 253.606 190.297 253.756C190.636 253.903 190.9 254.111 191.092 254.381C191.283 254.65 191.378 254.959 191.378 255.309C191.378 255.657 191.283 255.965 191.092 256.235C190.9 256.504 190.636 256.714 190.297 256.863C189.959 257.013 189.576 257.087 189.147 257.084ZM189.147 254.163C188.862 254.161 188.606 254.208 188.381 254.305C188.158 254.401 187.983 254.537 187.856 254.712C187.729 254.887 187.667 255.086 187.67 255.309C187.667 255.533 187.729 255.732 187.856 255.907C187.983 256.079 188.158 256.214 188.381 256.311C188.606 256.405 188.862 256.451 189.147 256.449C189.438 256.451 189.695 256.405 189.921 256.311C190.149 256.214 190.326 256.079 190.453 255.907C190.582 255.732 190.646 255.533 190.646 255.309C190.646 255.086 190.582 254.887 190.453 254.712C190.326 254.537 190.149 254.401 189.921 254.305C189.693 254.208 189.435 254.161 189.147 254.163ZM192.11 258.093C191.371 258.228 190.529 258.327 189.583 258.39V261.525H188.816V258.431C188.176 258.459 187.361 258.475 186.371 258.479L186.268 257.83C187.324 257.83 188.337 257.809 189.306 257.768C190.278 257.724 191.194 257.639 192.055 257.512L192.11 258.093ZM203.724 253.12V255.744H205.029V256.394H203.724V259.494H202.957V253.12H203.724ZM200.589 253.742H201.348V258.03H197.308V253.742H198.061V255.206H200.589V253.742ZM198.061 257.409H200.589V255.814H198.061V257.409ZM198.289 258.873H199.049V260.965H204.124V261.601H198.289V258.873ZM209.641 256.884H213.239V257.512H205.325V256.884H208.889V256.224C208.322 256.199 207.838 256.125 207.435 256.003C207.034 255.881 206.728 255.712 206.516 255.496C206.307 255.279 206.202 255.022 206.202 254.722C206.202 254.402 206.323 254.13 206.565 253.904C206.809 253.678 207.16 253.508 207.618 253.393C208.078 253.276 208.631 253.217 209.275 253.217C209.918 253.217 210.468 253.276 210.926 253.393C211.386 253.508 211.737 253.678 211.979 253.904C212.221 254.13 212.342 254.402 212.342 254.722C212.342 255.024 212.236 255.283 212.024 255.499C211.812 255.716 211.505 255.885 211.102 256.007C210.699 256.129 210.212 256.203 209.641 256.228V256.884ZM207.003 254.722C207.001 254.918 207.088 255.085 207.266 255.223C207.445 255.361 207.705 255.466 208.046 255.537C208.387 255.609 208.797 255.645 209.275 255.648C209.756 255.645 210.167 255.609 210.508 255.537C210.851 255.466 211.112 255.361 211.292 255.223C211.472 255.085 211.561 254.918 211.561 254.722C211.561 254.531 211.47 254.368 211.288 254.232C211.109 254.096 210.848 253.991 210.505 253.918C210.164 253.844 209.754 253.806 209.275 253.804C208.799 253.806 208.39 253.844 208.05 253.918C207.709 253.991 207.449 254.097 207.269 254.235C207.09 254.371 207.001 254.534 207.003 254.722ZM212.217 260.192H207.059V261.09H212.48V261.698H206.306V259.626H211.465V258.845H206.285V258.244H212.217V260.192ZM220.117 258.265V253.12H220.883V258.265H220.117ZM219.129 257.568C218.436 257.676 217.77 257.75 217.13 257.789C216.49 257.826 215.738 257.844 214.875 257.844H214.171V255.392H217.361V254.267H214.15V253.645H218.121V256H214.917V257.202H215.172C215.923 257.202 216.595 257.182 217.189 257.143C217.783 257.104 218.397 257.034 219.033 256.932L219.129 257.568ZM220.883 261.677H215.234V258.735H220.883V261.677ZM220.131 259.356H215.994V261.048H220.131V259.356Z" fill="#222222"/>
<path d="M255.83 257.768V253.113H256.597V257.768H255.83ZM252.122 255.517C251.928 256.021 251.635 256.463 251.241 256.843C250.85 257.22 250.395 257.501 249.877 257.685L249.491 257.077C249.923 256.925 250.308 256.704 250.644 256.414C250.982 256.124 251.246 255.789 251.435 255.41C251.626 255.027 251.721 254.63 251.721 254.218V253.403H252.502V254.218C252.499 254.612 252.593 254.989 252.781 255.351C252.972 255.712 253.237 256.03 253.575 256.304C253.914 256.578 254.297 256.785 254.725 256.925L254.346 257.519C253.832 257.344 253.382 257.083 252.995 256.735C252.609 256.388 252.317 255.982 252.122 255.517ZM251.728 259.267H255.837V258.21H256.597V261.677H250.975V258.21H251.728V259.267ZM251.728 261.048H255.837V259.881H251.728V261.048ZM264.607 253.106V255.751H265.912V256.401H264.607V259.474H263.84V253.106H264.607ZM258.191 253.901H262.204V257.899H258.191V253.901ZM258.937 257.278H261.458V254.529H258.937V257.278ZM259.172 258.873H259.932V260.965H265.007V261.601H259.172V258.873ZM270.801 258.811V258.251H272.589V253.12H273.363V259.715H272.589V258.811H270.801ZM269.012 256.49C268.586 256.49 268.21 256.429 267.883 256.307C267.558 256.185 267.306 256.01 267.127 255.782C266.947 255.555 266.857 255.289 266.857 254.985C266.857 254.686 266.947 254.422 267.127 254.194C267.306 253.964 267.559 253.787 267.886 253.662C268.213 253.536 268.588 253.472 269.012 253.472C269.431 253.472 269.803 253.536 270.127 253.662C270.452 253.787 270.704 253.964 270.884 254.194C271.065 254.422 271.157 254.686 271.16 254.985C271.157 255.289 271.065 255.555 270.884 255.782C270.704 256.008 270.452 256.183 270.127 256.307C269.805 256.429 269.433 256.49 269.012 256.49ZM269.012 254.052C268.731 254.05 268.483 254.088 268.266 254.166C268.05 254.245 267.882 254.355 267.762 254.498C267.645 254.638 267.587 254.801 267.589 254.985C267.587 255.171 267.645 255.335 267.762 255.475C267.882 255.616 268.05 255.725 268.266 255.803C268.483 255.879 268.731 255.917 269.012 255.917C269.284 255.917 269.526 255.879 269.741 255.803C269.955 255.725 270.122 255.616 270.241 255.475C270.363 255.335 270.425 255.171 270.428 254.985C270.425 254.801 270.363 254.638 270.241 254.498C270.122 254.355 269.955 254.245 269.741 254.166C269.526 254.088 269.284 254.05 269.012 254.052ZM268.708 259.412V257.733C268.114 257.756 267.44 257.768 266.685 257.768H266.263L266.16 257.14C267.306 257.135 268.329 257.118 269.23 257.088C270.132 257.055 270.992 256.988 271.809 256.884L271.864 257.443C271.144 257.558 270.347 257.642 269.475 257.695V259.412H268.708ZM268.176 259.066V260.965H273.577V261.601H267.41V259.066H268.176ZM283.644 253.106V255.696H284.956V256.338H283.644V259.398H282.877V253.106H283.644ZM282.021 257.561C281.45 257.671 280.882 257.747 280.318 257.789C279.754 257.83 279.048 257.851 278.198 257.851H277.939H277.269V253.866H281.13V254.501H278.029V257.209H278.312C279.125 257.209 279.797 257.189 280.329 257.15C280.861 257.108 281.392 257.034 281.924 256.925L282.021 257.561ZM278.209 258.762H278.968V260.965H284.044V261.601H278.209V258.762ZM291.654 261.801V253.12H292.406V261.801H291.654ZM288.104 257.084C287.676 257.087 287.293 257.013 286.954 256.863C286.618 256.714 286.354 256.504 286.163 256.235C285.975 255.965 285.88 255.657 285.88 255.309C285.88 254.959 285.975 254.65 286.163 254.381C286.354 254.111 286.618 253.903 286.954 253.756C287.293 253.606 287.676 253.532 288.104 253.535C288.532 253.532 288.915 253.606 289.254 253.756C289.592 253.903 289.857 254.111 290.048 254.381C290.239 254.65 290.335 254.959 290.335 255.309C290.335 255.657 290.239 255.965 290.048 256.235C289.857 256.504 289.592 256.714 289.254 256.863C288.915 257.013 288.532 257.087 288.104 257.084ZM288.104 254.163C287.819 254.161 287.563 254.208 287.337 254.305C287.114 254.401 286.939 254.537 286.813 254.712C286.686 254.887 286.624 255.086 286.626 255.309C286.624 255.533 286.686 255.732 286.813 255.907C286.939 256.079 287.114 256.214 287.337 256.311C287.563 256.405 287.819 256.451 288.104 256.449C288.394 256.451 288.652 256.405 288.877 256.311C289.105 256.214 289.283 256.079 289.409 255.907C289.538 255.732 289.603 255.533 289.603 255.309C289.603 255.086 289.538 254.887 289.409 254.712C289.283 254.537 289.105 254.401 288.877 254.305C288.65 254.208 288.392 254.161 288.104 254.163ZM291.067 258.093C290.328 258.228 289.485 258.327 288.539 258.39V261.525H287.772V258.431C287.133 258.459 286.318 258.475 285.328 258.479L285.224 257.83C286.281 257.83 287.294 257.809 288.263 257.768C289.234 257.724 290.15 257.639 291.011 257.512L291.067 258.093ZM302.328 256.345V253.113H303.088V261.808H302.328V256.981H300.243V259.612H296.244V253.79H297.017V256.055H299.497V253.79H300.243V256.345H302.328ZM297.017 258.977H299.497V256.67H297.017V258.977ZM310.684 258.265V253.12H311.45V258.265H310.684ZM309.696 257.568C309.003 257.676 308.337 257.75 307.697 257.789C307.057 257.826 306.305 257.844 305.442 257.844H304.737V255.392H307.928V254.267H304.717V253.645H308.688V256H305.483V257.202H305.739C306.489 257.202 307.161 257.182 307.755 257.143C308.349 257.104 308.964 257.034 309.599 256.932L309.696 257.568ZM311.45 261.677H305.801V258.735H311.45V261.677ZM310.697 259.356H306.561V261.048H310.697V259.356Z" fill="#222222"/>
<rect x="90.5" y="368.5" width="499" height="67" rx="5.5" stroke="#EEEEEE"/>
<path d="M116.59 406L116.587 405.078L119.084 402.671C119.355 402.4 119.565 402.176 119.712 402.001C119.862 401.826 119.976 401.655 120.054 401.487C120.134 401.317 120.175 401.136 120.175 400.945C120.175 400.728 120.122 400.538 120.016 400.375C119.91 400.212 119.764 400.086 119.577 399.999C119.393 399.911 119.186 399.867 118.956 399.867C118.716 399.867 118.506 399.916 118.324 400.012C118.144 400.107 118.006 400.243 117.91 400.42C117.813 400.597 117.765 400.804 117.765 401.041H116.556C116.554 400.602 116.655 400.215 116.86 399.881C117.065 399.547 117.35 399.29 117.716 399.108C118.084 398.924 118.503 398.831 118.973 398.831C119.445 398.831 119.864 398.92 120.23 399.097C120.596 399.272 120.88 399.515 121.083 399.826C121.288 400.137 121.39 400.488 121.39 400.879C121.388 401.155 121.335 401.42 121.231 401.673C121.128 401.924 120.948 402.205 120.693 402.516C120.439 402.824 120.079 403.198 119.612 403.638L118.358 404.885V404.936H121.497V406H116.59ZM124.967 406.135C124.4 406.135 123.914 405.991 123.506 405.703C123.099 405.413 122.787 404.994 122.57 404.446C122.356 403.896 122.249 403.238 122.249 402.471C122.249 401.707 122.357 401.052 122.574 400.506C122.79 399.961 123.102 399.545 123.51 399.26C123.917 398.974 124.403 398.831 124.967 398.831C125.528 398.831 126.013 398.975 126.42 399.263C126.828 399.549 127.14 399.964 127.356 400.51C127.575 401.055 127.684 401.709 127.684 402.471C127.684 403.24 127.576 403.899 127.36 404.45C127.143 404.997 126.831 405.415 126.424 405.703C126.019 405.991 125.533 406.135 124.967 406.135ZM124.967 405.057C125.264 405.057 125.519 404.959 125.733 404.764C125.947 404.566 126.112 404.275 126.227 403.89C126.342 403.503 126.4 403.03 126.4 402.471C126.4 401.916 126.341 401.447 126.224 401.062C126.109 400.675 125.944 400.384 125.73 400.189C125.516 399.991 125.261 399.892 124.967 399.892C124.67 399.892 124.414 399.991 124.2 400.189C123.986 400.384 123.82 400.675 123.703 401.062C123.588 401.447 123.53 401.916 123.53 402.471C123.53 403.03 123.588 403.503 123.703 403.89C123.818 404.275 123.983 404.566 124.197 404.764C124.413 404.959 124.67 405.057 124.967 405.057ZM128.497 406L128.494 405.078L130.99 402.671C131.262 402.4 131.471 402.176 131.619 402.001C131.768 401.826 131.882 401.655 131.961 401.487C132.041 401.317 132.081 401.136 132.081 400.945C132.081 400.728 132.028 400.538 131.923 400.375C131.817 400.212 131.67 400.086 131.484 399.999C131.3 399.911 131.093 399.867 130.862 399.867C130.623 399.867 130.412 399.916 130.231 400.012C130.051 400.107 129.913 400.243 129.816 400.42C129.72 400.597 129.671 400.804 129.671 401.041H128.463C128.46 400.602 128.562 400.215 128.766 399.881C128.971 399.547 129.257 399.29 129.623 399.108C129.991 398.924 130.41 398.831 130.88 398.831C131.352 398.831 131.771 398.92 132.137 399.097C132.503 399.272 132.787 399.515 132.99 399.826C133.194 400.137 133.297 400.488 133.297 400.879C133.295 401.155 133.242 401.42 133.138 401.673C133.034 401.924 132.855 402.205 132.599 402.516C132.346 402.824 131.986 403.198 131.519 403.638L130.265 404.885V404.936H133.404V406H128.497ZM136.773 406.097C136.311 406.097 135.892 406.01 135.516 405.838C135.143 405.665 134.848 405.426 134.629 405.119C134.41 404.813 134.295 404.467 134.284 404.08H135.52C135.534 404.269 135.598 404.439 135.713 404.591C135.828 404.741 135.978 404.858 136.162 404.943C136.349 405.026 136.552 405.068 136.773 405.068C137.033 405.068 137.267 405.01 137.474 404.895C137.681 404.778 137.843 404.616 137.958 404.412C138.075 404.204 138.134 403.971 138.134 403.711C138.134 403.444 138.073 403.205 137.951 402.996C137.831 402.784 137.663 402.619 137.447 402.502C137.233 402.385 136.991 402.326 136.721 402.326C136.164 402.326 135.778 402.527 135.561 402.93H134.387L134.808 398.928H138.987V399.992H135.858L135.644 401.87H135.706C135.849 401.711 136.042 401.582 136.286 401.483C136.53 401.384 136.795 401.335 137.081 401.335C137.513 401.335 137.904 401.436 138.251 401.639C138.599 401.839 138.872 402.118 139.07 402.474C139.268 402.829 139.367 403.23 139.367 403.676C139.367 404.141 139.256 404.558 139.035 404.926C138.816 405.294 138.51 405.582 138.117 405.789C137.725 405.994 137.277 406.097 136.773 406.097ZM147.285 404.553H146.201V401.611H143.894V400.751H146.201V399.95H143.894V399.094H146.201V398.051H147.285V404.553ZM144.947 403.044C144.317 403.162 143.7 403.242 143.096 403.286C142.493 403.327 141.825 403.349 141.09 403.352H140.4V398.635H141.474V402.454C142.077 402.449 142.648 402.425 143.186 402.381C143.727 402.335 144.279 402.262 144.84 402.16L144.947 403.044ZM142.575 403.977V405.817H147.503V406.698H141.48V403.977H142.575ZM152.346 398.928H153.565V406H152.288V400.168H152.246L150.592 401.224V400.061L152.346 398.928ZM160.665 398.324H161.746V401.915H155.779V398.324H156.853V399.318H160.665V398.324ZM156.853 401.055H160.665V400.13H156.853V401.055ZM154.729 403.479V402.616H162.799V403.479H159.391V404.999H158.317V403.479H154.729ZM155.706 404.267H156.784V405.817H161.908V406.698H155.706V404.267ZM169.403 406.863V398.044H170.498V406.863H169.403ZM167.867 398.98C167.864 399.898 167.731 400.743 167.466 401.515C167.204 402.283 166.769 402.989 166.161 403.631C165.556 404.273 164.754 404.832 163.758 405.306L163.188 404.436C163.952 404.072 164.586 403.663 165.091 403.21C165.597 402.754 165.986 402.249 166.258 401.694C166.529 401.137 166.697 400.519 166.762 399.84H163.637V398.98H167.867ZM177.845 402.336C177.631 402.576 177.372 402.762 177.068 402.896C176.764 403.029 176.437 403.096 176.088 403.096C175.65 403.096 175.253 402.999 174.896 402.806C174.542 402.61 174.263 402.341 174.061 401.998C173.858 401.655 173.758 401.269 173.76 400.841C173.758 400.411 173.858 400.024 174.061 399.681C174.263 399.336 174.542 399.066 174.896 398.873C175.251 398.677 175.648 398.578 176.088 398.576C176.437 398.578 176.764 398.646 177.068 398.78C177.372 398.911 177.63 399.096 177.842 399.336H179.948V398.051H181.032V404.526H179.948V402.336H177.845ZM174.793 400.841C174.793 401.099 174.848 401.326 174.958 401.521C175.069 401.717 175.222 401.869 175.418 401.977C175.613 402.083 175.837 402.136 176.088 402.136C176.329 402.136 176.547 402.083 176.74 401.977C176.934 401.869 177.086 401.717 177.196 401.521C177.309 401.326 177.365 401.099 177.365 400.841C177.365 400.583 177.309 400.357 177.196 400.161C177.086 399.965 176.934 399.814 176.74 399.709C176.547 399.6 176.329 399.546 176.088 399.546C175.837 399.546 175.613 399.6 175.418 399.709C175.222 399.814 175.069 399.965 174.958 400.161C174.848 400.357 174.793 400.583 174.793 400.841ZM179.948 400.213H178.315C178.372 400.418 178.401 400.627 178.401 400.841C178.401 401.046 178.373 401.252 178.318 401.459H179.948V400.213ZM176.326 403.866V405.817H181.253V406.698H175.242V403.866H176.326ZM186.587 401.59V402.357H190.071V403.231H182.029V402.357H185.5V401.59H183.069V398.289H184.143V399.128H187.955V398.289H189.035V401.59H186.587ZM187.955 399.954H184.143V400.741H187.955V399.954ZM186.038 403.728C186.674 403.728 187.22 403.789 187.678 403.911C188.139 404.033 188.491 404.211 188.735 404.446C188.981 404.681 189.105 404.964 189.105 405.296C189.105 405.629 188.981 405.913 188.735 406.145C188.491 406.38 188.14 406.557 187.682 406.677C187.224 406.799 186.676 406.859 186.038 406.856C185.396 406.856 184.846 406.797 184.388 406.677C183.93 406.557 183.58 406.38 183.338 406.145C183.096 405.913 182.975 405.629 182.975 405.296C182.975 404.964 183.096 404.681 183.338 404.446C183.58 404.211 183.93 404.033 184.388 403.911C184.848 403.789 185.398 403.728 186.038 403.728ZM186.038 406.028C186.674 406.032 187.159 405.972 187.495 405.848C187.831 405.721 188 405.537 188 405.296C188 405.052 187.833 404.869 187.499 404.747C187.165 404.622 186.678 404.56 186.038 404.56C185.391 404.56 184.9 404.622 184.564 404.747C184.228 404.869 184.061 405.052 184.063 405.296C184.061 405.537 184.229 405.721 184.567 405.848C184.906 405.972 185.396 406.032 186.038 406.028ZM193.492 398.849H195.364V399.712H190.436V398.849H192.412V397.968H193.492V398.849ZM196.728 399.988V398.044H197.812V403.282H196.728V402.595H195.416V401.718H196.728V400.865H195.429V399.988H196.728ZM195.008 401.625C195.006 401.938 194.916 402.215 194.739 402.457C194.564 402.699 194.32 402.887 194.007 403.02C193.694 403.151 193.339 403.217 192.943 403.217C192.543 403.217 192.187 403.151 191.876 403.02C191.568 402.887 191.327 402.7 191.155 402.461C190.982 402.219 190.897 401.94 190.899 401.625C190.897 401.312 190.982 401.035 191.155 400.793C191.327 400.551 191.569 400.363 191.88 400.23C192.191 400.094 192.545 400.026 192.943 400.026C193.339 400.026 193.693 400.094 194.003 400.23C194.316 400.363 194.562 400.551 194.739 400.793C194.916 401.035 195.006 401.312 195.008 401.625ZM191.911 401.625C191.911 401.788 191.952 401.93 192.035 402.05C192.12 402.169 192.24 402.262 192.394 402.326C192.551 402.39 192.734 402.423 192.943 402.423C193.148 402.423 193.33 402.39 193.489 402.326C193.648 402.262 193.772 402.169 193.862 402.05C193.952 401.928 193.996 401.786 193.996 401.625C193.996 401.464 193.952 401.325 193.862 401.207C193.772 401.09 193.648 401 193.489 400.938C193.332 400.876 193.15 400.845 192.943 400.845C192.734 400.845 192.551 400.876 192.394 400.938C192.24 401 192.12 401.09 192.035 401.207C191.952 401.325 191.911 401.464 191.911 401.625ZM193.016 404.37H196.735V403.628H197.812V406.76H191.935V403.628H193.016V404.37ZM193.016 405.914H196.735V405.189H193.016V405.914ZM205.774 398.044V400.185H207.006V401.09H205.774V403.32H204.683V398.044H205.774ZM201.409 401.1C201.213 401.579 200.937 401.993 200.58 402.343C200.224 402.693 199.795 402.957 199.296 403.134L198.709 402.278C199.169 402.116 199.559 401.887 199.879 401.59C200.202 401.294 200.443 400.953 200.605 400.568C200.766 400.182 200.847 399.774 200.85 399.346V398.51H201.934V399.446C201.934 399.821 202.013 400.18 202.172 400.523C202.333 400.864 202.569 401.167 202.88 401.432C203.191 401.696 203.567 401.899 204.009 402.039L203.429 402.885C202.962 402.727 202.557 402.494 202.214 402.188C201.871 401.879 201.602 401.517 201.409 401.1ZM202.901 403.517C203.506 403.517 204.03 403.583 204.472 403.714C204.916 403.845 205.257 404.036 205.494 404.287C205.733 404.536 205.853 404.834 205.853 405.182C205.853 405.534 205.733 405.835 205.494 406.086C205.257 406.337 204.916 406.528 204.472 406.66C204.03 406.791 203.506 406.856 202.901 406.856C202.286 406.856 201.754 406.791 201.306 406.66C200.859 406.528 200.515 406.337 200.273 406.086C200.034 405.835 199.914 405.534 199.914 405.182C199.914 404.834 200.034 404.536 200.273 404.287C200.515 404.036 200.86 403.845 201.309 403.714C201.758 403.583 202.288 403.517 202.901 403.517ZM202.901 406.003C203.511 406.001 203.977 405.931 204.299 405.793C204.624 405.655 204.786 405.451 204.786 405.182C204.786 404.922 204.623 404.721 204.296 404.581C203.969 404.438 203.504 404.367 202.901 404.367C202.498 404.367 202.154 404.399 201.868 404.463C201.585 404.526 201.369 404.618 201.219 404.74C201.072 404.862 200.998 405.009 200.998 405.182C200.996 405.451 201.159 405.655 201.489 405.793C201.818 405.931 202.288 406.001 202.901 406.003ZM215.883 401.494V398.044H216.912V406.863H215.883V402.371H214.889V406.425H213.891V398.21H214.889V401.494H215.883ZM210.68 403.89C211.195 403.886 211.659 403.867 212.071 403.835C212.483 403.803 212.902 403.745 213.328 403.662L213.414 404.553C212.92 404.652 212.433 404.718 211.954 404.75C211.477 404.782 210.89 404.801 210.193 404.805H209.592V399.087H212.89V399.961H210.68V403.89ZM224.674 398.044V400.185H225.907V401.09H224.674V403.32H223.583V398.044H224.674ZM220.309 401.1C220.113 401.579 219.837 401.993 219.48 402.343C219.124 402.693 218.695 402.957 218.196 403.134L217.609 402.278C218.069 402.116 218.459 401.887 218.779 401.59C219.102 401.294 219.343 400.953 219.505 400.568C219.666 400.182 219.747 399.774 219.75 399.346V398.51H220.834V399.446C220.834 399.821 220.913 400.18 221.072 400.523C221.233 400.864 221.469 401.167 221.78 401.432C222.091 401.696 222.467 401.899 222.909 402.039L222.329 402.885C221.862 402.727 221.457 402.494 221.114 402.188C220.771 401.879 220.503 401.517 220.309 401.1ZM221.801 403.517C222.406 403.517 222.93 403.583 223.372 403.714C223.816 403.845 224.157 404.036 224.394 404.287C224.634 404.536 224.753 404.834 224.753 405.182C224.753 405.534 224.634 405.835 224.394 406.086C224.157 406.337 223.816 406.528 223.372 406.66C222.93 406.791 222.406 406.856 221.801 406.856C221.186 406.856 220.654 406.791 220.206 406.66C219.759 406.528 219.415 406.337 219.173 406.086C218.934 405.835 218.814 405.534 218.814 405.182C218.814 404.834 218.934 404.536 219.173 404.287C219.415 404.036 219.76 403.845 220.209 403.714C220.658 403.583 221.189 403.517 221.801 403.517ZM221.801 406.003C222.411 406.001 222.877 405.931 223.199 405.793C223.524 405.655 223.686 405.451 223.686 405.182C223.686 404.922 223.523 404.721 223.196 404.581C222.869 404.438 222.404 404.367 221.801 404.367C221.398 404.367 221.054 404.399 220.768 404.463C220.485 404.526 220.269 404.618 220.119 404.74C219.972 404.862 219.898 405.009 219.898 405.182C219.896 405.451 220.059 405.655 220.389 405.793C220.718 405.931 221.189 406.001 221.801 406.003ZM233.012 401.477H234.372V402.388H233.012V406.863H231.924V398.044H233.012V401.477ZM229.265 400.548C229.263 401.008 229.349 401.473 229.524 401.943C229.702 402.412 229.957 402.839 230.291 403.224C230.627 403.608 231.019 403.905 231.468 404.115L230.861 404.971C230.377 404.745 229.952 404.413 229.586 403.973C229.223 403.531 228.938 403.025 228.734 402.454C228.529 403.075 228.237 403.628 227.86 404.111C227.482 404.592 227.046 404.953 226.551 405.192L225.912 404.336C226.366 404.122 226.764 403.812 227.107 403.407C227.45 402.999 227.714 402.545 227.898 402.043C228.082 401.541 228.175 401.043 228.178 400.548V399.805H226.254V398.914H231.109V399.805H229.265V400.548ZM241.167 401.466V402.398H244.651V403.276H236.609V402.398H240.079V401.466H237.621V398.4H243.629V401.466H241.167ZM242.559 399.253H238.681V400.606H242.559V399.253ZM242.579 404.874H237.5V404.018H243.671V406.863H242.579V404.874ZM249.56 402.081V402.816H253.058V403.693H244.989V402.816H248.486V402.081H246.011V399.743H250.976V399.084H245.99V398.234H252.06V400.534H247.088V401.238H252.233V402.081H249.56ZM251.018 405.113H245.89V404.249H252.109V406.811H251.018V405.113ZM262.073 406.863V398.044H263.12V406.863H262.073ZM259.166 401.307H260.257V398.217H261.272V406.442H260.257V402.184H259.166V401.307ZM256.835 403.98C257.376 403.975 257.846 403.958 258.244 403.928C258.642 403.896 259.051 403.843 259.47 403.769L259.566 404.646C259.099 404.736 258.641 404.794 258.192 404.819C257.746 404.844 257.142 404.858 256.383 404.86H255.803V399.052H259.097V399.916H256.835V401.428H258.731V402.264H256.835V403.98ZM267.887 400.824C267.694 401.215 267.435 401.573 267.11 401.898C266.788 402.22 266.414 402.494 265.988 402.72C265.564 402.945 265.109 403.11 264.621 403.213L264.144 402.309C264.738 402.201 265.276 401.991 265.757 401.68C266.238 401.369 266.615 400.999 266.889 400.568C267.166 400.138 267.305 399.698 267.307 399.249V398.6H268.46V399.249C268.46 399.703 268.597 400.145 268.871 400.575C269.145 401.006 269.524 401.376 270.007 401.687C270.493 401.996 271.038 402.203 271.641 402.309L271.154 403.213C270.663 403.112 270.205 402.95 269.78 402.727C269.356 402.501 268.982 402.226 268.657 401.901C268.335 401.577 268.078 401.218 267.887 400.824ZM263.899 405.744V404.847H271.969V405.744H263.899ZM274.374 402.671H279.464V403.531H273.273V398.735H279.385V399.615H274.374V400.672H279.185V401.532H274.374V402.671ZM272.289 405.796V404.909H280.359V405.796H272.289Z" fill="black"/>
<path d="M289.59 406L289.587 405.078L292.084 402.671C292.355 402.4 292.565 402.176 292.712 402.001C292.862 401.826 292.976 401.655 293.054 401.487C293.134 401.317 293.175 401.136 293.175 400.945C293.175 400.728 293.122 400.538 293.016 400.375C292.91 400.212 292.764 400.086 292.577 399.999C292.393 399.911 292.186 399.867 291.956 399.867C291.716 399.867 291.506 399.916 291.324 400.012C291.144 400.107 291.006 400.243 290.91 400.42C290.813 400.597 290.765 400.804 290.765 401.041H289.556C289.554 400.602 289.655 400.215 289.86 399.881C290.065 399.547 290.35 399.29 290.716 399.108C291.084 398.924 291.503 398.831 291.973 398.831C292.445 398.831 292.864 398.92 293.23 399.097C293.596 399.272 293.88 399.515 294.083 399.826C294.288 400.137 294.39 400.488 294.39 400.879C294.388 401.155 294.335 401.42 294.231 401.673C294.128 401.924 293.948 402.205 293.693 402.516C293.439 402.824 293.079 403.198 292.612 403.638L291.358 404.885V404.936H294.497V406H289.59ZM297.967 406.135C297.4 406.135 296.914 405.991 296.506 405.703C296.099 405.413 295.787 404.994 295.57 404.446C295.356 403.896 295.249 403.238 295.249 402.471C295.249 401.707 295.357 401.052 295.574 400.506C295.79 399.961 296.102 399.545 296.51 399.26C296.917 398.974 297.403 398.831 297.967 398.831C298.528 398.831 299.013 398.975 299.42 399.263C299.828 399.549 300.14 399.964 300.356 400.51C300.575 401.055 300.684 401.709 300.684 402.471C300.684 403.24 300.576 403.899 300.36 404.45C300.143 404.997 299.831 405.415 299.424 405.703C299.019 405.991 298.533 406.135 297.967 406.135ZM297.967 405.057C298.264 405.057 298.519 404.959 298.733 404.764C298.947 404.566 299.112 404.275 299.227 403.89C299.342 403.503 299.4 403.03 299.4 402.471C299.4 401.916 299.341 401.447 299.224 401.062C299.109 400.675 298.944 400.384 298.73 400.189C298.516 399.991 298.261 399.892 297.967 399.892C297.67 399.892 297.414 399.991 297.2 400.189C296.986 400.384 296.82 400.675 296.703 401.062C296.588 401.447 296.53 401.916 296.53 402.471C296.53 403.03 296.588 403.503 296.703 403.89C296.818 404.275 296.983 404.566 297.197 404.764C297.413 404.959 297.67 405.057 297.967 405.057ZM301.497 406L301.494 405.078L303.99 402.671C304.262 402.4 304.471 402.176 304.619 402.001C304.768 401.826 304.882 401.655 304.961 401.487C305.041 401.317 305.081 401.136 305.081 400.945C305.081 400.728 305.028 400.538 304.923 400.375C304.817 400.212 304.67 400.086 304.484 399.999C304.3 399.911 304.093 399.867 303.862 399.867C303.623 399.867 303.412 399.916 303.231 400.012C303.051 400.107 302.913 400.243 302.816 400.42C302.72 400.597 302.671 400.804 302.671 401.041H301.463C301.46 400.602 301.562 400.215 301.766 399.881C301.971 399.547 302.257 399.29 302.623 399.108C302.991 398.924 303.41 398.831 303.88 398.831C304.352 398.831 304.771 398.92 305.137 399.097C305.503 399.272 305.787 399.515 305.99 399.826C306.194 400.137 306.297 400.488 306.297 400.879C306.295 401.155 306.242 401.42 306.138 401.673C306.034 401.924 305.855 402.205 305.599 402.516C305.346 402.824 304.986 403.198 304.519 403.638L303.265 404.885V404.936H306.404V406H301.497ZM311.623 403.638H312.552V404.684H311.623V406H310.411V404.684H306.979V403.669L310.035 398.928H311.623V403.638ZM310.353 400.372L308.284 403.583V403.638H310.425V400.372H310.353ZM313.354 401.95H316.534V402.975H313.354V401.95ZM319.144 398.928H320.363V406H319.085V400.168H319.044L317.39 401.224V400.061L319.144 398.928ZM323.481 398.928H324.7V406H323.422V400.168H323.381L321.727 401.224V400.061L323.481 398.928ZM326.209 401.95H329.389V402.975H326.209V401.95ZM331.999 398.928H333.218V406H331.94V400.168H331.899L330.245 401.224V400.061L331.999 398.928ZM336.336 398.928H337.555V406H336.277V400.168H336.236L334.582 401.224V400.061L336.336 398.928Z" fill="black" fill-opacity="0.22"/>
<rect x="90.5" y="444.5" width="499" height="67" rx="5.5" stroke="#EEEEEE"/>
<path d="M116.59 482L116.587 481.078L119.084 478.671C119.355 478.4 119.565 478.176 119.712 478.001C119.862 477.826 119.976 477.655 120.054 477.487C120.134 477.317 120.175 477.136 120.175 476.945C120.175 476.728 120.122 476.538 120.016 476.375C119.91 476.212 119.764 476.086 119.577 475.999C119.393 475.911 119.186 475.867 118.956 475.867C118.716 475.867 118.506 475.916 118.324 476.012C118.144 476.107 118.006 476.243 117.91 476.42C117.813 476.597 117.765 476.804 117.765 477.041H116.556C116.554 476.602 116.655 476.215 116.86 475.881C117.065 475.547 117.35 475.29 117.716 475.108C118.084 474.924 118.503 474.831 118.973 474.831C119.445 474.831 119.864 474.92 120.23 475.097C120.596 475.272 120.88 475.515 121.083 475.826C121.288 476.137 121.39 476.488 121.39 476.879C121.388 477.155 121.335 477.42 121.231 477.673C121.128 477.924 120.948 478.205 120.693 478.516C120.439 478.824 120.079 479.198 119.612 479.638L118.358 480.885V480.936H121.497V482H116.59ZM124.967 482.135C124.4 482.135 123.914 481.991 123.506 481.703C123.099 481.413 122.787 480.994 122.57 480.446C122.356 479.896 122.249 479.238 122.249 478.471C122.249 477.707 122.357 477.052 122.574 476.506C122.79 475.961 123.102 475.545 123.51 475.26C123.917 474.974 124.403 474.831 124.967 474.831C125.528 474.831 126.013 474.975 126.42 475.263C126.828 475.549 127.14 475.964 127.356 476.51C127.575 477.055 127.684 477.709 127.684 478.471C127.684 479.24 127.576 479.899 127.36 480.45C127.143 480.997 126.831 481.415 126.424 481.703C126.019 481.991 125.533 482.135 124.967 482.135ZM124.967 481.057C125.264 481.057 125.519 480.959 125.733 480.764C125.947 480.566 126.112 480.275 126.227 479.89C126.342 479.503 126.4 479.03 126.4 478.471C126.4 477.916 126.341 477.447 126.224 477.062C126.109 476.675 125.944 476.384 125.73 476.189C125.516 475.991 125.261 475.892 124.967 475.892C124.67 475.892 124.414 475.991 124.2 476.189C123.986 476.384 123.82 476.675 123.703 477.062C123.588 477.447 123.53 477.916 123.53 478.471C123.53 479.03 123.588 479.503 123.703 479.89C123.818 480.275 123.983 480.566 124.197 480.764C124.413 480.959 124.67 481.057 124.967 481.057ZM128.497 482L128.494 481.078L130.99 478.671C131.262 478.4 131.471 478.176 131.619 478.001C131.768 477.826 131.882 477.655 131.961 477.487C132.041 477.317 132.081 477.136 132.081 476.945C132.081 476.728 132.028 476.538 131.923 476.375C131.817 476.212 131.67 476.086 131.484 475.999C131.3 475.911 131.093 475.867 130.862 475.867C130.623 475.867 130.412 475.916 130.231 476.012C130.051 476.107 129.913 476.243 129.816 476.42C129.72 476.597 129.671 476.804 129.671 477.041H128.463C128.46 476.602 128.562 476.215 128.766 475.881C128.971 475.547 129.257 475.29 129.623 475.108C129.991 474.924 130.41 474.831 130.88 474.831C131.352 474.831 131.771 474.92 132.137 475.097C132.503 475.272 132.787 475.515 132.99 475.826C133.194 476.137 133.297 476.488 133.297 476.879C133.295 477.155 133.242 477.42 133.138 477.673C133.034 477.924 132.855 478.205 132.599 478.516C132.346 478.824 131.986 479.198 131.519 479.638L130.265 480.885V480.936H133.404V482H128.497ZM136.773 482.097C136.311 482.097 135.892 482.01 135.516 481.838C135.143 481.665 134.848 481.426 134.629 481.119C134.41 480.813 134.295 480.467 134.284 480.08H135.52C135.534 480.269 135.598 480.439 135.713 480.591C135.828 480.741 135.978 480.858 136.162 480.943C136.349 481.026 136.552 481.068 136.773 481.068C137.033 481.068 137.267 481.01 137.474 480.895C137.681 480.778 137.843 480.616 137.958 480.412C138.075 480.204 138.134 479.971 138.134 479.711C138.134 479.444 138.073 479.205 137.951 478.996C137.831 478.784 137.663 478.619 137.447 478.502C137.233 478.385 136.991 478.326 136.721 478.326C136.164 478.326 135.778 478.527 135.561 478.93H134.387L134.808 474.928H138.987V475.992H135.858L135.644 477.87H135.706C135.849 477.711 136.042 477.582 136.286 477.483C136.53 477.384 136.795 477.335 137.081 477.335C137.513 477.335 137.904 477.436 138.251 477.639C138.599 477.839 138.872 478.118 139.07 478.474C139.268 478.829 139.367 479.23 139.367 479.676C139.367 480.141 139.256 480.558 139.035 480.926C138.816 481.294 138.51 481.582 138.117 481.789C137.725 481.994 137.277 482.097 136.773 482.097ZM147.285 480.553H146.201V477.611H143.894V476.751H146.201V475.95H143.894V475.094H146.201V474.051H147.285V480.553ZM144.947 479.044C144.317 479.162 143.7 479.242 143.096 479.286C142.493 479.327 141.825 479.349 141.09 479.352H140.4V474.635H141.474V478.454C142.077 478.449 142.648 478.425 143.186 478.381C143.727 478.335 144.279 478.262 144.84 478.16L144.947 479.044ZM142.575 479.977V481.817H147.503V482.698H141.48V479.977H142.575ZM152.346 474.928H153.565V482H152.288V476.168H152.246L150.592 477.224V476.061L152.346 474.928ZM160.665 474.324H161.746V477.915H155.779V474.324H156.853V475.318H160.665V474.324ZM156.853 477.055H160.665V476.13H156.853V477.055ZM154.729 479.479V478.616H162.799V479.479H159.391V480.999H158.317V479.479H154.729ZM155.706 480.267H156.784V481.817H161.908V482.698H155.706V480.267ZM169.403 482.863V474.044H170.498V482.863H169.403ZM167.867 474.98C167.864 475.898 167.731 476.743 167.466 477.515C167.204 478.283 166.769 478.989 166.161 479.631C165.556 480.273 164.754 480.832 163.758 481.306L163.188 480.436C163.952 480.072 164.586 479.663 165.091 479.21C165.597 478.754 165.986 478.249 166.258 477.694C166.529 477.137 166.697 476.519 166.762 475.84H163.637V474.98H167.867ZM177.845 478.336C177.631 478.576 177.372 478.762 177.068 478.896C176.764 479.029 176.437 479.096 176.088 479.096C175.65 479.096 175.253 478.999 174.896 478.806C174.542 478.61 174.263 478.341 174.061 477.998C173.858 477.655 173.758 477.269 173.76 476.841C173.758 476.411 173.858 476.024 174.061 475.681C174.263 475.336 174.542 475.066 174.896 474.873C175.251 474.677 175.648 474.578 176.088 474.576C176.437 474.578 176.764 474.646 177.068 474.78C177.372 474.911 177.63 475.096 177.842 475.336H179.948V474.051H181.032V480.526H179.948V478.336H177.845ZM174.793 476.841C174.793 477.099 174.848 477.326 174.958 477.521C175.069 477.717 175.222 477.869 175.418 477.977C175.613 478.083 175.837 478.136 176.088 478.136C176.329 478.136 176.547 478.083 176.74 477.977C176.934 477.869 177.086 477.717 177.196 477.521C177.309 477.326 177.365 477.099 177.365 476.841C177.365 476.583 177.309 476.357 177.196 476.161C177.086 475.965 176.934 475.814 176.74 475.709C176.547 475.6 176.329 475.546 176.088 475.546C175.837 475.546 175.613 475.6 175.418 475.709C175.222 475.814 175.069 475.965 174.958 476.161C174.848 476.357 174.793 476.583 174.793 476.841ZM179.948 476.213H178.315C178.372 476.418 178.401 476.627 178.401 476.841C178.401 477.046 178.373 477.252 178.318 477.459H179.948V476.213ZM176.326 479.866V481.817H181.253V482.698H175.242V479.866H176.326ZM186.587 477.59V478.357H190.071V479.231H182.029V478.357H185.5V477.59H183.069V474.289H184.143V475.128H187.955V474.289H189.035V477.59H186.587ZM187.955 475.954H184.143V476.741H187.955V475.954ZM186.038 479.728C186.674 479.728 187.22 479.789 187.678 479.911C188.139 480.033 188.491 480.211 188.735 480.446C188.981 480.681 189.105 480.964 189.105 481.296C189.105 481.629 188.981 481.913 188.735 482.145C188.491 482.38 188.14 482.557 187.682 482.677C187.224 482.799 186.676 482.859 186.038 482.856C185.396 482.856 184.846 482.797 184.388 482.677C183.93 482.557 183.58 482.38 183.338 482.145C183.096 481.913 182.975 481.629 182.975 481.296C182.975 480.964 183.096 480.681 183.338 480.446C183.58 480.211 183.93 480.033 184.388 479.911C184.848 479.789 185.398 479.728 186.038 479.728ZM186.038 482.028C186.674 482.032 187.159 481.972 187.495 481.848C187.831 481.721 188 481.537 188 481.296C188 481.052 187.833 480.869 187.499 480.747C187.165 480.622 186.678 480.56 186.038 480.56C185.391 480.56 184.9 480.622 184.564 480.747C184.228 480.869 184.061 481.052 184.063 481.296C184.061 481.537 184.229 481.721 184.567 481.848C184.906 481.972 185.396 482.032 186.038 482.028ZM193.492 474.849H195.364V475.712H190.436V474.849H192.412V473.968H193.492V474.849ZM196.728 475.988V474.044H197.812V479.282H196.728V478.595H195.416V477.718H196.728V476.865H195.429V475.988H196.728ZM195.008 477.625C195.006 477.938 194.916 478.215 194.739 478.457C194.564 478.699 194.32 478.887 194.007 479.02C193.694 479.151 193.339 479.217 192.943 479.217C192.543 479.217 192.187 479.151 191.876 479.02C191.568 478.887 191.327 478.7 191.155 478.461C190.982 478.219 190.897 477.94 190.899 477.625C190.897 477.312 190.982 477.035 191.155 476.793C191.327 476.551 191.569 476.363 191.88 476.23C192.191 476.094 192.545 476.026 192.943 476.026C193.339 476.026 193.693 476.094 194.003 476.23C194.316 476.363 194.562 476.551 194.739 476.793C194.916 477.035 195.006 477.312 195.008 477.625ZM191.911 477.625C191.911 477.788 191.952 477.93 192.035 478.05C192.12 478.169 192.24 478.262 192.394 478.326C192.551 478.39 192.734 478.423 192.943 478.423C193.148 478.423 193.33 478.39 193.489 478.326C193.648 478.262 193.772 478.169 193.862 478.05C193.952 477.928 193.996 477.786 193.996 477.625C193.996 477.464 193.952 477.325 193.862 477.207C193.772 477.09 193.648 477 193.489 476.938C193.332 476.876 193.15 476.845 192.943 476.845C192.734 476.845 192.551 476.876 192.394 476.938C192.24 477 192.12 477.09 192.035 477.207C191.952 477.325 191.911 477.464 191.911 477.625ZM193.016 480.37H196.735V479.628H197.812V482.76H191.935V479.628H193.016V480.37ZM193.016 481.914H196.735V481.189H193.016V481.914ZM205.774 474.044V476.185H207.006V477.09H205.774V479.32H204.683V474.044H205.774ZM201.409 477.1C201.213 477.579 200.937 477.993 200.58 478.343C200.224 478.693 199.795 478.957 199.296 479.134L198.709 478.278C199.169 478.116 199.559 477.887 199.879 477.59C200.202 477.294 200.443 476.953 200.605 476.568C200.766 476.182 200.847 475.774 200.85 475.346V474.51H201.934V475.446C201.934 475.821 202.013 476.18 202.172 476.523C202.333 476.864 202.569 477.167 202.88 477.432C203.191 477.696 203.567 477.899 204.009 478.039L203.429 478.885C202.962 478.727 202.557 478.494 202.214 478.188C201.871 477.879 201.602 477.517 201.409 477.1ZM202.901 479.517C203.506 479.517 204.03 479.583 204.472 479.714C204.916 479.845 205.257 480.036 205.494 480.287C205.733 480.536 205.853 480.834 205.853 481.182C205.853 481.534 205.733 481.835 205.494 482.086C205.257 482.337 204.916 482.528 204.472 482.66C204.03 482.791 203.506 482.856 202.901 482.856C202.286 482.856 201.754 482.791 201.306 482.66C200.859 482.528 200.515 482.337 200.273 482.086C200.034 481.835 199.914 481.534 199.914 481.182C199.914 480.834 200.034 480.536 200.273 480.287C200.515 480.036 200.86 479.845 201.309 479.714C201.758 479.583 202.288 479.517 202.901 479.517ZM202.901 482.003C203.511 482.001 203.977 481.931 204.299 481.793C204.624 481.655 204.786 481.451 204.786 481.182C204.786 480.922 204.623 480.721 204.296 480.581C203.969 480.438 203.504 480.367 202.901 480.367C202.498 480.367 202.154 480.399 201.868 480.463C201.585 480.526 201.369 480.618 201.219 480.74C201.072 480.862 200.998 481.009 200.998 481.182C200.996 481.451 201.159 481.655 201.489 481.793C201.818 481.931 202.288 482.001 202.901 482.003ZM215.883 477.494V474.044H216.912V482.863H215.883V478.371H214.889V482.425H213.891V474.21H214.889V477.494H215.883ZM210.68 479.89C211.195 479.886 211.659 479.867 212.071 479.835C212.483 479.803 212.902 479.745 213.328 479.662L213.414 480.553C212.92 480.652 212.433 480.718 211.954 480.75C211.477 480.782 210.89 480.801 210.193 480.805H209.592V475.087H212.89V475.961H210.68V479.89ZM224.674 474.044V476.185H225.907V477.09H224.674V479.32H223.583V474.044H224.674ZM220.309 477.1C220.113 477.579 219.837 477.993 219.48 478.343C219.124 478.693 218.695 478.957 218.196 479.134L217.609 478.278C218.069 478.116 218.459 477.887 218.779 477.59C219.102 477.294 219.343 476.953 219.505 476.568C219.666 476.182 219.747 475.774 219.75 475.346V474.51H220.834V475.446C220.834 475.821 220.913 476.18 221.072 476.523C221.233 476.864 221.469 477.167 221.78 477.432C222.091 477.696 222.467 477.899 222.909 478.039L222.329 478.885C221.862 478.727 221.457 478.494 221.114 478.188C220.771 477.879 220.503 477.517 220.309 477.1ZM221.801 479.517C222.406 479.517 222.93 479.583 223.372 479.714C223.816 479.845 224.157 480.036 224.394 480.287C224.634 480.536 224.753 480.834 224.753 481.182C224.753 481.534 224.634 481.835 224.394 482.086C224.157 482.337 223.816 482.528 223.372 482.66C222.93 482.791 222.406 482.856 221.801 482.856C221.186 482.856 220.654 482.791 220.206 482.66C219.759 482.528 219.415 482.337 219.173 482.086C218.934 481.835 218.814 481.534 218.814 481.182C218.814 480.834 218.934 480.536 219.173 480.287C219.415 480.036 219.76 479.845 220.209 479.714C220.658 479.583 221.189 479.517 221.801 479.517ZM221.801 482.003C222.411 482.001 222.877 481.931 223.199 481.793C223.524 481.655 223.686 481.451 223.686 481.182C223.686 480.922 223.523 480.721 223.196 480.581C222.869 480.438 222.404 480.367 221.801 480.367C221.398 480.367 221.054 480.399 220.768 480.463C220.485 480.526 220.269 480.618 220.119 480.74C219.972 480.862 219.898 481.009 219.898 481.182C219.896 481.451 220.059 481.655 220.389 481.793C220.718 481.931 221.189 482.001 221.801 482.003ZM233.012 477.477H234.372V478.388H233.012V482.863H231.924V474.044H233.012V477.477ZM229.265 476.548C229.263 477.008 229.349 477.473 229.524 477.943C229.702 478.412 229.957 478.839 230.291 479.224C230.627 479.608 231.019 479.905 231.468 480.115L230.861 480.971C230.377 480.745 229.952 480.413 229.586 479.973C229.223 479.531 228.938 479.025 228.734 478.454C228.529 479.075 228.237 479.628 227.86 480.111C227.482 480.592 227.046 480.953 226.551 481.192L225.912 480.336C226.366 480.122 226.764 479.812 227.107 479.407C227.45 478.999 227.714 478.545 227.898 478.043C228.082 477.541 228.175 477.043 228.178 476.548V475.805H226.254V474.914H231.109V475.805H229.265V476.548ZM241.167 477.466V478.398H244.651V479.276H236.609V478.398H240.079V477.466H237.621V474.4H243.629V477.466H241.167ZM242.559 475.253H238.681V476.606H242.559V475.253ZM242.579 480.874H237.5V480.018H243.671V482.863H242.579V480.874ZM249.56 478.081V478.816H253.058V479.693H244.989V478.816H248.486V478.081H246.011V475.743H250.976V475.084H245.99V474.234H252.06V476.534H247.088V477.238H252.233V478.081H249.56ZM251.018 481.113H245.89V480.249H252.109V482.811H251.018V481.113ZM262.073 482.863V474.044H263.12V482.863H262.073ZM259.166 477.307H260.257V474.217H261.272V482.442H260.257V478.184H259.166V477.307ZM256.835 479.98C257.376 479.975 257.846 479.958 258.244 479.928C258.642 479.896 259.051 479.843 259.47 479.769L259.566 480.646C259.099 480.736 258.641 480.794 258.192 480.819C257.746 480.844 257.142 480.858 256.383 480.86H255.803V475.052H259.097V475.916H256.835V477.428H258.731V478.264H256.835V479.98ZM267.887 476.824C267.694 477.215 267.435 477.573 267.11 477.898C266.788 478.22 266.414 478.494 265.988 478.72C265.564 478.945 265.109 479.11 264.621 479.213L264.144 478.309C264.738 478.201 265.276 477.991 265.757 477.68C266.238 477.369 266.615 476.999 266.889 476.568C267.166 476.138 267.305 475.698 267.307 475.249V474.6H268.46V475.249C268.46 475.703 268.597 476.145 268.871 476.575C269.145 477.006 269.524 477.376 270.007 477.687C270.493 477.996 271.038 478.203 271.641 478.309L271.154 479.213C270.663 479.112 270.205 478.95 269.78 478.727C269.356 478.501 268.982 478.226 268.657 477.901C268.335 477.577 268.078 477.218 267.887 476.824ZM263.899 481.744V480.847H271.969V481.744H263.899ZM274.374 478.671H279.464V479.531H273.273V474.735H279.385V475.615H274.374V476.672H279.185V477.532H274.374V478.671ZM272.289 481.796V480.909H280.359V481.796H272.289Z" fill="black"/>
<path d="M289.59 482L289.587 481.078L292.084 478.671C292.355 478.4 292.565 478.176 292.712 478.001C292.862 477.826 292.976 477.655 293.054 477.487C293.134 477.317 293.175 477.136 293.175 476.945C293.175 476.728 293.122 476.538 293.016 476.375C292.91 476.212 292.764 476.086 292.577 475.999C292.393 475.911 292.186 475.867 291.956 475.867C291.716 475.867 291.506 475.916 291.324 476.012C291.144 476.107 291.006 476.243 290.91 476.42C290.813 476.597 290.765 476.804 290.765 477.041H289.556C289.554 476.602 289.655 476.215 289.86 475.881C290.065 475.547 290.35 475.29 290.716 475.108C291.084 474.924 291.503 474.831 291.973 474.831C292.445 474.831 292.864 474.92 293.23 475.097C293.596 475.272 293.88 475.515 294.083 475.826C294.288 476.137 294.39 476.488 294.39 476.879C294.388 477.155 294.335 477.42 294.231 477.673C294.128 477.924 293.948 478.205 293.693 478.516C293.439 478.824 293.079 479.198 292.612 479.638L291.358 480.885V480.936H294.497V482H289.59ZM297.967 482.135C297.4 482.135 296.914 481.991 296.506 481.703C296.099 481.413 295.787 480.994 295.57 480.446C295.356 479.896 295.249 479.238 295.249 478.471C295.249 477.707 295.357 477.052 295.574 476.506C295.79 475.961 296.102 475.545 296.51 475.26C296.917 474.974 297.403 474.831 297.967 474.831C298.528 474.831 299.013 474.975 299.42 475.263C299.828 475.549 300.14 475.964 300.356 476.51C300.575 477.055 300.684 477.709 300.684 478.471C300.684 479.24 300.576 479.899 300.36 480.45C300.143 480.997 299.831 481.415 299.424 481.703C299.019 481.991 298.533 482.135 297.967 482.135ZM297.967 481.057C298.264 481.057 298.519 480.959 298.733 480.764C298.947 480.566 299.112 480.275 299.227 479.89C299.342 479.503 299.4 479.03 299.4 478.471C299.4 477.916 299.341 477.447 299.224 477.062C299.109 476.675 298.944 476.384 298.73 476.189C298.516 475.991 298.261 475.892 297.967 475.892C297.67 475.892 297.414 475.991 297.2 476.189C296.986 476.384 296.82 476.675 296.703 477.062C296.588 477.447 296.53 477.916 296.53 478.471C296.53 479.03 296.588 479.503 296.703 479.89C296.818 480.275 296.983 480.566 297.197 480.764C297.413 480.959 297.67 481.057 297.967 481.057ZM301.497 482L301.494 481.078L303.99 478.671C304.262 478.4 304.471 478.176 304.619 478.001C304.768 477.826 304.882 477.655 304.961 477.487C305.041 477.317 305.081 477.136 305.081 476.945C305.081 476.728 305.028 476.538 304.923 476.375C304.817 476.212 304.67 476.086 304.484 475.999C304.3 475.911 304.093 475.867 303.862 475.867C303.623 475.867 303.412 475.916 303.231 476.012C303.051 476.107 302.913 476.243 302.816 476.42C302.72 476.597 302.671 476.804 302.671 477.041H301.463C301.46 476.602 301.562 476.215 301.766 475.881C301.971 475.547 302.257 475.29 302.623 475.108C302.991 474.924 303.41 474.831 303.88 474.831C304.352 474.831 304.771 474.92 305.137 475.097C305.503 475.272 305.787 475.515 305.99 475.826C306.194 476.137 306.297 476.488 306.297 476.879C306.295 477.155 306.242 477.42 306.138 477.673C306.034 477.924 305.855 478.205 305.599 478.516C305.346 478.824 304.986 479.198 304.519 479.638L303.265 480.885V480.936H306.404V482H301.497ZM311.623 479.638H312.552V480.684H311.623V482H310.411V480.684H306.979V479.669L310.035 474.928H311.623V479.638ZM310.353 476.372L308.284 479.583V479.638H310.425V476.372H310.353ZM313.354 477.95H316.534V478.975H313.354V477.95ZM319.144 474.928H320.363V482H319.085V476.168H319.044L317.39 477.224V476.061L319.144 474.928ZM323.481 474.928H324.7V482H323.422V476.168H323.381L321.727 477.224V476.061L323.481 474.928ZM326.209 477.95H329.389V478.975H326.209V477.95ZM331.999 474.928H333.218V482H331.94V476.168H331.899L330.245 477.224V476.061L331.999 474.928ZM336.336 474.928H337.555V482H336.277V476.168H336.236L334.582 477.224V476.061L336.336 474.928Z" fill="black" fill-opacity="0.22"/>
<g filter="url(#filter1_d_283_1521)">
<rect x="79" y="292" width="521" height="70.856" rx="6.252" fill="white"/>
<rect x="79.5" y="292.5" width="520" height="69.856" rx="5.752" stroke="url(#paint0_linear_283_1521)"/>
<path d="M106.702 331.176V330.219L109.307 327.706C110.05 326.963 110.437 326.525 110.437 325.905C110.437 325.223 109.898 324.785 109.175 324.785C108.412 324.785 107.923 325.264 107.934 326.006H106.672C106.662 324.612 107.71 323.707 109.185 323.707C110.691 323.707 111.709 324.602 111.709 325.844C111.709 326.678 111.302 327.35 109.857 328.713L108.544 330.016V330.067H111.821V331.176H106.702ZM115.434 331.278C113.664 331.278 112.606 329.904 112.606 327.492C112.606 325.091 113.664 323.707 115.434 323.707C117.195 323.707 118.263 325.091 118.263 327.492C118.263 329.904 117.205 331.278 115.434 331.278ZM115.434 330.168C116.36 330.168 116.93 329.263 116.93 327.492C116.93 325.732 116.35 324.806 115.434 324.806C114.519 324.806 113.939 325.732 113.939 327.492C113.939 329.263 114.508 330.168 115.434 330.168ZM119.109 331.176V330.219L121.714 327.706C122.457 326.963 122.844 326.525 122.844 325.905C122.844 325.223 122.304 324.785 121.582 324.785C120.819 324.785 120.33 325.264 120.34 326.006H119.079C119.068 324.612 120.116 323.707 121.592 323.707C123.098 323.707 124.116 324.602 124.116 325.844C124.116 326.678 123.709 327.35 122.264 328.713L120.951 330.016V330.067H124.228V331.176H119.109ZM127.739 331.278C126.264 331.278 125.185 330.402 125.145 329.181H126.437C126.478 329.782 127.037 330.209 127.739 330.209C128.564 330.209 129.154 329.609 129.154 328.795C129.154 327.95 128.543 327.35 127.699 327.35C127.129 327.34 126.712 327.543 126.478 327.981H125.246L125.694 323.809H130.049V324.918H126.783L126.559 326.871H126.63C126.915 326.546 127.454 326.312 128.055 326.312C129.429 326.312 130.436 327.34 130.436 328.754C130.436 330.229 129.327 331.278 127.739 331.278ZM138.69 322.893V329.67H137.56V326.607H135.159V325.711H137.56V324.877H135.159V323.982H137.56V322.893H138.69ZM138.924 330.982V331.898H132.645V329.069H133.785V330.982H138.924ZM132.635 323.503V327.482C133.805 327.467 134.909 327.395 136.146 327.177L136.258 328.093C134.843 328.357 133.602 328.408 132.238 328.418H131.516V323.503H132.635ZM145.235 323.809V331.176H143.902V325.101H143.862L142.142 326.2V324.989L143.963 323.809H145.235ZM154.853 327.645V328.55H151.301V330.138H150.182V328.55H146.447V327.645H154.853ZM153.927 330.982V331.898H147.465V329.364H148.584V330.982H153.927ZM148.666 323.178V324.216H152.634V323.178H153.754V326.922H147.546V323.178H148.666ZM148.666 326.027H152.634V325.06H148.666V326.027ZM162.883 322.883V332.081H161.743V322.883H162.883ZM160.135 323.859C160.135 326.597 159.077 328.927 155.851 330.453L155.261 329.548C157.667 328.403 158.787 326.846 158.985 324.755H155.729V323.859H160.135ZM173.855 322.893V329.639H172.725V327.36H170.537C170.095 327.853 169.443 328.154 168.706 328.154C167.322 328.154 166.274 327.156 166.274 325.803C166.274 324.429 167.322 323.442 168.706 323.442C169.438 323.442 170.084 323.737 170.527 324.226H172.725V322.893H173.855ZM174.089 330.982V331.898H167.82V328.947H168.95V330.982H174.089ZM168.706 324.45C167.912 324.45 167.352 324.979 167.352 325.803C167.352 326.617 167.912 327.146 168.706 327.146C169.459 327.146 170.028 326.617 170.039 325.803C170.028 324.979 169.459 324.45 168.706 324.45ZM171.026 325.142C171.082 325.35 171.117 325.569 171.117 325.803C171.117 326.027 171.087 326.241 171.036 326.444H172.725V325.142H171.026ZM183.279 327.38V328.296H174.894V327.38H178.506V326.576H175.983V323.137H177.102V324.012H181.07V323.137H182.19V326.576H179.646V327.38H183.279ZM179.076 328.805C181.06 328.805 182.261 329.395 182.271 330.443C182.261 331.491 181.06 332.071 179.076 332.071C177.061 332.071 175.881 331.491 175.881 330.443C175.881 329.395 177.061 328.805 179.076 328.805ZM179.076 329.67C177.733 329.68 177.01 329.924 177.01 330.443C177.01 330.952 177.733 331.206 179.076 331.206C180.389 331.206 181.111 330.952 181.121 330.443C181.111 329.924 180.389 329.68 179.076 329.67ZM177.102 325.691H181.07V324.877H177.102V325.691ZM188.795 323.727V324.623H183.656V323.727H185.712V322.811H186.841V323.727H188.795ZM186.261 324.948C187.513 324.948 188.408 325.63 188.419 326.617C188.408 327.614 187.513 328.276 186.261 328.276C185.01 328.276 184.124 327.614 184.135 326.617C184.124 325.63 185.01 324.948 186.261 324.948ZM186.261 325.803C185.61 325.803 185.183 326.108 185.193 326.617C185.183 327.126 185.61 327.451 186.261 327.451C186.913 327.451 187.36 327.126 187.36 326.617C187.36 326.108 186.913 325.803 186.261 325.803ZM191.339 322.883V328.347H190.209V327.624H188.846V326.719H190.209V325.823H188.856V324.908H190.209V322.883H191.339ZM186.343 328.703V329.476H190.22V328.703H191.339V331.969H185.213V328.703H186.343ZM186.343 331.084H190.22V330.331H186.343V331.084ZM195.634 324.348C195.634 325.508 196.387 326.597 197.802 327.044L197.191 327.93C196.199 327.594 195.487 326.922 195.095 326.068C194.688 327.044 193.945 327.813 192.887 328.184L192.276 327.299C193.762 326.78 194.495 325.559 194.505 324.246V323.371H195.634V324.348ZM199.633 322.883V325.121H200.916V326.057H199.633V328.388H198.504V322.883H199.633ZM196.642 328.591C198.545 328.581 199.715 329.232 199.725 330.321C199.715 331.43 198.545 332.071 196.642 332.071C194.719 332.071 193.528 331.43 193.528 330.321C193.528 329.232 194.719 328.581 196.642 328.591ZM196.642 329.476C195.38 329.476 194.658 329.782 194.658 330.321C194.658 330.891 195.38 331.176 196.642 331.176C197.904 331.176 198.606 330.891 198.606 330.321C198.606 329.782 197.904 329.476 196.642 329.476ZM211.247 322.883V332.081H210.168V327.39H209.13V331.613H208.092V323.056H209.13V326.485H210.168V322.883H211.247ZM207.054 323.971V324.887H204.754V328.978C205.757 328.968 206.581 328.917 207.512 328.744L207.593 329.67C206.484 329.894 205.518 329.924 204.235 329.934H203.615V323.971H207.054ZM215.328 324.348C215.328 325.508 216.081 326.597 217.496 327.044L216.885 327.93C215.893 327.594 215.181 326.922 214.789 326.068C214.382 327.044 213.639 327.813 212.581 328.184L211.97 327.299C213.456 326.78 214.189 325.559 214.199 324.246V323.371H215.328V324.348ZM219.327 322.883V325.121H220.609V326.057H219.327V328.388H218.198V322.883H219.327ZM216.336 328.591C218.239 328.581 219.409 329.232 219.419 330.321C219.409 331.43 218.239 332.071 216.336 332.071C214.412 332.071 213.222 331.43 213.222 330.321C213.222 329.232 214.412 328.581 216.336 328.591ZM216.336 329.476C215.074 329.476 214.351 329.782 214.351 330.321C214.351 330.891 215.074 331.176 216.336 331.176C217.597 331.176 218.3 330.891 218.3 330.321C218.3 329.782 217.597 329.476 216.336 329.476ZM224.111 325.498C224.111 326.922 224.956 328.54 226.411 329.212L225.78 330.107C224.742 329.619 223.974 328.632 223.562 327.482C223.145 328.744 222.341 329.822 221.282 330.331L220.621 329.446C222.086 328.754 222.972 327.024 222.982 325.498V324.724H220.977V323.788H226.034V324.724H224.111V325.498ZM228.019 322.883V326.464H229.433V327.411H228.019V332.081H226.889V322.883H228.019ZM239.082 323.259V326.454H236.518V327.421H240.151V328.337H231.766V327.421H235.378V326.454H232.824V323.259H239.082ZM233.923 324.144V325.559H237.963V324.144H233.923ZM239.123 329.11V332.081H237.993V330.006H232.692V329.11H239.123ZM248.903 327.858V328.774H240.498V327.858H244.141V327.095H241.566V324.653H246.736V323.971H241.536V323.086H247.865V325.477H242.686V326.21H248.048V327.095H245.26V327.858H248.903ZM247.916 329.354V332.02H246.776V330.25H241.434V329.354H247.916ZM255.204 323.941V324.836H252.844V326.414H254.818V327.289H252.844V329.069C253.938 329.059 254.691 329.008 255.591 328.856L255.693 329.761C254.635 329.965 253.759 329.985 252.365 329.985H251.765V323.941H255.204ZM259.397 322.883V332.081H258.298V322.883H259.397ZM257.463 323.066V331.634H256.405V327.197H255.265V326.281H256.405V323.066H257.463ZM264.954 324.144C264.954 325.569 266.348 326.994 268.271 327.329L267.763 328.276C266.221 327.95 264.959 327.019 264.364 325.783C263.753 327.009 262.492 327.945 260.955 328.276L260.456 327.329C262.359 326.983 263.743 325.559 263.753 324.144V323.463H264.954V324.144ZM268.607 329.975V330.911H260.202V329.975H268.607ZM276.423 327.706V328.601H269.972V323.605H276.342V324.521H271.122V325.63H276.128V326.515H271.122V327.706H276.423ZM277.349 330.036V330.962H268.944V330.036H277.349Z" fill="black"/>
<path d="M286.968 331.176V330.219L289.573 327.706C290.316 326.963 290.703 326.525 290.703 325.905C290.703 325.223 290.164 324.785 289.441 324.785C288.678 324.785 288.19 325.264 288.2 326.006H286.938C286.928 324.612 287.976 323.707 289.451 323.707C290.957 323.707 291.975 324.602 291.975 325.844C291.975 326.678 291.568 327.35 290.123 328.713L288.81 330.016V330.067H292.087V331.176H286.968ZM295.701 331.278C293.93 331.278 292.872 329.904 292.872 327.492C292.872 325.091 293.93 323.707 295.701 323.707C297.461 323.707 298.529 325.091 298.529 327.492C298.529 329.904 297.471 331.278 295.701 331.278ZM295.701 330.168C296.627 330.168 297.196 329.263 297.196 327.492C297.196 325.732 296.616 324.806 295.701 324.806C294.785 324.806 294.205 325.732 294.205 327.492C294.205 329.263 294.775 330.168 295.701 330.168ZM299.375 331.176V330.219L301.98 327.706C302.723 326.963 303.11 326.525 303.11 325.905C303.11 325.223 302.57 324.785 301.848 324.785C301.085 324.785 300.596 325.264 300.606 326.006H299.345C299.335 324.612 300.383 323.707 301.858 323.707C303.364 323.707 304.382 324.602 304.382 325.844C304.382 326.678 303.975 327.35 302.53 328.713L301.217 330.016V330.067H304.494V331.176H299.375ZM305.095 329.802V328.744L308.28 323.809H309.929V328.713H310.895V329.802H309.929V331.176H308.667V329.802H305.095ZM306.449 328.713H308.687V325.315H308.606L306.449 328.662V328.713ZM315.048 326.963V328.031H311.731V326.963H315.048ZM319.039 323.809V331.176H317.706V325.101H317.665L315.945 326.2V324.989L317.767 323.809H319.039ZM323.558 323.809V331.176H322.225V325.101H322.184L320.464 326.2V324.989L322.286 323.809H323.558ZM328.443 326.963V328.031H325.126V326.963H328.443ZM332.434 323.809V331.176H331.101V325.101H331.06L329.34 326.2V324.989L331.162 323.809H332.434ZM336.953 323.809V331.176H335.62V325.101H335.579L333.859 326.2V324.989L335.681 323.809H336.953Z" fill="black" fill-opacity="0.22"/>
</g>
<path d="M101.452 104.212H100.052V91.556H101.452V104.212ZM98.106 103.204H96.706V92.97H95.334C95.0353 92.97 94.8253 93.0307 94.704 93.152C94.5827 93.264 94.494 93.432 94.438 93.656L92.058 103.204H90.574L92.968 93.544C93.0333 93.2733 93.108 93.026 93.192 92.802C93.2853 92.578 93.402 92.3867 93.542 92.228C93.6913 92.06 93.8733 91.934 94.088 91.85C94.3027 91.7567 94.5733 91.71 94.9 91.71H98.106V103.204ZM113.832 104.254H103.527V100.908H112.292V100.068H103.5V98.808H105.586V97.688H102.715V96.428H114.504V97.688H111.634V98.808H113.692V101.3C113.692 101.599 113.626 101.813 113.496 101.944C113.365 102.075 113.15 102.14 112.852 102.14H104.928V102.994H113.832V104.254ZM113.622 94.496C113.622 94.86 113.538 95.126 113.37 95.294C113.202 95.462 112.936 95.546 112.572 95.546H103.598V92.424C103.598 92.1253 103.663 91.9107 103.793 91.78C103.924 91.6493 104.139 91.584 104.437 91.584H113.622V94.496ZM112.222 94.286V92.844H104.998V94.286H112.222ZM110.234 98.808V97.688H106.986V98.808H110.234ZM121.073 102.98H115.431V96.414H118.959V92.942H115.403V91.71H120.345V96.568C120.345 96.932 120.261 97.198 120.093 97.366C119.925 97.534 119.659 97.618 119.295 97.618H116.817V101.748H121.073V102.98ZM123.607 104.212H122.221V97.562H120.835V96.274H122.221V91.556H123.607V104.212ZM126.337 104.212H124.937V91.556H126.337V104.212ZM138.255 104.212H136.855V91.556H138.255V104.212ZM135.119 100.32C135.119 100.805 135.03 101.239 134.853 101.622C134.685 102.005 134.442 102.327 134.125 102.588C133.807 102.859 133.425 103.064 132.977 103.204C132.529 103.353 132.025 103.428 131.465 103.428C130.905 103.428 130.401 103.353 129.953 103.204C129.505 103.064 129.122 102.859 128.805 102.588C128.487 102.327 128.24 102.005 128.063 101.622C127.895 101.239 127.811 100.805 127.811 100.32V94.65C127.811 94.1647 127.895 93.7307 128.063 93.348C128.24 92.9653 128.487 92.6433 128.805 92.382C129.122 92.1113 129.505 91.906 129.953 91.766C130.401 91.6167 130.905 91.542 131.465 91.542C132.025 91.542 132.529 91.6167 132.977 91.766C133.425 91.906 133.807 92.1113 134.125 92.382C134.442 92.6433 134.685 92.9653 134.853 93.348C135.03 93.7307 135.119 94.1647 135.119 94.65V100.32ZM129.211 99.914C129.211 100.642 129.379 101.202 129.715 101.594C130.051 101.977 130.634 102.168 131.465 102.168C132.295 102.168 132.879 101.977 133.215 101.594C133.551 101.202 133.719 100.642 133.719 99.914V95.056C133.719 94.328 133.551 93.7727 133.215 93.39C132.879 92.998 132.295 92.802 131.465 92.802C130.634 92.802 130.051 92.998 129.715 93.39C129.379 93.7727 129.211 94.328 129.211 95.056V99.914ZM150.522 100.978H149.122V97.31H146.896V99.004H145.496V92.97H144.264C143.965 92.97 143.751 93.026 143.62 93.138C143.489 93.25 143.377 93.4227 143.284 93.656L141.198 99.004H139.644L141.856 93.334C141.959 93.0633 142.061 92.8253 142.164 92.62C142.267 92.4147 142.393 92.2467 142.542 92.116C142.691 91.976 142.869 91.8733 143.074 91.808C143.289 91.7427 143.555 91.71 143.872 91.71H146.896V92.928H149.122V91.556H150.522V100.978ZM150.606 104.212H140.82V99.76H142.22V102.952H150.606V104.212ZM149.122 96.022V94.216H146.896V96.022H149.122ZM158.278 104.212C157.429 104.212 156.771 103.993 156.304 103.554C155.838 103.125 155.604 102.513 155.604 101.72C155.604 100.927 155.838 100.315 156.304 99.886C156.771 99.4473 157.429 99.228 158.278 99.228H163.024C163.874 99.228 164.532 99.4473 164.998 99.886C165.465 100.315 165.698 100.927 165.698 101.72C165.698 102.513 165.465 103.125 164.998 103.554C164.532 103.993 163.874 104.212 163.024 104.212H158.278ZM162.24 98.36H160.84V92.97H159.468C159.17 92.97 158.955 93.0307 158.824 93.152C158.703 93.264 158.591 93.432 158.488 93.656L156.402 98.36H154.848L157.06 93.334C157.182 93.0727 157.294 92.8393 157.396 92.634C157.499 92.4287 157.62 92.2607 157.76 92.13C157.91 91.99 158.087 91.8873 158.292 91.822C158.498 91.7473 158.759 91.71 159.076 91.71H162.24V98.36ZM162.842 102.952C163.337 102.952 163.701 102.835 163.934 102.602C164.177 102.378 164.298 102.084 164.298 101.72C164.298 101.356 164.177 101.062 163.934 100.838C163.701 100.605 163.337 100.488 162.842 100.488H158.46C157.966 100.488 157.597 100.605 157.354 100.838C157.121 101.062 157.004 101.356 157.004 101.72C157.004 102.084 157.121 102.378 157.354 102.602C157.597 102.835 157.966 102.952 158.46 102.952H162.842ZM165.446 98.92H164.046V91.556H165.446V94.258H167.098V95.546H165.446V98.92ZM175.964 104.212H174.578V97.506H172.996V103.204H171.61V92.97H171.274C171.115 92.97 170.998 93.04 170.924 93.18C170.858 93.32 170.788 93.544 170.714 93.852L168.432 103.204H166.962L169.356 93.474C169.421 93.194 169.5 92.9467 169.594 92.732C169.687 92.508 169.804 92.3213 169.944 92.172C170.084 92.0227 170.256 91.9107 170.462 91.836C170.667 91.752 170.919 91.71 171.218 91.71H172.996V96.218H174.578V91.556H175.964V104.212ZM178.624 104.212H177.224V91.556H178.624V104.212ZM183.233 104.212C182.384 104.212 181.726 103.993 181.259 103.554C180.793 103.125 180.559 102.513 180.559 101.72C180.559 100.927 180.793 100.315 181.259 99.886C181.726 99.4473 182.384 99.228 183.233 99.228H188.119C188.969 99.228 189.627 99.4473 190.093 99.886C190.56 100.315 190.793 100.927 190.793 101.72C190.793 102.513 190.56 103.125 190.093 103.554C189.627 103.993 188.969 104.212 188.119 104.212H183.233ZM187.321 98.36H185.851L184.269 93.264C184.232 93.152 184.195 93.0773 184.157 93.04C184.129 92.9933 184.064 92.97 183.961 92.97H182.995C182.893 92.97 182.823 92.9933 182.785 93.04C182.757 93.0867 182.725 93.1613 182.687 93.264L181.021 98.36H179.551L181.315 92.97H179.733V91.71H187.377V92.97H185.655L187.321 98.36ZM187.937 102.952C188.432 102.952 188.796 102.835 189.029 102.602C189.272 102.378 189.393 102.084 189.393 101.72C189.393 101.356 189.272 101.062 189.029 100.838C188.796 100.605 188.432 100.488 187.937 100.488H183.415C182.921 100.488 182.552 100.605 182.309 100.838C182.076 101.062 181.959 101.356 181.959 101.72C181.959 102.084 182.076 102.378 182.309 102.602C182.552 102.835 182.921 102.952 183.415 102.952H187.937ZM190.541 98.78H189.141V95.532H186.887V94.244H189.141V91.556H190.541V98.78ZM202.711 98.01C202.711 98.374 202.627 98.64 202.459 98.808C202.291 98.976 202.025 99.06 201.661 99.06H192.687V91.626H194.087V94.02H201.311V91.626H202.711V98.01ZM201.311 97.8V95.28H194.087V97.8H201.311ZM203.593 103.372H191.805V102.112H196.999V99.9H198.399V102.112H203.593V103.372Z" fill="black"/>
<g clip-path="url(#clip1_283_1521)">
<rect x="90" y="123" width="500" height="94" rx="8" fill="#F5F6FB"/>
<path d="M118.18 149.58H117.18V146.96H111.2V146.06H118.18V149.58ZM118.18 145.6H117.18V140.54H118.18V145.6ZM115.98 145.4H114.93L113.8 141.76C113.773 141.68 113.747 141.627 113.72 141.6C113.7 141.567 113.653 141.55 113.58 141.55H112.89C112.817 141.55 112.767 141.567 112.74 141.6C112.72 141.633 112.697 141.687 112.67 141.76L111.48 145.4H110.43L111.69 141.55H110.46V140.65H116.12V141.55H114.79L115.98 145.4ZM124.603 143.07C124.476 143.29 124.292 143.477 124.053 143.63C123.819 143.783 123.539 143.9 123.213 143.98C122.886 144.06 122.526 144.1 122.132 144.1C121.739 144.1 121.376 144.06 121.042 143.98C120.716 143.9 120.436 143.783 120.202 143.63C119.969 143.477 119.786 143.29 119.652 143.07C119.526 142.843 119.462 142.583 119.462 142.29C119.462 142.003 119.526 141.747 119.652 141.52C119.786 141.293 119.969 141.103 120.202 140.95C120.436 140.797 120.716 140.68 121.042 140.6C121.376 140.52 121.739 140.48 122.132 140.48C122.526 140.48 122.886 140.52 123.213 140.6C123.539 140.68 123.819 140.797 124.053 140.95C124.292 141.103 124.476 141.293 124.603 141.52C124.736 141.747 124.803 142.003 124.803 142.29C124.803 142.583 124.736 142.843 124.603 143.07ZM126.843 147.92H125.842V146.97H123.612V146.09H125.842V140.54H126.843V147.92ZM126.902 149.58H119.712V147.08H120.712V148.68H126.902V149.58ZM125.192 145.45H122.473V147.03H121.473V145.45H119.222V144.55H125.192V145.45ZM123.332 142.99C123.646 142.843 123.802 142.61 123.802 142.29C123.802 141.97 123.646 141.74 123.332 141.6C123.026 141.453 122.626 141.38 122.132 141.38C121.639 141.38 121.236 141.453 120.922 141.6C120.616 141.74 120.462 141.97 120.462 142.29C120.462 142.61 120.616 142.843 120.922 142.99C121.236 143.13 121.639 143.2 122.132 143.2C122.626 143.2 123.026 143.13 123.332 142.99ZM130.485 149.58C129.878 149.58 129.408 149.423 129.075 149.11C128.742 148.803 128.575 148.367 128.575 147.8C128.575 147.233 128.742 146.797 129.075 146.49C129.408 146.177 129.878 146.02 130.485 146.02H133.975C134.582 146.02 135.052 146.177 135.385 146.49C135.718 146.797 135.885 147.233 135.885 147.8C135.885 148.367 135.718 148.803 135.385 149.11C135.052 149.423 134.582 149.58 133.975 149.58H130.485ZM133.405 145.4H132.355L131.225 141.76C131.198 141.68 131.172 141.627 131.145 141.6C131.125 141.567 131.078 141.55 131.005 141.55H130.315C130.242 141.55 130.192 141.567 130.165 141.6C130.145 141.633 130.122 141.687 130.095 141.76L128.905 145.4H127.855L129.115 141.55H127.985V140.65H133.445V141.55H132.215L133.405 145.4ZM133.845 148.68C134.198 148.68 134.458 148.597 134.625 148.43C134.798 148.27 134.885 148.06 134.885 147.8C134.885 147.54 134.798 147.33 134.625 147.17C134.458 147.003 134.198 146.92 133.845 146.92H130.615C130.262 146.92 129.998 147.003 129.825 147.17C129.658 147.33 129.575 147.54 129.575 147.8C129.575 148.06 129.658 148.27 129.825 148.43C129.998 148.597 130.262 148.68 130.615 148.68H133.845ZM135.705 145.7H134.705V143.38H133.095V142.46H134.705V140.54H135.705V145.7ZM144.398 145.15C144.398 145.41 144.338 145.6 144.218 145.72C144.098 145.84 143.908 145.9 143.648 145.9H137.238V140.59H138.238V142.3H143.398V140.59H144.398V145.15ZM143.398 145V143.2H138.238V145H143.398ZM145.028 148.98H136.608V148.08H140.318V146.5H141.318V148.08H145.028V148.98Z" fill="black"/>
<path d="M110.871 164.146H182.483V183.5H107.646V167.371C107.646 165.59 109.09 164.146 110.871 164.146Z" fill="#F4F6FC"/>
<path d="M110.871 164.146H182.483V183.5H107.646V167.371C107.646 165.59 109.09 164.146 110.871 164.146Z" stroke="#EEEEEE" stroke-width="1.29032"/>
<path d="M136.288 172.055C136.282 173.069 136.793 174.103 137.675 174.525L137.246 175.086C136.629 174.774 136.185 174.172 135.942 173.448C135.693 174.222 135.227 174.865 134.575 175.193L134.146 174.632C135.06 174.197 135.583 173.107 135.589 172.055V171.148H136.288V172.055ZM138.714 170.688V172.918H139.59V173.517H138.714V176.383H138.015V170.688H138.714ZM144.411 170.694V175.004H143.706V174.506H142.591V174.015H143.706V170.694H144.411ZM144.544 175.703V176.27H140.367V174.588H141.066V175.703H144.544ZM139.611 173.252C140.663 173.246 142.074 173.233 143.284 173.082L143.322 173.586C142.852 173.665 142.367 173.718 141.885 173.75V174.846H141.186V173.788C140.653 173.81 140.146 173.813 139.699 173.813L139.611 173.252ZM141.469 170.902C142.301 170.902 142.88 171.312 142.887 171.91C142.88 172.521 142.301 172.912 141.469 172.912C140.625 172.912 140.045 172.521 140.045 171.91C140.045 171.312 140.625 170.902 141.469 170.902ZM141.469 171.419C141.016 171.419 140.707 171.601 140.707 171.91C140.707 172.219 141.016 172.402 141.469 172.402C141.904 172.402 142.213 172.219 142.219 171.91C142.213 171.601 141.904 171.419 141.469 171.419ZM149.787 170.694V174.897H149.088V172.799H147.941V173.97H145.276V171.066H145.976V171.986H147.248V171.066H147.941V172.232H149.088V170.694H149.787ZM149.913 175.703V176.27H146.032V174.481H146.744V175.703H149.913ZM145.976 173.416H147.248V172.528H145.976V173.416ZM155.34 171.45V172.017H150.634V171.45H152.643V170.764H153.336V171.45H155.34ZM155.605 175.205V175.772H150.4V175.205H152.643V174.506C151.657 174.427 151.062 174.033 151.068 173.403C151.062 172.717 151.799 172.307 152.99 172.307C154.162 172.307 154.905 172.717 154.905 173.403C154.905 174.03 154.307 174.424 153.336 174.5V175.205H155.605ZM152.99 172.855C152.215 172.862 151.78 173.044 151.786 173.403C151.78 173.769 152.215 173.952 152.99 173.958C153.752 173.952 154.187 173.769 154.187 173.403C154.187 173.044 153.752 172.862 152.99 172.855Z" fill="black"/>
<rect x="182.484" y="164.145" width="74.8387" height="19.3548" fill="#F4F6FC"/>
<rect x="182.484" y="164.145" width="74.8387" height="19.3548" stroke="#EEEEEE" stroke-width="1.29032"/>
<path d="M219.79 174.002V174.556H217.522V176.383H216.829V174.556H214.586V174.002H219.79ZM215.909 170.915V171.614H218.454V170.915H219.16V173.41H215.216V170.915H215.909ZM215.909 172.843H218.454V172.169H215.909V172.843ZM222.079 172.055C222.079 173.114 222.583 174.153 223.49 174.55L223.068 175.111C222.422 174.796 221.969 174.191 221.726 173.448C221.477 174.232 221.014 174.884 220.359 175.218L219.918 174.651C220.844 174.216 221.361 173.12 221.367 172.055V171.148H222.079V172.055ZM224.75 170.688V176.39H224.057V173.095H222.86V172.528H224.057V170.688H224.75Z" fill="black"/>
<rect x="257.322" y="164.145" width="74.8387" height="19.3548" fill="#F4F6FC"/>
<rect x="257.322" y="164.145" width="74.8387" height="19.3548" stroke="#EEEEEE" stroke-width="1.29032"/>
<path d="M291.516 171.507C291.51 172.282 291.963 172.988 292.858 173.271L292.48 173.819C291.86 173.602 291.425 173.189 291.182 172.647C290.93 173.268 290.455 173.756 289.765 173.996L289.393 173.429C290.338 173.12 290.81 172.358 290.81 171.538V170.997H291.516V171.507ZM294.2 170.688V174.04H293.501V172.364H292.367V171.79H293.501V170.688H294.2ZM292.272 174.191C293.482 174.191 294.219 174.594 294.219 175.287C294.219 175.98 293.482 176.377 292.272 176.377C291.069 176.377 290.332 175.98 290.338 175.287C290.332 174.594 291.069 174.191 292.272 174.191ZM292.272 174.733C291.478 174.733 291.031 174.928 291.031 175.287C291.031 175.634 291.478 175.829 292.272 175.829C293.066 175.829 293.52 175.634 293.52 175.287C293.52 174.928 293.066 174.733 292.272 174.733ZM299.582 170.688V174.04H298.883V173.252H297.736V173.693H295.059V171.116H297.736V171.557H298.883V170.688H299.582ZM295.758 171.671V173.132H297.043V171.671H295.758ZM297.655 174.191C298.864 174.191 299.601 174.594 299.601 175.287C299.601 175.98 298.864 176.377 297.655 176.377C296.451 176.377 295.714 175.98 295.72 175.287C295.714 174.594 296.451 174.191 297.655 174.191ZM297.655 174.726C296.861 174.726 296.413 174.922 296.413 175.287C296.413 175.64 296.861 175.835 297.655 175.835C298.448 175.835 298.902 175.64 298.902 175.287C298.902 174.922 298.448 174.726 297.655 174.726ZM297.736 172.685H298.883V172.112H297.736V172.685Z" fill="black"/>
<rect x="332.161" y="164.145" width="74.8387" height="19.3548" fill="#F4F6FC"/>
<rect x="332.161" y="164.145" width="74.8387" height="19.3548" stroke="#EEEEEE" stroke-width="1.29032"/>
<path d="M366.431 171.677C366.431 172.383 366.916 173.082 367.823 173.366L367.464 173.907C366.818 173.703 366.349 173.271 366.09 172.729C365.832 173.318 365.35 173.788 364.673 174.015L364.314 173.473C365.227 173.164 365.719 172.421 365.725 171.677V171.608H364.496V171.047H367.628V171.608H366.431V171.677ZM369.014 170.688V174.122H368.308V170.688H369.014ZM369.014 174.386V176.383H368.308V174.953H365.126V174.386H369.014ZM370.981 173.933V174.588H373.508V173.933H374.201V176.314H370.295V173.933H370.981ZM370.981 175.747H373.508V175.13H370.981V175.747ZM374.22 170.934V171.375C374.22 171.806 374.22 172.282 374.081 172.95H374.856V173.511H369.652V172.95H373.388C373.508 172.348 373.52 171.894 373.52 171.494H370.295V170.934H374.22Z" fill="black"/>
<rect x="407" y="164.145" width="74.8387" height="19.3548" fill="#F4F6FC"/>
<rect x="407" y="164.145" width="74.8387" height="19.3548" stroke="#EEEEEE" stroke-width="1.29032"/>
<path d="M438.258 171.211V171.759C438.251 172.465 438.251 173.258 438.031 174.449L437.325 174.374C437.546 173.265 437.546 172.455 437.552 171.772H434.15V171.211H438.258ZM438.799 175.073V175.646H433.608V175.073H435.523V173.095H436.216V175.073H438.799ZM444.182 173.429V173.989H438.99V173.429H440.2V172.704C439.772 172.524 439.526 172.238 439.526 171.866C439.526 171.186 440.326 170.782 441.58 170.782C442.834 170.782 443.627 171.186 443.634 171.866C443.631 172.241 443.385 172.528 442.953 172.704V173.429H444.182ZM441.58 174.336C442.808 174.33 443.545 174.695 443.552 175.35C443.545 176.012 442.808 176.371 441.58 176.371C440.339 176.371 439.595 176.012 439.595 175.35C439.595 174.695 440.339 174.33 441.58 174.336ZM441.58 174.865C440.748 174.865 440.301 175.029 440.307 175.35C440.301 175.672 440.748 175.842 441.58 175.842C442.392 175.842 442.846 175.672 442.852 175.35C442.846 175.029 442.392 174.865 441.58 174.865ZM441.58 171.324C440.735 171.324 440.25 171.513 440.257 171.866C440.25 172.213 440.735 172.395 441.58 172.395C442.418 172.395 442.909 172.213 442.909 171.866C442.909 171.513 442.418 171.324 441.58 171.324ZM440.906 173.429H442.254V172.887C442.049 172.915 441.822 172.931 441.58 172.931C441.337 172.931 441.11 172.915 440.906 172.887V173.429ZM448.928 171.034V171.545C448.928 172.077 448.928 172.66 448.777 173.466H449.564V174.033H447.302V176.39H446.597V174.033H444.373V173.466H448.065C448.222 172.691 448.228 172.112 448.228 171.601H444.984V171.034H448.928ZM454.953 173.637V174.197H452.754V175.18H452.061V174.197H449.749V173.637H454.953ZM454.379 175.703V176.27H450.379V174.701H451.072V175.703H454.379ZM451.122 170.871V171.513H453.579V170.871H454.272V173.189H450.429V170.871H451.122ZM451.122 172.635H453.579V172.036H451.122V172.635Z" fill="black"/>
<path d="M182.483 183.5V202.854H110.871C109.09 202.854 107.646 201.41 107.646 199.629V183.5H182.483Z" fill="white"/>
<path d="M182.483 183.5V202.854H110.871C109.09 202.854 107.646 201.41 107.646 199.629V183.5H182.483Z" stroke="#EEEEEE" stroke-width="1.29032"/>
<path d="M136.135 193.741V191.756H136.935V195.177H136.16V194.572H136.122C135.965 194.95 135.606 195.221 135.095 195.221C134.421 195.221 133.955 194.755 133.949 193.936V191.756H134.755V193.81C134.755 194.245 135.014 194.522 135.404 194.522C135.757 194.522 136.135 194.264 136.135 193.741ZM138.166 191.756L138.859 193.023L139.564 191.756H140.415L139.381 193.464L140.434 195.177H139.589L138.859 193.942L138.147 195.177H137.29L138.336 193.464L137.315 191.756H138.166ZM140.788 195.177V191.756H141.595V195.177H140.788ZM141.198 191.271C140.946 191.271 140.732 191.076 140.732 190.83C140.732 190.591 140.946 190.395 141.198 190.395C141.456 190.395 141.664 190.591 141.664 190.83C141.664 191.076 141.456 191.271 141.198 191.271ZM144.11 192.733C144.06 192.474 143.846 192.311 143.505 192.311C143.159 192.311 142.907 192.481 142.913 192.714C142.907 192.89 143.052 193.023 143.398 193.104L143.978 193.224C144.627 193.369 144.936 193.665 144.942 194.157C144.936 194.799 144.375 195.247 143.48 195.247C142.611 195.247 142.094 194.856 142.012 194.201H142.831C142.882 194.491 143.109 194.635 143.48 194.635C143.865 194.635 144.123 194.478 144.123 194.226C144.123 194.031 143.965 193.905 143.625 193.829L143.077 193.709C142.441 193.583 142.113 193.249 142.113 192.758C142.113 192.128 142.655 191.712 143.493 191.712C144.312 191.712 144.816 192.109 144.873 192.733H144.11ZM147.206 190.616V195.177H146.38V191.416H146.355L145.29 192.096V191.347L146.418 190.616H147.206ZM149.74 195.24C148.827 195.24 148.159 194.698 148.134 193.942H148.934C148.959 194.314 149.305 194.579 149.74 194.579C150.25 194.579 150.616 194.207 150.616 193.703C150.616 193.18 150.238 192.808 149.715 192.808C149.362 192.802 149.104 192.928 148.959 193.199H148.197L148.474 190.616H151.17V191.302H149.148L149.009 192.512H149.053C149.23 192.311 149.564 192.166 149.935 192.166C150.786 192.166 151.41 192.802 151.41 193.678C151.41 194.591 150.723 195.24 149.74 195.24ZM153.528 190.553C154.423 190.559 155.305 191.088 155.311 192.758C155.311 194.333 154.599 195.24 153.478 195.24C152.596 195.24 151.991 194.692 151.89 193.936H152.703C152.785 194.295 153.062 194.528 153.478 194.528C154.14 194.528 154.511 193.942 154.518 192.966H154.467C154.234 193.363 153.799 193.596 153.295 193.596C152.483 193.596 151.853 192.978 151.846 192.115C151.846 191.221 152.514 190.546 153.528 190.553ZM153.535 191.214C153.024 191.214 152.64 191.611 152.646 192.096C152.646 192.588 153.012 192.972 153.522 192.972C154.026 192.972 154.423 192.563 154.417 192.09C154.417 191.624 154.045 191.214 153.535 191.214Z" fill="black"/>
<rect x="182.484" y="183.5" width="74.8387" height="19.3548" fill="white"/>
<rect x="182.484" y="183.5" width="74.8387" height="19.3548" stroke="#EEEEEE" stroke-width="1.29032"/>
<path d="M219.349 190.042V195.738H218.643V190.042H219.349ZM217.648 190.647C217.648 192.342 216.993 193.785 214.996 194.73L214.63 194.169C216.12 193.46 216.813 192.496 216.936 191.202H214.92V190.647H217.648ZM223.547 190.496V191.013H220.176V190.496H221.506V190.011H222.205V190.496H223.547ZM221.865 191.176C222.696 191.17 223.263 191.504 223.263 192.033C223.263 192.481 222.848 192.78 222.205 192.859V193.161C222.687 193.139 223.169 193.098 223.623 193.041L223.673 193.52C222.451 193.728 221.102 193.747 220.094 193.747L220 193.205C220.453 193.208 220.97 193.205 221.506 193.186V192.852C220.86 192.777 220.453 192.478 220.46 192.033C220.453 191.504 221.014 191.17 221.865 191.176ZM221.865 191.649C221.417 191.643 221.128 191.781 221.134 192.033C221.128 192.266 221.417 192.405 221.865 192.399C222.299 192.405 222.589 192.266 222.596 192.033C222.589 191.781 222.299 191.643 221.865 191.649ZM224.725 190.055V193.886H224.019V190.055H224.725ZM224.725 194.119V195.738H224.019V194.667H220.806V194.119H224.725Z" fill="black"/>
<rect x="257.322" y="183.5" width="74.8387" height="19.3548" fill="white"/>
<rect x="257.322" y="183.5" width="74.8387" height="19.3548" stroke="#EEEEEE" stroke-width="1.29032"/>
<path d="M291.169 190.042V195.744H290.463V190.042H291.169ZM288.1 190.458C288.957 190.458 289.581 191.239 289.587 192.468C289.581 193.709 288.957 194.484 288.1 194.484C287.237 194.484 286.613 193.709 286.613 192.468C286.613 191.239 287.237 190.458 288.1 190.458ZM288.1 191.088C287.615 191.088 287.288 191.599 287.288 192.468C287.288 193.344 287.615 193.854 288.1 193.854C288.579 193.854 288.907 193.344 288.907 192.468C288.907 191.599 288.579 191.088 288.1 191.088ZM297.011 193.237V193.804H295.744V195.738H295.033V193.804H293.772V195.738H293.054V193.804H291.807V193.237H297.011ZM294.396 190.244C295.606 190.25 296.45 190.742 296.45 191.517C296.45 192.279 295.606 192.764 294.396 192.764C293.18 192.764 292.349 192.279 292.355 191.517C292.349 190.742 293.18 190.25 294.396 190.244ZM294.396 190.811C293.59 190.811 293.067 191.069 293.073 191.517C293.067 191.951 293.59 192.21 294.396 192.21C295.203 192.21 295.726 191.951 295.726 191.517C295.726 191.069 295.203 190.811 294.396 190.811ZM302.5 192.241V192.815H301.656V195.725H300.957V190.042H301.656V192.241H302.5ZM298.09 190.597V193.741C298.849 193.728 299.659 193.662 300.516 193.482L300.591 194.075C299.634 194.264 298.72 194.32 297.876 194.32H297.397V190.597H298.09Z" fill="black"/>
<rect x="332.161" y="183.5" width="74.8387" height="19.3548" fill="white"/>
<rect x="332.161" y="183.5" width="74.8387" height="19.3548" stroke="#EEEEEE" stroke-width="1.29032"/>
<path d="M367.338 190.376V190.943H365.297V191.473H367.174V192.021H365.297V192.581C366.361 192.578 367.01 192.559 367.76 192.437L367.829 192.985C367.01 193.13 366.298 193.142 365.07 193.136H364.585V190.376H367.338ZM369.014 190.049V193.432H368.308V190.049H369.014ZM369.014 193.684V195.669H365.234V193.684H369.014ZM365.927 194.226V195.102H368.327V194.226H365.927ZM371.693 191.069C371.693 191.769 372.147 192.424 373.035 192.695L372.701 193.243C372.062 193.045 371.608 192.638 371.359 192.122C371.107 192.72 370.625 193.196 369.942 193.426L369.589 192.871C370.509 192.569 370.988 191.832 370.988 191.076V191.006H369.784V190.439H372.878V191.006H371.693V191.069ZM374.144 190.042V191.41H374.938V191.983H374.144V193.438H373.445V190.042H374.144ZM372.292 193.564C373.47 193.564 374.194 193.961 374.201 194.642C374.194 195.328 373.47 195.732 372.292 195.732C371.101 195.732 370.364 195.328 370.364 194.642C370.364 193.961 371.101 193.564 372.292 193.564ZM372.292 194.112C371.511 194.112 371.063 194.295 371.063 194.642C371.063 194.995 371.511 195.184 372.292 195.184C373.073 195.184 373.508 194.995 373.508 194.642C373.508 194.295 373.073 194.112 372.292 194.112Z" fill="black"/>
<rect x="407" y="183.5" width="74.8387" height="19.3548" fill="white"/>
<rect x="407" y="183.5" width="74.8387" height="19.3548" stroke="#EEEEEE" stroke-width="1.29032"/>
<path d="M440.877 190.042V193.426H440.178V192.033H439.208V191.46H440.178V190.042H440.877ZM438.949 193.571C440.159 193.571 440.896 193.968 440.896 194.654C440.896 195.341 440.159 195.738 438.949 195.738C437.746 195.738 437.009 195.341 437.015 194.654C437.009 193.968 437.746 193.571 438.949 193.571ZM438.949 194.106C438.156 194.106 437.708 194.295 437.708 194.654C437.708 195.007 438.156 195.196 438.949 195.196C439.743 195.196 440.197 195.007 440.197 194.654C440.197 194.295 439.743 194.106 438.949 194.106ZM438.2 191.019C438.2 191.712 438.66 192.411 439.542 192.707L439.189 193.262C438.556 193.048 438.105 192.613 437.859 192.077C437.607 192.685 437.132 193.171 436.454 193.413L436.089 192.859C437.003 192.544 437.488 191.775 437.488 191.025V190.981H436.303V190.414H439.378V190.981H438.2V191.019ZM445.995 190.376V190.773C445.989 191.262 445.989 191.914 445.838 192.84H446.682V193.407H445.397V195.732H444.703V193.407H443.431V195.732H442.725V193.407H441.49V192.84H445.132C445.286 192.024 445.305 191.416 445.308 190.95H442.127V190.376H445.995ZM449.034 191.032C449.034 191.737 449.519 192.437 450.426 192.72L450.067 193.262C449.421 193.057 448.952 192.626 448.693 192.084C448.435 192.673 447.953 193.142 447.276 193.369L446.917 192.827C447.83 192.518 448.322 191.775 448.328 191.032V190.962H447.099V190.402H450.231V190.962H449.034V191.032ZM451.617 190.042V193.476H450.911V190.042H451.617ZM451.617 193.741V195.738H450.911V194.308H447.729V193.741H451.617Z" fill="black"/>
</g>
</g>
<defs>
<filter id="filter0_d_283_1521" x="89.1578" y="245.843" width="50.0111" height="25.6849" filterUnits="userSpaceOnUse" color-interpolation-filters="sRGB">
<feFlood flood-opacity="0" result="BackgroundImageFix"/>
<feColorMatrix in="SourceAlpha" type="matrix" values="0 0 0 0 0 0 0 0 0 0 0 0 0 0 0 0 0 0 127 0" result="hardAlpha"/>
<feOffset dy="1.68478"/>
<feGaussianBlur stdDeviation="1.68478"/>
<feComposite in2="hardAlpha" operator="out"/>
<feColorMatrix type="matrix" values="0 0 0 0 0 0 0 0 0 0 0 0 0 0 0 0 0 0 0.1 0"/>
<feBlend mode="normal" in2="BackgroundImageFix" result="effect1_dropShadow_283_1521"/>
<feBlend mode="normal" in="SourceGraphic" in2="effect1_dropShadow_283_1521" result="shape"/>
</filter>
<filter id="filter1_d_283_1521" x="74.832" y="292" width="529.336" height="86.486" filterUnits="userSpaceOnUse" color-interpolation-filters="sRGB">
<feFlood flood-opacity="0" result="BackgroundImageFix"/>
<feColorMatrix in="SourceAlpha" type="matrix" values="0 0 0 0 0 0 0 0 0 0 0 0 0 0 0 0 0 0 127 0" result="hardAlpha"/>
<feOffset dy="11.462"/>
<feGaussianBlur stdDeviation="2.084"/>
<feComposite in2="hardAlpha" operator="out"/>
<feColorMatrix type="matrix" values="0 0 0 0 0 0 0 0 0 0 0 0 0 0 0 0 0 0 0.05 0"/>
<feBlend mode="normal" in2="BackgroundImageFix" result="effect1_dropShadow_283_1521"/>
<feBlend mode="normal" in="SourceGraphic" in2="effect1_dropShadow_283_1521" result="shape"/>
</filter>
<linearGradient id="paint0_linear_283_1521" x1="136.209" y1="273.433" x2="596.791" y2="354.995" gradientUnits="userSpaceOnUse">
<stop stop-color="#D4D4D4"/>
<stop offset="1" stop-color="#E0E0E0"/>
</linearGradient>
<clipPath id="clip0_283_1521">
<rect width="440" height="500" rx="16" fill="white"/>
</clipPath>
<clipPath id="clip1_283_1521">
<rect x="90" y="123" width="500" height="94" rx="8" fill="white"/>
</clipPath>
</defs>
</svg>
