<svg width="440" height="500" viewBox="0 0 440 500" fill="none" xmlns="http://www.w3.org/2000/svg">
<g clip-path="url(#clip0_293_441)">
<rect x="60" y="60" width="560" height="664" rx="22" fill="white"/>
<path d="M90 249.212C90 246.886 91.8858 245 94.212 245H324.027C326.353 245 328.239 246.886 328.239 249.212V264.788C328.239 267.114 326.353 269 324.027 269H94.212C91.8858 269 90 267.114 90 264.788V249.212Z" fill="#F7F9FC"/>
<g filter="url(#filter0_d_293_441)">
<path d="M92.5273 251.739C92.5273 249.413 94.4131 247.527 96.7393 247.527H131.587C133.913 247.527 135.799 249.413 135.799 251.739V262.261C135.799 264.587 133.913 266.473 131.587 266.473H96.7393C94.4131 266.473 92.5273 264.587 92.5273 262.261V251.739Z" fill="#00AEAE" shape-rendering="crispEdges"/>
<path d="M110.039 258.956V258.203H111.769V253.051H112.86V259.729H111.769V258.956H110.039ZM108.295 256.483C107.862 256.483 107.479 256.42 107.145 256.294C106.811 256.167 106.551 255.987 106.365 255.755C106.181 255.52 106.089 255.247 106.089 254.936C106.089 254.63 106.181 254.359 106.365 254.122C106.551 253.882 106.811 253.698 107.145 253.569C107.481 253.438 107.865 253.372 108.295 253.372C108.721 253.372 109.1 253.438 109.431 253.569C109.765 253.698 110.025 253.882 110.211 254.122C110.398 254.359 110.492 254.63 110.495 254.936C110.492 255.247 110.398 255.52 110.211 255.755C110.025 255.987 109.766 256.167 109.434 256.294C109.103 256.42 108.723 256.483 108.295 256.483ZM108.305 254.173C108.068 254.173 107.86 254.203 107.68 254.263C107.501 254.323 107.362 254.41 107.263 254.526C107.166 254.641 107.119 254.778 107.121 254.936C107.119 255.093 107.166 255.229 107.263 255.344C107.359 255.457 107.496 255.543 107.673 255.603C107.853 255.663 108.06 255.693 108.295 255.693C108.521 255.693 108.721 255.663 108.896 255.603C109.071 255.543 109.208 255.457 109.307 255.344C109.406 255.229 109.456 255.093 109.459 254.936C109.456 254.78 109.406 254.644 109.307 254.529C109.21 254.414 109.074 254.326 108.899 254.267C108.727 254.204 108.529 254.173 108.305 254.173ZM107.853 259.484V257.847C107.25 257.873 106.482 257.885 105.55 257.885L105.419 257.019C106.579 257.012 107.61 256.992 108.513 256.96C109.417 256.928 110.282 256.859 111.106 256.753L111.171 257.533C110.52 257.641 109.777 257.727 108.944 257.789V259.484H107.853ZM107.677 259.084V260.817H113.064V261.698H106.589V259.084H107.677ZM118.404 256.953V257.765H121.889V258.642H113.846V257.765H117.317V256.953H114.886V253.372H115.96V254.336H119.772V253.372H120.853V256.953H118.404ZM119.772 255.175H115.96V256.086H119.772V255.175ZM114.837 259.211H115.929V260.817H120.98V261.698H114.837V259.211Z" fill="white"/>
</g>
<path d="M156.874 257.768V253.113H157.64V257.768H156.874ZM153.165 255.517C152.972 256.021 152.678 256.463 152.285 256.843C151.893 257.22 151.439 257.501 150.921 257.685L150.534 257.077C150.967 256.925 151.351 256.704 151.687 256.414C152.026 256.124 152.289 255.789 152.478 255.41C152.669 255.027 152.765 254.63 152.765 254.218V253.403H153.545V254.218C153.543 254.612 153.636 254.989 153.825 255.351C154.016 255.712 154.281 256.03 154.619 256.304C154.957 256.578 155.341 256.785 155.769 256.925L155.389 257.519C154.876 257.344 154.426 257.083 154.039 256.735C153.652 256.388 153.361 255.982 153.165 255.517ZM152.772 259.267H156.881V258.21H157.64V261.677H152.019V258.21H152.772V259.267ZM152.772 261.048H156.881V259.881H152.772V261.048ZM165.65 253.106V255.751H166.956V256.401H165.65V259.474H164.884V253.106H165.65ZM159.235 253.901H163.247V257.899H159.235V253.901ZM159.98 257.278H162.501V254.529H159.98V257.278ZM160.215 258.873H160.975V260.965H166.051V261.601H160.215V258.873ZM171.844 258.811V258.251H173.633V253.12H174.406V259.715H173.633V258.811H171.844ZM170.055 256.49C169.63 256.49 169.253 256.429 168.926 256.307C168.602 256.185 168.35 256.01 168.17 255.782C167.991 255.555 167.901 255.289 167.901 254.985C167.901 254.686 167.991 254.422 168.17 254.194C168.35 253.964 168.603 253.787 168.93 253.662C169.257 253.536 169.632 253.472 170.055 253.472C170.474 253.472 170.846 253.536 171.171 253.662C171.495 253.787 171.747 253.964 171.927 254.194C172.109 254.422 172.201 254.686 172.203 254.985C172.201 255.289 172.109 255.555 171.927 255.782C171.747 256.008 171.495 256.183 171.171 256.307C170.848 256.429 170.477 256.49 170.055 256.49ZM170.055 254.052C169.775 254.05 169.526 254.088 169.31 254.166C169.093 254.245 168.925 254.355 168.805 254.498C168.688 254.638 168.63 254.801 168.633 254.985C168.63 255.171 168.688 255.335 168.805 255.475C168.925 255.616 169.093 255.725 169.31 255.803C169.526 255.879 169.775 255.917 170.055 255.917C170.327 255.917 170.57 255.879 170.784 255.803C170.998 255.725 171.165 255.616 171.285 255.475C171.407 255.335 171.469 255.171 171.471 254.985C171.469 254.801 171.407 254.638 171.285 254.498C171.165 254.355 170.998 254.245 170.784 254.166C170.57 254.088 170.327 254.05 170.055 254.052ZM169.752 259.412V257.733C169.158 257.756 168.483 257.768 167.728 257.768H167.307L167.203 257.14C168.35 257.135 169.373 257.118 170.273 257.088C171.175 257.055 172.035 256.988 172.852 256.884L172.908 257.443C172.187 257.558 171.391 257.642 170.518 257.695V259.412H169.752ZM169.22 259.066V260.965H174.62V261.601H168.453V259.066H169.22ZM184.687 253.106V255.696H185.999V256.338H184.687V259.398H183.921V253.106H184.687ZM183.064 257.561C182.493 257.671 181.926 257.747 181.362 257.789C180.798 257.83 180.091 257.851 179.242 257.851H178.983H178.313V253.866H182.173V254.501H179.073V257.209H179.356C180.168 257.209 180.84 257.189 181.372 257.15C181.904 257.108 182.436 257.034 182.968 256.925L183.064 257.561ZM179.252 258.762H180.012V260.965H185.088V261.601H179.252V258.762ZM192.697 261.801V253.12H193.45V261.801H192.697ZM189.147 257.084C188.719 257.087 188.336 257.013 187.998 256.863C187.661 256.714 187.398 256.504 187.207 256.235C187.018 255.965 186.924 255.657 186.924 255.309C186.924 254.959 187.018 254.65 187.207 254.381C187.398 254.111 187.661 253.903 187.998 253.756C188.336 253.606 188.719 253.532 189.147 253.535C189.576 253.532 189.959 253.606 190.297 253.756C190.636 253.903 190.9 254.111 191.092 254.381C191.283 254.65 191.378 254.959 191.378 255.309C191.378 255.657 191.283 255.965 191.092 256.235C190.9 256.504 190.636 256.714 190.297 256.863C189.959 257.013 189.576 257.087 189.147 257.084ZM189.147 254.163C188.862 254.161 188.606 254.208 188.381 254.305C188.158 254.401 187.983 254.537 187.856 254.712C187.729 254.887 187.667 255.086 187.67 255.309C187.667 255.533 187.729 255.732 187.856 255.907C187.983 256.079 188.158 256.214 188.381 256.311C188.606 256.405 188.862 256.451 189.147 256.449C189.438 256.451 189.695 256.405 189.921 256.311C190.149 256.214 190.326 256.079 190.453 255.907C190.582 255.732 190.646 255.533 190.646 255.309C190.646 255.086 190.582 254.887 190.453 254.712C190.326 254.537 190.149 254.401 189.921 254.305C189.693 254.208 189.435 254.161 189.147 254.163ZM192.11 258.093C191.371 258.228 190.529 258.327 189.583 258.39V261.525H188.816V258.431C188.176 258.459 187.361 258.475 186.371 258.479L186.268 257.83C187.324 257.83 188.337 257.809 189.306 257.768C190.278 257.724 191.194 257.639 192.055 257.512L192.11 258.093ZM203.724 253.12V255.744H205.029V256.394H203.724V259.494H202.957V253.12H203.724ZM200.589 253.742H201.348V258.03H197.308V253.742H198.061V255.206H200.589V253.742ZM198.061 257.409H200.589V255.814H198.061V257.409ZM198.289 258.873H199.049V260.965H204.124V261.601H198.289V258.873ZM209.641 256.884H213.239V257.512H205.325V256.884H208.889V256.224C208.322 256.199 207.838 256.125 207.435 256.003C207.034 255.881 206.728 255.712 206.516 255.496C206.307 255.279 206.202 255.022 206.202 254.722C206.202 254.402 206.323 254.13 206.565 253.904C206.809 253.678 207.16 253.508 207.618 253.393C208.078 253.276 208.631 253.217 209.275 253.217C209.918 253.217 210.468 253.276 210.926 253.393C211.386 253.508 211.737 253.678 211.979 253.904C212.221 254.13 212.342 254.402 212.342 254.722C212.342 255.024 212.236 255.283 212.024 255.499C211.812 255.716 211.505 255.885 211.102 256.007C210.699 256.129 210.212 256.203 209.641 256.228V256.884ZM207.003 254.722C207.001 254.918 207.088 255.085 207.266 255.223C207.445 255.361 207.705 255.466 208.046 255.537C208.387 255.609 208.797 255.645 209.275 255.648C209.756 255.645 210.167 255.609 210.508 255.537C210.851 255.466 211.112 255.361 211.292 255.223C211.472 255.085 211.561 254.918 211.561 254.722C211.561 254.531 211.47 254.368 211.288 254.232C211.109 254.096 210.848 253.991 210.505 253.918C210.164 253.844 209.754 253.806 209.275 253.804C208.799 253.806 208.39 253.844 208.05 253.918C207.709 253.991 207.449 254.097 207.269 254.235C207.09 254.371 207.001 254.534 207.003 254.722ZM212.217 260.192H207.059V261.09H212.48V261.698H206.306V259.626H211.465V258.845H206.285V258.244H212.217V260.192ZM220.117 258.265V253.12H220.883V258.265H220.117ZM219.129 257.568C218.436 257.676 217.77 257.75 217.13 257.789C216.49 257.826 215.738 257.844 214.875 257.844H214.171V255.392H217.361V254.267H214.15V253.645H218.121V256H214.917V257.202H215.172C215.923 257.202 216.595 257.182 217.189 257.143C217.783 257.104 218.397 257.034 219.033 256.932L219.129 257.568ZM220.883 261.677H215.234V258.735H220.883V261.677ZM220.131 259.356H215.994V261.048H220.131V259.356Z" fill="#222222"/>
<path d="M255.83 257.768V253.113H256.597V257.768H255.83ZM252.122 255.517C251.928 256.021 251.635 256.463 251.241 256.843C250.85 257.22 250.395 257.501 249.877 257.685L249.491 257.077C249.923 256.925 250.308 256.704 250.644 256.414C250.982 256.124 251.246 255.789 251.435 255.41C251.626 255.027 251.721 254.63 251.721 254.218V253.403H252.502V254.218C252.499 254.612 252.593 254.989 252.781 255.351C252.972 255.712 253.237 256.03 253.575 256.304C253.914 256.578 254.297 256.785 254.725 256.925L254.346 257.519C253.832 257.344 253.382 257.083 252.995 256.735C252.609 256.388 252.317 255.982 252.122 255.517ZM251.728 259.267H255.837V258.21H256.597V261.677H250.975V258.21H251.728V259.267ZM251.728 261.048H255.837V259.881H251.728V261.048ZM264.607 253.106V255.751H265.912V256.401H264.607V259.474H263.84V253.106H264.607ZM258.191 253.901H262.204V257.899H258.191V253.901ZM258.937 257.278H261.458V254.529H258.937V257.278ZM259.172 258.873H259.932V260.965H265.007V261.601H259.172V258.873ZM270.801 258.811V258.251H272.589V253.12H273.363V259.715H272.589V258.811H270.801ZM269.012 256.49C268.586 256.49 268.21 256.429 267.883 256.307C267.558 256.185 267.306 256.01 267.127 255.782C266.947 255.555 266.857 255.289 266.857 254.985C266.857 254.686 266.947 254.422 267.127 254.194C267.306 253.964 267.559 253.787 267.886 253.662C268.213 253.536 268.588 253.472 269.012 253.472C269.431 253.472 269.803 253.536 270.127 253.662C270.452 253.787 270.704 253.964 270.884 254.194C271.065 254.422 271.157 254.686 271.16 254.985C271.157 255.289 271.065 255.555 270.884 255.782C270.704 256.008 270.452 256.183 270.127 256.307C269.805 256.429 269.433 256.49 269.012 256.49ZM269.012 254.052C268.731 254.05 268.483 254.088 268.266 254.166C268.05 254.245 267.882 254.355 267.762 254.498C267.645 254.638 267.587 254.801 267.589 254.985C267.587 255.171 267.645 255.335 267.762 255.475C267.882 255.616 268.05 255.725 268.266 255.803C268.483 255.879 268.731 255.917 269.012 255.917C269.284 255.917 269.526 255.879 269.741 255.803C269.955 255.725 270.122 255.616 270.241 255.475C270.363 255.335 270.425 255.171 270.428 254.985C270.425 254.801 270.363 254.638 270.241 254.498C270.122 254.355 269.955 254.245 269.741 254.166C269.526 254.088 269.284 254.05 269.012 254.052ZM268.708 259.412V257.733C268.114 257.756 267.44 257.768 266.685 257.768H266.263L266.16 257.14C267.306 257.135 268.329 257.118 269.23 257.088C270.132 257.055 270.992 256.988 271.809 256.884L271.864 257.443C271.144 257.558 270.347 257.642 269.475 257.695V259.412H268.708ZM268.176 259.066V260.965H273.577V261.601H267.41V259.066H268.176ZM283.644 253.106V255.696H284.956V256.338H283.644V259.398H282.877V253.106H283.644ZM282.021 257.561C281.45 257.671 280.882 257.747 280.318 257.789C279.754 257.83 279.048 257.851 278.198 257.851H277.939H277.269V253.866H281.13V254.501H278.029V257.209H278.312C279.125 257.209 279.797 257.189 280.329 257.15C280.861 257.108 281.392 257.034 281.924 256.925L282.021 257.561ZM278.209 258.762H278.968V260.965H284.044V261.601H278.209V258.762ZM291.654 261.801V253.12H292.406V261.801H291.654ZM288.104 257.084C287.676 257.087 287.293 257.013 286.954 256.863C286.618 256.714 286.354 256.504 286.163 256.235C285.975 255.965 285.88 255.657 285.88 255.309C285.88 254.959 285.975 254.65 286.163 254.381C286.354 254.111 286.618 253.903 286.954 253.756C287.293 253.606 287.676 253.532 288.104 253.535C288.532 253.532 288.915 253.606 289.254 253.756C289.592 253.903 289.857 254.111 290.048 254.381C290.239 254.65 290.335 254.959 290.335 255.309C290.335 255.657 290.239 255.965 290.048 256.235C289.857 256.504 289.592 256.714 289.254 256.863C288.915 257.013 288.532 257.087 288.104 257.084ZM288.104 254.163C287.819 254.161 287.563 254.208 287.337 254.305C287.114 254.401 286.939 254.537 286.813 254.712C286.686 254.887 286.624 255.086 286.626 255.309C286.624 255.533 286.686 255.732 286.813 255.907C286.939 256.079 287.114 256.214 287.337 256.311C287.563 256.405 287.819 256.451 288.104 256.449C288.394 256.451 288.652 256.405 288.877 256.311C289.105 256.214 289.283 256.079 289.409 255.907C289.538 255.732 289.603 255.533 289.603 255.309C289.603 255.086 289.538 254.887 289.409 254.712C289.283 254.537 289.105 254.401 288.877 254.305C288.65 254.208 288.392 254.161 288.104 254.163ZM291.067 258.093C290.328 258.228 289.485 258.327 288.539 258.39V261.525H287.772V258.431C287.133 258.459 286.318 258.475 285.328 258.479L285.224 257.83C286.281 257.83 287.294 257.809 288.263 257.768C289.234 257.724 290.15 257.639 291.011 257.512L291.067 258.093ZM302.328 256.345V253.113H303.088V261.808H302.328V256.981H300.243V259.612H296.244V253.79H297.017V256.055H299.497V253.79H300.243V256.345H302.328ZM297.017 258.977H299.497V256.67H297.017V258.977ZM310.684 258.265V253.12H311.45V258.265H310.684ZM309.696 257.568C309.003 257.676 308.337 257.75 307.697 257.789C307.057 257.826 306.305 257.844 305.442 257.844H304.737V255.392H307.928V254.267H304.717V253.645H308.688V256H305.483V257.202H305.739C306.489 257.202 307.161 257.182 307.755 257.143C308.349 257.104 308.964 257.034 309.599 256.932L309.696 257.568ZM311.45 261.677H305.801V258.735H311.45V261.677ZM310.697 259.356H306.561V261.048H310.697V259.356Z" fill="#222222"/>
<path d="M101.452 104.212H100.052V91.556H101.452V104.212ZM98.106 103.204H96.706V92.97H95.334C95.0353 92.97 94.8253 93.0307 94.704 93.152C94.5827 93.264 94.494 93.432 94.438 93.656L92.058 103.204H90.574L92.968 93.544C93.0333 93.2733 93.108 93.026 93.192 92.802C93.2853 92.578 93.402 92.3867 93.542 92.228C93.6913 92.06 93.8733 91.934 94.088 91.85C94.3027 91.7567 94.5733 91.71 94.9 91.71H98.106V103.204ZM113.832 104.254H103.527V100.908H112.292V100.068H103.5V98.808H105.586V97.688H102.715V96.428H114.504V97.688H111.634V98.808H113.692V101.3C113.692 101.599 113.626 101.813 113.496 101.944C113.365 102.075 113.15 102.14 112.852 102.14H104.928V102.994H113.832V104.254ZM113.622 94.496C113.622 94.86 113.538 95.126 113.37 95.294C113.202 95.462 112.936 95.546 112.572 95.546H103.598V92.424C103.598 92.1253 103.663 91.9107 103.793 91.78C103.924 91.6493 104.139 91.584 104.437 91.584H113.622V94.496ZM112.222 94.286V92.844H104.998V94.286H112.222ZM110.234 98.808V97.688H106.986V98.808H110.234ZM121.073 102.98H115.431V96.414H118.959V92.942H115.403V91.71H120.345V96.568C120.345 96.932 120.261 97.198 120.093 97.366C119.925 97.534 119.659 97.618 119.295 97.618H116.817V101.748H121.073V102.98ZM123.607 104.212H122.221V97.562H120.835V96.274H122.221V91.556H123.607V104.212ZM126.337 104.212H124.937V91.556H126.337V104.212ZM138.255 104.212H136.855V91.556H138.255V104.212ZM135.119 100.32C135.119 100.805 135.03 101.239 134.853 101.622C134.685 102.005 134.442 102.327 134.125 102.588C133.807 102.859 133.425 103.064 132.977 103.204C132.529 103.353 132.025 103.428 131.465 103.428C130.905 103.428 130.401 103.353 129.953 103.204C129.505 103.064 129.122 102.859 128.805 102.588C128.487 102.327 128.24 102.005 128.063 101.622C127.895 101.239 127.811 100.805 127.811 100.32V94.65C127.811 94.1647 127.895 93.7307 128.063 93.348C128.24 92.9653 128.487 92.6433 128.805 92.382C129.122 92.1113 129.505 91.906 129.953 91.766C130.401 91.6167 130.905 91.542 131.465 91.542C132.025 91.542 132.529 91.6167 132.977 91.766C133.425 91.906 133.807 92.1113 134.125 92.382C134.442 92.6433 134.685 92.9653 134.853 93.348C135.03 93.7307 135.119 94.1647 135.119 94.65V100.32ZM129.211 99.914C129.211 100.642 129.379 101.202 129.715 101.594C130.051 101.977 130.634 102.168 131.465 102.168C132.295 102.168 132.879 101.977 133.215 101.594C133.551 101.202 133.719 100.642 133.719 99.914V95.056C133.719 94.328 133.551 93.7727 133.215 93.39C132.879 92.998 132.295 92.802 131.465 92.802C130.634 92.802 130.051 92.998 129.715 93.39C129.379 93.7727 129.211 94.328 129.211 95.056V99.914ZM150.522 100.978H149.122V97.31H146.896V99.004H145.496V92.97H144.264C143.965 92.97 143.751 93.026 143.62 93.138C143.489 93.25 143.377 93.4227 143.284 93.656L141.198 99.004H139.644L141.856 93.334C141.959 93.0633 142.061 92.8253 142.164 92.62C142.267 92.4147 142.393 92.2467 142.542 92.116C142.691 91.976 142.869 91.8733 143.074 91.808C143.289 91.7427 143.555 91.71 143.872 91.71H146.896V92.928H149.122V91.556H150.522V100.978ZM150.606 104.212H140.82V99.76H142.22V102.952H150.606V104.212ZM149.122 96.022V94.216H146.896V96.022H149.122ZM166.006 104.212H164.606V91.556H166.006V104.212ZM162.87 100.32C162.87 100.805 162.782 101.239 162.604 101.622C162.436 102.005 162.194 102.327 161.876 102.588C161.559 102.859 161.176 103.064 160.728 103.204C160.28 103.353 159.776 103.428 159.216 103.428C158.656 103.428 158.152 103.353 157.704 103.204C157.256 103.064 156.874 102.859 156.556 102.588C156.239 102.327 155.992 102.005 155.814 101.622C155.646 101.239 155.562 100.805 155.562 100.32V94.65C155.562 94.1647 155.646 93.7307 155.814 93.348C155.992 92.9653 156.239 92.6433 156.556 92.382C156.874 92.1113 157.256 91.906 157.704 91.766C158.152 91.6167 158.656 91.542 159.216 91.542C159.776 91.542 160.28 91.6167 160.728 91.766C161.176 91.906 161.559 92.1113 161.876 92.382C162.194 92.6433 162.436 92.9653 162.604 93.348C162.782 93.7307 162.87 94.1647 162.87 94.65V100.32ZM156.962 99.914C156.962 100.642 157.13 101.202 157.466 101.594C157.802 101.977 158.386 102.168 159.216 102.168C160.047 102.168 160.63 101.977 160.966 101.594C161.302 101.202 161.47 100.642 161.47 99.914V95.056C161.47 94.328 161.302 93.7727 160.966 93.39C160.63 92.998 160.047 92.802 159.216 92.802C158.386 92.802 157.802 92.998 157.466 93.39C157.13 93.7727 156.962 94.328 156.962 95.056V99.914ZM175.474 98.458H167.83V94.454H172.828V92.942H167.802V91.71H174.228V94.608C174.228 94.972 174.144 95.238 173.976 95.406C173.808 95.574 173.542 95.658 173.178 95.658H169.23V97.226H175.474V98.458ZM178.274 104.212H176.874V100.824H168.502V99.564H178.274V104.212ZM178.274 98.92H176.874V96.582H174.788V95.294H176.874V93.964H174.788V92.676H176.874V91.556H178.274V98.92Z" fill="black"/>
<g clip-path="url(#clip1_293_441)">
<rect x="90" y="123" width="500" height="94" rx="8" fill="#F5F6FB"/>
<path d="M118.18 149.58H117.18V146.96H111.2V146.06H118.18V149.58ZM118.18 145.6H117.18V140.54H118.18V145.6ZM115.98 145.4H114.93L113.8 141.76C113.773 141.68 113.747 141.627 113.72 141.6C113.7 141.567 113.653 141.55 113.58 141.55H112.89C112.817 141.55 112.767 141.567 112.74 141.6C112.72 141.633 112.697 141.687 112.67 141.76L111.48 145.4H110.43L111.69 141.55H110.46V140.65H116.12V141.55H114.79L115.98 145.4ZM124.603 143.07C124.476 143.29 124.292 143.477 124.053 143.63C123.819 143.783 123.539 143.9 123.213 143.98C122.886 144.06 122.526 144.1 122.132 144.1C121.739 144.1 121.376 144.06 121.042 143.98C120.716 143.9 120.436 143.783 120.202 143.63C119.969 143.477 119.786 143.29 119.652 143.07C119.526 142.843 119.462 142.583 119.462 142.29C119.462 142.003 119.526 141.747 119.652 141.52C119.786 141.293 119.969 141.103 120.202 140.95C120.436 140.797 120.716 140.68 121.042 140.6C121.376 140.52 121.739 140.48 122.132 140.48C122.526 140.48 122.886 140.52 123.213 140.6C123.539 140.68 123.819 140.797 124.053 140.95C124.292 141.103 124.476 141.293 124.603 141.52C124.736 141.747 124.803 142.003 124.803 142.29C124.803 142.583 124.736 142.843 124.603 143.07ZM126.843 147.92H125.842V146.97H123.612V146.09H125.842V140.54H126.843V147.92ZM126.902 149.58H119.712V147.08H120.712V148.68H126.902V149.58ZM125.192 145.45H122.473V147.03H121.473V145.45H119.222V144.55H125.192V145.45ZM123.332 142.99C123.646 142.843 123.802 142.61 123.802 142.29C123.802 141.97 123.646 141.74 123.332 141.6C123.026 141.453 122.626 141.38 122.132 141.38C121.639 141.38 121.236 141.453 120.922 141.6C120.616 141.74 120.462 141.97 120.462 142.29C120.462 142.61 120.616 142.843 120.922 142.99C121.236 143.13 121.639 143.2 122.132 143.2C122.626 143.2 123.026 143.13 123.332 142.99ZM130.485 149.58C129.878 149.58 129.408 149.423 129.075 149.11C128.742 148.803 128.575 148.367 128.575 147.8C128.575 147.233 128.742 146.797 129.075 146.49C129.408 146.177 129.878 146.02 130.485 146.02H133.975C134.582 146.02 135.052 146.177 135.385 146.49C135.718 146.797 135.885 147.233 135.885 147.8C135.885 148.367 135.718 148.803 135.385 149.11C135.052 149.423 134.582 149.58 133.975 149.58H130.485ZM133.405 145.4H132.355L131.225 141.76C131.198 141.68 131.172 141.627 131.145 141.6C131.125 141.567 131.078 141.55 131.005 141.55H130.315C130.242 141.55 130.192 141.567 130.165 141.6C130.145 141.633 130.122 141.687 130.095 141.76L128.905 145.4H127.855L129.115 141.55H127.985V140.65H133.445V141.55H132.215L133.405 145.4ZM133.845 148.68C134.198 148.68 134.458 148.597 134.625 148.43C134.798 148.27 134.885 148.06 134.885 147.8C134.885 147.54 134.798 147.33 134.625 147.17C134.458 147.003 134.198 146.92 133.845 146.92H130.615C130.262 146.92 129.998 147.003 129.825 147.17C129.658 147.33 129.575 147.54 129.575 147.8C129.575 148.06 129.658 148.27 129.825 148.43C129.998 148.597 130.262 148.68 130.615 148.68H133.845ZM135.705 145.7H134.705V143.38H133.095V142.46H134.705V140.54H135.705V145.7ZM144.398 145.15C144.398 145.41 144.338 145.6 144.218 145.72C144.098 145.84 143.908 145.9 143.648 145.9H137.238V140.59H138.238V142.3H143.398V140.59H144.398V145.15ZM143.398 145V143.2H138.238V145H143.398ZM145.028 148.98H136.608V148.08H140.318V146.5H141.318V148.08H145.028V148.98Z" fill="black"/>
<path d="M110.871 164.146H182.483V183.5H107.646V167.371C107.646 165.59 109.09 164.146 110.871 164.146Z" fill="#F4F6FC"/>
<path d="M110.871 164.146H182.483V183.5H107.646V167.371C107.646 165.59 109.09 164.146 110.871 164.146Z" stroke="#EEEEEE" stroke-width="1.29032"/>
<path d="M136.288 172.055C136.282 173.069 136.793 174.103 137.675 174.525L137.246 175.086C136.629 174.774 136.185 174.172 135.942 173.448C135.693 174.222 135.227 174.865 134.575 175.193L134.146 174.632C135.06 174.197 135.583 173.107 135.589 172.055V171.148H136.288V172.055ZM138.714 170.688V172.918H139.59V173.517H138.714V176.383H138.015V170.688H138.714ZM144.411 170.694V175.004H143.706V174.506H142.591V174.015H143.706V170.694H144.411ZM144.544 175.703V176.27H140.367V174.588H141.066V175.703H144.544ZM139.611 173.252C140.663 173.246 142.074 173.233 143.284 173.082L143.322 173.586C142.852 173.665 142.367 173.718 141.885 173.75V174.846H141.186V173.788C140.653 173.81 140.146 173.813 139.699 173.813L139.611 173.252ZM141.469 170.902C142.301 170.902 142.88 171.312 142.887 171.91C142.88 172.521 142.301 172.912 141.469 172.912C140.625 172.912 140.045 172.521 140.045 171.91C140.045 171.312 140.625 170.902 141.469 170.902ZM141.469 171.419C141.016 171.419 140.707 171.601 140.707 171.91C140.707 172.219 141.016 172.402 141.469 172.402C141.904 172.402 142.213 172.219 142.219 171.91C142.213 171.601 141.904 171.419 141.469 171.419ZM149.787 170.694V174.897H149.088V172.799H147.941V173.97H145.276V171.066H145.976V171.986H147.248V171.066H147.941V172.232H149.088V170.694H149.787ZM149.913 175.703V176.27H146.032V174.481H146.744V175.703H149.913ZM145.976 173.416H147.248V172.528H145.976V173.416ZM155.34 171.45V172.017H150.634V171.45H152.643V170.764H153.336V171.45H155.34ZM155.605 175.205V175.772H150.4V175.205H152.643V174.506C151.657 174.427 151.062 174.033 151.068 173.403C151.062 172.717 151.799 172.307 152.99 172.307C154.162 172.307 154.905 172.717 154.905 173.403C154.905 174.03 154.307 174.424 153.336 174.5V175.205H155.605ZM152.99 172.855C152.215 172.862 151.78 173.044 151.786 173.403C151.78 173.769 152.215 173.952 152.99 173.958C153.752 173.952 154.187 173.769 154.187 173.403C154.187 173.044 153.752 172.862 152.99 172.855Z" fill="black"/>
<rect x="182.484" y="164.145" width="74.8387" height="19.3548" fill="#F4F6FC"/>
<rect x="182.484" y="164.145" width="74.8387" height="19.3548" stroke="#EEEEEE" stroke-width="1.29032"/>
<path d="M219.79 174.002V174.556H217.522V176.383H216.829V174.556H214.586V174.002H219.79ZM215.909 170.915V171.614H218.454V170.915H219.16V173.41H215.216V170.915H215.909ZM215.909 172.843H218.454V172.169H215.909V172.843ZM222.079 172.055C222.079 173.114 222.583 174.153 223.49 174.55L223.068 175.111C222.422 174.796 221.969 174.191 221.726 173.448C221.477 174.232 221.014 174.884 220.359 175.218L219.918 174.651C220.844 174.216 221.361 173.12 221.367 172.055V171.148H222.079V172.055ZM224.75 170.688V176.39H224.057V173.095H222.86V172.528H224.057V170.688H224.75Z" fill="black"/>
<rect x="257.322" y="164.145" width="74.8387" height="19.3548" fill="#F4F6FC"/>
<rect x="257.322" y="164.145" width="74.8387" height="19.3548" stroke="#EEEEEE" stroke-width="1.29032"/>
<path d="M291.516 171.507C291.51 172.282 291.963 172.988 292.858 173.271L292.48 173.819C291.86 173.602 291.425 173.189 291.182 172.647C290.93 173.268 290.455 173.756 289.765 173.996L289.393 173.429C290.338 173.12 290.81 172.358 290.81 171.538V170.997H291.516V171.507ZM294.2 170.688V174.04H293.501V172.364H292.367V171.79H293.501V170.688H294.2ZM292.272 174.191C293.482 174.191 294.219 174.594 294.219 175.287C294.219 175.98 293.482 176.377 292.272 176.377C291.069 176.377 290.332 175.98 290.338 175.287C290.332 174.594 291.069 174.191 292.272 174.191ZM292.272 174.733C291.478 174.733 291.031 174.928 291.031 175.287C291.031 175.634 291.478 175.829 292.272 175.829C293.066 175.829 293.52 175.634 293.52 175.287C293.52 174.928 293.066 174.733 292.272 174.733ZM299.582 170.688V174.04H298.883V173.252H297.736V173.693H295.059V171.116H297.736V171.557H298.883V170.688H299.582ZM295.758 171.671V173.132H297.043V171.671H295.758ZM297.655 174.191C298.864 174.191 299.601 174.594 299.601 175.287C299.601 175.98 298.864 176.377 297.655 176.377C296.451 176.377 295.714 175.98 295.72 175.287C295.714 174.594 296.451 174.191 297.655 174.191ZM297.655 174.726C296.861 174.726 296.413 174.922 296.413 175.287C296.413 175.64 296.861 175.835 297.655 175.835C298.448 175.835 298.902 175.64 298.902 175.287C298.902 174.922 298.448 174.726 297.655 174.726ZM297.736 172.685H298.883V172.112H297.736V172.685Z" fill="black"/>
<rect x="332.161" y="164.145" width="74.8387" height="19.3548" fill="#F4F6FC"/>
<rect x="332.161" y="164.145" width="74.8387" height="19.3548" stroke="#EEEEEE" stroke-width="1.29032"/>
<path d="M366.431 171.677C366.431 172.383 366.916 173.082 367.823 173.366L367.464 173.907C366.818 173.703 366.349 173.271 366.09 172.729C365.832 173.318 365.35 173.788 364.673 174.015L364.314 173.473C365.227 173.164 365.719 172.421 365.725 171.677V171.608H364.496V171.047H367.628V171.608H366.431V171.677ZM369.014 170.688V174.122H368.308V170.688H369.014ZM369.014 174.386V176.383H368.308V174.953H365.126V174.386H369.014ZM370.981 173.933V174.588H373.508V173.933H374.201V176.314H370.295V173.933H370.981ZM370.981 175.747H373.508V175.13H370.981V175.747ZM374.22 170.934V171.375C374.22 171.806 374.22 172.282 374.081 172.95H374.856V173.511H369.652V172.95H373.388C373.508 172.348 373.52 171.894 373.52 171.494H370.295V170.934H374.22Z" fill="black"/>
<rect x="407" y="164.145" width="74.8387" height="19.3548" fill="#F4F6FC"/>
<rect x="407" y="164.145" width="74.8387" height="19.3548" stroke="#EEEEEE" stroke-width="1.29032"/>
<path d="M438.258 171.211V171.759C438.251 172.465 438.251 173.258 438.031 174.449L437.325 174.374C437.546 173.265 437.546 172.455 437.552 171.772H434.15V171.211H438.258ZM438.799 175.073V175.646H433.608V175.073H435.523V173.095H436.216V175.073H438.799ZM444.182 173.429V173.989H438.99V173.429H440.2V172.704C439.772 172.524 439.526 172.238 439.526 171.866C439.526 171.186 440.326 170.782 441.58 170.782C442.834 170.782 443.627 171.186 443.634 171.866C443.631 172.241 443.385 172.528 442.953 172.704V173.429H444.182ZM441.58 174.336C442.808 174.33 443.545 174.695 443.552 175.35C443.545 176.012 442.808 176.371 441.58 176.371C440.339 176.371 439.595 176.012 439.595 175.35C439.595 174.695 440.339 174.33 441.58 174.336ZM441.58 174.865C440.748 174.865 440.301 175.029 440.307 175.35C440.301 175.672 440.748 175.842 441.58 175.842C442.392 175.842 442.846 175.672 442.852 175.35C442.846 175.029 442.392 174.865 441.58 174.865ZM441.58 171.324C440.735 171.324 440.25 171.513 440.257 171.866C440.25 172.213 440.735 172.395 441.58 172.395C442.418 172.395 442.909 172.213 442.909 171.866C442.909 171.513 442.418 171.324 441.58 171.324ZM440.906 173.429H442.254V172.887C442.049 172.915 441.822 172.931 441.58 172.931C441.337 172.931 441.11 172.915 440.906 172.887V173.429ZM448.928 171.034V171.545C448.928 172.077 448.928 172.66 448.777 173.466H449.564V174.033H447.302V176.39H446.597V174.033H444.373V173.466H448.065C448.222 172.691 448.228 172.112 448.228 171.601H444.984V171.034H448.928ZM454.953 173.637V174.197H452.754V175.18H452.061V174.197H449.749V173.637H454.953ZM454.379 175.703V176.27H450.379V174.701H451.072V175.703H454.379ZM451.122 170.871V171.513H453.579V170.871H454.272V173.189H450.429V170.871H451.122ZM451.122 172.635H453.579V172.036H451.122V172.635Z" fill="black"/>
<path d="M182.483 183.5V202.854H110.871C109.09 202.854 107.646 201.41 107.646 199.629V183.5H182.483Z" fill="white"/>
<path d="M182.483 183.5V202.854H110.871C109.09 202.854 107.646 201.41 107.646 199.629V183.5H182.483Z" stroke="#EEEEEE" stroke-width="1.29032"/>
<path d="M136.135 193.741V191.756H136.935V195.177H136.16V194.572H136.122C135.965 194.95 135.606 195.221 135.095 195.221C134.421 195.221 133.955 194.755 133.949 193.936V191.756H134.755V193.81C134.755 194.245 135.014 194.522 135.404 194.522C135.757 194.522 136.135 194.264 136.135 193.741ZM138.166 191.756L138.859 193.023L139.564 191.756H140.415L139.381 193.464L140.434 195.177H139.589L138.859 193.942L138.147 195.177H137.29L138.336 193.464L137.315 191.756H138.166ZM140.788 195.177V191.756H141.595V195.177H140.788ZM141.198 191.271C140.946 191.271 140.732 191.076 140.732 190.83C140.732 190.591 140.946 190.395 141.198 190.395C141.456 190.395 141.664 190.591 141.664 190.83C141.664 191.076 141.456 191.271 141.198 191.271ZM144.11 192.733C144.06 192.474 143.846 192.311 143.505 192.311C143.159 192.311 142.907 192.481 142.913 192.714C142.907 192.89 143.052 193.023 143.398 193.104L143.978 193.224C144.627 193.369 144.936 193.665 144.942 194.157C144.936 194.799 144.375 195.247 143.48 195.247C142.611 195.247 142.094 194.856 142.012 194.201H142.831C142.882 194.491 143.109 194.635 143.48 194.635C143.865 194.635 144.123 194.478 144.123 194.226C144.123 194.031 143.965 193.905 143.625 193.829L143.077 193.709C142.441 193.583 142.113 193.249 142.113 192.758C142.113 192.128 142.655 191.712 143.493 191.712C144.312 191.712 144.816 192.109 144.873 192.733H144.11ZM147.206 190.616V195.177H146.38V191.416H146.355L145.29 192.096V191.347L146.418 190.616H147.206ZM149.74 195.24C148.827 195.24 148.159 194.698 148.134 193.942H148.934C148.959 194.314 149.305 194.579 149.74 194.579C150.25 194.579 150.616 194.207 150.616 193.703C150.616 193.18 150.238 192.808 149.715 192.808C149.362 192.802 149.104 192.928 148.959 193.199H148.197L148.474 190.616H151.17V191.302H149.148L149.009 192.512H149.053C149.23 192.311 149.564 192.166 149.935 192.166C150.786 192.166 151.41 192.802 151.41 193.678C151.41 194.591 150.723 195.24 149.74 195.24ZM153.528 190.553C154.423 190.559 155.305 191.088 155.311 192.758C155.311 194.333 154.599 195.24 153.478 195.24C152.596 195.24 151.991 194.692 151.89 193.936H152.703C152.785 194.295 153.062 194.528 153.478 194.528C154.14 194.528 154.511 193.942 154.518 192.966H154.467C154.234 193.363 153.799 193.596 153.295 193.596C152.483 193.596 151.853 192.978 151.846 192.115C151.846 191.221 152.514 190.546 153.528 190.553ZM153.535 191.214C153.024 191.214 152.64 191.611 152.646 192.096C152.646 192.588 153.012 192.972 153.522 192.972C154.026 192.972 154.423 192.563 154.417 192.09C154.417 191.624 154.045 191.214 153.535 191.214Z" fill="black"/>
<rect x="182.484" y="183.5" width="74.8387" height="19.3548" fill="white"/>
<rect x="182.484" y="183.5" width="74.8387" height="19.3548" stroke="#EEEEEE" stroke-width="1.29032"/>
<path d="M219.349 190.042V195.738H218.643V190.042H219.349ZM217.648 190.647C217.648 192.342 216.993 193.785 214.996 194.73L214.63 194.169C216.12 193.46 216.813 192.496 216.936 191.202H214.92V190.647H217.648ZM223.547 190.496V191.013H220.176V190.496H221.506V190.011H222.205V190.496H223.547ZM221.865 191.176C222.696 191.17 223.263 191.504 223.263 192.033C223.263 192.481 222.848 192.78 222.205 192.859V193.161C222.687 193.139 223.169 193.098 223.623 193.041L223.673 193.52C222.451 193.728 221.102 193.747 220.094 193.747L220 193.205C220.453 193.208 220.97 193.205 221.506 193.186V192.852C220.86 192.777 220.453 192.478 220.46 192.033C220.453 191.504 221.014 191.17 221.865 191.176ZM221.865 191.649C221.417 191.643 221.128 191.781 221.134 192.033C221.128 192.266 221.417 192.405 221.865 192.399C222.299 192.405 222.589 192.266 222.596 192.033C222.589 191.781 222.299 191.643 221.865 191.649ZM224.725 190.055V193.886H224.019V190.055H224.725ZM224.725 194.119V195.738H224.019V194.667H220.806V194.119H224.725Z" fill="black"/>
<rect x="257.322" y="183.5" width="74.8387" height="19.3548" fill="white"/>
<rect x="257.322" y="183.5" width="74.8387" height="19.3548" stroke="#EEEEEE" stroke-width="1.29032"/>
<path d="M291.169 190.042V195.744H290.463V190.042H291.169ZM288.1 190.458C288.957 190.458 289.581 191.239 289.587 192.468C289.581 193.709 288.957 194.484 288.1 194.484C287.237 194.484 286.613 193.709 286.613 192.468C286.613 191.239 287.237 190.458 288.1 190.458ZM288.1 191.088C287.615 191.088 287.288 191.599 287.288 192.468C287.288 193.344 287.615 193.854 288.1 193.854C288.579 193.854 288.907 193.344 288.907 192.468C288.907 191.599 288.579 191.088 288.1 191.088ZM297.011 193.237V193.804H295.744V195.738H295.033V193.804H293.772V195.738H293.054V193.804H291.807V193.237H297.011ZM294.396 190.244C295.606 190.25 296.45 190.742 296.45 191.517C296.45 192.279 295.606 192.764 294.396 192.764C293.18 192.764 292.349 192.279 292.355 191.517C292.349 190.742 293.18 190.25 294.396 190.244ZM294.396 190.811C293.59 190.811 293.067 191.069 293.073 191.517C293.067 191.951 293.59 192.21 294.396 192.21C295.203 192.21 295.726 191.951 295.726 191.517C295.726 191.069 295.203 190.811 294.396 190.811ZM302.5 192.241V192.815H301.656V195.725H300.957V190.042H301.656V192.241H302.5ZM298.09 190.597V193.741C298.849 193.728 299.659 193.662 300.516 193.482L300.591 194.075C299.634 194.264 298.72 194.32 297.876 194.32H297.397V190.597H298.09Z" fill="black"/>
<rect x="332.161" y="183.5" width="74.8387" height="19.3548" fill="white"/>
<rect x="332.161" y="183.5" width="74.8387" height="19.3548" stroke="#EEEEEE" stroke-width="1.29032"/>
<path d="M367.338 190.376V190.943H365.297V191.473H367.174V192.021H365.297V192.581C366.361 192.578 367.01 192.559 367.76 192.437L367.829 192.985C367.01 193.13 366.298 193.142 365.07 193.136H364.585V190.376H367.338ZM369.014 190.049V193.432H368.308V190.049H369.014ZM369.014 193.684V195.669H365.234V193.684H369.014ZM365.927 194.226V195.102H368.327V194.226H365.927ZM371.693 191.069C371.693 191.769 372.147 192.424 373.035 192.695L372.701 193.243C372.062 193.045 371.608 192.638 371.359 192.122C371.107 192.72 370.625 193.196 369.942 193.426L369.589 192.871C370.509 192.569 370.988 191.832 370.988 191.076V191.006H369.784V190.439H372.878V191.006H371.693V191.069ZM374.144 190.042V191.41H374.938V191.983H374.144V193.438H373.445V190.042H374.144ZM372.292 193.564C373.47 193.564 374.194 193.961 374.201 194.642C374.194 195.328 373.47 195.732 372.292 195.732C371.101 195.732 370.364 195.328 370.364 194.642C370.364 193.961 371.101 193.564 372.292 193.564ZM372.292 194.112C371.511 194.112 371.063 194.295 371.063 194.642C371.063 194.995 371.511 195.184 372.292 195.184C373.073 195.184 373.508 194.995 373.508 194.642C373.508 194.295 373.073 194.112 372.292 194.112Z" fill="black"/>
<rect x="407" y="183.5" width="74.8387" height="19.3548" fill="white"/>
<rect x="407" y="183.5" width="74.8387" height="19.3548" stroke="#EEEEEE" stroke-width="1.29032"/>
<path d="M440.877 190.042V193.426H440.178V192.033H439.208V191.46H440.178V190.042H440.877ZM438.949 193.571C440.159 193.571 440.896 193.968 440.896 194.654C440.896 195.341 440.159 195.738 438.949 195.738C437.746 195.738 437.009 195.341 437.015 194.654C437.009 193.968 437.746 193.571 438.949 193.571ZM438.949 194.106C438.156 194.106 437.708 194.295 437.708 194.654C437.708 195.007 438.156 195.196 438.949 195.196C439.743 195.196 440.197 195.007 440.197 194.654C440.197 194.295 439.743 194.106 438.949 194.106ZM438.2 191.019C438.2 191.712 438.66 192.411 439.542 192.707L439.189 193.262C438.556 193.048 438.105 192.613 437.859 192.077C437.607 192.685 437.132 193.171 436.454 193.413L436.089 192.859C437.003 192.544 437.488 191.775 437.488 191.025V190.981H436.303V190.414H439.378V190.981H438.2V191.019ZM445.995 190.376V190.773C445.989 191.262 445.989 191.914 445.838 192.84H446.682V193.407H445.397V195.732H444.703V193.407H443.431V195.732H442.725V193.407H441.49V192.84H445.132C445.286 192.024 445.305 191.416 445.308 190.95H442.127V190.376H445.995ZM449.034 191.032C449.034 191.737 449.519 192.437 450.426 192.72L450.067 193.262C449.421 193.057 448.952 192.626 448.693 192.084C448.435 192.673 447.953 193.142 447.276 193.369L446.917 192.827C447.83 192.518 448.322 191.775 448.328 191.032V190.962H447.099V190.402H450.231V190.962H449.034V191.032ZM451.617 190.042V193.476H450.911V190.042H451.617ZM451.617 193.741V195.738H450.911V194.308H447.729V193.741H451.617Z" fill="black"/>
</g>
<g filter="url(#filter1_d_293_441)">
<rect x="90.5" y="289.5" width="475" height="152" rx="10.5" fill="white" stroke="#EEEEEE"/>
<path d="M131.456 334.584H125.04C123.653 334.584 122.96 333.891 122.96 332.504V330.952C122.96 330.653 122.981 330.397 123.024 330.184C123.067 329.971 123.141 329.789 123.248 329.64C123.355 329.491 123.493 329.357 123.664 329.24C123.845 329.123 124.069 329 124.336 328.872L129.216 326.568C129.397 326.483 129.52 326.381 129.584 326.264C129.659 326.147 129.696 325.981 129.696 325.768V323.656C129.696 323.123 129.429 322.856 128.896 322.856H123.2V321.416H129.216C130.603 321.416 131.296 322.109 131.296 323.496V325.8C131.296 326.109 131.275 326.371 131.232 326.584C131.189 326.787 131.115 326.963 131.008 327.112C130.901 327.261 130.757 327.395 130.576 327.512C130.405 327.629 130.187 327.752 129.92 327.88L125.04 330.216C124.859 330.301 124.731 330.403 124.656 330.52C124.592 330.637 124.56 330.803 124.56 331.016V332.344C124.56 332.877 124.827 333.144 125.36 333.144H131.456V334.584ZM142.07 331.128C142.07 332.333 141.782 333.219 141.206 333.784C140.641 334.36 139.755 334.648 138.55 334.648H136.694C135.489 334.648 134.598 334.36 134.022 333.784C133.457 333.219 133.174 332.333 133.174 331.128V324.872C133.174 323.667 133.457 322.781 134.022 322.216C134.598 321.64 135.489 321.352 136.694 321.352H138.55C139.755 321.352 140.641 321.64 141.206 322.216C141.782 322.781 142.07 323.667 142.07 324.872V331.128ZM138.71 333.24C139.233 333.24 139.654 333.08 139.974 332.76C140.305 332.429 140.47 332.003 140.47 331.48V324.52C140.47 323.997 140.305 323.576 139.974 323.256C139.654 322.925 139.233 322.76 138.71 322.76H136.534C136.011 322.76 135.585 322.925 135.254 323.256C134.934 323.576 134.774 323.997 134.774 324.52V331.48C134.774 332.003 134.934 332.429 135.254 332.76C135.585 333.08 136.011 333.24 136.534 333.24H138.71ZM152.3 334.584H145.884C144.497 334.584 143.804 333.891 143.804 332.504V330.952C143.804 330.653 143.825 330.397 143.868 330.184C143.91 329.971 143.985 329.789 144.092 329.64C144.198 329.491 144.337 329.357 144.508 329.24C144.689 329.123 144.913 329 145.18 328.872L150.06 326.568C150.241 326.483 150.364 326.381 150.428 326.264C150.502 326.147 150.54 325.981 150.54 325.768V323.656C150.54 323.123 150.273 322.856 149.74 322.856H144.044V321.416H150.06C151.446 321.416 152.14 322.109 152.14 323.496V325.8C152.14 326.109 152.118 326.371 152.076 326.584C152.033 326.787 151.958 326.963 151.852 327.112C151.745 327.261 151.601 327.395 151.42 327.512C151.249 327.629 151.03 327.752 150.764 327.88L145.884 330.216C145.702 330.301 145.574 330.403 145.5 330.52C145.436 330.637 145.404 330.803 145.404 331.016V332.344C145.404 332.877 145.67 333.144 146.204 333.144H152.3V334.584ZM162.722 331.944C162.722 332.744 162.492 333.384 162.034 333.864C161.586 334.344 160.882 334.584 159.922 334.584H154.226V333.144H159.922C160.722 333.144 161.122 332.691 161.122 331.784V329.736C161.122 328.829 160.722 328.376 159.922 328.376H155.986C155.346 328.376 154.892 328.237 154.626 327.96C154.359 327.683 154.226 327.224 154.226 326.584V321.416H162.402V322.856H155.826V326.296C155.826 326.723 156.039 326.936 156.466 326.936H159.922C160.882 326.936 161.586 327.176 162.034 327.656C162.492 328.136 162.722 328.776 162.722 329.576V331.944ZM176.776 331.832H175.176V326.488H170.648V325.016H175.176V323.72H170.648V322.248H175.176V321.064H176.776V331.832ZM173.576 329.224H164.84V321.16H166.44V327.784H173.576V329.224ZM176.872 335.528H165.688V330.44H167.288V334.088H176.872V335.528ZM189.32 334.584H187.72V322.856H184.824V321.416H188.68C189.106 321.416 189.32 321.629 189.32 322.056V334.584ZM205.742 325.992C205.742 326.408 205.646 326.712 205.454 326.904C205.262 327.096 204.958 327.192 204.542 327.192H194.286V321.016H195.886V322.712H204.142V321.016H205.742V325.992ZM206.75 329.816H201.134V332.872H199.534V329.816H193.278V328.376H206.75V329.816ZM205.822 335.576H194.366V331.24H195.966V334.136H205.822V335.576ZM204.142 325.752V324.152H195.886V325.752H204.142ZM220.194 335.528H218.594V321.064H220.194V335.528ZM214.162 334.376H212.562L214.418 323.048C214.439 322.899 214.428 322.803 214.386 322.76C214.343 322.707 214.247 322.68 214.098 322.68H208.258V321.24H215.586C215.852 321.24 216.039 321.309 216.146 321.448C216.252 321.576 216.284 321.763 216.242 322.008L214.162 334.376ZM239.01 331.832H237.41V327.64H234.706C234.397 328.216 233.927 328.664 233.298 328.984C232.679 329.304 231.943 329.464 231.09 329.464C230.482 329.464 229.933 329.384 229.442 329.224C228.951 329.053 228.53 328.819 228.178 328.52C227.826 328.211 227.554 327.843 227.362 327.416C227.17 326.979 227.074 326.488 227.074 325.944V324.488C227.074 323.944 227.17 323.459 227.362 323.032C227.554 322.595 227.826 322.227 228.178 321.928C228.53 321.619 228.951 321.384 229.442 321.224C229.933 321.053 230.482 320.968 231.09 320.968C231.901 320.968 232.605 321.112 233.202 321.4C233.81 321.688 234.279 322.099 234.61 322.632H237.41V321.064H239.01V331.832ZM233.506 324.568C233.506 323.885 233.287 323.357 232.85 322.984C232.413 322.6 231.826 322.408 231.09 322.408C230.354 322.408 229.767 322.6 229.33 322.984C228.893 323.357 228.674 323.885 228.674 324.568V325.864C228.674 326.547 228.893 327.08 229.33 327.464C229.767 327.837 230.354 328.024 231.09 328.024C231.826 328.024 232.413 327.837 232.85 327.464C233.287 327.08 233.506 326.547 233.506 325.864V324.568ZM239.106 335.528H227.922V330.44H229.522V334.088H239.106V335.528ZM237.41 326.168V324.104H235.09C235.09 324.168 235.09 324.232 235.09 324.296C235.101 324.36 235.106 324.424 235.106 324.488V325.944V326.168H237.41ZM254.406 329.48H240.934V328.04H246.87V326.68H241.942V321.016H243.542V322.456H251.798V321.016H253.398V325.48C253.398 325.896 253.302 326.2 253.11 326.392C252.918 326.584 252.614 326.68 252.198 326.68H248.47V328.04H254.406V329.48ZM250.71 330.456C251.681 330.456 252.433 330.675 252.966 331.112C253.499 331.549 253.766 332.184 253.766 333.016C253.766 333.848 253.499 334.483 252.966 334.92C252.433 335.357 251.681 335.576 250.71 335.576H244.63C243.659 335.576 242.907 335.357 242.374 334.92C241.841 334.483 241.574 333.848 241.574 333.016C241.574 332.184 241.841 331.549 242.374 331.112C242.907 330.675 243.659 330.456 244.63 330.456H250.71ZM250.502 334.136C251.067 334.136 251.483 334.035 251.75 333.832C252.027 333.629 252.166 333.357 252.166 333.016C252.166 332.675 252.027 332.403 251.75 332.2C251.483 331.997 251.067 331.896 250.502 331.896H244.838C244.273 331.896 243.851 331.997 243.574 332.2C243.307 332.403 243.174 332.675 243.174 333.016C243.174 333.357 243.307 333.629 243.574 333.832C243.851 334.035 244.273 334.136 244.838 334.136H250.502ZM251.798 325.24V323.896H243.542V325.24H251.798ZM268.01 328.968H266.41V327.32H264.634V325.848H266.41V324.216H264.634V323.176H263.13C263.418 323.304 263.647 323.539 263.818 323.88C263.989 324.221 264.074 324.573 264.074 324.936V325.832C264.074 327.912 262.794 328.952 260.234 328.952C258.986 328.952 258.031 328.696 257.37 328.184C256.719 327.661 256.394 326.877 256.394 325.832V324.936C256.394 324.563 256.479 324.211 256.65 323.88C256.821 323.539 257.05 323.304 257.338 323.176H255.626V321.736H259.434V320.248H261.034V321.736H264.842V322.744H266.41V321.064H268.01V328.968ZM268.01 334.328C268.01 334.744 267.914 335.048 267.722 335.24C267.53 335.432 267.226 335.528 266.81 335.528H256.922V329.704H258.522V331.08H266.41V329.704H268.01V334.328ZM262.474 324.856C262.474 324.333 262.298 323.896 261.946 323.544C261.605 323.192 261.034 323.016 260.234 323.016C259.434 323.016 258.858 323.192 258.506 323.544C258.165 323.896 257.994 324.333 257.994 324.856V325.8C257.994 326.365 258.165 326.813 258.506 327.144C258.858 327.475 259.434 327.64 260.234 327.64C261.034 327.64 261.605 327.475 261.946 327.144C262.298 326.813 262.474 326.365 262.474 325.8V324.856ZM266.41 334.088V332.488H258.522V334.088H266.41ZM273.678 335.528C272.707 335.528 271.955 335.277 271.422 334.776C270.889 334.285 270.622 333.587 270.622 332.68C270.622 331.773 270.889 331.075 271.422 330.584C271.955 330.083 272.707 329.832 273.678 329.832H279.102C280.073 329.832 280.825 330.083 281.358 330.584C281.891 331.075 282.158 331.773 282.158 332.68C282.158 333.587 281.891 334.285 281.358 334.776C280.825 335.277 280.073 335.528 279.102 335.528H273.678ZM278.206 328.84H276.606V322.68H275.038C274.697 322.68 274.451 322.749 274.302 322.888C274.163 323.016 274.035 323.208 273.918 323.464L271.534 328.84H269.758L272.286 323.096C272.425 322.797 272.553 322.531 272.67 322.296C272.787 322.061 272.926 321.869 273.086 321.72C273.257 321.56 273.459 321.443 273.694 321.368C273.929 321.283 274.227 321.24 274.59 321.24H278.206V328.84ZM278.894 334.088C279.459 334.088 279.875 333.955 280.142 333.688C280.419 333.432 280.558 333.096 280.558 332.68C280.558 332.264 280.419 331.928 280.142 331.672C279.875 331.405 279.459 331.272 278.894 331.272H273.886C273.321 331.272 272.899 331.405 272.622 331.672C272.355 331.928 272.222 332.264 272.222 332.68C272.222 333.096 272.355 333.432 272.622 333.688C272.899 333.955 273.321 334.088 273.886 334.088H278.894ZM281.87 329.48H280.27V321.064H281.87V324.152H283.758V325.624H281.87V329.48ZM301.566 335.528H299.966V327.912H298.014V335.528H296.43V321.064H298.014V326.44H299.966V321.064H301.566V335.528ZM295.63 334.12H289.102V322.2C289.102 321.859 289.177 321.613 289.326 321.464C289.475 321.315 289.721 321.24 290.062 321.24H295.15V322.68H290.686V332.68H295.63V334.12ZM306.834 335.528C305.863 335.528 305.111 335.277 304.578 334.776C304.045 334.285 303.778 333.587 303.778 332.68C303.778 331.773 304.045 331.075 304.578 330.584C305.111 330.083 305.863 329.832 306.834 329.832H312.258C313.229 329.832 313.981 330.083 314.514 330.584C315.047 331.075 315.314 331.773 315.314 332.68C315.314 333.587 315.047 334.285 314.514 334.776C313.981 335.277 313.229 335.528 312.258 335.528H306.834ZM311.362 328.84H309.762V322.68H308.194C307.853 322.68 307.607 322.749 307.458 322.888C307.319 323.016 307.191 323.208 307.074 323.464L304.69 328.84H302.914L305.442 323.096C305.581 322.797 305.709 322.531 305.826 322.296C305.943 322.061 306.082 321.869 306.242 321.72C306.413 321.56 306.615 321.443 306.85 321.368C307.085 321.283 307.383 321.24 307.746 321.24H311.362V328.84ZM312.05 334.088C312.615 334.088 313.031 333.955 313.298 333.688C313.575 333.432 313.714 333.096 313.714 332.68C313.714 332.264 313.575 331.928 313.298 331.672C313.031 331.405 312.615 331.272 312.05 331.272H307.042C306.477 331.272 306.055 331.405 305.778 331.672C305.511 331.928 305.378 332.264 305.378 332.68C305.378 333.096 305.511 333.432 305.778 333.688C306.055 333.955 306.477 334.088 307.042 334.088H312.05ZM315.026 329.48H313.426V321.064H315.026V324.152H316.914V325.624H315.026V329.48ZM326.262 334.376H324.582L322.774 323.256C322.71 322.872 322.545 322.68 322.278 322.68H321.446C321.169 322.68 320.998 322.872 320.934 323.256L319.046 334.376H317.366L319.366 322.68H317.622V321.24H326.246V322.68H324.342L326.262 334.376ZM329.526 335.528H327.926V321.064H329.526V326.44H331.414V327.912H329.526V335.528Z" fill="black"/>
<path opacity="0.88" d="M130.598 354.08V362.83H129.66V354.08H130.598ZM127.99 355.018C127.99 357.576 126.896 359.803 123.898 361.238L123.41 360.486C125.739 359.378 126.872 357.801 127.053 355.76H123.83V355.018H127.99ZM138.93 354.5V355.242H136.264C136.318 356.194 137.578 357.034 139.204 357.234L138.852 357.967C137.353 357.771 136.123 357.073 135.649 356.092C135.176 357.068 133.95 357.771 132.456 357.967L132.104 357.234C133.74 357.034 134.985 356.194 135.034 355.242H132.397V354.5H138.93ZM139.663 358.533V359.285H136.186V360.984H135.268V359.285H131.655V358.533H139.663ZM138.774 361.893V362.645H132.651V360.145H133.579V361.893H138.774ZM145.284 355.633C145.284 356.736 146.075 357.82 147.393 358.27L146.914 358.992C145.933 358.65 145.205 357.952 144.825 357.088C144.444 358.05 143.677 358.821 142.637 359.188L142.159 358.455C143.506 357.996 144.336 356.824 144.336 355.643V355.398H142.442V354.646H147.159V355.398H145.284V355.633ZM149.444 359.754V362.83H148.516V360.506H143.516V359.754H149.444ZM149.444 354.08V359.314H148.516V357.068H146.895V356.307H148.516V354.08H149.444ZM158.47 358.348V359.1H150.491V358.348H152.405V357.166C151.732 356.893 151.351 356.453 151.351 355.877C151.351 354.842 152.552 354.236 154.476 354.236C156.39 354.236 157.601 354.842 157.601 355.877C157.601 356.453 157.215 356.897 156.536 357.166V358.348H158.47ZM154.476 359.695C156.361 359.695 157.493 360.252 157.493 361.248C157.493 362.264 156.361 362.811 154.476 362.811C152.571 362.811 151.439 362.264 151.439 361.248C151.439 360.252 152.571 359.695 154.476 359.695ZM154.476 360.408C153.138 360.408 152.376 360.711 152.376 361.248C152.376 361.795 153.138 362.107 154.476 362.098C155.794 362.107 156.566 361.795 156.566 361.248C156.566 360.711 155.794 360.408 154.476 360.408ZM154.476 354.949C153.118 354.949 152.298 355.291 152.308 355.877C152.298 356.463 153.118 356.795 154.476 356.795C155.833 356.795 156.644 356.463 156.644 355.877C156.644 355.291 155.833 354.949 154.476 354.949ZM153.343 358.348H155.618V357.41C155.277 357.469 154.891 357.498 154.476 357.498C154.066 357.498 153.685 357.469 153.343 357.42V358.348ZM161.314 354.373C162.633 354.383 163.6 355.193 163.609 356.336C163.6 357.488 162.633 358.289 161.314 358.289C159.986 358.289 159.01 357.488 159.01 356.336C159.01 355.193 159.986 354.383 161.314 354.373ZM161.314 355.154C160.504 355.145 159.908 355.623 159.918 356.336C159.908 357.059 160.504 357.537 161.314 357.537C162.115 357.537 162.711 357.059 162.711 356.336C162.711 355.623 162.115 355.145 161.314 355.154ZM166.09 354.08V358.533H165.162V354.08H166.09ZM166.09 358.934V361.141H161.266V361.98H166.383V362.723H160.367V360.447H165.172V359.676H160.338V358.934H166.09ZM170.223 356.658C170.223 358.045 171.132 359.588 172.46 360.213L171.932 360.936C170.951 360.462 170.175 359.476 169.784 358.328C169.379 359.583 168.558 360.662 167.557 361.16L167.011 360.428C168.339 359.793 169.305 358.143 169.305 356.658V355.73H167.333V354.959H172.128V355.73H170.223V356.658ZM173.993 354.08V357.547H175.399V358.328H173.993V362.83H173.065V354.08H173.993Z" fill="#888888"/>
<path opacity="0.88" d="M182.625 362V361.219L185.076 358.748C185.848 357.938 186.238 357.488 186.238 356.873C186.238 356.18 185.672 355.73 184.93 355.73C184.148 355.73 183.641 356.229 183.641 356.98H182.625C182.615 355.691 183.602 354.832 184.949 354.832C186.316 354.832 187.254 355.691 187.264 356.844C187.254 357.635 186.883 358.26 185.555 359.568L184.119 361.023V361.082H187.381V362H182.625ZM190.733 362.098C189.093 362.098 188.136 360.779 188.136 358.465C188.136 356.17 189.112 354.832 190.733 354.832C192.354 354.832 193.331 356.17 193.331 358.465C193.331 360.779 192.364 362.098 190.733 362.098ZM190.733 361.17C191.69 361.17 192.257 360.232 192.257 358.465C192.257 356.707 191.68 355.74 190.733 355.74C189.786 355.74 189.21 356.707 189.21 358.465C189.21 360.232 189.776 361.17 190.733 361.17ZM194.144 362V361.219L196.595 358.748C197.367 357.938 197.757 357.488 197.757 356.873C197.757 356.18 197.191 355.73 196.449 355.73C195.668 355.73 195.16 356.229 195.16 356.98H194.144C194.134 355.691 195.121 354.832 196.468 354.832C197.836 354.832 198.773 355.691 198.783 356.844C198.773 357.635 198.402 358.26 197.074 359.568L195.638 361.023V361.082H198.9V362H194.144ZM199.479 360.623V359.754L202.604 354.93H203.932V359.715H204.899V360.623H203.932V362H202.916V360.623H199.479ZM200.612 359.715H202.916V356.209H202.838L200.612 359.656V359.715ZM208.818 358.016V358.914H205.683V358.016H208.818ZM212.453 354.93V362H211.369V356.004H211.33L209.641 357.107V356.082L211.398 354.93H212.453ZM216.636 354.93V362H215.552V356.004H215.513L213.823 357.107V356.082L215.581 354.93H216.636ZM221.267 358.016V358.914H218.132V358.016H221.267ZM224.903 354.93V362H223.819V356.004H223.78L222.09 357.107V356.082L223.848 354.93H224.903ZM229.085 354.93V362H228.001V356.004H227.962L226.273 357.107V356.082L228.03 354.93H229.085Z" fill="#353535"/>
<path opacity="0.88" d="M248.598 354.08V362.83H247.66V354.08H248.598ZM245.99 355.018C245.99 357.576 244.896 359.803 241.898 361.238L241.41 360.486C243.739 359.378 244.872 357.801 245.053 355.76H241.83V355.018H245.99ZM256.93 354.49V355.242H254.264C254.313 356.204 255.578 357.054 257.204 357.244L256.852 357.996C255.353 357.781 254.123 357.083 253.649 356.092C253.176 357.083 251.95 357.781 250.456 357.996L250.104 357.244C251.74 357.054 252.985 356.204 253.034 355.242H250.397V354.49H256.93ZM256.745 361.893V362.645H250.671V360.154H251.608V361.893H256.745ZM257.663 358.748V359.5H249.665V358.748H253.19V357.361H254.108V358.748H257.663ZM267.141 354.598V355.291C267.141 356.033 267.141 356.902 266.926 358.055H268.157V358.816H260.149V358.055H265.989C266.218 356.917 266.223 356.087 266.223 355.35H261.155V354.598H267.141ZM267.405 361.883V362.645H261.194V359.725H262.112V361.883H267.405ZM276.489 358.426V359.188H268.491V358.426H272.017V357.146H272.935V358.426H276.489ZM272.945 354.588C272.945 355.701 274.312 356.678 276.001 356.893L275.64 357.625C274.248 357.405 273.023 356.727 272.476 355.76C271.914 356.727 270.689 357.405 269.292 357.625L268.95 356.893C270.63 356.678 271.997 355.691 272.007 354.588V354.217H272.945V354.588ZM275.493 359.959V362.83H274.556V360.691H269.38V359.959H275.493ZM284.129 354.09V360.555H283.201V357.576H280.799V356.834H283.201V355.916H280.799V355.174H283.201V354.09H284.129ZM284.354 361.893V362.645H278.426V359.988H279.363V361.893H284.354ZM278.27 354.695V358.523C279.432 358.523 280.535 358.45 281.785 358.221L281.883 358.982C280.496 359.246 279.314 359.295 278.025 359.305H277.352V354.695H278.27ZM289.659 354.852C289.649 356.014 291.075 357.107 292.794 357.332L292.432 358.094C291.002 357.864 289.742 357.122 289.18 356.092C288.604 357.127 287.349 357.864 285.929 358.094L285.557 357.332C287.276 357.107 288.682 356.023 288.692 354.852V354.373H289.659V354.852ZM293.155 358.953V359.715H289.6V362.83H288.692V359.715H285.177V358.953H293.155Z" fill="#888888"/>
<path opacity="0.88" d="M303.184 362.098C301.875 362.088 300.508 361.316 300.508 358.699C300.508 356.238 301.572 354.832 303.271 354.832C304.57 354.832 305.479 355.643 305.645 356.766H304.58C304.443 356.189 303.984 355.77 303.271 355.77C302.178 355.77 301.543 356.727 301.543 358.318H301.621C302.002 357.723 302.666 357.361 303.438 357.361C304.697 357.361 305.713 358.328 305.713 359.686C305.713 361.053 304.707 362.107 303.184 362.098ZM303.174 361.199C304.033 361.199 304.668 360.535 304.668 359.705C304.668 358.895 304.053 358.24 303.203 358.24C302.334 358.24 301.68 358.924 301.67 359.715C301.68 360.496 302.305 361.199 303.174 361.199ZM313.548 354.09V360.555H312.62V357.576H310.218V356.834H312.62V355.916H310.218V355.174H312.62V354.09H313.548ZM313.772 361.893V362.645H307.845V359.988H308.782V361.893H313.772ZM307.688 354.695V358.523C308.85 358.523 309.954 358.45 311.204 358.221L311.302 358.982C309.915 359.246 308.733 359.295 307.444 359.305H306.77V354.695H307.688ZM317.33 354.832C318.629 354.842 319.996 355.623 319.996 358.211C319.996 360.691 318.931 362.098 317.232 362.098C315.933 362.098 315.015 361.297 314.849 360.145H315.914C316.06 360.74 316.519 361.16 317.232 361.16C318.326 361.16 318.961 360.203 318.97 358.592H318.882C318.502 359.188 317.837 359.549 317.076 359.549C315.806 359.549 314.791 358.582 314.791 357.225C314.791 355.877 315.796 354.822 317.33 354.832ZM317.33 355.73C316.47 355.73 315.836 356.395 315.836 357.205C315.836 358.025 316.451 358.67 317.31 358.67C318.16 358.67 318.824 357.977 318.824 357.195C318.824 356.434 318.199 355.73 317.33 355.73ZM328.016 354.08V362.83H327.127V358.289H326.043V362.41H325.174V354.314H326.043V357.537H327.127V354.08H328.016ZM324.305 355.193C324.295 357.498 323.534 359.559 321.034 360.975L320.496 360.33C322.44 359.231 323.26 357.742 323.407 355.955H320.868V355.193H324.305ZM336.144 354.09V359.217H335.216V358.797H333.507V358.211H335.216V354.09H336.144ZM328.849 357.312C330.538 357.322 332.687 357.303 334.571 357.098L334.62 357.693C333.795 357.806 332.941 357.874 332.101 357.918V359.236H331.183V357.957C330.392 357.977 329.64 357.981 328.956 357.977L328.849 357.312ZM336.144 359.51V361.395H331.105V362.068H336.407V362.742H330.196V360.779H335.226V360.154H330.157V359.51H336.144ZM331.691 354.236C332.989 354.236 333.868 354.754 333.878 355.555C333.868 356.375 332.989 356.863 331.691 356.863C330.362 356.863 329.493 356.375 329.503 355.555C329.493 354.754 330.362 354.236 331.691 354.236ZM331.691 354.861C330.88 354.861 330.372 355.135 330.372 355.555C330.372 355.975 330.88 356.238 331.691 356.238C332.482 356.238 332.999 355.975 332.999 355.555C332.999 355.135 332.482 354.861 331.691 354.861ZM340.199 354.93V362H339.115V356.004H339.076L337.387 357.107V356.082L339.145 354.93H340.199ZM344.098 362.098C342.761 362.098 341.755 361.277 341.706 360.154H342.751C342.809 360.76 343.386 361.199 344.098 361.199C344.958 361.199 345.573 360.574 345.573 359.734C345.573 358.875 344.938 358.25 344.05 358.24C343.483 358.24 343.054 358.426 342.809 358.865H341.794L342.253 354.93H346.257V355.848H343.141L342.907 357.83H342.975C343.268 357.547 343.766 357.352 344.304 357.352C345.632 357.352 346.618 358.338 346.618 359.705C346.618 361.102 345.573 362.098 344.098 362.098ZM349.638 354.373C350.957 354.383 351.923 355.193 351.933 356.336C351.923 357.488 350.957 358.289 349.638 358.289C348.31 358.289 347.334 357.488 347.334 356.336C347.334 355.193 348.31 354.383 349.638 354.373ZM349.638 355.154C348.828 355.145 348.232 355.623 348.242 356.336C348.232 357.059 348.828 357.537 349.638 357.537C350.439 357.537 351.035 357.059 351.035 356.336C351.035 355.623 350.439 355.145 349.638 355.154ZM354.414 354.08V358.533H353.486V354.08H354.414ZM354.414 358.934V361.141H349.589V361.98H354.707V362.723H348.691V360.447H353.496V359.676H348.662V358.934H354.414Z" fill="#353535"/>
<path opacity="0.88" d="M373.598 354.08V362.83H372.66V354.08H373.598ZM370.99 355.018C370.99 357.576 369.896 359.803 366.898 361.238L366.41 360.486C368.739 359.378 369.872 357.801 370.053 355.76H366.83V355.018H370.99ZM376.628 354.412V355.447H380.68V354.412H381.608V357.947H379.108V358.807H382.643V359.568H374.665V358.807H378.19V357.947H375.71V354.412H376.628ZM376.628 357.195H380.68V356.17H376.628V357.195ZM381.745 361.893V362.645H375.671V360.193H376.608V361.893H381.745ZM384.941 359.07V360.164H389.072V359.07H389.98V362.723H384.023V359.07H384.941ZM384.941 361.961H389.072V360.887H384.941V361.961ZM390 354.461V355.125C390 355.794 390 356.546 389.775 357.605H391.015V358.357H383.007V357.605H388.867C389.072 356.6 389.082 355.862 389.082 355.223H384.013V354.461H390Z" fill="#888888"/>
<path opacity="0.88" d="M398.625 362V361.219L401.076 358.748C401.848 357.938 402.238 357.488 402.238 356.873C402.238 356.18 401.672 355.73 400.93 355.73C400.148 355.73 399.641 356.229 399.641 356.98H398.625C398.615 355.691 399.602 354.832 400.949 354.832C402.316 354.832 403.254 355.691 403.264 356.844C403.254 357.635 402.883 358.26 401.555 359.568L400.119 361.023V361.082H403.381V362H398.625ZM403.96 360.623V359.754L407.085 354.93H408.413V359.715H409.38V360.623H408.413V362H407.397V360.623H403.96ZM405.093 359.715H407.397V356.209H407.319L405.093 359.656V359.715ZM411.17 361.326L410.388 364.021H409.558L410.076 361.326H411.17ZM414.473 362.098C412.832 362.098 411.875 360.779 411.875 358.465C411.875 356.17 412.852 354.832 414.473 354.832C416.094 354.832 417.071 356.17 417.071 358.465C417.071 360.779 416.104 362.098 414.473 362.098ZM414.473 361.17C415.43 361.17 415.996 360.232 415.996 358.465C415.996 356.707 415.42 355.74 414.473 355.74C413.526 355.74 412.95 356.707 412.95 358.465C412.95 360.232 413.516 361.17 414.473 361.17ZM420.345 362.098C418.704 362.098 417.747 360.779 417.747 358.465C417.747 356.17 418.724 354.832 420.345 354.832C421.966 354.832 422.943 356.17 422.943 358.465C422.943 360.779 421.976 362.098 420.345 362.098ZM420.345 361.17C421.302 361.17 421.868 360.232 421.868 358.465C421.868 356.707 421.292 355.74 420.345 355.74C419.398 355.74 418.821 356.707 418.821 358.465C418.821 360.232 419.388 361.17 420.345 361.17ZM426.217 362.098C424.576 362.098 423.619 360.779 423.619 358.465C423.619 356.17 424.596 354.832 426.217 354.832C427.838 354.832 428.814 356.17 428.814 358.465C428.814 360.779 427.848 362.098 426.217 362.098ZM426.217 361.17C427.174 361.17 427.74 360.232 427.74 358.465C427.74 356.707 427.164 355.74 426.217 355.74C425.27 355.74 424.693 356.707 424.693 358.465C424.693 360.232 425.26 361.17 426.217 361.17ZM430.634 361.326L429.852 364.021H429.022L429.54 361.326H430.634ZM433.937 362.098C432.296 362.098 431.339 360.779 431.339 358.465C431.339 356.17 432.316 354.832 433.937 354.832C435.558 354.832 436.535 356.17 436.535 358.465C436.535 360.779 435.568 362.098 433.937 362.098ZM433.937 361.17C434.894 361.17 435.461 360.232 435.461 358.465C435.461 356.707 434.884 355.74 433.937 355.74C432.99 355.74 432.414 356.707 432.414 358.465C432.414 360.232 432.98 361.17 433.937 361.17ZM439.809 362.098C438.168 362.098 437.211 360.779 437.211 358.465C437.211 356.17 438.188 354.832 439.809 354.832C441.43 354.832 442.407 356.17 442.407 358.465C442.407 360.779 441.44 362.098 439.809 362.098ZM439.809 361.17C440.766 361.17 441.332 360.232 441.332 358.465C441.332 356.707 440.756 355.74 439.809 355.74C438.862 355.74 438.286 356.707 438.286 358.465C438.286 360.232 438.852 361.17 439.809 361.17ZM445.681 362.098C444.04 362.098 443.083 360.779 443.083 358.465C443.083 356.17 444.06 354.832 445.681 354.832C447.302 354.832 448.279 356.17 448.279 358.465C448.279 360.779 447.312 362.098 445.681 362.098ZM445.681 361.17C446.638 361.17 447.204 360.232 447.204 358.465C447.204 356.707 446.628 355.74 445.681 355.74C444.734 355.74 444.157 356.707 444.157 358.465C444.157 360.232 444.724 361.17 445.681 361.17Z" fill="#353535"/>
<rect x="123" y="383" width="309" height="1" fill="#EEEEEE"/>
<rect x="123.5" y="397.5" width="70" height="24" rx="2.5" stroke="#EEEEEE"/>
<path opacity="0.88" d="M138.175 405.846V411.673H137.199V409.704H135.31C134.927 410.13 134.365 410.39 133.728 410.39C132.532 410.39 131.627 409.528 131.627 408.359C131.627 407.173 132.532 406.32 133.728 406.32C134.361 406.32 134.919 406.575 135.301 406.997H137.199V405.846H138.175ZM138.377 412.833V413.624H132.963V411.075H133.939V412.833H138.377ZM133.728 407.19C133.042 407.19 132.559 407.647 132.559 408.359C132.559 409.062 133.042 409.52 133.728 409.52C134.378 409.52 134.87 409.062 134.879 408.359C134.87 407.647 134.378 407.19 133.728 407.19ZM135.732 407.788C135.78 407.968 135.811 408.157 135.811 408.359C135.811 408.553 135.784 408.737 135.74 408.913H137.199V407.788H135.732ZM146.242 409.722V410.513H139V409.722H142.12V409.027H139.94V406.057H140.907V406.812H144.335V406.057H145.302V409.027H143.104V409.722H146.242ZM142.612 410.952C144.326 410.952 145.363 411.462 145.372 412.367C145.363 413.272 144.326 413.773 142.612 413.773C140.872 413.773 139.853 413.272 139.853 412.367C139.853 411.462 140.872 410.952 142.612 410.952ZM142.612 411.699C141.452 411.708 140.828 411.919 140.828 412.367C140.828 412.807 141.452 413.026 142.612 413.026C143.746 413.026 144.37 412.807 144.379 412.367C144.37 411.919 143.746 411.708 142.612 411.699ZM140.907 408.263H144.335V407.56H140.907V408.263ZM153.334 405.837V413.782H152.402V405.837H153.334ZM151.69 406.03V413.404H150.759V410.75H149.519V409.95H150.759V408.772H149.66C149.286 410.091 148.456 411.225 146.971 412.104L146.399 411.409C148.047 410.438 148.803 409.194 148.948 407.595H146.821V406.804H149.915C149.915 407.204 149.888 407.595 149.836 407.973H150.759V406.03H151.69ZM161.304 406.944V407.735H160.223V408.649H161.304V409.467H160.223V410.53H159.248V405.837H160.223V406.944H161.304ZM160.223 410.873V413.782H159.248V411.664H154.932V410.873H160.223ZM156.189 406.294C157.411 406.285 158.325 407.085 158.334 408.201C158.325 409.335 157.411 410.126 156.189 410.126C154.959 410.126 154.036 409.335 154.045 408.201C154.036 407.085 154.959 406.285 156.189 406.294ZM156.189 407.12C155.504 407.129 154.994 407.542 155.003 408.201C154.994 408.878 155.504 409.3 156.189 409.291C156.866 409.3 157.376 408.878 157.376 408.201C157.376 407.542 156.866 407.129 156.189 407.12ZM164.371 407.744C164.371 409.221 165.074 410.671 166.339 411.225L165.75 412.007C164.85 411.567 164.217 410.724 163.878 409.687C163.531 410.781 162.885 411.69 161.971 412.156L161.356 411.365C162.648 410.759 163.369 409.229 163.377 407.744V406.479H164.371V407.744ZM168.097 405.837V413.791H167.13V409.194H165.46V408.403H167.13V405.837H168.097ZM173.228 407.313C173.228 408.175 173.729 409.036 174.774 409.432L174.256 410.179C173.548 409.906 173.056 409.401 172.771 408.781C172.48 409.493 171.962 410.1 171.206 410.416L170.679 409.669C171.769 409.186 172.278 408.192 172.287 407.313V406.329H173.228V407.313ZM177.543 405.846V410.715H176.611V408.649H175.82V410.469H174.906V405.995H175.82V407.85H176.611V405.846H177.543ZM174.862 410.847C176.523 410.847 177.578 411.392 177.587 412.306C177.578 413.22 176.523 413.773 174.862 413.773C173.184 413.773 172.138 413.22 172.138 412.306C172.138 411.392 173.184 410.847 174.862 410.847ZM174.862 411.585C173.764 411.585 173.113 411.84 173.113 412.306C173.113 412.78 173.764 413.026 174.862 413.026C175.952 413.026 176.603 412.78 176.603 412.306C176.603 411.84 175.952 411.585 174.862 411.585ZM181.137 406.979C181.128 408.061 181.761 409.045 183.009 409.44L182.481 410.205C181.616 409.902 181.009 409.326 180.671 408.57C180.319 409.436 179.656 410.117 178.693 410.451L178.175 409.66C179.493 409.229 180.152 408.166 180.152 407.023V406.268H181.137V406.979ZM184.881 405.837V410.513H183.905V408.175H182.323V407.375H183.905V405.837H184.881ZM182.191 410.724C183.879 410.724 184.907 411.286 184.907 412.253C184.907 413.22 183.879 413.773 182.191 413.773C180.513 413.773 179.484 413.22 179.493 412.253C179.484 411.286 180.513 410.724 182.191 410.724ZM182.191 411.479C181.084 411.479 180.46 411.752 180.46 412.253C180.46 412.736 181.084 413.009 182.191 413.009C183.299 413.009 183.931 412.736 183.931 412.253C183.931 411.752 183.299 411.479 182.191 411.479Z" fill="#353535"/>
</g>
</g>
<defs>
<filter id="filter0_d_293_441" x="89.1578" y="245.843" width="50.0111" height="25.6849" filterUnits="userSpaceOnUse" color-interpolation-filters="sRGB">
<feFlood flood-opacity="0" result="BackgroundImageFix"/>
<feColorMatrix in="SourceAlpha" type="matrix" values="0 0 0 0 0 0 0 0 0 0 0 0 0 0 0 0 0 0 127 0" result="hardAlpha"/>
<feOffset dy="1.68478"/>
<feGaussianBlur stdDeviation="1.68478"/>
<feComposite in2="hardAlpha" operator="out"/>
<feColorMatrix type="matrix" values="0 0 0 0 0 0 0 0 0 0 0 0 0 0 0 0 0 0 0.1 0"/>
<feBlend mode="normal" in2="BackgroundImageFix" result="effect1_dropShadow_293_441"/>
<feBlend mode="normal" in="SourceGraphic" in2="effect1_dropShadow_293_441" result="shape"/>
</filter>
<filter id="filter1_d_293_441" x="68.8" y="288.8" width="518.4" height="195.4" filterUnits="userSpaceOnUse" color-interpolation-filters="sRGB">
<feFlood flood-opacity="0" result="BackgroundImageFix"/>
<feColorMatrix in="SourceAlpha" type="matrix" values="0 0 0 0 0 0 0 0 0 0 0 0 0 0 0 0 0 0 127 0" result="hardAlpha"/>
<feOffset dy="21"/>
<feGaussianBlur stdDeviation="10.6"/>
<feComposite in2="hardAlpha" operator="out"/>
<feColorMatrix type="matrix" values="0 0 0 0 0 0 0 0 0 0 0 0 0 0 0 0 0 0 0.06 0"/>
<feBlend mode="normal" in2="BackgroundImageFix" result="effect1_dropShadow_293_441"/>
<feBlend mode="normal" in="SourceGraphic" in2="effect1_dropShadow_293_441" result="shape"/>
</filter>
<clipPath id="clip0_293_441">
<rect width="440" height="500" rx="16" fill="white"/>
</clipPath>
<clipPath id="clip1_293_441">
<rect x="90" y="123" width="500" height="94" rx="8" fill="white"/>
</clipPath>
</defs>
</svg>
