<svg width="440" height="500" viewBox="0 0 440 500" fill="none" xmlns="http://www.w3.org/2000/svg">
<g clip-path="url(#clip0_269_1199)">
<g filter="url(#filter0_d_269_1199)">
<rect x="60" y="60" width="619" height="568.154" rx="22.1071" fill="white"/>
<mask id="path-3-inside-1_269_1199" fill="white">
<path d="M82.1069 87.0201C82.1069 84.3069 84.3064 82.1074 87.0196 82.1074H190.496C193.209 82.1074 195.409 84.3069 195.409 87.0201V117.479H82.1069V87.0201Z"/>
</mask>
<path d="M81.1244 87.0201C81.1244 83.7643 83.7638 81.1249 87.0196 81.1249H190.496C193.752 81.1249 196.391 83.7643 196.391 87.0201L194.426 87.0201C194.426 84.8496 192.666 83.09 190.496 83.09H87.0196C84.8491 83.09 83.0895 84.8496 83.0895 87.0201L81.1244 87.0201ZM195.409 117.479H82.1069H195.409ZM81.1244 117.479V87.0201C81.1244 83.7643 83.7638 81.1249 87.0196 81.1249L87.0196 83.09C84.8491 83.09 83.0895 84.8496 83.0895 87.0201V117.479H81.1244ZM190.496 81.1249C193.752 81.1249 196.391 83.7643 196.391 87.0201V117.479H194.426V87.0201C194.426 84.8496 192.666 83.09 190.496 83.09L190.496 81.1249Z" fill="#222222" mask="url(#path-3-inside-1_269_1199)"/>
<path d="M111.979 99.2702V94.4443H112.995V106.385H111.979V100.173H110.345V105.777H109.347V94.7008H110.345V99.2702H111.979ZM106.231 98.1112C106.231 98.7477 106.336 99.3762 106.545 99.9969C106.757 100.614 107.059 101.173 107.452 101.674C107.848 102.171 108.312 102.56 108.844 102.842L108.226 103.64C107.644 103.32 107.14 102.872 106.716 102.296C106.291 101.716 105.967 101.059 105.742 100.325C105.524 101.11 105.202 101.814 104.778 102.438C104.357 103.062 103.856 103.545 103.277 103.887L102.64 103.099C103.166 102.791 103.624 102.373 104.013 101.845C104.406 101.313 104.707 100.722 104.916 100.073C105.125 99.4237 105.231 98.7698 105.234 98.1112V97.5602H102.916V96.6767H105.234V94.8813H106.241V96.6767H108.521V97.5602H106.231V98.1112ZM122.508 100.353H125.216V101.218H114.329V100.353H117.027V98.6669C116.546 98.4801 116.177 98.2363 115.92 97.9355C115.664 97.6315 115.535 97.2816 115.535 96.8857C115.535 96.4234 115.705 96.026 116.044 95.6935C116.386 95.361 116.873 95.1077 117.507 94.9336C118.143 94.7594 118.895 94.6723 119.763 94.6723C120.627 94.6723 121.376 94.7594 122.009 94.9336C122.643 95.1077 123.129 95.361 123.468 95.6935C123.81 96.026 123.981 96.4234 123.981 96.8857C123.981 97.2816 123.854 97.6299 123.601 97.9307C123.347 98.2315 122.983 98.4738 122.508 98.6574V100.353ZM116.628 96.8857C116.625 97.1739 116.748 97.4225 116.998 97.6315C117.252 97.8373 117.613 97.994 118.081 98.1017C118.553 98.2094 119.114 98.2632 119.763 98.2632C120.409 98.2632 120.968 98.2094 121.439 98.1017C121.911 97.994 122.274 97.8373 122.527 97.6315C122.781 97.4225 122.907 97.1739 122.907 96.8857C122.907 96.6007 122.779 96.3538 122.522 96.1448C122.269 95.9358 121.907 95.7759 121.435 95.665C120.963 95.5542 120.406 95.4988 119.763 95.4988C119.117 95.4988 118.558 95.5542 118.086 95.665C117.614 95.7759 117.252 95.9358 116.998 96.1448C116.748 96.3538 116.625 96.6007 116.628 96.8857ZM118.081 100.353H121.463V98.9424C120.95 99.0343 120.383 99.0802 119.763 99.0802C119.133 99.0802 118.572 99.0358 118.081 98.9472V100.353ZM119.763 102.139C120.618 102.136 121.352 102.215 121.967 102.377C122.581 102.538 123.051 102.777 123.377 103.094C123.707 103.407 123.873 103.789 123.876 104.239C123.873 104.691 123.707 105.076 123.377 105.393C123.051 105.709 122.581 105.948 121.967 106.11C121.352 106.275 120.618 106.357 119.763 106.357C118.901 106.357 118.162 106.275 117.545 106.11C116.927 105.948 116.455 105.709 116.129 105.393C115.803 105.076 115.64 104.691 115.64 104.239C115.64 103.789 115.803 103.407 116.129 103.094C116.455 102.777 116.927 102.538 117.545 102.377C118.162 102.215 118.901 102.136 119.763 102.139ZM119.763 105.53C120.393 105.534 120.936 105.485 121.392 105.383C121.851 105.282 122.203 105.133 122.446 104.937C122.693 104.74 122.819 104.508 122.822 104.239C122.819 103.973 122.693 103.743 122.446 103.55C122.203 103.357 121.851 103.209 121.392 103.108C120.936 103.004 120.393 102.95 119.763 102.947C119.129 102.95 118.583 103.004 118.124 103.108C117.665 103.209 117.313 103.357 117.07 103.55C116.829 103.743 116.71 103.973 116.713 104.239C116.71 104.508 116.829 104.74 117.07 104.937C117.313 105.133 117.665 105.282 118.124 105.383C118.583 105.485 119.129 105.534 119.763 105.53ZM134.368 95.9168H127.224V95.0523H135.413V96.0688C135.413 96.4963 135.406 96.8572 135.394 97.1517C135.384 97.4462 135.356 97.7708 135.308 98.1254C135.261 98.4801 135.185 98.849 135.08 99.2322L134.045 99.1182C134.146 98.7318 134.219 98.3693 134.263 98.0305C134.311 97.6916 134.339 97.3829 134.349 97.1042C134.361 96.8256 134.368 96.4804 134.368 96.0688V95.9168ZM131.47 97.7027V100.011H136.8V100.876H125.932V100.011H130.435V97.7027H131.47ZM131.318 101.987C132.17 101.987 132.911 102.074 133.541 102.248C134.171 102.422 134.658 102.674 135 103.004C135.341 103.333 135.514 103.726 135.517 104.182C135.514 104.631 135.341 105.019 135 105.345C134.658 105.675 134.171 105.925 133.541 106.096C132.911 106.27 132.17 106.357 131.318 106.357C130.47 106.357 129.73 106.27 129.1 106.096C128.473 105.925 127.989 105.675 127.647 105.345C127.308 105.019 127.139 104.631 127.139 104.182C127.139 103.726 127.308 103.333 127.647 103.004C127.989 102.674 128.473 102.422 129.1 102.248C129.73 102.074 130.47 101.987 131.318 101.987ZM131.318 105.521C131.952 105.521 132.504 105.467 132.976 105.359C133.448 105.252 133.812 105.097 134.069 104.894C134.328 104.691 134.46 104.454 134.463 104.182C134.46 103.9 134.328 103.656 134.069 103.45C133.812 103.241 133.448 103.081 132.976 102.97C132.504 102.856 131.952 102.798 131.318 102.795C130.688 102.798 130.137 102.856 129.665 102.97C129.194 103.081 128.829 103.241 128.573 103.45C128.316 103.656 128.19 103.9 128.193 104.182C128.19 104.454 128.316 104.691 128.573 104.894C128.829 105.093 129.194 105.247 129.665 105.355C130.137 105.466 130.688 105.521 131.318 105.521ZM146.037 96.5248H138.675V95.6508H147.092V96.8382V96.9427C147.089 97.6014 147.078 98.1714 147.059 98.6527C147.043 99.134 147.003 99.6881 146.94 100.315C146.876 100.942 146.778 101.62 146.645 102.348L145.581 102.225C145.718 101.537 145.817 100.887 145.881 100.272C145.947 99.6581 145.988 99.1118 146.004 98.6337C146.023 98.1555 146.034 97.5919 146.037 96.9427V96.8382V96.5248ZM142.826 99.5457V103.811H148.403V104.694H137.516V103.811H141.781V99.5457H142.826ZM158.699 98.4342V97.5602H161.111V94.4443H162.166V101.56H161.111V98.4342H158.699ZM155.91 98.3962C155.654 99.096 155.26 99.7119 154.728 100.244C154.199 100.776 153.578 101.176 152.866 101.446L152.315 100.61C152.901 100.397 153.425 100.087 153.887 99.6786C154.349 99.2702 154.709 98.8015 154.965 98.2727C155.225 97.7439 155.355 97.1992 155.355 96.6387V96.1923H152.657V95.3183H159.088V96.1923H156.419V96.6292C156.419 97.1422 156.542 97.641 156.789 98.1254C157.036 98.6068 157.383 99.0358 157.829 99.4127C158.276 99.7863 158.787 100.071 159.364 100.268L158.813 101.113C158.148 100.872 157.563 100.515 157.06 100.04C156.556 99.5647 156.173 99.0168 155.91 98.3962ZM158.205 101.93C159.028 101.93 159.739 102.019 160.337 102.196C160.939 102.37 161.4 102.624 161.719 102.956C162.042 103.289 162.204 103.688 162.204 104.153C162.204 104.618 162.042 105.016 161.719 105.345C161.4 105.678 160.94 105.931 160.342 106.105C159.744 106.283 159.031 106.373 158.205 106.376C157.375 106.373 156.659 106.283 156.058 106.105C155.459 105.931 155 105.678 154.68 105.345C154.36 105.016 154.202 104.618 154.205 104.153C154.202 103.688 154.36 103.289 154.68 102.956C155 102.624 155.461 102.37 156.062 102.196C156.664 102.019 157.378 101.93 158.205 101.93ZM158.205 105.53C158.809 105.534 159.333 105.48 159.777 105.369C160.22 105.261 160.561 105.103 160.798 104.894C161.039 104.685 161.159 104.438 161.159 104.153C161.159 103.865 161.039 103.616 160.798 103.407C160.561 103.195 160.22 103.034 159.777 102.923C159.333 102.812 158.809 102.757 158.205 102.757C157.597 102.757 157.069 102.812 156.623 102.923C156.18 103.034 155.839 103.195 155.602 103.407C155.364 103.616 155.247 103.865 155.25 104.153C155.247 104.438 155.364 104.685 155.602 104.894C155.839 105.103 156.18 105.261 156.623 105.369C157.069 105.48 157.597 105.534 158.205 105.53ZM169.817 101.398V103.973H174.795V104.856H163.861V103.973H168.772V101.398H165.153V95.2898H166.207V97.4462H172.411V95.2898H173.456V101.398H169.817ZM172.411 98.3107H166.207V100.534H172.411V98.3107Z" fill="black"/>
<path d="M198.356 87.0201C198.356 84.3069 200.555 82.1074 203.269 82.1074H291.697C294.41 82.1074 296.61 84.3069 296.61 87.0201V117.479H198.356V87.0201Z" fill="#F7F9FC"/>
<path d="M231.017 98.6242V97.7597H233.477V94.4538H234.532V103.213H233.477V98.6242H231.017ZM228.271 98.6764C228.012 99.3667 227.617 99.9747 227.089 100.5C226.56 101.023 225.941 101.417 225.231 101.683L224.68 100.819C225.266 100.613 225.789 100.312 226.248 99.9161C226.71 99.5172 227.071 99.058 227.331 98.5387C227.591 98.0162 227.72 97.4747 227.72 96.9142V96.2968H225.022V95.4228H231.454V96.2968H228.784V96.9142C228.784 97.4209 228.908 97.9165 229.155 98.4009C229.405 98.8854 229.752 99.3161 230.195 99.6929C230.642 100.07 231.153 100.356 231.729 100.553L231.178 101.398C230.51 101.157 229.924 100.8 229.421 100.325C228.917 99.8496 228.534 99.3002 228.271 98.6764ZM227.92 102.424V105.245H234.864V106.119H226.865V102.424H227.92ZM240.188 95.7838H243V96.6387H236.236V95.7838H239.143V94.3398H240.188V95.7838ZM242.99 98.1872V97.3132H245.071V94.4443H246.125V102.168H245.071V100.515H242.981V99.6407H245.071V98.1872H242.99ZM242.382 99.4697C242.379 99.9066 242.262 100.293 242.031 100.629C241.8 100.961 241.478 101.219 241.067 101.403C240.655 101.583 240.185 101.674 239.656 101.674C239.121 101.674 238.647 101.583 238.236 101.403C237.827 101.219 237.509 100.961 237.281 100.629C237.056 100.293 236.945 99.9066 236.949 99.4697C236.945 99.0295 237.056 98.6432 237.281 98.3107C237.509 97.975 237.827 97.7154 238.236 97.5317C238.647 97.3481 239.121 97.2562 239.656 97.2562C240.185 97.2562 240.655 97.3481 241.067 97.5317C241.478 97.7154 241.8 97.975 242.031 98.3107C242.262 98.6432 242.379 99.0295 242.382 99.4697ZM237.936 99.4697C237.933 99.7451 238.001 99.989 238.141 100.201C238.283 100.413 238.484 100.578 238.744 100.695C239.007 100.809 239.311 100.866 239.656 100.866C239.995 100.866 240.294 100.808 240.554 100.69C240.816 100.573 241.021 100.41 241.166 100.201C241.315 99.989 241.391 99.7451 241.394 99.4697C241.391 99.191 241.317 98.9456 241.171 98.7334C241.025 98.5213 240.821 98.3566 240.558 98.2394C240.296 98.1191 239.995 98.0574 239.656 98.0542C239.311 98.0574 239.007 98.1191 238.744 98.2394C238.484 98.3566 238.283 98.5213 238.141 98.7334C238.001 98.9456 237.933 99.191 237.936 99.4697ZM242.192 102.282C243.019 102.282 243.731 102.362 244.33 102.524C244.931 102.682 245.392 102.915 245.712 103.222C246.032 103.526 246.192 103.893 246.192 104.324C246.192 104.748 246.032 105.112 245.712 105.416C245.392 105.72 244.931 105.953 244.33 106.115C243.731 106.276 243.019 106.357 242.192 106.357C241.36 106.357 240.641 106.276 240.036 106.115C239.434 105.956 238.974 105.724 238.654 105.416C238.334 105.112 238.174 104.748 238.174 104.324C238.174 103.893 238.334 103.526 238.654 103.222C238.974 102.915 239.434 102.682 240.036 102.524C240.641 102.362 241.36 102.282 242.192 102.282ZM242.192 105.53C242.785 105.534 243.297 105.488 243.731 105.393C244.165 105.298 244.498 105.158 244.729 104.975C244.963 104.791 245.08 104.574 245.08 104.324C245.08 104.068 244.963 103.849 244.729 103.669C244.498 103.485 244.165 103.346 243.731 103.251C243.301 103.156 242.788 103.108 242.192 103.108C241.588 103.108 241.065 103.156 240.625 103.251C240.188 103.346 239.852 103.485 239.618 103.669C239.384 103.849 239.266 104.068 239.266 104.324C239.266 104.574 239.384 104.791 239.618 104.975C239.855 105.158 240.193 105.298 240.63 105.393C241.07 105.488 241.591 105.534 242.192 105.53ZM257.158 94.4348V97.9972H258.963V98.8807H257.158V103.089H256.104V94.4348H257.158ZM254.926 100.562C254.141 100.714 253.36 100.819 252.584 100.876C251.808 100.933 250.836 100.961 249.668 100.961H249.312H248.39V95.4798H253.7V96.3538H249.435V100.078H249.825C250.942 100.078 251.867 100.051 252.598 99.9969C253.33 99.9399 254.061 99.837 254.793 99.6881L254.926 100.562ZM249.682 102.215H250.727V105.245H257.709V106.119H249.682V102.215ZM268.628 106.385V94.4443H269.635V106.385H268.628ZM266.206 97.7692V94.7673H267.222V105.777H266.206V101.636H263.993V100.762H266.206V98.6432H264.187C263.886 99.6881 263.394 100.646 262.71 101.517C262.029 102.384 261.139 103.146 260.041 103.802L259.404 103.042C260.674 102.288 261.648 101.387 262.325 100.339C263.006 99.2876 263.4 98.1239 263.508 96.8477H259.936V95.9643H264.553C264.553 96.5881 264.499 97.1897 264.392 97.7692H266.206Z" fill="#888888"/>
<path d="M299.558 87.0201C299.558 84.3069 301.757 82.1074 304.47 82.1074H395.947C398.66 82.1074 400.859 84.3069 400.859 87.0201V117.479H299.558V87.0201Z" fill="#F7F9FC"/>
<path d="M328.77 106.385V94.4443H329.825V106.385H328.77ZM324.258 98.1112C324.258 98.7698 324.403 99.4253 324.695 100.078C324.986 100.727 325.379 101.306 325.873 101.816C326.367 102.323 326.905 102.703 327.488 102.956L326.899 103.792C326.436 103.58 325.999 103.292 325.588 102.928C325.176 102.563 324.81 102.144 324.49 101.669C324.174 101.191 323.924 100.679 323.74 100.135C323.553 100.711 323.301 101.259 322.985 101.778C322.668 102.294 322.306 102.752 321.897 103.151C321.489 103.55 321.059 103.862 320.61 104.087L319.983 103.251C320.55 102.981 321.078 102.571 321.569 102.02C322.06 101.469 322.453 100.849 322.747 100.158C323.042 99.4649 323.191 98.7825 323.194 98.1112V96.5533H320.372V95.6698H327.098V96.5533H324.258V98.1112ZM337.894 102.282V101.512H340.354V94.4538H341.418V103.526H340.354V102.282H337.894ZM335.433 99.0897C334.848 99.0897 334.33 99.0058 333.88 98.8379C333.434 98.6701 333.087 98.4294 332.84 98.116C332.593 97.8025 332.469 97.4367 332.469 97.0187C332.469 96.6071 332.593 96.2445 332.84 95.931C333.087 95.6144 333.435 95.3705 333.885 95.1995C334.335 95.0254 334.851 94.9383 335.433 94.9383C336.01 94.9383 336.521 95.0254 336.968 95.1995C337.414 95.3705 337.761 95.6144 338.008 95.931C338.258 96.2445 338.385 96.6071 338.388 97.0187C338.385 97.4367 338.258 97.8025 338.008 98.116C337.761 98.4263 337.414 98.6669 336.968 98.8379C336.524 99.0058 336.013 99.0897 335.433 99.0897ZM335.433 95.7363C335.047 95.7331 334.705 95.7854 334.407 95.893C334.11 96.0007 333.879 96.1527 333.714 96.349C333.552 96.5422 333.473 96.7654 333.476 97.0187C333.473 97.2752 333.552 97.5001 333.714 97.6932C333.879 97.8864 334.11 98.0368 334.407 98.1444C334.705 98.2489 335.047 98.3012 335.433 98.3012C335.807 98.3012 336.141 98.2489 336.436 98.1444C336.73 98.0368 336.96 97.8864 337.124 97.6932C337.292 97.5001 337.378 97.2752 337.381 97.0187C337.378 96.7654 337.292 96.5422 337.124 96.349C336.96 96.1527 336.73 96.0007 336.436 95.893C336.141 95.7854 335.807 95.7331 335.433 95.7363ZM335.015 103.108V100.8C334.198 100.831 333.271 100.847 332.232 100.847H331.652L331.51 99.9826C333.087 99.9763 334.494 99.9526 335.733 99.9114C336.974 99.8671 338.157 99.7736 339.281 99.6312L339.357 100.401C338.366 100.559 337.27 100.675 336.07 100.747V103.108H335.015ZM334.284 102.633V105.245H341.713V106.119H333.229V102.633H334.284ZM352.024 98.5197V94.4443H353.069V106.404H352.024V99.3842H349.193V98.5197H352.024ZM347.369 97.6552C347.369 98.3582 347.507 99.0548 347.782 99.7451C348.061 100.435 348.438 101.05 348.913 101.588C349.391 102.123 349.918 102.522 350.494 102.785L349.858 103.64C349.408 103.409 348.987 103.102 348.594 102.719C348.205 102.335 347.86 101.897 347.559 101.403C347.261 100.909 347.024 100.38 346.846 99.8164C346.672 100.409 346.435 100.967 346.134 101.493C345.836 102.019 345.491 102.484 345.098 102.89C344.706 103.295 344.285 103.618 343.835 103.859L343.161 103.013C343.737 102.728 344.264 102.302 344.742 101.735C345.224 101.169 345.604 100.527 345.882 99.8116C346.161 99.0928 346.302 98.374 346.305 97.6552V95.4798H347.369V97.6552ZM367.82 100.619H366.765V97.5127H364.105V96.6387H366.765V94.4443H367.82V100.619ZM361.488 97.736C361.232 98.4168 360.842 99.0089 360.32 99.5124C359.801 100.016 359.188 100.394 358.482 100.648L357.912 99.8021C358.507 99.6027 359.034 99.3113 359.493 98.9282C359.953 98.545 360.309 98.097 360.562 97.584C360.819 97.071 360.948 96.5279 360.952 95.9548V94.8243H361.987V95.9548C361.984 96.4678 362.107 96.9633 362.358 97.4415C362.611 97.9165 362.962 98.336 363.412 98.7002C363.865 99.0612 364.381 99.3367 364.96 99.5267L364.39 100.353C363.729 100.116 363.144 99.7705 362.638 99.3177C362.134 98.8648 361.751 98.3376 361.488 97.736ZM361.142 104.068V105.369H368.266V106.224H360.106V103.26H366.775V102.073H360.078V101.227H367.82V104.068H361.142ZM375.946 98.4342V97.5602H378.359V94.4443H379.413V101.56H378.359V98.4342H375.946ZM373.158 98.3962C372.901 99.096 372.507 99.7119 371.975 100.244C371.446 100.776 370.826 101.176 370.113 101.446L369.562 100.61C370.148 100.397 370.672 100.087 371.134 99.6786C371.597 99.2702 371.956 98.8015 372.213 98.2727C372.472 97.7439 372.602 97.1992 372.602 96.6387V96.1923H369.904V95.3183H376.336V96.1923H373.666V96.6292C373.666 97.1422 373.79 97.641 374.037 98.1254C374.284 98.6068 374.63 99.0358 375.077 99.4127C375.523 99.7863 376.035 100.071 376.611 100.268L376.06 101.113C375.395 100.872 374.811 100.515 374.307 100.04C373.804 99.5647 373.421 99.0168 373.158 98.3962ZM375.452 101.93C376.275 101.93 376.986 102.019 377.585 102.196C378.186 102.37 378.647 102.624 378.967 102.956C379.29 103.289 379.451 103.688 379.451 104.153C379.451 104.618 379.29 105.016 378.967 105.345C378.647 105.678 378.188 105.931 377.589 106.105C376.991 106.283 376.279 106.373 375.452 106.376C374.622 106.373 373.907 106.283 373.305 106.105C372.707 105.931 372.248 105.678 371.928 105.345C371.608 105.016 371.45 104.618 371.453 104.153C371.45 103.688 371.608 103.289 371.928 102.956C372.248 102.624 372.708 102.37 373.31 102.196C373.912 102.019 374.626 101.93 375.452 101.93ZM375.452 105.53C376.057 105.534 376.581 105.48 377.024 105.369C377.468 105.261 377.808 105.103 378.045 104.894C378.286 104.685 378.406 104.438 378.406 104.153C378.406 103.865 378.286 103.616 378.045 103.407C377.808 103.195 377.468 103.034 377.024 102.923C376.581 102.812 376.057 102.757 375.452 102.757C374.844 102.757 374.317 102.812 373.87 102.923C373.427 103.034 373.087 103.195 372.849 103.407C372.612 103.616 372.494 103.865 372.498 104.153C372.494 104.438 372.612 104.685 372.849 104.894C373.087 105.103 373.427 105.261 373.87 105.369C374.317 105.48 374.844 105.534 375.452 105.53Z" fill="#888888"/>
<path d="M92.5592 137.817V149.516H91.2062V137.817H92.5592ZM82.2926 146.2C83.9772 145.165 84.72 143.056 84.7333 141.027V140.231H82.6906V139.063H87.9963V140.231H86.1127V141.027C86.1127 142.99 86.8158 144.979 88.5003 145.934L87.6514 146.996C86.5505 146.359 85.8342 145.231 85.4363 143.892C85.0251 145.337 84.269 146.571 83.1681 147.261L82.2926 146.2ZM87.1474 143.069V141.902H88.8452V138.055H90.1981V148.959H88.8452V143.069H87.1474ZM102.882 138.294V142.353H99.6192V143.6H104.235V144.767H93.5707V143.6H98.1601V142.353H94.8971V138.294H102.882ZM94.738 146.889V145.749H102.935V149.516H101.476V146.889H94.738ZM96.3031 141.212H101.45V139.435H96.3031V141.212Z" fill="#999999"/>
<rect x="82.6596" y="164.192" width="573.68" height="36.4768" rx="4.88199" fill="white"/>
<rect x="82.6596" y="164.192" width="573.68" height="36.4768" rx="4.88199" stroke="#DDDDDD" stroke-width="1.10536"/>
<path d="M99.599 178.04V187.431H97.9277V178.04H99.599ZM100.525 179.472V178.04H108.006V179.472H105.114V187.431H103.443V179.472H100.525ZM120.901 177.217V178.305H119.282V180.082H120.821V181.17H112.226V180.082H113.791V178.305H112.173V177.217H120.901ZM111.218 183.053V181.913H121.882V183.053H111.218ZM112.464 188.492V185.627H119.123V184.884H112.464V183.823H120.556V186.608H113.897V187.404H120.874V188.492H112.464ZM115.223 180.082H117.85V178.305H115.223V180.082ZM132.285 176.899V184.778H130.932V180.958H129.685V183.796H128.358V177.111H129.685V179.79H130.932V176.899H132.285ZM122.761 183.664V180.135H125.812V178.888H122.761V177.721H127.191V181.196H124.167V182.549C125.533 182.536 126.568 182.457 127.748 182.231L127.881 183.345C126.488 183.637 125.308 183.677 123.557 183.664H122.761ZM123.716 187.404C126.05 187.086 127.549 185.839 127.563 184.486V184.247H128.995V184.486C128.995 185.839 130.481 187.086 132.842 187.404L132.285 188.518C130.441 188.24 128.995 187.417 128.279 186.25C127.549 187.417 126.104 188.24 124.273 188.518L123.716 187.404ZM144.014 182.629V183.77H133.349V182.629H137.939V181.541H134.357V180.374H135.923V178.384H134.304V177.217H143.032V178.384H141.414V180.374H142.953V181.541H139.371V182.629H144.014ZM134.596 188.439V184.672H142.714V188.439H134.596ZM136.029 187.271H141.308V185.812H136.029V187.271ZM137.355 180.374H139.981V178.384H137.355V180.374ZM151.502 179.684C151.489 181.86 152.537 183.995 154.394 184.831L153.518 185.972C152.205 185.322 151.276 184.088 150.772 182.563C150.268 184.168 149.313 185.507 147.974 186.184L147.045 185.017C148.955 184.128 150.016 181.873 150.043 179.684V177.827H151.502V179.684ZM153.094 181.833V180.666H155.561V176.872H156.993V188.598H155.561V181.833H153.094ZM167.98 176.872V188.598H166.521V176.872H167.98ZM158.854 185.839V177.827H160.286V180.745H163.125V177.827H164.557V185.839H158.854ZM160.286 184.645H163.125V181.886H160.286V184.645ZM175.358 178.491C175.345 180.294 177.122 182.112 179.576 182.523L178.913 183.743C176.95 183.332 175.358 182.138 174.602 180.573C173.819 182.125 172.214 183.319 170.264 183.743L169.628 182.523C172.042 182.098 173.806 180.281 173.819 178.491V177.615H175.358V178.491ZM169.309 187.086V185.892H180V187.086H169.309ZM191.066 182.178V183.266H180.349V182.178H191.066ZM181.596 184.99V183.982H189.766V186.635H183.055V187.457H190.111V188.465H181.622V185.706H188.334V184.99H181.596ZM181.675 178.119V177.138H189.74V179.764H183.134V180.533H189.926V181.515H181.702V178.835H188.281V178.119H181.675ZM203.436 176.872V179.843H205.081V181.037H203.436V183.929H201.977V176.872H203.436ZM194.204 179.154V178.013H196.963V176.793H198.395V178.013H201.154V179.154H194.204ZM194.814 181.674C194.801 180.427 195.968 179.578 197.679 179.578C199.377 179.578 200.531 180.427 200.544 181.674C200.531 182.934 199.377 183.783 197.679 183.77C195.968 183.783 194.801 182.934 194.814 181.674ZM195.875 188.439V184.486H203.436V188.439H195.875ZM196.193 181.674C196.193 182.337 196.79 182.709 197.679 182.709C198.568 182.709 199.165 182.337 199.165 181.674C199.165 181.051 198.568 180.666 197.679 180.666C196.79 180.666 196.193 181.051 196.193 181.674ZM197.281 187.271H202.003V185.627H197.281V187.271ZM208.135 178.252C208.135 181.011 207.83 183.677 206.278 185.972L205.137 185.361C206.437 183.544 206.822 181.647 206.901 179.419H205.482V178.252H208.135ZM207.79 185.998C209.196 183.995 209.474 181.74 209.527 179.419H208.506V178.252H210.761C210.761 179.247 210.735 180.294 210.628 181.329H211.822V177.164H213.175V188.041H211.822V182.496H210.469C210.217 183.942 209.766 185.361 208.904 186.635L207.79 185.998ZM214.051 188.571V176.872H215.43V188.571H214.051ZM228.861 176.872V188.571H227.402V176.872H228.861ZM219.178 185.361C222.229 183.902 223.648 181.926 223.913 179.26H219.761V178.119H225.385C225.372 181.608 224.019 184.566 219.921 186.502L219.178 185.361ZM237.486 177.801V178.862H230.562V177.801H233.294V176.793H234.753V177.801H237.486ZM230.217 183.372C231.146 183.372 232.193 183.372 233.294 183.345V182.656C231.968 182.483 231.146 181.873 231.146 180.958C231.146 179.883 232.286 179.194 234.037 179.207C235.748 179.194 236.916 179.883 236.929 180.958C236.916 181.873 236.067 182.496 234.753 182.656V183.292C235.735 183.239 236.717 183.173 237.645 183.053L237.751 184.035C235.244 184.446 232.485 184.486 230.403 184.486L230.217 183.372ZM231.862 186.37V185.255H239.927V188.571H238.467V186.37H231.862ZM232.525 180.958C232.525 181.448 233.122 181.727 234.037 181.727C234.926 181.727 235.536 181.448 235.549 180.958C235.536 180.454 234.926 180.175 234.037 180.162C233.122 180.175 232.525 180.454 232.525 180.958ZM238.467 184.778V176.899H239.927V184.778H238.467ZM250.462 176.846V179.499H252.107V180.639H250.462V183.239H249.003V176.846H250.462ZM241.23 178.915V177.801H243.989V176.793H245.421V177.801H248.18V178.915H241.23ZM241.84 181.196C241.827 180.029 242.967 179.286 244.705 179.286C246.443 179.286 247.557 180.029 247.57 181.196C247.557 182.403 246.443 183.12 244.705 183.107C242.967 183.12 241.827 182.403 241.84 181.196ZM242.795 184.804V183.743H250.462V186.582H244.228V187.404H250.833V188.492H242.822V185.574H249.029V184.804H242.795ZM243.219 181.196C243.219 181.78 243.803 182.072 244.705 182.072C245.62 182.072 246.191 181.78 246.191 181.196C246.191 180.639 245.62 180.308 244.705 180.321C243.803 180.308 243.219 180.639 243.219 181.196ZM259.383 179.684C259.369 181.86 260.417 183.995 262.274 184.831L261.399 185.972C260.086 185.322 259.157 184.088 258.653 182.563C258.149 184.168 257.194 185.507 255.854 186.184L254.926 185.017C256.836 184.128 257.897 181.873 257.923 179.684V177.827H259.383V179.684ZM260.974 181.833V180.666H263.441V176.872H264.874V188.598H263.441V181.833H260.974ZM275.86 176.872V188.598H274.401V176.872H275.86ZM266.734 185.839V177.827H268.167V180.745H271.005V177.827H272.438V185.839H266.734ZM268.167 184.645H271.005V181.886H268.167V184.645ZM283.239 178.491C283.225 180.294 285.003 182.112 287.457 182.523L286.793 183.743C284.83 183.332 283.239 182.138 282.483 180.573C281.7 182.125 280.095 183.319 278.145 183.743L277.508 182.523C279.923 182.098 281.687 180.281 281.7 178.491V177.615H283.239V178.491ZM277.19 187.086V185.892H287.881V187.086H277.19ZM300.781 176.872V188.571H299.322V176.872H300.781ZM291.098 185.361C294.149 183.902 295.568 181.926 295.834 179.26H291.682V178.119H297.306C297.293 181.608 295.94 184.566 291.841 186.502L291.098 185.361ZM309.406 177.801V178.862H302.482V177.801H305.215V176.793H306.674V177.801H309.406ZM302.137 183.372C303.066 183.372 304.114 183.372 305.215 183.345V182.656C303.888 182.483 303.066 181.873 303.066 180.958C303.066 179.883 304.207 179.194 305.958 179.207C307.669 179.194 308.836 179.883 308.849 180.958C308.836 181.873 307.987 182.496 306.674 182.656V183.292C307.655 183.239 308.637 183.173 309.565 183.053L309.672 184.035C307.165 184.446 304.406 184.486 302.323 184.486L302.137 183.372ZM303.782 186.37V185.255H311.847V188.571H310.388V186.37H303.782ZM304.445 180.958C304.445 181.448 305.042 181.727 305.958 181.727C306.846 181.727 307.456 181.448 307.47 180.958C307.456 180.454 306.846 180.175 305.958 180.162C305.042 180.175 304.445 180.454 304.445 180.958ZM310.388 184.778V176.899H311.847V184.778H310.388ZM317.342 180.188C317.329 182.006 318.416 184.075 320.26 184.937L319.464 186.078C318.138 185.454 317.169 184.194 316.639 182.722C316.108 184.34 315.087 185.72 313.734 186.37L312.885 185.229C314.755 184.34 315.896 182.151 315.909 180.188V179.207H313.336V178.04H319.782V179.207H317.342V180.188ZM320.87 188.571V176.872H322.303V181.435H324.107V182.629H322.303V188.571H320.87ZM330.56 180.427C330.547 182.231 331.276 184.062 332.948 184.937L332.125 185.998C331.038 185.428 330.295 184.393 329.884 183.16C329.472 184.499 328.743 185.627 327.642 186.263L326.793 185.176C328.438 184.234 329.181 182.284 329.181 180.427V180.109H327.138V178.942H329.181V177.297H330.534V178.942H332.576V180.109H330.56V180.427ZM333.186 188.014V177.085H334.539V181.462H335.76V176.872H337.139V188.571H335.76V182.656H334.539V188.014H333.186ZM348.709 182.496V183.664H338.045V182.496H340.512V181.011C339.636 180.639 339.146 180.056 339.132 179.286C339.146 177.894 340.777 177.071 343.377 177.058C345.937 177.071 347.568 177.894 347.568 179.286C347.568 180.056 347.064 180.653 346.189 181.024V182.496H348.709ZM339.265 186.449C339.278 185.109 340.804 184.367 343.35 184.38C345.884 184.367 347.409 185.109 347.409 186.449C347.409 187.815 345.884 188.558 343.35 188.545C340.804 188.558 339.278 187.815 339.265 186.449ZM340.644 179.286C340.631 180.016 341.626 180.387 343.377 180.401C345.088 180.387 346.096 180.016 346.083 179.286C346.096 178.57 345.088 178.172 343.377 178.172C341.626 178.172 340.631 178.57 340.644 179.286ZM340.751 186.449C340.737 187.112 341.653 187.47 343.35 187.457C345.035 187.47 345.963 187.112 345.977 186.449C345.963 185.799 345.035 185.468 343.35 185.468C341.653 185.468 340.737 185.799 340.751 186.449ZM341.971 182.496H344.756V181.395C344.332 181.462 343.868 181.488 343.377 181.488C342.873 181.488 342.395 181.462 341.971 181.395V182.496ZM352.696 183.611C352.682 181.316 353.292 179.419 354.5 177.774H356.038C355.123 178.995 354.393 181.435 354.393 183.611C354.393 185.773 355.123 188.213 356.038 189.42H354.5C353.292 187.789 352.682 185.892 352.696 183.611ZM366.225 176.899V183.717H364.793V182.443H362.007V181.276H364.793V180.003H362.127C361.384 181.873 359.673 183.173 357.126 183.876L356.543 182.735C359.288 181.992 360.747 180.6 360.973 178.862H357.153V177.695H362.538C362.538 178.106 362.511 178.491 362.445 178.862H364.793V176.899H366.225ZM358.4 186.184C358.386 184.751 359.965 183.863 362.352 183.849C364.727 183.863 366.305 184.751 366.305 186.184C366.305 187.63 364.727 188.518 362.352 188.518C359.965 188.518 358.386 187.63 358.4 186.184ZM359.832 186.184C359.819 186.953 360.787 187.378 362.352 187.378C363.904 187.378 364.872 186.953 364.872 186.184C364.872 185.401 363.904 184.977 362.352 184.99C360.787 184.977 359.819 185.401 359.832 186.184ZM373.073 177.562V181.09H369.386V182.549C371.269 182.536 372.344 182.483 373.604 182.258L373.736 183.425C372.344 183.65 371.123 183.69 368.829 183.69H367.953V180.029H371.641V178.703H367.953V177.562H373.073ZM369.306 185.812V184.645H377.291V188.598H375.859V185.812H369.306ZM373.79 182.151V181.011H375.859V179.684H373.79V178.544H375.859V176.899H377.291V184.088H375.859V182.151H373.79ZM381.911 183.584C381.924 185.879 381.314 187.776 380.107 189.42H378.568C379.483 188.2 380.213 185.759 380.213 183.584C380.213 181.422 379.483 178.981 378.568 177.774H380.107C381.314 179.406 381.924 181.303 381.911 183.584Z" fill="#2A2929"/>
<path d="M86.9351 291.293C86.9351 292.739 87.93 294.171 89.8002 294.742L89.0574 295.856C87.731 295.445 86.7627 294.556 86.2321 293.442C85.7148 294.662 84.72 295.617 83.3272 296.095L82.5844 294.98C84.468 294.344 85.4761 292.818 85.4761 291.293V291.134H82.9558V289.993H89.4023V291.134H86.9351V291.293ZM84.2557 298.031V296.864H92.2408V300.949H90.8083V298.031H84.2557ZM90.8083 296.307V289.25H92.2408V296.307H90.8083ZM104.262 295.882V297.05H99.5927V300.949H98.1601V297.05H93.5442V295.882H104.262ZM94.8441 294.503V289.86H102.935V294.503H94.8441ZM96.2766 293.389H101.503V291.001H96.2766V293.389ZM108.855 289.993L105.83 301.215H104.398L107.422 289.993H108.855ZM113.423 291.293C113.423 292.739 114.418 294.171 116.288 294.742L115.545 295.856C114.219 295.445 113.25 294.556 112.72 293.442C112.202 294.662 111.208 295.617 109.815 296.095L109.072 294.98C110.956 294.344 111.964 292.818 111.964 291.293V291.134H109.443V289.993H115.89V291.134H113.423V291.293ZM110.743 298.031V296.864H118.728V300.949H117.296V298.031H110.743ZM117.296 296.307V289.25H118.728V296.307H117.296ZM129.449 289.834V290.815C129.449 291.797 129.449 292.871 129.184 294.291H130.749V295.431H126.186V298.031H124.754V295.431H120.058V294.291H127.712C127.99 292.951 128.004 291.93 128.017 291.001H121.385V289.834H129.449ZM121.332 300.737V296.997H122.764V299.57H129.635V300.737H121.332Z" fill="#999999"/>
<path d="M92.2939 411.972V418.79H90.8614V417.517H88.0759V416.349H90.8614V415.076H88.1952C87.4524 416.946 85.7413 418.246 83.1946 418.949L82.611 417.808C85.3567 417.066 86.8158 415.673 87.0412 413.935H83.2211V412.768H88.6064C88.6064 413.179 88.5799 413.564 88.5136 413.935H90.8614V411.972H92.2939ZM84.468 421.257C84.4547 419.825 86.0332 418.936 88.4207 418.923C90.795 418.936 92.3735 419.825 92.3735 421.257C92.3735 422.703 90.795 423.592 88.4207 423.592C86.0332 423.592 84.4547 422.703 84.468 421.257ZM85.9005 421.257C85.8873 422.026 86.8555 422.451 88.4207 422.451C89.9727 422.451 90.9409 422.026 90.9409 421.257C90.9409 420.474 89.9727 420.05 88.4207 420.063C86.8555 420.05 85.8873 420.474 85.9005 421.257ZM99.1417 412.635V416.164H95.4542V417.623C97.3378 417.609 98.4122 417.556 99.6723 417.331L99.8049 418.498C98.4122 418.724 97.1918 418.763 94.8971 418.763H94.0217V415.102H97.7092V413.776H94.0217V412.635H99.1417ZM95.3746 420.886V419.718H103.36V423.671H101.927V420.886H95.3746ZM99.858 417.225V416.084H101.927V414.758H99.858V413.617H101.927V411.972H103.36V419.161H101.927V417.225H99.858Z" fill="#999999"/>
<rect x="82.6596" y="315.891" width="194.543" height="36.4768" rx="4.88199" fill="white"/>
<rect x="82.6596" y="315.891" width="194.543" height="36.4768" rx="4.88199" stroke="#DDDDDD" stroke-width="1.10536"/>
<path d="M101.642 330V339.392H99.9443V331.645H99.8913L97.6894 333.051V331.513L100.024 330H101.642ZM107.24 332.547C107.24 334.285 108.221 336.182 110.025 337.031L109.203 338.118C107.943 337.535 107.028 336.367 106.537 335.001C106.033 336.487 105.064 337.734 103.738 338.33L102.942 337.216C104.786 336.394 105.807 334.391 105.807 332.547V331.937H103.314V330.796H105.807V329.099H107.266V330.796H109.707V331.937H107.24V332.547ZM110.848 340.532V328.833H112.28V333.476H114.084V334.67H112.28V340.532H110.848ZM121.387 330.876C121.387 332.322 122.382 333.754 124.252 334.325L123.509 335.439C122.183 335.028 121.214 334.139 120.684 333.025C120.166 334.245 119.172 335.2 117.779 335.678L117.036 334.563C118.92 333.927 119.928 332.401 119.928 330.876V330.717H117.407V329.576H123.854V330.717H121.387V330.876ZM118.707 337.614V336.447H126.692V340.532H125.26V337.614H118.707ZM125.26 335.89V328.833H126.692V335.89H125.26ZM137.413 329.417V330.398C137.413 331.38 137.413 332.454 137.148 333.874H138.713V335.014H134.15V337.614H132.718V335.014H128.022V333.874H135.676C135.954 332.534 135.968 331.513 135.981 330.584H129.349V329.417H137.413ZM129.296 340.32V336.58H130.728V339.153H137.599V340.32H129.296ZM143.306 329.576L140.282 340.798H138.849L141.874 329.576H143.306ZM147.874 330.876C147.874 332.322 148.869 333.754 150.739 334.325L149.997 335.439C148.67 335.028 147.702 334.139 147.171 333.025C146.654 334.245 145.659 335.2 144.266 335.678L143.524 334.563C145.407 333.927 146.415 332.401 146.415 330.876V330.717H143.895V329.576H150.341V330.717H147.874V330.876ZM145.195 337.614V336.447H153.18V340.532H151.748V337.614H145.195ZM151.748 335.89V328.833H153.18V335.89H151.748ZM165.201 335.465V336.633H160.532V340.532H159.099V336.633H154.483V335.465H165.201ZM155.783 334.086V329.443H163.874V334.086H155.783ZM157.216 332.972H162.442V330.584H157.216V332.972Z" fill="#2A2929"/>
<g clip-path="url(#clip1_269_1199)">
<path d="M254.543 331.818C254.543 331.533 254.693 331.25 254.984 331.052C255.512 330.693 256.302 330.745 256.749 331.169L259.517 333.782L262.283 331.168C262.73 330.744 263.521 330.692 264.05 331.05C264.575 331.41 264.642 332.044 264.194 332.467L260.472 335.986C260.233 336.21 259.885 336.34 259.517 336.34C259.15 336.34 258.801 336.21 258.562 335.986L254.84 332.467C254.64 332.278 254.543 332.047 254.543 331.818Z" fill="#222222"/>
</g>
<rect x="82.6596" y="438.585" width="194.543" height="36.4768" rx="4.88199" fill="white"/>
<rect x="82.6596" y="438.585" width="194.543" height="36.4768" rx="4.88199" stroke="#DDDDDD" stroke-width="1.10536"/>
<path d="M107.24 451.554V458.372H105.807V457.099H103.022V455.931H105.807V454.658H103.141C102.398 456.528 100.687 457.828 98.1404 458.531L97.5568 457.39C100.302 456.648 101.762 455.255 101.987 453.517H98.1669V452.35H103.552C103.552 452.761 103.526 453.146 103.459 453.517H105.807V451.554H107.24ZM99.4138 460.839C99.4005 459.407 100.979 458.518 103.367 458.505C105.741 458.518 107.319 459.407 107.319 460.839C107.319 462.285 105.741 463.174 103.367 463.174C100.979 463.174 99.4005 462.285 99.4138 460.839ZM100.846 460.839C100.833 461.608 101.801 462.033 103.367 462.033C104.918 462.033 105.887 461.608 105.887 460.839C105.887 460.057 104.918 459.632 103.367 459.645C101.801 459.632 100.833 460.057 100.846 460.839ZM114.087 452.217V455.746H110.4V457.205C112.284 457.191 113.358 457.138 114.618 456.913L114.751 458.08C113.358 458.306 112.138 458.345 109.843 458.345H108.967V454.684H112.655V453.358H108.967V452.217H114.087ZM110.32 460.468V459.3H118.306V463.253H116.873V460.468H110.32ZM114.804 456.807V455.666H116.873V454.34H114.804V453.199H116.873V451.554H118.306V458.743H116.873V456.807H114.804Z" fill="#2A2929"/>
<g clip-path="url(#clip2_269_1199)">
<path d="M254.543 454.512C254.543 454.228 254.693 453.945 254.984 453.746C255.512 453.388 256.302 453.44 256.749 453.863L259.517 456.476L262.283 453.862C262.73 453.439 263.521 453.387 264.05 453.745C264.575 454.104 264.642 454.738 264.194 455.162L260.472 458.68C260.233 458.905 259.885 459.034 259.517 459.034C259.15 459.034 258.801 458.905 258.562 458.68L254.84 455.162C254.64 454.973 254.543 454.742 254.543 454.512Z" fill="#222222"/>
</g>
<g clip-path="url(#clip3_269_1199)">
<path d="M291.025 339.08C290.74 339.08 290.457 338.93 290.259 338.639C289.9 338.111 289.952 337.321 290.376 336.874L292.989 334.106L290.375 331.34C289.951 330.893 289.899 330.102 290.257 329.573C290.617 329.048 291.251 328.982 291.674 329.429L295.193 333.151C295.417 333.39 295.547 333.738 295.547 334.106C295.547 334.473 295.417 334.822 295.193 335.061L291.674 338.783C291.485 338.983 291.254 339.08 291.025 339.08Z" fill="#222222" fill-opacity="0.18"/>
</g>
<rect x="305.942" y="315.891" width="194.543" height="36.4768" rx="4.88199" fill="white"/>
<rect x="305.942" y="315.891" width="194.543" height="36.4768" rx="4.88199" stroke="#DDDDDD" stroke-width="1.10536"/>
<path d="M321.131 339.392L321.104 338.171L324.42 334.988C325.375 334.033 325.866 333.476 325.879 332.68C325.866 331.804 325.176 331.261 324.261 331.247C323.293 331.261 322.669 331.857 322.669 332.813H321.078C321.064 331.035 322.404 329.881 324.288 329.894C326.185 329.881 327.484 331.022 327.498 332.6C327.484 333.661 326.967 334.524 325.137 336.261L323.465 337.906V337.986H327.63V339.392H321.131ZM332.426 332.547C332.426 334.285 333.408 336.182 335.212 337.031L334.389 338.118C333.129 337.535 332.214 336.367 331.723 335.001C331.219 336.487 330.251 337.734 328.924 338.33L328.129 337.216C329.972 336.394 330.994 334.391 330.994 332.547V331.937H328.5V330.796H330.994V329.099H332.453V330.796H334.893V331.937H332.426V332.547ZM336.034 340.532V328.833H337.467V333.476H339.271V334.67H337.467V340.532H336.034ZM346.573 330.876C346.573 332.322 347.568 333.754 349.438 334.325L348.695 335.439C347.369 335.028 346.401 334.139 345.87 333.025C345.353 334.245 344.358 335.2 342.965 335.678L342.222 334.563C344.106 333.927 345.114 332.401 345.114 330.876V330.717H342.594V329.576H349.04V330.717H346.573V330.876ZM343.894 337.614V336.447H351.879V340.532H350.446V337.614H343.894ZM350.446 335.89V328.833H351.879V335.89H350.446ZM362.6 329.417V330.398C362.6 331.38 362.6 332.454 362.334 333.874H363.9V335.014H359.337V337.614H357.904V335.014H353.209V333.874H360.862C361.141 332.534 361.154 331.513 361.167 330.584H354.535V329.417H362.6ZM354.482 340.32V336.58H355.915V339.153H362.785V340.32H354.482ZM368.493 329.576L365.468 340.798H364.036L367.06 329.576H368.493ZM373.061 330.876C373.061 332.322 374.056 333.754 375.926 334.325L375.183 335.439C373.857 335.028 372.888 334.139 372.358 333.025C371.84 334.245 370.846 335.2 369.453 335.678L368.71 334.563C370.594 333.927 371.602 332.401 371.602 330.876V330.717H369.081V329.576H375.528V330.717H373.061V330.876ZM370.381 337.614V336.447H378.366V340.532H376.934V337.614H370.381ZM376.934 335.89V328.833H378.366V335.89H376.934ZM390.387 335.465V336.633H385.718V340.532H384.286V336.633H379.67V335.465H390.387ZM380.97 334.086V329.443H389.061V334.086H380.97ZM382.402 332.972H387.628V330.584H382.402V332.972Z" fill="#2A2929"/>
<path d="M93.1959 229.817V231.011H82.5049V229.817H87.1208V227.271H83.6721V221.62H91.9756V227.271H88.5268V229.817H93.1959ZM85.0781 226.13H90.543V222.787H85.0781V226.13ZM100.468 221.408V222.575H98.001C98.0142 223.928 99.0356 225.254 100.866 225.785L100.15 226.899C98.7968 226.501 97.8153 225.666 97.2847 224.591C96.7674 225.745 95.7593 226.674 94.3666 227.111L93.6238 225.971C95.5205 225.414 96.5286 224.008 96.5419 222.575H94.0217V221.408H100.468ZM95.5603 232.284V227.589H96.9929V228.783H101.874V227.589H103.307V232.284H95.5603ZM96.9929 231.117H101.874V229.897H96.9929V231.117ZM101.874 227.058V220.718H103.307V227.058H101.874ZM114.399 220.718V232.417H112.94V220.718H114.399ZM104.716 229.207C107.767 227.748 109.186 225.772 109.451 223.106H105.3V221.965H110.924C110.911 225.453 109.558 228.411 105.459 230.348L104.716 229.207ZM124.934 220.718V224.087H126.579V225.281H124.934V229.154H123.475V220.718H124.934ZM115.649 226.82C118.342 226.024 119.934 224.565 120.172 222.787H116.153V221.62H121.751C121.751 224.724 119.721 226.939 116.259 227.96L115.649 226.82ZM117.4 232.205V228.305H118.859V231.038H125.359V232.205H117.4Z" fill="#999999"/>
<path d="M207.128 256.842C207.128 258.327 208.083 259.72 209.887 260.29L209.117 261.405C207.844 260.98 206.942 260.131 206.425 259.043C205.921 260.29 204.979 261.272 203.626 261.749L202.857 260.609C204.74 259.945 205.682 258.394 205.695 256.709V255.621H207.128V256.842ZM204.448 264.455C204.448 263.063 205.96 262.24 208.401 262.253C210.828 262.24 212.327 263.063 212.327 264.455C212.327 265.875 210.828 266.684 208.401 266.684C205.96 266.684 204.448 265.875 204.448 264.455ZM205.881 264.455C205.881 265.172 206.796 265.543 208.401 265.543C210.006 265.543 210.908 265.172 210.921 264.455C210.908 263.766 210.006 263.381 208.401 263.368C206.796 263.381 205.881 263.766 205.881 264.455ZM210.762 261.988V254.985H212.221V257.823H213.866V259.017H212.221V261.988H210.762ZM218.459 257.797C218.459 259.945 219.6 262.094 221.483 262.917L220.634 264.057C219.294 263.434 218.3 262.2 217.756 260.675C217.225 262.32 216.217 263.673 214.798 264.349L213.922 263.129C215.872 262.293 217.013 260.052 217.026 257.797V255.94H218.459V257.797ZM222.332 266.71V254.985H223.791V266.71H222.332ZM235.812 264.084V265.278H225.121V264.084H229.737V261.537H226.288V255.887H234.592V261.537H231.143V264.084H235.812ZM227.694 260.396H233.159V257.054H227.694V260.396ZM243.084 255.674V256.842H240.617C240.63 258.195 241.652 259.521 243.482 260.052L242.766 261.166C241.413 260.768 240.431 259.932 239.901 258.858C239.383 260.012 238.375 260.94 236.983 261.378L236.24 260.237C238.137 259.68 239.145 258.274 239.158 256.842H236.638V255.674H243.084ZM238.176 266.551V261.855H239.609V263.049H244.49V261.855H245.923V266.551H238.176ZM239.609 265.384H244.49V264.163H239.609V265.384ZM244.49 261.325V254.985H245.923V261.325H244.49Z" fill="#323232"/>
<path d="M117.16 254.985V257.266H118.805V258.46H117.16V260.821H115.701V254.985H117.16ZM108.432 260.396V255.515H109.865V259.203C111.364 259.189 112.942 259.057 114.64 258.725L114.826 259.919C112.876 260.304 111.085 260.41 109.387 260.396H108.432ZM109.493 262.466V261.325H117.16V264.429H110.952V265.384H117.532V266.551H109.52V263.341H115.701V262.466H109.493ZM128.491 254.985V259.468H129.924V260.688H128.491V266.684H127.059V254.985H128.491ZM118.755 263.155C120.201 262.081 120.48 259.959 120.506 258.115V257.24H119.18V256.072H122.602V257.24H121.859V258.115C121.859 259.468 121.992 261.166 122.827 262.413C123.65 261.179 123.796 259.494 123.796 258.115V257.24H123.053V256.072H126.316V257.24H125.175V258.115C125.175 259.985 125.454 262.094 126.926 263.155L125.998 264.217C125.215 263.593 124.737 262.651 124.459 261.55C124.18 262.678 123.676 263.686 122.814 264.323C121.979 263.699 121.474 262.691 121.196 261.59C120.917 262.665 120.44 263.606 119.657 264.217L118.755 263.155ZM137.067 257.054C137.067 258.619 137.996 260.131 139.826 260.741L139.03 261.882C137.77 261.405 136.868 260.489 136.377 259.349C135.873 260.622 134.918 261.643 133.539 262.147L132.77 261.007C134.653 260.37 135.621 258.752 135.635 257.054V255.701H137.067V257.054ZM134.892 266.471V262.757H136.351V265.304H142.877V266.471H134.892ZM138.845 258.752V257.584H141.179V255.011H142.612V263.686H141.179V258.752H138.845ZM148.929 255.807V256.948H145.719V258.088H148.796V259.203H145.719V260.423C147.138 260.41 148.133 260.357 149.274 260.158L149.406 261.325C148.04 261.564 146.913 261.617 145.109 261.617H144.313V255.807H148.929ZM145.878 263.792V262.651H153.89V266.684H152.457V263.792H145.878ZM149.963 262.041V255.223H151.29V257.929H152.537V255.011H153.89V262.121H152.537V259.097H151.29V262.041H149.963Z" fill="#323232"/>
<circle cx="186.011" cy="261.175" r="8.29018" fill="white" stroke="#00AEAE" stroke-width="1.10536"/>
<rect x="177.168" y="252.332" width="17.6857" height="17.6857" rx="8.84286" fill="#00AEAE"/>
<g filter="url(#filter1_d_269_1199)">
<circle cx="186.011" cy="261.174" r="3.31607" fill="white"/>
</g>
<circle cx="90.9498" cy="261.175" r="8.29018" fill="white" stroke="#DDDDDD" stroke-width="1.10536"/>
<rect x="82.6596" y="365.631" width="120.541" height="25.1589" rx="2.76339" stroke="#EEEEEE" stroke-width="1.10536"/>
<path d="M99.4172 373.911V383.661H98.2013V373.911H99.4172ZM91.3481 380.986C93.8904 379.77 95.0732 378.123 95.2942 375.901H91.8345V374.95H96.5212C96.5101 377.857 95.3827 380.322 91.9671 381.936L91.3481 380.986ZM106.605 374.685V375.569H100.835V374.685H103.112V373.845H104.328V374.685H106.605ZM100.548 379.328C101.321 379.328 102.195 379.328 103.112 379.305V378.731C102.007 378.587 101.321 378.079 101.321 377.316C101.321 376.42 102.272 375.846 103.731 375.857C105.157 375.846 106.13 376.42 106.141 377.316C106.13 378.079 105.422 378.598 104.328 378.731V379.261C105.146 379.217 105.964 379.162 106.738 379.062L106.826 379.88C104.737 380.223 102.438 380.256 100.702 380.256L100.548 379.328ZM101.918 381.826V380.897H108.639V383.661H107.423V381.826H101.918ZM102.471 377.316C102.471 377.725 102.968 377.957 103.731 377.957C104.472 377.957 104.98 377.725 104.991 377.316C104.98 376.896 104.472 376.664 103.731 376.653C102.968 376.664 102.471 376.896 102.471 377.316ZM107.423 380.499V373.933H108.639V380.499H107.423ZM117.863 380.146L112.646 382.577V381.229L116.316 379.637V379.571L112.646 378.001V376.653L117.863 379.062V380.146ZM124.715 376.255C124.704 378.067 125.577 379.847 127.124 380.543L126.395 381.494C125.301 380.952 124.527 379.924 124.107 378.653C123.687 379.991 122.891 381.107 121.775 381.671L121.001 380.698C122.593 379.958 123.477 378.079 123.499 376.255V374.707H124.715V376.255ZM126.041 378.045V377.073H128.097V373.911H129.291V383.683H128.097V378.045H126.041ZM138.446 373.911V383.683H137.23V373.911H138.446ZM130.841 381.384V374.707H132.035V377.139H134.401V374.707H135.594V381.384H130.841ZM132.035 380.389H134.401V378.09H132.035V380.389ZM144.595 375.26C144.584 376.763 146.065 378.277 148.11 378.62L147.557 379.637C145.921 379.294 144.595 378.3 143.965 376.995C143.313 378.289 141.975 379.283 140.35 379.637L139.82 378.62C141.831 378.266 143.302 376.752 143.313 375.26V374.53H144.595V375.26ZM139.554 382.423V381.428H148.464V382.423H139.554ZM159.214 373.911V383.661H157.998V373.911H159.214ZM151.144 380.986C153.687 379.77 154.87 378.123 155.091 375.901H151.631V374.95H156.318C156.307 377.857 155.179 380.322 151.763 381.936L151.144 380.986ZM166.401 374.685V375.569H160.631V374.685H162.908V373.845H164.124V374.685H166.401ZM160.344 379.328C161.118 379.328 161.991 379.328 162.908 379.305V378.731C161.803 378.587 161.118 378.079 161.118 377.316C161.118 376.42 162.068 375.846 163.527 375.857C164.953 375.846 165.926 376.42 165.937 377.316C165.926 378.079 165.219 378.598 164.124 378.731V379.261C164.942 379.217 165.76 379.162 166.534 379.062L166.622 379.88C164.533 380.223 162.234 380.256 160.499 380.256L160.344 379.328ZM161.715 381.826V380.897H168.435V383.661H167.219V381.826H161.715ZM162.267 377.316C162.267 377.725 162.765 377.957 163.527 377.957C164.268 377.957 164.776 377.725 164.787 377.316C164.776 376.896 164.268 376.664 163.527 376.653C162.765 376.664 162.267 376.896 162.267 377.316ZM167.219 380.499V373.933H168.435V380.499H167.219ZM173.014 376.675C173.003 378.189 173.909 379.913 175.446 380.632L174.783 381.582C173.677 381.063 172.87 380.013 172.428 378.786C171.986 380.134 171.135 381.284 170.008 381.826L169.3 380.875C170.859 380.134 171.809 378.311 171.82 376.675V375.857H169.676V374.884H175.048V375.857H173.014V376.675ZM175.954 383.661V373.911H177.148V377.714H178.651V378.709H177.148V383.661H175.954Z" fill="#2A2929"/>
<path d="M194.726 375.776C194.49 375.558 194.123 375.57 193.904 375.804L192.457 377.357L191.009 375.804C190.791 375.57 190.424 375.558 190.188 375.776C189.954 375.993 189.941 376.361 190.159 376.597L191.663 378.21L190.159 379.822C189.942 380.058 189.954 380.426 190.188 380.644C190.301 380.748 190.442 380.799 190.583 380.799C190.739 380.799 190.893 380.739 191.009 380.615L192.457 379.062L193.904 380.614C194.019 380.738 194.175 380.798 194.331 380.798C194.471 380.798 194.614 380.746 194.726 380.643C194.96 380.425 194.974 380.057 194.754 379.821L193.251 378.21L194.754 376.597C194.973 376.361 194.96 375.993 194.726 375.776Z" fill="#999999"/>
</g>
</g>
<defs>
<filter id="filter0_d_269_1199" x="13.1329" y="8.71143" width="712.734" height="661.888" filterUnits="userSpaceOnUse" color-interpolation-filters="sRGB">
<feFlood flood-opacity="0" result="BackgroundImageFix"/>
<feColorMatrix in="SourceAlpha" type="matrix" values="0 0 0 0 0 0 0 0 0 0 0 0 0 0 0 0 0 0 127 0" result="hardAlpha"/>
<feOffset dy="-4.42143"/>
<feGaussianBlur stdDeviation="23.4336"/>
<feComposite in2="hardAlpha" operator="out"/>
<feColorMatrix type="matrix" values="0 0 0 0 0.142104 0 0 0 0 0.54285 0 0 0 0 0.557692 0 0 0 0.03 0"/>
<feBlend mode="normal" in2="BackgroundImageFix" result="effect1_dropShadow_269_1199"/>
<feBlend mode="normal" in="SourceGraphic" in2="effect1_dropShadow_269_1199" result="shape"/>
</filter>
<filter id="filter1_d_269_1199" x="178.273" y="255.648" width="15.4752" height="15.4747" filterUnits="userSpaceOnUse" color-interpolation-filters="sRGB">
<feFlood flood-opacity="0" result="BackgroundImageFix"/>
<feColorMatrix in="SourceAlpha" type="matrix" values="0 0 0 0 0 0 0 0 0 0 0 0 0 0 0 0 0 0 127 0" result="hardAlpha"/>
<feOffset dy="2.21071"/>
<feGaussianBlur stdDeviation="2.21071"/>
<feComposite in2="hardAlpha" operator="out"/>
<feColorMatrix type="matrix" values="0 0 0 0 0 0 0 0 0 0 0 0 0 0 0 0 0 0 0.1 0"/>
<feBlend mode="normal" in2="BackgroundImageFix" result="effect1_dropShadow_269_1199"/>
<feBlend mode="normal" in="SourceGraphic" in2="effect1_dropShadow_269_1199" result="shape"/>
</filter>
<clipPath id="clip0_269_1199">
<rect width="440" height="500" rx="16" fill="white"/>
</clipPath>
<clipPath id="clip1_269_1199">
<rect width="9.94821" height="5.52679" fill="white" transform="translate(254.543 330.812)"/>
</clipPath>
<clipPath id="clip2_269_1199">
<rect width="9.94821" height="5.52679" fill="white" transform="translate(254.543 453.507)"/>
</clipPath>
<clipPath id="clip3_269_1199">
<rect width="9.94821" height="5.52679" fill="white" transform="translate(290.02 339.08) rotate(-90)"/>
</clipPath>
</defs>
</svg>
