<svg width="440" height="500" viewBox="0 0 440 500" fill="none" xmlns="http://www.w3.org/2000/svg">
<g clip-path="url(#clip0_269_1238)">
<g filter="url(#filter0_d_269_1238)">
<g clip-path="url(#clip1_269_1238)">
<rect x="60" y="60" width="600" height="468" rx="22.1071" fill="white"/>
<path d="M103.088 106.528H101.488V92.064H103.088V106.528ZM99.584 105.376H97.904L96.096 94.256C96.032 93.872 95.8667 93.68 95.6 93.68H94.768C94.4907 93.68 94.32 93.872 94.256 94.256L92.368 105.376H90.688L92.688 93.68H90.864V92.24H99.648V93.68H97.664L99.584 105.376ZM113.844 96.112C113.641 96.464 113.348 96.7627 112.964 97.008C112.591 97.2533 112.143 97.44 111.62 97.568C111.097 97.696 110.521 97.76 109.892 97.76C109.263 97.76 108.681 97.696 108.148 97.568C107.625 97.44 107.177 97.2533 106.804 97.008C106.431 96.7627 106.137 96.464 105.924 96.112C105.721 95.7493 105.62 95.3333 105.62 94.864C105.62 94.4053 105.721 93.9947 105.924 93.632C106.137 93.2693 106.431 92.9653 106.804 92.72C107.177 92.4747 107.625 92.288 108.148 92.16C108.681 92.032 109.263 91.968 109.892 91.968C110.521 91.968 111.097 92.032 111.62 92.16C112.143 92.288 112.591 92.4747 112.964 92.72C113.348 92.9653 113.641 93.2693 113.844 93.632C114.057 93.9947 114.164 94.4053 114.164 94.864C114.164 95.3333 114.057 95.7493 113.844 96.112ZM117.428 103.872H115.828V102.352H112.26V100.944H115.828V92.064H117.428V103.872ZM117.524 106.528H106.02V102.528H107.62V105.088H117.524V106.528ZM114.788 99.92H110.436V102.448H108.836V99.92H105.236V98.48H114.788V99.92ZM111.812 95.984C112.313 95.7493 112.564 95.376 112.564 94.864C112.564 94.352 112.313 93.984 111.812 93.76C111.321 93.5253 110.681 93.408 109.892 93.408C109.103 93.408 108.457 93.5253 107.956 93.76C107.465 93.984 107.22 94.352 107.22 94.864C107.22 95.376 107.465 95.7493 107.956 95.984C108.457 96.208 109.103 96.32 109.892 96.32C110.681 96.32 111.321 96.208 111.812 95.984ZM128.184 105.376H126.504L124.696 94.256C124.632 93.872 124.467 93.68 124.2 93.68H123.368C123.091 93.68 122.92 93.872 122.856 94.256L120.968 105.376H119.288L121.288 93.68H119.544V92.24H128.168V93.68H126.264L128.184 105.376ZM131.448 106.528H129.848V92.064H131.448V97.44H133.336V98.912H131.448V106.528ZM150.2 106.528H139.016V102H140.616V105.088H150.2V106.528ZM150.104 103.232H148.504V92.064H150.104V95.952H151.992V97.424H150.104V103.232ZM146.68 98.272H145.08L145.448 94.048C145.459 93.8987 145.443 93.8027 145.4 93.76C145.368 93.7067 145.278 93.68 145.128 93.68H138.776V92.24H146.456C146.723 92.24 146.904 92.3093 147 92.448C147.096 92.576 147.134 92.7627 147.112 93.008L146.68 98.272ZM147.704 100.768H138.232V99.328H141.128V96.176H142.728V99.328H147.704V100.768ZM165.244 106.528H163.644V92.064H165.244V106.528ZM162.364 105.12H153.308V97.616H159.82V93.648H153.276V92.24H161.42V97.792C161.42 98.208 161.324 98.512 161.132 98.704C160.94 98.896 160.636 98.992 160.22 98.992H154.908V103.712H162.364V105.12Z" fill="black"/>
<path opacity="0.88" d="M98.7624 138.032V126.747H99.759V138.032H98.7624ZM94.4979 130.213C94.4979 130.835 94.6356 131.455 94.9109 132.071C95.1862 132.685 95.5573 133.232 96.0242 133.714C96.491 134.193 96.9998 134.552 97.5504 134.791L96.9938 135.581C96.5569 135.381 96.1439 135.109 95.7548 134.765C95.3658 134.42 95.0201 134.024 94.7179 133.575C94.4186 133.123 94.1822 132.64 94.0086 132.125C93.8321 132.67 93.5942 133.187 93.2949 133.678C92.9956 134.166 92.653 134.598 92.2669 134.975C91.8809 135.353 91.4754 135.647 91.0504 135.86L90.4579 135.07C90.9936 134.815 91.4933 134.428 91.9572 133.907C92.421 133.386 92.7921 132.8 93.0704 132.147C93.3488 131.492 93.4894 130.847 93.4924 130.213V128.74H90.826V127.905H97.1823V128.74H94.4979V130.213ZM107.364 134.154V133.427H109.689V126.756H110.694V135.33H109.689V134.154H107.364ZM105.038 131.137C104.485 131.137 103.995 131.058 103.57 130.9C103.148 130.741 102.821 130.513 102.587 130.217C102.354 129.921 102.237 129.575 102.237 129.18C102.237 128.791 102.354 128.449 102.587 128.152C102.821 127.853 103.15 127.623 103.575 127.461C104 127.296 104.488 127.214 105.038 127.214C105.583 127.214 106.066 127.296 106.488 127.461C106.91 127.623 107.238 127.853 107.471 128.152C107.708 128.449 107.827 128.791 107.83 129.18C107.827 129.575 107.708 129.921 107.471 130.217C107.238 130.51 106.91 130.738 106.488 130.9C106.069 131.058 105.586 131.137 105.038 131.137ZM105.038 127.968C104.673 127.965 104.35 128.015 104.069 128.116C103.787 128.218 103.569 128.362 103.413 128.547C103.261 128.73 103.186 128.941 103.189 129.18C103.186 129.423 103.261 129.635 103.413 129.818C103.569 130 103.787 130.142 104.069 130.244C104.35 130.343 104.673 130.392 105.038 130.392C105.391 130.392 105.707 130.343 105.985 130.244C106.264 130.142 106.481 130 106.636 129.818C106.795 129.635 106.876 129.423 106.879 129.18C106.876 128.941 106.795 128.73 106.636 128.547C106.481 128.362 106.264 128.218 105.985 128.116C105.707 128.015 105.391 127.965 105.038 127.968ZM104.643 134.935V132.753C103.871 132.783 102.994 132.798 102.013 132.798H101.465L101.33 131.981C102.821 131.975 104.151 131.953 105.321 131.914C106.494 131.872 107.612 131.784 108.674 131.649L108.746 132.376C107.809 132.526 106.774 132.635 105.64 132.704V134.935H104.643ZM103.952 134.486V136.955H110.973V137.781H102.955V134.486H103.952ZM121.064 131.308H122.949V132.161H121.064V138.032H120.068V126.747H121.064V131.308ZM116.144 130.213C116.141 130.802 116.27 131.402 116.53 132.013C116.791 132.623 117.145 133.175 117.594 133.669C118.046 134.16 118.541 134.534 119.08 134.791L118.505 135.581C118.089 135.375 117.696 135.097 117.325 134.747C116.957 134.396 116.629 133.995 116.342 133.544C116.057 133.089 115.831 132.608 115.664 132.103C115.49 132.65 115.254 133.171 114.955 133.665C114.658 134.156 114.32 134.591 113.94 134.971C113.56 135.351 113.161 135.647 112.742 135.86L112.14 135.07C112.676 134.809 113.174 134.417 113.635 133.894C114.099 133.37 114.468 132.782 114.744 132.129C115.022 131.477 115.163 130.838 115.166 130.213V128.74H112.544V127.905H118.685V128.74H116.144V130.213ZM131.524 126.747H132.52V138.05H131.524V126.747ZM126.954 127.573C127.54 127.573 128.064 127.685 128.525 127.91C128.986 128.131 129.345 128.443 129.602 128.844C129.863 129.245 129.994 129.704 129.997 130.222C129.994 130.739 129.863 131.199 129.602 131.6C129.345 132.001 128.986 132.314 128.525 132.538C128.064 132.759 127.54 132.87 126.954 132.87C126.367 132.87 125.842 132.759 125.378 132.538C124.914 132.314 124.552 132.001 124.292 131.6C124.035 131.196 123.907 130.736 123.91 130.222C123.907 129.707 124.035 129.249 124.292 128.848C124.552 128.444 124.914 128.131 125.378 127.91C125.842 127.685 126.367 127.573 126.954 127.573ZM126.954 128.444C126.556 128.444 126.2 128.519 125.885 128.669C125.571 128.818 125.326 129.029 125.149 129.301C124.973 129.571 124.886 129.878 124.889 130.222C124.886 130.566 124.973 130.874 125.149 131.146C125.326 131.416 125.571 131.625 125.885 131.775C126.2 131.924 126.556 131.999 126.954 131.999C127.349 131.999 127.702 131.924 128.013 131.775C128.327 131.625 128.573 131.416 128.749 131.146C128.929 130.874 129.019 130.566 129.019 130.222C129.019 129.878 128.929 129.571 128.749 129.301C128.573 129.029 128.327 128.818 128.013 128.669C127.702 128.519 127.349 128.444 126.954 128.444ZM123.327 134.711H123.996C125.256 134.711 126.45 134.685 127.578 134.634C128.706 134.583 129.773 134.483 130.778 134.334L130.859 135.07C130.063 135.219 129.236 135.33 128.377 135.402C127.521 135.474 126.72 135.519 125.975 135.537C125.233 135.555 124.395 135.564 123.461 135.564L123.327 134.711ZM145.467 126.747H146.463V138.05H145.467V126.747ZM140.466 127.618C141.022 127.621 141.518 127.784 141.952 128.107C142.389 128.431 142.73 128.89 142.975 129.485C143.224 130.078 143.348 130.766 143.348 131.55C143.348 132.337 143.224 133.029 142.975 133.624C142.73 134.22 142.389 134.679 141.952 135.002C141.515 135.323 141.019 135.483 140.466 135.483C139.906 135.483 139.408 135.323 138.971 135.002C138.534 134.679 138.193 134.221 137.948 133.629C137.705 133.033 137.584 132.34 137.584 131.55C137.584 130.763 137.705 130.074 137.948 129.481C138.193 128.888 138.534 128.431 138.971 128.107C139.408 127.784 139.906 127.621 140.466 127.618ZM140.466 128.507C140.092 128.51 139.758 128.639 139.465 128.893C139.175 129.144 138.949 129.5 138.787 129.961C138.625 130.419 138.545 130.949 138.545 131.55C138.545 132.155 138.625 132.688 138.787 133.148C138.949 133.609 139.175 133.965 139.465 134.217C139.758 134.468 140.092 134.594 140.466 134.594C140.84 134.594 141.171 134.468 141.458 134.217C141.748 133.965 141.974 133.609 142.136 133.148C142.297 132.688 142.378 132.155 142.378 131.55C142.378 130.949 142.297 130.419 142.136 129.961C141.974 129.5 141.748 129.144 141.458 128.893C141.171 128.639 140.84 128.51 140.466 128.507ZM156.456 128.435V126.756H157.452V133.687H156.456V131.586H154.202V130.769H156.456V129.243H154.202V128.435H156.456ZM154.211 132.897C153.544 133.008 152.875 133.081 152.205 133.117C151.537 133.15 150.596 133.166 149.381 133.166H148.582V129.836H152.461V128.247H148.555V127.439H153.448V130.608H149.57V132.358C150.686 132.358 151.563 132.34 152.2 132.305C152.841 132.266 153.478 132.188 154.113 132.071L154.211 132.897ZM156.456 135.115H149.848V134.298H157.452V138.05H156.456V135.115ZM167.4 130.599V126.747H168.388V138.05H167.4V131.416H164.725V130.599H167.4ZM163.001 129.782C163.001 130.446 163.131 131.105 163.391 131.757C163.655 132.409 164.011 132.99 164.46 133.499C164.912 134.004 165.41 134.381 165.955 134.63L165.353 135.438C164.928 135.219 164.53 134.929 164.159 134.567C163.791 134.205 163.465 133.79 163.18 133.324C162.899 132.857 162.675 132.357 162.507 131.824C162.343 132.384 162.118 132.912 161.834 133.409C161.552 133.906 161.226 134.346 160.855 134.729C160.484 135.112 160.086 135.417 159.661 135.644L159.024 134.845C159.568 134.576 160.067 134.173 160.519 133.638C160.973 133.102 161.333 132.496 161.596 131.82C161.859 131.14 161.992 130.461 161.995 129.782V127.726H163.001V129.782ZM181.253 126.747H182.232V133.229H181.253V126.747ZM173.523 127.483H178.82V132.071H173.523V127.483ZM174.502 131.281H177.842V128.291H174.502V131.281ZM179.17 134.773C179.17 135.133 179.345 135.486 179.696 135.833C180.049 136.177 180.514 136.473 181.092 136.722C181.672 136.97 182.283 137.135 182.923 137.215L182.573 137.997C182.01 137.919 181.472 137.781 180.957 137.584C180.442 137.389 179.986 137.148 179.588 136.861C179.19 136.571 178.88 136.253 178.659 135.909C178.437 136.259 178.124 136.578 177.72 136.865C177.316 137.153 176.854 137.392 176.333 137.584C175.813 137.778 175.268 137.916 174.699 137.997L174.34 137.215C174.984 137.144 175.599 136.985 176.185 136.74C176.772 136.494 177.245 136.196 177.604 135.846C177.966 135.496 178.147 135.139 178.147 134.773H174.807V134.001H178.165V132.897H179.152V134.001H182.528V134.773H179.17ZM195.133 138.032V126.747H196.13V138.032H195.133ZM190.869 130.213C190.869 130.835 191.006 131.455 191.282 132.071C191.557 132.685 191.928 133.232 192.395 133.714C192.862 134.193 193.371 134.552 193.921 134.791L193.365 135.581C192.928 135.381 192.515 135.109 192.126 134.765C191.737 134.42 191.391 134.024 191.089 133.575C190.79 133.123 190.553 132.64 190.38 132.125C190.203 132.67 189.965 133.187 189.666 133.678C189.367 134.166 189.024 134.598 188.638 134.975C188.252 135.353 187.846 135.647 187.421 135.86L186.829 135.07C187.364 134.815 187.864 134.428 188.328 133.907C188.792 133.386 189.163 132.8 189.441 132.147C189.72 131.492 189.86 130.847 189.863 130.213V128.74H187.197V127.905H193.553V128.74H190.869V130.213ZM203.734 134.154V133.427H206.06V126.756H207.065V135.33H206.06V134.154H203.734ZM201.409 131.137C200.856 131.137 200.366 131.058 199.941 130.9C199.519 130.741 199.192 130.513 198.958 130.217C198.725 129.921 198.608 129.575 198.608 129.18C198.608 128.791 198.725 128.449 198.958 128.152C199.192 127.853 199.521 127.623 199.946 127.461C200.371 127.296 200.859 127.214 201.409 127.214C201.954 127.214 202.437 127.296 202.859 127.461C203.281 127.623 203.609 127.853 203.842 128.152C204.079 128.449 204.198 128.791 204.201 129.18C204.198 129.575 204.079 129.921 203.842 130.217C203.609 130.51 203.281 130.738 202.859 130.9C202.44 131.058 201.957 131.137 201.409 131.137ZM201.409 127.968C201.044 127.965 200.721 128.015 200.44 128.116C200.158 128.218 199.94 128.362 199.784 128.547C199.632 128.73 199.557 128.941 199.56 129.18C199.557 129.423 199.632 129.635 199.784 129.818C199.94 130 200.158 130.142 200.44 130.244C200.721 130.343 201.044 130.392 201.409 130.392C201.762 130.392 202.078 130.343 202.356 130.244C202.635 130.142 202.852 130 203.007 129.818C203.166 129.635 203.247 129.423 203.25 129.18C203.247 128.941 203.166 128.73 203.007 128.547C202.852 128.362 202.635 128.218 202.356 128.116C202.078 128.015 201.762 127.965 201.409 127.968ZM201.014 134.935V132.753C200.242 132.783 199.365 132.798 198.384 132.798H197.836L197.701 131.981C199.192 131.975 200.522 131.953 201.692 131.914C202.865 131.872 203.983 131.784 205.045 131.649L205.117 132.376C204.18 132.526 203.145 132.635 202.011 132.704V134.935H201.014ZM200.323 134.486V136.955H207.344V137.781H199.326V134.486H200.323ZM217.74 130.518V129.692H220.021V126.747H221.017V133.472H220.021V130.518H217.74ZM215.105 130.482C214.863 131.143 214.49 131.725 213.987 132.228C213.488 132.731 212.901 133.11 212.228 133.364L211.707 132.574C212.261 132.373 212.756 132.08 213.193 131.694C213.63 131.308 213.969 130.865 214.212 130.365C214.457 129.866 214.58 129.351 214.58 128.821V128.399H212.03V127.573H218.108V128.399H215.586V128.812C215.586 129.297 215.702 129.768 215.936 130.226C216.169 130.681 216.497 131.087 216.919 131.443C217.341 131.796 217.824 132.065 218.369 132.251L217.848 133.05C217.219 132.822 216.667 132.484 216.192 132.035C215.716 131.586 215.354 131.069 215.105 130.482ZM217.273 133.822C218.051 133.822 218.723 133.906 219.289 134.073C219.857 134.238 220.293 134.477 220.595 134.791C220.9 135.106 221.053 135.483 221.053 135.923C221.053 136.363 220.9 136.738 220.595 137.049C220.293 137.364 219.859 137.603 219.293 137.768C218.728 137.935 218.054 138.02 217.273 138.023C216.489 138.02 215.813 137.935 215.244 137.768C214.679 137.603 214.245 137.364 213.943 137.049C213.64 136.738 213.491 136.363 213.494 135.923C213.491 135.483 213.64 135.106 213.943 134.791C214.245 134.477 214.68 134.238 215.249 134.073C215.817 133.906 216.492 133.822 217.273 133.822ZM217.273 137.224C217.845 137.227 218.34 137.177 218.759 137.072C219.178 136.97 219.5 136.82 219.724 136.623C219.952 136.425 220.065 136.192 220.065 135.923C220.065 135.65 219.952 135.415 219.724 135.218C219.5 135.017 219.178 134.865 218.759 134.76C218.34 134.655 217.845 134.603 217.273 134.603C216.699 134.603 216.201 134.655 215.779 134.76C215.36 134.865 215.038 135.017 214.813 135.218C214.589 135.415 214.478 135.65 214.481 135.923C214.478 136.192 214.589 136.425 214.813 136.623C215.038 136.82 215.36 136.97 215.779 137.072C216.201 137.177 216.699 137.227 217.273 137.224ZM228.227 133.319V135.752H232.931V136.587H222.598V135.752H227.239V133.319H223.819V127.546H224.815V129.584H230.678V127.546H231.665V133.319H228.227ZM230.678 130.401H224.815V132.502H230.678V130.401ZM234.862 128.74H241.523V127.807H234.826V127.088H242.52V129.423H235.849V130.41H242.717V131.137H234.862V128.74ZM233.515 132.771V131.99H243.848V132.771H233.515ZM242.556 136.075H235.777V137.153H242.924V137.88H234.781V135.384H241.568V134.423H234.763V133.678H242.556V136.075ZM256.122 138.032V126.747H257.073V138.032H256.122ZM252.073 131.2H253.85V127.017H254.793V137.44H253.85V132.044H252.073V131.2ZM250.735 130.222C250.735 130.829 250.834 131.426 251.031 132.013C251.232 132.599 251.517 133.131 251.888 133.606C252.26 134.079 252.695 134.45 253.195 134.72L252.62 135.465C252.07 135.163 251.594 134.738 251.193 134.19C250.792 133.639 250.486 133.015 250.277 132.318C250.07 133.063 249.767 133.734 249.366 134.329C248.965 134.922 248.49 135.384 247.943 135.716L247.341 134.962C247.841 134.672 248.275 134.275 248.643 133.772C249.011 133.267 249.294 132.706 249.491 132.089C249.689 131.47 249.789 130.847 249.792 130.222V129.665H247.646V128.839H249.792V127.16H250.744V128.839H252.854V129.665H250.735V130.222ZM267.075 138.032V126.747H268.026V138.032H267.075ZM264.785 129.89V127.052H265.746V137.458H264.785V133.544H262.694V132.718H264.785V130.715H262.878C262.593 131.703 262.128 132.608 261.482 133.431C260.838 134.251 259.997 134.971 258.959 135.59L258.357 134.872C259.557 134.16 260.478 133.309 261.118 132.318C261.761 131.324 262.134 130.225 262.236 129.019H258.86V128.184H263.223C263.223 128.773 263.172 129.342 263.071 129.89H264.785ZM277.66 129.701V126.747H278.657V133.508H277.66V130.536H275.389V129.701H277.66ZM272.74 130.491C272.498 131.14 272.125 131.714 271.622 132.21C271.123 132.704 270.538 133.074 269.867 133.319L269.347 132.529C269.897 132.334 270.391 132.047 270.828 131.667C271.265 131.287 271.606 130.852 271.851 130.361C272.097 129.867 272.219 129.36 272.219 128.839V128.345H269.67V127.528H275.748V128.345H273.225V128.83C273.225 129.312 273.342 129.782 273.575 130.24C273.809 130.695 274.136 131.1 274.558 131.456C274.98 131.809 275.463 132.08 276.008 132.269L275.487 133.05C274.856 132.825 274.302 132.49 273.826 132.044C273.351 131.595 272.989 131.078 272.74 130.491ZM277.66 134.926H271.061V134.109H278.657V138.032H277.66V134.926ZM285.372 127.474C286.156 127.477 286.861 127.609 287.487 127.869C288.115 128.127 288.607 128.49 288.963 128.96C289.323 129.43 289.502 129.97 289.502 130.581C289.502 131.194 289.323 131.736 288.963 132.206C288.607 132.676 288.115 133.039 287.487 133.297C286.861 133.554 286.156 133.681 285.372 133.678C284.591 133.681 283.888 133.554 283.263 133.297C282.637 133.039 282.145 132.676 281.786 132.206C281.43 131.736 281.251 131.194 281.251 130.581C281.251 129.97 281.43 129.43 281.786 128.96C282.145 128.49 282.637 128.127 283.263 127.869C283.888 127.609 284.591 127.477 285.372 127.474ZM285.372 128.291C284.774 128.288 284.232 128.384 283.747 128.579C283.266 128.77 282.887 129.041 282.612 129.391C282.336 129.741 282.2 130.138 282.203 130.581C282.2 131.027 282.335 131.423 282.607 131.77C282.882 132.115 283.261 132.382 283.743 132.574C284.228 132.765 284.771 132.861 285.372 132.861C285.974 132.861 286.516 132.765 286.997 132.574C287.479 132.382 287.856 132.115 288.129 131.77C288.404 131.423 288.542 131.027 288.542 130.581C288.542 130.135 288.404 129.738 288.129 129.391C287.853 129.041 287.475 128.77 286.993 128.579C286.511 128.384 285.971 128.288 285.372 128.291ZM280.237 135.689H290.571V136.524H280.237V135.689ZM296.801 133.66V135.788H301.506V136.632H291.172V135.788H295.814V133.66H292.465V130.177H299.217V128.408H292.438V127.582H300.204V130.994H293.453V132.834H300.464V133.66H296.801ZM313.914 126.747V130.419H315.566V131.272H313.914V135.24H312.908V126.747H313.914ZM310.035 131.479C310.158 130.877 310.239 130.343 310.278 129.876C310.316 129.409 310.339 128.935 310.345 128.453H305.699V127.618H311.328V128.22V128.323C311.322 128.871 311.301 129.393 311.265 129.89C311.229 130.383 311.151 130.94 311.032 131.559L310.035 131.479ZM312.199 132.978C311.148 133.157 310.04 133.277 308.873 133.337C307.705 133.397 306.45 133.43 305.106 133.436L305.008 132.61C306.064 132.604 306.872 132.593 307.432 132.578V130.123H308.419V132.547C309.877 132.484 311.115 132.382 312.136 132.242L312.199 132.978ZM306.749 134.468H307.746V136.955H314.282V137.781H306.749V134.468ZM324.337 138.05V126.747H325.325V138.05H324.337ZM317.685 134.477C318.705 134.474 319.648 134.444 320.513 134.387C321.38 134.328 322.29 134.22 323.242 134.064L323.341 134.899C322.362 135.055 321.425 135.163 320.531 135.222C319.636 135.282 318.66 135.312 317.604 135.312H316.661V130.994H320.89V128.624H316.643V127.798H321.895V131.811H317.685V134.477ZM330.829 127.771H333.692V128.57H326.968V127.771H329.841V126.631H330.829V127.771ZM335.766 126.702V129.45H337.472V130.276H335.766V132.951H334.77V126.702H335.766ZM333.046 130.931C333.043 131.308 332.929 131.637 332.705 131.919C332.483 132.197 332.168 132.411 331.758 132.56C331.351 132.707 330.876 132.78 330.335 132.78C329.787 132.78 329.307 132.707 328.894 132.56C328.484 132.411 328.167 132.197 327.942 131.919C327.721 131.637 327.611 131.308 327.614 130.931C327.611 130.554 327.721 130.226 327.942 129.948C328.167 129.67 328.484 129.456 328.894 129.306C329.307 129.156 329.787 129.081 330.335 129.081C330.876 129.081 331.351 129.156 331.758 129.306C332.165 129.456 332.48 129.67 332.705 129.948C332.929 130.226 333.043 130.554 333.046 130.931ZM328.566 130.931C328.563 131.155 328.633 131.351 328.777 131.519C328.924 131.684 329.13 131.811 329.397 131.901C329.666 131.99 329.979 132.035 330.335 132.035C330.685 132.035 330.993 131.99 331.259 131.901C331.526 131.811 331.732 131.684 331.879 131.519C332.026 131.351 332.1 131.155 332.103 130.931C332.1 130.709 332.026 130.515 331.879 130.347C331.732 130.177 331.526 130.047 331.259 129.957C330.993 129.864 330.685 129.818 330.335 129.818C329.979 129.818 329.666 129.864 329.397 129.957C329.13 130.047 328.924 130.177 328.777 130.347C328.633 130.515 328.563 130.709 328.566 130.931ZM335.766 136.039H329.572V137.135H336.179V137.907H328.593V135.303H334.779V134.289H328.566V133.535H335.766V136.039ZM345.992 129.207C345.759 129.659 345.424 130.069 344.987 130.437C344.553 130.802 344.059 131.106 343.506 131.348C342.952 131.591 342.377 131.763 341.782 131.865L341.369 131.048C342.057 130.952 342.717 130.747 343.348 130.433C343.98 130.118 344.492 129.731 344.884 129.27C345.276 128.806 345.472 128.315 345.472 127.798V127.151H346.504V127.798C346.504 128.306 346.7 128.793 347.092 129.257C347.487 129.72 348.002 130.111 348.636 130.428C349.271 130.745 349.931 130.952 350.616 131.048L350.212 131.865C349.617 131.766 349.04 131.594 348.484 131.348C347.93 131.103 347.435 130.798 346.998 130.433C346.561 130.065 346.226 129.656 345.992 129.207ZM340.839 133.104H351.128V133.939H346.45V138.032H345.472V133.939H340.839V133.104ZM363.06 126.756H364.056V133.202H363.06V126.756ZM357.96 132.673C357.395 132.673 356.886 132.562 356.434 132.34C355.985 132.119 355.633 131.809 355.379 131.411C355.125 131.013 354.998 130.56 354.998 130.051C354.998 129.536 355.125 129.078 355.379 128.677C355.633 128.276 355.985 127.965 356.434 127.744C356.886 127.522 357.395 127.412 357.96 127.412C358.526 127.412 359.033 127.522 359.482 127.744C359.931 127.965 360.281 128.276 360.532 128.677C360.787 129.078 360.914 129.536 360.914 130.051C360.914 130.56 360.787 131.013 360.532 131.411C360.281 131.809 359.931 132.119 359.482 132.34C359.033 132.562 358.526 132.673 357.96 132.673ZM357.96 128.265C357.58 128.262 357.238 128.336 356.932 128.489C356.63 128.639 356.394 128.851 356.223 129.126C356.055 129.399 355.973 129.707 355.976 130.051C355.973 130.395 356.055 130.703 356.223 130.976C356.394 131.248 356.63 131.461 356.932 131.613C357.235 131.766 357.577 131.844 357.96 131.847C358.34 131.844 358.68 131.766 358.979 131.613C359.281 131.461 359.518 131.248 359.688 130.976C359.859 130.703 359.944 130.395 359.944 130.051C359.944 129.707 359.859 129.399 359.688 129.126C359.518 128.851 359.281 128.639 358.979 128.489C358.677 128.336 358.337 128.262 357.96 128.265ZM362.79 134.316C362.787 134.708 362.877 135.089 363.06 135.46C363.242 135.828 363.507 136.159 363.854 136.452C364.204 136.746 364.616 136.973 365.089 137.135L364.586 137.871C364.035 137.676 363.562 137.394 363.167 137.022C362.775 136.651 362.479 136.223 362.279 135.739C362.093 136.226 361.824 136.666 361.471 137.058C361.12 137.453 360.696 137.757 360.196 137.97C359.666 137.766 359.222 137.473 358.863 137.09C358.506 136.71 358.24 136.271 358.063 135.775C357.854 136.244 357.555 136.662 357.166 137.027C356.78 137.392 356.323 137.673 355.797 137.871L355.294 137.135C355.758 136.964 356.162 136.728 356.506 136.425C356.853 136.12 357.119 135.783 357.305 135.415C357.493 135.047 357.589 134.681 357.592 134.316V133.696H358.553V134.316C358.553 134.654 358.614 134.99 358.737 135.326C358.86 135.661 359.041 135.974 359.28 136.264C359.522 136.551 359.817 136.794 360.164 136.991C360.511 136.779 360.809 136.52 361.058 136.214C361.306 135.909 361.493 135.592 361.619 135.263C361.747 134.931 361.812 134.615 361.812 134.316V133.696H362.79V134.316ZM374.04 126.747H375.028V138.05H374.04V131.883H371.517C371.481 132.61 371.341 133.246 371.095 133.79C370.85 134.332 370.521 134.75 370.108 135.043C369.698 135.336 369.231 135.483 368.707 135.483C368.153 135.483 367.661 135.323 367.23 135.002C366.802 134.679 366.469 134.221 366.229 133.629C365.993 133.033 365.876 132.34 365.879 131.55C365.876 130.763 365.993 130.074 366.229 129.481C366.469 128.888 366.802 128.431 367.23 128.107C367.661 127.784 368.153 127.621 368.707 127.618C369.216 127.621 369.672 127.763 370.076 128.045C370.483 128.323 370.811 128.721 371.059 129.239C371.308 129.756 371.457 130.362 371.508 131.057H374.04V126.747ZM368.707 134.594C369.072 134.594 369.397 134.468 369.681 134.217C369.965 133.965 370.187 133.609 370.346 133.148C370.504 132.688 370.583 132.155 370.583 131.55C370.583 130.949 370.504 130.419 370.346 129.961C370.187 129.5 369.965 129.144 369.681 128.893C369.397 128.639 369.072 128.51 368.707 128.507C368.339 128.51 368.013 128.639 367.728 128.893C367.444 129.144 367.223 129.5 367.064 129.961C366.908 130.419 366.831 130.949 366.831 131.55C366.831 132.155 366.908 132.688 367.064 133.148C367.223 133.609 367.444 133.965 367.728 134.217C368.013 134.468 368.339 134.594 368.707 134.594ZM384.374 135.743H386.941V136.578H376.608V135.743H379.167V132.7C378.679 132.442 378.299 132.115 378.026 131.717C377.757 131.315 377.622 130.865 377.622 130.365C377.622 129.791 377.797 129.285 378.148 128.848C378.498 128.408 378.986 128.067 379.611 127.825C380.236 127.582 380.947 127.459 381.743 127.456C382.542 127.459 383.255 127.582 383.88 127.825C384.508 128.067 384.998 128.408 385.348 128.848C385.698 129.285 385.873 129.791 385.873 130.365C385.873 130.859 385.741 131.304 385.478 131.699C385.218 132.091 384.85 132.415 384.374 132.673V135.743ZM378.583 130.365C378.583 130.778 378.716 131.145 378.983 131.465C379.252 131.782 379.626 132.029 380.105 132.206C380.587 132.379 381.133 132.466 381.743 132.466C382.354 132.466 382.898 132.379 383.377 132.206C383.859 132.029 384.235 131.782 384.504 131.465C384.776 131.145 384.912 130.778 384.912 130.365C384.912 129.949 384.776 129.583 384.504 129.266C384.235 128.948 383.859 128.703 383.377 128.529C382.898 128.356 382.354 128.27 381.743 128.273C381.133 128.27 380.587 128.356 380.105 128.529C379.626 128.703 379.252 128.948 378.983 129.266C378.716 129.583 378.583 129.949 378.583 130.365ZM380.145 135.743H383.368V133.063C382.868 133.192 382.327 133.256 381.743 133.256C381.181 133.256 380.648 133.193 380.145 133.068V135.743ZM388.737 137.072C388.591 137.072 388.453 137.036 388.324 136.964C388.199 136.889 388.098 136.789 388.024 136.663C387.952 136.538 387.917 136.401 387.92 136.255C387.917 136.108 387.952 135.972 388.024 135.846C388.098 135.721 388.199 135.622 388.324 135.55C388.453 135.475 388.591 135.438 388.737 135.438C388.884 135.438 389.02 135.475 389.146 135.55C389.271 135.622 389.37 135.721 389.442 135.846C389.517 135.972 389.554 136.108 389.554 136.255C389.554 136.401 389.517 136.538 389.442 136.663C389.37 136.789 389.271 136.889 389.146 136.964C389.02 137.036 388.884 137.072 388.737 137.072Z" fill="#888888"/>
<g filter="url(#filter1_d_269_1238)">
<rect x="90" y="456" width="476" height="286" rx="11" fill="white"/>
<rect x="90.5" y="456.5" width="475" height="285" rx="10.5" stroke="#EEEEEE"/>
</g>
<path opacity="0.88" d="M129.593 484.748V482.294H130.558V488.075H129.593V485.584H128.469V488.018H127.519V482.473H128.469V484.748H129.593ZM125.589 482.898H126.539V487.441H122.763V482.898H123.728V484.376H125.589V482.898ZM123.728 486.617H125.589V485.17H123.728V486.617ZM129.551 489.443H124.017V488.611H130.558V491.912H129.551V489.443ZM138.8 482.287H139.765V489.481H138.8V482.287ZM133.85 487.749C133.425 487.749 133.044 487.65 132.707 487.452C132.373 487.252 132.112 486.974 131.925 486.617C131.737 486.257 131.645 485.849 131.647 485.394C131.645 484.933 131.737 484.523 131.925 484.163C132.112 483.803 132.373 483.525 132.707 483.327C133.044 483.127 133.425 483.027 133.85 483.027C134.23 483.027 134.576 483.11 134.887 483.274C135.199 483.436 135.455 483.667 135.655 483.965C135.855 484.262 135.981 484.605 136.035 484.995H136.939V482.465H137.888V489.192H136.939V485.838H136.027C135.969 486.218 135.838 486.552 135.636 486.841C135.436 487.129 135.181 487.354 134.872 487.513C134.563 487.67 134.223 487.749 133.85 487.749ZM132.563 485.394C132.56 485.685 132.613 485.943 132.722 486.169C132.834 486.391 132.987 486.565 133.182 486.689C133.379 486.81 133.602 486.871 133.85 486.871C134.096 486.871 134.316 486.81 134.511 486.689C134.706 486.565 134.86 486.391 134.971 486.169C135.085 485.943 135.143 485.685 135.146 485.394C135.143 485.102 135.085 484.844 134.971 484.619C134.86 484.391 134.705 484.214 134.508 484.087C134.313 483.96 134.094 483.897 133.85 483.897C133.602 483.897 133.379 483.96 133.182 484.087C132.987 484.214 132.834 484.391 132.722 484.619C132.613 484.844 132.56 485.102 132.563 485.394ZM134.401 488.55V490.878H140.046V491.714H133.383V488.55H134.401ZM142.871 486.856H148.565V487.688H141.865V483.153H148.481V483.988H142.871V486.856ZM140.771 490.643V489.796H149.579V490.643H140.771ZM159.618 486.089V482.287H160.606V491.912H159.618V486.921H158.433V491.448H157.479V482.545H158.433V486.089H159.618ZM156.518 483.513C156.516 484.407 156.401 485.237 156.173 486.001C155.947 486.766 155.569 487.478 155.037 488.136C154.508 488.794 153.801 489.374 152.918 489.876L152.325 489.158C153.361 488.57 154.132 487.878 154.638 487.08C155.147 486.28 155.442 485.368 155.523 484.345H152.735V483.513H156.518ZM169.132 482.287V484.304H170.526V485.139H169.132V487.24H168.111V482.287H169.132ZM165.467 482.701H166.477V486.894H161.938V482.701H162.945V484.003H165.467V482.701ZM162.945 486.081H165.467V484.79H162.945V486.081ZM169.132 490.085H163.933V491H169.459V491.82H162.93V489.329H168.118V488.463H162.907V487.657H169.132V490.085ZM178.275 486.104H179.817V486.966H178.275V491.912H177.253V482.287H178.275V486.104ZM174.131 485.128C174.128 485.632 174.231 486.142 174.438 486.658C174.646 487.173 174.936 487.641 175.308 488.064C175.683 488.484 176.108 488.806 176.584 489.029L176.007 489.834C175.475 489.578 175.002 489.197 174.587 488.691C174.174 488.184 173.856 487.611 173.633 486.97C173.486 487.428 173.291 487.86 173.048 488.265C172.805 488.67 172.525 489.029 172.209 489.34C171.895 489.649 171.558 489.893 171.198 490.073L170.594 489.268C171.071 489.04 171.5 488.703 171.882 488.258C172.267 487.812 172.568 487.313 172.786 486.761C173.006 486.209 173.118 485.665 173.12 485.128V484.098H170.951V483.255H176.22V484.098H174.131V485.128Z" fill="#00AEAE"/>
<g filter="url(#filter2_d_269_1238)">
<rect x="89" y="160" width="476" height="286" rx="11" fill="white"/>
<rect x="89.5" y="160.5" width="475" height="285" rx="10.5" stroke="#EEEEEE"/>
</g>
<path d="M129.784 217.4C129.784 217.816 129.688 218.12 129.496 218.312C129.304 218.504 129 218.6 128.584 218.6H121.832V211.16H123.432V213.496H128.184V211.16H129.784V217.4ZM133.448 225.528H131.848V221.336H122.44V219.896H133.448V225.528ZM133.448 219.16H131.848V211.064H133.448V213.992H135.336V215.464H133.448V219.16ZM128.184 217.16V214.936H123.432V217.16H128.184ZM148.556 225.576H137.1V221.08H138.7V224.136H148.556V225.576ZM149.484 219.784H136.012V218.344H149.484V219.784ZM145.788 211.016C146.759 211.016 147.511 211.288 148.044 211.832C148.577 212.376 148.844 213.112 148.844 214.04C148.844 214.968 148.577 215.704 148.044 216.248C147.511 216.792 146.759 217.064 145.788 217.064H139.708C138.737 217.064 137.985 216.797 137.452 216.264C136.919 215.731 136.652 214.989 136.652 214.04C136.652 213.091 136.919 212.349 137.452 211.816C137.985 211.283 138.737 211.016 139.708 211.016H145.788ZM145.58 215.624C146.145 215.624 146.561 215.48 146.828 215.192C147.105 214.893 147.244 214.509 147.244 214.04C147.244 213.571 147.105 213.192 146.828 212.904C146.561 212.605 146.145 212.456 145.58 212.456H139.916C139.351 212.456 138.929 212.605 138.652 212.904C138.385 213.192 138.252 213.571 138.252 214.04C138.252 214.509 138.385 214.893 138.652 215.192C138.929 215.48 139.351 215.624 139.916 215.624H145.58ZM163.2 218.168H161.44L159.152 213.352C159.024 213.085 158.891 212.893 158.752 212.776C158.624 212.648 158.411 212.584 158.112 212.584H156.384C156.085 212.584 155.867 212.648 155.728 212.776C155.6 212.893 155.472 213.085 155.344 213.352L153.056 218.168H151.296L153.952 212.584H151.52V211.144H162.976V212.584H160.544L163.2 218.168ZM163.984 220.728H158.048V225.528H156.448V220.728H150.512V219.288H163.984V220.728Z" fill="black"/>
<path opacity="0.88" d="M128.593 188.748V186.294H129.558V192.075H128.593V189.584H127.469V192.018H126.519V186.473H127.469V188.748H128.593ZM124.589 186.898H125.539V191.441H121.763V186.898H122.728V188.376H124.589V186.898ZM122.728 190.617H124.589V189.17H122.728V190.617ZM128.551 193.443H123.017V192.611H129.558V195.912H128.551V193.443ZM137.8 186.287H138.765V193.481H137.8V186.287ZM132.85 191.749C132.425 191.749 132.044 191.65 131.707 191.452C131.373 191.252 131.112 190.974 130.925 190.617C130.737 190.257 130.645 189.849 130.647 189.394C130.645 188.933 130.737 188.523 130.925 188.163C131.112 187.803 131.373 187.525 131.707 187.327C132.044 187.127 132.425 187.027 132.85 187.027C133.23 187.027 133.576 187.11 133.887 187.274C134.199 187.436 134.455 187.667 134.655 187.965C134.855 188.262 134.981 188.605 135.035 188.995H135.939V186.465H136.888V193.192H135.939V189.838H135.027C134.969 190.218 134.838 190.552 134.636 190.841C134.436 191.129 134.181 191.354 133.872 191.513C133.563 191.67 133.223 191.749 132.85 191.749ZM131.563 189.394C131.56 189.685 131.613 189.943 131.722 190.169C131.834 190.391 131.987 190.565 132.182 190.689C132.379 190.81 132.602 190.871 132.85 190.871C133.096 190.871 133.316 190.81 133.511 190.689C133.706 190.565 133.86 190.391 133.971 190.169C134.085 189.943 134.143 189.685 134.146 189.394C134.143 189.102 134.085 188.844 133.971 188.619C133.86 188.391 133.705 188.214 133.508 188.087C133.313 187.96 133.094 187.897 132.85 187.897C132.602 187.897 132.379 187.96 132.182 188.087C131.987 188.214 131.834 188.391 131.722 188.619C131.613 188.844 131.56 189.102 131.563 189.394ZM133.401 192.55V194.878H139.046V195.714H132.383V192.55H133.401ZM141.871 190.856H147.565V191.688H140.865V187.153H147.481V187.988H141.871V190.856ZM139.771 194.643V193.796H148.579V194.643H139.771ZM158.618 190.089V186.287H159.606V195.912H158.618V190.921H157.433V195.448H156.479V186.545H157.433V190.089H158.618ZM155.518 187.513C155.516 188.407 155.401 189.237 155.173 190.001C154.947 190.766 154.569 191.478 154.037 192.136C153.508 192.794 152.801 193.374 151.918 193.876L151.325 193.158C152.361 192.57 153.132 191.878 153.638 191.08C154.147 190.28 154.442 189.368 154.523 188.345H151.735V187.513H155.518ZM168.132 186.287V188.304H169.526V189.139H168.132V191.24H167.111V186.287H168.132ZM164.467 186.701H165.477V190.894H160.938V186.701H161.945V188.003H164.467V186.701ZM161.945 190.081H164.467V188.79H161.945V190.081ZM168.132 194.085H162.933V195H168.459V195.82H161.93V193.329H167.118V192.463H161.907V191.657H168.132V194.085ZM177.275 190.104H178.817V190.966H177.275V195.912H176.253V186.287H177.275V190.104ZM173.131 189.128C173.128 189.632 173.231 190.142 173.438 190.658C173.646 191.173 173.936 191.641 174.308 192.064C174.683 192.484 175.108 192.806 175.584 193.029L175.007 193.834C174.475 193.578 174.002 193.197 173.587 192.691C173.174 192.184 172.856 191.611 172.633 190.97C172.486 191.428 172.291 191.86 172.048 192.265C171.805 192.67 171.525 193.029 171.209 193.34C170.895 193.649 170.558 193.893 170.198 194.073L169.594 193.268C170.071 193.04 170.5 192.703 170.882 192.258C171.267 191.812 171.568 191.313 171.786 190.761C172.006 190.209 172.118 189.665 172.12 189.128V188.098H169.951V187.255H175.22V188.098H173.131V189.128Z" fill="#00AEAE"/>
<path opacity="0.88" d="M129.373 301.052V297.854H130.383V307.498H129.373V301.88H127.227V301.052H129.373ZM125.829 300.304C125.829 300.889 125.931 301.461 126.136 302.021C126.342 302.578 126.63 303.074 127.002 303.51C127.375 303.943 127.801 304.267 128.282 304.482L127.667 305.303C127.125 305.032 126.652 304.639 126.247 304.125C125.841 303.608 125.532 303.016 125.32 302.347C125.102 303.054 124.788 303.682 124.378 304.231C123.97 304.781 123.494 305.196 122.95 305.477L122.304 304.657C122.79 304.424 123.222 304.078 123.599 303.62C123.976 303.162 124.269 302.642 124.477 302.063C124.687 301.483 124.793 300.896 124.796 300.304V298.655H125.829V300.304ZM132.62 300.011H138.272V299.035H132.597V298.2H139.312V300.779H133.649V301.838H139.525V302.67H132.62V300.011ZM131.549 303.567H140.357V304.376H138.143V307.479H137.117V304.376H134.792V307.479H133.775V304.376H131.549V303.567ZM145.929 301.299V300.467H147.775V297.862H148.793V304.911H147.775V301.299H145.929ZM143.714 301.413C143.499 301.952 143.184 302.423 142.769 302.826C142.356 303.229 141.867 303.531 141.302 303.734L140.775 302.902C141.258 302.74 141.681 302.501 142.043 302.184C142.408 301.865 142.688 301.5 142.883 301.09C143.08 300.677 143.179 300.251 143.179 299.81V299.43H141.09V298.598H146.286V299.43H144.212V299.81C144.212 300.213 144.306 300.605 144.493 300.988C144.68 301.37 144.949 301.712 145.298 302.013C145.648 302.312 146.059 302.541 146.533 302.701L146.012 303.514C145.481 303.329 145.017 303.054 144.622 302.689C144.23 302.325 143.927 301.899 143.714 301.413ZM143.562 304.285V306.446H149.047V307.281H142.545V304.285H143.562ZM153.252 298.868H155.405V299.685H149.989V298.868H152.238V297.77H153.252V298.868ZM158 304.049H156.982V302.822H155.424V301.99H156.982V300.931H155.436V300.099H156.982V297.854H158V304.049ZM152.735 303.696C152.302 303.696 151.917 303.622 151.58 303.476C151.246 303.329 150.987 303.121 150.802 302.853C150.617 302.582 150.526 302.27 150.528 301.918C150.526 301.564 150.617 301.251 150.802 300.98C150.987 300.709 151.246 300.499 151.58 300.349C151.917 300.2 152.302 300.125 152.735 300.125C153.166 300.125 153.548 300.2 153.882 300.349C154.219 300.499 154.482 300.709 154.672 300.98C154.862 301.251 154.958 301.564 154.961 301.918C154.958 302.27 154.862 302.582 154.672 302.853C154.482 303.121 154.219 303.329 153.882 303.476C153.548 303.622 153.166 303.696 152.735 303.696ZM151.482 301.918C151.479 302.123 151.529 302.302 151.63 302.454C151.734 302.606 151.881 302.723 152.07 302.807C152.26 302.888 152.482 302.929 152.735 302.929C152.983 302.929 153.204 302.888 153.396 302.807C153.589 302.723 153.738 302.606 153.844 302.454C153.953 302.299 154.009 302.121 154.011 301.918C154.009 301.713 153.953 301.533 153.844 301.379C153.738 301.224 153.589 301.105 153.396 301.022C153.206 300.936 152.986 300.891 152.735 300.889C152.482 300.891 152.26 300.936 152.07 301.022C151.881 301.105 151.734 301.224 151.63 301.379C151.529 301.531 151.479 301.711 151.482 301.918ZM154.798 304.148C155.469 304.148 156.047 304.214 156.533 304.345C157.022 304.474 157.397 304.664 157.658 304.915C157.921 305.163 158.053 305.462 158.053 305.812C158.053 306.153 157.921 306.448 157.658 306.697C157.397 306.945 157.022 307.135 156.533 307.266C156.045 307.398 155.466 307.464 154.798 307.464C154.122 307.464 153.538 307.398 153.047 307.266C152.558 307.135 152.182 306.945 151.919 306.697C151.658 306.448 151.527 306.153 151.527 305.812C151.527 305.462 151.658 305.163 151.919 304.915C152.179 304.664 152.555 304.474 153.047 304.345C153.538 304.214 154.122 304.148 154.798 304.148ZM154.798 306.678C155.248 306.68 155.636 306.647 155.96 306.579C156.287 306.513 156.536 306.414 156.708 306.283C156.883 306.151 156.97 305.994 156.97 305.812C156.97 305.53 156.779 305.315 156.397 305.166C156.017 305.014 155.484 304.937 154.798 304.934C154.096 304.937 153.553 305.014 153.168 305.166C152.783 305.315 152.591 305.53 152.591 305.812C152.591 305.996 152.678 306.155 152.853 306.286C153.028 306.415 153.28 306.513 153.609 306.579C153.94 306.647 154.337 306.68 154.798 306.678Z" fill="#353535"/>
<path d="M209.022 290.402H344.978C346.977 290.402 348.598 292.023 348.598 294.022V310.111C348.598 312.111 346.977 313.731 344.978 313.731H209.022C207.023 313.731 205.402 312.111 205.402 310.111V294.022C205.402 292.023 207.023 290.402 209.022 290.402Z" fill="#F7F9FC"/>
<path d="M209.022 290.402H344.978C346.977 290.402 348.598 292.023 348.598 294.022V310.111C348.598 312.111 346.977 313.731 344.978 313.731H209.022C207.023 313.731 205.402 312.111 205.402 310.111V294.022C205.402 292.023 207.023 290.402 209.022 290.402Z" stroke="#EEEEEE" stroke-width="0.804469"/>
<path d="M218.418 298.196H220.9V298.904H215.074V298.196H217.563V297.092H218.418V298.196ZM222.696 299.689H224.166V300.421H222.696V302.863H221.833V297.185H222.696V299.689ZM217.991 302.785C217.521 302.788 217.108 302.719 216.75 302.579C216.392 302.439 216.116 302.239 215.922 301.98C215.727 301.721 215.631 301.419 215.634 301.074C215.631 300.732 215.727 300.431 215.922 300.172C216.116 299.912 216.391 299.713 216.746 299.573C217.104 299.433 217.519 299.363 217.991 299.363C218.455 299.363 218.863 299.433 219.216 299.573C219.571 299.713 219.846 299.912 220.04 300.172C220.237 300.431 220.337 300.732 220.34 301.074C220.337 301.419 220.237 301.721 220.04 301.98C219.846 302.239 219.571 302.439 219.216 302.579C218.86 302.719 218.452 302.788 217.991 302.785ZM216.458 301.074C216.456 301.284 216.518 301.469 216.645 301.63C216.772 301.788 216.951 301.911 217.182 301.999C217.415 302.088 217.685 302.132 217.991 302.132C218.291 302.132 218.557 302.088 218.788 301.999C219.019 301.911 219.197 301.788 219.325 301.63C219.454 301.469 219.52 301.284 219.523 301.074C219.52 300.866 219.454 300.682 219.325 300.522C219.197 300.361 219.019 300.238 218.788 300.152C218.557 300.064 218.291 300.021 217.991 300.024C217.685 300.021 217.415 300.064 217.182 300.152C216.951 300.238 216.772 300.361 216.645 300.522C216.518 300.682 216.456 300.866 216.458 301.074ZM217.368 304.341H221.833V303.291H222.696V306.83H216.513V303.291H217.368V304.341ZM217.368 306.13H221.833V305.025H217.368V306.13ZM231.784 297.193H232.648V303.018H231.784V301.719H229.186V301.004H231.784V299.651H229.342C229.015 300.415 228.482 301.073 227.744 301.622C227.005 302.172 226.101 302.593 225.033 302.886L224.698 302.194C225.492 301.976 226.184 301.688 226.775 301.331C227.366 300.973 227.833 300.559 228.175 300.09C228.517 299.618 228.717 299.106 228.774 298.554H225.196V297.846H229.7C229.7 298.225 229.658 298.59 229.575 298.943H231.784V297.193ZM231.784 304.146H226.067V303.454H232.648V306.946H231.784V304.146Z" fill="#222222"/>
<g clip-path="url(#clip2_269_1238)">
<path d="M332.106 300.787C332.106 300.58 332.215 300.374 332.427 300.23C332.811 299.969 333.386 300.007 333.712 300.315L335.726 302.217L337.739 300.314C338.065 300.006 338.64 299.968 339.025 300.229C339.407 300.49 339.456 300.952 339.13 301.26L336.421 303.821C336.247 303.984 335.994 304.078 335.726 304.078C335.459 304.078 335.205 303.984 335.031 303.821L332.322 301.26C332.177 301.123 332.106 300.954 332.106 300.787Z" fill="#222222"/>
</g>
<path opacity="0.88" d="M129.331 332.988H130.353V337.967H129.331V332.988ZM128.484 337.314C127.628 337.446 126.705 337.538 125.715 337.591C124.727 337.645 123.743 337.671 122.763 337.671H122.634L122.517 336.851C122.886 336.851 123.276 336.847 123.686 336.839V334.424H122.779V333.626H128.001V334.424H127.082V336.703C127.584 336.665 128.036 336.622 128.438 336.573L128.484 337.314ZM124.666 334.424V336.82C125.312 336.8 125.791 336.781 126.102 336.763V334.424H124.666ZM125.001 340.79V341.701H130.687V342.522H123.994V340.045H129.342V339.206H123.968V338.408H130.353V340.79H125.001ZM138.538 342.613V332.988H139.563V342.613H138.538ZM136.703 334.025C136.698 335.516 136.34 336.839 135.628 337.994C134.919 339.149 133.775 340.103 132.194 340.858L131.655 340.034C132.916 339.434 133.873 338.703 134.527 337.842C135.182 336.979 135.561 335.977 135.662 334.838H132.122V334.025H136.703ZM145.929 336.433V335.601H147.775V332.995H148.793V340.045H147.775V336.433H145.929ZM143.714 336.547C143.499 337.086 143.184 337.557 142.769 337.96C142.356 338.362 141.867 338.665 141.302 338.868L140.775 338.036C141.258 337.874 141.681 337.634 142.043 337.318C142.408 336.999 142.688 336.634 142.883 336.224C143.08 335.811 143.179 335.385 143.179 334.944V334.564H141.09V333.732H146.286V334.564H144.212V334.944C144.212 335.347 144.306 335.739 144.493 336.121C144.68 336.504 144.949 336.846 145.298 337.147C145.648 337.446 146.059 337.675 146.533 337.834L146.012 338.647C145.481 338.462 145.017 338.188 144.622 337.823C144.23 337.458 143.927 337.033 143.714 336.547ZM143.562 339.418V341.58H149.047V342.415H142.545V339.418H143.562ZM153.252 334.002H155.405V334.819H149.989V334.002H152.238V332.904H153.252V334.002ZM158 339.183H156.982V337.956H155.424V337.124H156.982V336.064H155.436V335.233H156.982V332.988H158V339.183ZM152.735 338.83C152.302 338.83 151.917 338.756 151.58 338.609C151.246 338.462 150.987 338.255 150.802 337.986C150.617 337.715 150.526 337.404 150.528 337.052C150.526 336.697 150.617 336.385 150.802 336.114C150.987 335.843 151.246 335.633 151.58 335.483C151.917 335.334 152.302 335.259 152.735 335.259C153.166 335.259 153.548 335.334 153.882 335.483C154.219 335.633 154.482 335.843 154.672 336.114C154.862 336.385 154.958 336.697 154.961 337.052C154.958 337.404 154.862 337.715 154.672 337.986C154.482 338.255 154.219 338.462 153.882 338.609C153.548 338.756 153.166 338.83 152.735 338.83ZM151.482 337.052C151.479 337.257 151.529 337.436 151.63 337.588C151.734 337.74 151.881 337.857 152.07 337.941C152.26 338.022 152.482 338.062 152.735 338.062C152.983 338.062 153.204 338.022 153.396 337.941C153.589 337.857 153.738 337.74 153.844 337.588C153.953 337.433 154.009 337.255 154.011 337.052C154.009 336.847 153.953 336.667 153.844 336.513C153.738 336.358 153.589 336.239 153.396 336.156C153.206 336.069 152.986 336.025 152.735 336.023C152.482 336.025 152.26 336.069 152.07 336.156C151.881 336.239 151.734 336.358 151.63 336.513C151.529 336.665 151.479 336.844 151.482 337.052ZM154.798 339.282C155.469 339.282 156.047 339.347 156.533 339.479C157.022 339.608 157.397 339.798 157.658 340.049C157.921 340.297 158.053 340.596 158.053 340.945C158.053 341.287 157.921 341.582 157.658 341.83C157.397 342.078 157.022 342.268 156.533 342.4C156.045 342.532 155.466 342.598 154.798 342.598C154.122 342.598 153.538 342.532 153.047 342.4C152.558 342.268 152.182 342.078 151.919 341.83C151.658 341.582 151.527 341.287 151.527 340.945C151.527 340.596 151.658 340.297 151.919 340.049C152.179 339.798 152.555 339.608 153.047 339.479C153.538 339.347 154.122 339.282 154.798 339.282ZM154.798 341.811C155.248 341.814 155.636 341.781 155.96 341.713C156.287 341.647 156.536 341.548 156.708 341.416C156.883 341.285 156.97 341.128 156.97 340.945C156.97 340.664 156.779 340.449 156.397 340.3C156.017 340.148 155.484 340.07 154.798 340.068C154.096 340.07 153.553 340.148 153.168 340.3C152.783 340.449 152.591 340.664 152.591 340.945C152.591 341.13 152.678 341.288 152.853 341.42C153.028 341.549 153.28 341.647 153.609 341.713C153.94 341.781 154.337 341.814 154.798 341.811Z" fill="#353535"/>
<path d="M209.022 325.536H344.978C346.977 325.536 348.598 327.157 348.598 329.156V345.245C348.598 347.244 346.977 348.865 344.978 348.865H209.022C207.023 348.865 205.402 347.244 205.402 345.245V329.156C205.402 327.157 207.023 325.536 209.022 325.536Z" fill="#F7F9FC"/>
<path d="M209.022 325.536H344.978C346.977 325.536 348.598 327.157 348.598 329.156V345.245C348.598 347.244 346.977 348.865 344.978 348.865H209.022C207.023 348.865 205.402 347.244 205.402 345.245V329.156C205.402 327.157 207.023 325.536 209.022 325.536Z" stroke="#EEEEEE" stroke-width="0.804469"/>
<path d="M218.418 333.33H220.9V334.038H215.074V333.33H217.563V332.225H218.418V333.33ZM222.696 334.823H224.166V335.554H222.696V337.997H221.833V332.319H222.696V334.823ZM217.991 337.919C217.521 337.921 217.108 337.853 216.75 337.713C216.392 337.573 216.116 337.373 215.922 337.114C215.727 336.855 215.631 336.553 215.634 336.208C215.631 335.865 215.727 335.565 215.922 335.305C216.116 335.046 216.391 334.847 216.746 334.707C217.104 334.567 217.519 334.497 217.991 334.497C218.455 334.497 218.863 334.567 219.216 334.707C219.571 334.847 219.846 335.046 220.04 335.305C220.237 335.565 220.337 335.865 220.34 336.208C220.337 336.553 220.237 336.855 220.04 337.114C219.846 337.373 219.571 337.573 219.216 337.713C218.86 337.853 218.452 337.921 217.991 337.919ZM216.458 336.208C216.456 336.418 216.518 336.603 216.645 336.764C216.772 336.922 216.951 337.045 217.182 337.133C217.415 337.221 217.685 337.265 217.991 337.265C218.291 337.265 218.557 337.221 218.788 337.133C219.019 337.045 219.197 336.922 219.325 336.764C219.454 336.603 219.52 336.418 219.523 336.208C219.52 336 219.454 335.816 219.325 335.655C219.197 335.495 219.019 335.372 218.788 335.286C218.557 335.198 218.291 335.155 217.991 335.158C217.685 335.155 217.415 335.198 217.182 335.286C216.951 335.372 216.772 335.495 216.645 335.655C216.518 335.816 216.456 336 216.458 336.208ZM217.368 339.474H221.833V338.424H222.696V341.963H216.513V338.424H217.368V339.474ZM217.368 341.263H221.833V340.159H217.368V341.263ZM231.784 332.326H232.648V338.152H231.784V336.853H229.186V336.138H231.784V334.784H229.342C229.015 335.549 228.482 336.206 227.744 336.756C227.005 337.306 226.101 337.727 225.033 338.02L224.698 337.328C225.492 337.11 226.184 336.822 226.775 336.464C227.366 336.107 227.833 335.693 228.175 335.224C228.517 334.752 228.717 334.24 228.774 333.688H225.196V332.98H229.7C229.7 333.358 229.658 333.724 229.575 334.077H231.784V332.326ZM231.784 339.28H226.067V338.588H232.648V342.08H231.784V339.28Z" fill="#222222"/>
<g clip-path="url(#clip3_269_1238)">
<path d="M332.106 335.921C332.106 335.714 332.215 335.508 332.427 335.363C332.811 335.103 333.386 335.141 333.712 335.449L335.726 337.35L337.739 335.448C338.065 335.14 338.64 335.102 339.025 335.363C339.407 335.624 339.456 336.086 339.13 336.394L336.421 338.955C336.247 339.118 335.994 339.212 335.726 339.212C335.459 339.212 335.205 339.118 335.031 338.955L332.322 336.394C332.177 336.256 332.106 336.088 332.106 335.921Z" fill="#222222"/>
</g>
<path opacity="0.88" d="M124.484 369.057H125.639V376.836H124.454V370.242H124.408L122.551 371.454V370.326L124.484 369.057ZM134.486 372.001H136.028V372.867H134.486V377.748H133.464V368.123H134.486V372.001ZM130.285 371.214C130.285 371.711 130.381 372.204 130.573 372.696C130.766 373.184 131.039 373.628 131.394 374.025C131.748 374.423 132.16 374.734 132.628 374.96L132.047 375.734C131.531 375.489 131.079 375.13 130.691 374.659C130.304 374.188 130.006 373.65 129.798 373.045C129.583 373.693 129.271 374.27 128.86 374.773C128.453 375.275 127.978 375.652 127.436 375.905L126.862 375.119C127.341 374.899 127.764 374.584 128.131 374.173C128.498 373.763 128.782 373.3 128.982 372.783C129.182 372.267 129.283 371.744 129.286 371.214V370.584H127.155V369.763H129.278V368.312H130.3V369.763H132.397V370.584H130.285V371.214ZM143.199 372.654H141.098V373.501H136.628V368.943H141.098V369.76H143.199V368.13H144.217V375.146H143.199V372.654ZM137.638 372.692H140.099V369.767H137.638V372.692ZM143.199 371.826V370.599H141.098V371.826H143.199ZM138.96 374.508V376.714H144.433V377.55H137.93V374.508H138.96ZM152.406 370.398V368.123H153.416V373.364H152.406V371.241H150.598V370.398H152.406ZM148.341 371.214C148.126 371.754 147.812 372.225 147.399 372.627C146.987 373.027 146.498 373.326 145.933 373.524L145.405 372.722C145.891 372.553 146.316 372.308 146.678 371.989C147.04 371.67 147.318 371.306 147.513 370.895C147.711 370.485 147.81 370.06 147.81 369.619V369.494H145.72V368.654H150.917V369.494H148.843V369.623C148.843 370.026 148.936 370.418 149.124 370.8C149.311 371.183 149.58 371.525 149.929 371.826C150.278 372.127 150.69 372.358 151.163 372.517L150.643 373.311C150.109 373.121 149.644 372.845 149.249 372.483C148.857 372.121 148.554 371.698 148.341 371.214ZM148.163 374.899H152.406V373.797H153.416V377.626H147.149V373.797H148.163V374.899ZM148.163 376.798H152.406V375.7H148.163V376.798Z" fill="#353535"/>
<path d="M209.022 360.671H344.978C346.977 360.671 348.598 362.292 348.598 364.291V380.38C348.598 382.379 346.977 384 344.978 384H209.022C207.023 384 205.402 382.379 205.402 380.38V364.291C205.402 362.292 207.023 360.671 209.022 360.671Z" fill="white"/>
<path d="M209.022 360.671H344.978C346.977 360.671 348.598 362.292 348.598 364.291V380.38C348.598 382.379 346.977 384 344.978 384H209.022C207.023 384 205.402 382.379 205.402 380.38V364.291C205.402 362.292 207.023 360.671 209.022 360.671Z" stroke="#EEEEEE" stroke-width="0.804469"/>
<path d="M222.245 367.453H223.109V377.246H222.245V367.453ZM215.618 368.418H220.137V374.773H215.618V368.418ZM219.297 369.11H216.474V374.065H219.297V369.11ZM232.648 373.489H231.784V371.669H230.128V370.961H231.784V369.919H230.128V369.211H231.784V367.453H232.648V373.489ZM230.392 372.571C229.544 372.704 228.642 372.792 227.685 372.836C226.729 372.877 225.725 372.898 224.675 372.898L224.566 372.167C225.108 372.167 225.528 372.164 225.826 372.159V368.908H224.838V368.192H230.026V368.908H229.031V372.039C229.568 371.997 230.008 371.954 230.353 371.91L230.392 372.571ZM226.666 368.908V372.147C227.18 372.135 227.69 372.115 228.199 372.089V368.908H226.666ZM229.404 373.691C230.083 373.691 230.668 373.76 231.158 373.898C231.651 374.035 232.027 374.236 232.286 374.5C232.548 374.762 232.679 375.078 232.679 375.449C232.679 375.817 232.548 376.132 232.286 376.394C232.027 376.659 231.651 376.86 231.158 376.997C230.668 377.137 230.083 377.207 229.404 377.207C228.725 377.207 228.139 377.137 227.646 376.997C227.154 376.86 226.776 376.659 226.515 376.394C226.255 376.132 226.127 375.817 226.13 375.449C226.127 375.078 226.255 374.762 226.515 374.5C226.776 374.236 227.154 374.035 227.646 373.898C228.139 373.76 228.725 373.691 229.404 373.691ZM229.404 376.523C229.902 376.523 230.332 376.48 230.695 376.394C231.058 376.309 231.337 376.186 231.531 376.025C231.726 375.864 231.823 375.672 231.823 375.449C231.823 375.226 231.726 375.033 231.531 374.87C231.337 374.706 231.058 374.582 230.695 374.496C230.332 374.411 229.902 374.368 229.404 374.368C228.904 374.368 228.471 374.411 228.105 374.496C227.742 374.582 227.464 374.706 227.269 374.87C227.077 375.033 226.983 375.226 226.985 375.449C226.983 375.672 227.077 375.864 227.269 376.025C227.464 376.186 227.742 376.309 228.105 376.394C228.471 376.48 228.904 376.523 229.404 376.523ZM241.603 371.428H243.19V372.159H241.603V377.223H240.74V367.453H241.603V371.428ZM239.075 368.503C239.073 369.455 238.915 370.353 238.601 371.199C238.29 372.044 237.8 372.822 237.131 373.532C236.465 374.242 235.614 374.853 234.58 375.364L234.098 374.687C235.355 374.062 236.327 373.288 237.014 372.365C237.704 371.44 238.098 370.394 238.197 369.227H234.556V368.503H239.075Z" fill="#222222"/>
<g clip-path="url(#clip4_269_1238)">
<path d="M332.106 371.056C332.106 370.849 332.215 370.643 332.427 370.498C332.811 370.238 333.386 370.275 333.712 370.583L335.726 372.485L337.739 370.583C338.065 370.275 338.64 370.237 339.025 370.497C339.407 370.759 339.456 371.221 339.13 371.529L336.421 374.089C336.247 374.253 335.994 374.347 335.726 374.347C335.459 374.347 335.205 374.253 335.031 374.089L332.322 371.529C332.177 371.391 332.106 371.223 332.106 371.056Z" fill="#222222"/>
</g>
<path opacity="0.88" d="M122.688 411.97L122.684 411.111L125.381 408.388C125.707 408.049 125.957 407.775 126.129 407.567C126.301 407.36 126.433 407.157 126.524 406.96C126.618 406.76 126.664 406.549 126.664 406.329C126.664 406.078 126.601 405.858 126.474 405.668C126.348 405.478 126.174 405.333 125.954 405.231C125.736 405.128 125.492 405.076 125.221 405.076C124.937 405.076 124.688 405.133 124.473 405.247C124.26 405.358 124.095 405.518 123.979 405.725C123.865 405.933 123.808 406.175 123.808 406.451H122.684C122.684 405.985 122.793 405.573 123.01 405.216C123.231 404.857 123.535 404.578 123.922 404.381C124.312 404.183 124.753 404.084 125.244 404.084C125.735 404.084 126.173 404.181 126.558 404.373C126.943 404.565 127.243 404.83 127.458 405.167C127.676 405.501 127.786 405.877 127.789 406.295C127.786 406.594 127.729 406.88 127.618 407.153C127.506 407.427 127.316 407.732 127.048 408.069C126.782 408.403 126.404 408.811 125.912 409.292L124.332 410.899V410.956H127.914V411.97H122.688ZM136.097 407.134H137.639V408H136.097V412.881H135.075V403.256H136.097V407.134ZM131.896 406.348C131.896 406.844 131.992 407.338 132.185 407.83C132.377 408.318 132.651 408.761 133.005 409.159C133.36 409.557 133.771 409.868 134.24 410.093L133.658 410.868C133.142 410.623 132.69 410.264 132.302 409.793C131.915 409.322 131.617 408.784 131.41 408.179C131.195 408.827 130.882 409.403 130.472 409.907C130.064 410.409 129.589 410.786 129.047 411.039L128.474 410.253C128.952 410.033 129.375 409.717 129.742 409.307C130.11 408.897 130.393 408.433 130.593 407.917C130.793 407.4 130.895 406.877 130.897 406.348V405.718H128.766V404.897H130.889V403.446H131.911V404.897H134.008V405.718H131.896V406.348ZM144.81 407.788H142.71V408.635H138.239V404.077H142.71V404.893H144.81V403.264H145.828V410.279H144.81V407.788ZM139.249 407.826H141.711V404.901H139.249V407.826ZM144.81 406.96V405.733H142.71V406.96H144.81ZM140.571 409.641V411.848H146.044V412.684H139.542V409.641H140.571ZM154.017 405.532V403.256H155.027V408.498H154.017V406.375H152.209V405.532H154.017ZM149.953 406.348C149.737 406.888 149.423 407.359 149.011 407.761C148.598 408.161 148.109 408.46 147.544 408.658L147.017 407.856C147.503 407.686 147.927 407.442 148.289 407.123C148.651 406.804 148.93 406.439 149.125 406.029C149.322 405.619 149.421 405.193 149.421 404.753V404.628H147.332V403.788H152.528V404.628H150.454V404.757C150.454 405.159 150.548 405.552 150.735 405.934C150.922 406.317 151.191 406.658 151.54 406.96C151.89 407.261 152.301 407.491 152.775 407.651L152.254 408.445C151.72 408.255 151.255 407.979 150.86 407.617C150.468 407.255 150.165 406.832 149.953 406.348ZM149.774 410.033H154.017V408.931H155.027V412.76H148.76V408.931H149.774V410.033ZM149.774 411.932H154.017V410.834H149.774V411.932Z" fill="#353535"/>
<path d="M209.022 395.805H344.978C346.977 395.805 348.598 397.425 348.598 399.425V415.514C348.598 417.513 346.977 419.134 344.978 419.134H209.022C207.023 419.134 205.402 417.513 205.402 415.514V399.425C205.402 397.425 207.023 395.805 209.022 395.805Z" fill="white"/>
<path d="M209.022 395.805H344.978C346.977 395.805 348.598 397.425 348.598 399.425V415.514C348.598 417.513 346.977 419.134 344.978 419.134H209.022C207.023 419.134 205.402 417.513 205.402 415.514V399.425C205.402 397.425 207.023 395.805 209.022 395.805Z" stroke="#EEEEEE" stroke-width="0.804469"/>
<path d="M222.245 402.587H223.109V412.38H222.245V402.587ZM215.618 403.552H220.137V409.906H215.618V403.552ZM219.297 404.244H216.474V409.199H219.297V404.244ZM232.648 408.623H231.784V406.803H230.128V406.095H231.784V405.053H230.128V404.345H231.784V402.587H232.648V408.623ZM230.392 407.705C229.544 407.837 228.642 407.926 227.685 407.97C226.729 408.011 225.725 408.032 224.675 408.032L224.566 407.301C225.108 407.301 225.528 407.298 225.826 407.293V404.042H224.838V403.326H230.026V404.042H229.031V407.172C229.568 407.131 230.008 407.088 230.353 407.044L230.392 407.705ZM226.666 404.042V407.281C227.18 407.268 227.69 407.249 228.199 407.223V404.042H226.666ZM229.404 408.825C230.083 408.825 230.668 408.894 231.158 409.031C231.651 409.169 232.027 409.37 232.286 409.634C232.548 409.896 232.679 410.212 232.679 410.583C232.679 410.951 232.548 411.266 232.286 411.528C232.027 411.793 231.651 411.993 231.158 412.131C230.668 412.271 230.083 412.341 229.404 412.341C228.725 412.341 228.139 412.271 227.646 412.131C227.154 411.993 226.776 411.793 226.515 411.528C226.255 411.266 226.127 410.951 226.13 410.583C226.127 410.212 226.255 409.896 226.515 409.634C226.776 409.37 227.154 409.169 227.646 409.031C228.139 408.894 228.725 408.825 229.404 408.825ZM229.404 411.656C229.902 411.656 230.332 411.614 230.695 411.528C231.058 411.443 231.337 411.319 231.531 411.159C231.726 410.998 231.823 410.806 231.823 410.583C231.823 410.36 231.726 410.167 231.531 410.004C231.337 409.84 231.058 409.716 230.695 409.63C230.332 409.545 229.902 409.502 229.404 409.502C228.904 409.502 228.471 409.545 228.105 409.63C227.742 409.716 227.464 409.84 227.269 410.004C227.077 410.167 226.983 410.36 226.985 410.583C226.983 410.806 227.077 410.998 227.269 411.159C227.464 411.319 227.742 411.443 228.105 411.528C228.471 411.614 228.904 411.656 229.404 411.656ZM241.603 406.562H243.19V407.293H241.603V412.356H240.74V402.587H241.603V406.562ZM239.075 403.637C239.073 404.589 238.915 405.487 238.601 406.332C238.29 407.178 237.8 407.955 237.131 408.666C236.465 409.376 235.614 409.987 234.58 410.497L234.098 409.821C235.355 409.196 236.327 408.422 237.014 407.499C237.704 406.573 238.098 405.527 238.197 404.361H234.556V403.637H239.075Z" fill="#222222"/>
<g clip-path="url(#clip5_269_1238)">
<path d="M332.106 406.189C332.106 405.983 332.215 405.777 332.427 405.632C332.811 405.371 333.386 405.409 333.712 405.717L335.726 407.619L337.739 405.716C338.065 405.408 338.64 405.371 339.025 405.631C339.407 405.893 339.456 406.354 339.13 406.662L336.421 409.223C336.247 409.386 335.994 409.481 335.726 409.481C335.459 409.481 335.205 409.386 335.031 409.223L332.322 406.662C332.177 406.525 332.106 406.357 332.106 406.189Z" fill="#222222"/>
</g>
<path opacity="0.88" d="M126.575 246.375C126.294 247.073 125.834 247.67 125.194 248.167C124.554 248.662 123.756 249.047 122.801 249.32L122.428 248.588C123.116 248.393 123.708 248.142 124.203 247.836C124.7 247.527 125.089 247.174 125.37 246.776C125.653 246.377 125.821 245.943 125.874 245.474H122.881V244.714H126.883C126.883 245.032 126.853 245.34 126.793 245.64H128.692V244.086H129.617V249.272H128.692V248.198H126.485V247.439H128.692V246.375H126.575ZM126.738 249.365C127.325 249.365 127.839 249.434 128.281 249.573C128.723 249.708 129.065 249.905 129.307 250.163C129.551 250.419 129.673 250.721 129.673 251.071C129.673 251.421 129.551 251.726 129.307 251.986C129.065 252.244 128.723 252.442 128.281 252.58C127.839 252.718 127.325 252.787 126.738 252.787C126.141 252.787 125.621 252.718 125.177 252.58C124.733 252.442 124.39 252.244 124.148 251.986C123.906 251.726 123.785 251.421 123.785 251.071C123.785 250.721 123.906 250.419 124.148 250.163C124.39 249.905 124.733 249.708 125.177 249.573C125.621 249.434 126.141 249.365 126.738 249.365ZM126.738 252.045C127.145 252.045 127.5 252.007 127.801 251.931C128.103 251.853 128.335 251.741 128.499 251.596C128.664 251.449 128.747 251.274 128.747 251.071C128.747 250.866 128.664 250.691 128.499 250.546C128.335 250.399 128.103 250.287 127.801 250.211C127.5 250.135 127.145 250.097 126.738 250.097C126.321 250.097 125.959 250.135 125.653 250.211C125.349 250.287 125.116 250.399 124.952 250.546C124.789 250.691 124.707 250.866 124.707 251.071C124.707 251.276 124.789 251.451 124.952 251.596C125.116 251.741 125.349 251.853 125.653 251.931C125.959 252.007 126.321 252.045 126.738 252.045ZM137.035 245.36V244.086H137.96V249.465H137.035V247.932H135.387V247.183H137.035V246.102H135.387V245.36H137.035ZM135.37 248.906C134.864 248.991 134.353 249.048 133.837 249.075C133.321 249.101 132.596 249.114 131.662 249.117H131.03V246.451H133.91V245.346H131.012V244.607H134.832V247.155H131.948V248.371C132.756 248.369 133.396 248.354 133.868 248.326C134.34 248.296 134.811 248.237 135.28 248.15L135.37 248.906ZM137.035 250.66H132.017V249.911H137.96V252.839H137.035V250.66Z" fill="#888888"/>
<path opacity="0.88" d="M147.258 244.928H148.308V252H147.231V246.006H147.189L145.501 247.107V246.081L147.258 244.928ZM156.8 250.55H155.874V247.577H153.468V246.834H155.874V245.916H153.468V245.177H155.874V244.086H156.8V250.55ZM154.555 248.985C153.911 249.105 153.287 249.187 152.684 249.231C152.083 249.274 151.419 249.297 150.691 249.3H150.018V244.69H150.94V248.526C151.566 248.522 152.161 248.497 152.725 248.454C153.289 248.408 153.867 248.331 154.459 248.222L154.555 248.985ZM152.035 249.987V251.89H157.028V252.649H151.099V249.987H152.035ZM158.15 252L158.147 251.22L160.598 248.744C160.895 248.435 161.122 248.187 161.278 247.998C161.435 247.809 161.555 247.625 161.638 247.445C161.723 247.264 161.765 247.073 161.765 246.872C161.765 246.644 161.708 246.444 161.593 246.271C161.478 246.099 161.32 245.966 161.12 245.874C160.922 245.78 160.699 245.733 160.453 245.733C160.195 245.733 159.969 245.785 159.773 245.888C159.58 245.989 159.43 246.134 159.324 246.323C159.22 246.512 159.169 246.732 159.169 246.983H158.147C158.147 246.559 158.246 246.185 158.444 245.86C158.644 245.534 158.92 245.28 159.272 245.101C159.627 244.921 160.027 244.831 160.474 244.831C160.92 244.831 161.319 244.919 161.669 245.094C162.019 245.269 162.291 245.509 162.487 245.816C162.685 246.119 162.785 246.461 162.787 246.841C162.785 247.113 162.733 247.373 162.632 247.622C162.531 247.87 162.358 248.148 162.114 248.454C161.872 248.758 161.528 249.128 161.082 249.566L159.645 251.026V251.078H162.901V252H158.15ZM170.092 247.535V244.079H170.99V252.829H170.092V248.291H169.015V252.407H168.148V244.314H169.015V247.535H170.092ZM167.274 245.194C167.272 246.007 167.167 246.761 166.96 247.456C166.755 248.151 166.411 248.798 165.928 249.396C165.447 249.995 164.804 250.522 164.001 250.978L163.462 250.325C164.404 249.791 165.105 249.162 165.565 248.436C166.028 247.709 166.296 246.88 166.37 245.95H163.835V245.194H167.274ZM176.48 248.796V248.212H178.186V244.086H179.118V249.217H178.186V248.796H176.48ZM174.661 246.862C174.221 246.862 173.835 246.81 173.504 246.706C173.175 246.601 172.919 246.45 172.737 246.254C172.558 246.056 172.468 245.823 172.468 245.553C172.468 245.288 172.558 245.057 172.737 244.859C172.919 244.661 173.176 244.508 173.507 244.4C173.839 244.292 174.223 244.238 174.661 244.238C175.091 244.238 175.471 244.292 175.8 244.4C176.129 244.508 176.385 244.661 176.567 244.859C176.748 245.057 176.841 245.288 176.843 245.553C176.841 245.823 176.748 246.056 176.567 246.254C176.385 246.45 176.129 246.601 175.8 246.706C175.473 246.81 175.093 246.862 174.661 246.862ZM174.661 244.863C174.394 244.863 174.16 244.891 173.96 244.949C173.762 245.004 173.609 245.085 173.5 245.191C173.394 245.294 173.343 245.415 173.345 245.553C173.343 245.691 173.394 245.812 173.5 245.916C173.609 246.019 173.762 246.1 173.96 246.157C174.16 246.213 174.394 246.24 174.661 246.24C174.923 246.24 175.153 246.213 175.351 246.157C175.549 246.1 175.701 246.019 175.807 245.916C175.915 245.812 175.969 245.691 175.969 245.553C175.969 245.415 175.915 245.294 175.807 245.191C175.699 245.085 175.546 245.004 175.348 244.949C175.152 244.891 174.923 244.863 174.661 244.863ZM174.153 249.238V247.96C173.697 247.974 173.147 247.981 172.502 247.981H171.922L171.815 247.314H172.157C173.163 247.314 174.112 247.3 175.002 247.273C175.896 247.243 176.74 247.186 177.537 247.104L177.592 247.698C176.856 247.799 176.014 247.875 175.068 247.925V249.238H174.153ZM174.074 251.399V252.073H179.381V252.746H173.162V250.778H178.196V250.16H173.127V249.51H179.118V251.399H174.074Z" fill="#353535"/>
<path opacity="0.88" d="M197.633 252.846V244.079H198.559V252.846H197.633ZM191.601 248.309C192.031 248.187 192.407 248.009 192.727 247.777C193.049 247.542 193.299 247.268 193.476 246.955C193.655 246.64 193.752 246.304 193.766 245.947H191.839V245.191H193.787V244.148H194.709V245.191H196.677V245.947H194.712C194.726 246.288 194.824 246.609 195.006 246.91C195.187 247.212 195.441 247.475 195.765 247.701C196.09 247.924 196.467 248.093 196.898 248.209L196.47 248.934C195.949 248.786 195.498 248.561 195.116 248.257C194.736 247.951 194.446 247.588 194.246 247.169C194.055 247.611 193.77 247.992 193.393 248.312C193.015 248.63 192.567 248.863 192.046 249.013L191.601 248.309ZM194.709 250.242C195.616 250.192 196.407 250.116 197.084 250.015L197.157 250.702C196.544 250.814 195.909 250.898 195.251 250.954C194.592 251.009 193.972 251.045 193.39 251.061C192.807 251.075 192.172 251.081 191.483 251.081L191.369 250.318C192.412 250.314 193.218 250.302 193.787 250.284V248.727H194.709V250.242ZM200.078 246.924C200.601 246.871 201.078 246.763 201.511 246.599C201.946 246.436 202.297 246.235 202.564 245.995C202.831 245.756 202.986 245.497 203.027 245.218H200.396V244.476H206.925V245.218H204.28C204.32 245.494 204.471 245.753 204.736 245.995C205.003 246.235 205.354 246.436 205.789 246.599C206.224 246.763 206.706 246.871 207.233 246.924L206.898 247.653C206.391 247.595 205.921 247.489 205.486 247.335C205.053 247.181 204.678 246.984 204.36 246.744C204.042 246.505 203.805 246.233 203.649 245.93C203.492 246.233 203.256 246.505 202.941 246.744C202.625 246.984 202.251 247.181 201.818 247.335C201.386 247.489 200.916 247.595 200.41 247.653L200.078 246.924ZM204.104 247.193V248.378H207.644V249.134H199.667V248.378H203.193V247.193H204.104ZM203.645 249.773C204.276 249.773 204.817 249.831 205.268 249.949C205.721 250.066 206.068 250.239 206.307 250.467C206.547 250.695 206.668 250.971 206.67 251.296C206.668 251.618 206.547 251.893 206.307 252.121C206.068 252.349 205.721 252.521 205.268 252.639C204.817 252.756 204.276 252.815 203.645 252.815C203.012 252.815 202.468 252.756 202.012 252.639C201.558 252.521 201.211 252.349 200.969 252.121C200.73 251.893 200.61 251.618 200.61 251.296C200.61 250.971 200.73 250.695 200.969 250.467C201.211 250.239 201.558 250.066 202.012 249.949C202.468 249.831 203.012 249.773 203.645 249.773ZM203.645 252.104C204.313 252.108 204.828 252.04 205.192 251.9C205.558 251.759 205.742 251.558 205.745 251.296C205.742 251.035 205.559 250.836 205.195 250.698C204.832 250.56 204.315 250.491 203.645 250.491C202.971 250.491 202.453 250.56 202.091 250.698C201.73 250.836 201.55 251.035 201.553 251.296C201.55 251.558 201.73 251.759 202.091 251.9C202.453 252.04 202.971 252.108 203.645 252.104ZM211.09 244.966H213.227V245.705H208.02V244.966H210.168V244.037H211.09V244.966ZM214.885 246.454H216.152V247.221H214.885V249.552H213.956V244.079H214.885V246.454ZM212.747 247.698C212.747 248.013 212.658 248.29 212.478 248.53C212.301 248.769 212.052 248.954 211.732 249.086C211.412 249.217 211.044 249.282 210.627 249.282C210.208 249.282 209.838 249.217 209.515 249.086C209.193 248.954 208.942 248.769 208.763 248.53C208.585 248.29 208.497 248.013 208.497 247.698C208.497 247.382 208.585 247.105 208.763 246.865C208.94 246.626 209.19 246.441 209.512 246.309C209.836 246.176 210.208 246.108 210.627 246.106C211.044 246.108 211.412 246.176 211.732 246.309C212.052 246.441 212.301 246.626 212.478 246.865C212.658 247.105 212.747 247.382 212.747 247.698ZM209.391 247.698C209.389 247.875 209.438 248.029 209.539 248.16C209.643 248.289 209.788 248.388 209.975 248.457C210.161 248.526 210.379 248.561 210.627 248.561C210.873 248.561 211.09 248.526 211.276 248.457C211.463 248.388 211.608 248.289 211.711 248.16C211.815 248.029 211.868 247.875 211.87 247.698C211.868 247.52 211.815 247.366 211.711 247.235C211.608 247.101 211.463 246.999 211.276 246.927C211.09 246.854 210.873 246.816 210.627 246.814C210.379 246.816 210.161 246.854 209.975 246.927C209.788 246.999 209.643 247.101 209.539 247.235C209.438 247.366 209.389 247.52 209.391 247.698ZM213.956 250.75H209.101V249.997H214.885V252.829H213.956V250.75ZM222.72 245.36V244.086H223.645V249.465H222.72V247.932H221.073V247.183H222.72V246.102H221.073V245.36H222.72ZM221.055 248.906C220.549 248.991 220.038 249.048 219.522 249.075C219.007 249.101 218.281 249.114 217.347 249.117H216.715V246.451H219.595V245.346H216.698V244.607H220.517V247.155H217.633V248.371C218.441 248.369 219.081 248.354 219.553 248.326C220.025 248.296 220.496 248.237 220.966 248.15L221.055 248.906ZM222.72 250.66H217.702V249.911H223.645V252.839H222.72V250.66Z" fill="#888888"/>
<path opacity="0.88" d="M233.258 244.928H234.308V252H233.231V246.006H233.189L231.501 247.107V246.081L233.258 244.928ZM242.8 250.55H241.874V247.577H239.468V246.834H241.874V245.916H239.468V245.177H241.874V244.086H242.8V250.55ZM240.555 248.985C239.911 249.105 239.287 249.187 238.684 249.231C238.083 249.274 237.419 249.297 236.691 249.3H236.018V244.69H236.94V248.526C237.566 248.522 238.161 248.497 238.725 248.454C239.289 248.408 239.867 248.331 240.459 248.222L240.555 248.985ZM238.035 249.987V251.89H243.028V252.649H237.099V249.987H238.035ZM244.15 252L244.147 251.22L246.598 248.744C246.895 248.435 247.122 248.187 247.278 247.998C247.435 247.809 247.555 247.625 247.638 247.445C247.723 247.264 247.765 247.073 247.765 246.872C247.765 246.644 247.708 246.444 247.593 246.271C247.478 246.099 247.32 245.966 247.12 245.874C246.922 245.78 246.699 245.733 246.453 245.733C246.195 245.733 245.969 245.785 245.773 245.888C245.58 245.989 245.43 246.134 245.324 246.323C245.22 246.512 245.169 246.732 245.169 246.983H244.147C244.147 246.559 244.246 246.185 244.444 245.86C244.644 245.534 244.92 245.28 245.272 245.101C245.627 244.921 246.027 244.831 246.474 244.831C246.92 244.831 247.319 244.919 247.669 245.094C248.019 245.269 248.291 245.509 248.487 245.816C248.685 246.119 248.785 246.461 248.787 246.841C248.785 247.113 248.733 247.373 248.632 247.622C248.531 247.87 248.358 248.148 248.114 248.454C247.872 248.758 247.528 249.128 247.082 249.566L245.645 251.026V251.078H248.901V252H244.15ZM256.092 247.535V244.079H256.99V252.829H256.092V248.291H255.015V252.407H254.148V244.314H255.015V247.535H256.092ZM253.274 245.194C253.272 246.007 253.167 246.761 252.96 247.456C252.755 248.151 252.411 248.798 251.928 249.396C251.447 249.995 250.804 250.522 250.001 250.978L249.462 250.325C250.404 249.791 251.105 249.162 251.565 248.436C252.028 247.709 252.296 246.88 252.37 245.95H249.835V245.194H253.274ZM262.48 248.796V248.212H264.186V244.086H265.118V249.217H264.186V248.796H262.48ZM260.661 246.862C260.221 246.862 259.835 246.81 259.504 246.706C259.175 246.601 258.919 246.45 258.737 246.254C258.558 246.056 258.468 245.823 258.468 245.553C258.468 245.288 258.558 245.057 258.737 244.859C258.919 244.661 259.176 244.508 259.507 244.4C259.839 244.292 260.223 244.238 260.661 244.238C261.091 244.238 261.471 244.292 261.8 244.4C262.129 244.508 262.385 244.661 262.567 244.859C262.748 245.057 262.841 245.288 262.843 245.553C262.841 245.823 262.748 246.056 262.567 246.254C262.385 246.45 262.129 246.601 261.8 246.706C261.473 246.81 261.093 246.862 260.661 246.862ZM260.661 244.863C260.394 244.863 260.16 244.891 259.96 244.949C259.762 245.004 259.609 245.085 259.5 245.191C259.394 245.294 259.343 245.415 259.345 245.553C259.343 245.691 259.394 245.812 259.5 245.916C259.609 246.019 259.762 246.1 259.96 246.157C260.16 246.213 260.394 246.24 260.661 246.24C260.923 246.24 261.153 246.213 261.351 246.157C261.549 246.1 261.701 246.019 261.807 245.916C261.915 245.812 261.969 245.691 261.969 245.553C261.969 245.415 261.915 245.294 261.807 245.191C261.699 245.085 261.546 245.004 261.348 244.949C261.152 244.891 260.923 244.863 260.661 244.863ZM260.153 249.238V247.96C259.697 247.974 259.147 247.981 258.502 247.981H257.922L257.815 247.314H258.157C259.163 247.314 260.112 247.3 261.002 247.273C261.896 247.243 262.74 247.186 263.537 247.104L263.592 247.698C262.856 247.799 262.014 247.875 261.068 247.925V249.238H260.153ZM260.074 251.399V252.073H265.381V252.746H259.162V250.778H264.196V250.16H259.127V249.51H265.118V251.399H260.074Z" fill="#353535"/>
<path opacity="0.88" d="M283.692 246.147V244.079H284.61V248.844H283.692V246.914H282.048V246.147H283.692ZM279.997 246.89C279.802 247.38 279.516 247.808 279.141 248.174C278.766 248.538 278.321 248.809 277.808 248.989L277.328 248.26C277.77 248.106 278.156 247.884 278.485 247.594C278.814 247.304 279.067 246.972 279.244 246.599C279.424 246.227 279.514 245.84 279.514 245.439V245.325H277.615V244.562H282.338V245.325H280.453V245.443C280.453 245.809 280.538 246.166 280.709 246.513C280.879 246.861 281.123 247.172 281.441 247.445C281.758 247.719 282.132 247.929 282.563 248.074L282.09 248.796C281.604 248.623 281.182 248.372 280.823 248.043C280.466 247.714 280.191 247.329 279.997 246.89ZM279.835 250.239H283.692V249.238H284.61V252.718H278.913V249.238H279.835V250.239ZM279.835 251.965H283.692V250.968H279.835V251.965ZM289.662 246.088C289.476 246.429 289.218 246.738 288.889 247.014C288.562 247.288 288.187 247.517 287.763 247.701C287.34 247.885 286.891 248.015 286.416 248.091L286.044 247.335C286.61 247.259 287.132 247.099 287.611 246.855C288.09 246.609 288.47 246.309 288.751 245.957C289.034 245.603 289.175 245.233 289.175 244.849V244.372H290.142V244.849C290.142 245.229 290.284 245.596 290.567 245.95C290.85 246.302 291.232 246.603 291.713 246.852C292.195 247.098 292.718 247.259 293.285 247.335L292.915 248.091C292.439 248.015 291.987 247.885 291.562 247.701C291.138 247.515 290.762 247.284 290.432 247.01C290.105 246.734 289.849 246.427 289.662 246.088ZM285.667 248.951H293.644V249.718H290.091V252.829H289.179V249.718H285.667V248.951ZM300.339 244.079H301.268V248.533H300.339V244.079ZM298.782 246.34C298.78 246.716 298.679 247.052 298.481 247.349C298.283 247.643 298.011 247.874 297.663 248.039C297.315 248.205 296.924 248.288 296.489 248.288C296.049 248.288 295.655 248.205 295.305 248.039C294.955 247.874 294.681 247.643 294.483 247.349C294.285 247.054 294.186 246.718 294.186 246.34C294.186 245.963 294.285 245.626 294.483 245.329C294.681 245.032 294.955 244.799 295.305 244.631C295.655 244.463 296.049 244.379 296.489 244.379C296.924 244.379 297.315 244.463 297.663 244.631C298.011 244.799 298.283 245.032 298.481 245.329C298.679 245.626 298.78 245.963 298.782 246.34ZM295.091 246.34C295.088 246.575 295.147 246.784 295.267 246.965C295.386 247.145 295.553 247.285 295.767 247.387C295.981 247.486 296.222 247.535 296.489 247.535C296.754 247.535 296.992 247.486 297.204 247.387C297.416 247.285 297.581 247.145 297.701 246.965C297.823 246.784 297.884 246.575 297.884 246.34C297.884 246.106 297.823 245.898 297.701 245.719C297.581 245.537 297.416 245.397 297.204 245.298C296.992 245.199 296.754 245.149 296.489 245.149C296.222 245.149 295.981 245.199 295.767 245.298C295.553 245.397 295.386 245.537 295.267 245.719C295.147 245.898 295.088 246.106 295.091 246.34ZM296.441 251.137V251.976H301.555V252.718H295.539V250.446H300.346V249.673H295.512V248.937H301.268V251.137H296.441ZM308.668 252.846V244.079H309.6V252.846H308.668ZM305.564 246.306C305.561 246.833 305.658 247.352 305.854 247.863C306.052 248.374 306.327 248.828 306.679 249.224C307.031 249.62 307.431 249.916 307.877 250.111L307.318 250.85C306.821 250.613 306.38 250.262 305.995 249.797C305.611 249.33 305.315 248.793 305.108 248.188C304.903 248.837 304.605 249.411 304.214 249.911C303.822 250.41 303.369 250.786 302.853 251.037L302.28 250.263C302.731 250.061 303.135 249.754 303.492 249.345C303.849 248.935 304.127 248.464 304.327 247.932C304.528 247.401 304.629 246.858 304.631 246.306V244.807H305.564V246.306Z" fill="#888888"/>
<path opacity="0.88" d="M317.625 252L317.622 251.22L320.073 248.744C320.37 248.435 320.597 248.187 320.753 247.998C320.91 247.809 321.03 247.625 321.113 247.445C321.198 247.264 321.24 247.073 321.24 246.872C321.24 246.644 321.183 246.444 321.068 246.271C320.953 246.099 320.795 245.966 320.595 245.874C320.397 245.78 320.174 245.733 319.928 245.733C319.67 245.733 319.444 245.785 319.248 245.888C319.055 245.989 318.905 246.134 318.799 246.323C318.695 246.512 318.644 246.732 318.644 246.983H317.622C317.622 246.559 317.721 246.185 317.919 245.86C318.119 245.534 318.395 245.28 318.747 245.101C319.102 244.921 319.502 244.831 319.949 244.831C320.395 244.831 320.794 244.919 321.144 245.094C321.494 245.269 321.766 245.509 321.962 245.816C322.16 246.119 322.26 246.461 322.262 246.841C322.26 247.113 322.208 247.373 322.107 247.622C322.006 247.87 321.833 248.148 321.589 248.454C321.347 248.758 321.003 249.128 320.557 249.566L319.12 251.026V251.078H322.376V252H317.625ZM325.731 252.114C325.188 252.114 324.721 251.971 324.332 251.686C323.946 251.4 323.65 250.985 323.445 250.439C323.24 249.891 323.138 249.234 323.138 248.468C323.138 247.706 323.24 247.053 323.445 246.51C323.652 245.964 323.95 245.549 324.339 245.263C324.728 244.975 325.192 244.831 325.731 244.831C326.27 244.831 326.733 244.975 327.122 245.263C327.514 245.549 327.812 245.964 328.017 246.51C328.224 247.053 328.328 247.706 328.328 248.468C328.328 249.234 328.225 249.891 328.02 250.439C327.815 250.985 327.518 251.4 327.129 251.686C326.74 251.971 326.274 252.114 325.731 252.114ZM325.731 251.189C326.051 251.189 326.325 251.084 326.553 250.874C326.781 250.665 326.954 250.358 327.074 249.952C327.196 249.545 327.257 249.05 327.257 248.468C327.257 247.887 327.196 247.394 327.074 246.986C326.952 246.579 326.777 246.27 326.549 246.061C326.321 245.851 326.049 245.747 325.731 245.747C325.415 245.747 325.144 245.851 324.916 246.061C324.688 246.27 324.513 246.579 324.391 246.986C324.269 247.394 324.208 247.887 324.208 248.468C324.208 249.05 324.268 249.545 324.388 249.952C324.507 250.358 324.681 250.665 324.909 250.874C325.139 251.084 325.413 251.189 325.731 251.189ZM329.144 252L329.141 251.22L331.592 248.744C331.889 248.435 332.116 248.187 332.273 247.998C332.429 247.809 332.549 247.625 332.632 247.445C332.717 247.264 332.759 247.073 332.759 246.872C332.759 246.644 332.702 246.444 332.587 246.271C332.472 246.099 332.314 245.966 332.114 245.874C331.916 245.78 331.694 245.733 331.447 245.733C331.189 245.733 330.963 245.785 330.767 245.888C330.574 245.989 330.424 246.134 330.318 246.323C330.215 246.512 330.163 246.732 330.163 246.983H329.141C329.141 246.559 329.24 246.185 329.438 245.86C329.638 245.534 329.914 245.28 330.266 245.101C330.621 244.921 331.021 244.831 331.468 244.831C331.915 244.831 332.313 244.919 332.663 245.094C333.013 245.269 333.285 245.509 333.481 245.816C333.679 246.119 333.779 246.461 333.782 246.841C333.779 247.113 333.727 247.373 333.626 247.622C333.525 247.87 333.352 248.148 333.108 248.454C332.867 248.758 332.522 249.128 332.076 249.566L330.639 251.026V251.078H333.896V252H329.144ZM337.198 252.097C336.756 252.097 336.356 252.014 335.997 251.848C335.637 251.68 335.352 251.449 335.14 251.154C334.931 250.857 334.819 250.523 334.805 250.153H335.851C335.868 250.351 335.937 250.529 336.059 250.688C336.183 250.847 336.344 250.971 336.542 251.061C336.742 251.151 336.961 251.195 337.198 251.195C337.479 251.195 337.731 251.133 337.954 251.009C338.18 250.882 338.355 250.709 338.479 250.488C338.606 250.264 338.669 250.013 338.669 249.735C338.669 249.449 338.602 249.194 338.469 248.968C338.338 248.74 338.156 248.563 337.923 248.436C337.691 248.308 337.428 248.243 337.136 248.243C336.544 248.243 336.132 248.45 335.9 248.865H334.888L335.351 244.928H339.356V245.85H336.242L336 247.825H336.069C336.221 247.683 336.414 247.569 336.649 247.483C336.886 247.398 337.136 247.356 337.398 247.356C337.838 247.356 338.234 247.457 338.586 247.66C338.939 247.86 339.214 248.14 339.412 248.499C339.612 248.855 339.712 249.259 339.712 249.711C339.712 250.169 339.605 250.578 339.391 250.94C339.177 251.301 338.879 251.584 338.497 251.789C338.114 251.994 337.682 252.097 337.198 252.097ZM340.552 248.015H343.695V248.913H340.552V248.015ZM347.099 252.114C346.556 252.114 346.09 251.971 345.701 251.686C345.314 251.4 345.018 250.985 344.813 250.439C344.608 249.891 344.506 249.234 344.506 248.468C344.506 247.706 344.608 247.053 344.813 246.51C345.02 245.964 345.319 245.549 345.708 245.263C346.097 244.975 346.561 244.831 347.099 244.831C347.638 244.831 348.102 244.975 348.491 245.263C348.882 245.549 349.18 245.964 349.385 246.51C349.592 247.053 349.696 247.706 349.696 248.468C349.696 249.234 349.593 249.891 349.389 250.439C349.184 250.985 348.887 251.4 348.498 251.686C348.109 251.971 347.642 252.114 347.099 252.114ZM347.099 251.189C347.419 251.189 347.693 251.084 347.921 250.874C348.149 250.665 348.323 250.358 348.442 249.952C348.564 249.545 348.625 249.05 348.625 248.468C348.625 247.887 348.564 247.394 348.442 246.986C348.32 246.579 348.145 246.27 347.918 246.061C347.69 245.851 347.417 245.747 347.099 245.747C346.784 245.747 346.512 245.851 346.284 246.061C346.056 246.27 345.881 246.579 345.759 246.986C345.637 247.394 345.576 247.887 345.576 248.468C345.576 249.05 345.636 249.545 345.756 249.952C345.876 250.358 346.049 250.665 346.277 250.874C346.508 251.084 346.782 251.189 347.099 251.189ZM350.513 252L350.509 251.22L352.961 248.744C353.258 248.435 353.484 248.187 353.641 247.998C353.797 247.809 353.917 247.625 354 247.445C354.085 247.264 354.128 247.073 354.128 246.872C354.128 246.644 354.07 246.444 353.955 246.271C353.84 246.099 353.682 245.966 353.482 245.874C353.284 245.78 353.062 245.733 352.816 245.733C352.558 245.733 352.331 245.785 352.135 245.888C351.942 245.989 351.792 246.134 351.687 246.323C351.583 246.512 351.531 246.732 351.531 246.983H350.509C350.509 246.559 350.608 246.185 350.806 245.86C351.006 245.534 351.283 245.28 351.635 245.101C351.989 244.921 352.39 244.831 352.836 244.831C353.283 244.831 353.681 244.919 354.031 245.094C354.381 245.269 354.654 245.509 354.85 245.816C355.047 246.119 355.148 246.461 355.15 246.841C355.148 247.113 355.096 247.373 354.995 247.622C354.893 247.87 354.721 248.148 354.477 248.454C354.235 248.758 353.891 249.128 353.444 249.566L352.008 251.026V251.078H355.264V252H350.513ZM356.156 248.015H359.299V248.913H356.156V248.015ZM362.703 252.114C362.16 252.114 361.694 251.971 361.305 251.686C360.918 251.4 360.622 250.985 360.417 250.439C360.212 249.891 360.11 249.234 360.11 248.468C360.11 247.706 360.212 247.053 360.417 246.51C360.624 245.964 360.922 245.549 361.312 245.263C361.701 244.975 362.164 244.831 362.703 244.831C363.242 244.831 363.706 244.975 364.095 245.263C364.486 245.549 364.784 245.964 364.989 246.51C365.196 247.053 365.3 247.706 365.3 248.468C365.3 249.234 365.197 249.891 364.992 250.439C364.788 250.985 364.491 251.4 364.102 251.686C363.713 251.971 363.246 252.114 362.703 252.114ZM362.703 251.189C363.023 251.189 363.297 251.084 363.525 250.874C363.753 250.665 363.927 250.358 364.046 249.952C364.168 249.545 364.229 249.05 364.229 248.468C364.229 247.887 364.168 247.394 364.046 246.986C363.924 246.579 363.749 246.27 363.521 246.061C363.294 245.851 363.021 245.747 362.703 245.747C362.388 245.747 362.116 245.851 361.888 246.061C361.66 246.27 361.485 246.579 361.363 246.986C361.241 247.394 361.18 247.887 361.18 248.468C361.18 249.05 361.24 249.545 361.36 249.952C361.48 250.358 361.653 250.665 361.881 250.874C362.111 251.084 362.385 251.189 362.703 251.189ZM370.419 249.711H371.379V250.619H370.419V252H369.393V250.619H365.964V249.752L369.086 244.928H370.419V249.711ZM369.324 246.206L367.09 249.655V249.711H369.4V246.206H369.324ZM375.939 244.928H376.988V252H375.911V246.006H375.87L374.181 247.107V246.081L375.939 244.928ZM382.79 249.711H383.75V250.619H382.79V252H381.765V250.619H378.336V249.752L381.458 244.928H382.79V249.711ZM381.696 246.206L379.462 249.655V249.711H381.772V246.206H381.696ZM385.23 251.123C385.103 251.123 384.986 251.092 384.877 251.03C384.772 250.968 384.687 250.884 384.625 250.778C384.563 250.672 384.533 250.557 384.536 250.432C384.533 250.308 384.563 250.193 384.625 250.087C384.687 249.981 384.772 249.897 384.877 249.835C384.986 249.773 385.103 249.742 385.23 249.742C385.352 249.742 385.466 249.773 385.571 249.835C385.677 249.897 385.761 249.981 385.824 250.087C385.888 250.193 385.92 250.308 385.92 250.432C385.92 250.557 385.888 250.672 385.824 250.778C385.761 250.884 385.677 250.968 385.571 251.03C385.466 251.092 385.352 251.123 385.23 251.123ZM385.23 247.584C385.103 247.584 384.986 247.552 384.877 247.49C384.772 247.428 384.687 247.344 384.625 247.238C384.563 247.132 384.533 247.017 384.536 246.893C384.533 246.769 384.563 246.654 384.625 246.548C384.687 246.442 384.772 246.358 384.877 246.296C384.986 246.233 385.103 246.202 385.23 246.202C385.352 246.202 385.466 246.233 385.571 246.296C385.677 246.358 385.761 246.442 385.824 246.548C385.888 246.654 385.92 246.769 385.92 246.893C385.92 247.017 385.888 247.132 385.824 247.238C385.761 247.344 385.677 247.428 385.571 247.49C385.466 247.552 385.352 247.584 385.23 247.584ZM386.872 252L386.869 251.22L389.32 248.744C389.617 248.435 389.844 248.187 390.001 247.998C390.157 247.809 390.277 247.625 390.36 247.445C390.445 247.264 390.488 247.073 390.488 246.872C390.488 246.644 390.43 246.444 390.315 246.271C390.2 246.099 390.042 245.966 389.842 245.874C389.644 245.78 389.422 245.733 389.175 245.733C388.918 245.733 388.691 245.785 388.495 245.888C388.302 245.989 388.152 246.134 388.046 246.323C387.943 246.512 387.891 246.732 387.891 246.983H386.869C386.869 246.559 386.968 246.185 387.166 245.86C387.366 245.534 387.642 245.28 387.995 245.101C388.349 244.921 388.75 244.831 389.196 244.831C389.643 244.831 390.041 244.919 390.391 245.094C390.741 245.269 391.014 245.509 391.209 245.816C391.407 246.119 391.507 246.461 391.51 246.841C391.507 247.113 391.456 247.373 391.354 247.622C391.253 247.87 391.08 248.148 390.836 248.454C390.595 248.758 390.25 249.128 389.804 249.566L388.367 251.026V251.078H391.624V252H386.872ZM394.978 252.114C394.435 252.114 393.969 251.971 393.58 251.686C393.193 251.4 392.897 250.985 392.692 250.439C392.487 249.891 392.385 249.234 392.385 248.468C392.385 247.706 392.487 247.053 392.692 246.51C392.899 245.964 393.197 245.549 393.587 245.263C393.976 244.975 394.439 244.831 394.978 244.831C395.517 244.831 395.981 244.975 396.37 245.263C396.761 245.549 397.059 245.964 397.264 246.51C397.471 247.053 397.575 247.706 397.575 248.468C397.575 249.234 397.472 249.891 397.267 250.439C397.063 250.985 396.766 251.4 396.377 251.686C395.988 251.971 395.521 252.114 394.978 252.114ZM394.978 251.189C395.298 251.189 395.572 251.084 395.8 250.874C396.028 250.665 396.202 250.358 396.321 249.952C396.443 249.545 396.504 249.05 396.504 248.468C396.504 247.887 396.443 247.394 396.321 246.986C396.199 246.579 396.024 246.27 395.796 246.061C395.569 245.851 395.296 245.747 394.978 245.747C394.663 245.747 394.391 245.851 394.163 246.061C393.935 246.27 393.76 246.579 393.638 246.986C393.516 247.394 393.455 247.887 393.455 248.468C393.455 249.05 393.515 249.545 393.635 249.952C393.755 250.358 393.928 250.665 394.156 250.874C394.386 251.084 394.66 251.189 394.978 251.189ZM399.085 251.123C398.959 251.123 398.841 251.092 398.733 251.03C398.627 250.968 398.543 250.884 398.481 250.778C398.419 250.672 398.389 250.557 398.391 250.432C398.389 250.308 398.419 250.193 398.481 250.087C398.543 249.981 398.627 249.897 398.733 249.835C398.841 249.773 398.959 249.742 399.085 249.742C399.207 249.742 399.321 249.773 399.427 249.835C399.533 249.897 399.617 249.981 399.679 250.087C399.744 250.193 399.776 250.308 399.776 250.432C399.776 250.557 399.744 250.672 399.679 250.778C399.617 250.884 399.533 250.968 399.427 251.03C399.321 251.092 399.207 251.123 399.085 251.123ZM399.085 247.584C398.959 247.584 398.841 247.552 398.733 247.49C398.627 247.428 398.543 247.344 398.481 247.238C398.419 247.132 398.389 247.017 398.391 246.893C398.389 246.769 398.419 246.654 398.481 246.548C398.543 246.442 398.627 246.358 398.733 246.296C398.841 246.233 398.959 246.202 399.085 246.202C399.207 246.202 399.321 246.233 399.427 246.296C399.533 246.358 399.617 246.442 399.679 246.548C399.744 246.654 399.776 246.769 399.776 246.893C399.776 247.017 399.744 247.132 399.679 247.238C399.617 247.344 399.533 247.428 399.427 247.49C399.321 247.552 399.207 247.584 399.085 247.584ZM403.235 252.097C402.754 252.097 402.322 252.015 401.94 251.852C401.56 251.688 401.26 251.459 401.039 251.164C400.82 250.87 400.705 250.532 400.694 250.153H401.781C401.793 250.355 401.863 250.534 401.992 250.688C402.123 250.842 402.296 250.962 402.51 251.047C402.724 251.13 402.962 251.171 403.225 251.171C403.508 251.171 403.761 251.123 403.984 251.026C404.21 250.93 404.385 250.794 404.509 250.619C404.636 250.444 404.699 250.245 404.699 250.021C404.701 249.787 404.639 249.578 404.513 249.396C404.388 249.215 404.205 249.073 403.964 248.972C403.724 248.87 403.439 248.82 403.107 248.82H402.506V247.943H403.107C403.374 247.943 403.611 247.897 403.819 247.805C404.026 247.71 404.187 247.578 404.302 247.407C404.419 247.237 404.478 247.04 404.478 246.817C404.478 246.603 404.427 246.414 404.326 246.251C404.225 246.085 404.081 245.957 403.895 245.867C403.71 245.778 403.495 245.733 403.249 245.733C403.009 245.733 402.786 245.775 402.579 245.86C402.374 245.943 402.208 246.063 402.082 246.22C401.955 246.376 401.887 246.558 401.878 246.765H400.842C400.854 246.39 400.968 246.056 401.184 245.764C401.4 245.469 401.69 245.24 402.054 245.077C402.418 244.913 402.82 244.831 403.259 244.831C403.708 244.831 404.104 244.919 404.447 245.094C404.792 245.267 405.057 245.5 405.241 245.795C405.428 246.087 405.52 246.41 405.517 246.762C405.52 247.024 405.469 247.262 405.366 247.477C405.264 247.691 405.119 247.87 404.93 248.015C404.742 248.158 404.521 248.26 404.267 248.323V248.378C404.583 248.422 404.855 248.519 405.082 248.671C405.313 248.823 405.488 249.018 405.607 249.255C405.727 249.492 405.786 249.76 405.783 250.059C405.786 250.446 405.676 250.795 405.455 251.106C405.237 251.414 404.933 251.657 404.544 251.834C404.155 252.009 403.718 252.097 403.235 252.097ZM406.668 252L406.665 251.22L409.117 248.744C409.414 248.435 409.64 248.187 409.797 247.998C409.953 247.809 410.073 247.625 410.156 247.445C410.241 247.264 410.284 247.073 410.284 246.872C410.284 246.644 410.226 246.444 410.111 246.271C409.996 246.099 409.838 245.966 409.638 245.874C409.44 245.78 409.218 245.733 408.972 245.733C408.714 245.733 408.487 245.785 408.291 245.888C408.098 245.989 407.948 246.134 407.842 246.323C407.739 246.512 407.687 246.732 407.687 246.983H406.665C406.665 246.559 406.764 246.185 406.962 245.86C407.162 245.534 407.438 245.28 407.791 245.101C408.145 244.921 408.546 244.831 408.992 244.831C409.439 244.831 409.837 244.919 410.187 245.094C410.537 245.269 410.81 245.509 411.005 245.816C411.203 246.119 411.303 246.461 411.306 246.841C411.303 247.113 411.252 247.373 411.15 247.622C411.049 247.87 410.876 248.148 410.632 248.454C410.391 248.758 410.047 249.128 409.6 249.566L408.164 251.026V251.078H411.42V252H406.668Z" fill="#353535"/>
<rect x="122" y="273" width="309" height="1" fill="#EEEEEE"/>
</g>
</g>
</g>
<defs>
<filter id="filter0_d_269_1238" x="13.1329" y="8.71143" width="693.734" height="561.734" filterUnits="userSpaceOnUse" color-interpolation-filters="sRGB">
<feFlood flood-opacity="0" result="BackgroundImageFix"/>
<feColorMatrix in="SourceAlpha" type="matrix" values="0 0 0 0 0 0 0 0 0 0 0 0 0 0 0 0 0 0 127 0" result="hardAlpha"/>
<feOffset dy="-4.42143"/>
<feGaussianBlur stdDeviation="23.4336"/>
<feComposite in2="hardAlpha" operator="out"/>
<feColorMatrix type="matrix" values="0 0 0 0 0.142104 0 0 0 0 0.54285 0 0 0 0 0.557692 0 0 0 0.03 0"/>
<feBlend mode="normal" in2="BackgroundImageFix" result="effect1_dropShadow_269_1238"/>
<feBlend mode="normal" in="SourceGraphic" in2="effect1_dropShadow_269_1238" result="shape"/>
</filter>
<filter id="filter1_d_269_1238" x="68.8" y="455.8" width="518.4" height="328.4" filterUnits="userSpaceOnUse" color-interpolation-filters="sRGB">
<feFlood flood-opacity="0" result="BackgroundImageFix"/>
<feColorMatrix in="SourceAlpha" type="matrix" values="0 0 0 0 0 0 0 0 0 0 0 0 0 0 0 0 0 0 127 0" result="hardAlpha"/>
<feOffset dy="21"/>
<feGaussianBlur stdDeviation="10.6"/>
<feComposite in2="hardAlpha" operator="out"/>
<feColorMatrix type="matrix" values="0 0 0 0 0 0 0 0 0 0 0 0 0 0 0 0 0 0 0.02 0"/>
<feBlend mode="normal" in2="BackgroundImageFix" result="effect1_dropShadow_269_1238"/>
<feBlend mode="normal" in="SourceGraphic" in2="effect1_dropShadow_269_1238" result="shape"/>
</filter>
<filter id="filter2_d_269_1238" x="67.8" y="159.8" width="518.4" height="328.4" filterUnits="userSpaceOnUse" color-interpolation-filters="sRGB">
<feFlood flood-opacity="0" result="BackgroundImageFix"/>
<feColorMatrix in="SourceAlpha" type="matrix" values="0 0 0 0 0 0 0 0 0 0 0 0 0 0 0 0 0 0 127 0" result="hardAlpha"/>
<feOffset dy="21"/>
<feGaussianBlur stdDeviation="10.6"/>
<feComposite in2="hardAlpha" operator="out"/>
<feColorMatrix type="matrix" values="0 0 0 0 0 0 0 0 0 0 0 0 0 0 0 0 0 0 0.06 0"/>
<feBlend mode="normal" in2="BackgroundImageFix" result="effect1_dropShadow_269_1238"/>
<feBlend mode="normal" in="SourceGraphic" in2="effect1_dropShadow_269_1238" result="shape"/>
</filter>
<clipPath id="clip0_269_1238">
<rect width="440" height="500" rx="16" fill="white"/>
</clipPath>
<clipPath id="clip1_269_1238">
<rect x="60" y="60" width="600" height="468" rx="22.1071" fill="white"/>
</clipPath>
<clipPath id="clip2_269_1238">
<rect width="7.24022" height="4.02235" fill="white" transform="translate(332.106 300.056)"/>
</clipPath>
<clipPath id="clip3_269_1238">
<rect width="7.24022" height="4.02235" fill="white" transform="translate(332.106 335.189)"/>
</clipPath>
<clipPath id="clip4_269_1238">
<rect width="7.24022" height="4.02235" fill="white" transform="translate(332.106 370.324)"/>
</clipPath>
<clipPath id="clip5_269_1238">
<rect width="7.24022" height="4.02235" fill="white" transform="translate(332.106 405.458)"/>
</clipPath>
</defs>
</svg>
